<svg xmlns="http://www.w3.org/2000/svg" width="48" height="48" viewBox="0 -960 960 960" color="#2563eb" role="img" aria-labelledby="material-symbols-package-title material-symbols-package-desc">
  <title id="material-symbols-package-title">package</title>
  <desc id="material-symbols-package-desc">开发工具 - Material Symbols - package - Apache-2.0</desc><path fill="currentColor" d="m380-548 100-50 100 50v-232H380v232ZM280-280v-80h200v80H280ZM180-120q-24 0-42-18t-18-42v-600q0-24 18-42t42-18h600q24 0 42 18t18 42v600q0 24-18 42t-42 18H180Zm0-660v600-600Zm0 600h600v-600H640v329l-160-80-160 80v-329H180v600Z"/></svg>