<svg xmlns="http://www.w3.org/2000/svg" width="48" height="48" viewBox="0 -960 960 960" color="#2563eb" role="img" aria-labelledby="material-symbols-api-title material-symbols-api-desc">
  <title id="material-symbols-api-title">api</title>
  <desc id="material-symbols-api-desc">开发工具 - Material Symbols - api - Apache-2.0</desc><path fill="currentColor" d="M480-375 375-480l105-105 105 105-105 105Zm-85-294-83-83 168-168 168 168-83 83-85-85-85 85ZM208-312 40-480l168-168 83 83-85 85 85 85-83 83Zm544 0-83-83 85-85-85-85 83-83 168 168-168 168ZM480-40 312-208l83-83 85 85 85-85 83 83L480-40Z"/></svg>