<svg xmlns="http://www.w3.org/2000/svg" width="48" height="48" viewBox="0 -960 960 960" color="#2563eb" role="img" aria-labelledby="material-symbols-power-off-title material-symbols-power-off-desc">
  <title id="material-symbols-power-off-title">power off</title>
  <desc id="material-symbols-power-off-desc">能源通用 - Material Symbols - power_off - Apache-2.0</desc><path fill="currentColor" d="M382-120v-118L240-394v-215q0-25 17-42.5t41-17.5l60 60h-58v191l142 155.7v82.3h76v-82l49-54L67-816l42-42 750 750-42 42-207-207-32 35v118H382Zm310-240-32-32v-217H443L342-710v-130h60v171h156v-171h60v201l-30-30h72q24.75 0 42.38 17.62Q720-633.75 720-609v217l-28 32ZM553-499Zm-114 55Z"/></svg>