<svg xmlns="http://www.w3.org/2000/svg" viewBox="0 0 20 20" color="#2563eb" role="img" aria-labelledby="zondicons-travel-car-title zondicons-travel-car-desc">
  <title id="zondicons-travel-car-title">travel car</title>
  <desc id="zondicons-travel-car-desc">交通设施 - Zondicons - travel-car - CC-BY-4.0</desc><path fill="currentColor" d="M2 14v-3H1a1 1 0 0 1-1-1 1 1 0 0 1 1-1h1l4-7h8l4 7h1a1 1 0 0 1 1 1 1 1 0 0 1-1 1h-1v6a1 1 0 0 1-1 1h-1a1 1 0 0 1-1-1v-1H5v1a1 1 0 0 1-1 1H3a1 1 0 0 1-1-1v-3zm13.86-5L13 4H7L4.14 9h11.72zM5.5 14a1.5 1.5 0 1 0 0-3 1.5 1.5 0 0 0 0 3zm9 0a1.5 1.5 0 1 0 0-3 1.5 1.5 0 0 0 0 3z"/></svg>