<svg xmlns="http://www.w3.org/2000/svg" viewBox="0 0 20 20" color="#2563eb" role="img" aria-labelledby="zondicons-location-gas-station-title zondicons-location-gas-station-desc">
  <title id="zondicons-location-gas-station-title">location gas station</title>
  <desc id="zondicons-location-gas-station-desc">交通设施 - Zondicons - location-gas-station - CC-BY-4.0</desc><path fill="currentColor" d="M13 18h1v2H0v-2h1V2c0-1.1.9-2 2-2h8a2 2 0 0 1 2 2v16zM3 2v6h8V2H3zm10 8h1a2 2 0 0 1 2 2v3a1 1 0 0 0 2 0v-5l-2-2V6l-2-2 1-1 5 5v7a3 3 0 0 1-6 0v-3h-1v-2z"/></svg>