<svg xmlns="http://www.w3.org/2000/svg" viewBox="0 0 20 20" color="#2563eb" role="img" aria-labelledby="zondicons-travel-bus-title zondicons-travel-bus-desc">
  <title id="zondicons-travel-bus-title">travel bus</title>
  <desc id="zondicons-travel-bus-desc">交通设施 - Zondicons - travel-bus - CC-BY-4.0</desc><path fill="currentColor" d="M13 18H7v1a1 1 0 0 1-1 1H5a1 1 0 0 1-1-1v-1a2 2 0 0 1-2-2V2c0-1.1.9-2 2-2h12a2 2 0 0 1 2 2v14a2 2 0 0 1-2 2v1a1 1 0 0 1-1 1h-1a1 1 0 0 1-1-1v-1zM4 5v6h5V5H4zm7 0v6h5V5h-5zM5 2v1h10V2H5zm.5 14a1.5 1.5 0 1 0 0-3 1.5 1.5 0 0 0 0 3zm9 0a1.5 1.5 0 1 0 0-3 1.5 1.5 0 0 0 0 3z"/></svg>