<svg xmlns="http://www.w3.org/2000/svg" viewBox="0 0 24 24" color="#2563eb" role="img" aria-labelledby="eos-icons-receipt-title eos-icons-receipt-desc">
  <title id="eos-icons-receipt-title">receipt</title>
  <desc id="eos-icons-receipt-desc">业务金融 - EOS Icons - receipt - MIT</desc><path fill="currentColor" d="M19.5 3.5L18 2l-1.5 1.5L15 2l-1.5 1.5L12 2l-1.5 1.5L9 2 7.5 3.5 6 2 4.5 3.5 3 2v20l1.5-1.5L6 22l1.5-1.5L9 22l1.5-1.5L12 22l1.5-1.5L15 22l1.5-1.5L18 22l1.5-1.5L21 22V2l-1.5 1.5zM19 19.09H5V4.91h14v14.18zM6 15h12v2H6zm0-4h12v2H6zm0-4h12v2H6z"/></svg>