<svg xmlns="http://www.w3.org/2000/svg" width="24" height="24" fill="none" viewBox="0 0 24 24" color="#2563eb" role="img" aria-labelledby="flowbite-cash-title flowbite-cash-desc">
  <title id="flowbite-cash-title">cash</title>
  <desc id="flowbite-cash-desc">业务金融 - Flowbite Icons - cash - MIT</desc>
  <path stroke="currentColor" stroke-linecap="round" stroke-width="2" d="M8 7V6a1 1 0 0 1 1-1h11a1 1 0 0 1 1 1v7a1 1 0 0 1-1 1h-1M3 18v-7a1 1 0 0 1 1-1h11a1 1 0 0 1 1 1v7a1 1 0 0 1-1 1H4a1 1 0 0 1-1-1Zm8-3.5a1.5 1.5 0 1 1-3 0 1.5 1.5 0 0 1 3 0Z"/>
</svg>
