<svg xmlns="http://www.w3.org/2000/svg" width="24" height="24" fill="none" viewBox="0 0 24 24" color="#2563eb" role="img" aria-labelledby="flowbite-wallet-title flowbite-wallet-desc">
  <title id="flowbite-wallet-title">wallet</title>
  <desc id="flowbite-wallet-desc">业务金融 - Flowbite Icons - wallet - MIT</desc>
  <path stroke="currentColor" stroke-linecap="round" stroke-linejoin="round" stroke-width="2" d="M17 8H5m12 0a1 1 0 0 1 1 1v2.6M17 8l-4-4M5 8a1 1 0 0 0-1 1v10a1 1 0 0 0 1 1h12a1 1 0 0 0 1-1v-2.6M5 8l4-4 4 4m6 4h-4a2 2 0 1 0 0 4h4a1 1 0 0 0 1-1v-2a1 1 0 0 0-1-1Z"/>
</svg>
