<svg xmlns="http://www.w3.org/2000/svg" viewBox="0 0 24 24" fill="none" color="#2563eb" role="img" aria-labelledby="majesticons-ship-title majesticons-ship-desc">
  <title id="majesticons-ship-title">ship</title>
  <desc id="majesticons-ship-desc">交通设施 - Majesticons - ship - MIT</desc><path stroke="currentColor" stroke-linecap="round" stroke-linejoin="round" stroke-width="2" d="m19 16 2-4-4-.889M12 10v5m0-5-5 1.111M12 10l5 1.111M5 16l-2-4 4-.889m0 0L6 6h4m7 5.111L18 6h-4m0 0V3h-4v3m4 0h-4M3 20l1.245-.498a2.57 2.57 0 0 1 2.38.248v0a2.57 2.57 0 0 0 3.36-.446l.035-.04a2.631 2.631 0 0 1 3.96 0l.036.04a2.57 2.57 0 0 0 3.36.446v0a2.57 2.57 0 0 1 2.38-.248L21 20"/></svg>