<svg width="24" height="24" viewBox="0 0 20 20" xmlns="http://www.w3.org/2000/svg" color="#2563eb" role="img" aria-labelledby="table-split-title table-split-desc">
  <title id="table-split-title">Table Split</title>
  <desc id="table-split-desc">文档文件 - table_split, 20px regular</desc><path fill="currentColor" d="M16.5 2c.28 0 .5.22.5.5V4a2 2 0 0 1-2 2H5a2 2 0 0 1-2-2V2.5a.5.5 0 0 1 1 0V4a1 1 0 0 0 1 1h2V2.5a.5.5 0 0 1 1 0V5h4V2.5a.5.5 0 0 1 1 0V5h2a1 1 0 0 0 1-1V2.5c0-.28.22-.5.5-.5Zm0 16a.5.5 0 0 0 .5-.5V16a2 2 0 0 0-2-2H5a2 2 0 0 0-2 2v1.5a.5.5 0 0 0 1 0V16a1 1 0 0 1 1-1h2v2.5a.5.5 0 0 0 1 0V15h4v2.5a.5.5 0 0 0 1 0V15h2a1 1 0 0 1 1 1v1.5c0 .28.22.5.5.5Zm-14-8.5h15a.5.5 0 1 1 0 1h-15a.5.5 0 0 1 0-1Z"/></svg>