<svg width="24" height="24" viewBox="0 0 24 24" xmlns="http://www.w3.org/2000/svg" color="#2563eb" role="img" aria-labelledby="text-wrap-title text-wrap-desc">
  <title id="text-wrap-title">Text Wrap</title>
  <desc id="text-wrap-desc">文档文件 - text_wrap, 24px regular</desc><path fill="currentColor" d="M2.75 5a.75.75 0 0 0 0 1.5h18.5a.75.75 0 0 0 0-1.5H2.75Zm0 6.5a.75.75 0 0 0 0 1.5H19a2.5 2.5 0 0 1 0 5h-4.44l.72-.72a.75.75 0 1 0-1.06-1.06l-2 2c-.3.3-.3.77 0 1.06l2 2a.75.75 0 1 0 1.06-1.06l-.72-.72H19a4 4 0 0 0 0-8H2.75ZM2 18.75c0-.41.34-.75.75-.75h6.5a.75.75 0 0 1 0 1.5h-6.5a.75.75 0 0 1-.75-.75Z"/></svg>