<svg
  xmlns="http://www.w3.org/2000/svg"
  width="24"
  height="24"
  viewBox="0 0 24 24"
  fill="none"
  stroke="currentColor"
  stroke-width="2"
  stroke-linecap="round"
  stroke-linejoin="round"
  class="icon icon-tabler icons-tabler-outline icon-tabler-share"
 color="#2563eb" role="img" aria-labelledby="tabler-share-title tabler-share-desc">
  <title id="tabler-share-title">share</title>
  <desc id="tabler-share-desc">通用命令 - Tabler Icons - share - MIT</desc>
  <path stroke="none" d="M0 0h24v24H0z" fill="none" />
  <path fill="currentColor" d="M3 12a3 3 0 1 0 6 0a3 3 0 1 0 -6 0" />
  <path fill="currentColor" d="M15 6a3 3 0 1 0 6 0a3 3 0 1 0 -6 0" />
  <path fill="currentColor" d="M15 18a3 3 0 1 0 6 0a3 3 0 1 0 -6 0" />
  <path fill="currentColor" d="M8.7 10.7l6.6 -3.4" />
  <path fill="currentColor" d="M8.7 13.3l6.6 3.4" />
</svg>