<svg
  xmlns="http://www.w3.org/2000/svg"
  width="24"
  height="24"
  viewBox="0 0 24 24"
  fill="none"
  stroke="currentColor"
  stroke-width="2"
  stroke-linecap="round"
  stroke-linejoin="round"
  class="icon icon-tabler icons-tabler-outline icon-tabler-clipboard-check"
 color="#2563eb" role="img" aria-labelledby="tabler-clipboard-check-title tabler-clipboard-check-desc">
  <title id="tabler-clipboard-check-title">clipboard check</title>
  <desc id="tabler-clipboard-check-desc">通用命令 - Tabler Icons - clipboard-check - MIT</desc>
  <path stroke="none" d="M0 0h24v24H0z" fill="none" />
  <path fill="currentColor" d="M9 5h-2a2 2 0 0 0 -2 2v12a2 2 0 0 0 2 2h10a2 2 0 0 0 2 -2v-12a2 2 0 0 0 -2 -2h-2" />
  <path fill="currentColor" d="M9 5a2 2 0 0 1 2 -2h2a2 2 0 0 1 2 2a2 2 0 0 1 -2 2h-2a2 2 0 0 1 -2 -2" />
  <path fill="currentColor" d="M9 14l2 2l4 -4" />
</svg>