<svg
  xmlns="http://www.w3.org/2000/svg"
  width="24"
  height="24"
  viewBox="0 0 24 24"
  fill="none"
  stroke="currentColor"
  stroke-width="2"
  stroke-linecap="round"
  stroke-linejoin="round"
  class="icon icon-tabler icons-tabler-outline icon-tabler-clipboard-plus"
 color="#2563eb" role="img" aria-labelledby="tabler-clipboard-plus-title tabler-clipboard-plus-desc">
  <title id="tabler-clipboard-plus-title">clipboard plus</title>
  <desc id="tabler-clipboard-plus-desc">通用命令 - Tabler Icons - clipboard-plus - MIT</desc>
  <path stroke="none" d="M0 0h24v24H0z" fill="none" />
  <path fill="currentColor" d="M9 5h-2a2 2 0 0 0 -2 2v12a2 2 0 0 0 2 2h10a2 2 0 0 0 2 -2v-12a2 2 0 0 0 -2 -2h-2" />
  <path fill="currentColor" d="M9 5a2 2 0 0 1 2 -2h2a2 2 0 0 1 2 2a2 2 0 0 1 -2 2h-2a2 2 0 0 1 -2 -2" />
  <path fill="currentColor" d="M10 14h4" />
  <path fill="currentColor" d="M12 12v4" />
</svg>