<svg
  xmlns="http://www.w3.org/2000/svg"
  width="24"
  height="24"
  viewBox="0 0 24 24"
  fill="none"
  stroke="currentColor"
  stroke-width="2"
  stroke-linecap="round"
  stroke-linejoin="round"
  class="icon icon-tabler icons-tabler-outline icon-tabler-copy-plus"
 color="#2563eb" role="img" aria-labelledby="tabler-copy-plus-title tabler-copy-plus-desc">
  <title id="tabler-copy-plus-title">copy plus</title>
  <desc id="tabler-copy-plus-desc">通用命令 - Tabler Icons - copy-plus - MIT</desc>
  <path stroke="none" d="M0 0h24v24H0z" fill="none" />
  <path fill="currentColor" d="M7 9.667a2.667 2.667 0 0 1 2.667 -2.667h8.666a2.667 2.667 0 0 1 2.667 2.667v8.666a2.667 2.667 0 0 1 -2.667 2.667h-8.666a2.667 2.667 0 0 1 -2.667 -2.667l0 -8.666" />
  <path fill="currentColor" d="M4.012 16.737a2 2 0 0 1 -1.012 -1.737v-10c0 -1.1 .9 -2 2 -2h10c.75 0 1.158 .385 1.5 1" />
  <path fill="currentColor" d="M11 14h6" />
  <path fill="currentColor" d="M14 11v6" />
</svg>