<svg
  xmlns="http://www.w3.org/2000/svg"
  width="24"
  height="24"
  viewBox="0 0 24 24"
  fill="none"
  stroke="currentColor"
  stroke-width="2"
  stroke-linecap="round"
  stroke-linejoin="round"
  class="icon icon-tabler icons-tabler-outline icon-tabler-edit-off"
 color="#2563eb" role="img" aria-labelledby="tabler-edit-off-title tabler-edit-off-desc">
  <title id="tabler-edit-off-title">edit off</title>
  <desc id="tabler-edit-off-desc">通用命令 - Tabler Icons - edit-off - MIT</desc>
  <path stroke="none" d="M0 0h24v24H0z" fill="none" />
  <path fill="currentColor" d="M7 7h-1a2 2 0 0 0 -2 2v9a2 2 0 0 0 2 2h9a2 2 0 0 0 2 -2v-1" />
  <path fill="currentColor" d="M10.507 10.498l-1.507 1.502v3h3l1.493 -1.498m2 -2.01l4.89 -4.907a2.1 2.1 0 0 0 -2.97 -2.97l-4.913 4.896" />
  <path fill="currentColor" d="M16 5l3 3" />
  <path fill="currentColor" d="M3 3l18 18" />
</svg>