<svg xmlns="http://www.w3.org/2000/svg" viewBox="0 0 32 32" color="#2563eb" role="img" aria-labelledby="carbon-map-center-title carbon-map-center-desc">
  <title id="carbon-map-center-title">map center</title>
  <desc id="carbon-map-center-desc">输电环节 - Carbon Icons - map-center - Apache-2.0</desc><path fill="currentColor" d="M23 26H25V30H23z"/><path fill="currentColor" d="M23 18H25V22H23z"/><path fill="currentColor" d="M26 23H30V25H26z"/><path fill="currentColor" d="M18 23H22V25H18z"/><path fill="currentColor" d="M25.3418,10.06l-22-8A1,1,0,0,0,2.06,3.3415l8,22A1.0011,1.0011,0,0,0,10.9839,26H11a1,1,0,0,0,.9287-.6289L15.77,15.7692l9.6015-3.8408a1,1,0,0,0-.0293-1.8687ZM14.6284,14.0709v0l-.3979.1591-.1591.3979,0,0-3.0268,7.5678L4.6719,4.6715l17.5244,6.3726Z"/></svg>