<svg xmlns="http://www.w3.org/2000/svg" viewBox="0 0 32 32" color="#2563eb" role="img" aria-labelledby="carbon-minimap-off-title carbon-minimap-off-desc">
  <title id="carbon-minimap-off-title">minimap off</title>
  <desc id="carbon-minimap-off-desc">输电环节 - Carbon Icons - minimap-off - Apache-2.0</desc><path fill="currentColor" d="M29.4,4.6c-.4-.4-.9-.6-1.4-.6H4c-.5,0-1,.2-1.4.6s-.6.9-.6,1.4v20c0,.5.2,1,.6,1.4s.9.6,1.4.6h5v-2h-5V6h24v6h2v-6c0-.5-.2-1-.6-1.4ZM28,15h-14c-1.1,0-2,.9-2,2v9c0,1.1.9,2,2,2h14c1.1,0,2-.9,2-2v-9c0-1.1-.9-2-2-2ZM28,26h-14v-9h14v9Z"/></svg>