<svg xmlns="http://www.w3.org/2000/svg" viewBox="0 0 32 32" color="#2563eb" role="img" aria-labelledby="carbon-screen-map-title carbon-screen-map-desc">
  <title id="carbon-screen-map-title">screen map</title>
  <desc id="carbon-screen-map-desc">输电环节 - Carbon Icons - screen-map - Apache-2.0</desc><path fill="currentColor" d="M22 25H30V27H22z"/><path fill="currentColor" d="M22 21H30V23H22z"/><path fill="currentColor" d="M18.4141 11 23 11 23 9 15 9 15 17 17 17 17 12.4141 23.5859 19 25 17.5859 18.4141 11z"/><path fill="currentColor" d="M28,3H4c-1.1028,0-2,.8975-2,2V21c0,1.1025,.8972,2,2,2H12v4h-4v2h12v-8H4V5H28v14h2V5c0-1.1025-.8972-2-2-2Zm-10,24h-4v-4h4v4Z"/></svg>