<svg xmlns="http://www.w3.org/2000/svg" viewBox="0 0 32 32" color="#2563eb" role="img" aria-labelledby="carbon-minimap-on-title carbon-minimap-on-desc">
  <title id="carbon-minimap-on-title">minimap on</title>
  <desc id="carbon-minimap-on-desc">输电环节 - Carbon Icons - minimap-on - Apache-2.0</desc><path fill="currentColor" d="M29.4,4.6c-.4-.4-.9-.6-1.4-.6H4c-.5,0-1,.2-1.4.6s-.6.9-.6,1.4v20c0,.5.2,1,.6,1.4s.9.6,1.4.6h5v-2h-5V6h24v6h2v-6c0-.5-.2-1-.6-1.4ZM14,15h14c1.1046,0,2,.8954,2,2v9c0,1.1046-.8954,2-2,2h-14c-1.1046,0-2-.8954-2-2v-9c0-1.1046.8954-2,2-2Z"/></svg>