<svg xmlns="http://www.w3.org/2000/svg" viewBox="0 0 32 32" color="#2563eb" role="img" aria-labelledby="carbon-roadmap-title carbon-roadmap-desc">
  <title id="carbon-roadmap-title">roadmap</title>
  <desc id="carbon-roadmap-desc">输电环节 - Carbon Icons - roadmap - Apache-2.0</desc><path fill="currentColor" d="M12,30H4a2.0023,2.0023,0,0,1-2-2V24a2.0023,2.0023,0,0,1,2-2h8a2.0023,2.0023,0,0,1,2,2v4A2.0023,2.0023,0,0,1,12,30ZM4,24v4h8V24Z"/><path fill="currentColor" d="M28,20H12a2.0023,2.0023,0,0,1-2-2V14a2.0023,2.0023,0,0,1,2-2H28a2.0023,2.0023,0,0,1,2,2v4A2.0023,2.0023,0,0,1,28,20ZM12,14v4H28V14Z"/><path fill="currentColor" d="M16,10H4A2.0023,2.0023,0,0,1,2,8V4A2.0023,2.0023,0,0,1,4,2H16a2.0023,2.0023,0,0,1,2,2V8A2.0023,2.0023,0,0,1,16,10ZM4,4V8H16V4Z"/></svg>