<svg xmlns="http://www.w3.org/2000/svg" width="16" height="16" fill="currentColor" class="bi bi-person-video" viewBox="0 0 16 16" color="#2563eb" role="img" aria-labelledby="bootstrap-person-video-title bootstrap-person-video-desc">
  <title id="bootstrap-person-video-title">person video</title>
  <desc id="bootstrap-person-video-desc">协作通信 - Bootstrap Icons - person-video - MIT</desc>
  <path fill="currentColor" d="M8 9.05a2.5 2.5 0 1 0 0-5 2.5 2.5 0 0 0 0 5"/>
  <path fill="currentColor" d="M2 2a2 2 0 0 0-2 2v8a2 2 0 0 0 2 2h12a2 2 0 0 0 2-2V4a2 2 0 0 0-2-2zm10.798 11c-.453-1.27-1.76-3-4.798-3-3.037 0-4.345 1.73-4.798 3H2a1 1 0 0 1-1-1V4a1 1 0 0 1 1-1h12a1 1 0 0 1 1 1v8a1 1 0 0 1-1 1z"/>
</svg>