<svg xmlns="http://www.w3.org/2000/svg" width="16" height="16" fill="currentColor" class="bi bi-link-45deg" viewBox="0 0 16 16" color="#2563eb" role="img" aria-labelledby="bootstrap-link-45deg-title bootstrap-link-45deg-desc">
  <title id="bootstrap-link-45deg-title">link 45deg</title>
  <desc id="bootstrap-link-45deg-desc">协作通信 - Bootstrap Icons - link-45deg - MIT</desc>
  <path fill="currentColor" d="M4.715 6.542 3.343 7.914a3 3 0 1 0 4.243 4.243l1.828-1.829A3 3 0 0 0 8.586 5.5L8 6.086a1 1 0 0 0-.154.199 2 2 0 0 1 .861 3.337L6.88 11.45a2 2 0 1 1-2.83-2.83l.793-.792a4 4 0 0 1-.128-1.287z"/>
  <path fill="currentColor" d="M6.586 4.672A3 3 0 0 0 7.414 9.5l.775-.776a2 2 0 0 1-.896-3.346L9.12 3.55a2 2 0 1 1 2.83 2.83l-.793.792c.112.42.155.855.128 1.287l1.372-1.372a3 3 0 1 0-4.243-4.243z"/>
</svg>