<svg
  xmlns="http://www.w3.org/2000/svg"
  width="24"
  height="24"
  viewBox="0 0 24 24"
  fill="none"
  stroke="currentColor"
  stroke-width="2"
  stroke-linecap="round"
  stroke-linejoin="round"
  class="icon icon-tabler icons-tabler-outline icon-tabler-steam"
 color="#2563eb" role="img" aria-labelledby="tabler-steam-title tabler-steam-desc">
  <title id="tabler-steam-title">steam</title>
  <desc id="tabler-steam-desc">发电环节 - Tabler Icons - steam - MIT</desc>
  <path stroke="none" d="M0 0h24v24H0z" fill="none" />
  <path fill="currentColor" d="M11 4a1 1 0 1 0 2 0a1 1 0 1 0 -2 0" />
  <path fill="currentColor" d="M3 12a1 1 0 1 0 2 0a1 1 0 1 0 -2 0" />
  <path fill="currentColor" d="M19 12a1 1 0 1 0 2 0a1 1 0 1 0 -2 0" />
  <path fill="currentColor" d="M11 20a1 1 0 1 0 2 0a1 1 0 1 0 -2 0" />
  <path fill="currentColor" d="M5.5 5.5l3 3" />
  <path fill="currentColor" d="M15.5 15.5l3 3" />
  <path fill="currentColor" d="M18.5 5.5l-3 3" />
  <path fill="currentColor" d="M8.5 15.5l-3 3" />
</svg>