<svg
  xmlns="http://www.w3.org/2000/svg"
  width="24"
  height="24"
  viewBox="0 0 24 24"
  fill="none"
  stroke="currentColor"
  stroke-width="2"
  stroke-linecap="round"
  stroke-linejoin="round"
  class="icon icon-tabler icons-tabler-outline icon-tabler-heart-rate-monitor"
 color="#2563eb" role="img" aria-labelledby="tabler-heart-rate-monitor-title tabler-heart-rate-monitor-desc">
  <title id="tabler-heart-rate-monitor-title">heart rate monitor</title>
  <desc id="tabler-heart-rate-monitor-desc">发电环节 - Tabler Icons - heart-rate-monitor - MIT</desc>
  <path stroke="none" d="M0 0h24v24H0z" fill="none" />
  <path fill="currentColor" d="M3 5a1 1 0 0 1 1 -1h16a1 1 0 0 1 1 1v10a1 1 0 0 1 -1 1h-16a1 1 0 0 1 -1 -1l0 -10" />
  <path fill="currentColor" d="M7 20h10" />
  <path fill="currentColor" d="M9 16v4" />
  <path fill="currentColor" d="M15 16v4" />
  <path fill="currentColor" d="M7 10h2l2 3l2 -6l1 3h3" />
</svg>