<svg
  xmlns="http://www.w3.org/2000/svg"
  width="24"
  height="24"
  viewBox="0 0 24 24"
  fill="none"
  stroke="currentColor"
  stroke-width="2"
  stroke-linecap="round"
  stroke-linejoin="round"
  class="icon icon-tabler icons-tabler-outline icon-tabler-scooter-electric"
 color="#2563eb" role="img" aria-labelledby="tabler-scooter-electric-title tabler-scooter-electric-desc">
  <title id="tabler-scooter-electric-title">scooter electric</title>
  <desc id="tabler-scooter-electric-desc">发电环节 - Tabler Icons - scooter-electric - MIT</desc>
  <path stroke="none" d="M0 0h24v24H0z" fill="none" />
  <path fill="currentColor" d="M16 17a2 2 0 1 0 4 0a2 2 0 1 0 -4 0" />
  <path fill="currentColor" d="M4 17a2 2 0 1 0 4 0a2 2 0 1 0 -4 0" />
  <path fill="currentColor" d="M8 17h5a6 6 0 0 1 5 -5v-5a2 2 0 0 0 -2 -2h-1" />
  <path fill="currentColor" d="M10 4l-2 4h3l-2 4" />
</svg>