<svg width="24" height="24" viewBox="0 0 24 24" fill="none" xmlns="http://www.w3.org/2000/svg" color="#2563eb" role="img" aria-labelledby="mono-icons-circle-warning-title mono-icons-circle-warning-desc">
  <title id="mono-icons-circle-warning-title">circle warning</title>
  <desc id="mono-icons-circle-warning-desc">状态告警 - Mono Icons - circle-warning - MIT</desc><path d="M12 4a8 8 0 1 0 0 16 8 8 0 0 0 0-16zM2 12C2 6.477 6.477 2 12 2s10 4.477 10 10-4.477 10-10 10S2 17.523 2 12z" fill="#0D0D0D"/><path d="M12 14a1 1 0 0 1-1-1V7a1 1 0 1 1 2 0v6a1 1 0 0 1-1 1zm-1.5 2.5a1.5 1.5 0 1 1 3 0 1.5 1.5 0 0 1-3 0z" fill="#0D0D0D"/></svg>