<svg width="24" height="24" viewBox="0 0 24 24" xmlns="http://www.w3.org/2000/svg" color="#2563eb" role="img" aria-labelledby="document-landscape-split-title document-landscape-split-desc">
  <title id="document-landscape-split-title">Document Landscape Split</title>
  <desc id="document-landscape-split-desc">业务金融 - document_landscape_split, 24px regular</desc><path fill="currentColor" d="M3.5 6c0-.28.23-.5.5-.5h6.5v13H4a.5.5 0 0 1-.5-.5V6ZM12 18.5v-13h2V10c0 1.1.9 2 2 2h4.5v6a.5.5 0 0 1-.5.5h-8Zm3.5-11.88 3.88 3.88H16a.5.5 0 0 1-.5-.5V6.62Zm5.91 3.8L15.6 4.58A2 2 0 0 0 14.17 4H4a2 2 0 0 0-2 2v12c0 1.1.9 2 2 2h16a2 2 0 0 0 2-2v-6.17c0-.52-.22-1.05-.59-1.42Z"/></svg>