<svg xmlns="http://www.w3.org/2000/svg" width="16" height="16" fill="currentColor" class="bi bi-pci-card" viewBox="0 0 16 16" color="#2563eb" role="img" aria-labelledby="bootstrap-pci-card-title bootstrap-pci-card-desc">
  <title id="bootstrap-pci-card-title">pci card</title>
  <desc id="bootstrap-pci-card-desc">业务金融 - Bootstrap Icons - pci-card - MIT</desc>
  <path fill="currentColor" d="M0 1.5A.5.5 0 0 1 .5 1h1a.5.5 0 0 1 .5.5V4h13.5a.5.5 0 0 1 .5.5v7a.5.5 0 0 1-.5.5H2v2.5a.5.5 0 0 1-1 0V2H.5a.5.5 0 0 1-.5-.5"/>
  <path fill="currentColor" d="M3 12.5h3.5v1a.5.5 0 0 1-.5.5H3.5a.5.5 0 0 1-.5-.5zm4 0h4v1a.5.5 0 0 1-.5.5h-3a.5.5 0 0 1-.5-.5z"/>
</svg>