<svg xmlns="http://www.w3.org/2000/svg" width="16" height="16" fill="currentColor" class="bi bi-cash" viewBox="0 0 16 16" color="#2563eb" role="img" aria-labelledby="bootstrap-cash-title bootstrap-cash-desc">
  <title id="bootstrap-cash-title">cash</title>
  <desc id="bootstrap-cash-desc">业务金融 - Bootstrap Icons - cash - MIT</desc>
  <path fill="currentColor" d="M8 10a2 2 0 1 0 0-4 2 2 0 0 0 0 4"/>
  <path fill="currentColor" d="M0 4a1 1 0 0 1 1-1h14a1 1 0 0 1 1 1v8a1 1 0 0 1-1 1H1a1 1 0 0 1-1-1zm3 0a2 2 0 0 1-2 2v4a2 2 0 0 1 2 2h10a2 2 0 0 1 2-2V6a2 2 0 0 1-2-2z"/>
</svg>