<svg xmlns="http://www.w3.org/2000/svg" width="16" height="16" fill="currentColor" class="bi bi-code" viewBox="0 0 16 16" color="#2563eb" role="img" aria-labelledby="bootstrap-code-title bootstrap-code-desc">
  <title id="bootstrap-code-title">code</title>
  <desc id="bootstrap-code-desc">开发工具 - Bootstrap Icons - code - MIT</desc>
  <path fill="currentColor" d="M5.854 4.854a.5.5 0 1 0-.708-.708l-3.5 3.5a.5.5 0 0 0 0 .708l3.5 3.5a.5.5 0 0 0 .708-.708L2.707 8zm4.292 0a.5.5 0 0 1 .708-.708l3.5 3.5a.5.5 0 0 1 0 .708l-3.5 3.5a.5.5 0 0 1-.708-.708L13.293 8z"/>
</svg>