<svg xmlns="http://www.w3.org/2000/svg" viewBox="0 0 576 512" color="#2563eb" role="img" aria-labelledby="fontawesome-solid-blackboard-title fontawesome-solid-blackboard-desc">
  <title id="fontawesome-solid-blackboard-title">blackboard</title>
  <desc id="fontawesome-solid-blackboard-desc">电力电子 - Font Awesome Free Solid - blackboard - (CC-BY-4.0 AND OFL-1.1 AND MIT)</desc><!--! Font Awesome Free 7.2.0 by @fontawesome - https://fontawesome.com License - https://fontawesome.com/license/free (Icons: CC BY 4.0, Fonts: SIL OFL 1.1, Code: MIT License) Copyright 2026 Fonticons, Inc. --><path fill="currentColor" d="M96 64c-35.3 0-64 28.7-64 64l0 256c-17.7 0-32 14.3-32 32s14.3 32 32 32l512 0c17.7 0 32-14.3 32-32s-14.3-32-32-32l0-256c0-35.3-28.7-64-64-64L96 64zM480 384l-64 0 0-32c0-17.7-14.3-32-32-32l-96 0c-17.7 0-32 14.3-32 32l0 32-160 0 0-256 384 0 0 256z"/></svg>