<svg xmlns="http://www.w3.org/2000/svg" id="mdi-key-alert" viewBox="0 0 24 24" color="#2563eb" role="img" aria-labelledby="material-design-icons-key-alert-title material-design-icons-key-alert-desc">
  <title id="material-design-icons-key-alert-title">key alert</title>
  <desc id="material-design-icons-key-alert-desc">状态告警 - Material Design Icons - key-alert - Apache-2.0</desc><path fill="currentColor" d="M4 6.5C4 4 6 2 8.5 2S13 4 13 6.5C13 8.46 11.75 10.13 10 10.74V15H13V18H10V22H7V10.74C5.25 10.13 4 8.46 4 6.5M7 6.5C7 7.33 7.67 8 8.5 8S10 7.33 10 6.5 9.33 5 8.5 5 7 5.67 7 6.5M18 7H20V13H18M18 17H20V15H18" /></svg>