<svg width="24" height="24" viewBox="0 0 24 24" xmlns="http://www.w3.org/2000/svg" color="#2563eb" role="img" aria-labelledby="fluent-system-clock-title fluent-system-clock-desc">
  <title id="fluent-system-clock-title">clock</title>
  <desc id="fluent-system-clock-desc">办公效率 - Fluent UI System Icons - clock - MIT</desc><path fill="currentColor" d="M3.5 12a8.5 8.5 0 1 1 17 0 8.5 8.5 0 0 1-17 0ZM12 2a10 10 0 1 0 0 20 10 10 0 0 0 0-20Zm0 4.65a.75.75 0 0 0-1.5.1v6.1c.06.37.37.65.75.65h4.1a.75.75 0 0 0-.1-1.5H12V6.65Z"/></svg>