<svg width="24" height="24" viewBox="0 0 24 24" xmlns="http://www.w3.org/2000/svg" color="#2563eb" role="img" aria-labelledby="fluent-system-list-title fluent-system-list-desc">
  <title id="fluent-system-list-title">list</title>
  <desc id="fluent-system-list-desc">办公效率 - Fluent UI System Icons - list - MIT</desc><path fill="currentColor" d="M2 5.75c0-.41.34-.75.75-.75h15.5a.75.75 0 0 1 0 1.5H2.75A.75.75 0 0 1 2 5.75Zm0 12c0-.41.34-.75.75-.75h12.5a.75.75 0 0 1 0 1.5H2.75a.75.75 0 0 1-.75-.75ZM2.75 11a.75.75 0 0 0 0 1.5h18.5a.75.75 0 0 0 0-1.5H2.75Z"/></svg>