<?xml version="1.0" encoding="UTF-8"?>
<svg xmlns="http://www.w3.org/2000/svg" viewBox="0 0 64 64" width="64" height="64" color="#0891b2" role="img" aria-labelledby="hydrogen-tube-trailer-title hydrogen-tube-trailer-desc">
  <title id="hydrogen-tube-trailer-title">长管拖车</title>
  <desc id="hydrogen-tube-trailer-desc">氢能工艺设备 - 复用 交通设施 / truck-trailer</desc>
  <g transform="translate(8 8) scale(0.1875)">
<path fill="currentColor" d="M224,96.8V96a56.06,56.06,0,0,0-56-56h-8a16,16,0,0,0-16,16V176H128V72a8,8,0,0,0-8-8H16A16,16,0,0,0,0,80V184a32,32,0,0,0,56,21.13A32,32,0,0,0,111,192h82a32,32,0,0,0,63-8V136A40.07,40.07,0,0,0,224,96.8ZM160,56h8a40,40,0,0,1,40,40v8a8,8,0,0,0,8,8,24,24,0,0,1,24,24v20.31A31.71,31.71,0,0,0,224,152a32.06,32.06,0,0,0-31,24H160ZM112,80v96h-1a32,32,0,0,0-55-13.13,31.9,31.9,0,0,0-40-6.56V80ZM32,200a16,16,0,1,1,16-16A16,16,0,0,1,32,200Zm48,0a16,16,0,1,1,16-16A16,16,0,0,1,80,200Zm144,0a16,16,0,1,1,16-16A16,16,0,0,1,224,200Z"/>
  </g>
  <g>
<path d="M46 46h14v14H46z" fill="none" stroke="currentColor" stroke-width="2.6" stroke-linecap="round" stroke-linejoin="round"/><circle cx="54" cy="46" r="0.65" fill="none" stroke="currentColor" stroke-width="2.6" stroke-linecap="round" stroke-linejoin="round"/><path d="M54 46L44 43" fill="none" stroke="currentColor" stroke-width="2.6" stroke-linecap="round" stroke-linejoin="round"/><circle cx="50" cy="47" r="1.1" fill="none" stroke="currentColor" stroke-width="2.6" stroke-linecap="round" stroke-linejoin="round"/>
  </g>
</svg>
