<svg viewBox="64 64 896 896" focusable="false" xmlns="http://www.w3.org/2000/svg" color="#2563eb" role="img" aria-labelledby="ant-design-icons-unordered-list-title ant-design-icons-unordered-list-desc">
  <title id="ant-design-icons-unordered-list-title">unordered list</title>
  <desc id="ant-design-icons-unordered-list-desc">办公效率 - Ant Design Icons - unordered-list - MIT</desc><path fill="currentColor" d="M912 192H328c-4.4 0-8 3.6-8 8v56c0 4.4 3.6 8 8 8h584c4.4 0 8-3.6 8-8v-56c0-4.4-3.6-8-8-8zm0 284H328c-4.4 0-8 3.6-8 8v56c0 4.4 3.6 8 8 8h584c4.4 0 8-3.6 8-8v-56c0-4.4-3.6-8-8-8zm0 284H328c-4.4 0-8 3.6-8 8v56c0 4.4 3.6 8 8 8h584c4.4 0 8-3.6 8-8v-56c0-4.4-3.6-8-8-8zM104 228a56 56 0 10112 0 56 56 0 10-112 0zm0 284a56 56 0 10112 0 56 56 0 10-112 0zm0 284a56 56 0 10112 0 56 56 0 10-112 0z" /></svg>