<svg xmlns="http://www.w3.org/2000/svg" viewBox="0 0 512 512" color="#2563eb" role="img" aria-labelledby="fontawesome-solid-wave-square-title fontawesome-solid-wave-square-desc">
  <title id="fontawesome-solid-wave-square-title">wave square</title>
  <desc id="fontawesome-solid-wave-square-desc">风光水发电 - Font Awesome Free Solid - wave-square - (CC-BY-4.0 AND OFL-1.1 AND MIT)</desc><!--! Font Awesome Free 7.2.0 by @fontawesome - https://fontawesome.com License - https://fontawesome.com/license/free (Icons: CC BY 4.0, Fonts: SIL OFL 1.1, Code: MIT License) Copyright 2026 Fonticons, Inc. --><path fill="currentColor" d="M64 96c0-17.7 14.3-32 32-32l160 0c17.7 0 32 14.3 32 32l0 288 96 0 0-128c0-17.7 14.3-32 32-32l64 0c17.7 0 32 14.3 32 32s-14.3 32-32 32l-32 0 0 128c0 17.7-14.3 32-32 32l-160 0c-17.7 0-32-14.3-32-32l0-288-96 0 0 128c0 17.7-14.3 32-32 32l-64 0c-17.7 0-32-14.3-32-32s14.3-32 32-32l32 0 0-128z"/></svg>