<?xml version="1.0" encoding="UTF-8"?>
<svg xmlns="http://www.w3.org/2000/svg" viewBox="0 0 64 64" width="64" height="64" color="#22c55e" role="img" aria-labelledby="battery-cell-title battery-cell-desc">
  <title id="battery-cell-title">电芯</title>
  <desc id="battery-cell-desc">储能细分设备 - 复用 开发集成 / battery_4</desc>
  <g transform="translate(8 8) scale(2)">
<path fill="currentColor" d="M17 6a3 3 0 0 1 3 3v1h1a1 1 0 0 1 1 1v2a1 1 0 0 1-1 1h-1v1a3 3 0 0 1-3 3H5a3 3 0 0 1-3-3V9a3 3 0 0 1 3-3h12Zm0 1.5H5c-.78 0-1.42.6-1.5 1.36V15c0 .78.6 1.42 1.36 1.5H17c.78 0 1.42-.6 1.5-1.36V9c0-.78-.6-1.42-1.36-1.5H17ZM6 9h4a1 1 0 0 1 1 .88V14a1 1 0 0 1-.88 1H6a1 1 0 0 1-1-.88V10a1 1 0 0 1 .88-1H10 6Z"/>
  </g>
  <g>
<path d="M46 46h14v14H46z" fill="none" stroke="currentColor" stroke-width="2.6" stroke-linecap="round" stroke-linejoin="round"/><circle cx="53" cy="40" r="0.65" fill="none" stroke="currentColor" stroke-width="2.6" stroke-linecap="round" stroke-linejoin="round"/><path d="M53 40L49 42" fill="none" stroke="currentColor" stroke-width="2.6" stroke-linecap="round" stroke-linejoin="round"/><circle cx="50" cy="45" r="1.1" fill="none" stroke="currentColor" stroke-width="2.6" stroke-linecap="round" stroke-linejoin="round"/>
  </g>
</svg>
