<?xml version="1.0" encoding="UTF-8"?>
<svg xmlns="http://www.w3.org/2000/svg" viewBox="0 0 64 64" width="64" height="64" color="#22c55e" role="img" aria-labelledby="battery-equalization-title battery-equalization-desc">
  <title id="battery-equalization-title">电池均衡</title>
  <desc id="battery-equalization-desc">储能细分设备 - 复用 画布工具 / scales-balanced</desc>
  <g transform="translate(8 8) scale(3)">
<path fill="currentColor" fill-rule="evenodd" d="M13.25 3h-4.5v10h2.5a.75.75 0 0 1 0 1.5h-6.5a.75.75 0 0 1 0-1.5h2.5V3h-4.5a.75.75 0 0 1 0-1.5h10.5a.75.75 0 0 1 0 1.5M1.643 8.568l.007.018a1.454 1.454 0 0 0 2.7 0l.007-.018L3 5.854zM3 4c-.46 0-.88.26-1.085.67L.2 8.099a1 1 0 0 0-.034.819l.09.226a2.954 2.954 0 0 0 5.486 0l.09-.226a1 1 0 0 0-.034-.819L4.085 4.671A1.21 1.21 0 0 0 3 4m8.643 4.568.007.018a1.454 1.454 0 0 0 2.7 0l.007-.018L13 5.854zM13 4c-.46 0-.88.26-1.085.67L10.2 8.099a1 1 0 0 0-.034.819l.09.226a2.954 2.954 0 0 0 5.486 0l.09-.226a1 1 0 0 0-.034-.819l-1.714-3.427A1.21 1.21 0 0 0 13 4" clip-rule="evenodd"/>
  </g>
  <g>
<path d="M46 46h14v14H46z" fill="none" stroke="currentColor" stroke-width="2.6" stroke-linecap="round" stroke-linejoin="round"/><circle cx="50" cy="47" r="1" fill="none" stroke="currentColor" stroke-width="2.6" stroke-linecap="round" stroke-linejoin="round"/><path d="M50 47L50 55" fill="none" stroke="currentColor" stroke-width="2.6" stroke-linecap="round" stroke-linejoin="round"/><circle cx="52" cy="49" r="1.1" fill="none" stroke="currentColor" stroke-width="2.6" stroke-linecap="round" stroke-linejoin="round"/>
  </g>
</svg>
