<?xml version="1.0" encoding="UTF-8"?>
<svg xmlns="http://www.w3.org/2000/svg" viewBox="0 0 64 64" width="64" height="64" color="#22c55e" role="img" aria-labelledby="battery-soh-title battery-soh-desc">
  <title id="battery-soh-title">SOH健康度</title>
  <desc id="battery-soh-desc">储能细分设备 - 复用 状态安全 / battery_checkmark</desc>
  <g transform="translate(8 8) scale(2)">
<path fill="currentColor" d="M17 6a3 3 0 0 1 3 3v1h1a1 1 0 0 1 1 1v2a1 1 0 0 1-1 1h-1v1a3 3 0 0 1-3 3h-4.17c.11-.48.17-.98.17-1.5h4c.78 0 1.42-.6 1.5-1.36V9c0-.78-.6-1.42-1.36-1.5H5c-.78 0-1.42.6-1.5 1.36v1.87c-.55.29-1.06.65-1.5 1.08V9a3 3 0 0 1 3-3h12Zm-5 10.5a5.5 5.5 0 1 1-11 0 5.5 5.5 0 0 1 11 0Zm-2.15-2.35a.5.5 0 0 0-.7 0L5.5 17.79l-1.65-1.64a.5.5 0 0 0-.7.7l2 2c.2.2.5.2.7 0l4-4a.5.5 0 0 0 0-.7Z"/>
  </g>
  <g>
<path d="M46 46h14v14H46z" fill="none" stroke="currentColor" stroke-width="2.6" stroke-linecap="round" stroke-linejoin="round"/><circle cx="51" cy="47" r="1.35" fill="none" stroke="currentColor" stroke-width="2.6" stroke-linecap="round" stroke-linejoin="round"/><path d="M51 47L51 50" fill="none" stroke="currentColor" stroke-width="2.6" stroke-linecap="round" stroke-linejoin="round"/><circle cx="50" cy="50" r="1.1" fill="none" stroke="currentColor" stroke-width="2.6" stroke-linecap="round" stroke-linejoin="round"/>
  </g>
</svg>
