<?xml version="1.0" encoding="UTF-8"?>
<svg xmlns="http://www.w3.org/2000/svg" viewBox="0 0 64 64" width="64" height="64" color="#22c55e" role="img" aria-labelledby="battery-container-hvac-title battery-container-hvac-desc">
  <title id="battery-container-hvac-title">储能舱空调</title>
  <desc id="battery-container-hvac-desc">储能细分设备 - 复用 气象环境 / air-conditioner</desc>
  <g transform="translate(8 8) scale(2)">
<path d="M22 3.6V11H2V3.6C2 3.26863 2.26863 3 2.6 3H21.4C21.7314 3 22 3.26863 22 3.6Z" stroke="currentColor"  stroke-linecap="round" stroke-linejoin="round"/>
<path d="M18 7H19" stroke="currentColor"  stroke-linecap="round" stroke-linejoin="round"/>
<path d="M2 11L2.78969 13.5844C3.04668 14.4255 3.82294 15 4.70239 15H6" stroke="currentColor"  stroke-linecap="round" stroke-linejoin="round"/>
<path d="M22 11L21.2103 13.5844C20.9533 14.4255 20.1771 15 19.2976 15H18" stroke="currentColor"  stroke-linecap="round" stroke-linejoin="round"/>
<path d="M9.5 14.5C9.5 14.5 9.5 21.5 6 21.5" stroke="currentColor"  stroke-linecap="round" stroke-linejoin="round"/>
<path d="M14.5 14.5C14.5 14.5 14.5 21.5 18 21.5" stroke="currentColor"  stroke-linecap="round" stroke-linejoin="round"/>
<path d="M12 14.5V21.5" stroke="currentColor"  stroke-linecap="round" stroke-linejoin="round"/>
  </g>
  <g>
<path d="M46 46h14v14H46z" fill="none" stroke="currentColor" stroke-width="2.6" stroke-linecap="round" stroke-linejoin="round"/><circle cx="53" cy="45" r="1" fill="none" stroke="currentColor" stroke-width="2.6" stroke-linecap="round" stroke-linejoin="round"/><path d="M53 45L46 41" fill="none" stroke="currentColor" stroke-width="2.6" stroke-linecap="round" stroke-linejoin="round"/><circle cx="50" cy="43" r="1.1" fill="none" stroke="currentColor" stroke-width="2.6" stroke-linecap="round" stroke-linejoin="round"/>
  </g>
</svg>
