<?xml version="1.0" encoding="UTF-8"?>
<svg xmlns="http://www.w3.org/2000/svg" viewBox="0 0 64 64" width="64" height="64" color="#22c55e" role="img" aria-labelledby="virtual-power-plant-storage-title virtual-power-plant-storage-desc">
  <title id="virtual-power-plant-storage-title">虚拟电厂储能</title>
  <desc id="virtual-power-plant-storage-desc">储能细分设备 - 复用 云与基础设施 / power-virtual-server-disaster-recovery-automation</desc>
  <g transform="translate(8 8) scale(1.5)">
<path fill="currentColor" d="M9,16h0c0,.3369.024.6749.0714,1.006l-1.9795.2832c-.061-.4238-.0919-.858-.0919-1.2892,0-4.9629,4.0376-9,9-9,2.0435,0,4.0444.7041,5.6348,1.9814l-1.2529,1.5596c-1.2544-1.0083-2.7696-1.541-4.3819-1.541-3.8599,0-6.9999,3.1401-6.9999,7.0001h-.0001ZM8,20c0,.5522.4478,1,1,1s1-.4478,1-1-.4478-1-1-1-1,.4478-1,1ZM16,4c6.6166,0,12,5.3833,12,12h2c0-7.7197-6.2803-14-14-14-1.6431,0-3.2529.2822-4.7846.8389l.6836,1.8799c1.3115-.4771,2.6913-.7188,4.101-.7188ZM22,12c0,.5522.4478,1,1,1s1-.4478,1-1-.4478-1-1-1-1,.4478-1,1ZM9,6c.5522,0,1-.4478,1-1s-.4478-1-1-1-1,.4478-1,1,.4478,1,1,1ZM4,16h0c0-3.2051,1.2481-6.2188,3.5147-8.4854l-1.4141-1.4141c-2.6445,2.6445-4.1006,6.1603-4.1006,9.8995,0,7.7197,6.2803,14,14,14v-2c-6.6166,0-12-5.3832-12-12ZM28.5,25.5c0,1.6543-1.3457,3-3,3s-3-1.3457-3-3c0-.4617.1135-.8942.3006-1.2853l-5.5153-5.5153c-.3911.1871-.8236.3006-1.2853.3006-1.6543,0-3-1.3457-3-3s1.3457-3,3-3,3,1.3457,3,3c0,.4617-.1135.8942-.3006,1.2853l5.5153,5.5153c.3911-.1871.8236-.3006,1.2853-.3006,1.6543,0,3,1.3456,3,2.9999h0ZM16,17c.5513,0,1-.4487,1-1s-.4487-1-1-1-1,.4487-1,1,.4487,1,1,1ZM26.5,25.5c0-.5518-.4482-1-1-1s-1,.4482-1,1,.4482,1,1,1,1-.4482,1-1Z"/>
  </g>
  <g>
<path d="M46 46h14v14H46z" fill="none" stroke="currentColor" stroke-width="2.6" stroke-linecap="round" stroke-linejoin="round"/><circle cx="54" cy="42" r="0.65" fill="none" stroke="currentColor" stroke-width="2.6" stroke-linecap="round" stroke-linejoin="round"/><path d="M54 42L49 46" fill="none" stroke="currentColor" stroke-width="2.6" stroke-linecap="round" stroke-linejoin="round"/><circle cx="47" cy="48" r="1.1" fill="none" stroke="currentColor" stroke-width="2.6" stroke-linecap="round" stroke-linejoin="round"/>
  </g>
</svg>
