<svg xmlns="http://www.w3.org/2000/svg" viewBox="0 0 32 32" color="#2563eb" role="img" aria-labelledby="carbon-face-wink-title carbon-face-wink-desc">
  <title id="carbon-face-wink-title">face wink</title>
  <desc id="carbon-face-wink-desc">电力电子 - Carbon Icons - face-wink - Apache-2.0</desc><path fill="currentColor" d="M16,2A14,14,0,1,0,30,16,14,14,0,0,0,16,2Zm0,26A12,12,0,1,1,28,16,12,12,0,0,1,16,28Z"/><path fill="currentColor" d="M20.5,11A2.5,2.5,0,1,0,23,13.5,2.5,2.5,0,0,0,20.5,11Z"/><path fill="currentColor" d="M8 13H14V15H8z"/><path fill="currentColor" d="M16,24a8,8,0,0,0,6.85-3.89l-1.71-1a6,6,0,0,1-10.28,0l-1.71,1A8,8,0,0,0,16,24Z"/></svg>