<svg xmlns="http://www.w3.org/2000/svg" viewBox="0 0 32 32" color="#2563eb" role="img" aria-labelledby="carbon-activity-title carbon-activity-desc">
  <title id="carbon-activity-title">activity</title>
  <desc id="carbon-activity-desc">电力电子 - Carbon Icons - activity - Apache-2.0</desc><path fill="currentColor" d="M12,29a1,1,0,0,1-.92-.62L6.33,17H2V15H7a1,1,0,0,1,.92.62L12,25.28,20.06,3.65A1,1,0,0,1,21,3a1,1,0,0,1,.93.68L25.72,15H30v2H25a1,1,0,0,1-.95-.68L21,7,12.94,28.35A1,1,0,0,1,12,29Z"/></svg>