<svg xmlns="http://www.w3.org/2000/svg" viewBox="0 0 32 32" color="#2563eb" role="img" aria-labelledby="carbon-opacity-title carbon-opacity-desc">
  <title id="carbon-opacity-title">opacity</title>
  <desc id="carbon-opacity-desc">电力电子 - Carbon Icons - opacity - Apache-2.0</desc><path fill="currentColor" d="M6 6H10V10H6z"/><path fill="currentColor" d="M10 10H14V14H10z"/><path fill="currentColor" d="M14 6H18V10H14z"/><path fill="currentColor" d="M22 6H26V10H22z"/><path fill="currentColor" d="M6 14H10V18H6z"/><path fill="currentColor" d="M14 14H18V18H14z"/><path fill="currentColor" d="M22 14H26V18H22z"/><path fill="currentColor" d="M6 22H10V26H6z"/><path fill="currentColor" d="M14 22H18V26H14z"/><path fill="currentColor" d="M22 22H26V26H22z"/><path fill="currentColor" d="M18 10H22V14H18z"/><path fill="currentColor" d="M10 18H14V22H10z"/><path fill="currentColor" d="M18 18H22V22H18z"/></svg>