<svg width="24" height="24" viewBox="0 0 20 20" xmlns="http://www.w3.org/2000/svg" color="#2563eb" role="img" aria-labelledby="table-picnic-title table-picnic-desc">
  <title id="table-picnic-title">Table Picnic</title>
  <desc id="table-picnic-desc">文档文件 - table_picnic, 20px regular</desc><path fill="currentColor" d="M3.96 15.7a.5.5 0 0 1-.92-.4l1.5-3.3h1.1l-1.68 3.7Zm13-.4a.5.5 0 0 1-.92.4L14.36 12h1.1l1.5 3.3ZM6.55 10h6.9l-1.82-4h1.1l1.82 4h3.95a.5.5 0 0 1 0 1h-17a.5.5 0 0 1 0-1h3.95l1.82-4h1.1l-1.82 4Zm8.95-6a.5.5 0 0 1 0 1h-11a.5.5 0 0 1 0-1h11Z"/></svg>