<svg width="24" height="24" viewBox="0 0 24 24" xmlns="http://www.w3.org/2000/svg" color="#2563eb" role="img" aria-labelledby="text-continuous-title text-continuous-desc">
  <title id="text-continuous-title">Text Continuous</title>
  <desc id="text-continuous-desc">文档文件 - text_continuous, 24px regular</desc><path fill="currentColor" d="M3.75 5a.75.75 0 0 0 0 1.5h16.5a.75.75 0 0 0 0-1.5H3.75Zm5 4a.75.75 0 0 0 0 1.5h11.5a.75.75 0 0 0 0-1.5H8.75ZM8 13.75c0-.41.34-.75.75-.75h11.5a.75.75 0 0 1 0 1.5H8.75a.75.75 0 0 1-.75-.75ZM3.75 17a.75.75 0 0 0 0 1.5h16.5a.75.75 0 0 0 0-1.5H3.75Zm-.53-5.97a.75.75 0 1 1 1.06-1.06l1.5 1.5c.3.3.3.77 0 1.06l-1.5 1.5a.75.75 0 0 1-1.06-1.06l.97-.97-.97-.97Z"/></svg>