<svg width="24" height="24" viewBox="0 0 20 20" xmlns="http://www.w3.org/2000/svg" color="#2563eb" role="img" aria-labelledby="text-asterisk-title text-asterisk-desc">
  <title id="text-asterisk-title">Text Asterisk</title>
  <desc id="text-asterisk-desc">文档文件 - text_asterisk, 20px regular</desc><path fill="currentColor" d="M10.5 2.5a.5.5 0 0 0-1 0v6.3L5.05 4.33a.5.5 0 1 0-.7.71L8.78 9.5H2.5a.5.5 0 0 0 0 1h6.3l-4.46 4.45a.5.5 0 1 0 .71.7l4.45-4.44v6.29a.5.5 0 0 0 1 0v-6.3l4.45 4.46a.5.5 0 1 0 .7-.71l-4.44-4.45h6.29a.5.5 0 0 0 0-1h-6.3l4.46-4.45a.5.5 0 1 0-.71-.7L10.5 8.78V2.5Z"/></svg>