<svg xmlns="http://www.w3.org/2000/svg" viewBox="0 0 32 32" color="#2563eb" role="img" aria-labelledby="carbon-drop-photo-title carbon-drop-photo-desc">
  <title id="carbon-drop-photo-title">drop photo</title>
  <desc id="carbon-drop-photo-desc">媒体素材 - Carbon Icons - drop-photo - Apache-2.0</desc><path fill="currentColor" d="M19,26a4,4,0,1,1,4-4A4.0045,4.0045,0,0,1,19,26Zm0-6a2,2,0,1,0,2,2A2.0021,2.0021,0,0,0,19,20Z"/><path fill="currentColor" d="M27,29H11a2,2,0,0,1-2-2V18a2,2,0,0,1,2-2h3.2793l.5441-1.6324A2,2,0,0,1,16.7208,13h4.5584a2,2,0,0,1,1.8974,1.3676L23.7207,16H27a2,2,0,0,1,2,2v9A2,2,0,0,1,27,29ZM11,27H27V18H22.2792l-1-3H16.7207l-1,3H11Z"/><path fill="currentColor" d="M27 11H29V13H27z"/><path fill="currentColor" d="M27 7H29V9H27z"/><path fill="currentColor" d="M27 3H29V5H27z"/><path fill="currentColor" d="M23 3H25V5H23z"/><path fill="currentColor" d="M19 3H21V5H19z"/><path fill="currentColor" d="M15 3H17V5H15z"/><path fill="currentColor" d="M11 3H13V5H11z"/><path fill="currentColor" d="M7 3H9V5H7z"/><path fill="currentColor" d="M3 3H5V5H3z"/><path fill="currentColor" d="M3 7H5V9H3z"/><path fill="currentColor" d="M3 11H5V13H3z"/><path fill="currentColor" d="M3 15H5V17H3z"/><path fill="currentColor" d="M3 19H5V21H3z"/><path fill="currentColor" d="M3 23H5V25H3z"/><path fill="currentColor" d="M3 27H5V29H3z"/></svg>