<svg xmlns="http://www.w3.org/2000/svg" viewBox="0 0 32 32" color="#2563eb" role="img" aria-labelledby="carbon-mobile-audio-title carbon-mobile-audio-desc">
  <title id="carbon-mobile-audio-title">mobile audio</title>
  <desc id="carbon-mobile-audio-desc">媒体素材 - Carbon Icons - mobile-audio - Apache-2.0</desc><path fill="currentColor" d="M28 12H30V15H28z"/><path fill="currentColor" d="M24 7H26V20H24z"/><path fill="currentColor" d="M20 11H22V16H20z"/><path fill="currentColor" d="M16 9H18V18H16z"/><path fill="currentColor" d="M12 12H14V15H12z"/><circle fill="currentColor" cx="13.5" cy="24.5" r="1.5"/><path fill="currentColor" d="M20,30H7a2.0023,2.0023,0,0,1-2-2V4A2.0023,2.0023,0,0,1,7,2H20V4H7V28H20V24h2v4A2.0023,2.0023,0,0,1,20,30Z"/></svg>