<svg xmlns="http://www.w3.org/2000/svg" viewBox="0 0 32 32" color="#2563eb" role="img" aria-labelledby="carbon-camera-action-title carbon-camera-action-desc">
  <title id="carbon-camera-action-title">camera action</title>
  <desc id="carbon-camera-action-desc">媒体素材 - Carbon Icons - camera-action - Apache-2.0</desc><path fill="currentColor" d="M12,23a6,6,0,1,1,6-6A6,6,0,0,1,12,23Zm0-10a4,4,0,1,0,4,4A4,4,0,0,0,12,13Z"/><path fill="currentColor" d="M29,27H3a1,1,0,0,1-1-1V6A1,1,0,0,1,3,5H29a1,1,0,0,1,1,1V26A1,1,0,0,1,29,27ZM4,25H28V7H4Z"/><path fill="currentColor" d="M19 9H26V11H19z"/><circle fill="currentColor" cx="12" cy="17" r="1"/></svg>