<svg xmlns="http://www.w3.org/2000/svg" viewBox="0 0 32 32" color="#2563eb" role="img" aria-labelledby="carbon-spray-paint-title carbon-spray-paint-desc">
  <title id="carbon-spray-paint-title">spray paint</title>
  <desc id="carbon-spray-paint-desc">媒体素材 - Carbon Icons - spray-paint - Apache-2.0</desc><path fill="currentColor" d="M22.5,23A4.5,4.5,0,1,1,27,18.5,4.505,4.505,0,0,1,22.5,23Zm0-7A2.5,2.5,0,1,0,25,18.5,2.5026,2.5026,0,0,0,22.5,16Z"/><path fill="currentColor" d="M28,8H26V3H19V8H17a2.002,2.002,0,0,0-2,2V28a2.0023,2.0023,0,0,0,2,2H28a2.0027,2.0027,0,0,0,2-2V10A2.0023,2.0023,0,0,0,28,8ZM21,5h3V8H21ZM17,28V10H28l.002,18Z"/><path fill="currentColor" d="M2 14H5V17H2z"/><path fill="currentColor" d="M7 9H10V12H7z"/><path fill="currentColor" d="M2 9H5V12H2z"/><path fill="currentColor" d="M12 4H15V7H12z"/><path fill="currentColor" d="M7 4H10V7H7z"/><path fill="currentColor" d="M2 4H5V7H2z"/></svg>