<svg xmlns="http://www.w3.org/2000/svg" viewBox="0 0 24 24" color="#2563eb" role="img" aria-labelledby="eos-icons-folder-zip-title eos-icons-folder-zip-desc">
  <title id="eos-icons-folder-zip-title">folder zip</title>
  <desc id="eos-icons-folder-zip-desc">文件文档 - EOS Icons - folder-zip - MIT</desc><path fill="currentColor" d="M20,6h-8l-2-2H4C2.9,4,2.01,4.9,2.01,6L2,18c0,1.1,0.9,2,2,2h16c1.1,0,2-0.9,2-2V8C22,6.9,21.1,6,20,6z M16,16h2v-2h-2v-2 h2v-2h-2V8h4v10h-4V16z M16,16h-2v2H4V6h5.17l2,2H14v2h2v2h-2v2h2V16z"/></svg>