<!-- @license lucide-static v1.21.0 - ISC -->
<svg
  class="lucide lucide-armchair"
  xmlns="http://www.w3.org/2000/svg"
  width="24"
  height="24"
  viewBox="0 0 24 24"
  fill="none"
  stroke="currentColor"
  stroke-width="2"
  stroke-linecap="round"
  stroke-linejoin="round"
 color="#2563eb" role="img" aria-labelledby="lucide-armchair-title lucide-armchair-desc">
  <title id="lucide-armchair-title">armchair</title>
  <desc id="lucide-armchair-desc">气象环境 - Lucide - armchair - ISC</desc>
  <path fill="currentColor" d="M19 9V6a2 2 0 0 0-2-2H7a2 2 0 0 0-2 2v3" />
  <path fill="currentColor" d="M3 16a2 2 0 0 0 2 2h14a2 2 0 0 0 2-2v-5a2 2 0 0 0-4 0v1.5a.5.5 0 0 1-.5.5h-9a.5.5 0 0 1-.5-.5V11a2 2 0 0 0-4 0z" />
  <path fill="currentColor" d="M5 18v2" />
  <path fill="currentColor" d="M19 18v2" />
</svg>
