<svg width="24" height="24" viewBox="0 0 24 24" xmlns="http://www.w3.org/2000/svg" color="#2563eb" role="img" aria-labelledby="arrow-step-out-title arrow-step-out-desc">
  <title id="arrow-step-out-title">Arrow Step Out</title>
  <desc id="arrow-step-out-desc">导航视图 - arrow_step_out, 24px regular</desc><path fill="currentColor" d="M12.75 13.75a.75.75 0 0 1-1.5 0V4.49L7.77 7.8a.75.75 0 1 1-1.04-1.08l4.75-4.5a.75.75 0 0 1 1.04 0l4.75 4.5a.75.75 0 0 1-1.04 1.08l-3.48-3.3v9.26ZM15 19a3 3 0 1 1-6 0 3 3 0 0 1 6 0Zm-4.5 0a1.5 1.5 0 1 0 3 0 1.5 1.5 0 0 0-3 0Z"/></svg>