<svg width="24" height="24" viewBox="0 0 20 20" xmlns="http://www.w3.org/2000/svg" color="#2563eb" role="img" aria-labelledby="arrow-eject-title arrow-eject-desc">
  <title id="arrow-eject-title">Arrow Eject</title>
  <desc id="arrow-eject-desc">导航视图 - arrow_eject, 20px regular</desc><path fill="currentColor" d="M9.6 5.2a.5.5 0 0 1 .8 0l4.5 6a.5.5 0 0 1-.4.8h-9a.5.5 0 0 1-.4-.8l4.5-6Zm1.6-.6c-.6-.8-1.8-.8-2.4 0l-4.5 6A1.5 1.5 0 0 0 5.5 13h9a1.5 1.5 0 0 0 1.2-2.4l-4.5-6ZM4 15a.5.5 0 0 0 0 1h12a.5.5 0 0 0 0-1H4Z"/></svg>