<svg width="24" height="24" viewBox="0 0 20 20" xmlns="http://www.w3.org/2000/svg" color="#2563eb" role="img" aria-labelledby="arrow-join-title arrow-join-desc">
  <title id="arrow-join-title">Arrow Join</title>
  <desc id="arrow-join-desc">导航视图 - arrow_join, 20px regular</desc><path fill="currentColor" d="M5 2.5a.5.5 0 0 0-1 0 7.45 7.45 0 0 0 4.78 7 7.45 7.45 0 0 0-4.78 7 .5.5 0 0 0 1 0c0-3.62 2.88-6.5 6.5-6.5h.8l-1.15 1.15a.5.5 0 0 0 .7.7l2-2a.5.5 0 0 0 0-.7l-2-2a.5.5 0 0 0-.7.7L12.29 9h-.79A6.46 6.46 0 0 1 5 2.5ZM8.5 4a.5.5 0 0 0 0 1H15c.52 0 1 .48 1 1v7c0 .52-.48 1-1 1H8.5a.5.5 0 0 0 0 1H15c1.08 0 2-.92 2-2V6c0-1.08-.92-2-2-2H8.5Z"/></svg>