<svg width="24" height="24" viewBox="0 0 24 24" xmlns="http://www.w3.org/2000/svg" color="#2563eb" role="img" aria-labelledby="chevron-down-up-title chevron-down-up-desc">
  <title id="chevron-down-up-title">Chevron Down Up</title>
  <desc id="chevron-down-up-desc">导航视图 - chevron_down_up, 24px regular</desc><path fill="currentColor" d="M6.28 2.97a.75.75 0 0 0-1.06 1.06l6.25 6.25c.3.3.77.3 1.06 0l6.25-6.25a.75.75 0 0 0-1.06-1.06L12 8.69 6.28 2.97Zm0 18.06a.75.75 0 0 1-1.06-1.06l6.25-6.25c.3-.3.77-.3 1.06 0l6.25 6.25a.75.75 0 1 1-1.06 1.06L12 15.31l-5.72 5.72Z"/></svg>