<!-- @license lucide-static v1.21.0 - ISC -->
<svg
  class="lucide lucide-snowflake"
  xmlns="http://www.w3.org/2000/svg"
  width="24"
  height="24"
  viewBox="0 0 24 24"
  fill="none"
  stroke="currentColor"
  stroke-width="2"
  stroke-linecap="round"
  stroke-linejoin="round"
 color="#2563eb" role="img" aria-labelledby="lucide-snowflake-title lucide-snowflake-desc">
  <title id="lucide-snowflake-title">snowflake</title>
  <desc id="lucide-snowflake-desc">冷热能源 - Lucide - snowflake - ISC</desc>
  <path fill="currentColor" d="m10 20-1.25-2.5L6 18" />
  <path fill="currentColor" d="M10 4 8.75 6.5 6 6" />
  <path fill="currentColor" d="m14 20 1.25-2.5L18 18" />
  <path fill="currentColor" d="m14 4 1.25 2.5L18 6" />
  <path fill="currentColor" d="m17 21-3-6h-4" />
  <path fill="currentColor" d="m17 3-3 6 1.5 3" />
  <path fill="currentColor" d="M2 12h6.5L10 9" />
  <path fill="currentColor" d="m20 10-1.5 2 1.5 2" />
  <path fill="currentColor" d="M22 12h-6.5L14 15" />
  <path fill="currentColor" d="m4 10 1.5 2L4 14" />
  <path fill="currentColor" d="m7 21 3-6-1.5-3" />
  <path fill="currentColor" d="m7 3 3 6h4" />
</svg>
