<svg xmlns="http://www.w3.org/2000/svg" width="8" height="8" viewBox="0 0 8 8" color="#2563eb" role="img" aria-labelledby="open-iconic-monitor-title open-iconic-monitor-desc">
  <title id="open-iconic-monitor-title">monitor</title>
  <desc id="open-iconic-monitor-desc">发电环节 - Open Iconic - monitor - MIT</desc>
  <path fill="currentColor" d="M.34 0a.5.5 0 0 0-.34.5v5a.5.5 0 0 0 .5.5h2.5v1h-1c-.55 0-1 .45-1 1h6c0-.55-.45-1-1-1h-1v-1h2.5a.5.5 0 0 0 .5-.5v-5a.5.5 0 0 0-.5-.5h-7a.5.5 0 0 0-.09 0 .5.5 0 0 0-.06 0zm.66 1h6v4h-6v-4z" />
</svg>