<svg width="24" height="24" viewBox="0 0 24 24" xmlns="http://www.w3.org/2000/svg" color="#2563eb" role="img" aria-labelledby="fluent-system-navigation-title fluent-system-navigation-desc">
  <title id="fluent-system-navigation-title">navigation</title>
  <desc id="fluent-system-navigation-desc">地图地点 - Fluent UI System Icons - navigation - MIT</desc><path fill="currentColor" d="M2.75 18h18.5a.75.75 0 0 1 .1 1.5H2.75a.75.75 0 0 1-.1-1.5h18.6-18.5Zm0-6.5h18.5a.75.75 0 0 1 .1 1.5H2.75a.75.75 0 0 1-.1-1.5h18.6-18.5Zm0-6.5h18.5a.75.75 0 0 1 .1 1.5H2.75a.75.75 0 0 1-.1-1.49h18.6-18.5Z"/></svg>