<!-- @license lucide-static v1.21.0 - ISC -->
<svg
  class="lucide lucide-cloud-moon-rain"
  xmlns="http://www.w3.org/2000/svg"
  width="24"
  height="24"
  viewBox="0 0 24 24"
  fill="none"
  stroke="currentColor"
  stroke-width="2"
  stroke-linecap="round"
  stroke-linejoin="round"
 color="#2563eb" role="img" aria-labelledby="lucide-cloud-moon-rain-title lucide-cloud-moon-rain-desc">
  <title id="lucide-cloud-moon-rain-title">cloud moon rain</title>
  <desc id="lucide-cloud-moon-rain-desc">气象环境 - Lucide - cloud-moon-rain - ISC</desc>
  <path fill="currentColor" d="M11 20v2" />
  <path fill="currentColor" d="M18.376 14.512a6 6 0 0 0 3.461-4.127c.148-.625-.659-.97-1.248-.714a4 4 0 0 1-5.259-5.26c.255-.589-.09-1.395-.716-1.248a6 6 0 0 0-4.594 5.36" />
  <path fill="currentColor" d="M3 20a5 5 0 1 1 8.9-4H13a3 3 0 0 1 2 5.24" />
  <path fill="currentColor" d="M7 19v2" />
</svg>
