<svg xmlns="http://www.w3.org/2000/svg" fill="none" viewBox="0 0 24 24" stroke-width="1.5" stroke="currentColor" aria-hidden="true" data-slot="icon" color="#2563eb" role="img" aria-labelledby="heroicons-square-2-stack-title heroicons-square-2-stack-desc">
  <title id="heroicons-square-2-stack-title">square 2 stack</title>
  <desc id="heroicons-square-2-stack-desc">画布工具 - Heroicons - square-2-stack - MIT</desc>
  <path fill="currentColor" stroke-linecap="round" stroke-linejoin="round" d="M16.5 8.25V6a2.25 2.25 0 0 0-2.25-2.25H6A2.25 2.25 0 0 0 3.75 6v8.25A2.25 2.25 0 0 0 6 16.5h2.25m8.25-8.25H18a2.25 2.25 0 0 1 2.25 2.25V18A2.25 2.25 0 0 1 18 20.25h-7.5A2.25 2.25 0 0 1 8.25 18v-1.5m8.25-8.25h-6a2.25 2.25 0 0 0-2.25 2.25v6"/>
</svg>
