<svg xmlns="http://www.w3.org/2000/svg" viewBox="0 0 32 32" color="#2563eb" role="img" aria-labelledby="carbon-zoom-fit-title carbon-zoom-fit-desc">
  <title id="carbon-zoom-fit-title">zoom fit</title>
  <desc id="carbon-zoom-fit-desc">画布工具 - Carbon Icons - zoom-fit - Apache-2.0</desc><path fill="currentColor" d="M21.4479,20A10.856,10.856,0,0,0,24,13,11,11,0,1,0,13,24a10.856,10.856,0,0,0,7-2.5521L27.5859,29,29,27.5859ZM13,22a9,9,0,1,1,9-9A9.01,9.01,0,0,1,13,22Z"/><path fill="currentColor" d="M10,12H8V10a2.0023,2.0023,0,0,1,2-2h2v2H10Z"/><path fill="currentColor" d="M18,12H16V10H14V8h2a2.0023,2.0023,0,0,1,2,2Z"/><path fill="currentColor" d="M12,18H10a2.0023,2.0023,0,0,1-2-2V14h2v2h2Z"/><path fill="currentColor" d="M16,18H14V16h2V14h2v2A2.0023,2.0023,0,0,1,16,18Z"/></svg>