<svg xmlns="http://www.w3.org/2000/svg" viewBox="0 0 32 32" color="#2563eb" role="img" aria-labelledby="carbon-grid-title carbon-grid-desc">
  <title id="carbon-grid-title">grid</title>
  <desc id="carbon-grid-desc">画布工具 - Carbon Icons - grid - Apache-2.0</desc><path fill="currentColor" d="M12,4H6A2,2,0,0,0,4,6v6a2,2,0,0,0,2,2h6a2,2,0,0,0,2-2V6A2,2,0,0,0,12,4Zm0,8H6V6h6Z"/><path fill="currentColor" d="M26,4H20a2,2,0,0,0-2,2v6a2,2,0,0,0,2,2h6a2,2,0,0,0,2-2V6A2,2,0,0,0,26,4Zm0,8H20V6h6Z"/><path fill="currentColor" d="M12,18H6a2,2,0,0,0-2,2v6a2,2,0,0,0,2,2h6a2,2,0,0,0,2-2V20A2,2,0,0,0,12,18Zm0,8H6V20h6Z"/><path fill="currentColor" d="M26,18H20a2,2,0,0,0-2,2v6a2,2,0,0,0,2,2h6a2,2,0,0,0,2-2V20A2,2,0,0,0,26,18Zm0,8H20V20h6Z"/></svg>