<svg xmlns="http://www.w3.org/2000/svg" viewBox="0 0 32 32" color="#2563eb" role="img" aria-labelledby="carbon-zoom-area-title carbon-zoom-area-desc">
  <title id="carbon-zoom-area-title">zoom area</title>
  <desc id="carbon-zoom-area-desc">画布工具 - Carbon Icons - zoom-area - Apache-2.0</desc><path fill="currentColor" d="M31,29.5859l-4.6885-4.6884a8.028,8.028,0,1,0-1.414,1.414L29.5859,31ZM20,26a6,6,0,1,1,6-6A6.0066,6.0066,0,0,1,20,26Z"/><path fill="currentColor" d="M8,26H4a2.0021,2.0021,0,0,1-2-2V20H4v4H8Z"/><path fill="currentColor" d="M2 12H4V16H2z"/><path fill="currentColor" d="M26,8H24V4H20V2h4a2.0021,2.0021,0,0,1,2,2Z"/><path fill="currentColor" d="M12 2H16V4H12z"/><path fill="currentColor" d="M4,8H2V4A2.0021,2.0021,0,0,1,4,2H8V4H4Z"/></svg>