<svg xmlns="http://www.w3.org/2000/svg" viewBox="0 0 32 32" color="#2563eb" role="img" aria-labelledby="carbon-pointer-text-title carbon-pointer-text-desc">
  <title id="carbon-pointer-text-title">pointer text</title>
  <desc id="carbon-pointer-text-desc">画布工具 - Carbon Icons - pointer-text - Apache-2.0</desc><path fill="currentColor" d="M13.71 12.29 7.41 6 13 6 13 4 4 4 4 13 6 13 6 7.41 12.29 13.71 13.71 12.29z"/><path fill="currentColor" d="M28,30H12a2,2,0,0,1-2-2V18h2V28H28V12H18V10H28a2,2,0,0,1,2,2V28A2,2,0,0,1,28,30Z"/><path fill="currentColor" d="M22,15H17v2h5v2H18a2,2,0,0,0-2,2v2a2,2,0,0,0,2,2h6V17A2,2,0,0,0,22,15Zm0,8H18V21h4Z"/></svg>