<svg xmlns="http://www.w3.org/2000/svg" viewBox="0 0 32 32" color="#2563eb" role="img" aria-labelledby="carbon-zoom-pan-title carbon-zoom-pan-desc">
  <title id="carbon-zoom-pan-title">zoom pan</title>
  <desc id="carbon-zoom-pan-desc">画布工具 - Carbon Icons - zoom-pan - Apache-2.0</desc><path fill="currentColor" d="M27.01 12 25.6 13.41 28.18 16 25.59 18.59 27.01 20 31.01 16 27.01 12z"/><path fill="currentColor" d="M6.41 13.42 5 12 1 16 5 20 6.42 18.59 3.83 16 6.41 13.42z"/><path fill="currentColor" d="M16 28.17 13.41 25.58 12 27 16 31 20 27 18.59 25.59 16 28.17z"/><path fill="currentColor" d="M16 3.83 18.58 6.41 20 5 16 1 12 5 13.41 6.42 16 3.83z"/><path fill="currentColor" d="M22,16a6,6,0,1,0-2.53,4.89l3.82,3.82,1.42-1.42-3.82-3.82A6,6,0,0,0,22,16Zm-6,4a4,4,0,1,1,4-4A4,4,0,0,1,16,20Z"/></svg>