<svg width="24" height="24" viewBox="0 0 24 24" xmlns="http://www.w3.org/2000/svg" color="#2563eb" role="img" aria-labelledby="document-lock-title document-lock-desc">
  <title id="document-lock-title">Document Lock</title>
  <desc id="document-lock-desc">文档文件 - document_lock, 24px regular</desc><path fill="currentColor" d="M18.5 20a.5.5 0 0 1-.5.5h-6v1c0 .17-.02.34-.05.5H18a2 2 0 0 0 2-2V9.83a2 2 0 0 0-.59-1.42L13.6 2.6c-.37-.37-.9-.59-1.42-.59H6a2 2 0 0 0-2 2v7.55a3.5 3.5 0 0 1 1.5-.9V4c0-.27.22-.5.5-.5h6V8c0 1.1.9 2 2 2h4.5v10Zm-5-15.38 3.88 3.88H14a.5.5 0 0 1-.5-.5V4.62ZM4 15h-.5c-.83 0-1.5.67-1.5 1.5v5c0 .83.67 1.5 1.5 1.5h6c.83 0 1.5-.67 1.5-1.5v-5c0-.83-.67-1.5-1.5-1.5H9v-1a2.5 2.5 0 0 0-5 0v1Zm1.5-1a1 1 0 1 1 2 0v1h-2v-1Zm2 5a1 1 0 1 1-2 0 1 1 0 0 1 2 0Z"/></svg>