<svg width="24" height="24" viewBox="0 0 20 20" xmlns="http://www.w3.org/2000/svg" color="#2563eb" role="img" aria-labelledby="prohibited-note-title prohibited-note-desc">
  <title id="prohibited-note-title">Prohibited Note</title>
  <desc id="prohibited-note-desc">文档文件 - prohibited_note, 20px regular</desc><path fill="currentColor" d="M18 10v.17a3 3 0 0 0-1-.17c0-1.75-.64-3.36-1.7-4.58l-9.88 9.87A6.97 6.97 0 0 0 9 16.93V17a3 3 0 0 0 .16.96A8 8 0 1 1 18 10ZM4.7 14.58l9.88-9.87a7 7 0 0 0-9.87 9.87ZM12 11a2 2 0 0 0-2 2v4c0 1.1.9 2 2 2h5a2 2 0 0 0 2-2v-4a2 2 0 0 0-2-2h-5Zm.5 5h4a.5.5 0 1 1 0 1h-4a.5.5 0 1 1 0-1Zm-.5-2.5c0-.28.22-.5.5-.5h4a.5.5 0 1 1 0 1h-4a.5.5 0 0 1-.5-.5Z"/></svg>