<svg width="24" height="24" viewBox="0 0 24 24" xmlns="http://www.w3.org/2000/svg" color="#2563eb" role="img" aria-labelledby="text-collapse-title text-collapse-desc">
  <title id="text-collapse-title">Text Collapse</title>
  <desc id="text-collapse-desc">文档文件 - text_collapse, 24px regular</desc><path fill="currentColor" d="M6.75 4.5h14.5a.75.75 0 0 0 .1-1.5H6.75a.75.75 0 0 0-.1 1.5h.1Zm0 15h14.5a.75.75 0 0 0 .1-1.5H6.75a.75.75 0 0 0-.1 1.5h.1Zm7-11.5a.75.75 0 0 0 0 1.5h7.5a.75.75 0 0 0 0-1.5h-7.5ZM13 13.75c0-.41.34-.75.75-.75h7.5a.75.75 0 0 1 0 1.5h-7.5a.75.75 0 0 1-.75-.75Zm-2-2.25a4.5 4.5 0 1 1-9 0 4.5 4.5 0 0 1 9 0Zm-2 0a.5.5 0 0 0-.5-.5h-4a.5.5 0 0 0 0 1h4a.5.5 0 0 0 .5-.5Z"/></svg>