<svg width="24" height="24" viewBox="0 0 24 24" xmlns="http://www.w3.org/2000/svg" color="#2563eb" role="img" aria-labelledby="temperature-degree-fahrenheit-title temperature-degree-fahrenheit-desc">
  <title id="temperature-degree-fahrenheit-title">Temperature Degree Fahrenheit</title>
  <desc id="temperature-degree-fahrenheit-desc">冷热能源 - temperature_degree_fahrenheit, 24px regular</desc><path fill="currentColor" d="M5 8a1.5 1.5 0 1 1 3 0 1.5 1.5 0 0 1-3 0Zm1.5-3a3 3 0 1 0 0 6 3 3 0 0 0 0-6Zm5.75 0a.75.75 0 0 0-.75.75v12.5a.75.75 0 0 0 1.5 0V12.5h5.75a.75.75 0 0 0 0-1.5H13V6.5h6.25a.75.75 0 0 0 0-1.5h-7Z"/></svg>