<svg xmlns="http://www.w3.org/2000/svg" width="16" height="16" focusable="false" viewBox="0 0 16 16" color="#2563eb" role="img" aria-labelledby="zendesk-garden-speech-bubble-typing-title zendesk-garden-speech-bubble-typing-desc">
  <title id="zendesk-garden-speech-bubble-typing-title">speech bubble typing</title>
  <desc id="zendesk-garden-speech-bubble-typing-desc">办公效率 - Zendesk Garden Icons - speech-bubble-typing - Apache-2.0</desc>
  <path fill="currentColor" d="M5 6a1 1 0 1 1-2 0 1 1 0 0 1 2 0Zm4 0a1 1 0 1 1-2 0 1 1 0 0 1 2 0Zm3 1a1 1 0 1 0 0-2 1 1 0 0 0 0 2ZM1 12a1 1 0 0 1-1-1V1a1 1 0 0 1 1-1h14a1 1 0 0 1 1 1v10a1 1 0 0 1-1 1H8.414l-3.707 3.707A1 1 0 0 1 3 15v-3H1Zm3-1v4l4-4h7V1H1v10h3Z"/>
</svg>
