<svg width="24" height="24" viewBox="0 0 24 24" xmlns="http://www.w3.org/2000/svg" color="#2563eb" role="img" aria-labelledby="line-style-title line-style-desc">
  <title id="line-style-title">Line Style</title>
  <desc id="line-style-desc">文字排版 - line_style, 24px regular</desc><path fill="currentColor" d="M2.75 5a.75.75 0 0 0 0 1.5h3.5a.75.75 0 0 0 0-1.5h-3.5Zm7.5 0a.75.75 0 0 0 0 1.5h3.5a.75.75 0 0 0 0-1.5h-3.5Zm7.5 0a.75.75 0 0 0 0 1.5h3.5a.75.75 0 0 0 0-1.5h-3.5Zm3.5 6.5H2.75l-.1.01a.75.75 0 0 0 .1 1.5h18.5l.1-.01a.75.75 0 0 0-.1-1.5Zm-18 5.5a1.25 1.25 0 0 0 0 2.5h17.5a1.25 1.25 0 1 0 0-2.5H3.25Z"/></svg>