<svg width="24" height="24" viewBox="0 0 24 24" xmlns="http://www.w3.org/2000/svg" color="#2563eb" role="img" aria-labelledby="text-bullet-list-270-title text-bullet-list-270-desc">
  <title id="text-bullet-list-270-title">Text Bullet List 270</title>
  <desc id="text-bullet-list-270-desc">文字排版 - text_bullet_list_270, 24px regular</desc><path fill="currentColor" d="M17.5 20.75a1.25 1.25 0 1 1 2.5 0 1.25 1.25 0 0 1-2.5 0Zm.5-3.5V2.75a.75.75 0 0 1 1.5-.1v14.6a.75.75 0 0 1-1.5.1v-.1Zm-7 3.5a1.25 1.25 0 1 1 2.5 0 1.25 1.25 0 0 1-2.5 0Zm.5-3.5V2.75a.75.75 0 0 1 1.5-.1v14.6a.75.75 0 0 1-1.5.1v-.1Zm-7 3.5a1.25 1.25 0 1 1 2.5 0 1.25 1.25 0 0 1-2.5 0Zm.5-3.5V2.75a.75.75 0 0 1 1.5-.1v14.6a.75.75 0 0 1-1.5.1v-.1Z"/></svg>