<svg width="24" height="24" viewBox="0 0 20 20" xmlns="http://www.w3.org/2000/svg" color="#2563eb" role="img" aria-labelledby="text-bullet-list-rtl-90-title text-bullet-list-rtl-90-desc">
  <title id="text-bullet-list-rtl-90-title">Text Bullet List Rtl 90</title>
  <desc id="text-bullet-list-rtl-90-desc">文字排版 - text_bullet_list_rtl_90, 20px regular</desc><path fill="currentColor" d="M5.5 17a1 1 0 1 0-2 0 1 1 0 0 0 2 0Zm-1-3a.5.5 0 0 1-.5-.5v-11a.5.5 0 0 1 1 0v11a.5.5 0 0 1-.5.5Zm5 0a.5.5 0 0 1-.5-.5v-11a.5.5 0 0 1 1 0v11a.5.5 0 0 1-.5.5Zm4.5-.5a.5.5 0 0 0 1 0v-11a.5.5 0 0 0-1 0v11Zm.5 2.5a1 1 0 1 1 0 2 1 1 0 0 1 0-2Zm-4 1a1 1 0 1 0-2 0 1 1 0 0 0 2 0Z"/></svg>