<svg width="24" height="24" viewBox="0 0 24 24" xmlns="http://www.w3.org/2000/svg" color="#2563eb" role="img" aria-labelledby="phone-header-arrow-up-title phone-header-arrow-up-desc">
  <title id="phone-header-arrow-up-title">Phone Header Arrow Up</title>
  <desc id="phone-header-arrow-up-desc">设备硬件 - phone_header_arrow_up, 24px regular</desc><path fill="currentColor" d="M15.75 2C16.99 2 18 3 18 4.25v15.5c0 1.24-1 2.25-2.25 2.25h-7.5C7.01 22 6 21 6 19.75V4.25C6 3.01 7 2 8.25 2h7.5Zm0 1.5h-7.5a.75.75 0 0 0-.75.75v15.5c0 .41.34.75.75.75h7.5c.41 0 .75-.34.75-.75V4.25a.75.75 0 0 0-.75-.75Zm-1 1.5a.75.75 0 0 1 0 1.5h-5.5a.75.75 0 0 1 0-1.5h5.5Zm-2 5.54 1.27 1.25a.75.75 0 1 0 1.06-1.08l-2.55-2.5a.75.75 0 0 0-1.06.02l-2.45 2.5a.75.75 0 1 0 1.07 1.04l1.16-1.18v3.66a.75.75 0 0 0 1.5 0v-3.71Z"/></svg>