<svg xmlns="http://www.w3.org/2000/svg" id="mdi-warehouse" viewBox="0 0 24 24" color="#2563eb" role="img" aria-labelledby="material-design-icons-warehouse-title material-design-icons-warehouse-desc">
  <title id="material-design-icons-warehouse-title">warehouse</title>
  <desc id="material-design-icons-warehouse-desc">地图地点 - Material Design Icons - warehouse - Apache-2.0</desc><path fill="currentColor" d="M6 19H8V21H6V19M12 3L2 8V21H4V13H20V21H22V8L12 3M8 11H4V9H8V11M14 11H10V9H14V11M20 11H16V9H20V11M6 15H8V17H6V15M10 15H12V17H10V15M10 19H12V21H10V19M14 19H16V21H14V19Z" /></svg>