<svg xmlns="http://www.w3.org/2000/svg" viewBox="0 0 24 24" color="#2563eb" role="img" aria-labelledby="eva-icons-speaker-title eva-icons-speaker-desc">
  <title id="eva-icons-speaker-title">speaker</title>
  <desc id="eva-icons-speaker-desc">媒体素材 - Eva Icons - speaker - MIT</desc><g data-name="Layer 2"><g data-name="speaker"><rect fill="currentColor" width="24" height="24" transform="rotate(90 12 12)" opacity="0"/><path fill="currentColor" d="M12 11a3 3 0 1 0-3-3 3 3 0 0 0 3 3zm0-4a1 1 0 1 1-1 1 1 1 0 0 1 1-1z"/><path fill="currentColor" d="M12 12a3.5 3.5 0 1 0 3.5 3.5A3.5 3.5 0 0 0 12 12zm0 5a1.5 1.5 0 1 1 1.5-1.5A1.5 1.5 0 0 1 12 17z"/><path fill="currentColor" d="M17 2H7a3 3 0 0 0-3 3v14a3 3 0 0 0 3 3h10a3 3 0 0 0 3-3V5a3 3 0 0 0-3-3zm1 17a1 1 0 0 1-1 1H7a1 1 0 0 1-1-1V5a1 1 0 0 1 1-1h10a1 1 0 0 1 1 1z"/></g></g></svg>