<!-- @license lucide-static v1.21.0 - ISC -->
<svg
  class="lucide lucide-edit"
  xmlns="http://www.w3.org/2000/svg"
  width="24"
  height="24"
  viewBox="0 0 24 24"
  fill="none"
  stroke="currentColor"
  stroke-width="2"
  stroke-linecap="round"
  stroke-linejoin="round"
 color="#2563eb" role="img" aria-labelledby="lucide-edit-title lucide-edit-desc">
  <title id="lucide-edit-title">edit</title>
  <desc id="lucide-edit-desc">通用命令 - Lucide - edit - ISC</desc>
  <path fill="currentColor" d="M12 3H5a2 2 0 0 0-2 2v14a2 2 0 0 0 2 2h14a2 2 0 0 0 2-2v-7" />
  <path fill="currentColor" d="M18.375 2.625a1 1 0 0 1 3 3l-9.013 9.014a2 2 0 0 1-.853.505l-2.873.84a.5.5 0 0 1-.62-.62l.84-2.873a2 2 0 0 1 .506-.852z" />
</svg>
