<!-- @license lucide-static v1.21.0 - ISC -->
<svg
  class="lucide lucide-save-plus"
  xmlns="http://www.w3.org/2000/svg"
  width="24"
  height="24"
  viewBox="0 0 24 24"
  fill="none"
  stroke="currentColor"
  stroke-width="2"
  stroke-linecap="round"
  stroke-linejoin="round"
 color="#2563eb" role="img" aria-labelledby="lucide-save-plus-title lucide-save-plus-desc">
  <title id="lucide-save-plus-title">save plus</title>
  <desc id="lucide-save-plus-desc">通用命令 - Lucide - save-plus - ISC</desc>
  <path fill="currentColor" d="M12.5 21H5a2 2 0 0 1-2-2V5a2 2 0 0 1 2-2h10.2a2 2 0 0 1 1.4.6l3.8 3.8a2 2 0 0 1 .6 1.4V12" />
  <path fill="currentColor" d="M16 13H8a1 1 0 0 0-1 1v7" />
  <path fill="currentColor" d="M19 22v-6" />
  <path fill="currentColor" d="M22 19h-6" />
  <path fill="currentColor" d="M7 3v4a1 1 0 0 0 1 1h7" />
</svg>
