<!-- @license lucide-static v1.21.0 - ISC -->
<svg
  class="lucide lucide-clipboard-edit"
  xmlns="http://www.w3.org/2000/svg"
  width="24"
  height="24"
  viewBox="0 0 24 24"
  fill="none"
  stroke="currentColor"
  stroke-width="2"
  stroke-linecap="round"
  stroke-linejoin="round"
 color="#2563eb" role="img" aria-labelledby="lucide-clipboard-edit-title lucide-clipboard-edit-desc">
  <title id="lucide-clipboard-edit-title">clipboard edit</title>
  <desc id="lucide-clipboard-edit-desc">通用命令 - Lucide - clipboard-edit - ISC</desc>
  <path fill="currentColor" d="M16 4h2a2 2 0 0 1 2 2v2" />
  <path fill="currentColor" d="M21.34 15.664a1 1 0 1 0-3.004-3.004l-5.01 5.012a2 2 0 0 0-.506.854l-.837 2.87a.5.5 0 0 0 .62.62l2.87-.837a2 2 0 0 0 .854-.506z" />
  <path fill="currentColor" d="M8 22H6a2 2 0 0 1-2-2V6a2 2 0 0 1 2-2h2" />
  <rect fill="currentColor" x="8" y="2" width="8" height="4" rx="1" />
</svg>
