<!-- @license lucide-static v1.21.0 - ISC -->
<svg
  class="lucide lucide-save-check"
  xmlns="http://www.w3.org/2000/svg"
  width="24"
  height="24"
  viewBox="0 0 24 24"
  fill="none"
  stroke="currentColor"
  stroke-width="2"
  stroke-linecap="round"
  stroke-linejoin="round"
 color="#2563eb" role="img" aria-labelledby="lucide-save-check-title lucide-save-check-desc">
  <title id="lucide-save-check-title">save check</title>
  <desc id="lucide-save-check-desc">通用命令 - Lucide - save-check - ISC</desc>
  <path fill="currentColor" d="M12.5 21H5a2 2 0 0 1-2-2V5a2 2 0 0 1 2-2h10.2a2 2 0 0 1 1.4.6l3.8 3.8a2 2 0 0 1 .6 1.4v4.35" />
  <path fill="currentColor" d="m16 19 2 2 4-4" />
  <path fill="currentColor" d="M17 15.13V14a1 1 0 0 0-1-1H8a1 1 0 0 0-1 1v7" />
  <path fill="currentColor" d="M7 3v4a1 1 0 0 0 1 1h7" />
</svg>
