<svg xmlns="http://www.w3.org/2000/svg" width="1440" height="1310" viewBox="0 0 1440 1310">
<style>
  svg { background: #f8fafc; font-family: Arial, "Microsoft YaHei", sans-serif; }
  .edge { fill: none; stroke: #334155; stroke-width: 2.4; stroke-linecap: round; stroke-linejoin: round; }
  .node-fill { fill: #ffffff; stroke: #0f172a; stroke-width: 2; }
  .node-bus { stroke: #0f172a; stroke-width: 6; stroke-linecap: square; }
  .node-source .node-fill { fill: #eff6ff; stroke: #2563eb; }
  .node-transformer .node-fill { fill: #fff7ed; stroke: #ea580c; }
  .node-switch .node-fill { fill: #f8fafc; stroke: #475569; }
  .node-load .node-fill { fill: #fef2f2; stroke: #dc2626; }
  .node-device .node-fill { fill: #f8fafc; stroke: #64748b; }
  text { fill: #1e293b; font-size: 13px; }
</style>
<g id="edges">
<path id="ACBranch-line-1-2" class="edge" d="M 1140.0 390.0 L 1015.0 390.0 L 1015.0 450.0 L 930.0 450.0"><title>bus-1 -> bus-2</title></path>
<path id="ACBranch-line-1-39" class="edge" d="M 1140.0 390.0 L 1225.0 390.0 L 1225.0 750.0 L 1350.0 750.0"><title>bus-1 -> bus-39</title></path>
<path id="ACBranch-line-2-3" class="edge" d="M 930.0 450.0 L 805.0 450.0 L 805.0 450.0 L 720.0 450.0"><title>bus-2 -> bus-3</title></path>
<path id="ACBranch-line-2-25" class="edge" d="M 930.0 450.0 L 1000.0 450.0 L 1000.0 690.0 L 930.0 690.0"><title>bus-2 -> bus-25</title></path>
<path id="ACBranch-line-3-4" class="edge" d="M 720.0 450.0 L 790.0 450.0 L 790.0 210.0 L 720.0 210.0"><title>bus-3 -> bus-4</title></path>
<path id="ACBranch-line-3-18" class="edge" d="M 720.0 450.0 L 595.0 450.0 L 595.0 330.0 L 510.0 330.0"><title>bus-3 -> bus-18</title></path>
<path id="ACBranch-line-4-5" class="edge" d="M 720.0 210.0 L 815.0 210.0 L 815.0 210.0 L 930.0 210.0"><title>bus-4 -> bus-5</title></path>
<path id="ACBranch-line-4-14" class="edge" d="M 720.0 210.0 L 605.0 210.0 L 605.0 210.0 L 510.0 210.0"><title>bus-4 -> bus-14</title></path>
<path id="ACBranch-line-5-6" class="edge" d="M 930.0 210.0 L 1025.0 210.0 L 1025.0 150.0 L 1140.0 150.0"><title>bus-5 -> bus-6</title></path>
<path id="ACBranch-line-5-8" class="edge" d="M 930.0 210.0 L 1035.0 210.0 L 1035.0 270.0 L 1140.0 270.0"><title>bus-5 -> bus-8</title></path>
<path id="ACBranch-line-6-7" class="edge" d="M 1140.0 150.0 L 1235.0 150.0 L 1235.0 510.0 L 1350.0 510.0"><title>bus-6 -> bus-7</title></path>
<path id="ACBranch-line-6-11" class="edge" d="M 1140.0 150.0 L 1210.0 150.0 L 1210.0 510.0 L 1140.0 510.0"><title>bus-6 -> bus-11</title></path>
<path id="ACBranch-line-7-8" class="edge" d="M 1350.0 510.0 L 1245.0 510.0 L 1245.0 270.0 L 1140.0 270.0"><title>bus-7 -> bus-8</title></path>
<path id="ACBranch-line-8-9" class="edge" d="M 1140.0 270.0 L 1255.0 270.0 L 1255.0 630.0 L 1350.0 630.0"><title>bus-8 -> bus-9</title></path>
<path id="ACBranch-line-9-39" class="edge" d="M 1350.0 630.0 L 1420.0 630.0 L 1420.0 750.0 L 1350.0 750.0"><title>bus-9 -> bus-39</title></path>
<path id="ACBranch-line-10-11" class="edge" d="M 930.0 570.0 L 1045.0 570.0 L 1045.0 510.0 L 1140.0 510.0"><title>bus-10 -> bus-11</title></path>
<path id="ACBranch-line-10-13" class="edge" d="M 930.0 570.0 L 825.0 570.0 L 825.0 330.0 L 720.0 330.0"><title>bus-10 -> bus-13</title></path>
<path id="ACBranch-line-13-14" class="edge" d="M 720.0 330.0 L 615.0 330.0 L 615.0 210.0 L 510.0 210.0"><title>bus-13 -> bus-14</title></path>
<path id="ACBranch-line-14-15" class="edge" d="M 510.0 210.0 L 385.0 210.0 L 385.0 330.0 L 300.0 330.0"><title>bus-14 -> bus-15</title></path>
<path id="ACBranch-line-15-16" class="edge" d="M 300.0 330.0 L 175.0 330.0 L 175.0 510.0 L 90.0 510.0"><title>bus-15 -> bus-16</title></path>
<path id="ACBranch-line-16-17" class="edge" d="M 90.0 510.0 L 185.0 510.0 L 185.0 450.0 L 300.0 450.0"><title>bus-16 -> bus-17</title></path>
<path id="ACBranch-line-16-19" class="edge" d="M 90.0 510.0 L 195.0 510.0 L 195.0 690.0 L 300.0 690.0"><title>bus-16 -> bus-19</title></path>
<path id="ACBranch-line-16-21" class="edge" d="M 90.0 510.0 L 205.0 510.0 L 205.0 570.0 L 300.0 570.0"><title>bus-16 -> bus-21</title></path>
<path id="ACBranch-line-16-24" class="edge" d="M 90.0 510.0 L 215.0 510.0 L 215.0 810.0 L 300.0 810.0"><title>bus-16 -> bus-24</title></path>
<path id="ACBranch-line-17-18" class="edge" d="M 300.0 450.0 L 395.0 450.0 L 395.0 330.0 L 510.0 330.0"><title>bus-17 -> bus-18</title></path>
<path id="ACBranch-line-17-27" class="edge" d="M 300.0 450.0 L 405.0 450.0 L 405.0 450.0 L 510.0 450.0"><title>bus-17 -> bus-27</title></path>
<path id="ACBranch-line-21-22" class="edge" d="M 300.0 570.0 L 415.0 570.0 L 415.0 690.0 L 510.0 690.0"><title>bus-21 -> bus-22</title></path>
<path id="ACBranch-line-22-23" class="edge" d="M 510.0 690.0 L 580.0 690.0 L 580.0 810.0 L 510.0 810.0"><title>bus-22 -> bus-23</title></path>
<path id="ACBranch-line-23-24" class="edge" d="M 510.0 810.0 L 425.0 810.0 L 425.0 810.0 L 300.0 810.0"><title>bus-23 -> bus-24</title></path>
<path id="ACBranch-line-23-36" class="edge" d="M 510.0 810.0 L 625.0 810.0 L 625.0 930.0 L 720.0 930.0"><title>bus-23 -> bus-36</title></path>
<path id="ACBranch-line-25-26" class="edge" d="M 930.0 690.0 L 835.0 690.0 L 835.0 570.0 L 720.0 570.0"><title>bus-25 -> bus-26</title></path>
<path id="ACBranch-line-26-27" class="edge" d="M 720.0 570.0 L 635.0 570.0 L 635.0 450.0 L 510.0 450.0"><title>bus-26 -> bus-27</title></path>
<path id="ACBranch-line-26-28" class="edge" d="M 720.0 570.0 L 845.0 570.0 L 845.0 930.0 L 930.0 930.0"><title>bus-26 -> bus-28</title></path>
<path id="ACBranch-line-26-29" class="edge" d="M 720.0 570.0 L 805.0 570.0 L 805.0 810.0 L 930.0 810.0"><title>bus-26 -> bus-29</title></path>
<path id="ACBranch-line-28-29" class="edge" d="M 930.0 930.0 L 1000.0 930.0 L 1000.0 810.0 L 930.0 810.0"><title>bus-28 -> bus-29</title></path>
<path id="ACTransformer-tr-2-30-i" class="edge" d="M 930.0 450.0 L 962.5 450.0 L 962.5 540.0 L 1035.0 540.0"><title>bus-2 -> ACTransformer-tr-2-30</title></path>
<path id="ACTransformer-tr-2-30-j" class="edge" d="M 1035.0 540.0 L 1067.5 540.0 L 1067.5 630.0 L 1140.0 630.0"><title>ACTransformer-tr-2-30 -> bus-30</title></path>
<path id="ACTransformer-tr-6-31-i" class="edge" d="M 1140.0 150.0 L 1172.5 150.0 L 1172.5 270.0 L 1245.0 270.0"><title>bus-6 -> ACTransformer-tr-6-31</title></path>
<path id="ACTransformer-tr-6-31-j" class="edge" d="M 1245.0 270.0 L 1277.5 270.0 L 1277.5 390.0 L 1350.0 390.0"><title>ACTransformer-tr-6-31 -> bus-31</title></path>
<path id="ACTransformer-tr-10-32-i" class="edge" d="M 930.0 570.0 L 972.5 570.0 L 972.5 660.0 L 1035.0 660.0"><title>bus-10 -> ACTransformer-tr-10-32</title></path>
<path id="ACTransformer-tr-10-32-j" class="edge" d="M 1035.0 660.0 L 1077.5 660.0 L 1077.5 750.0 L 1140.0 750.0"><title>ACTransformer-tr-10-32 -> bus-32</title></path>
<path id="ACTransformer-tr-12-11-i" class="edge" d="M 930.0 330.0 L 982.5 330.0 L 982.5 420.0 L 1035.0 420.0"><title>bus-12 -> ACTransformer-tr-12-11</title></path>
<path id="ACTransformer-tr-12-11-j" class="edge" d="M 1035.0 420.0 L 1087.5 420.0 L 1087.5 510.0 L 1140.0 510.0"><title>ACTransformer-tr-12-11 -> bus-11</title></path>
<path id="ACTransformer-tr-12-13-i" class="edge" d="M 930.0 330.0 L 857.5 330.0 L 857.5 330.0 L 825.0 330.0"><title>bus-12 -> ACTransformer-tr-12-13</title></path>
<path id="ACTransformer-tr-12-13-j" class="edge" d="M 825.0 330.0 L 752.5 330.0 L 752.5 330.0 L 720.0 330.0"><title>ACTransformer-tr-12-13 -> bus-13</title></path>
<path id="ACTransformer-tr-19-20-i" class="edge" d="M 300.0 690.0 L 332.5 690.0 L 332.5 630.0 L 405.0 630.0"><title>bus-19 -> ACTransformer-tr-19-20</title></path>
<path id="ACTransformer-tr-19-20-j" class="edge" d="M 405.0 630.0 L 437.5 630.0 L 437.5 570.0 L 510.0 570.0"><title>ACTransformer-tr-19-20 -> bus-20</title></path>
<path id="ACTransformer-tr-19-33-i" class="edge" d="M 300.0 690.0 L 342.5 690.0 L 342.5 810.0 L 405.0 810.0"><title>bus-19 -> ACTransformer-tr-19-33</title></path>
<path id="ACTransformer-tr-19-33-j" class="edge" d="M 405.0 810.0 L 447.5 810.0 L 447.5 930.0 L 510.0 930.0"><title>ACTransformer-tr-19-33 -> bus-33</title></path>
<path id="ACTransformer-tr-20-34-i" class="edge" d="M 510.0 570.0 L 542.5 570.0 L 542.5 630.0 L 615.0 630.0"><title>bus-20 -> ACTransformer-tr-20-34</title></path>
<path id="ACTransformer-tr-20-34-j" class="edge" d="M 615.0 630.0 L 647.5 630.0 L 647.5 690.0 L 720.0 690.0"><title>ACTransformer-tr-20-34 -> bus-34</title></path>
<path id="ACTransformer-tr-22-35-i" class="edge" d="M 510.0 690.0 L 552.5 690.0 L 552.5 750.0 L 615.0 750.0"><title>bus-22 -> ACTransformer-tr-22-35</title></path>
<path id="ACTransformer-tr-22-35-j" class="edge" d="M 615.0 750.0 L 657.5 750.0 L 657.5 810.0 L 720.0 810.0"><title>ACTransformer-tr-22-35 -> bus-35</title></path>
<path id="ACTransformer-tr-25-37-i" class="edge" d="M 930.0 690.0 L 992.5 690.0 L 992.5 780.0 L 1035.0 780.0"><title>bus-25 -> ACTransformer-tr-25-37</title></path>
<path id="ACTransformer-tr-25-37-j" class="edge" d="M 1035.0 780.0 L 1097.5 780.0 L 1097.5 870.0 L 1140.0 870.0"><title>ACTransformer-tr-25-37 -> bus-37</title></path>
<path id="ACTransformer-tr-29-38-i" class="edge" d="M 930.0 810.0 L 1002.5 810.0 L 1002.5 900.0 L 1035.0 900.0"><title>bus-29 -> ACTransformer-tr-29-38</title></path>
<path id="ACTransformer-tr-29-38-j" class="edge" d="M 1035.0 900.0 L 1107.5 900.0 L 1107.5 990.0 L 1140.0 990.0"><title>ACTransformer-tr-29-38 -> bus-38</title></path>
<path id="conn-ACGenerator-gen-30-1-30" class="edge" d="M 1140.0 552.0 L 1210.0 552.0 L 1210.0 630.0 L 1140.0 630.0"><title>ACGenerator-gen-30-1 -> bus-30</title></path>
<path id="conn-ACGenerator-gen-31-2-31" class="edge" d="M 1350.0 312.0 L 1420.0 312.0 L 1420.0 390.0 L 1350.0 390.0"><title>ACGenerator-gen-31-2 -> bus-31</title></path>
<path id="conn-ACGenerator-gen-32-3-32" class="edge" d="M 1140.0 672.0 L 1210.0 672.0 L 1210.0 750.0 L 1140.0 750.0"><title>ACGenerator-gen-32-3 -> bus-32</title></path>
<path id="conn-ACGenerator-gen-33-4-33" class="edge" d="M 510.0 852.0 L 580.0 852.0 L 580.0 930.0 L 510.0 930.0"><title>ACGenerator-gen-33-4 -> bus-33</title></path>
<path id="conn-ACGenerator-gen-34-5-34" class="edge" d="M 720.0 612.0 L 790.0 612.0 L 790.0 690.0 L 720.0 690.0"><title>ACGenerator-gen-34-5 -> bus-34</title></path>
<path id="conn-ACGenerator-gen-35-6-35" class="edge" d="M 720.0 732.0 L 790.0 732.0 L 790.0 810.0 L 720.0 810.0"><title>ACGenerator-gen-35-6 -> bus-35</title></path>
<path id="conn-ACGenerator-gen-36-7-36" class="edge" d="M 720.0 852.0 L 790.0 852.0 L 790.0 930.0 L 720.0 930.0"><title>ACGenerator-gen-36-7 -> bus-36</title></path>
<path id="conn-ACGenerator-gen-37-8-37" class="edge" d="M 1140.0 792.0 L 1210.0 792.0 L 1210.0 870.0 L 1140.0 870.0"><title>ACGenerator-gen-37-8 -> bus-37</title></path>
<path id="conn-ACGenerator-gen-38-9-38" class="edge" d="M 1140.0 912.0 L 1210.0 912.0 L 1210.0 990.0 L 1140.0 990.0"><title>ACGenerator-gen-38-9 -> bus-38</title></path>
<path id="conn-ACGenerator-gen-39-10-39" class="edge" d="M 1350.0 672.0 L 1420.0 672.0 L 1420.0 750.0 L 1350.0 750.0"><title>ACGenerator-gen-39-10 -> bus-39</title></path>
<path id="conn-ACLoad-load-1-1" class="edge" d="M 1140.0 472.0 L 1210.0 472.0 L 1210.0 390.0 L 1140.0 390.0"><title>ACLoad-load-1 -> bus-1</title></path>
<path id="conn-ACLoad-load-3-3" class="edge" d="M 720.0 532.0 L 790.0 532.0 L 790.0 450.0 L 720.0 450.0"><title>ACLoad-load-3 -> bus-3</title></path>
<path id="conn-ACLoad-load-4-4" class="edge" d="M 720.0 292.0 L 814.0 292.0 L 814.0 210.0 L 720.0 210.0"><title>ACLoad-load-4 -> bus-4</title></path>
<path id="conn-ACLoad-load-7-7" class="edge" d="M 1350.0 592.0 L 1420.0 592.0 L 1420.0 510.0 L 1350.0 510.0"><title>ACLoad-load-7 -> bus-7</title></path>
<path id="conn-ACLoad-load-8-8" class="edge" d="M 1140.0 352.0 L 1210.0 352.0 L 1210.0 270.0 L 1140.0 270.0"><title>ACLoad-load-8 -> bus-8</title></path>
<path id="conn-ACLoad-load-9-9" class="edge" d="M 1350.0 712.0 L 1444.0 712.0 L 1444.0 630.0 L 1350.0 630.0"><title>ACLoad-load-9 -> bus-9</title></path>
<path id="conn-ACLoad-load-12-12" class="edge" d="M 930.0 412.0 L 1000.0 412.0 L 1000.0 330.0 L 930.0 330.0"><title>ACLoad-load-12 -> bus-12</title></path>
<path id="conn-ACLoad-load-15-15" class="edge" d="M 300.0 412.0 L 370.0 412.0 L 370.0 330.0 L 300.0 330.0"><title>ACLoad-load-15 -> bus-15</title></path>
<path id="conn-ACLoad-load-16-16" class="edge" d="M 90.0 592.0 L 160.0 592.0 L 160.0 510.0 L 90.0 510.0"><title>ACLoad-load-16 -> bus-16</title></path>
<path id="conn-ACLoad-load-18-18" class="edge" d="M 510.0 412.0 L 580.0 412.0 L 580.0 330.0 L 510.0 330.0"><title>ACLoad-load-18 -> bus-18</title></path>
<path id="conn-ACLoad-load-20-20" class="edge" d="M 510.0 652.0 L 580.0 652.0 L 580.0 570.0 L 510.0 570.0"><title>ACLoad-load-20 -> bus-20</title></path>
<path id="conn-ACLoad-load-21-21" class="edge" d="M 300.0 652.0 L 370.0 652.0 L 370.0 570.0 L 300.0 570.0"><title>ACLoad-load-21 -> bus-21</title></path>
<path id="conn-ACLoad-load-23-23" class="edge" d="M 510.0 892.0 L 580.0 892.0 L 580.0 810.0 L 510.0 810.0"><title>ACLoad-load-23 -> bus-23</title></path>
<path id="conn-ACLoad-load-24-24" class="edge" d="M 300.0 892.0 L 370.0 892.0 L 370.0 810.0 L 300.0 810.0"><title>ACLoad-load-24 -> bus-24</title></path>
<path id="conn-ACLoad-load-25-25" class="edge" d="M 930.0 772.0 L 1000.0 772.0 L 1000.0 690.0 L 930.0 690.0"><title>ACLoad-load-25 -> bus-25</title></path>
<path id="conn-ACLoad-load-26-26" class="edge" d="M 720.0 652.0 L 790.0 652.0 L 790.0 570.0 L 720.0 570.0"><title>ACLoad-load-26 -> bus-26</title></path>
<path id="conn-ACLoad-load-27-27" class="edge" d="M 510.0 532.0 L 580.0 532.0 L 580.0 450.0 L 510.0 450.0"><title>ACLoad-load-27 -> bus-27</title></path>
<path id="conn-ACLoad-load-28-28" class="edge" d="M 930.0 1012.0 L 1000.0 1012.0 L 1000.0 930.0 L 930.0 930.0"><title>ACLoad-load-28 -> bus-28</title></path>
<path id="conn-ACLoad-load-29-29" class="edge" d="M 930.0 892.0 L 1024.0 892.0 L 1024.0 810.0 L 930.0 810.0"><title>ACLoad-load-29 -> bus-29</title></path>
<path id="conn-ACLoad-load-31-31" class="edge" d="M 1350.0 472.0 L 1420.0 472.0 L 1420.0 390.0 L 1350.0 390.0"><title>ACLoad-load-31 -> bus-31</title></path>
<path id="conn-ACLoad-load-39-39" class="edge" d="M 1350.0 832.0 L 1420.0 832.0 L 1420.0 750.0 L 1350.0 750.0"><title>ACLoad-load-39 -> bus-39</title></path>
</g>
<g id="nodes">
<g id="bus-1" class="node node-bus"><title>bus-1 / ac-bus</title><line x1="1094.0" y1="390.0" x2="1186.0" y2="390.0" class="node-bus"/><text x="1140.0" y="438.0" text-anchor="middle">bus_1</text></g>
<g id="bus-2" class="node node-bus"><title>bus-2 / ac-bus</title><line x1="884.0" y1="450.0" x2="976.0" y2="450.0" class="node-bus"/><text x="930.0" y="498.0" text-anchor="middle">bus_2</text></g>
<g id="bus-3" class="node node-bus"><title>bus-3 / ac-bus</title><line x1="674.0" y1="450.0" x2="766.0" y2="450.0" class="node-bus"/><text x="720.0" y="498.0" text-anchor="middle">bus_3</text></g>
<g id="bus-4" class="node node-bus"><title>bus-4 / ac-bus</title><line x1="674.0" y1="210.0" x2="766.0" y2="210.0" class="node-bus"/><text x="720.0" y="258.0" text-anchor="middle">bus_4</text></g>
<g id="bus-5" class="node node-bus"><title>bus-5 / ac-bus</title><line x1="884.0" y1="210.0" x2="976.0" y2="210.0" class="node-bus"/><text x="930.0" y="258.0" text-anchor="middle">bus_5</text></g>
<g id="bus-6" class="node node-bus"><title>bus-6 / ac-bus</title><line x1="1094.0" y1="150.0" x2="1186.0" y2="150.0" class="node-bus"/><text x="1140.0" y="198.0" text-anchor="middle">bus_6</text></g>
<g id="bus-7" class="node node-bus"><title>bus-7 / ac-bus</title><line x1="1304.0" y1="510.0" x2="1396.0" y2="510.0" class="node-bus"/><text x="1350.0" y="558.0" text-anchor="middle">bus_7</text></g>
<g id="bus-8" class="node node-bus"><title>bus-8 / ac-bus</title><line x1="1094.0" y1="270.0" x2="1186.0" y2="270.0" class="node-bus"/><text x="1140.0" y="318.0" text-anchor="middle">bus_8</text></g>
<g id="bus-9" class="node node-bus"><title>bus-9 / ac-bus</title><line x1="1304.0" y1="630.0" x2="1396.0" y2="630.0" class="node-bus"/><text x="1350.0" y="678.0" text-anchor="middle">bus_9</text></g>
<g id="bus-10" class="node node-bus"><title>bus-10 / ac-bus</title><line x1="884.0" y1="570.0" x2="976.0" y2="570.0" class="node-bus"/><text x="930.0" y="618.0" text-anchor="middle">bus_10</text></g>
<g id="bus-11" class="node node-bus"><title>bus-11 / ac-bus</title><line x1="1094.0" y1="510.0" x2="1186.0" y2="510.0" class="node-bus"/><text x="1140.0" y="558.0" text-anchor="middle">bus_11</text></g>
<g id="bus-12" class="node node-bus"><title>bus-12 / ac-bus</title><line x1="884.0" y1="330.0" x2="976.0" y2="330.0" class="node-bus"/><text x="930.0" y="378.0" text-anchor="middle">bus_12</text></g>
<g id="bus-13" class="node node-bus"><title>bus-13 / ac-bus</title><line x1="674.0" y1="330.0" x2="766.0" y2="330.0" class="node-bus"/><text x="720.0" y="378.0" text-anchor="middle">bus_13</text></g>
<g id="bus-14" class="node node-bus"><title>bus-14 / ac-bus</title><line x1="464.0" y1="210.0" x2="556.0" y2="210.0" class="node-bus"/><text x="510.0" y="258.0" text-anchor="middle">bus_14</text></g>
<g id="bus-15" class="node node-bus"><title>bus-15 / ac-bus</title><line x1="254.0" y1="330.0" x2="346.0" y2="330.0" class="node-bus"/><text x="300.0" y="378.0" text-anchor="middle">bus_15</text></g>
<g id="bus-16" class="node node-bus"><title>bus-16 / ac-bus</title><line x1="44.0" y1="510.0" x2="136.0" y2="510.0" class="node-bus"/><text x="90.0" y="558.0" text-anchor="middle">bus_16</text></g>
<g id="bus-17" class="node node-bus"><title>bus-17 / ac-bus</title><line x1="254.0" y1="450.0" x2="346.0" y2="450.0" class="node-bus"/><text x="300.0" y="498.0" text-anchor="middle">bus_17</text></g>
<g id="bus-18" class="node node-bus"><title>bus-18 / ac-bus</title><line x1="464.0" y1="330.0" x2="556.0" y2="330.0" class="node-bus"/><text x="510.0" y="378.0" text-anchor="middle">bus_18</text></g>
<g id="bus-19" class="node node-bus"><title>bus-19 / ac-bus</title><line x1="254.0" y1="690.0" x2="346.0" y2="690.0" class="node-bus"/><text x="300.0" y="738.0" text-anchor="middle">bus_19</text></g>
<g id="bus-20" class="node node-bus"><title>bus-20 / ac-bus</title><line x1="464.0" y1="570.0" x2="556.0" y2="570.0" class="node-bus"/><text x="510.0" y="618.0" text-anchor="middle">bus_20</text></g>
<g id="bus-21" class="node node-bus"><title>bus-21 / ac-bus</title><line x1="254.0" y1="570.0" x2="346.0" y2="570.0" class="node-bus"/><text x="300.0" y="618.0" text-anchor="middle">bus_21</text></g>
<g id="bus-22" class="node node-bus"><title>bus-22 / ac-bus</title><line x1="464.0" y1="690.0" x2="556.0" y2="690.0" class="node-bus"/><text x="510.0" y="738.0" text-anchor="middle">bus_22</text></g>
<g id="bus-23" class="node node-bus"><title>bus-23 / ac-bus</title><line x1="464.0" y1="810.0" x2="556.0" y2="810.0" class="node-bus"/><text x="510.0" y="858.0" text-anchor="middle">bus_23</text></g>
<g id="bus-24" class="node node-bus"><title>bus-24 / ac-bus</title><line x1="254.0" y1="810.0" x2="346.0" y2="810.0" class="node-bus"/><text x="300.0" y="858.0" text-anchor="middle">bus_24</text></g>
<g id="bus-25" class="node node-bus"><title>bus-25 / ac-bus</title><line x1="884.0" y1="690.0" x2="976.0" y2="690.0" class="node-bus"/><text x="930.0" y="738.0" text-anchor="middle">bus_25</text></g>
<g id="bus-26" class="node node-bus"><title>bus-26 / ac-bus</title><line x1="674.0" y1="570.0" x2="766.0" y2="570.0" class="node-bus"/><text x="720.0" y="618.0" text-anchor="middle">bus_26</text></g>
<g id="bus-27" class="node node-bus"><title>bus-27 / ac-bus</title><line x1="464.0" y1="450.0" x2="556.0" y2="450.0" class="node-bus"/><text x="510.0" y="498.0" text-anchor="middle">bus_27</text></g>
<g id="bus-28" class="node node-bus"><title>bus-28 / ac-bus</title><line x1="884.0" y1="930.0" x2="976.0" y2="930.0" class="node-bus"/><text x="930.0" y="978.0" text-anchor="middle">bus_28</text></g>
<g id="bus-29" class="node node-bus"><title>bus-29 / ac-bus</title><line x1="884.0" y1="810.0" x2="976.0" y2="810.0" class="node-bus"/><text x="930.0" y="858.0" text-anchor="middle">bus_29</text></g>
<g id="bus-30" class="node node-bus"><title>bus-30 / ac-bus</title><line x1="1094.0" y1="630.0" x2="1186.0" y2="630.0" class="node-bus"/><text x="1140.0" y="678.0" text-anchor="middle">bus_30</text></g>
<g id="bus-31" class="node node-bus"><title>bus-31 / ac-bus</title><line x1="1304.0" y1="390.0" x2="1396.0" y2="390.0" class="node-bus"/><text x="1350.0" y="438.0" text-anchor="middle">bus_31</text></g>
<g id="bus-32" class="node node-bus"><title>bus-32 / ac-bus</title><line x1="1094.0" y1="750.0" x2="1186.0" y2="750.0" class="node-bus"/><text x="1140.0" y="798.0" text-anchor="middle">bus_32</text></g>
<g id="bus-33" class="node node-bus"><title>bus-33 / ac-bus</title><line x1="464.0" y1="930.0" x2="556.0" y2="930.0" class="node-bus"/><text x="510.0" y="978.0" text-anchor="middle">bus_33</text></g>
<g id="bus-34" class="node node-bus"><title>bus-34 / ac-bus</title><line x1="674.0" y1="690.0" x2="766.0" y2="690.0" class="node-bus"/><text x="720.0" y="738.0" text-anchor="middle">bus_34</text></g>
<g id="bus-35" class="node node-bus"><title>bus-35 / ac-bus</title><line x1="674.0" y1="810.0" x2="766.0" y2="810.0" class="node-bus"/><text x="720.0" y="858.0" text-anchor="middle">bus_35</text></g>
<g id="bus-36" class="node node-bus"><title>bus-36 / ac-bus</title><line x1="674.0" y1="930.0" x2="766.0" y2="930.0" class="node-bus"/><text x="720.0" y="978.0" text-anchor="middle">bus_36</text></g>
<g id="bus-37" class="node node-bus"><title>bus-37 / ac-bus</title><line x1="1094.0" y1="870.0" x2="1186.0" y2="870.0" class="node-bus"/><text x="1140.0" y="918.0" text-anchor="middle">bus_37</text></g>
<g id="bus-38" class="node node-bus"><title>bus-38 / ac-bus</title><line x1="1094.0" y1="990.0" x2="1186.0" y2="990.0" class="node-bus"/><text x="1140.0" y="1038.0" text-anchor="middle">bus_38</text></g>
<g id="bus-39" class="node node-bus"><title>bus-39 / ac-bus</title><line x1="1304.0" y1="750.0" x2="1396.0" y2="750.0" class="node-bus"/><text x="1350.0" y="798.0" text-anchor="middle">bus_39</text></g>
<g id="ACTransformer-tr-2-30" class="node node-transformer"><title>ACTransformer-tr-2-30 / ac-transformer</title><circle cx="1022.0" cy="540.0" r="18" class="node-fill"/><circle cx="1048.0" cy="540.0" r="18" class="node-fill"/><text x="1035.0" y="588.0" text-anchor="middle">tr_2_30</text></g>
<g id="ACTransformer-tr-6-31" class="node node-transformer"><title>ACTransformer-tr-6-31 / ac-transformer</title><circle cx="1232.0" cy="270.0" r="18" class="node-fill"/><circle cx="1258.0" cy="270.0" r="18" class="node-fill"/><text x="1245.0" y="318.0" text-anchor="middle">tr_6_31</text></g>
<g id="ACTransformer-tr-10-32" class="node node-transformer"><title>ACTransformer-tr-10-32 / ac-transformer</title><circle cx="1022.0" cy="660.0" r="18" class="node-fill"/><circle cx="1048.0" cy="660.0" r="18" class="node-fill"/><text x="1035.0" y="708.0" text-anchor="middle">tr_10_32</text></g>
<g id="ACTransformer-tr-12-11" class="node node-transformer"><title>ACTransformer-tr-12-11 / ac-transformer</title><circle cx="1022.0" cy="420.0" r="18" class="node-fill"/><circle cx="1048.0" cy="420.0" r="18" class="node-fill"/><text x="1035.0" y="468.0" text-anchor="middle">tr_12_11</text></g>
<g id="ACTransformer-tr-12-13" class="node node-transformer"><title>ACTransformer-tr-12-13 / ac-transformer</title><circle cx="812.0" cy="330.0" r="18" class="node-fill"/><circle cx="838.0" cy="330.0" r="18" class="node-fill"/><text x="825.0" y="378.0" text-anchor="middle">tr_12_13</text></g>
<g id="ACTransformer-tr-19-20" class="node node-transformer"><title>ACTransformer-tr-19-20 / ac-transformer</title><circle cx="392.0" cy="630.0" r="18" class="node-fill"/><circle cx="418.0" cy="630.0" r="18" class="node-fill"/><text x="405.0" y="678.0" text-anchor="middle">tr_19_20</text></g>
<g id="ACTransformer-tr-19-33" class="node node-transformer"><title>ACTransformer-tr-19-33 / ac-transformer</title><circle cx="392.0" cy="810.0" r="18" class="node-fill"/><circle cx="418.0" cy="810.0" r="18" class="node-fill"/><text x="405.0" y="858.0" text-anchor="middle">tr_19_33</text></g>
<g id="ACTransformer-tr-20-34" class="node node-transformer"><title>ACTransformer-tr-20-34 / ac-transformer</title><circle cx="602.0" cy="630.0" r="18" class="node-fill"/><circle cx="628.0" cy="630.0" r="18" class="node-fill"/><text x="615.0" y="678.0" text-anchor="middle">tr_20_34</text></g>
<g id="ACTransformer-tr-22-35" class="node node-transformer"><title>ACTransformer-tr-22-35 / ac-transformer</title><circle cx="602.0" cy="750.0" r="18" class="node-fill"/><circle cx="628.0" cy="750.0" r="18" class="node-fill"/><text x="615.0" y="798.0" text-anchor="middle">tr_22_35</text></g>
<g id="ACTransformer-tr-25-37" class="node node-transformer"><title>ACTransformer-tr-25-37 / ac-transformer</title><circle cx="1022.0" cy="780.0" r="18" class="node-fill"/><circle cx="1048.0" cy="780.0" r="18" class="node-fill"/><text x="1035.0" y="828.0" text-anchor="middle">tr_25_37</text></g>
<g id="ACTransformer-tr-29-38" class="node node-transformer"><title>ACTransformer-tr-29-38 / ac-transformer</title><circle cx="1022.0" cy="900.0" r="18" class="node-fill"/><circle cx="1048.0" cy="900.0" r="18" class="node-fill"/><text x="1035.0" y="948.0" text-anchor="middle">tr_29_38</text></g>
<g id="ACGenerator-gen-30-1" class="node node-source"><title>ACGenerator-gen-30-1 / ac-source</title><circle cx="1140.0" cy="552.0" r="26" class="node-fill"/><text x="1140.0" y="600.0" text-anchor="middle">gen_30_1</text></g>
<g id="ACGenerator-gen-31-2" class="node node-source"><title>ACGenerator-gen-31-2 / ac-source</title><circle cx="1350.0" cy="312.0" r="26" class="node-fill"/><text x="1350.0" y="360.0" text-anchor="middle">gen_31_2</text></g>
<g id="ACGenerator-gen-32-3" class="node node-source"><title>ACGenerator-gen-32-3 / ac-source</title><circle cx="1140.0" cy="672.0" r="26" class="node-fill"/><text x="1140.0" y="720.0" text-anchor="middle">gen_32_3</text></g>
<g id="ACGenerator-gen-33-4" class="node node-source"><title>ACGenerator-gen-33-4 / ac-source</title><circle cx="510.0" cy="852.0" r="26" class="node-fill"/><text x="510.0" y="900.0" text-anchor="middle">gen_33_4</text></g>
<g id="ACGenerator-gen-34-5" class="node node-source"><title>ACGenerator-gen-34-5 / ac-source</title><circle cx="720.0" cy="612.0" r="26" class="node-fill"/><text x="720.0" y="660.0" text-anchor="middle">gen_34_5</text></g>
<g id="ACGenerator-gen-35-6" class="node node-source"><title>ACGenerator-gen-35-6 / ac-source</title><circle cx="720.0" cy="732.0" r="26" class="node-fill"/><text x="720.0" y="780.0" text-anchor="middle">gen_35_6</text></g>
<g id="ACGenerator-gen-36-7" class="node node-source"><title>ACGenerator-gen-36-7 / ac-source</title><circle cx="720.0" cy="852.0" r="26" class="node-fill"/><text x="720.0" y="900.0" text-anchor="middle">gen_36_7</text></g>
<g id="ACGenerator-gen-37-8" class="node node-source"><title>ACGenerator-gen-37-8 / ac-source</title><circle cx="1140.0" cy="792.0" r="26" class="node-fill"/><text x="1140.0" y="840.0" text-anchor="middle">gen_37_8</text></g>
<g id="ACGenerator-gen-38-9" class="node node-source"><title>ACGenerator-gen-38-9 / ac-source</title><circle cx="1140.0" cy="912.0" r="26" class="node-fill"/><text x="1140.0" y="960.0" text-anchor="middle">gen_38_9</text></g>
<g id="ACGenerator-gen-39-10" class="node node-source"><title>ACGenerator-gen-39-10 / ac-source</title><circle cx="1350.0" cy="672.0" r="26" class="node-fill"/><text x="1350.0" y="720.0" text-anchor="middle">gen_39_10</text></g>
<g id="ACLoad-load-1" class="node node-load"><title>ACLoad-load-1 / ac-load</title><path d="M 1114.0 450.0 L 1166.0 450.0 L 1140.0 498.0 Z" class="node-fill"/><text x="1140.0" y="520.0" text-anchor="middle">load_1</text></g>
<g id="ACLoad-load-3" class="node node-load"><title>ACLoad-load-3 / ac-load</title><path d="M 694.0 510.0 L 746.0 510.0 L 720.0 558.0 Z" class="node-fill"/><text x="720.0" y="580.0" text-anchor="middle">load_3</text></g>
<g id="ACLoad-load-4" class="node node-load"><title>ACLoad-load-4 / ac-load</title><path d="M 694.0 270.0 L 746.0 270.0 L 720.0 318.0 Z" class="node-fill"/><text x="720.0" y="340.0" text-anchor="middle">load_4</text></g>
<g id="ACLoad-load-7" class="node node-load"><title>ACLoad-load-7 / ac-load</title><path d="M 1324.0 570.0 L 1376.0 570.0 L 1350.0 618.0 Z" class="node-fill"/><text x="1350.0" y="640.0" text-anchor="middle">load_7</text></g>
<g id="ACLoad-load-8" class="node node-load"><title>ACLoad-load-8 / ac-load</title><path d="M 1114.0 330.0 L 1166.0 330.0 L 1140.0 378.0 Z" class="node-fill"/><text x="1140.0" y="400.0" text-anchor="middle">load_8</text></g>
<g id="ACLoad-load-9" class="node node-load"><title>ACLoad-load-9 / ac-load</title><path d="M 1324.0 690.0 L 1376.0 690.0 L 1350.0 738.0 Z" class="node-fill"/><text x="1350.0" y="760.0" text-anchor="middle">load_9</text></g>
<g id="ACLoad-load-12" class="node node-load"><title>ACLoad-load-12 / ac-load</title><path d="M 904.0 390.0 L 956.0 390.0 L 930.0 438.0 Z" class="node-fill"/><text x="930.0" y="460.0" text-anchor="middle">load_12</text></g>
<g id="ACLoad-load-15" class="node node-load"><title>ACLoad-load-15 / ac-load</title><path d="M 274.0 390.0 L 326.0 390.0 L 300.0 438.0 Z" class="node-fill"/><text x="300.0" y="460.0" text-anchor="middle">load_15</text></g>
<g id="ACLoad-load-16" class="node node-load"><title>ACLoad-load-16 / ac-load</title><path d="M 64.0 570.0 L 116.0 570.0 L 90.0 618.0 Z" class="node-fill"/><text x="90.0" y="640.0" text-anchor="middle">load_16</text></g>
<g id="ACLoad-load-18" class="node node-load"><title>ACLoad-load-18 / ac-load</title><path d="M 484.0 390.0 L 536.0 390.0 L 510.0 438.0 Z" class="node-fill"/><text x="510.0" y="460.0" text-anchor="middle">load_18</text></g>
<g id="ACLoad-load-20" class="node node-load"><title>ACLoad-load-20 / ac-load</title><path d="M 484.0 630.0 L 536.0 630.0 L 510.0 678.0 Z" class="node-fill"/><text x="510.0" y="700.0" text-anchor="middle">load_20</text></g>
<g id="ACLoad-load-21" class="node node-load"><title>ACLoad-load-21 / ac-load</title><path d="M 274.0 630.0 L 326.0 630.0 L 300.0 678.0 Z" class="node-fill"/><text x="300.0" y="700.0" text-anchor="middle">load_21</text></g>
<g id="ACLoad-load-23" class="node node-load"><title>ACLoad-load-23 / ac-load</title><path d="M 484.0 870.0 L 536.0 870.0 L 510.0 918.0 Z" class="node-fill"/><text x="510.0" y="940.0" text-anchor="middle">load_23</text></g>
<g id="ACLoad-load-24" class="node node-load"><title>ACLoad-load-24 / ac-load</title><path d="M 274.0 870.0 L 326.0 870.0 L 300.0 918.0 Z" class="node-fill"/><text x="300.0" y="940.0" text-anchor="middle">load_24</text></g>
<g id="ACLoad-load-25" class="node node-load"><title>ACLoad-load-25 / ac-load</title><path d="M 904.0 750.0 L 956.0 750.0 L 930.0 798.0 Z" class="node-fill"/><text x="930.0" y="820.0" text-anchor="middle">load_25</text></g>
<g id="ACLoad-load-26" class="node node-load"><title>ACLoad-load-26 / ac-load</title><path d="M 694.0 630.0 L 746.0 630.0 L 720.0 678.0 Z" class="node-fill"/><text x="720.0" y="700.0" text-anchor="middle">load_26</text></g>
<g id="ACLoad-load-27" class="node node-load"><title>ACLoad-load-27 / ac-load</title><path d="M 484.0 510.0 L 536.0 510.0 L 510.0 558.0 Z" class="node-fill"/><text x="510.0" y="580.0" text-anchor="middle">load_27</text></g>
<g id="ACLoad-load-28" class="node node-load"><title>ACLoad-load-28 / ac-load</title><path d="M 904.0 990.0 L 956.0 990.0 L 930.0 1038.0 Z" class="node-fill"/><text x="930.0" y="1060.0" text-anchor="middle">load_28</text></g>
<g id="ACLoad-load-29" class="node node-load"><title>ACLoad-load-29 / ac-load</title><path d="M 904.0 870.0 L 956.0 870.0 L 930.0 918.0 Z" class="node-fill"/><text x="930.0" y="940.0" text-anchor="middle">load_29</text></g>
<g id="ACLoad-load-31" class="node node-load"><title>ACLoad-load-31 / ac-load</title><path d="M 1324.0 450.0 L 1376.0 450.0 L 1350.0 498.0 Z" class="node-fill"/><text x="1350.0" y="520.0" text-anchor="middle">load_31</text></g>
<g id="ACLoad-load-39" class="node node-load"><title>ACLoad-load-39 / ac-load</title><path d="M 1324.0 810.0 L 1376.0 810.0 L 1350.0 858.0 Z" class="node-fill"/><text x="1350.0" y="880.0" text-anchor="middle">load_39</text></g>
</g>
</svg>
