<svg xmlns="http://www.w3.org/2000/svg" width="810" height="710" viewBox="0 0 810 710">
<style>
  svg { background: #f8fafc; font-family: Arial, "Microsoft YaHei", sans-serif; }
  .edge { fill: none; stroke: #334155; stroke-width: 2.4; stroke-linecap: round; stroke-linejoin: round; }
  .node-fill { fill: #ffffff; stroke: #0f172a; stroke-width: 2; }
  .node-bus { stroke: #0f172a; stroke-width: 6; stroke-linecap: square; }
  .node-source .node-fill { fill: #eff6ff; stroke: #2563eb; }
  .node-transformer .node-fill { fill: #fff7ed; stroke: #ea580c; }
  .node-switch .node-fill { fill: #f8fafc; stroke: #475569; }
  .node-load .node-fill { fill: #fef2f2; stroke: #dc2626; }
  .node-device .node-fill { fill: #f8fafc; stroke: #64748b; }
  text { fill: #1e293b; font-size: 13px; }
</style>
<g id="edges">
<path id="ACBranch-line-1-4" class="edge" d="M 300.0 390.0 L 175.0 390.0 L 175.0 210.0 L 90.0 210.0"><title>bus-1 -> bus-4</title></path>
<path id="ACBranch-line-4-5" class="edge" d="M 90.0 210.0 L 185.0 210.0 L 185.0 150.0 L 300.0 150.0"><title>bus-4 -> bus-5</title></path>
<path id="ACBranch-line-5-6" class="edge" d="M 300.0 150.0 L 385.0 150.0 L 385.0 210.0 L 510.0 210.0"><title>bus-5 -> bus-6</title></path>
<path id="ACBranch-line-3-6" class="edge" d="M 720.0 150.0 L 595.0 150.0 L 595.0 210.0 L 510.0 210.0"><title>bus-3 -> bus-6</title></path>
<path id="ACBranch-line-6-7" class="edge" d="M 510.0 210.0 L 605.0 210.0 L 605.0 270.0 L 720.0 270.0"><title>bus-6 -> bus-7</title></path>
<path id="ACBranch-line-7-8" class="edge" d="M 720.0 270.0 L 615.0 270.0 L 615.0 330.0 L 510.0 330.0"><title>bus-7 -> bus-8</title></path>
<path id="ACBranch-line-8-2" class="edge" d="M 510.0 330.0 L 625.0 330.0 L 625.0 390.0 L 720.0 390.0"><title>bus-8 -> bus-2</title></path>
<path id="ACBranch-line-8-9" class="edge" d="M 510.0 330.0 L 395.0 330.0 L 395.0 270.0 L 300.0 270.0"><title>bus-8 -> bus-9</title></path>
<path id="ACBranch-line-9-4" class="edge" d="M 300.0 270.0 L 195.0 270.0 L 195.0 210.0 L 90.0 210.0"><title>bus-9 -> bus-4</title></path>
<path id="conn-ACGenerator-gen-1-1-1" class="edge" d="M 300.0 312.0 L 370.0 312.0 L 370.0 390.0 L 300.0 390.0"><title>ACGenerator-gen-1-1 -> bus-1</title></path>
<path id="conn-ACGenerator-gen-2-2-2" class="edge" d="M 720.0 312.0 L 790.0 312.0 L 790.0 390.0 L 720.0 390.0"><title>ACGenerator-gen-2-2 -> bus-2</title></path>
<path id="conn-ACGenerator-gen-3-3-3" class="edge" d="M 720.0 72.0 L 790.0 72.0 L 790.0 150.0 L 720.0 150.0"><title>ACGenerator-gen-3-3 -> bus-3</title></path>
<path id="conn-ACLoad-load-5-5" class="edge" d="M 300.0 232.0 L 370.0 232.0 L 370.0 150.0 L 300.0 150.0"><title>ACLoad-load-5 -> bus-5</title></path>
<path id="conn-ACLoad-load-7-7" class="edge" d="M 720.0 352.0 L 790.0 352.0 L 790.0 270.0 L 720.0 270.0"><title>ACLoad-load-7 -> bus-7</title></path>
<path id="conn-ACLoad-load-9-9" class="edge" d="M 300.0 352.0 L 370.0 352.0 L 370.0 270.0 L 300.0 270.0"><title>ACLoad-load-9 -> bus-9</title></path>
</g>
<g id="nodes">
<g id="bus-1" class="node node-bus"><title>bus-1 / ac-bus</title><line x1="254.0" y1="390.0" x2="346.0" y2="390.0" class="node-bus"/><text x="300.0" y="438.0" text-anchor="middle">bus_1</text></g>
<g id="bus-2" class="node node-bus"><title>bus-2 / ac-bus</title><line x1="674.0" y1="390.0" x2="766.0" y2="390.0" class="node-bus"/><text x="720.0" y="438.0" text-anchor="middle">bus_2</text></g>
<g id="bus-3" class="node node-bus"><title>bus-3 / ac-bus</title><line x1="674.0" y1="150.0" x2="766.0" y2="150.0" class="node-bus"/><text x="720.0" y="198.0" text-anchor="middle">bus_3</text></g>
<g id="bus-4" class="node node-bus"><title>bus-4 / ac-bus</title><line x1="44.0" y1="210.0" x2="136.0" y2="210.0" class="node-bus"/><text x="90.0" y="258.0" text-anchor="middle">bus_4</text></g>
<g id="bus-5" class="node node-bus"><title>bus-5 / ac-bus</title><line x1="254.0" y1="150.0" x2="346.0" y2="150.0" class="node-bus"/><text x="300.0" y="198.0" text-anchor="middle">bus_5</text></g>
<g id="bus-6" class="node node-bus"><title>bus-6 / ac-bus</title><line x1="464.0" y1="210.0" x2="556.0" y2="210.0" class="node-bus"/><text x="510.0" y="258.0" text-anchor="middle">bus_6</text></g>
<g id="bus-7" class="node node-bus"><title>bus-7 / ac-bus</title><line x1="674.0" y1="270.0" x2="766.0" y2="270.0" class="node-bus"/><text x="720.0" y="318.0" text-anchor="middle">bus_7</text></g>
<g id="bus-8" class="node node-bus"><title>bus-8 / ac-bus</title><line x1="464.0" y1="330.0" x2="556.0" y2="330.0" class="node-bus"/><text x="510.0" y="378.0" text-anchor="middle">bus_8</text></g>
<g id="bus-9" class="node node-bus"><title>bus-9 / ac-bus</title><line x1="254.0" y1="270.0" x2="346.0" y2="270.0" class="node-bus"/><text x="300.0" y="318.0" text-anchor="middle">bus_9</text></g>
<g id="ACGenerator-gen-1-1" class="node node-source"><title>ACGenerator-gen-1-1 / ac-source</title><circle cx="300.0" cy="312.0" r="26" class="node-fill"/><text x="300.0" y="360.0" text-anchor="middle">gen_1_1</text></g>
<g id="ACGenerator-gen-2-2" class="node node-source"><title>ACGenerator-gen-2-2 / ac-source</title><circle cx="720.0" cy="312.0" r="26" class="node-fill"/><text x="720.0" y="360.0" text-anchor="middle">gen_2_2</text></g>
<g id="ACGenerator-gen-3-3" class="node node-source"><title>ACGenerator-gen-3-3 / ac-source</title><circle cx="720.0" cy="72.0" r="26" class="node-fill"/><text x="720.0" y="120.0" text-anchor="middle">gen_3_3</text></g>
<g id="ACLoad-load-5" class="node node-load"><title>ACLoad-load-5 / ac-load</title><path d="M 274.0 210.0 L 326.0 210.0 L 300.0 258.0 Z" class="node-fill"/><text x="300.0" y="280.0" text-anchor="middle">load_5</text></g>
<g id="ACLoad-load-7" class="node node-load"><title>ACLoad-load-7 / ac-load</title><path d="M 694.0 330.0 L 746.0 330.0 L 720.0 378.0 Z" class="node-fill"/><text x="720.0" y="400.0" text-anchor="middle">load_7</text></g>
<g id="ACLoad-load-9" class="node node-load"><title>ACLoad-load-9 / ac-load</title><path d="M 274.0 330.0 L 326.0 330.0 L 300.0 378.0 Z" class="node-fill"/><text x="300.0" y="400.0" text-anchor="middle">load_9</text></g>
</g>
</svg>
