<svg xmlns="http://www.w3.org/2000/svg" width="1335" height="1190" viewBox="0 0 1335 1190">
<style>
  svg { background: #f8fafc; font-family: Arial, "Microsoft YaHei", sans-serif; }
  .edge { fill: none; stroke: #334155; stroke-width: 2.4; stroke-linecap: round; stroke-linejoin: round; }
  .node-fill { fill: #ffffff; stroke: #0f172a; stroke-width: 2; }
  .node-bus { stroke: #0f172a; stroke-width: 6; stroke-linecap: square; }
  .node-source .node-fill { fill: #eff6ff; stroke: #2563eb; }
  .node-transformer .node-fill { fill: #fff7ed; stroke: #ea580c; }
  .node-switch .node-fill { fill: #f8fafc; stroke: #475569; }
  .node-load .node-fill { fill: #fef2f2; stroke: #dc2626; }
  .node-device .node-fill { fill: #f8fafc; stroke: #64748b; }
  text { fill: #1e293b; font-size: 13px; }
</style>
<g id="edges">
<path id="ACBranch-line-1-2" class="edge" d="M 510.0 390.0 L 580.0 390.0 L 580.0 630.0 L 510.0 630.0"><title>bus-1 -> bus-2</title></path>
<path id="ACBranch-line-1-3" class="edge" d="M 510.0 390.0 L 595.0 390.0 L 595.0 570.0 L 720.0 570.0"><title>bus-1 -> bus-3</title></path>
<path id="ACBranch-line-1-5" class="edge" d="M 510.0 390.0 L 385.0 390.0 L 385.0 270.0 L 300.0 270.0"><title>bus-1 -> bus-5</title></path>
<path id="ACBranch-line-2-4" class="edge" d="M 510.0 630.0 L 605.0 630.0 L 605.0 690.0 L 720.0 690.0"><title>bus-2 -> bus-4</title></path>
<path id="ACBranch-line-2-6" class="edge" d="M 510.0 630.0 L 395.0 630.0 L 395.0 630.0 L 300.0 630.0"><title>bus-2 -> bus-6</title></path>
<path id="ACBranch-line-3-9" class="edge" d="M 720.0 570.0 L 615.0 570.0 L 615.0 510.0 L 510.0 510.0"><title>bus-3 -> bus-9</title></path>
<path id="ACBranch-line-4-9" class="edge" d="M 720.0 690.0 L 625.0 690.0 L 625.0 510.0 L 510.0 510.0"><title>bus-4 -> bus-9</title></path>
<path id="ACBranch-line-5-10" class="edge" d="M 300.0 270.0 L 175.0 270.0 L 175.0 450.0 L 90.0 450.0"><title>bus-5 -> bus-10</title></path>
<path id="ACBranch-line-6-10" class="edge" d="M 300.0 630.0 L 185.0 630.0 L 185.0 450.0 L 90.0 450.0"><title>bus-6 -> bus-10</title></path>
<path id="ACBranch-line-7-8" class="edge" d="M 510.0 870.0 L 405.0 870.0 L 405.0 750.0 L 300.0 750.0"><title>bus-7 -> bus-8</title></path>
<path id="ACBranch-line-8-9" class="edge" d="M 300.0 750.0 L 415.0 750.0 L 415.0 510.0 L 510.0 510.0"><title>bus-8 -> bus-9</title></path>
<path id="ACBranch-line-8-10" class="edge" d="M 300.0 750.0 L 195.0 750.0 L 195.0 450.0 L 90.0 450.0"><title>bus-8 -> bus-10</title></path>
<path id="ACBranch-line-11-13" class="edge" d="M 300.0 390.0 L 425.0 390.0 L 425.0 750.0 L 510.0 750.0"><title>bus-11 -> bus-13</title></path>
<path id="ACBranch-line-11-14" class="edge" d="M 300.0 390.0 L 385.0 390.0 L 385.0 150.0 L 510.0 150.0"><title>bus-11 -> bus-14</title></path>
<path id="ACBranch-line-12-13" class="edge" d="M 300.0 510.0 L 395.0 510.0 L 395.0 750.0 L 510.0 750.0"><title>bus-12 -> bus-13</title></path>
<path id="ACBranch-line-12-23" class="edge" d="M 300.0 510.0 L 405.0 510.0 L 405.0 270.0 L 510.0 270.0"><title>bus-12 -> bus-23</title></path>
<path id="ACBranch-line-13-23" class="edge" d="M 510.0 750.0 L 580.0 750.0 L 580.0 270.0 L 510.0 270.0"><title>bus-13 -> bus-23</title></path>
<path id="ACBranch-line-14-16" class="edge" d="M 510.0 150.0 L 635.0 150.0 L 635.0 330.0 L 720.0 330.0"><title>bus-14 -> bus-16</title></path>
<path id="ACBranch-line-15-16" class="edge" d="M 930.0 330.0 L 805.0 330.0 L 805.0 330.0 L 720.0 330.0"><title>bus-15 -> bus-16</title></path>
<path id="ACBranch-line-15-21" class="edge" d="M 930.0 330.0 L 1015.0 330.0 L 1015.0 390.0 L 1140.0 390.0"><title>bus-15 -> bus-21</title></path>
<path id="ACBranch-line-15-21-2" class="edge" d="M 930.0 330.0 L 1025.0 330.0 L 1025.0 390.0 L 1140.0 390.0"><title>bus-15 -> bus-21</title></path>
<path id="ACBranch-line-15-24" class="edge" d="M 930.0 330.0 L 1000.0 330.0 L 1000.0 690.0 L 930.0 690.0"><title>bus-15 -> bus-24</title></path>
<path id="ACBranch-line-16-17" class="edge" d="M 720.0 330.0 L 815.0 330.0 L 815.0 450.0 L 930.0 450.0"><title>bus-16 -> bus-17</title></path>
<path id="ACBranch-line-16-19" class="edge" d="M 720.0 330.0 L 825.0 330.0 L 825.0 570.0 L 930.0 570.0"><title>bus-16 -> bus-19</title></path>
<path id="ACBranch-line-17-18" class="edge" d="M 930.0 450.0 L 1035.0 450.0 L 1035.0 510.0 L 1140.0 510.0"><title>bus-17 -> bus-18</title></path>
<path id="ACBranch-line-17-22" class="edge" d="M 930.0 450.0 L 1045.0 450.0 L 1045.0 630.0 L 1140.0 630.0"><title>bus-17 -> bus-22</title></path>
<path id="ACBranch-line-18-21" class="edge" d="M 1140.0 510.0 L 1210.0 510.0 L 1210.0 390.0 L 1140.0 390.0"><title>bus-18 -> bus-21</title></path>
<path id="ACBranch-line-18-21-2" class="edge" d="M 1140.0 510.0 L 1234.0 510.0 L 1234.0 390.0 L 1140.0 390.0"><title>bus-18 -> bus-21</title></path>
<path id="ACBranch-line-19-20" class="edge" d="M 930.0 570.0 L 835.0 570.0 L 835.0 450.0 L 720.0 450.0"><title>bus-19 -> bus-20</title></path>
<path id="ACBranch-line-19-20-2" class="edge" d="M 930.0 570.0 L 845.0 570.0 L 845.0 450.0 L 720.0 450.0"><title>bus-19 -> bus-20</title></path>
<path id="ACBranch-line-20-23" class="edge" d="M 720.0 450.0 L 595.0 450.0 L 595.0 270.0 L 510.0 270.0"><title>bus-20 -> bus-23</title></path>
<path id="ACBranch-line-20-23-2" class="edge" d="M 720.0 450.0 L 605.0 450.0 L 605.0 270.0 L 510.0 270.0"><title>bus-20 -> bus-23</title></path>
<path id="ACBranch-line-21-22" class="edge" d="M 1140.0 390.0 L 1258.0 390.0 L 1258.0 630.0 L 1140.0 630.0"><title>bus-21 -> bus-22</title></path>
<path id="ACTransformer-tr-3-24-i" class="edge" d="M 720.0 570.0 L 752.5 570.0 L 752.5 630.0 L 825.0 630.0"><title>bus-3 -> ACTransformer-tr-3-24</title></path>
<path id="ACTransformer-tr-3-24-j" class="edge" d="M 825.0 630.0 L 857.5 630.0 L 857.5 690.0 L 930.0 690.0"><title>ACTransformer-tr-3-24 -> bus-24</title></path>
<path id="ACTransformer-tr-9-11-i" class="edge" d="M 510.0 510.0 L 437.5 510.0 L 437.5 450.0 L 405.0 450.0"><title>bus-9 -> ACTransformer-tr-9-11</title></path>
<path id="ACTransformer-tr-9-11-j" class="edge" d="M 405.0 450.0 L 332.5 450.0 L 332.5 390.0 L 300.0 390.0"><title>ACTransformer-tr-9-11 -> bus-11</title></path>
<path id="ACTransformer-tr-9-12-i" class="edge" d="M 510.0 510.0 L 447.5 510.0 L 447.5 510.0 L 405.0 510.0"><title>bus-9 -> ACTransformer-tr-9-12</title></path>
<path id="ACTransformer-tr-9-12-j" class="edge" d="M 405.0 510.0 L 342.5 510.0 L 342.5 510.0 L 300.0 510.0"><title>ACTransformer-tr-9-12 -> bus-12</title></path>
<path id="ACTransformer-tr-10-11-i" class="edge" d="M 90.0 450.0 L 122.5 450.0 L 122.5 420.0 L 195.0 420.0"><title>bus-10 -> ACTransformer-tr-10-11</title></path>
<path id="ACTransformer-tr-10-11-j" class="edge" d="M 195.0 420.0 L 257.5 420.0 L 257.5 390.0 L 300.0 390.0"><title>ACTransformer-tr-10-11 -> bus-11</title></path>
<path id="ACTransformer-tr-10-12-i" class="edge" d="M 90.0 450.0 L 132.5 450.0 L 132.5 480.0 L 195.0 480.0"><title>bus-10 -> ACTransformer-tr-10-12</title></path>
<path id="ACTransformer-tr-10-12-j" class="edge" d="M 195.0 480.0 L 267.5 480.0 L 267.5 510.0 L 300.0 510.0"><title>ACTransformer-tr-10-12 -> bus-12</title></path>
<path id="conn-ACGenerator-gen-1-1-1" class="edge" d="M 447.0 312.0 L 478.5 312.0 L 478.5 390.0 L 510.0 390.0"><title>ACGenerator-gen-1-1 -> bus-1</title></path>
<path id="conn-ACGenerator-gen-1-2-1" class="edge" d="M 489.0 312.0 L 509.5 312.0 L 509.5 390.0 L 510.0 390.0"><title>ACGenerator-gen-1-2 -> bus-1</title></path>
<path id="conn-ACGenerator-gen-1-3-1" class="edge" d="M 531.0 312.0 L 500.5 312.0 L 500.5 390.0 L 510.0 390.0"><title>ACGenerator-gen-1-3 -> bus-1</title></path>
<path id="conn-ACGenerator-gen-1-4-1" class="edge" d="M 573.0 312.0 L 531.5 312.0 L 531.5 390.0 L 510.0 390.0"><title>ACGenerator-gen-1-4 -> bus-1</title></path>
<path id="conn-ACGenerator-gen-2-5-2" class="edge" d="M 447.0 552.0 L 498.5 552.0 L 498.5 630.0 L 510.0 630.0"><title>ACGenerator-gen-2-5 -> bus-2</title></path>
<path id="conn-ACGenerator-gen-2-6-2" class="edge" d="M 489.0 552.0 L 479.5 552.0 L 479.5 630.0 L 510.0 630.0"><title>ACGenerator-gen-2-6 -> bus-2</title></path>
<path id="conn-ACGenerator-gen-2-7-2" class="edge" d="M 531.0 552.0 L 520.5 552.0 L 520.5 630.0 L 510.0 630.0"><title>ACGenerator-gen-2-7 -> bus-2</title></path>
<path id="conn-ACGenerator-gen-2-8-2" class="edge" d="M 573.0 552.0 L 551.5 552.0 L 551.5 630.0 L 510.0 630.0"><title>ACGenerator-gen-2-8 -> bus-2</title></path>
<path id="conn-ACGenerator-gen-7-9-7" class="edge" d="M 552.0 792.0 L 551.0 792.0 L 551.0 870.0 L 510.0 870.0"><title>ACGenerator-gen-7-9 -> bus-7</title></path>
<path id="conn-ACGenerator-gen-7-10-7" class="edge" d="M 468.0 792.0 L 479.0 792.0 L 479.0 870.0 L 510.0 870.0"><title>ACGenerator-gen-7-10 -> bus-7</title></path>
<path id="conn-ACGenerator-gen-7-11-7" class="edge" d="M 510.0 792.0 L 580.0 792.0 L 580.0 870.0 L 510.0 870.0"><title>ACGenerator-gen-7-11 -> bus-7</title></path>
<path id="conn-ACGenerator-gen-13-12-13" class="edge" d="M 468.0 672.0 L 489.0 672.0 L 489.0 750.0 L 510.0 750.0"><title>ACGenerator-gen-13-12 -> bus-13</title></path>
<path id="conn-ACGenerator-gen-13-13-13" class="edge" d="M 510.0 672.0 L 580.0 672.0 L 580.0 750.0 L 510.0 750.0"><title>ACGenerator-gen-13-13 -> bus-13</title></path>
<path id="conn-ACGenerator-gen-13-14-13" class="edge" d="M 552.0 672.0 L 511.0 672.0 L 511.0 750.0 L 510.0 750.0"><title>ACGenerator-gen-13-14 -> bus-13</title></path>
<path id="conn-ACGenerator-gen-14-15-14" class="edge" d="M 510.0 72.0 L 580.0 72.0 L 580.0 150.0 L 510.0 150.0"><title>ACGenerator-gen-14-15 -> bus-14</title></path>
<path id="conn-ACGenerator-gen-15-16-15" class="edge" d="M 825.0 252.0 L 867.5 252.0 L 867.5 330.0 L 930.0 330.0"><title>ACGenerator-gen-15-16 -> bus-15</title></path>
<path id="conn-ACGenerator-gen-15-17-15" class="edge" d="M 867.0 252.0 L 898.5 252.0 L 898.5 330.0 L 930.0 330.0"><title>ACGenerator-gen-15-17 -> bus-15</title></path>
<path id="conn-ACGenerator-gen-15-18-15" class="edge" d="M 909.0 252.0 L 929.5 252.0 L 929.5 330.0 L 930.0 330.0"><title>ACGenerator-gen-15-18 -> bus-15</title></path>
<path id="conn-ACGenerator-gen-15-19-15" class="edge" d="M 951.0 252.0 L 920.5 252.0 L 920.5 330.0 L 930.0 330.0"><title>ACGenerator-gen-15-19 -> bus-15</title></path>
<path id="conn-ACGenerator-gen-15-20-15" class="edge" d="M 993.0 252.0 L 951.5 252.0 L 951.5 330.0 L 930.0 330.0"><title>ACGenerator-gen-15-20 -> bus-15</title></path>
<path id="conn-ACGenerator-gen-15-21-15" class="edge" d="M 1035.0 252.0 L 982.5 252.0 L 982.5 330.0 L 930.0 330.0"><title>ACGenerator-gen-15-21 -> bus-15</title></path>
<path id="conn-ACGenerator-gen-16-22-16" class="edge" d="M 720.0 252.0 L 790.0 252.0 L 790.0 330.0 L 720.0 330.0"><title>ACGenerator-gen-16-22 -> bus-16</title></path>
<path id="conn-ACGenerator-gen-18-23-18" class="edge" d="M 1140.0 432.0 L 1210.0 432.0 L 1210.0 510.0 L 1140.0 510.0"><title>ACGenerator-gen-18-23 -> bus-18</title></path>
<path id="conn-ACGenerator-gen-21-24-21" class="edge" d="M 1140.0 312.0 L 1210.0 312.0 L 1210.0 390.0 L 1140.0 390.0"><title>ACGenerator-gen-21-24 -> bus-21</title></path>
<path id="conn-ACGenerator-gen-22-25-22" class="edge" d="M 1035.0 552.0 L 1067.5 552.0 L 1067.5 630.0 L 1140.0 630.0"><title>ACGenerator-gen-22-25 -> bus-22</title></path>
<path id="conn-ACGenerator-gen-22-26-22" class="edge" d="M 1077.0 552.0 L 1098.5 552.0 L 1098.5 630.0 L 1140.0 630.0"><title>ACGenerator-gen-22-26 -> bus-22</title></path>
<path id="conn-ACGenerator-gen-22-27-22" class="edge" d="M 1119.0 552.0 L 1129.5 552.0 L 1129.5 630.0 L 1140.0 630.0"><title>ACGenerator-gen-22-27 -> bus-22</title></path>
<path id="conn-ACGenerator-gen-22-28-22" class="edge" d="M 1161.0 552.0 L 1130.5 552.0 L 1130.5 630.0 L 1140.0 630.0"><title>ACGenerator-gen-22-28 -> bus-22</title></path>
<path id="conn-ACGenerator-gen-22-29-22" class="edge" d="M 1203.0 552.0 L 1161.5 552.0 L 1161.5 630.0 L 1140.0 630.0"><title>ACGenerator-gen-22-29 -> bus-22</title></path>
<path id="conn-ACGenerator-gen-22-30-22" class="edge" d="M 1245.0 552.0 L 1192.5 552.0 L 1192.5 630.0 L 1140.0 630.0"><title>ACGenerator-gen-22-30 -> bus-22</title></path>
<path id="conn-ACGenerator-gen-23-31-23" class="edge" d="M 468.0 192.0 L 499.0 192.0 L 499.0 270.0 L 510.0 270.0"><title>ACGenerator-gen-23-31 -> bus-23</title></path>
<path id="conn-ACGenerator-gen-23-32-23" class="edge" d="M 510.0 192.0 L 580.0 192.0 L 580.0 270.0 L 510.0 270.0"><title>ACGenerator-gen-23-32 -> bus-23</title></path>
<path id="conn-ACGenerator-gen-23-33-23" class="edge" d="M 552.0 192.0 L 521.0 192.0 L 521.0 270.0 L 510.0 270.0"><title>ACGenerator-gen-23-33 -> bus-23</title></path>
<path id="conn-ACLoad-load-1-1" class="edge" d="M 510.0 472.0 L 604.0 472.0 L 604.0 390.0 L 510.0 390.0"><title>ACLoad-load-1 -> bus-1</title></path>
<path id="conn-ACLoad-load-2-2" class="edge" d="M 510.0 712.0 L 580.0 712.0 L 580.0 630.0 L 510.0 630.0"><title>ACLoad-load-2 -> bus-2</title></path>
<path id="conn-ACLoad-load-3-3" class="edge" d="M 720.0 652.0 L 790.0 652.0 L 790.0 570.0 L 720.0 570.0"><title>ACLoad-load-3 -> bus-3</title></path>
<path id="conn-ACLoad-load-4-4" class="edge" d="M 720.0 772.0 L 790.0 772.0 L 790.0 690.0 L 720.0 690.0"><title>ACLoad-load-4 -> bus-4</title></path>
<path id="conn-ACLoad-load-5-5" class="edge" d="M 300.0 352.0 L 370.0 352.0 L 370.0 270.0 L 300.0 270.0"><title>ACLoad-load-5 -> bus-5</title></path>
<path id="conn-ACLoad-load-6-6" class="edge" d="M 321.0 712.0 L 310.5 712.0 L 310.5 630.0 L 300.0 630.0"><title>ACLoad-load-6 -> bus-6</title></path>
<path id="conn-ACLoad-load-7-7" class="edge" d="M 510.0 952.0 L 580.0 952.0 L 580.0 870.0 L 510.0 870.0"><title>ACLoad-load-7 -> bus-7</title></path>
<path id="conn-ACLoad-load-8-8" class="edge" d="M 300.0 832.0 L 370.0 832.0 L 370.0 750.0 L 300.0 750.0"><title>ACLoad-load-8 -> bus-8</title></path>
<path id="conn-ACLoad-load-9-9" class="edge" d="M 510.0 592.0 L 580.0 592.0 L 580.0 510.0 L 510.0 510.0"><title>ACLoad-load-9 -> bus-9</title></path>
<path id="conn-ACLoad-load-10-10" class="edge" d="M 90.0 532.0 L 160.0 532.0 L 160.0 450.0 L 90.0 450.0"><title>ACLoad-load-10 -> bus-10</title></path>
<path id="conn-ACLoad-load-13-13" class="edge" d="M 510.0 832.0 L 580.0 832.0 L 580.0 750.0 L 510.0 750.0"><title>ACLoad-load-13 -> bus-13</title></path>
<path id="conn-ACLoad-load-14-14" class="edge" d="M 510.0 232.0 L 580.0 232.0 L 580.0 150.0 L 510.0 150.0"><title>ACLoad-load-14 -> bus-14</title></path>
<path id="conn-ACLoad-load-15-15" class="edge" d="M 930.0 412.0 L 1024.0 412.0 L 1024.0 330.0 L 930.0 330.0"><title>ACLoad-load-15 -> bus-15</title></path>
<path id="conn-ACLoad-load-16-16" class="edge" d="M 720.0 412.0 L 790.0 412.0 L 790.0 330.0 L 720.0 330.0"><title>ACLoad-load-16 -> bus-16</title></path>
<path id="conn-ACLoad-load-18-18" class="edge" d="M 1140.0 592.0 L 1210.0 592.0 L 1210.0 510.0 L 1140.0 510.0"><title>ACLoad-load-18 -> bus-18</title></path>
<path id="conn-ACLoad-load-19-19" class="edge" d="M 930.0 652.0 L 1000.0 652.0 L 1000.0 570.0 L 930.0 570.0"><title>ACLoad-load-19 -> bus-19</title></path>
<path id="conn-ACLoad-load-20-20" class="edge" d="M 720.0 532.0 L 790.0 532.0 L 790.0 450.0 L 720.0 450.0"><title>ACLoad-load-20 -> bus-20</title></path>
<path id="conn-ACShuntCompensator-shunt-6-6" class="edge" d="M 279.0 712.0 L 269.5 712.0 L 269.5 630.0 L 300.0 630.0"><title>ACShuntCompensator-shunt-6 -> bus-6</title></path>
</g>
<g id="nodes">
<g id="bus-1" class="node node-bus"><title>bus-1 / ac-bus</title><line x1="464.0" y1="390.0" x2="556.0" y2="390.0" class="node-bus"/><text x="510.0" y="438.0" text-anchor="middle">bus_1</text></g>
<g id="bus-2" class="node node-bus"><title>bus-2 / ac-bus</title><line x1="464.0" y1="630.0" x2="556.0" y2="630.0" class="node-bus"/><text x="510.0" y="678.0" text-anchor="middle">bus_2</text></g>
<g id="bus-3" class="node node-bus"><title>bus-3 / ac-bus</title><line x1="674.0" y1="570.0" x2="766.0" y2="570.0" class="node-bus"/><text x="720.0" y="618.0" text-anchor="middle">bus_3</text></g>
<g id="bus-4" class="node node-bus"><title>bus-4 / ac-bus</title><line x1="674.0" y1="690.0" x2="766.0" y2="690.0" class="node-bus"/><text x="720.0" y="738.0" text-anchor="middle">bus_4</text></g>
<g id="bus-5" class="node node-bus"><title>bus-5 / ac-bus</title><line x1="254.0" y1="270.0" x2="346.0" y2="270.0" class="node-bus"/><text x="300.0" y="318.0" text-anchor="middle">bus_5</text></g>
<g id="bus-6" class="node node-bus"><title>bus-6 / ac-bus</title><line x1="254.0" y1="630.0" x2="346.0" y2="630.0" class="node-bus"/><text x="300.0" y="678.0" text-anchor="middle">bus_6</text></g>
<g id="bus-7" class="node node-bus"><title>bus-7 / ac-bus</title><line x1="464.0" y1="870.0" x2="556.0" y2="870.0" class="node-bus"/><text x="510.0" y="918.0" text-anchor="middle">bus_7</text></g>
<g id="bus-8" class="node node-bus"><title>bus-8 / ac-bus</title><line x1="254.0" y1="750.0" x2="346.0" y2="750.0" class="node-bus"/><text x="300.0" y="798.0" text-anchor="middle">bus_8</text></g>
<g id="bus-9" class="node node-bus"><title>bus-9 / ac-bus</title><line x1="464.0" y1="510.0" x2="556.0" y2="510.0" class="node-bus"/><text x="510.0" y="558.0" text-anchor="middle">bus_9</text></g>
<g id="bus-10" class="node node-bus"><title>bus-10 / ac-bus</title><line x1="44.0" y1="450.0" x2="136.0" y2="450.0" class="node-bus"/><text x="90.0" y="498.0" text-anchor="middle">bus_10</text></g>
<g id="bus-11" class="node node-bus"><title>bus-11 / ac-bus</title><line x1="254.0" y1="390.0" x2="346.0" y2="390.0" class="node-bus"/><text x="300.0" y="438.0" text-anchor="middle">bus_11</text></g>
<g id="bus-12" class="node node-bus"><title>bus-12 / ac-bus</title><line x1="254.0" y1="510.0" x2="346.0" y2="510.0" class="node-bus"/><text x="300.0" y="558.0" text-anchor="middle">bus_12</text></g>
<g id="bus-13" class="node node-bus"><title>bus-13 / ac-bus</title><line x1="464.0" y1="750.0" x2="556.0" y2="750.0" class="node-bus"/><text x="510.0" y="798.0" text-anchor="middle">bus_13</text></g>
<g id="bus-14" class="node node-bus"><title>bus-14 / ac-bus</title><line x1="464.0" y1="150.0" x2="556.0" y2="150.0" class="node-bus"/><text x="510.0" y="198.0" text-anchor="middle">bus_14</text></g>
<g id="bus-15" class="node node-bus"><title>bus-15 / ac-bus</title><line x1="884.0" y1="330.0" x2="976.0" y2="330.0" class="node-bus"/><text x="930.0" y="378.0" text-anchor="middle">bus_15</text></g>
<g id="bus-16" class="node node-bus"><title>bus-16 / ac-bus</title><line x1="674.0" y1="330.0" x2="766.0" y2="330.0" class="node-bus"/><text x="720.0" y="378.0" text-anchor="middle">bus_16</text></g>
<g id="bus-17" class="node node-bus"><title>bus-17 / ac-bus</title><line x1="884.0" y1="450.0" x2="976.0" y2="450.0" class="node-bus"/><text x="930.0" y="498.0" text-anchor="middle">bus_17</text></g>
<g id="bus-18" class="node node-bus"><title>bus-18 / ac-bus</title><line x1="1094.0" y1="510.0" x2="1186.0" y2="510.0" class="node-bus"/><text x="1140.0" y="558.0" text-anchor="middle">bus_18</text></g>
<g id="bus-19" class="node node-bus"><title>bus-19 / ac-bus</title><line x1="884.0" y1="570.0" x2="976.0" y2="570.0" class="node-bus"/><text x="930.0" y="618.0" text-anchor="middle">bus_19</text></g>
<g id="bus-20" class="node node-bus"><title>bus-20 / ac-bus</title><line x1="674.0" y1="450.0" x2="766.0" y2="450.0" class="node-bus"/><text x="720.0" y="498.0" text-anchor="middle">bus_20</text></g>
<g id="bus-21" class="node node-bus"><title>bus-21 / ac-bus</title><line x1="1094.0" y1="390.0" x2="1186.0" y2="390.0" class="node-bus"/><text x="1140.0" y="438.0" text-anchor="middle">bus_21</text></g>
<g id="bus-22" class="node node-bus"><title>bus-22 / ac-bus</title><line x1="1094.0" y1="630.0" x2="1186.0" y2="630.0" class="node-bus"/><text x="1140.0" y="678.0" text-anchor="middle">bus_22</text></g>
<g id="bus-23" class="node node-bus"><title>bus-23 / ac-bus</title><line x1="464.0" y1="270.0" x2="556.0" y2="270.0" class="node-bus"/><text x="510.0" y="318.0" text-anchor="middle">bus_23</text></g>
<g id="bus-24" class="node node-bus"><title>bus-24 / ac-bus</title><line x1="884.0" y1="690.0" x2="976.0" y2="690.0" class="node-bus"/><text x="930.0" y="738.0" text-anchor="middle">bus_24</text></g>
<g id="ACTransformer-tr-3-24" class="node node-transformer"><title>ACTransformer-tr-3-24 / ac-transformer</title><circle cx="812.0" cy="630.0" r="18" class="node-fill"/><circle cx="838.0" cy="630.0" r="18" class="node-fill"/><text x="825.0" y="678.0" text-anchor="middle">tr_3_24</text></g>
<g id="ACTransformer-tr-9-11" class="node node-transformer"><title>ACTransformer-tr-9-11 / ac-transformer</title><circle cx="392.0" cy="450.0" r="18" class="node-fill"/><circle cx="418.0" cy="450.0" r="18" class="node-fill"/><text x="405.0" y="498.0" text-anchor="middle">tr_9_11</text></g>
<g id="ACTransformer-tr-9-12" class="node node-transformer"><title>ACTransformer-tr-9-12 / ac-transformer</title><circle cx="392.0" cy="510.0" r="18" class="node-fill"/><circle cx="418.0" cy="510.0" r="18" class="node-fill"/><text x="405.0" y="558.0" text-anchor="middle">tr_9_12</text></g>
<g id="ACTransformer-tr-10-11" class="node node-transformer"><title>ACTransformer-tr-10-11 / ac-transformer</title><circle cx="182.0" cy="420.0" r="18" class="node-fill"/><circle cx="208.0" cy="420.0" r="18" class="node-fill"/><text x="195.0" y="468.0" text-anchor="middle">tr_10_11</text></g>
<g id="ACTransformer-tr-10-12" class="node node-transformer"><title>ACTransformer-tr-10-12 / ac-transformer</title><circle cx="182.0" cy="480.0" r="18" class="node-fill"/><circle cx="208.0" cy="480.0" r="18" class="node-fill"/><text x="195.0" y="528.0" text-anchor="middle">tr_10_12</text></g>
<g id="ACGenerator-gen-1-1" class="node node-source"><title>ACGenerator-gen-1-1 / ac-source</title><circle cx="447.0" cy="312.0" r="26" class="node-fill"/><text x="447.0" y="360.0" text-anchor="middle">gen_1_1</text></g>
<g id="ACGenerator-gen-1-2" class="node node-source"><title>ACGenerator-gen-1-2 / ac-source</title><circle cx="489.0" cy="312.0" r="26" class="node-fill"/><text x="489.0" y="360.0" text-anchor="middle">gen_1_2</text></g>
<g id="ACGenerator-gen-1-3" class="node node-source"><title>ACGenerator-gen-1-3 / ac-source</title><circle cx="531.0" cy="312.0" r="26" class="node-fill"/><text x="531.0" y="360.0" text-anchor="middle">gen_1_3</text></g>
<g id="ACGenerator-gen-1-4" class="node node-source"><title>ACGenerator-gen-1-4 / ac-source</title><circle cx="573.0" cy="312.0" r="26" class="node-fill"/><text x="573.0" y="360.0" text-anchor="middle">gen_1_4</text></g>
<g id="ACGenerator-gen-2-5" class="node node-source"><title>ACGenerator-gen-2-5 / ac-source</title><circle cx="447.0" cy="552.0" r="26" class="node-fill"/><text x="447.0" y="600.0" text-anchor="middle">gen_2_5</text></g>
<g id="ACGenerator-gen-2-6" class="node node-source"><title>ACGenerator-gen-2-6 / ac-source</title><circle cx="489.0" cy="552.0" r="26" class="node-fill"/><text x="489.0" y="600.0" text-anchor="middle">gen_2_6</text></g>
<g id="ACGenerator-gen-2-7" class="node node-source"><title>ACGenerator-gen-2-7 / ac-source</title><circle cx="531.0" cy="552.0" r="26" class="node-fill"/><text x="531.0" y="600.0" text-anchor="middle">gen_2_7</text></g>
<g id="ACGenerator-gen-2-8" class="node node-source"><title>ACGenerator-gen-2-8 / ac-source</title><circle cx="573.0" cy="552.0" r="26" class="node-fill"/><text x="573.0" y="600.0" text-anchor="middle">gen_2_8</text></g>
<g id="ACGenerator-gen-7-9" class="node node-source"><title>ACGenerator-gen-7-9 / ac-source</title><circle cx="552.0" cy="792.0" r="26" class="node-fill"/><text x="552.0" y="840.0" text-anchor="middle">gen_7_9</text></g>
<g id="ACGenerator-gen-7-10" class="node node-source"><title>ACGenerator-gen-7-10 / ac-source</title><circle cx="468.0" cy="792.0" r="26" class="node-fill"/><text x="468.0" y="840.0" text-anchor="middle">gen_7_10</text></g>
<g id="ACGenerator-gen-7-11" class="node node-source"><title>ACGenerator-gen-7-11 / ac-source</title><circle cx="510.0" cy="792.0" r="26" class="node-fill"/><text x="510.0" y="840.0" text-anchor="middle">gen_7_11</text></g>
<g id="ACGenerator-gen-13-12" class="node node-source"><title>ACGenerator-gen-13-12 / ac-source</title><circle cx="468.0" cy="672.0" r="26" class="node-fill"/><text x="468.0" y="720.0" text-anchor="middle">gen_13_12</text></g>
<g id="ACGenerator-gen-13-13" class="node node-source"><title>ACGenerator-gen-13-13 / ac-source</title><circle cx="510.0" cy="672.0" r="26" class="node-fill"/><text x="510.0" y="720.0" text-anchor="middle">gen_13_13</text></g>
<g id="ACGenerator-gen-13-14" class="node node-source"><title>ACGenerator-gen-13-14 / ac-source</title><circle cx="552.0" cy="672.0" r="26" class="node-fill"/><text x="552.0" y="720.0" text-anchor="middle">gen_13_14</text></g>
<g id="ACGenerator-gen-14-15" class="node node-source"><title>ACGenerator-gen-14-15 / ac-source</title><circle cx="510.0" cy="72.0" r="26" class="node-fill"/><text x="510.0" y="120.0" text-anchor="middle">gen_14_15</text></g>
<g id="ACGenerator-gen-15-16" class="node node-source"><title>ACGenerator-gen-15-16 / ac-source</title><circle cx="825.0" cy="252.0" r="26" class="node-fill"/><text x="825.0" y="300.0" text-anchor="middle">gen_15_16</text></g>
<g id="ACGenerator-gen-15-17" class="node node-source"><title>ACGenerator-gen-15-17 / ac-source</title><circle cx="867.0" cy="252.0" r="26" class="node-fill"/><text x="867.0" y="300.0" text-anchor="middle">gen_15_17</text></g>
<g id="ACGenerator-gen-15-18" class="node node-source"><title>ACGenerator-gen-15-18 / ac-source</title><circle cx="909.0" cy="252.0" r="26" class="node-fill"/><text x="909.0" y="300.0" text-anchor="middle">gen_15_18</text></g>
<g id="ACGenerator-gen-15-19" class="node node-source"><title>ACGenerator-gen-15-19 / ac-source</title><circle cx="951.0" cy="252.0" r="26" class="node-fill"/><text x="951.0" y="300.0" text-anchor="middle">gen_15_19</text></g>
<g id="ACGenerator-gen-15-20" class="node node-source"><title>ACGenerator-gen-15-20 / ac-source</title><circle cx="993.0" cy="252.0" r="26" class="node-fill"/><text x="993.0" y="300.0" text-anchor="middle">gen_15_20</text></g>
<g id="ACGenerator-gen-15-21" class="node node-source"><title>ACGenerator-gen-15-21 / ac-source</title><circle cx="1035.0" cy="252.0" r="26" class="node-fill"/><text x="1035.0" y="300.0" text-anchor="middle">gen_15_21</text></g>
<g id="ACGenerator-gen-16-22" class="node node-source"><title>ACGenerator-gen-16-22 / ac-source</title><circle cx="720.0" cy="252.0" r="26" class="node-fill"/><text x="720.0" y="300.0" text-anchor="middle">gen_16_22</text></g>
<g id="ACGenerator-gen-18-23" class="node node-source"><title>ACGenerator-gen-18-23 / ac-source</title><circle cx="1140.0" cy="432.0" r="26" class="node-fill"/><text x="1140.0" y="480.0" text-anchor="middle">gen_18_23</text></g>
<g id="ACGenerator-gen-21-24" class="node node-source"><title>ACGenerator-gen-21-24 / ac-source</title><circle cx="1140.0" cy="312.0" r="26" class="node-fill"/><text x="1140.0" y="360.0" text-anchor="middle">gen_21_24</text></g>
<g id="ACGenerator-gen-22-25" class="node node-source"><title>ACGenerator-gen-22-25 / ac-source</title><circle cx="1035.0" cy="552.0" r="26" class="node-fill"/><text x="1035.0" y="600.0" text-anchor="middle">gen_22_25</text></g>
<g id="ACGenerator-gen-22-26" class="node node-source"><title>ACGenerator-gen-22-26 / ac-source</title><circle cx="1077.0" cy="552.0" r="26" class="node-fill"/><text x="1077.0" y="600.0" text-anchor="middle">gen_22_26</text></g>
<g id="ACGenerator-gen-22-27" class="node node-source"><title>ACGenerator-gen-22-27 / ac-source</title><circle cx="1119.0" cy="552.0" r="26" class="node-fill"/><text x="1119.0" y="600.0" text-anchor="middle">gen_22_27</text></g>
<g id="ACGenerator-gen-22-28" class="node node-source"><title>ACGenerator-gen-22-28 / ac-source</title><circle cx="1161.0" cy="552.0" r="26" class="node-fill"/><text x="1161.0" y="600.0" text-anchor="middle">gen_22_28</text></g>
<g id="ACGenerator-gen-22-29" class="node node-source"><title>ACGenerator-gen-22-29 / ac-source</title><circle cx="1203.0" cy="552.0" r="26" class="node-fill"/><text x="1203.0" y="600.0" text-anchor="middle">gen_22_29</text></g>
<g id="ACGenerator-gen-22-30" class="node node-source"><title>ACGenerator-gen-22-30 / ac-source</title><circle cx="1245.0" cy="552.0" r="26" class="node-fill"/><text x="1245.0" y="600.0" text-anchor="middle">gen_22_30</text></g>
<g id="ACGenerator-gen-23-31" class="node node-source"><title>ACGenerator-gen-23-31 / ac-source</title><circle cx="468.0" cy="192.0" r="26" class="node-fill"/><text x="468.0" y="240.0" text-anchor="middle">gen_23_31</text></g>
<g id="ACGenerator-gen-23-32" class="node node-source"><title>ACGenerator-gen-23-32 / ac-source</title><circle cx="510.0" cy="192.0" r="26" class="node-fill"/><text x="510.0" y="240.0" text-anchor="middle">gen_23_32</text></g>
<g id="ACGenerator-gen-23-33" class="node node-source"><title>ACGenerator-gen-23-33 / ac-source</title><circle cx="552.0" cy="192.0" r="26" class="node-fill"/><text x="552.0" y="240.0" text-anchor="middle">gen_23_33</text></g>
<g id="ACLoad-load-1" class="node node-load"><title>ACLoad-load-1 / ac-load</title><path d="M 484.0 450.0 L 536.0 450.0 L 510.0 498.0 Z" class="node-fill"/><text x="510.0" y="520.0" text-anchor="middle">load_1</text></g>
<g id="ACLoad-load-2" class="node node-load"><title>ACLoad-load-2 / ac-load</title><path d="M 484.0 690.0 L 536.0 690.0 L 510.0 738.0 Z" class="node-fill"/><text x="510.0" y="760.0" text-anchor="middle">load_2</text></g>
<g id="ACLoad-load-3" class="node node-load"><title>ACLoad-load-3 / ac-load</title><path d="M 694.0 630.0 L 746.0 630.0 L 720.0 678.0 Z" class="node-fill"/><text x="720.0" y="700.0" text-anchor="middle">load_3</text></g>
<g id="ACLoad-load-4" class="node node-load"><title>ACLoad-load-4 / ac-load</title><path d="M 694.0 750.0 L 746.0 750.0 L 720.0 798.0 Z" class="node-fill"/><text x="720.0" y="820.0" text-anchor="middle">load_4</text></g>
<g id="ACLoad-load-5" class="node node-load"><title>ACLoad-load-5 / ac-load</title><path d="M 274.0 330.0 L 326.0 330.0 L 300.0 378.0 Z" class="node-fill"/><text x="300.0" y="400.0" text-anchor="middle">load_5</text></g>
<g id="ACLoad-load-6" class="node node-load"><title>ACLoad-load-6 / ac-load</title><path d="M 295.0 690.0 L 347.0 690.0 L 321.0 738.0 Z" class="node-fill"/><text x="321.0" y="760.0" text-anchor="middle">load_6</text></g>
<g id="ACLoad-load-7" class="node node-load"><title>ACLoad-load-7 / ac-load</title><path d="M 484.0 930.0 L 536.0 930.0 L 510.0 978.0 Z" class="node-fill"/><text x="510.0" y="1000.0" text-anchor="middle">load_7</text></g>
<g id="ACLoad-load-8" class="node node-load"><title>ACLoad-load-8 / ac-load</title><path d="M 274.0 810.0 L 326.0 810.0 L 300.0 858.0 Z" class="node-fill"/><text x="300.0" y="880.0" text-anchor="middle">load_8</text></g>
<g id="ACLoad-load-9" class="node node-load"><title>ACLoad-load-9 / ac-load</title><path d="M 484.0 570.0 L 536.0 570.0 L 510.0 618.0 Z" class="node-fill"/><text x="510.0" y="640.0" text-anchor="middle">load_9</text></g>
<g id="ACLoad-load-10" class="node node-load"><title>ACLoad-load-10 / ac-load</title><path d="M 64.0 510.0 L 116.0 510.0 L 90.0 558.0 Z" class="node-fill"/><text x="90.0" y="580.0" text-anchor="middle">load_10</text></g>
<g id="ACLoad-load-13" class="node node-load"><title>ACLoad-load-13 / ac-load</title><path d="M 484.0 810.0 L 536.0 810.0 L 510.0 858.0 Z" class="node-fill"/><text x="510.0" y="880.0" text-anchor="middle">load_13</text></g>
<g id="ACLoad-load-14" class="node node-load"><title>ACLoad-load-14 / ac-load</title><path d="M 484.0 210.0 L 536.0 210.0 L 510.0 258.0 Z" class="node-fill"/><text x="510.0" y="280.0" text-anchor="middle">load_14</text></g>
<g id="ACLoad-load-15" class="node node-load"><title>ACLoad-load-15 / ac-load</title><path d="M 904.0 390.0 L 956.0 390.0 L 930.0 438.0 Z" class="node-fill"/><text x="930.0" y="460.0" text-anchor="middle">load_15</text></g>
<g id="ACLoad-load-16" class="node node-load"><title>ACLoad-load-16 / ac-load</title><path d="M 694.0 390.0 L 746.0 390.0 L 720.0 438.0 Z" class="node-fill"/><text x="720.0" y="460.0" text-anchor="middle">load_16</text></g>
<g id="ACLoad-load-18" class="node node-load"><title>ACLoad-load-18 / ac-load</title><path d="M 1114.0 570.0 L 1166.0 570.0 L 1140.0 618.0 Z" class="node-fill"/><text x="1140.0" y="640.0" text-anchor="middle">load_18</text></g>
<g id="ACLoad-load-19" class="node node-load"><title>ACLoad-load-19 / ac-load</title><path d="M 904.0 630.0 L 956.0 630.0 L 930.0 678.0 Z" class="node-fill"/><text x="930.0" y="700.0" text-anchor="middle">load_19</text></g>
<g id="ACLoad-load-20" class="node node-load"><title>ACLoad-load-20 / ac-load</title><path d="M 694.0 510.0 L 746.0 510.0 L 720.0 558.0 Z" class="node-fill"/><text x="720.0" y="580.0" text-anchor="middle">load_20</text></g>
<g id="ACShuntCompensator-shunt-6" class="node node-device"><title>ACShuntCompensator-shunt-6 / ac-shunt</title><path d="M 279.0 688.0 L 279.0 736.0 M 261.0 736.0 L 297.0 736.0" class="node-fill"/><text x="279.0" y="760.0" text-anchor="middle">shunt_6</text></g>
</g>
</svg>
