<svg xmlns="http://www.w3.org/2000/svg" width="1736" height="1550" viewBox="0 0 1736 1550">
<style>
  svg { background: #f8fafc; font-family: Arial, "Microsoft YaHei", sans-serif; }
  .edge { fill: none; stroke: #334155; stroke-width: 2.4; stroke-linecap: round; stroke-linejoin: round; }
  .node-fill { fill: #ffffff; stroke: #0f172a; stroke-width: 2; }
  .node-bus { stroke: #0f172a; stroke-width: 6; stroke-linecap: square; }
  .node-source .node-fill { fill: #eff6ff; stroke: #2563eb; }
  .node-transformer .node-fill { fill: #fff7ed; stroke: #ea580c; }
  .node-switch .node-fill { fill: #f8fafc; stroke: #475569; }
  .node-load .node-fill { fill: #fef2f2; stroke: #dc2626; }
  .node-device .node-fill { fill: #f8fafc; stroke: #64748b; }
  text { fill: #1e293b; font-size: 13px; }
</style>
<g id="edges">
<path id="ACBranch-line-1-2" class="edge" d="M 812.0 360.0 L 812.0 418.0 L 352.0 418.0 L 352.0 480.0"><title>bus-1 -> bus-2</title></path>
<path id="ACBranch-line-1-3" class="edge" d="M 812.0 360.0 L 812.0 518.0 L 562.0 518.0 L 562.0 596.0"><title>bus-1 -> bus-3</title></path>
<path id="ACBranch-line-2-4" class="edge" d="M 352.0 480.0 L 352.0 398.0 L 460.0 398.0 L 460.0 360.0"><title>bus-2 -> bus-4</title></path>
<path id="ACBranch-line-3-4" class="edge" d="M 562.0 596.0 L 562.0 418.0 L 460.0 418.0 L 460.0 360.0"><title>bus-3 -> bus-4</title></path>
<path id="ACBranch-line-2-5" class="edge" d="M 352.0 480.0 L 352.0 518.0 L 694.0 518.0 L 694.0 596.0"><title>bus-2 -> bus-5</title></path>
<path id="ACBranch-line-2-6" class="edge" d="M 352.0 480.0 L 328.0 480.0 L 328.0 360.0"><title>bus-2 -> bus-6</title></path>
<path id="ACBranch-line-4-6" class="edge" d="M 460.0 360.0 L 328.0 360.0"><title>bus-4 -> bus-6</title></path>
<path id="ACBranch-line-5-7" class="edge" d="M 694.0 596.0 L 694.0 518.0 L 484.0 518.0 L 484.0 480.0"><title>bus-5 -> bus-7</title></path>
<path id="ACBranch-line-6-7" class="edge" d="M 328.0 360.0 L 328.0 418.0 L 484.0 418.0 L 484.0 480.0"><title>bus-6 -> bus-7</title></path>
<path id="ACBranch-line-6-8" class="edge" d="M 328.0 360.0 L 328.0 596.0 L 406.0 596.0"><title>bus-6 -> bus-8</title></path>
<path id="ACBranch-line-6-9" class="edge" d="M 328.0 360.0 L 328.0 398.0 L 592.0 398.0 L 592.0 360.0"><title>bus-6 -> bus-9</title></path>
<path id="ACBranch-line-6-10" class="edge" d="M 328.0 360.0 L 384.0 360.0 L 384.0 240.0 L 416.0 240.0"><title>bus-6 -> bus-10</title></path>
<path id="ACBranch-line-9-11" class="edge" d="M 592.0 360.0 L 592.0 418.0 L 616.0 418.0 L 616.0 480.0"><title>bus-9 -> bus-11</title></path>
<path id="ACBranch-line-9-10" class="edge" d="M 592.0 360.0 L 592.0 272.0 L 416.0 272.0 L 416.0 240.0"><title>bus-9 -> bus-10</title></path>
<path id="ACBranch-line-4-12" class="edge" d="M 460.0 360.0 L 460.0 297.0 L 680.0 297.0 L 680.0 240.0"><title>bus-4 -> bus-12</title></path>
<path id="ACBranch-line-12-13" class="edge" d="M 680.0 240.0 L 680.0 297.0 L 1076.0 297.0 L 1076.0 360.0"><title>bus-12 -> bus-13</title></path>
<path id="ACBranch-line-12-14" class="edge" d="M 680.0 240.0 L 680.0 332.0 L 880.0 332.0 L 880.0 480.0"><title>bus-12 -> bus-14</title></path>
<path id="ACBranch-line-12-15" class="edge" d="M 680.0 240.0 L 680.0 214.0 L 944.0 214.0 L 944.0 240.0"><title>bus-12 -> bus-15</title></path>
<path id="ACBranch-line-12-16" class="edge" d="M 680.0 240.0 L 680.0 302.0 L 1012.0 302.0 L 1012.0 480.0"><title>bus-12 -> bus-16</title></path>
<path id="ACBranch-line-14-15" class="edge" d="M 880.0 480.0 L 880.0 302.0 L 944.0 302.0 L 944.0 240.0"><title>bus-14 -> bus-15</title></path>
<path id="ACBranch-line-16-17" class="edge" d="M 1012.0 480.0 L 1010.0 480.0 L 1010.0 360.0 L 944.0 360.0"><title>bus-16 -> bus-17</title></path>
<path id="ACBranch-line-15-18" class="edge" d="M 944.0 240.0 L 944.0 297.0 L 1340.0 297.0 L 1340.0 360.0"><title>bus-15 -> bus-18</title></path>
<path id="ACBranch-line-18-19" class="edge" d="M 1340.0 360.0 L 1340.0 214.0 L 1076.0 214.0 L 1076.0 240.0"><title>bus-18 -> bus-19</title></path>
<path id="ACBranch-line-19-20" class="edge" d="M 1076.0 240.0 L 1076.0 177.0 L 562.0 177.0 L 562.0 120.0"><title>bus-19 -> bus-20</title></path>
<path id="ACBranch-line-10-20" class="edge" d="M 416.0 240.0 L 461.0 240.0 L 461.0 120.0 L 562.0 120.0"><title>bus-10 -> bus-20</title></path>
<path id="ACBranch-line-10-17" class="edge" d="M 416.0 240.0 L 416.0 302.0 L 944.0 302.0 L 944.0 360.0"><title>bus-10 -> bus-17</title></path>
<path id="ACBranch-line-10-21" class="edge" d="M 416.0 240.0 L 416.0 302.0 L 748.0 302.0 L 748.0 480.0"><title>bus-10 -> bus-21</title></path>
<path id="ACBranch-line-10-22" class="edge" d="M 416.0 240.0 L 416.0 213.0 L 694.0 213.0 L 694.0 120.0"><title>bus-10 -> bus-22</title></path>
<path id="ACBranch-line-21-22" class="edge" d="M 748.0 480.0 L 748.0 213.0 L 694.0 213.0 L 694.0 120.0"><title>bus-21 -> bus-22</title></path>
<path id="ACBranch-line-15-23" class="edge" d="M 944.0 240.0 L 944.0 297.0 L 1244.0 297.0 L 1244.0 480.0"><title>bus-15 -> bus-23</title></path>
<path id="ACBranch-line-22-24" class="edge" d="M 694.0 120.0 L 694.0 177.0 L 1208.0 177.0 L 1208.0 360.0"><title>bus-22 -> bus-24</title></path>
<path id="ACBranch-line-23-24" class="edge" d="M 1244.0 480.0 L 1240.0 480.0 L 1240.0 360.0 L 1208.0 360.0"><title>bus-23 -> bus-24</title></path>
<path id="ACBranch-line-24-25" class="edge" d="M 1208.0 360.0 L 1208.0 177.0 L 826.0 177.0 L 826.0 120.0"><title>bus-24 -> bus-25</title></path>
<path id="ACBranch-line-25-26" class="edge" d="M 826.0 120.0 L 826.0 177.0 L 1472.0 177.0 L 1472.0 360.0"><title>bus-25 -> bus-26</title></path>
<path id="ACBranch-line-25-27" class="edge" d="M 826.0 120.0 L 826.0 214.0 L 812.0 214.0 L 812.0 240.0"><title>bus-25 -> bus-27</title></path>
<path id="ACBranch-line-28-27" class="edge" d="M 548.0 240.0 L 548.0 214.0 L 812.0 214.0 L 812.0 240.0"><title>bus-28 -> bus-27</title></path>
<path id="ACBranch-line-27-29" class="edge" d="M 812.0 240.0 L 812.0 538.0 L 826.0 538.0 L 826.0 596.0"><title>bus-27 -> bus-29</title></path>
<path id="ACBranch-line-27-30" class="edge" d="M 812.0 240.0 L 812.0 513.0 L 958.0 513.0 L 958.0 596.0"><title>bus-27 -> bus-30</title></path>
<path id="ACBranch-line-29-30" class="edge" d="M 826.0 596.0 L 958.0 596.0"><title>bus-29 -> bus-30</title></path>
<path id="ACBranch-line-8-28" class="edge" d="M 406.0 596.0 L 406.0 518.0 L 548.0 518.0 L 548.0 240.0"><title>bus-8 -> bus-28</title></path>
<path id="ACBranch-line-6-28" class="edge" d="M 328.0 360.0 L 328.0 206.0 L 548.0 206.0 L 548.0 240.0"><title>bus-6 -> bus-28</title></path>
<path id="conn-ACGenerator-gen-1-1-1" class="edge" d="M 1172.0 255.0 L 1172.0 297.0 L 812.0 297.0 L 812.0 360.0"><title>ACGenerator-gen-1-1 -> bus-1</title></path>
<path id="conn-ACGenerator-gen-2-2-2" class="edge" d="M 208.0 375.0 L 208.0 427.5 L 352.0 427.5 L 352.0 480.0"><title>ACGenerator-gen-2-2 -> bus-2</title></path>
<path id="conn-ACGenerator-gen-22-3-22" class="edge" d="M 694.0 375.0 L 662.0 375.0 L 662.0 120.0 L 694.0 120.0"><title>ACGenerator-gen-22-3 -> bus-22</title></path>
<path id="conn-ACGenerator-gen-27-4-27" class="edge" d="M 956.0 135.0 L 956.0 177.0 L 812.0 177.0 L 812.0 240.0"><title>ACGenerator-gen-27-4 -> bus-27</title></path>
<path id="conn-ACGenerator-gen-23-5-23" class="edge" d="M 1244.0 591.0 L 1244.0 480.0"><title>ACGenerator-gen-23-5 -> bus-23</title></path>
<path id="conn-ACGenerator-gen-13-6-13" class="edge" d="M 1292.0 255.0 L 1292.0 298.0 L 1076.0 298.0 L 1076.0 360.0"><title>ACGenerator-gen-13-6 -> bus-13</title></path>
<path id="conn-ACLoad-load-2-2" class="edge" d="M 280.0 592.0 L 328.0 592.0 L 328.0 480.0 L 352.0 480.0"><title>ACLoad-load-2 -> bus-2</title></path>
<path id="conn-ACLoad-load-3-3" class="edge" d="M 562.0 708.0 L 562.0 596.0"><title>ACLoad-load-3 -> bus-3</title></path>
<path id="conn-ACLoad-load-4-4" class="edge" d="M 244.0 472.0 L 244.0 418.0 L 460.0 418.0 L 460.0 360.0"><title>ACLoad-load-4 -> bus-4</title></path>
<path id="conn-ACLoad-load-7-7" class="edge" d="M 484.0 736.0 L 484.0 480.0"><title>ACLoad-load-7 -> bus-7</title></path>
<path id="conn-ACLoad-load-8-8" class="edge" d="M 406.0 708.0 L 406.0 596.0"><title>ACLoad-load-8 -> bus-8</title></path>
<path id="conn-ACLoad-load-10-10" class="edge" d="M 128.0 352.0 L 128.0 206.0 L 416.0 206.0 L 416.0 240.0"><title>ACLoad-load-10 -> bus-10</title></path>
<path id="conn-ACLoad-load-12-12" class="edge" d="M 320.0 280.0 L 320.0 204.0 L 680.0 204.0 L 680.0 240.0"><title>ACLoad-load-12 -> bus-12</title></path>
<path id="conn-ACLoad-load-14-14" class="edge" d="M 1024.0 736.0 L 1024.0 513.0 L 880.0 513.0 L 880.0 480.0"><title>ACLoad-load-14 -> bus-14</title></path>
<path id="conn-ACLoad-load-15-15" class="edge" d="M 1088.0 136.0 L 1088.0 177.0 L 944.0 177.0 L 944.0 240.0"><title>ACLoad-load-15 -> bus-15</title></path>
<path id="conn-ACLoad-load-16-16" class="edge" d="M 1156.0 736.0 L 1102.0 736.0 L 1102.0 480.0 L 1012.0 480.0"><title>ACLoad-load-16 -> bus-16</title></path>
<path id="conn-ACLoad-load-17-17" class="edge" d="M 944.0 760.0 L 944.0 360.0"><title>ACLoad-load-17 -> bus-17</title></path>
<path id="conn-ACLoad-load-18-18" class="edge" d="M 1484.0 472.0 L 1484.0 398.0 L 1340.0 398.0 L 1340.0 360.0"><title>ACLoad-load-18 -> bus-18</title></path>
<path id="conn-ACLoad-load-19-19" class="edge" d="M 1148.0 496.0 L 1148.0 424.0 L 1076.0 424.0 L 1076.0 240.0"><title>ACLoad-load-19 -> bus-19</title></path>
<path id="conn-ACLoad-load-20-20" class="edge" d="M 418.0 160.0 L 448.0 160.0 L 448.0 120.0 L 562.0 120.0"><title>ACLoad-load-20 -> bus-20</title></path>
<path id="conn-ACLoad-load-21-21" class="edge" d="M 820.0 736.0 L 748.0 736.0 L 748.0 480.0"><title>ACLoad-load-21 -> bus-21</title></path>
<path id="conn-ACLoad-load-23-23" class="edge" d="M 1316.0 592.0 L 1308.0 592.0 L 1308.0 480.0 L 1244.0 480.0"><title>ACLoad-load-23 -> bus-23</title></path>
<path id="conn-ACLoad-load-24-24" class="edge" d="M 1404.5 472.0 L 1404.5 398.0 L 1208.0 398.0 L 1208.0 360.0"><title>ACLoad-load-24 -> bus-24</title></path>
<path id="conn-ACLoad-load-26-26" class="edge" d="M 1616.0 472.0 L 1544.0 472.0 L 1544.0 360.0 L 1472.0 360.0"><title>ACLoad-load-26 -> bus-26</title></path>
<path id="conn-ACLoad-load-29-29" class="edge" d="M 826.0 852.0 L 866.0 852.0 L 866.0 596.0 L 826.0 596.0"><title>ACLoad-load-29 -> bus-29</title></path>
<path id="conn-ACLoad-load-30-30" class="edge" d="M 1030.0 852.0 L 1070.0 852.0 L 1070.0 596.0 L 958.0 596.0"><title>ACLoad-load-30 -> bus-30</title></path>
<path id="conn-ACShuntCompensator-shunt-5-5" class="edge" d="M 694.0 708.0 L 694.0 596.0"><title>ACShuntCompensator-shunt-5 -> bus-5</title></path>
<path id="conn-ACShuntCompensator-shunt-24-24" class="edge" d="M 1155.5 616.0 L 1166.0 616.0 L 1166.0 360.0 L 1208.0 360.0"><title>ACShuntCompensator-shunt-24 -> bus-24</title></path>
</g>
<g id="nodes">
<g id="bus-1" class="node node-bus"><title>bus-1 / ac-bus</title><line x1="766.0" y1="360.0" x2="858.0" y2="360.0" class="node-bus"/><text x="812.0" y="408.0" text-anchor="middle">bus_1</text></g>
<g id="bus-2" class="node node-bus"><title>bus-2 / ac-bus</title><line x1="306.0" y1="480.0" x2="398.0" y2="480.0" class="node-bus"/><text x="352.0" y="528.0" text-anchor="middle">bus_2</text></g>
<g id="bus-3" class="node node-bus"><title>bus-3 / ac-bus</title><line x1="516.0" y1="596.0" x2="608.0" y2="596.0" class="node-bus"/><text x="562.0" y="644.0" text-anchor="middle">bus_3</text></g>
<g id="bus-4" class="node node-bus"><title>bus-4 / ac-bus</title><line x1="414.0" y1="360.0" x2="506.0" y2="360.0" class="node-bus"/><text x="460.0" y="408.0" text-anchor="middle">bus_4</text></g>
<g id="bus-5" class="node node-bus"><title>bus-5 / ac-bus</title><line x1="648.0" y1="596.0" x2="740.0" y2="596.0" class="node-bus"/><text x="694.0" y="644.0" text-anchor="middle">bus_5</text></g>
<g id="bus-6" class="node node-bus"><title>bus-6 / ac-bus</title><line x1="282.0" y1="360.0" x2="374.0" y2="360.0" class="node-bus"/><text x="328.0" y="408.0" text-anchor="middle">bus_6</text></g>
<g id="bus-7" class="node node-bus"><title>bus-7 / ac-bus</title><line x1="438.0" y1="480.0" x2="530.0" y2="480.0" class="node-bus"/><text x="484.0" y="528.0" text-anchor="middle">bus_7</text></g>
<g id="bus-8" class="node node-bus"><title>bus-8 / ac-bus</title><line x1="360.0" y1="596.0" x2="452.0" y2="596.0" class="node-bus"/><text x="406.0" y="644.0" text-anchor="middle">bus_8</text></g>
<g id="bus-9" class="node node-bus"><title>bus-9 / ac-bus</title><line x1="546.0" y1="360.0" x2="638.0" y2="360.0" class="node-bus"/><text x="592.0" y="408.0" text-anchor="middle">bus_9</text></g>
<g id="bus-10" class="node node-bus"><title>bus-10 / ac-bus</title><line x1="370.0" y1="240.0" x2="462.0" y2="240.0" class="node-bus"/><text x="416.0" y="288.0" text-anchor="middle">bus_10</text></g>
<g id="bus-11" class="node node-bus"><title>bus-11 / ac-bus</title><line x1="570.0" y1="480.0" x2="662.0" y2="480.0" class="node-bus"/><text x="616.0" y="528.0" text-anchor="middle">bus_11</text></g>
<g id="bus-12" class="node node-bus"><title>bus-12 / ac-bus</title><line x1="634.0" y1="240.0" x2="726.0" y2="240.0" class="node-bus"/><text x="680.0" y="288.0" text-anchor="middle">bus_12</text></g>
<g id="bus-13" class="node node-bus"><title>bus-13 / ac-bus</title><line x1="1030.0" y1="360.0" x2="1122.0" y2="360.0" class="node-bus"/><text x="1076.0" y="408.0" text-anchor="middle">bus_13</text></g>
<g id="bus-14" class="node node-bus"><title>bus-14 / ac-bus</title><line x1="834.0" y1="480.0" x2="926.0" y2="480.0" class="node-bus"/><text x="880.0" y="528.0" text-anchor="middle">bus_14</text></g>
<g id="bus-15" class="node node-bus"><title>bus-15 / ac-bus</title><line x1="898.0" y1="240.0" x2="990.0" y2="240.0" class="node-bus"/><text x="944.0" y="288.0" text-anchor="middle">bus_15</text></g>
<g id="bus-16" class="node node-bus"><title>bus-16 / ac-bus</title><line x1="966.0" y1="480.0" x2="1058.0" y2="480.0" class="node-bus"/><text x="1012.0" y="528.0" text-anchor="middle">bus_16</text></g>
<g id="bus-17" class="node node-bus"><title>bus-17 / ac-bus</title><line x1="898.0" y1="360.0" x2="990.0" y2="360.0" class="node-bus"/><text x="944.0" y="408.0" text-anchor="middle">bus_17</text></g>
<g id="bus-18" class="node node-bus"><title>bus-18 / ac-bus</title><line x1="1294.0" y1="360.0" x2="1386.0" y2="360.0" class="node-bus"/><text x="1340.0" y="408.0" text-anchor="middle">bus_18</text></g>
<g id="bus-19" class="node node-bus"><title>bus-19 / ac-bus</title><line x1="1030.0" y1="240.0" x2="1122.0" y2="240.0" class="node-bus"/><text x="1076.0" y="288.0" text-anchor="middle">bus_19</text></g>
<g id="bus-20" class="node node-bus"><title>bus-20 / ac-bus</title><line x1="516.0" y1="120.0" x2="608.0" y2="120.0" class="node-bus"/><text x="562.0" y="168.0" text-anchor="middle">bus_20</text></g>
<g id="bus-21" class="node node-bus"><title>bus-21 / ac-bus</title><line x1="702.0" y1="480.0" x2="794.0" y2="480.0" class="node-bus"/><text x="748.0" y="528.0" text-anchor="middle">bus_21</text></g>
<g id="bus-22" class="node node-bus"><title>bus-22 / ac-bus</title><line x1="648.0" y1="120.0" x2="740.0" y2="120.0" class="node-bus"/><text x="694.0" y="168.0" text-anchor="middle">bus_22</text></g>
<g id="bus-23" class="node node-bus"><title>bus-23 / ac-bus</title><line x1="1198.0" y1="480.0" x2="1290.0" y2="480.0" class="node-bus"/><text x="1244.0" y="528.0" text-anchor="middle">bus_23</text></g>
<g id="bus-24" class="node node-bus"><title>bus-24 / ac-bus</title><line x1="1162.0" y1="360.0" x2="1254.0" y2="360.0" class="node-bus"/><text x="1208.0" y="408.0" text-anchor="middle">bus_24</text></g>
<g id="bus-25" class="node node-bus"><title>bus-25 / ac-bus</title><line x1="780.0" y1="120.0" x2="872.0" y2="120.0" class="node-bus"/><text x="826.0" y="168.0" text-anchor="middle">bus_25</text></g>
<g id="bus-26" class="node node-bus"><title>bus-26 / ac-bus</title><line x1="1426.0" y1="360.0" x2="1518.0" y2="360.0" class="node-bus"/><text x="1472.0" y="408.0" text-anchor="middle">bus_26</text></g>
<g id="bus-27" class="node node-bus"><title>bus-27 / ac-bus</title><line x1="766.0" y1="240.0" x2="858.0" y2="240.0" class="node-bus"/><text x="812.0" y="288.0" text-anchor="middle">bus_27</text></g>
<g id="bus-28" class="node node-bus"><title>bus-28 / ac-bus</title><line x1="502.0" y1="240.0" x2="594.0" y2="240.0" class="node-bus"/><text x="548.0" y="288.0" text-anchor="middle">bus_28</text></g>
<g id="bus-29" class="node node-bus"><title>bus-29 / ac-bus</title><line x1="780.0" y1="596.0" x2="872.0" y2="596.0" class="node-bus"/><text x="826.0" y="644.0" text-anchor="middle">bus_29</text></g>
<g id="bus-30" class="node node-bus"><title>bus-30 / ac-bus</title><line x1="912.0" y1="596.0" x2="1004.0" y2="596.0" class="node-bus"/><text x="958.0" y="644.0" text-anchor="middle">bus_30</text></g>
<g id="ACGenerator-gen-1-1" class="node node-source"><title>ACGenerator-gen-1-1 / ac-source</title><circle cx="1172.0" cy="255.0" r="26" class="node-fill"/><text x="1172.0" y="303.0" text-anchor="middle">gen_1_1</text></g>
<g id="ACGenerator-gen-2-2" class="node node-source"><title>ACGenerator-gen-2-2 / ac-source</title><circle cx="208.0" cy="375.0" r="26" class="node-fill"/><text x="208.0" y="423.0" text-anchor="middle">gen_2_2</text></g>
<g id="ACGenerator-gen-22-3" class="node node-source"><title>ACGenerator-gen-22-3 / ac-source</title><circle cx="694.0" cy="375.0" r="26" class="node-fill"/><text x="694.0" y="423.0" text-anchor="middle">gen_22_3</text></g>
<g id="ACGenerator-gen-27-4" class="node node-source"><title>ACGenerator-gen-27-4 / ac-source</title><circle cx="956.0" cy="135.0" r="26" class="node-fill"/><text x="956.0" y="183.0" text-anchor="middle">gen_27_4</text></g>
<g id="ACGenerator-gen-23-5" class="node node-source"><title>ACGenerator-gen-23-5 / ac-source</title><circle cx="1244.0" cy="591.0" r="26" class="node-fill"/><text x="1244.0" y="639.0" text-anchor="middle">gen_23_5</text></g>
<g id="ACGenerator-gen-13-6" class="node node-source"><title>ACGenerator-gen-13-6 / ac-source</title><circle cx="1292.0" cy="255.0" r="26" class="node-fill"/><text x="1292.0" y="303.0" text-anchor="middle">gen_13_6</text></g>
<g id="ACLoad-load-2" class="node node-load"><title>ACLoad-load-2 / ac-load</title><path d="M 254.0 570.0 L 306.0 570.0 L 280.0 618.0 Z" class="node-fill"/><text x="280.0" y="640.0" text-anchor="middle">load_2</text></g>
<g id="ACLoad-load-3" class="node node-load"><title>ACLoad-load-3 / ac-load</title><path d="M 536.0 686.0 L 588.0 686.0 L 562.0 734.0 Z" class="node-fill"/><text x="562.0" y="756.0" text-anchor="middle">load_3</text></g>
<g id="ACLoad-load-4" class="node node-load"><title>ACLoad-load-4 / ac-load</title><path d="M 218.0 450.0 L 270.0 450.0 L 244.0 498.0 Z" class="node-fill"/><text x="244.0" y="520.0" text-anchor="middle">load_4</text></g>
<g id="ACLoad-load-7" class="node node-load"><title>ACLoad-load-7 / ac-load</title><path d="M 458.0 714.0 L 510.0 714.0 L 484.0 762.0 Z" class="node-fill"/><text x="484.0" y="784.0" text-anchor="middle">load_7</text></g>
<g id="ACLoad-load-8" class="node node-load"><title>ACLoad-load-8 / ac-load</title><path d="M 380.0 686.0 L 432.0 686.0 L 406.0 734.0 Z" class="node-fill"/><text x="406.0" y="756.0" text-anchor="middle">load_8</text></g>
<g id="ACLoad-load-10" class="node node-load"><title>ACLoad-load-10 / ac-load</title><path d="M 102.0 330.0 L 154.0 330.0 L 128.0 378.0 Z" class="node-fill"/><text x="128.0" y="400.0" text-anchor="middle">load_10</text></g>
<g id="ACLoad-load-12" class="node node-load"><title>ACLoad-load-12 / ac-load</title><path d="M 294.0 258.0 L 346.0 258.0 L 320.0 306.0 Z" class="node-fill"/><text x="320.0" y="328.0" text-anchor="middle">load_12</text></g>
<g id="ACLoad-load-14" class="node node-load"><title>ACLoad-load-14 / ac-load</title><path d="M 998.0 714.0 L 1050.0 714.0 L 1024.0 762.0 Z" class="node-fill"/><text x="1024.0" y="784.0" text-anchor="middle">load_14</text></g>
<g id="ACLoad-load-15" class="node node-load"><title>ACLoad-load-15 / ac-load</title><path d="M 1062.0 114.0 L 1114.0 114.0 L 1088.0 162.0 Z" class="node-fill"/><text x="1088.0" y="184.0" text-anchor="middle">load_15</text></g>
<g id="ACLoad-load-16" class="node node-load"><title>ACLoad-load-16 / ac-load</title><path d="M 1130.0 714.0 L 1182.0 714.0 L 1156.0 762.0 Z" class="node-fill"/><text x="1156.0" y="784.0" text-anchor="middle">load_16</text></g>
<g id="ACLoad-load-17" class="node node-load"><title>ACLoad-load-17 / ac-load</title><path d="M 918.0 738.0 L 970.0 738.0 L 944.0 786.0 Z" class="node-fill"/><text x="944.0" y="808.0" text-anchor="middle">load_17</text></g>
<g id="ACLoad-load-18" class="node node-load"><title>ACLoad-load-18 / ac-load</title><path d="M 1458.0 450.0 L 1510.0 450.0 L 1484.0 498.0 Z" class="node-fill"/><text x="1484.0" y="520.0" text-anchor="middle">load_18</text></g>
<g id="ACLoad-load-19" class="node node-load"><title>ACLoad-load-19 / ac-load</title><path d="M 1122.0 474.0 L 1174.0 474.0 L 1148.0 522.0 Z" class="node-fill"/><text x="1148.0" y="544.0" text-anchor="middle">load_19</text></g>
<g id="ACLoad-load-20" class="node node-load"><title>ACLoad-load-20 / ac-load</title><path d="M 392.0 138.0 L 444.0 138.0 L 418.0 186.0 Z" class="node-fill"/><text x="418.0" y="208.0" text-anchor="middle">load_20</text></g>
<g id="ACLoad-load-21" class="node node-load"><title>ACLoad-load-21 / ac-load</title><path d="M 794.0 714.0 L 846.0 714.0 L 820.0 762.0 Z" class="node-fill"/><text x="820.0" y="784.0" text-anchor="middle">load_21</text></g>
<g id="ACLoad-load-23" class="node node-load"><title>ACLoad-load-23 / ac-load</title><path d="M 1290.0 570.0 L 1342.0 570.0 L 1316.0 618.0 Z" class="node-fill"/><text x="1316.0" y="640.0" text-anchor="middle">load_23</text></g>
<g id="ACLoad-load-24" class="node node-load"><title>ACLoad-load-24 / ac-load</title><path d="M 1378.5 450.0 L 1430.5 450.0 L 1404.5 498.0 Z" class="node-fill"/><text x="1404.5" y="520.0" text-anchor="middle">load_24</text></g>
<g id="ACLoad-load-26" class="node node-load"><title>ACLoad-load-26 / ac-load</title><path d="M 1590.0 450.0 L 1642.0 450.0 L 1616.0 498.0 Z" class="node-fill"/><text x="1616.0" y="520.0" text-anchor="middle">load_26</text></g>
<g id="ACLoad-load-29" class="node node-load"><title>ACLoad-load-29 / ac-load</title><path d="M 800.0 830.0 L 852.0 830.0 L 826.0 878.0 Z" class="node-fill"/><text x="826.0" y="900.0" text-anchor="middle">load_29</text></g>
<g id="ACLoad-load-30" class="node node-load"><title>ACLoad-load-30 / ac-load</title><path d="M 1004.0 830.0 L 1056.0 830.0 L 1030.0 878.0 Z" class="node-fill"/><text x="1030.0" y="900.0" text-anchor="middle">load_30</text></g>
<g id="ACShuntCompensator-shunt-5" class="node node-device"><title>ACShuntCompensator-shunt-5 / ac-shunt</title><path d="M 694.0 684.0 L 694.0 732.0 M 676.0 732.0 L 712.0 732.0" class="node-fill"/><text x="694.0" y="756.0" text-anchor="middle">shunt_5</text></g>
<g id="ACShuntCompensator-shunt-24" class="node node-device"><title>ACShuntCompensator-shunt-24 / ac-shunt</title><path d="M 1155.5 592.0 L 1155.5 640.0 M 1137.5 640.0 L 1173.5 640.0" class="node-fill"/><text x="1155.5" y="664.0" text-anchor="middle">shunt_24</text></g>
</g>
</svg>
