<svg xmlns="http://www.w3.org/2000/svg" width="1276" height="950" viewBox="0 0 1276 950">
<style>
  svg { background: #f8fafc; font-family: Arial, "Microsoft YaHei", sans-serif; }
  .edge { fill: none; stroke: #334155; stroke-width: 2.4; stroke-linecap: round; stroke-linejoin: round; }
  .node-fill { fill: #ffffff; stroke: #0f172a; stroke-width: 2; }
  .node-bus { stroke: #0f172a; stroke-width: 6; stroke-linecap: square; }
  .node-source .node-fill { fill: #eff6ff; stroke: #2563eb; }
  .node-transformer .node-fill { fill: #fff7ed; stroke: #ea580c; }
  .node-switch .node-fill { fill: #f8fafc; stroke: #475569; }
  .node-load .node-fill { fill: #fef2f2; stroke: #dc2626; }
  .node-device .node-fill { fill: #f8fafc; stroke: #64748b; }
  text { fill: #1e293b; font-size: 13px; }
</style>
<g id="edges">
<path id="ACBranch-line-1-2" class="edge" d="M 616.0 240.0 L 616.0 266.0 L 352.0 266.0 L 352.0 240.0"><title>bus-1 -> bus-2</title></path>
<path id="ACBranch-line-1-5" class="edge" d="M 616.0 240.0 L 616.0 178.0 L 352.0 178.0 L 352.0 120.0"><title>bus-1 -> bus-5</title></path>
<path id="ACBranch-line-2-3" class="edge" d="M 352.0 240.0 L 352.0 356.0"><title>bus-2 -> bus-3</title></path>
<path id="ACBranch-line-2-4" class="edge" d="M 352.0 240.0 L 252.0 240.0 L 252.0 120.0 L 214.0 120.0"><title>bus-2 -> bus-4</title></path>
<path id="ACBranch-line-2-5" class="edge" d="M 352.0 240.0 L 352.0 120.0"><title>bus-2 -> bus-5</title></path>
<path id="ACBranch-line-3-4" class="edge" d="M 352.0 356.0 L 252.0 356.0 L 252.0 120.0 L 214.0 120.0"><title>bus-3 -> bus-4</title></path>
<path id="ACBranch-line-4-5" class="edge" d="M 214.0 120.0 L 352.0 120.0"><title>bus-4 -> bus-5</title></path>
<path id="ACBranch-line-6-11" class="edge" d="M 848.0 120.0 L 848.0 240.0 L 880.0 240.0"><title>bus-6 -> bus-11</title></path>
<path id="ACBranch-line-6-12" class="edge" d="M 848.0 120.0 L 980.0 120.0"><title>bus-6 -> bus-12</title></path>
<path id="ACBranch-line-6-13" class="edge" d="M 848.0 120.0 L 848.0 180.0 L 1012.0 180.0 L 1012.0 240.0"><title>bus-6 -> bus-13</title></path>
<path id="ACBranch-line-7-8" class="edge" d="M 484.0 240.0 L 484.0 266.0 L 562.0 266.0 L 562.0 356.0"><title>bus-7 -> bus-8</title></path>
<path id="ACBranch-line-7-9" class="edge" d="M 484.0 240.0 L 484.0 120.0"><title>bus-7 -> bus-9</title></path>
<path id="ACBranch-line-9-10" class="edge" d="M 484.0 120.0 L 484.0 178.0 L 716.0 178.0 L 716.0 120.0"><title>bus-9 -> bus-10</title></path>
<path id="ACBranch-line-9-14" class="edge" d="M 484.0 120.0 L 484.0 178.0 L 748.0 178.0 L 748.0 240.0"><title>bus-9 -> bus-14</title></path>
<path id="ACBranch-line-10-11" class="edge" d="M 716.0 120.0 L 716.0 208.0 L 880.0 208.0 L 880.0 240.0"><title>bus-10 -> bus-11</title></path>
<path id="ACBranch-line-12-13" class="edge" d="M 980.0 120.0 L 980.0 124.0 L 1012.0 124.0 L 1012.0 240.0"><title>bus-12 -> bus-13</title></path>
<path id="ACBranch-line-13-14" class="edge" d="M 1012.0 240.0 L 1012.0 266.0 L 748.0 266.0 L 748.0 240.0"><title>bus-13 -> bus-14</title></path>
<path id="ACTransformer-tr-4-7-i" class="edge" d="M 214.0 120.0 L 252.0 120.0 L 252.0 396.0 L 205.0 396.0"><title>bus-4 -> ACTransformer-tr-4-7</title></path>
<path id="ACTransformer-tr-4-7-j" class="edge" d="M 205.0 396.0 L 205.0 329.0 L 484.0 329.0 L 484.0 240.0"><title>ACTransformer-tr-4-7 -> bus-7</title></path>
<path id="ACTransformer-tr-4-9-i" class="edge" d="M 214.0 120.0 L 252.0 120.0 L 252.0 480.0 L 349.0 480.0"><title>bus-4 -> ACTransformer-tr-4-9</title></path>
<path id="ACTransformer-tr-4-9-j" class="edge" d="M 349.0 480.0 L 484.0 480.0 L 484.0 120.0"><title>ACTransformer-tr-4-9 -> bus-9</title></path>
<path id="ACTransformer-tr-5-6-i" class="edge" d="M 352.0 120.0 L 352.0 178.0 L 672.0 178.0 L 672.0 336.0"><title>bus-5 -> ACTransformer-tr-5-6</title></path>
<path id="ACTransformer-tr-5-6-j" class="edge" d="M 672.0 336.0 L 672.0 178.0 L 848.0 178.0 L 848.0 120.0"><title>ACTransformer-tr-5-6 -> bus-6</title></path>
<path id="conn-ACGenerator-gen-1-1-1" class="edge" d="M 616.0 135.0 L 616.0 240.0"><title>ACGenerator-gen-1-1 -> bus-1</title></path>
<path id="conn-ACGenerator-gen-2-2-2" class="edge" d="M 208.0 279.0 L 252.0 279.0 L 252.0 240.0 L 352.0 240.0"><title>ACGenerator-gen-2-2 -> bus-2</title></path>
<path id="conn-ACGenerator-gen-3-3-3" class="edge" d="M 136.0 251.0 L 136.0 356.0 L 352.0 356.0"><title>ACGenerator-gen-3-3 -> bus-3</title></path>
<path id="conn-ACGenerator-gen-6-4-6" class="edge" d="M 848.0 375.0 L 816.0 375.0 L 816.0 120.0 L 848.0 120.0"><title>ACGenerator-gen-6-4 -> bus-6</title></path>
<path id="conn-ACGenerator-gen-8-5-8" class="edge" d="M 562.0 467.0 L 562.0 356.0"><title>ACGenerator-gen-8-5 -> bus-8</title></path>
<path id="conn-ACLoad-load-2-2" class="edge" d="M 136.0 496.0 L 136.0 329.0 L 352.0 329.0 L 352.0 240.0"><title>ACLoad-load-2 -> bus-2</title></path>
<path id="conn-ACLoad-load-3-3" class="edge" d="M 640.0 468.0 L 640.0 422.0 L 352.0 422.0 L 352.0 356.0"><title>ACLoad-load-3 -> bus-3</title></path>
<path id="conn-ACLoad-load-4-4" class="edge" d="M 214.0 520.0 L 252.0 520.0 L 252.0 120.0 L 214.0 120.0"><title>ACLoad-load-4 -> bus-4</title></path>
<path id="conn-ACLoad-load-5-5" class="edge" d="M 352.0 592.0 L 289.0 592.0 L 289.0 120.0 L 352.0 120.0"><title>ACLoad-load-5 -> bus-5</title></path>
<path id="conn-ACLoad-load-6-6" class="edge" d="M 920.0 376.0 L 920.0 192.0 L 848.0 192.0 L 848.0 120.0"><title>ACLoad-load-6 -> bus-6</title></path>
<path id="conn-ACLoad-load-9-9" class="edge" d="M 464.5 376.0 L 464.5 178.0 L 484.0 178.0 L 484.0 120.0"><title>ACLoad-load-9 -> bus-9</title></path>
<path id="conn-ACLoad-load-10-10" class="edge" d="M 716.0 448.0 L 748.0 448.0 L 748.0 120.0 L 716.0 120.0"><title>ACLoad-load-10 -> bus-10</title></path>
<path id="conn-ACLoad-load-11-11" class="edge" d="M 1024.0 352.0 L 1024.0 266.0 L 880.0 266.0 L 880.0 240.0"><title>ACLoad-load-11 -> bus-11</title></path>
<path id="conn-ACLoad-load-12-12" class="edge" d="M 1124.0 232.0 L 1078.0 232.0 L 1078.0 120.0 L 980.0 120.0"><title>ACLoad-load-12 -> bus-12</title></path>
<path id="conn-ACLoad-load-13-13" class="edge" d="M 1156.0 352.0 L 1080.0 352.0 L 1080.0 240.0 L 1012.0 240.0"><title>ACLoad-load-13 -> bus-13</title></path>
<path id="conn-ACLoad-load-14-14" class="edge" d="M 820.0 496.0 L 770.0 496.0 L 770.0 240.0 L 748.0 240.0"><title>ACLoad-load-14 -> bus-14</title></path>
<path id="conn-ACShuntCompensator-shunt-9-9" class="edge" d="M 431.5 592.0 L 484.0 592.0 L 484.0 120.0"><title>ACShuntCompensator-shunt-9 -> bus-9</title></path>
</g>
<g id="nodes">
<g id="bus-1" class="node node-bus"><title>bus-1 / ac-bus</title><line x1="570.0" y1="240.0" x2="662.0" y2="240.0" class="node-bus"/><text x="616.0" y="288.0" text-anchor="middle">bus_1</text></g>
<g id="bus-2" class="node node-bus"><title>bus-2 / ac-bus</title><line x1="306.0" y1="240.0" x2="398.0" y2="240.0" class="node-bus"/><text x="352.0" y="288.0" text-anchor="middle">bus_2</text></g>
<g id="bus-3" class="node node-bus"><title>bus-3 / ac-bus</title><line x1="306.0" y1="356.0" x2="398.0" y2="356.0" class="node-bus"/><text x="352.0" y="404.0" text-anchor="middle">bus_3</text></g>
<g id="bus-4" class="node node-bus"><title>bus-4 / ac-bus</title><line x1="168.0" y1="120.0" x2="260.0" y2="120.0" class="node-bus"/><text x="214.0" y="168.0" text-anchor="middle">bus_4</text></g>
<g id="bus-5" class="node node-bus"><title>bus-5 / ac-bus</title><line x1="306.0" y1="120.0" x2="398.0" y2="120.0" class="node-bus"/><text x="352.0" y="168.0" text-anchor="middle">bus_5</text></g>
<g id="bus-6" class="node node-bus"><title>bus-6 / ac-bus</title><line x1="802.0" y1="120.0" x2="894.0" y2="120.0" class="node-bus"/><text x="848.0" y="168.0" text-anchor="middle">bus_6</text></g>
<g id="bus-7" class="node node-bus"><title>bus-7 / ac-bus</title><line x1="438.0" y1="240.0" x2="530.0" y2="240.0" class="node-bus"/><text x="484.0" y="288.0" text-anchor="middle">bus_7</text></g>
<g id="bus-8" class="node node-bus"><title>bus-8 / ac-bus</title><line x1="516.0" y1="356.0" x2="608.0" y2="356.0" class="node-bus"/><text x="562.0" y="404.0" text-anchor="middle">bus_8</text></g>
<g id="bus-9" class="node node-bus"><title>bus-9 / ac-bus</title><line x1="438.0" y1="120.0" x2="530.0" y2="120.0" class="node-bus"/><text x="484.0" y="168.0" text-anchor="middle">bus_9</text></g>
<g id="bus-10" class="node node-bus"><title>bus-10 / ac-bus</title><line x1="670.0" y1="120.0" x2="762.0" y2="120.0" class="node-bus"/><text x="716.0" y="168.0" text-anchor="middle">bus_10</text></g>
<g id="bus-11" class="node node-bus"><title>bus-11 / ac-bus</title><line x1="834.0" y1="240.0" x2="926.0" y2="240.0" class="node-bus"/><text x="880.0" y="288.0" text-anchor="middle">bus_11</text></g>
<g id="bus-12" class="node node-bus"><title>bus-12 / ac-bus</title><line x1="934.0" y1="120.0" x2="1026.0" y2="120.0" class="node-bus"/><text x="980.0" y="168.0" text-anchor="middle">bus_12</text></g>
<g id="bus-13" class="node node-bus"><title>bus-13 / ac-bus</title><line x1="966.0" y1="240.0" x2="1058.0" y2="240.0" class="node-bus"/><text x="1012.0" y="288.0" text-anchor="middle">bus_13</text></g>
<g id="bus-14" class="node node-bus"><title>bus-14 / ac-bus</title><line x1="702.0" y1="240.0" x2="794.0" y2="240.0" class="node-bus"/><text x="748.0" y="288.0" text-anchor="middle">bus_14</text></g>
<g id="ACTransformer-tr-4-7" class="node node-transformer"><title>ACTransformer-tr-4-7 / ac-transformer</title><circle cx="192.0" cy="396.0" r="18" class="node-fill"/><circle cx="218.0" cy="396.0" r="18" class="node-fill"/><text x="205.0" y="444.0" text-anchor="middle">tr_4_7</text></g>
<g id="ACTransformer-tr-4-9" class="node node-transformer"><title>ACTransformer-tr-4-9 / ac-transformer</title><circle cx="336.0" cy="480.0" r="18" class="node-fill"/><circle cx="362.0" cy="480.0" r="18" class="node-fill"/><text x="349.0" y="528.0" text-anchor="middle">tr_4_9</text></g>
<g id="ACTransformer-tr-5-6" class="node node-transformer"><title>ACTransformer-tr-5-6 / ac-transformer</title><circle cx="659.0" cy="336.0" r="18" class="node-fill"/><circle cx="685.0" cy="336.0" r="18" class="node-fill"/><text x="672.0" y="384.0" text-anchor="middle">tr_5_6</text></g>
<g id="ACGenerator-gen-1-1" class="node node-source"><title>ACGenerator-gen-1-1 / ac-source</title><circle cx="616.0" cy="135.0" r="26" class="node-fill"/><text x="616.0" y="183.0" text-anchor="middle">gen_1_1</text></g>
<g id="ACGenerator-gen-2-2" class="node node-source"><title>ACGenerator-gen-2-2 / ac-source</title><circle cx="208.0" cy="279.0" r="26" class="node-fill"/><text x="208.0" y="327.0" text-anchor="middle">gen_2_2</text></g>
<g id="ACGenerator-gen-3-3" class="node node-source"><title>ACGenerator-gen-3-3 / ac-source</title><circle cx="136.0" cy="251.0" r="26" class="node-fill"/><text x="136.0" y="299.0" text-anchor="middle">gen_3_3</text></g>
<g id="ACGenerator-gen-6-4" class="node node-source"><title>ACGenerator-gen-6-4 / ac-source</title><circle cx="848.0" cy="375.0" r="26" class="node-fill"/><text x="848.0" y="423.0" text-anchor="middle">gen_6_4</text></g>
<g id="ACGenerator-gen-8-5" class="node node-source"><title>ACGenerator-gen-8-5 / ac-source</title><circle cx="562.0" cy="467.0" r="26" class="node-fill"/><text x="562.0" y="515.0" text-anchor="middle">gen_8_5</text></g>
<g id="ACLoad-load-2" class="node node-load"><title>ACLoad-load-2 / ac-load</title><path d="M 110.0 474.0 L 162.0 474.0 L 136.0 522.0 Z" class="node-fill"/><text x="136.0" y="544.0" text-anchor="middle">load_2</text></g>
<g id="ACLoad-load-3" class="node node-load"><title>ACLoad-load-3 / ac-load</title><path d="M 614.0 446.0 L 666.0 446.0 L 640.0 494.0 Z" class="node-fill"/><text x="640.0" y="516.0" text-anchor="middle">load_3</text></g>
<g id="ACLoad-load-4" class="node node-load"><title>ACLoad-load-4 / ac-load</title><path d="M 188.0 498.0 L 240.0 498.0 L 214.0 546.0 Z" class="node-fill"/><text x="214.0" y="568.0" text-anchor="middle">load_4</text></g>
<g id="ACLoad-load-5" class="node node-load"><title>ACLoad-load-5 / ac-load</title><path d="M 326.0 570.0 L 378.0 570.0 L 352.0 618.0 Z" class="node-fill"/><text x="352.0" y="640.0" text-anchor="middle">load_5</text></g>
<g id="ACLoad-load-6" class="node node-load"><title>ACLoad-load-6 / ac-load</title><path d="M 894.0 354.0 L 946.0 354.0 L 920.0 402.0 Z" class="node-fill"/><text x="920.0" y="424.0" text-anchor="middle">load_6</text></g>
<g id="ACLoad-load-9" class="node node-load"><title>ACLoad-load-9 / ac-load</title><path d="M 438.5 354.0 L 490.5 354.0 L 464.5 402.0 Z" class="node-fill"/><text x="464.5" y="424.0" text-anchor="middle">load_9</text></g>
<g id="ACLoad-load-10" class="node node-load"><title>ACLoad-load-10 / ac-load</title><path d="M 690.0 426.0 L 742.0 426.0 L 716.0 474.0 Z" class="node-fill"/><text x="716.0" y="496.0" text-anchor="middle">load_10</text></g>
<g id="ACLoad-load-11" class="node node-load"><title>ACLoad-load-11 / ac-load</title><path d="M 998.0 330.0 L 1050.0 330.0 L 1024.0 378.0 Z" class="node-fill"/><text x="1024.0" y="400.0" text-anchor="middle">load_11</text></g>
<g id="ACLoad-load-12" class="node node-load"><title>ACLoad-load-12 / ac-load</title><path d="M 1098.0 210.0 L 1150.0 210.0 L 1124.0 258.0 Z" class="node-fill"/><text x="1124.0" y="280.0" text-anchor="middle">load_12</text></g>
<g id="ACLoad-load-13" class="node node-load"><title>ACLoad-load-13 / ac-load</title><path d="M 1130.0 330.0 L 1182.0 330.0 L 1156.0 378.0 Z" class="node-fill"/><text x="1156.0" y="400.0" text-anchor="middle">load_13</text></g>
<g id="ACLoad-load-14" class="node node-load"><title>ACLoad-load-14 / ac-load</title><path d="M 794.0 474.0 L 846.0 474.0 L 820.0 522.0 Z" class="node-fill"/><text x="820.0" y="544.0" text-anchor="middle">load_14</text></g>
<g id="ACShuntCompensator-shunt-9" class="node node-device"><title>ACShuntCompensator-shunt-9 / ac-shunt</title><path d="M 431.5 568.0 L 431.5 616.0 M 413.5 616.0 L 449.5 616.0" class="node-fill"/><text x="431.5" y="640.0" text-anchor="middle">shunt_9</text></g>
</g>
</svg>
