<svg xmlns="http://www.w3.org/2000/svg" viewBox="0 0 32 32" color="#2563eb" role="img" aria-labelledby="carbon-block-storage-alt-title carbon-block-storage-alt-desc">
  <title id="carbon-block-storage-alt-title">block storage alt</title>
  <desc id="carbon-block-storage-alt-desc">氢能储能 - Carbon Icons - block-storage-alt - Apache-2.0</desc><path fill="currentColor" d="M28,20H26v2h2v6H4V22H6V20H4a2.0024,2.0024,0,0,0-2,2v6a2.0024,2.0024,0,0,0,2,2H28a2.0024,2.0024,0,0,0,2-2V22A2.0024,2.0024,0,0,0,28,20Z"/><circle fill="currentColor" cx="7" cy="25" r="1"/><path fill="currentColor" d="M15,20H8V13h7Zm-5-2h3V15H10Z"/><path fill="currentColor" d="M24,20H17V13h7Zm-5-2h3V15H19Z"/><path fill="currentColor" d="M15,11H8V4h7ZM10,9h3V6H10Z"/><path fill="currentColor" d="M24,11H17V4h7ZM19,9h3V6H19Z"/></svg>