<svg xmlns="http://www.w3.org/2000/svg" viewBox="0 0 32 32" color="#2563eb" role="img" aria-labelledby="carbon-battery-charging-title carbon-battery-charging-desc">
  <title id="carbon-battery-charging-title">battery charging</title>
  <desc id="carbon-battery-charging-desc">氢能储能 - Carbon Icons - battery-charging - Apache-2.0</desc><path fill="currentColor" d="M27,11H26V10a2,2,0,0,0-2-2H20v2h4v3h3v6H24v3H19v2h5a2,2,0,0,0,2-2V21h1a2,2,0,0,0,2-2V13A2,2,0,0,0,27,11Z"/><path fill="currentColor" d="M11,22H6V10h6V8H6a2,2,0,0,0-2,2V22a2,2,0,0,0,2,2h5Z"/><path fill="currentColor" d="M14.81 23.58 13.19 22.42 17.06 17 9.37 17 16.22 8.38 17.78 9.62 13.51 15 20.94 15 14.81 23.58z"/></svg>