<svg xmlns="http://www.w3.org/2000/svg" viewBox="0 0 32 32" color="#2563eb" role="img" aria-labelledby="carbon-container-runtime-title carbon-container-runtime-desc">
  <title id="carbon-container-runtime-title">container runtime</title>
  <desc id="carbon-container-runtime-desc">氢能储能 - Carbon Icons - container-runtime - Apache-2.0</desc><path fill="currentColor" stroke-width="0" d="m30,24v-2h-2.1c-.1-.6-.4-1.2-.7-1.8l1.5-1.5-1.4-1.4-1.5,1.5c-.5-.3-1.1-.6-1.8-.7v-2.1h-2v2.1c-.6.1-1.2.4-1.8.7l-1.5-1.5-1.4,1.4,1.5,1.5c-.3.5-.6,1.1-.7,1.8h-2.1v2h2.1c.1.6.4,1.2.7,1.8l-1.5,1.5,1.4,1.4,1.5-1.5c.5.3,1.1.6,1.8.7v2.1h2v-2.1c.6-.1,1.2-.4,1.8-.7l1.5,1.5,1.4-1.4-1.5-1.5c.3-.5.6-1.1.7-1.8h2.1Zm-7,2c-1.7,0-3-1.3-3-3s1.3-3,3-3,3,1.3,3,3-1.3,3-3,3Z"/><path fill="currentColor" stroke-width="0" d="m14,28H6c-1.1028,0-2-.8972-2-2V6c0-1.1028.8972-2,2-2h20c1.1028,0,2,.8972,2,2v8h-2V6H6v20h8v2Z"/></svg>