<svg xmlns="http://www.w3.org/2000/svg" viewBox="0 0 256 256" fill="currentColor" color="#2563eb" role="img" aria-labelledby="phosphor-first-aid-kit-title phosphor-first-aid-kit-desc">
  <title id="phosphor-first-aid-kit-title">first aid kit</title>
  <desc id="phosphor-first-aid-kit-desc">医疗安全 - Phosphor Icons - first-aid-kit - MIT</desc><path fill="currentColor" d="M216,56H176V48a24,24,0,0,0-24-24H104A24,24,0,0,0,80,48v8H40A16,16,0,0,0,24,72V200a16,16,0,0,0,16,16H216a16,16,0,0,0,16-16V72A16,16,0,0,0,216,56ZM96,48a8,8,0,0,1,8-8h48a8,8,0,0,1,8,8v8H96ZM216,200H40V72H216V200Zm-56-64a8,8,0,0,1-8,8H136v16a8,8,0,0,1-16,0V144H104a8,8,0,0,1,0-16h16V112a8,8,0,0,1,16,0v16h16A8,8,0,0,1,160,136Z"/></svg>