<svg width="24" height="24" fill="none" viewBox="0 0 24 24" stroke-width="1.5" stroke="currentColor" stroke-linecap="round" stroke-linejoin="round" xmlns="http://www.w3.org/2000/svg" color="#2563eb" role="img" aria-labelledby="mynaui-microchip-title mynaui-microchip-desc">
  <title id="mynaui-microchip-title">microchip</title>
  <desc id="mynaui-microchip-desc">媒体素材 - Mynaui Icons - microchip - MIT</desc><path fill="currentColor" d="M17 3H7a1 1 0 0 0-1 1v16a1 1 0 0 0 1 1h10a1 1 0 0 0 1-1V4a1 1 0 0 0-1-1M6 6H3m3 4H3m3 4H3m3 4H3M21 6h-3m3 4h-3m3 4h-3m3 4h-3"/></svg>