<svg xmlns="http://www.w3.org/2000/svg" viewBox="0 0 32 32" color="#2563eb" role="img" aria-labelledby="carbon-page-break-title carbon-page-break-desc">
  <title id="carbon-page-break-title">page break</title>
  <desc id="carbon-page-break-desc">文件文档 - Carbon Icons - page-break - Apache-2.0</desc><path fill="currentColor" d="M2 18H6V20H2z"/><path fill="currentColor" d="M26 18H30V20H26z"/><path fill="currentColor" d="M24,22v6H8V22H6v6a2.0058,2.0058,0,0,0,2,2H24a2.0058,2.0058,0,0,0,2-2V22Z"/><path fill="currentColor" d="M8,16V4h8v6a2.0058,2.0058,0,0,0,2,2h6v4h2V10a.9092.9092,0,0,0-.3-.7l-7-7A.9087.9087,0,0,0,18,2H8A2.0058,2.0058,0,0,0,6,4V16ZM18,4.4,23.6,10H18Z"/><path fill="currentColor" d="M10 18H14V20H10z"/><path fill="currentColor" d="M18 18H22V20H18z"/></svg>