<svg xmlns="http://www.w3.org/2000/svg" viewBox="0 0 512 512" color="#2563eb" role="img" aria-labelledby="coreui-calendar-title coreui-calendar-desc">
  <title id="coreui-calendar-title">calendar</title>
  <desc id="coreui-calendar-desc">办公效率 - CoreUI Icons - calendar - MIT</desc>
  <path fill="var(--ci-primary-color, currentColor)" d="M472 96h-88V40h-32v56H160V40h-32v56H40a24.03 24.03 0 0 0-24 24v336a24.03 24.03 0 0 0 24 24h432a24.03 24.03 0 0 0 24-24V120a24.03 24.03 0 0 0-24-24m-8 352H48V128h80v40h32v-40h192v40h32v-40h80Z" class="ci-primary"/>
  <path fill="var(--ci-primary-color, currentColor)" d="M112 224h32v32h-32zm88 0h32v32h-32zm80 0h32v32h-32zm88 0h32v32h-32zm-256 72h32v32h-32zm88 0h32v32h-32zm80 0h32v32h-32zm88 0h32v32h-32zm-256 72h32v32h-32zm88 0h32v32h-32zm80 0h32v32h-32zm88 0h32v32h-32z" class="ci-primary"/>
</svg>
