<svg xmlns="http://www.w3.org/2000/svg" viewBox="0 0 512 512" color="#2563eb" role="img" aria-labelledby="coreui-list-title coreui-list-desc">
  <title id="coreui-list-title">list</title>
  <desc id="coreui-list-desc">办公效率 - CoreUI Icons - list - MIT</desc>
  <path fill="var(--ci-primary-color, currentColor)" d="M208 80h264v32H208zM40 96a64 64 0 1 0 64-64 64.07 64.07 0 0 0-64 64m64-32a32 32 0 1 1-32 32 32.036 32.036 0 0 1 32-32m104 176h264v32H208zm-104 80a64 64 0 1 0-64-64 64.07 64.07 0 0 0 64 64m0-96a32 32 0 1 1-32 32 32.036 32.036 0 0 1 32-32m104 176h264v32H208zm-104 80a64 64 0 1 0-64-64 64.07 64.07 0 0 0 64 64m0-96a32 32 0 1 1-32 32 32.036 32.036 0 0 1 32-32" class="ci-primary"/>
</svg>
