<svg
  xmlns="http://www.w3.org/2000/svg"
  width="24"
  height="24"
  viewBox="0 0 24 24"
  fill="none"
  stroke="currentColor"
  stroke-width="2"
  stroke-linecap="round"
  stroke-linejoin="round"
  class="icon icon-tabler icons-tabler-outline icon-tabler-router-off"
 color="#2563eb" role="img" aria-labelledby="tabler-router-off-title tabler-router-off-desc">
  <title id="tabler-router-off-title">router off</title>
  <desc id="tabler-router-off-desc">通信与控制 - Tabler Icons - router-off - MIT</desc>
  <path stroke="none" d="M0 0h24v24H0z" fill="none" />
  <path fill="currentColor" d="M17 13h2a2 2 0 0 1 2 2v2m-.588 3.417c-.362 .36 -.861 .583 -1.412 .583h-14a2 2 0 0 1 -2 -2v-4a2 2 0 0 1 2 -2h8" />
  <path fill="currentColor" d="M17 17v.01" />
  <path fill="currentColor" d="M13 17v.01" />
  <path fill="currentColor" d="M12.226 8.2a4 4 0 0 1 6.024 .55" />
  <path fill="currentColor" d="M9.445 5.407a8 8 0 0 1 12.055 1.093" />
  <path fill="currentColor" d="M3 3l18 18" />
</svg>