<svg
  xmlns="http://www.w3.org/2000/svg"
  width="24"
  height="24"
  viewBox="0 0 24 24"
  fill="none"
  stroke="currentColor"
  stroke-width="2"
  stroke-linecap="round"
  stroke-linejoin="round"
  class="icon icon-tabler icons-tabler-outline icon-tabler-router"
 color="#2563eb" role="img" aria-labelledby="tabler-router-title tabler-router-desc">
  <title id="tabler-router-title">router</title>
  <desc id="tabler-router-desc">通信与控制 - Tabler Icons - router - MIT</desc>
  <path stroke="none" d="M0 0h24v24H0z" fill="none" />
  <path fill="currentColor" d="M3 15a2 2 0 0 1 2 -2h14a2 2 0 0 1 2 2v4a2 2 0 0 1 -2 2h-14a2 2 0 0 1 -2 -2l0 -4" />
  <path fill="currentColor" d="M17 17l0 .01" />
  <path fill="currentColor" d="M13 17l0 .01" />
  <path fill="currentColor" d="M15 13l0 -2" />
  <path fill="currentColor" d="M11.75 8.75a4 4 0 0 1 6.5 0" />
  <path fill="currentColor" d="M8.5 6.5a8 8 0 0 1 13 0" />
</svg>