<svg xmlns="http://www.w3.org/2000/svg" viewBox="0 0 512 512" class="ionicon" color="#2563eb" role="img" aria-labelledby="ionicons-mail-unread-title ionicons-mail-unread-desc">
  <title id="ionicons-mail-unread-title">mail unread</title>
  <desc id="ionicons-mail-unread-desc">协作通信 - Ionicons - mail-unread - MIT</desc><path fill="currentColor" d="M320 96H88a40 40 0 0 0-40 40v240a40 40 0 0 0 40 40h334.73a40 40 0 0 0 40-40V239" stroke-linecap="round" stroke-linejoin="round" class="ionicon-fill-none ionicon-stroke-width"/><path fill="currentColor" d="m112 160 144 112 87-65.67" stroke-linecap="round" stroke-linejoin="round" class="ionicon-fill-none ionicon-stroke-width"/><circle fill="currentColor" cx="431.95" cy="128.05" r="47.95"/><path fill="currentColor" d="M432 192a63.95 63.95 0 1 1 63.95-63.95A64 64 0 0 1 432 192m0-95.9a32 32 0 1 0 31.95 32 32 32 0 0 0-31.95-32"/></svg>