<svg xmlns="http://www.w3.org/2000/svg" width="24" height="24" fill="currentColor" viewBox="0 0 24 24" color="#2563eb" role="img" aria-labelledby="pixelarticons-map-pin-title pixelarticons-map-pin-desc">
  <title id="pixelarticons-map-pin-title">map pin</title>
  <desc id="pixelarticons-map-pin-desc">地图地点 - Pixelarticons - map-pin - MIT</desc>
  <path fill="currentColor" d="M7 2h10v2H7zM5 4h2v2H5zm14 0h-2v2h2zM7 17h2v2H7zm2 2h2v2H9zm6-2h2v2h-2zm-2 2h2v2h-2zm-2 2h2v2h-2zm-6-7h2v3H5zm12 0h2v3h-2zM3 6h2v8H3zm18 0h-2v8h2zM10 6h4v2h-4zM8 8h2v4H8zm2 4h4v2h-4zm4-4h2v4h-2z"/>
</svg>
