<svg xmlns="http://www.w3.org/2000/svg" width="24" height="24" fill="currentColor" viewBox="0 0 24 24" color="#2563eb" role="img" aria-labelledby="pixelarticons-sparkle-title pixelarticons-sparkle-desc">
  <title id="pixelarticons-sparkle-title">sparkle</title>
  <desc id="pixelarticons-sparkle-desc">地图地点 - Pixelarticons - sparkle - MIT</desc>
  <path fill="currentColor" d="M11 1h2v4h-2zm0 22h2v-4h-2zM9 5h2v4H9zm0 14h2v-4H9zm4-14h2v4h-2zm0 14h2v-4h-2zM5 9h4v2H5zm14 0h-4v2h4zM1 11h4v2H1zm22 0h-4v2h4zM5 13h4v2H5zm14 0h-4v2h4z"/>
</svg>
