<svg xmlns="http://www.w3.org/2000/svg" width="24" height="24" fill="currentColor" viewBox="0 0 24 24" color="#2563eb" role="img" aria-labelledby="pixelarticons-building-community-title pixelarticons-building-community-desc">
  <title id="pixelarticons-building-community-title">building community</title>
  <desc id="pixelarticons-building-community-desc">地图地点 - Pixelarticons - building-community - MIT</desc>
  <path fill="currentColor" d="M4 20h16v2H4zM20 4h2v16h-2zM10 2h10v2H10zM8 8h2v2H8zm0-4h2v2H8zm2 6h2v2h-2zm2 2h2v2h-2zm2 2h2v6h-2zm-8-4h2v2H6zm-2 2h2v2H4zm-2 2h2v6H2zm14-8h2v2h-2zm-4 0h2v2h-2zm4 4h2v2h-2zm-8 6h2v4H8z"/>
</svg>
