<svg xmlns="http://www.w3.org/2000/svg" width="24" height="24" fill="currentColor" viewBox="0 0 24 24" color="#2563eb" role="img" aria-labelledby="pixelarticons-parking-off-title pixelarticons-parking-off-desc">
  <title id="pixelarticons-parking-off-title">parking off</title>
  <desc id="pixelarticons-parking-off-desc">地图地点 - Pixelarticons - parking-off - MIT</desc>
  <path fill="currentColor" d="M8 2h12v2H8zM4 20h14v2H4zM2 6h2v14H2zm18-2h2v12h-2zM8 8h2v10H8zm4-2h2v2h-2zm2 2h2v2h-2zm-4 4h4v2h-4zm10 8h2v2h-2zm-2-2h2v2h-2zm-2-2h2v2h-2zm-2-2h2v2h-2z"/>
  <path fill="currentColor" d="M12 12h2v2h-2zm-2-2h2v2h-2zM8 8h2v2H8zM6 6h2v2H6zM4 4h2v2H4zM2 2h2v2H2z"/>
</svg>
