<svg width="24" height="24" stroke-width="1.5" viewBox="0 0 24 24" fill="none" xmlns="http://www.w3.org/2000/svg" color="#2563eb" role="img" aria-labelledby="iconoir-snow-flake-title iconoir-snow-flake-desc">
  <title id="iconoir-snow-flake-title">snow flake</title>
  <desc id="iconoir-snow-flake-desc">气象环境 - Iconoir - snow-flake - MIT</desc>
<path d="M3 7L6.5 9M21 17L17.5 15M12 12L6.5 9M12 12L6.5 15M12 12V5M12 12V18.5M12 12L17.5 15M12 12L17.5 9M12 2V5M12 22V18.5M21 7L17.5 9M3 17L6.5 15M6.5 9L3 10M6.5 9L6 5.5M6.5 15L3 14M6.5 15L6 18.5M12 5L9.5 4M12 5L14.5 4M12 18.5L14.5 20M12 18.5L9.5 20M17.5 15L18 18.5M17.5 15L21 14M17.5 9L21 10M17.5 9L18 5.5" stroke="currentColor" stroke-linecap="round" stroke-linejoin="round"/>
</svg>
