<svg xmlns="http://www.w3.org/2000/svg" width="24" height="24" fill="currentColor" viewBox="0 0 24 24" color="#2563eb" role="img" aria-labelledby="pixelarticons-bell-off-title pixelarticons-bell-off-desc">
  <title id="pixelarticons-bell-off-title">bell off</title>
  <desc id="pixelarticons-bell-off-desc">状态告警 - Pixelarticons - bell-off - MIT</desc>
  <path fill="currentColor" d="M9 2h6v2H9zm6 2h2v2h-2zM5 6h2v7H5zm12 0h2v6h-2zM3 13h2v4H3z"/>
  <path fill="currentColor" d="M3 15h14v2H3zm5 3h2v2H8zm6 0h2v2h-2zm-4 2h4v2h-4zM5 4h2v2H5zm2 2h2v2H7zm2 2h2v2H9zm2 2h2v2h-2zm2 2h2v2h-2z"/>
  <path fill="currentColor" d="M15 14h2v2h-2zm2 2h2v2h-2zm2 2h2v2h-2zM3 2h2v2H3z"/>
</svg>
