<!-- @license lucide-static v1.21.0 - ISC -->
<svg
  class="lucide lucide-file-bar-chart"
  xmlns="http://www.w3.org/2000/svg"
  width="24"
  height="24"
  viewBox="0 0 24 24"
  fill="none"
  stroke="currentColor"
  stroke-width="2"
  stroke-linecap="round"
  stroke-linejoin="round"
 color="#2563eb" role="img" aria-labelledby="lucide-file-bar-chart-title lucide-file-bar-chart-desc">
  <title id="lucide-file-bar-chart-title">file bar chart</title>
  <desc id="lucide-file-bar-chart-desc">数据图表 - Lucide - file-bar-chart - ISC</desc>
  <path fill="currentColor" d="M6 22a2 2 0 0 1-2-2V4a2 2 0 0 1 2-2h8a2.4 2.4 0 0 1 1.704.706l3.588 3.588A2.4 2.4 0 0 1 20 8v12a2 2 0 0 1-2 2z" />
  <path fill="currentColor" d="M14 2v5a1 1 0 0 0 1 1h5" />
  <path fill="currentColor" d="M8 18v-2" />
  <path fill="currentColor" d="M12 18v-4" />
  <path fill="currentColor" d="M16 18v-6" />
</svg>
