<svg xmlns="http://www.w3.org/2000/svg" width="24" height="24" viewBox="0 0 24 24" color="#2563eb" role="img" aria-labelledby="boxicons-current-location-title boxicons-current-location-desc">
  <title id="boxicons-current-location-title">current location</title>
  <desc id="boxicons-current-location-desc">输电环节 - Boxicons - current-location - (CC-BY-4.0 OR OFL-1.1 OR MIT)</desc><circle fill="currentColor" cx="12" cy="12" r="4"/><path fill="currentColor" d="M13 4.069V2h-2v2.069A8.01 8.01 0 0 0 4.069 11H2v2h2.069A8.008 8.008 0 0 0 11 19.931V22h2v-2.069A8.007 8.007 0 0 0 19.931 13H22v-2h-2.069A8.008 8.008 0 0 0 13 4.069zM12 18c-3.309 0-6-2.691-6-6s2.691-6 6-6 6 2.691 6 6-2.691 6-6 6z"/></svg>