<svg xmlns="http://www.w3.org/2000/svg" width="24" height="24" fill="none" viewBox="0 0 24 24" color="#2563eb" role="img" aria-labelledby="flowbite-code-merge-title flowbite-code-merge-desc">
  <title id="flowbite-code-merge-title">code merge</title>
  <desc id="flowbite-code-merge-desc">开发工具 - Flowbite Icons - code-merge - MIT</desc>
  <path stroke="currentColor" stroke-linecap="round" stroke-linejoin="round" stroke-width="2" d="M8 8v8m0-8a2 2 0 1 0 0-4 2 2 0 0 0 0 4Zm0 8a2 2 0 1 0 0 4 2 2 0 0 0 0-4Zm6-2a2 2 0 1 1 4 0 2 2 0 0 1-4 0Zm0 0h-1a5 5 0 0 1-5-5v-.5"/>
</svg>
