<svg xmlns="http://www.w3.org/2000/svg" viewBox="0 0 32 32" color="#2563eb" role="img" aria-labelledby="carbon-warning-other-title carbon-warning-other-desc">
  <title id="carbon-warning-other-title">warning other</title>
  <desc id="carbon-warning-other-desc">状态告警 - Carbon Icons - warning-other - Apache-2.0</desc><path fill="currentColor" d="M18 20H30V22H18z"/><path fill="currentColor" d="M18 24H30V26H18z"/><path fill="currentColor" d="M18 28H30V30H18z"/><path fill="currentColor" d="M14,18a1.5,1.5,0,1,0,1.5,1.5A1.5,1.5,0,0,0,14,18Z"/><path fill="currentColor" d="M13 7H15V16H13z"/><path fill="currentColor" d="M14,4A10.0111,10.0111,0,0,1,24,14h2A12,12,0,1,0,14,26V24A10,10,0,0,1,14,4Z"/></svg>