<svg xmlns="http://www.w3.org/2000/svg" viewBox="0 0 32 32" color="#2563eb" role="img" aria-labelledby="carbon-shape-join-title carbon-shape-join-desc">
  <title id="carbon-shape-join-title">shape join</title>
  <desc id="carbon-shape-join-desc">画布工具 - Carbon Icons - shape-join - Apache-2.0</desc><path fill="currentColor" d="M28,10H22V4a2.0025,2.0025,0,0,0-2-2H4A2.0025,2.0025,0,0,0,2,4V20a2.0025,2.0025,0,0,0,2,2h6v6a2.0025,2.0025,0,0,0,2,2H28a2.0025,2.0025,0,0,0,2-2V12A2.0025,2.0025,0,0,0,28,10ZM4,20V4h6V20Zm18,8V12h6V28Z"/></svg>