<svg xmlns="http://www.w3.org/2000/svg" viewBox="0 0 24 24" color="#2563eb" role="img" aria-labelledby="eva-icons-layout-title eva-icons-layout-desc">
  <title id="eva-icons-layout-title">layout</title>
  <desc id="eva-icons-layout-desc">画布工具 - Eva Icons - layout - MIT</desc><g data-name="Layer 2"><g data-name="layout"><rect fill="currentColor" width="24" height="24" opacity="0"/><path fill="currentColor" d="M18 3H6a3 3 0 0 0-3 3v12a3 3 0 0 0 3 3h12a3 3 0 0 0 3-3V6a3 3 0 0 0-3-3zM6 5h12a1 1 0 0 1 1 1v2H5V6a1 1 0 0 1 1-1zM5 18v-8h6v9H6a1 1 0 0 1-1-1zm13 1h-5v-9h6v8a1 1 0 0 1-1 1z"/></g></g></svg>