<svg xmlns="http://www.w3.org/2000/svg" viewBox="0 0 24 24" color="#2563eb" role="img" aria-labelledby="eva-icons-grid-title eva-icons-grid-desc">
  <title id="eva-icons-grid-title">grid</title>
  <desc id="eva-icons-grid-desc">画布工具 - Eva Icons - grid - MIT</desc><g data-name="Layer 2"><g data-name="grid"><rect fill="currentColor" width="24" height="24" opacity="0"/><path fill="currentColor" d="M9 3H5a2 2 0 0 0-2 2v4a2 2 0 0 0 2 2h4a2 2 0 0 0 2-2V5a2 2 0 0 0-2-2zM5 9V5h4v4z"/><path fill="currentColor" d="M19 3h-4a2 2 0 0 0-2 2v4a2 2 0 0 0 2 2h4a2 2 0 0 0 2-2V5a2 2 0 0 0-2-2zm-4 6V5h4v4z"/><path fill="currentColor" d="M9 13H5a2 2 0 0 0-2 2v4a2 2 0 0 0 2 2h4a2 2 0 0 0 2-2v-4a2 2 0 0 0-2-2zm-4 6v-4h4v4z"/><path fill="currentColor" d="M19 13h-4a2 2 0 0 0-2 2v4a2 2 0 0 0 2 2h4a2 2 0 0 0 2-2v-4a2 2 0 0 0-2-2zm-4 6v-4h4v4z"/></g></g></svg>