<svg xmlns="http://www.w3.org/2000/svg" viewBox="0 0 24 24" color="#2563eb" role="img" aria-labelledby="eva-icons-expand-title eva-icons-expand-desc">
  <title id="eva-icons-expand-title">expand</title>
  <desc id="eva-icons-expand-desc">画布工具 - Eva Icons - expand - MIT</desc><g data-name="Layer 2"><g data-name="expand"><rect fill="currentColor" width="24" height="24" transform="rotate(180 12 12)" opacity="0"/><path fill="currentColor" d="M20 5a1 1 0 0 0-1-1h-5a1 1 0 0 0 0 2h2.57l-3.28 3.29a1 1 0 0 0 0 1.42 1 1 0 0 0 1.42 0L18 7.42V10a1 1 0 0 0 1 1 1 1 0 0 0 1-1z"/><path fill="currentColor" d="M10.71 13.29a1 1 0 0 0-1.42 0L6 16.57V14a1 1 0 0 0-1-1 1 1 0 0 0-1 1v5a1 1 0 0 0 1 1h5a1 1 0 0 0 0-2H7.42l3.29-3.29a1 1 0 0 0 0-1.42z"/></g></g></svg>