<svg xmlns="http://www.w3.org/2000/svg" viewBox="0 0 24 24" color="#2563eb" role="img" aria-labelledby="eva-icons-crop-title eva-icons-crop-desc">
  <title id="eva-icons-crop-title">crop</title>
  <desc id="eva-icons-crop-desc">画布工具 - Eva Icons - crop - MIT</desc><g data-name="Layer 2"><g data-name="crop"><rect fill="currentColor" width="24" height="24" opacity="0"/><path fill="currentColor" d="M21 16h-3V8.56A2.56 2.56 0 0 0 15.44 6H8V3a1 1 0 0 0-2 0v3H3a1 1 0 0 0 0 2h3v7.44A2.56 2.56 0 0 0 8.56 18H16v3a1 1 0 0 0 2 0v-3h3a1 1 0 0 0 0-2zM8.56 16a.56.56 0 0 1-.56-.56V8h7.44a.56.56 0 0 1 .56.56V16z"/></g></g></svg>