<svg
  xmlns="http://www.w3.org/2000/svg"
  width="24"
  height="24"
  viewBox="0 0 24 24"
  fill="none"
  stroke="currentColor"
  stroke-width="2"
  stroke-linecap="round"
  stroke-linejoin="round"
  class="icon icon-tabler icons-tabler-outline icon-tabler-home-lock"
 color="#2563eb" role="img" aria-labelledby="tabler-home-lock-title tabler-home-lock-desc">
  <title id="tabler-home-lock-title">home lock</title>
  <desc id="tabler-home-lock-desc">状态告警 - Tabler Icons - home-lock - MIT</desc>
  <path stroke="none" d="M0 0h24v24H0z" fill="none" />
  <path fill="currentColor" d="M5 12h-2l9 -9l8 8" />
  <path fill="currentColor" d="M5 12v7a2 2 0 0 0 2 2h6" />
  <path fill="currentColor" d="M9 21v-6a2 2 0 0 1 2 -2h2c.688 0 1.294 .347 1.654 .875" />
  <path fill="currentColor" d="M17 19a1 1 0 0 1 1 -1h3a1 1 0 0 1 1 1v2a1 1 0 0 1 -1 1h-3a1 1 0 0 1 -1 -1v-2"  />
  <path fill="currentColor" d="M18 18v-1.5a1.5 1.5 0 1 1 3 0v1.5" />
</svg>