<svg
  xmlns="http://www.w3.org/2000/svg"
  width="24"
  height="24"
  viewBox="0 0 24 24"
  fill="none"
  stroke="currentColor"
  stroke-width="2"
  stroke-linecap="round"
  stroke-linejoin="round"
  class="icon icon-tabler icons-tabler-outline icon-tabler-bell-question"
 color="#2563eb" role="img" aria-labelledby="tabler-bell-question-title tabler-bell-question-desc">
  <title id="tabler-bell-question-title">bell question</title>
  <desc id="tabler-bell-question-desc">状态告警 - Tabler Icons - bell-question - MIT</desc>
  <path stroke="none" d="M0 0h24v24H0z" fill="none" />
  <path fill="currentColor" d="M13.5 17h-9.5a4 4 0 0 0 2 -3v-3a7 7 0 0 1 4 -6a2 2 0 1 1 4 0a7 7 0 0 1 4 6" />
  <path fill="currentColor" d="M9 17v1a3 3 0 0 0 5.914 .716" />
  <path fill="currentColor" d="M19 22v.01" />
  <path fill="currentColor" d="M19 19a2.003 2.003 0 0 0 .914 -3.782a1.98 1.98 0 0 0 -2.414 .483" />
</svg>