<!-- @license lucide-static v1.21.0 - ISC -->
<svg
  class="lucide lucide-solar-panel"
  xmlns="http://www.w3.org/2000/svg"
  width="24"
  height="24"
  viewBox="0 0 24 24"
  fill="none"
  stroke="currentColor"
  stroke-width="2"
  stroke-linecap="round"
  stroke-linejoin="round"
 color="#2563eb" role="img" aria-labelledby="lucide-solar-panel-title lucide-solar-panel-desc">
  <title id="lucide-solar-panel-title">solar panel</title>
  <desc id="lucide-solar-panel-desc">风光水发电 - Lucide - solar-panel - ISC</desc>
  <path fill="currentColor" d="M11 2h2" />
  <path fill="currentColor" d="m14.28 14-4.56 8" />
  <path fill="currentColor" d="m21 22-1.558-4H4.558" />
  <path fill="currentColor" d="M3 10v2" />
  <path fill="currentColor" d="M6.245 15.04A2 2 0 0 1 8 14h12a1 1 0 0 1 .864 1.505l-3.11 5.457A2 2 0 0 1 16 22H4a1 1 0 0 1-.863-1.506z" />
  <path fill="currentColor" d="M7 2a4 4 0 0 1-4 4" />
  <path fill="currentColor" d="m8.66 7.66 1.41 1.41" />
</svg>
