<!-- @license lucide-static v1.21.0 - ISC -->
<svg
  class="lucide lucide-waves-ladder"
  xmlns="http://www.w3.org/2000/svg"
  width="24"
  height="24"
  viewBox="0 0 24 24"
  fill="none"
  stroke="currentColor"
  stroke-width="2"
  stroke-linecap="round"
  stroke-linejoin="round"
 color="#2563eb" role="img" aria-labelledby="lucide-waves-ladder-title lucide-waves-ladder-desc">
  <title id="lucide-waves-ladder-title">waves ladder</title>
  <desc id="lucide-waves-ladder-desc">风光水发电 - Lucide - waves-ladder - ISC</desc>
  <path fill="currentColor" d="M19 5a2 2 0 0 0-2 2v11" />
  <path fill="currentColor" d="M2 18c.6.5 1.2 1 2.5 1 2.5 0 2.5-2 5-2 2.6 0 2.4 2 5 2 2.5 0 2.5-2 5-2 1.3 0 1.9.5 2.5 1" />
  <path fill="currentColor" d="M7 13h10" />
  <path fill="currentColor" d="M7 9h10" />
  <path fill="currentColor" d="M9 5a2 2 0 0 0-2 2v11" />
</svg>
