<svg xmlns="http://www.w3.org/2000/svg" width="24" height="24" fill="currentColor" viewBox="0 0 24 24" color="#2563eb" role="img" aria-labelledby="pixelarticons-ai-scan-title pixelarticons-ai-scan-desc">
  <title id="pixelarticons-ai-scan-title">ai scan</title>
  <desc id="pixelarticons-ai-scan-desc">云与基础设施 - Pixelarticons - ai-scan - MIT</desc>
  <path fill="currentColor" d="M9 11h2v2H9zm4 0h2v2h-2zM7 7h10v2H7zM5 9h2v6H5zm2 6h10v2H7zm10-6h2v6h-2zm-6-4h2v2h-2zM4 2h4v2H4zm0 18h4v2H4zM16 2h4v2h-4zm0 18h4v2h-4zM2 4h2v4H2zm0 12h2v4H2zM20 4h2v4h-2zm0 12h2v4h-2z"/>
</svg>
