<!-- @license lucide-static v1.21.0 - ISC -->
<svg
  class="lucide lucide-folder-bookmark"
  xmlns="http://www.w3.org/2000/svg"
  width="24"
  height="24"
  viewBox="0 0 24 24"
  fill="none"
  stroke="currentColor"
  stroke-width="2"
  stroke-linecap="round"
  stroke-linejoin="round"
 color="#2563eb" role="img" aria-labelledby="lucide-folder-bookmark-title lucide-folder-bookmark-desc">
  <title id="lucide-folder-bookmark-title">folder bookmark</title>
  <desc id="lucide-folder-bookmark-desc">文件文档 - Lucide - folder-bookmark - ISC</desc>
  <path fill="currentColor" d="M12 6v8l3-3 3 3V6" />
  <path fill="currentColor" d="M20 20a2 2 0 0 0 2-2V8a2 2 0 0 0-2-2h-7.9a2 2 0 0 1-1.69-.9L9.6 3.9A2 2 0 0 0 7.93 3H4a2 2 0 0 0-2 2v13a2 2 0 0 0 2 2z" />
</svg>
