<!-- @license lucide-static v1.21.0 - ISC -->
<svg
  class="lucide lucide-files"
  xmlns="http://www.w3.org/2000/svg"
  width="24"
  height="24"
  viewBox="0 0 24 24"
  fill="none"
  stroke="currentColor"
  stroke-width="2"
  stroke-linecap="round"
  stroke-linejoin="round"
 color="#2563eb" role="img" aria-labelledby="lucide-files-title lucide-files-desc">
  <title id="lucide-files-title">files</title>
  <desc id="lucide-files-desc">文件文档 - Lucide - files - ISC</desc>
  <path fill="currentColor" d="M15 2h-4a2 2 0 0 0-2 2v11a2 2 0 0 0 2 2h8a2 2 0 0 0 2-2V8" />
  <path fill="currentColor" d="M16.706 2.706A2.4 2.4 0 0 0 15 2v5a1 1 0 0 0 1 1h5a2.4 2.4 0 0 0-.706-1.706z" />
  <path fill="currentColor" d="M5 7a2 2 0 0 0-2 2v11a2 2 0 0 0 2 2h8a2 2 0 0 0 1.732-1" />
</svg>
