<!-- @license lucide-static v1.21.0 - ISC -->
<svg
  class="lucide lucide-notepad-text-dashed"
  xmlns="http://www.w3.org/2000/svg"
  width="24"
  height="24"
  viewBox="0 0 24 24"
  fill="none"
  stroke="currentColor"
  stroke-width="2"
  stroke-linecap="round"
  stroke-linejoin="round"
 color="#2563eb" role="img" aria-labelledby="lucide-notepad-text-dashed-title lucide-notepad-text-dashed-desc">
  <title id="lucide-notepad-text-dashed-title">notepad text dashed</title>
  <desc id="lucide-notepad-text-dashed-desc">文件文档 - Lucide - notepad-text-dashed - ISC</desc>
  <path fill="currentColor" d="M8 2v4" />
  <path fill="currentColor" d="M12 2v4" />
  <path fill="currentColor" d="M16 2v4" />
  <path fill="currentColor" d="M16 4h2a2 2 0 0 1 2 2v2" />
  <path fill="currentColor" d="M20 12v2" />
  <path fill="currentColor" d="M20 18v2a2 2 0 0 1-2 2h-1" />
  <path fill="currentColor" d="M13 22h-2" />
  <path fill="currentColor" d="M7 22H6a2 2 0 0 1-2-2v-2" />
  <path fill="currentColor" d="M4 14v-2" />
  <path fill="currentColor" d="M4 8V6a2 2 0 0 1 2-2h2" />
  <path fill="currentColor" d="M8 10h6" />
  <path fill="currentColor" d="M8 14h8" />
  <path fill="currentColor" d="M8 18h5" />
</svg>
