<!-- @license lucide-static v1.21.0 - ISC -->
<svg
  class="lucide lucide-file-text"
  xmlns="http://www.w3.org/2000/svg"
  width="24"
  height="24"
  viewBox="0 0 24 24"
  fill="none"
  stroke="currentColor"
  stroke-width="2"
  stroke-linecap="round"
  stroke-linejoin="round"
 color="#2563eb" role="img" aria-labelledby="lucide-file-text-title lucide-file-text-desc">
  <title id="lucide-file-text-title">file text</title>
  <desc id="lucide-file-text-desc">文件文档 - Lucide - file-text - ISC</desc>
  <path fill="currentColor" d="M6 22a2 2 0 0 1-2-2V4a2 2 0 0 1 2-2h8a2.4 2.4 0 0 1 1.704.706l3.588 3.588A2.4 2.4 0 0 1 20 8v12a2 2 0 0 1-2 2z" />
  <path fill="currentColor" d="M14 2v5a1 1 0 0 0 1 1h5" />
  <path fill="currentColor" d="M10 9H8" />
  <path fill="currentColor" d="M16 13H8" />
  <path fill="currentColor" d="M16 17H8" />
</svg>
