<svg xmlns="http://www.w3.org/2000/svg" width="16" height="16" fill="currentColor" class="bi bi-paperclip" viewBox="0 0 16 16" color="#2563eb" role="img" aria-labelledby="bootstrap-paperclip-title bootstrap-paperclip-desc">
  <title id="bootstrap-paperclip-title">paperclip</title>
  <desc id="bootstrap-paperclip-desc">协作通信 - Bootstrap Icons - paperclip - MIT</desc>
  <path fill="currentColor" d="M4.5 3a2.5 2.5 0 0 1 5 0v9a1.5 1.5 0 0 1-3 0V5a.5.5 0 0 1 1 0v7a.5.5 0 0 0 1 0V3a1.5 1.5 0 1 0-3 0v9a2.5 2.5 0 0 0 5 0V5a.5.5 0 0 1 1 0v7a3.5 3.5 0 1 1-7 0z"/>
</svg>