<svg xmlns="http://www.w3.org/2000/svg" width="16" height="16" fill="currentColor" class="bi bi-phone" viewBox="0 0 16 16" color="#2563eb" role="img" aria-labelledby="bootstrap-phone-title bootstrap-phone-desc">
  <title id="bootstrap-phone-title">phone</title>
  <desc id="bootstrap-phone-desc">协作通信 - Bootstrap Icons - phone - MIT</desc>
  <path fill="currentColor" d="M11 1a1 1 0 0 1 1 1v12a1 1 0 0 1-1 1H5a1 1 0 0 1-1-1V2a1 1 0 0 1 1-1zM5 0a2 2 0 0 0-2 2v12a2 2 0 0 0 2 2h6a2 2 0 0 0 2-2V2a2 2 0 0 0-2-2z"/>
  <path fill="currentColor" d="M8 14a1 1 0 1 0 0-2 1 1 0 0 0 0 2"/>
</svg>