<svg xmlns="http://www.w3.org/2000/svg" width="16" height="16" fill="currentColor" class="bi bi-hdd-network" viewBox="0 0 16 16" color="#2563eb" role="img" aria-labelledby="bootstrap-hdd-network-title bootstrap-hdd-network-desc">
  <title id="bootstrap-hdd-network-title">hdd network</title>
  <desc id="bootstrap-hdd-network-desc">协作通信 - Bootstrap Icons - hdd-network - MIT</desc>
  <path fill="currentColor" d="M4.5 5a.5.5 0 1 0 0-1 .5.5 0 0 0 0 1M3 4.5a.5.5 0 1 1-1 0 .5.5 0 0 1 1 0"/>
  <path fill="currentColor" d="M0 4a2 2 0 0 1 2-2h12a2 2 0 0 1 2 2v1a2 2 0 0 1-2 2H8.5v3a1.5 1.5 0 0 1 1.5 1.5h5.5a.5.5 0 0 1 0 1H10A1.5 1.5 0 0 1 8.5 14h-1A1.5 1.5 0 0 1 6 12.5H.5a.5.5 0 0 1 0-1H6A1.5 1.5 0 0 1 7.5 10V7H2a2 2 0 0 1-2-2zm1 0v1a1 1 0 0 0 1 1h12a1 1 0 0 0 1-1V4a1 1 0 0 0-1-1H2a1 1 0 0 0-1 1m6 7.5v1a.5.5 0 0 0 .5.5h1a.5.5 0 0 0 .5-.5v-1a.5.5 0 0 0-.5-.5h-1a.5.5 0 0 0-.5.5"/>
</svg>