<svg xmlns="http://www.w3.org/2000/svg" viewBox="0 0 24 24" color="#2563eb" role="img" aria-labelledby="eos-icons-collections-bookmark-title eos-icons-collections-bookmark-desc">
  <title id="eos-icons-collections-bookmark-title">collections bookmark</title>
  <desc id="eos-icons-collections-bookmark-desc">办公效率 - EOS Icons - collections-bookmark - MIT</desc><path fill="currentColor" d="M4 6H2v14c0 1.1.9 2 2 2h14v-2H4V6zm16-4H8c-1.1 0-2 .9-2 2v12c0 1.1.9 2 2 2h12c1.1 0 2-.9 2-2V4c0-1.1-.9-2-2-2zm-3 2v5l-1-.75L15 9V4h2zm3 12H8V4h5v9l3-2.25L19 13V4h1v12z"/></svg>