<svg xmlns="http://www.w3.org/2000/svg" width="48" height="48" viewBox="0 -960 960 960" color="#2563eb" role="img" aria-labelledby="material-symbols-screenshot-monitor-title material-symbols-screenshot-monitor-desc">
  <title id="material-symbols-screenshot-monitor-title">screenshot monitor</title>
  <desc id="material-symbols-screenshot-monitor-desc">发电环节 - Material Symbols - screenshot_monitor - Apache-2.0</desc><path fill="currentColor" d="M600-320h160v-160h-40v120H600v40ZM200-560h40v-120h120v-40H200v160Zm130 440v-80H140q-24 0-42-18t-18-42v-520q0-24 18-42t42-18h680q24 0 42 18t18 42v520q0 24-18 42t-42 18H630v80H330ZM140-260h680v-520H140v520Zm0 0v-520 520Z"/></svg>