<svg xmlns="http://www.w3.org/2000/svg" width="16" height="16" fill="none" viewBox="0 0 16 16" color="#2563eb" role="img" aria-labelledby="gravity-ui-square-exclamation-title gravity-ui-square-exclamation-desc">
  <title id="gravity-ui-square-exclamation-title">square exclamation</title>
  <desc id="gravity-ui-square-exclamation-desc">状态告警 - Gravity UI Icons - square-exclamation - MIT</desc><path fill="currentColor" fill-rule="evenodd" d="M11.5 3h-7A1.5 1.5 0 0 0 3 4.5v7A1.5 1.5 0 0 0 4.5 13h7a1.5 1.5 0 0 0 1.5-1.5v-7A1.5 1.5 0 0 0 11.5 3m-7-1.5a3 3 0 0 0-3 3v7a3 3 0 0 0 3 3h7a3 3 0 0 0 3-3v-7a3 3 0 0 0-3-3zm4.5 9a1 1 0 1 1-2 0 1 1 0 0 1 2 0M8.75 5a.75.75 0 0 0-1.5 0v2.5a.75.75 0 0 0 1.5 0z" clip-rule="evenodd"/></svg>