<svg xmlns="http://www.w3.org/2000/svg" width="16" height="16" fill="none" viewBox="0 0 16 16" color="#2563eb" role="img" aria-labelledby="gravity-ui-text-align-left-title gravity-ui-text-align-left-desc">
  <title id="gravity-ui-text-align-left-title">text align left</title>
  <desc id="gravity-ui-text-align-left-desc">画布工具 - Gravity UI Icons - text-align-left - MIT</desc><path fill="currentColor" fill-rule="evenodd" d="M2.75 2a.75.75 0 0 0 0 1.5h10.5a.75.75 0 0 0 0-1.5zm0 7a.75.75 0 0 0 0 1.5h10.5a.75.75 0 0 0 0-1.5zm0 3.5a.75.75 0 0 0 0 1.5h6.5a.75.75 0 0 0 0-1.5zM2 6.25a.75.75 0 0 1 .75-.75h6.5a.75.75 0 0 1 0 1.5h-6.5A.75.75 0 0 1 2 6.25" clip-rule="evenodd"/></svg>