<svg xmlns="http://www.w3.org/2000/svg" width="16" height="16" fill="none" viewBox="0 0 16 16" color="#2563eb" role="img" aria-labelledby="gravity-ui-crop-title gravity-ui-crop-desc">
  <title id="gravity-ui-crop-title">crop</title>
  <desc id="gravity-ui-crop-desc">画布工具 - Gravity UI Icons - crop - MIT</desc><path fill="currentColor" fill-rule="evenodd" d="M3.5 0a.75.75 0 0 1 .75.75V2.5h8.25a.75.75 0 0 1 .75.75v8.5h2a.75.75 0 0 1 0 1.5h-2v2a.75.75 0 0 1-1.5 0v-2H3.5a.75.75 0 0 1-.75-.75V4h-2a.75.75 0 0 1 0-1.5h2V.75A.75.75 0 0 1 3.5 0m.75 4v7.75h7.5V4z" clip-rule="evenodd"/></svg>