<svg xmlns="http://www.w3.org/2000/svg" viewBox="0 0 512 512" color="#2563eb" role="img" aria-labelledby="coreui-industry-title coreui-industry-desc">
  <title id="coreui-industry-title">industry</title>
  <desc id="coreui-industry-desc">工业设施 - CoreUI Icons - industry - MIT</desc>
  <path fill="var(--ci-primary-color, currentColor)" d="M459.26 96 328 225.7V96h-34.525L168 223.267V16H16v480h480V96ZM464 464H48V48h88v216h36.778L296 139.018V264h38.764L464 136.3Z" class="ci-primary"/>
  <path fill="var(--ci-primary-color, currentColor)" d="M136 328v8h32v-32h-32zm0 48h32v32h-32zm80-48v8h32v-32h-32zm0 48h32v32h-32zm80-48v8h32v-32h-32zm0 48h32v32h-32zm80-72h32v32h-32zm0 72h32v32h-32z" class="ci-primary"/>
</svg>
