<svg xmlns="http://www.w3.org/2000/svg" width="48" height="48" viewBox="0 -960 960 960" color="#2563eb" role="img" aria-labelledby="material-symbols-award-star-title material-symbols-award-star-desc">
  <title id="material-symbols-award-star-title">award star</title>
  <desc id="material-symbols-award-star-desc">教育科研 - Material Symbols - award_star - Apache-2.0</desc><path fill="currentColor" d="m363-310 117-71 117 71-31-133 104-90-137-11-53-126-53 126-137 11 104 90-31 133ZM481-29 346-160H160v-186L26-480l134-134v-186h186l135-134 133 134h186v186l134 134-134 134v186H614L481-29Zm0-84 108-107h151v-151l109-109-109-109v-151H589L481-849 371-740H220v151L111-480l109 109v151h150l111 107Zm0-368Z"/></svg>