<svg xmlns="http://www.w3.org/2000/svg" width="48" height="48" viewBox="0 -960 960 960" color="#2563eb" role="img" aria-labelledby="material-symbols-science-title material-symbols-science-desc">
  <title id="material-symbols-science-title">science</title>
  <desc id="material-symbols-science-desc">教育科研 - Material Symbols - science - Apache-2.0</desc><path fill="currentColor" d="M172-120q-41.78 0-59.39-39T124-230l248-280v-270h-52q-12.75 0-21.37-8.68-8.63-8.67-8.63-21.5 0-12.82 8.63-21.32 8.62-8.5 21.37-8.5h320q12.75 0 21.38 8.68 8.62 8.67 8.62 21.5 0 12.82-8.62 21.32-8.63 8.5-21.38 8.5h-52v270l248 280q29 32 11.39 71T788-120H172Zm-12-60h640L528-488v-292h-96v292L160-180Zm318-300Z"/></svg>