<svg viewBox="64 64 896 896" focusable="false" xmlns="http://www.w3.org/2000/svg" color="#2563eb" role="img" aria-labelledby="ant-design-icons-area-chart-title ant-design-icons-area-chart-desc">
  <title id="ant-design-icons-area-chart-title">area chart</title>
  <desc id="ant-design-icons-area-chart-desc">数据图表 - Ant Design Icons - area-chart - MIT</desc><path fill="currentColor" d="M888 792H200V168c0-4.4-3.6-8-8-8h-56c-4.4 0-8 3.6-8 8v688c0 4.4 3.6 8 8 8h752c4.4 0 8-3.6 8-8v-56c0-4.4-3.6-8-8-8zm-616-64h536c4.4 0 8-3.6 8-8V284c0-7.2-8.7-10.7-13.7-5.7L592 488.6l-125.4-124a8.03 8.03 0 00-11.3 0l-189 189.6a7.87 7.87 0 00-2.3 5.6V720c0 4.4 3.6 8 8 8z" /></svg>