<svg viewBox="64 64 896 896" focusable="false" xmlns="http://www.w3.org/2000/svg" color="#2563eb" role="img" aria-labelledby="ant-design-icons-line-chart-title ant-design-icons-line-chart-desc">
  <title id="ant-design-icons-line-chart-title">line chart</title>
  <desc id="ant-design-icons-line-chart-desc">数据图表 - Ant Design Icons - line-chart - MIT</desc><path fill="currentColor" d="M888 792H200V168c0-4.4-3.6-8-8-8h-56c-4.4 0-8 3.6-8 8v688c0 4.4 3.6 8 8 8h752c4.4 0 8-3.6 8-8v-56c0-4.4-3.6-8-8-8zM305.8 637.7c3.1 3.1 8.1 3.1 11.3 0l138.3-137.6L583 628.5c3.1 3.1 8.2 3.1 11.3 0l275.4-275.3c3.1-3.1 3.1-8.2 0-11.3l-39.6-39.6a8.03 8.03 0 00-11.3 0l-230 229.9L461.4 404a8.03 8.03 0 00-11.3 0L266.3 586.7a8.03 8.03 0 000 11.3l39.5 39.7z" /></svg>