<svg xmlns="http://www.w3.org/2000/svg" fill="none" viewBox="0 0 24 24" stroke-width="1.5" stroke="currentColor" aria-hidden="true" data-slot="icon" color="#2563eb" role="img" aria-labelledby="heroicons-video-camera-slash-title heroicons-video-camera-slash-desc">
  <title id="heroicons-video-camera-slash-title">video camera slash</title>
  <desc id="heroicons-video-camera-slash-desc">媒体素材 - Heroicons - video-camera-slash - MIT</desc>
  <path fill="currentColor" stroke-linecap="round" stroke-linejoin="round" d="m15.75 10.5 4.72-4.72a.75.75 0 0 1 1.28.53v11.38a.75.75 0 0 1-1.28.53l-4.72-4.72M12 18.75H4.5a2.25 2.25 0 0 1-2.25-2.25V9m12.841 9.091L16.5 19.5m-1.409-1.409c.407-.407.659-.97.659-1.591v-9a2.25 2.25 0 0 0-2.25-2.25h-9c-.621 0-1.184.252-1.591.659m12.182 12.182L2.909 5.909M1.5 4.5l1.409 1.409"/>
</svg>
