<svg width="24" height="24" viewBox="0 0 24 24" xmlns="http://www.w3.org/2000/svg" color="#2563eb" role="img" aria-labelledby="calendar-title calendar-desc">
  <title id="calendar-title">Calendar</title>
  <desc id="calendar-desc">数据图表 - calendar, 24px regular</desc><path fill="currentColor" d="M17.75 3C19.55 3 21 4.46 21 6.25v11.5c0 1.8-1.46 3.25-3.25 3.25H6.25A3.25 3.25 0 0 1 3 17.75V6.25C3 4.45 4.46 3 6.25 3h11.5Zm1.75 5.5h-15v9.25c0 .97.78 1.75 1.75 1.75h11.5c.97 0 1.75-.78 1.75-1.75V8.5Zm-11.75 6a1.25 1.25 0 1 1 0 2.5 1.25 1.25 0 0 1 0-2.5Zm4.25 0a1.25 1.25 0 1 1 0 2.5 1.25 1.25 0 0 1 0-2.5Zm-4.25-4a1.25 1.25 0 1 1 0 2.5 1.25 1.25 0 0 1 0-2.5Zm4.25 0a1.25 1.25 0 1 1 0 2.5 1.25 1.25 0 0 1 0-2.5Zm4.25 0a1.25 1.25 0 1 1 0 2.5 1.25 1.25 0 0 1 0-2.5Zm1.5-6H6.25c-.97 0-1.75.78-1.75 1.75V7h15v-.75c0-.97-.78-1.75-1.75-1.75Z"/></svg>