<svg width="24" height="24" viewBox="0 0 24 24" xmlns="http://www.w3.org/2000/svg" color="#2563eb" role="img" aria-labelledby="gauge-rotate-315-title gauge-rotate-315-desc">
  <title id="gauge-rotate-315-title">Gauge Rotate 315</title>
  <desc id="gauge-rotate-315-desc">数据图表 - gauge_rotate_315, 24px regular</desc><path fill="currentColor" d="M12 2a10 10 0 1 1-6.14 2.11c.48-.38 1.14 0 1.14.61 0 .26-.12.5-.32.65A8.48 8.48 0 0 0 12 20.5a8.5 8.5 0 0 0 .75-16.97v1.72a.75.75 0 0 1-1.5 0V2.66a.7.7 0 0 1 .69-.66H12ZM6.89 7.86c-.26-.6.37-1.23.97-.97l.13.07L9.56 8a239.6 239.6 0 0 1 3.31 2.25c.4.29.75.54.9.69a2 2 0 0 1-2.83 2.83c-.15-.15-.4-.5-.7-.9L9.2 11.35a307.5 307.5 0 0 1-2.23-3.35l-.07-.13Z"/></svg>