<svg width="24" height="24" viewBox="0 0 24 24" xmlns="http://www.w3.org/2000/svg" color="#2563eb" role="img" aria-labelledby="table-freeze-column-dismiss-title table-freeze-column-dismiss-desc">
  <title id="table-freeze-column-dismiss-title">Table Freeze Column Dismiss</title>
  <desc id="table-freeze-column-dismiss-desc">数据图表 - table_freeze_column_dismiss, 24px regular</desc><path fill="currentColor" d="M17.5 12a5.5 5.5 0 1 1 0 11 5.5 5.5 0 0 1 0-11Zm.25-9C19.55 3 21 4.46 21 6.25v5.77c-.46-.3-.97-.53-1.5-.7V10h-4v1.31c-.53.18-1.04.42-1.5.71V10h-4v4h2.02c-.3.46-.53.97-.7 1.5H10v4h1.31c.18.53.42 1.04.71 1.5H6.25A3.25 3.25 0 0 1 3 17.75V6.25C3 4.45 4.46 3 6.25 3h11.5Zm2.1 12.15a.5.5 0 0 0-.7 0l-1.65 1.64-1.65-1.64a.5.5 0 1 0-.7.7l1.64 1.65-1.64 1.65a.5.5 0 1 0 .7.7l1.65-1.64 1.65 1.64a.5.5 0 1 0 .7-.7l-1.64-1.65 1.64-1.65a.5.5 0 0 0 0-.7ZM6.25 4.5c-.97 0-1.75.78-1.75 1.75v11.5c0 .97.78 1.75 1.75 1.75H8.5v-15H6.25Zm3.75 4h4v-4h-4v4Zm5.5 0h4V6.25c0-.97-.78-1.75-1.75-1.75H15.5v4Z"/></svg>