<svg xmlns="http://www.w3.org/2000/svg" viewBox="0 0 512 512" color="#2563eb" role="img" aria-labelledby="coreui-paint-title coreui-paint-desc">
  <title id="coreui-paint-title">paint</title>
  <desc id="coreui-paint-desc">媒体素材 - CoreUI Icons - paint - MIT</desc>
  <path fill="var(--ci-primary-color, currentColor)" d="M418.968 215.116A71.976 71.976 0 0 0 408.023 72H384V40a24.03 24.03 0 0 0-24-24H72a24.03 24.03 0 0 0-24 24v104a24.03 24.03 0 0 0 24 24h288a24.03 24.03 0 0 0 24-24v-40h24.023a39.977 39.977 0 0 1 6.079 79.489L240 210.273V280h-56v216h144V280h-56v-42.273ZM352 136H80V48h272Zm-56 176v152h-80V312Z" class="ci-primary"/>
</svg>
