<svg xmlns="http://www.w3.org/2000/svg" viewBox="0 0 512 512" color="#2563eb" role="img" aria-labelledby="coreui-speaker-title coreui-speaker-desc">
  <title id="coreui-speaker-title">speaker</title>
  <desc id="coreui-speaker-desc">媒体素材 - CoreUI Icons - speaker - MIT</desc>
  <path fill="var(--ci-primary-color, currentColor)" d="M384 16H128a32.036 32.036 0 0 0-32 32v416a32.036 32.036 0 0 0 32 32h256a32.036 32.036 0 0 0 32-32V48a32.036 32.036 0 0 0-32-32m0 448H128V48h256l.021 416Z" class="ci-primary"/>
  <path fill="var(--ci-primary-color, currentColor)" d="M256 240a96 96 0 1 0 96 96 96.11 96.11 0 0 0-96-96m0 160a64 64 0 1 1 64-64 64.07 64.07 0 0 1-64 64m0-200a64 64 0 1 0-64-64 64.07 64.07 0 0 0 64 64m0-96a32 32 0 1 1-32 32 32.036 32.036 0 0 1 32-32" class="ci-primary"/>
  <path fill="var(--ci-primary-color, currentColor)" d="M240 320h32v32h-32z" class="ci-primary"/>
</svg>
