<svg xmlns="http://www.w3.org/2000/svg" width="24" height="24" viewBox="0 0 24 24" color="#2563eb" role="img" aria-labelledby="boxicons-crosshair-title boxicons-crosshair-desc">
  <title id="boxicons-crosshair-title">crosshair</title>
  <desc id="boxicons-crosshair-desc">气象环境 - Boxicons - crosshair - (CC-BY-4.0 OR OFL-1.1 OR MIT)</desc><path fill="currentColor" d="M12 2C6.486 2 2 6.486 2 12s4.486 10 10 10 10-4.486 10-10S17.514 2 12 2zm1 17.931V17h-2v2.931A8.008 8.008 0 0 1 4.069 13H7v-2H4.069A8.008 8.008 0 0 1 11 4.069V7h2V4.069A8.007 8.007 0 0 1 19.931 11H17v2h2.931A8.008 8.008 0 0 1 13 19.931z"/></svg>