<svg xmlns="http://www.w3.org/2000/svg" width="8" height="8" viewBox="0 0 8 8" color="#2563eb" role="img" aria-labelledby="open-iconic-calculator-title open-iconic-calculator-desc">
  <title id="open-iconic-calculator-title">calculator</title>
  <desc id="open-iconic-calculator-desc">数据图表 - Open Iconic - calculator - MIT</desc>
  <path fill="currentColor" d="M.09 0c-.06 0-.09.04-.09.09v7.81c0 .05.04.09.09.09h6.81c.05 0 .09-.04.09-.09v-7.81c0-.06-.04-.09-.09-.09h-6.81zm.91 1h5v2h-5v-2zm0 3h1v1h-1v-1zm2 0h1v1h-1v-1zm2 0h1v3h-1v-3zm-4 2h1v1h-1v-1zm2 0h1v1h-1v-1z" />
</svg>