<!-- @license lucide-static v1.21.0 - ISC -->
<svg
  class="lucide lucide-columns-settings"
  xmlns="http://www.w3.org/2000/svg"
  width="24"
  height="24"
  viewBox="0 0 24 24"
  fill="none"
  stroke="currentColor"
  stroke-width="2"
  stroke-linecap="round"
  stroke-linejoin="round"
 color="#2563eb" role="img" aria-labelledby="lucide-columns-settings-title lucide-columns-settings-desc">
  <title id="lucide-columns-settings-title">columns settings</title>
  <desc id="lucide-columns-settings-desc">电力电子 - Lucide - columns-settings - ISC</desc>
  <path fill="currentColor" d="M10.5 21H5a2 2 0 0 1-2-2V5a2 2 0 0 1 2-2h14a2 2 0 0 1 2 2v5.5" />
  <path fill="currentColor" d="m14.3 19.6 1-.4" />
  <path fill="currentColor" d="M15 3v7.5" />
  <path fill="currentColor" d="m15.2 16.9-.9-.3" />
  <path fill="currentColor" d="m16.6 21.7.3-.9" />
  <path fill="currentColor" d="m16.8 15.3-.4-1" />
  <path fill="currentColor" d="m19.1 15.2.3-.9" />
  <path fill="currentColor" d="m19.6 21.7-.4-1" />
  <path fill="currentColor" d="m20.7 16.8 1-.4" />
  <path fill="currentColor" d="m21.7 19.4-.9-.3" />
  <path fill="currentColor" d="M9 3v18" />
  <circle fill="currentColor" cx="18" cy="18" r="3" />
</svg>