<svg xmlns="http://www.w3.org/2000/svg" width="24" height="24" viewBox="0 0 24 24" color="#2563eb" role="img" aria-labelledby="ikonate-camera-rear-title ikonate-camera-rear-desc">
  <title id="ikonate-camera-rear-title">camera rear</title>
  <desc id="ikonate-camera-rear-desc">媒体素材 - Ikonate - camera-rear - MIT</desc>
    <path fill="currentColor" d="M6 12l2-2 2 2"/>
    <path fill="currentColor" d="M8 13a4 4 0 0 0 4 4m4-4a4 4 0 0 0-4-4"/>
    <path fill="currentColor" stroke-linecap="butt" d="M8 12v1m0-3v3m8 0v3"/>
    <path fill="currentColor" d="M18 14l-2 2-2-2"/>
    <path fill="currentColor" d="M8 7l.74-1.11A2 2 0 0 1 10.404 5h3.192a2 2 0 0 1 1.664.89L16 7h5v13H3V7h5z"/>
</svg>