<svg xmlns="http://www.w3.org/2000/svg" viewBox="0 0 256 256" fill="currentColor" color="#2563eb" role="img" aria-labelledby="phosphor-traffic-signal-title phosphor-traffic-signal-desc">
  <title id="phosphor-traffic-signal-title">traffic signal</title>
  <desc id="phosphor-traffic-signal-desc">通信与控制 - Phosphor Icons - traffic-signal - MIT</desc><path fill="currentColor" d="M128,56a32,32,0,1,0,32,32A32,32,0,0,0,128,56Zm0,48a16,16,0,1,1,16-16A16,16,0,0,1,128,104Zm0,32a32,32,0,1,0,32,32A32,32,0,0,0,128,136Zm0,48a16,16,0,1,1,16-16A16,16,0,0,1,128,184Zm88-40H200V80h16a8,8,0,0,0,0-16H200V40a16,16,0,0,0-16-16H72A16,16,0,0,0,56,40V64H40a8,8,0,0,0,0,16H56v64H40a8,8,0,0,0,0,16H56v56a16,16,0,0,0,16,16H184a16,16,0,0,0,16-16V160h16a8,8,0,0,0,0-16Zm-32,72H72V40H184V216Z"/></svg>