<svg xmlns="http://www.w3.org/2000/svg" viewBox="0 0 32 32" color="#2563eb" role="img" aria-labelledby="carbon-traffic-flow-incident-title carbon-traffic-flow-incident-desc">
  <title id="carbon-traffic-flow-incident-title">traffic flow incident</title>
  <desc id="carbon-traffic-flow-incident-desc">综合能源 - Carbon Icons - traffic-flow-incident - Apache-2.0</desc><path fill="currentColor" d="M26 9.42 24.59 8 22.005 10.585 22 10.58 21.995 10.585 19.42 8.01 18 9.42 20.58 12 18 14.58 19.41 16 21.995 13.415 22 13.42 22.005 13.415 24.58 15.99 26 14.58 23.42 12 26 9.42z"/><path fill="currentColor" d="M14 17.42 12.59 16 10.005 18.585 10 18.58 9.995 18.585 7.42 16.01 6 17.42 8.58 20 6 22.58 7.41 24 9.995 21.415 10 21.42 10.005 21.415 12.58 23.99 14 22.58 11.42 20 14 17.42z"/><path fill="currentColor" d="M2 2H4V30H2z"/><path fill="currentColor" d="M28 2H30V30H28z"/><path fill="currentColor" d="M15 2H17V6H15z"/><path fill="currentColor" d="M15 10H17V14H15z"/><path fill="currentColor" d="M15 18H17V22H15z"/><path fill="currentColor" d="M15 26H17V30H15z"/></svg>