<svg xmlns="http://www.w3.org/2000/svg" viewBox="0 0 32 32" color="#2563eb" role="img" aria-labelledby="carbon-flow-title carbon-flow-desc">
  <title id="carbon-flow-title">flow</title>
  <desc id="carbon-flow-desc">综合能源 - Carbon Icons - flow - Apache-2.0</desc><path fill="currentColor" d="M27,22.14V17a2,2,0,0,0-2-2H17V9.86a4,4,0,1,0-2,0V15H7a2,2,0,0,0-2,2v5.14a4,4,0,1,0,2,0V17H25v5.14a4,4,0,1,0,2,0ZM8,26a2,2,0,1,1-2-2A2,2,0,0,1,8,26ZM14,6a2,2,0,1,1,2,2A2,2,0,0,1,14,6ZM26,28a2,2,0,1,1,2-2A2,2,0,0,1,26,28Z"/></svg>