<?xml version="1.0" encoding="UTF-8"?>
<svg xmlns="http://www.w3.org/2000/svg" viewBox="0 0 64 64" width="64" height="64" color="#7c3aed" role="img" aria-labelledby="ai-chip-title ai-chip-desc">
  <title id="ai-chip-title">AI芯片</title>
  <desc id="ai-chip-desc">AI与数字化 - ai, chip</desc>
  <g>
<rect x="18" y="18" width="28" height="28" rx="4" fill="none" stroke="currentColor" stroke-width="2.6" stroke-linecap="round" stroke-linejoin="round"/><text x="32" y="32" text-anchor="middle" dominant-baseline="middle" font-family="Arial, Microsoft YaHei, sans-serif" font-size="13" font-weight="700" fill="currentColor">AI</text><path d="M10 24h8M10 32h8M10 40h8M46 24h8M46 32h8M46 40h8M24 10v8M32 10v8M40 10v8M24 46v8M32 46v8M40 46v8" fill="none" stroke="currentColor" stroke-width="2.6" stroke-linecap="round" stroke-linejoin="round"/><path d="M46 46h14v14H46z" fill="none" stroke="currentColor" stroke-width="2.6" stroke-linecap="round" stroke-linejoin="round"/><circle cx="53" cy="43" r="0.65" fill="none" stroke="currentColor" stroke-width="2.6" stroke-linecap="round" stroke-linejoin="round"/><path d="M53 43L46 46" fill="none" stroke="currentColor" stroke-width="2.6" stroke-linecap="round" stroke-linejoin="round"/><circle cx="47" cy="48" r="1.1" fill="none" stroke="currentColor" stroke-width="2.6" stroke-linecap="round" stroke-linejoin="round"/><path d="M46 46h14v14H46z" fill="none" stroke="currentColor" stroke-width="2.6" stroke-linecap="round" stroke-linejoin="round"/><circle cx="48" cy="47" r="1" fill="none" stroke="currentColor" stroke-width="2.6" stroke-linecap="round" stroke-linejoin="round"/><path d="M48 47L45 48" fill="none" stroke="currentColor" stroke-width="2.6" stroke-linecap="round" stroke-linejoin="round"/><circle cx="47" cy="49" r="1.1" fill="none" stroke="currentColor" stroke-width="2.6" stroke-linecap="round" stroke-linejoin="round"/>
  </g>
</svg>
