<svg xmlns="http://www.w3.org/2000/svg" viewBox="0 0 20 20" color="#2563eb" role="img" aria-labelledby="zondicons-question-title zondicons-question-desc">
  <title id="zondicons-question-title">question</title>
  <desc id="zondicons-question-desc">状态告警 - Zondicons - question - CC-BY-4.0</desc><path fill="currentColor" d="M10 20a10 10 0 1 1 0-20 10 10 0 0 1 0 20zm2-13c0 .28-.21.8-.42 1L10 9.58c-.57.58-1 1.6-1 2.42v1h2v-1c0-.29.21-.8.42-1L13 9.42c.57-.58 1-1.6 1-2.42a4 4 0 1 0-8 0h2a2 2 0 1 1 4 0zm-3 8v2h2v-2H9z"/></svg>