<svg xmlns="http://www.w3.org/2000/svg" viewBox="0 0 20 20" color="#2563eb" role="img" aria-labelledby="zondicons-keyboard-title zondicons-keyboard-desc">
  <title id="zondicons-keyboard-title">keyboard</title>
  <desc id="zondicons-keyboard-desc">状态告警 - Zondicons - keyboard - CC-BY-4.0</desc><path fill="currentColor" d="M0 6c0-1.1.9-2 2-2h16a2 2 0 0 1 2 2v8a2 2 0 0 1-2 2H2a2 2 0 0 1-2-2V6zm2 0v2h2V6H2zm1 3v2h2V9H3zm-1 3v2h2v-2H2zm3 0v2h10v-2H5zm11 0v2h2v-2h-2zM6 9v2h2V9H6zm3 0v2h2V9H9zm3 0v2h2V9h-2zm3 0v2h2V9h-2zM5 6v2h2V6H5zm3 0v2h2V6H8zm3 0v2h2V6h-2zm3 0v2h4V6h-4z"/></svg>