<?xml version="1.0" encoding="UTF-8"?>
<svg xmlns="http://www.w3.org/2000/svg" viewBox="0 0 64 64" width="64" height="64" color="#475569" role="img" aria-labelledby="transmission-tower-title transmission-tower-desc">
  <title id="transmission-tower-title">输电铁塔</title>
  <desc id="transmission-tower-desc">电网一次设备 - 复用 电力电网 / transmission-tower</desc>
  <g transform="translate(8 8) scale(2)">
<path fill="currentColor" d="M8.28,5.45L6.5,4.55L7.76,2H16.23L17.5,4.55L15.72,5.44L15,4H9L8.28,5.45M18.62,8H14.09L13.3,5H10.7L9.91,8H5.38L4.1,10.55L5.89,11.44L6.62,10H17.38L18.1,11.45L19.89,10.56L18.62,8M17.77,22H15.7L15.46,21.1L12,15.9L8.53,21.1L8.3,22H6.23L9.12,11H11.19L10.83,12.35L12,14.1L13.16,12.35L12.81,11H14.88L17.77,22M11.4,15L10.5,13.65L9.32,18.13L11.4,15M14.68,18.12L13.5,13.64L12.6,15L14.68,18.12Z" />
  </g>
  <g>
<path d="M46 46h14v14H46z" fill="none" stroke="currentColor" stroke-width="2.6" stroke-linecap="round" stroke-linejoin="round"/><circle cx="50" cy="42" r="0.65" fill="none" stroke="currentColor" stroke-width="2.6" stroke-linecap="round" stroke-linejoin="round"/><path d="M50 42L49 44" fill="none" stroke="currentColor" stroke-width="2.6" stroke-linecap="round" stroke-linejoin="round"/><circle cx="46" cy="43" r="1.1" fill="none" stroke="currentColor" stroke-width="2.6" stroke-linecap="round" stroke-linejoin="round"/>
  </g>
</svg>
