<svg xmlns="http://www.w3.org/2000/svg" width="24" height="24" fill="currentColor" viewBox="0 0 24 24" color="#2563eb" role="img" aria-labelledby="pixelarticons-external-link-title pixelarticons-external-link-desc">
  <title id="pixelarticons-external-link-title">external link</title>
  <desc id="pixelarticons-external-link-desc">协作通信 - Pixelarticons - external-link - MIT</desc>
  <path fill="currentColor" d="M11 5H5v2h6V5ZM5 7H3v12h2V7Zm12 12H5v2h12v-2Zm2-6h-2v6h2v-6Zm-8 0H9v2h2v-2Zm2-2h-2v2h2v-2Zm2-2h-2v2h2V9Zm2-2h-2v2h2V7Zm2-2h-2v2h2V5Zm2-2h-2v8h2V3Z"/>
  <path fill="currentColor" d="M21 3h-8v2h8V3Z"/>
</svg>
