<svg xmlns="http://www.w3.org/2000/svg" width="24" height="24" fill="currentColor" viewBox="0 0 24 24" color="#2563eb" role="img" aria-labelledby="pixelarticons-user-x-title pixelarticons-user-x-desc">
  <title id="pixelarticons-user-x-title">user x</title>
  <desc id="pixelarticons-user-x-desc">协作通信 - Pixelarticons - user-x - MIT</desc>
  <path fill="currentColor" d="M9 2h6v2H9zm0 8h6v2H9zm6-6h2v6h-2zM7 4h2v6H7zM4 18h2v4H4zm16 2h2v2h-2zM8 14h6v2H8zm-2 2h2v2H6zm10 0h2v2h-2zm2 2h2v2h-2zm2-2h2v2h-2zm-4 4h2v2h-2z"/>
</svg>
