<svg
  xmlns="http://www.w3.org/2000/svg"
  width="24"
  height="24"
  viewBox="0 0 24 24"
  fill="none"
  stroke="currentColor"
  stroke-width="2"
  stroke-linecap="round"
  stroke-linejoin="round"
  class="icon icon-tabler icons-tabler-outline icon-tabler-bug"
 color="#2563eb" role="img" aria-labelledby="tabler-bug-title tabler-bug-desc">
  <title id="tabler-bug-title">bug</title>
  <desc id="tabler-bug-desc">状态告警 - Tabler Icons - bug - MIT</desc>
  <path stroke="none" d="M0 0h24v24H0z" fill="none" />
  <path fill="currentColor" d="M9 9v-1a3 3 0 0 1 6 0v1" />
  <path fill="currentColor" d="M8 9h8a6 6 0 0 1 1 3v3a5 5 0 0 1 -10 0v-3a6 6 0 0 1 1 -3" />
  <path fill="currentColor" d="M3 13l4 0" />
  <path fill="currentColor" d="M17 13l4 0" />
  <path fill="currentColor" d="M12 20l0 -6" />
  <path fill="currentColor" d="M4 19l3.35 -2" />
  <path fill="currentColor" d="M20 19l-3.35 -2" />
  <path fill="currentColor" d="M4 7l3.75 2.4" />
  <path fill="currentColor" d="M20 7l-3.75 2.4" />
</svg>