<svg
  xmlns="http://www.w3.org/2000/svg"
  width="24"
  height="24"
  viewBox="0 0 24 24"
  fill="none"
  stroke="currentColor"
  stroke-width="2"
  stroke-linecap="round"
  stroke-linejoin="round"
  class="icon icon-tabler icons-tabler-outline icon-tabler-bug-off"
 color="#2563eb" role="img" aria-labelledby="tabler-bug-off-title tabler-bug-off-desc">
  <title id="tabler-bug-off-title">bug off</title>
  <desc id="tabler-bug-off-desc">状态告警 - Tabler Icons - bug-off - MIT</desc>
  <path stroke="none" d="M0 0h24v24H0z" fill="none" />
  <path fill="currentColor" d="M9.884 5.873a3 3 0 0 1 5.116 2.127v1" />
  <path fill="currentColor" d="M13 9h3a6 6 0 0 1 1 3v1m-.298 3.705a5 5 0 0 1 -9.702 -1.705v-3a6 6 0 0 1 1 -3h1" />
  <path fill="currentColor" d="M3 13h4" />
  <path fill="currentColor" d="M17 13h4" />
  <path fill="currentColor" d="M12 20v-6" />
  <path fill="currentColor" d="M4 19l3.35 -2" />
  <path fill="currentColor" d="M4 7l3.75 2.4" />
  <path fill="currentColor" d="M20 7l-3.75 2.4" />
  <path fill="currentColor" d="M3 3l18 18" />
</svg>