<svg
  xmlns="http://www.w3.org/2000/svg"
  width="24"
  height="24"
  viewBox="0 0 24 24"
  fill="none"
  stroke="currentColor"
  stroke-width="2"
  stroke-linecap="round"
  stroke-linejoin="round"
  class="icon icon-tabler icons-tabler-outline icon-tabler-lock-check"
 color="#2563eb" role="img" aria-labelledby="tabler-lock-check-title tabler-lock-check-desc">
  <title id="tabler-lock-check-title">lock check</title>
  <desc id="tabler-lock-check-desc">状态告警 - Tabler Icons - lock-check - MIT</desc>
  <path stroke="none" d="M0 0h24v24H0z" fill="none" />
  <path fill="currentColor" d="M11.5 21h-4.5a2 2 0 0 1 -2 -2v-6a2 2 0 0 1 2 -2h10a2 2 0 0 1 2 2v.5" />
  <path fill="currentColor" d="M11 16a1 1 0 1 0 2 0a1 1 0 0 0 -2 0" />
  <path fill="currentColor" d="M8 11v-4a4 4 0 1 1 8 0v4" />
  <path fill="currentColor" d="M15 19l2 2l4 -4" />
</svg>