<svg
  xmlns="http://www.w3.org/2000/svg"
  width="24"
  height="24"
  viewBox="0 0 24 24"
  fill="none"
  stroke="currentColor"
  stroke-width="2"
  stroke-linecap="round"
  stroke-linejoin="round"
  class="icon icon-tabler icons-tabler-outline icon-tabler-bell-check"
 color="#2563eb" role="img" aria-labelledby="tabler-bell-check-title tabler-bell-check-desc">
  <title id="tabler-bell-check-title">bell check</title>
  <desc id="tabler-bell-check-desc">状态告警 - Tabler Icons - bell-check - MIT</desc>
  <path stroke="none" d="M0 0h24v24H0z" fill="none" />
  <path fill="currentColor" d="M11.5 17h-7.5a4 4 0 0 0 2 -3v-3a7 7 0 0 1 4 -6a2 2 0 1 1 4 0a7 7 0 0 1 4 6v3c.016 .129 .037 .256 .065 .382" />
  <path fill="currentColor" d="M9 17v1a3 3 0 0 0 2.502 2.959" />
  <path fill="currentColor" d="M15 19l2 2l4 -4" />
</svg>