<svg xmlns="http://www.w3.org/2000/svg" viewBox="0 0 256 256" fill="currentColor" color="#2563eb" role="img" aria-labelledby="phosphor-arrows-merge-title phosphor-arrows-merge-desc">
  <title id="phosphor-arrows-merge-title">arrows merge</title>
  <desc id="phosphor-arrows-merge-desc">开发工具 - Phosphor Icons - arrows-merge - MIT</desc><path fill="currentColor" d="M192,40v64a8,8,0,0,1-2.34,5.66L136,163.31v49.38l18.34-18.35a8,8,0,0,1,11.32,11.32l-32,32a8,8,0,0,1-11.32,0l-32-32a8,8,0,0,1,11.32-11.32L120,212.69V163.31L66.34,109.66A8,8,0,0,1,64,104V40a8,8,0,0,1,16,0v60.69l48,48,48-48V40a8,8,0,0,1,16,0Z"/></svg>