<svg xmlns="http://www.w3.org/2000/svg" viewBox="0 0 256 256" fill="currentColor" color="#2563eb" role="img" aria-labelledby="phosphor-terminal-window-title phosphor-terminal-window-desc">
  <title id="phosphor-terminal-window-title">terminal window</title>
  <desc id="phosphor-terminal-window-desc">开发工具 - Phosphor Icons - terminal-window - MIT</desc><path fill="currentColor" d="M128,128a8,8,0,0,1-3,6.25l-40,32a8,8,0,1,1-10-12.5L107.19,128,75,102.25a8,8,0,1,1,10-12.5l40,32A8,8,0,0,1,128,128Zm48,24H136a8,8,0,0,0,0,16h40a8,8,0,0,0,0-16Zm56-96V200a16,16,0,0,1-16,16H40a16,16,0,0,1-16-16V56A16,16,0,0,1,40,40H216A16,16,0,0,1,232,56ZM216,200V56H40V200H216Z"/></svg>