<svg
  xmlns="http://www.w3.org/2000/svg"
  width="24"
  height="24"
  viewBox="0 0 24 24"
  fill="none"
  stroke="currentColor"
  stroke-width="2"
  stroke-linecap="round"
  stroke-linejoin="round"
  class="icon icon-tabler icons-tabler-outline icon-tabler-car-fan"
 color="#2563eb" role="img" aria-labelledby="tabler-car-fan-title tabler-car-fan-desc">
  <title id="tabler-car-fan-title">car fan</title>
  <desc id="tabler-car-fan-desc">冷热能源 - Tabler Icons - car-fan - MIT</desc>
  <path stroke="none" d="M0 0h24v24H0z" fill="none" />
  <path fill="currentColor" d="M12 12v-9l4.912 1.914a1.7 1.7 0 0 1 .428 2.925l-5.34 4.161" />
  <path fill="currentColor" d="M12 12h9l-1.914 4.912a1.7 1.7 0 0 1 -2.925 .428l-4.161 -5.34" />
  <path fill="currentColor" d="M12 12h-9l1.914 -4.912a1.7 1.7 0 0 1 2.925 -.428l4.161 5.34" />
  <path fill="currentColor" d="M12 12v9l-4.912 -1.914a1.7 1.7 0 0 1 -.428 -2.925l5.34 -4.161" />
</svg>