<svg
  xmlns="http://www.w3.org/2000/svg"
  width="24"
  height="24"
  viewBox="0 0 24 24"
  fill="none"
  stroke="currentColor"
  stroke-width="2"
  stroke-linecap="round"
  stroke-linejoin="round"
  class="icon icon-tabler icons-tabler-outline icon-tabler-snowflake-off"
 color="#2563eb" role="img" aria-labelledby="tabler-snowflake-off-title tabler-snowflake-off-desc">
  <title id="tabler-snowflake-off-title">snowflake off</title>
  <desc id="tabler-snowflake-off-desc">冷热能源 - Tabler Icons - snowflake-off - MIT</desc>
  <path stroke="none" d="M0 0h24v24H0z" fill="none" />
  <path fill="currentColor" d="M10 4l2 1l2 -1" />
  <path fill="currentColor" d="M12 2v6m1.196 1.186l1.804 1.034" />
  <path fill="currentColor" d="M17.928 6.268l.134 2.232l1.866 1.232" />
  <path fill="currentColor" d="M20.66 7l-5.629 3.25l-.031 .75" />
  <path fill="currentColor" d="M19.928 14.268l-1.015 .67" />
  <path fill="currentColor" d="M14.212 14.226l-2.171 1.262" />
  <path fill="currentColor" d="M14 20l-2 -1l-2 1" />
  <path fill="currentColor" d="M12 22v-6.5l-3 -1.72" />
  <path fill="currentColor" d="M6.072 17.732l-.134 -2.232l-1.866 -1.232" />
  <path fill="currentColor" d="M3.34 17l5.629 -3.25l-.01 -3.458" />
  <path fill="currentColor" d="M4.072 9.732l1.866 -1.232l.134 -2.232" />
  <path fill="currentColor" d="M3.34 7l5.629 3.25l.802 -.466" />
  <path fill="currentColor" d="M3 3l18 18" />
</svg>