<svg
  xmlns="http://www.w3.org/2000/svg"
  width="24"
  height="24"
  viewBox="0 0 24 24"
  fill="none"
  stroke="currentColor"
  stroke-width="2"
  stroke-linecap="round"
  stroke-linejoin="round"
  class="icon icon-tabler icons-tabler-outline icon-tabler-ice-skating"
 color="#2563eb" role="img" aria-labelledby="tabler-ice-skating-title tabler-ice-skating-desc">
  <title id="tabler-ice-skating-title">ice skating</title>
  <desc id="tabler-ice-skating-desc">冷热能源 - Tabler Icons - ice-skating - MIT</desc>
  <path stroke="none" d="M0 0h24v24H0z" fill="none" />
  <path fill="currentColor" d="M5.905 5h3.418a1 1 0 0 1 .928 .629l1.143 2.856a3 3 0 0 0 2.207 1.83l4.717 .926a2.084 2.084 0 0 1 1.682 2.045v.714a1 1 0 0 1 -1 1h-13.895a1 1 0 0 1 -1 -1.1l.8 -8a1 1 0 0 1 1 -.9" />
  <path fill="currentColor" d="M3 19h17a1 1 0 0 0 1 -1" />
  <path fill="currentColor" d="M9 15v4" />
  <path fill="currentColor" d="M15 15v4" />
</svg>