<svg
  xmlns="http://www.w3.org/2000/svg"
  width="24"
  height="24"
  viewBox="0 0 24 24"
  fill="none"
  stroke="currentColor"
  stroke-width="2"
  stroke-linecap="round"
  stroke-linejoin="round"
  class="icon icon-tabler icons-tabler-outline icon-tabler-snowboarding"
 color="#2563eb" role="img" aria-labelledby="tabler-snowboarding-title tabler-snowboarding-desc">
  <title id="tabler-snowboarding-title">snowboarding</title>
  <desc id="tabler-snowboarding-desc">冷热能源 - Tabler Icons - snowboarding - MIT</desc>
  <path stroke="none" d="M0 0h24v24H0z" fill="none" />
  <path fill="currentColor" d="M15 3a1 1 0 1 0 2 0a1 1 0 0 0 -2 0" />
  <path fill="currentColor" d="M7 19l4 -2.5l-.5 -1.5" />
  <path fill="currentColor" d="M16 21l-1 -6l-4.5 -3l3.5 -6" />
  <path fill="currentColor" d="M7 9l1.5 -3h5.5l2 4l3 1" />
  <path fill="currentColor" d="M3 17c.399 1.154 .899 1.805 1.5 1.951c6 1.464 10.772 2.262 13.5 2.927c1.333 .325 2.333 0 3 -.976" />
</svg>