<svg xmlns="http://www.w3.org/2000/svg" width="16" height="16" focusable="false" viewBox="0 0 16 16" color="#2563eb" role="img" aria-labelledby="zendesk-garden-growth-chart-title zendesk-garden-growth-chart-desc">
  <title id="zendesk-garden-growth-chart-title">growth chart</title>
  <desc id="zendesk-garden-growth-chart-desc">数据图表 - Zendesk Garden Icons - growth-chart - Apache-2.0</desc>
  <path fill="currentColor" d="M12.636 5H9.878a.364.364 0 0 0-.257.62l1.025 1.026L8.5 8.793 6.854 7.146a.5.5 0 0 0-.708 0l-3 3a.5.5 0 1 0 .708.708L6.5 8.207l1.646 1.647a.5.5 0 0 0 .708 0l2.5-2.5 1.025 1.025c.23.23.621.067.621-.257V5.364A.364.364 0 0 0 12.636 5ZM0 1a1 1 0 0 1 1-1h14a1 1 0 0 1 1 1v14a1 1 0 0 1-1 1H1a1 1 0 0 1-1-1V1Zm1 0v14h14V1H1Z"/>
</svg>
