<svg xmlns="http://www.w3.org/2000/svg" width="16" height="16" fill="currentColor" class="bi bi-tropical-storm" viewBox="0 0 16 16" color="#2563eb" role="img" aria-labelledby="bootstrap-tropical-storm-title bootstrap-tropical-storm-desc">
  <title id="bootstrap-tropical-storm-title">tropical storm</title>
  <desc id="bootstrap-tropical-storm-desc">气象环境 - Bootstrap Icons - tropical-storm - MIT</desc>
  <path fill="currentColor" d="M8 9.5a2 2 0 1 0 0-4 2 2 0 0 0 0 4"/>
  <path fill="currentColor" d="M9.5 2c-.9 0-1.75.216-2.501.6A5 5 0 0 1 13 7.5a6.5 6.5 0 1 1-13 0 .5.5 0 0 1 1 0 5.5 5.5 0 0 0 8.001 4.9A5 5 0 0 1 3 7.5a6.5 6.5 0 0 1 13 0 .5.5 0 0 1-1 0A5.5 5.5 0 0 0 9.5 2M8 3.5a4 4 0 1 0 0 8 4 4 0 0 0 0-8"/>
</svg>