<svg xmlns="http://www.w3.org/2000/svg" viewBox="0 0 512 512" class="ionicon" color="#2563eb" role="img" aria-labelledby="ionicons-dice-title ionicons-dice-desc">
  <title id="ionicons-dice-title">dice</title>
  <desc id="ionicons-dice-desc">冷热能源 - Ionicons - dice - MIT</desc><path fill="currentColor" stroke-linecap="round" stroke-linejoin="round" d="M448 341.37V170.61A32 32 0 0 0 432.11 143l-152-88.46a47.94 47.94 0 0 0-48.24 0L79.89 143A32 32 0 0 0 64 170.61v170.76A32 32 0 0 0 79.89 369l152 88.46a48 48 0 0 0 48.24 0l152-88.46A32 32 0 0 0 448 341.37" class="ionicon-fill-none ionicon-stroke-width"/><path fill="currentColor" stroke-linecap="round" stroke-linejoin="round" d="m69 153.99 187 110 187-110M256 463.99v-200" class="ionicon-fill-none ionicon-stroke-width"/><ellipse fill="currentColor" cx="256" cy="152" rx="24" ry="16"/><ellipse fill="currentColor" cx="208" cy="296" rx="16" ry="24"/><ellipse fill="currentColor" cx="112" cy="328" rx="16" ry="24"/><ellipse fill="currentColor" cx="304" cy="296" rx="16" ry="24"/><ellipse fill="currentColor" cx="400" cy="240" rx="16" ry="24"/><ellipse fill="currentColor" cx="304" cy="384" rx="16" ry="24"/><ellipse fill="currentColor" cx="400" cy="328" rx="16" ry="24"/></svg>