<svg xmlns="http://www.w3.org/2000/svg" viewBox="0 0 512 512" class="ionicon" color="#2563eb" role="img" aria-labelledby="ionicons-ice-cream-title ionicons-ice-cream-desc">
  <title id="ionicons-ice-cream-title">ice cream</title>
  <desc id="ionicons-ice-cream-desc">冷热能源 - Ionicons - ice-cream - MIT</desc><path fill="currentColor" d="m352 256-96 224-62-145" stroke-linecap="round" stroke-linejoin="round" class="ionicon-fill-none ionicon-stroke-width"/><path fill="currentColor" d="M299.42 223.48C291.74 239.75 275.18 252 256 252c-13.1 0-27-5-33.63-9.76C216.27 237.87 208 240 208 250v62a24.07 24.07 0 0 1-24 24h0a24.07 24.07 0 0 1-24-24v-56h-2c-35.35 0-62-28.65-62-64a64 64 0 0 1 64-64h8v-8a88 88 0 0 1 176 0v8h8a64 64 0 0 1 0 128c-21.78 0-42-13-52.59-32.51Z" stroke-linecap="round" stroke-linejoin="round" class="ionicon-fill-none ionicon-stroke-width"/></svg>