<svg xmlns="http://www.w3.org/2000/svg" viewBox="0 0 32 32" color="#2563eb" role="img" aria-labelledby="carbon-windy-strong-title carbon-windy-strong-desc">
  <title id="carbon-windy-strong-title">windy strong</title>
  <desc id="carbon-windy-strong-desc">能源通用 - Carbon Icons - windy-strong - Apache-2.0</desc><path fill="currentColor" d="M13,30a5.0057,5.0057,0,0,1-5-5h2a3,3,0,1,0,3-3H4V20h9a5,5,0,0,1,0,10Z"/><path fill="currentColor" d="M25,25a5.0057,5.0057,0,0,1-5-5h2a3,3,0,1,0,3-3H2V15H25a5,5,0,0,1,0,10Z"/><path fill="currentColor" d="M21,12H6V10H21a3,3,0,1,0-3-3H16a5,5,0,1,1,5,5Z"/></svg>