<svg xmlns="http://www.w3.org/2000/svg" viewBox="0 0 32 32" color="#2563eb" role="img" aria-labelledby="carbon-soil-temperature-title carbon-soil-temperature-desc">
  <title id="carbon-soil-temperature-title">soil temperature</title>
  <desc id="carbon-soil-temperature-desc">能源通用 - Carbon Icons - soil-temperature - Apache-2.0</desc><circle fill="currentColor" cx="5" cy="13" r="1"/><circle fill="currentColor" cx="11" cy="19" r="1"/><circle fill="currentColor" cx="15" cy="25" r="1"/><circle fill="currentColor" cx="17" cy="15" r="1"/><circle fill="currentColor" cx="13" cy="11" r="1"/><circle fill="currentColor" cx="9" cy="27" r="1"/><circle fill="currentColor" cx="3" cy="21" r="1"/><path fill="currentColor" d="M25,30a4.9863,4.9863,0,0,1-3-8.98V15a3,3,0,0,1,6,0v6.02A4.9863,4.9863,0,0,1,25,30Zm0-16a1.0011,1.0011,0,0,0-1,1v7.13l-.4971.2893A2.9676,2.9676,0,0,0,22,25a3,3,0,0,0,6,0,2.9676,2.9676,0,0,0-1.5029-2.5811L26,22.13V15A1.0011,1.0011,0,0,0,25,14Z"/><path fill="currentColor" d="M2 6H30V8H2z"/></svg>