<svg xmlns="http://www.w3.org/2000/svg" viewBox="0 0 32 32" color="#2563eb" role="img" aria-labelledby="carbon-temperature-title carbon-temperature-desc">
  <title id="carbon-temperature-title">temperature</title>
  <desc id="carbon-temperature-desc">能源通用 - Carbon Icons - temperature - Apache-2.0</desc><path fill="currentColor" d="M13,17.26V6A4,4,0,0,0,5,6V17.26a7,7,0,1,0,8,0ZM9,4a2,2,0,0,1,2,2v7H7V6A2,2,0,0,1,9,4ZM9,28a5,5,0,0,1-2.5-9.33l.5-.28V15h4v3.39l.5.28A5,5,0,0,1,9,28Z"/><path fill="currentColor" d="M20 4H30V6H20z"/><path fill="currentColor" d="M20 10H27V12H20z"/><path fill="currentColor" d="M20 16H30V18H20z"/><path fill="currentColor" d="M20 22H27V24H20z"/></svg>