<svg xmlns="http://www.w3.org/2000/svg" viewBox="0 0 32 32" color="#2563eb" role="img" aria-labelledby="carbon-temperature-max-title carbon-temperature-max-desc">
  <title id="carbon-temperature-max-title">temperature max</title>
  <desc id="carbon-temperature-max-desc">能源通用 - Carbon Icons - temperature-max - Apache-2.0</desc><path fill="currentColor" d="M20 10H27V12H20z"/><path fill="currentColor" d="M20 16H30V18H20z"/><path fill="currentColor" d="M20 22H27V24H20z"/><path fill="currentColor" d="M10,20.1839V7H8V20.1839a3,3,0,1,0,2,0Z"/><path fill="currentColor" d="M30,4H12.9744A4.9829,4.9829,0,0,0,4,7V18.1108a7,7,0,1,0,10,0V7a5.0019,5.0019,0,0,0-.1011-1H30ZM9,28a4.9933,4.9933,0,0,1-3.332-8.7183L6,18.9834V7a3,3,0,0,1,6,0V18.9834l.332.2983A4.9933,4.9933,0,0,1,9,28Z"/></svg>