<svg xmlns="http://www.w3.org/2000/svg" viewBox="0 0 512 512" color="#2563eb" role="img" aria-labelledby="coreui-applications-settings-title coreui-applications-settings-desc">
  <title id="coreui-applications-settings-title">applications settings</title>
  <desc id="coreui-applications-settings-desc">变电环节 - CoreUI Icons - applications-settings - MIT</desc>
  <path fill="var(--ci-primary-color, currentColor)" d="M88 160a64 64 0 1 0-64-64 64.07 64.07 0 0 0 64 64m0-96a32 32 0 1 1-32 32 32.036 32.036 0 0 1 32-32m168-32a64 64 0 1 0 64 64 64.07 64.07 0 0 0-64-64m0 96a32 32 0 1 1 32-32 32.036 32.036 0 0 1-32 32m168 32a64 64 0 1 0-64-64 64.07 64.07 0 0 0 64 64m0-96a32 32 0 1 1-32 32 32.036 32.036 0 0 1 32-32M88 192a64 64 0 1 0 64 64 64.07 64.07 0 0 0-64-64m0 96a32 32 0 1 1 32-32 32.036 32.036 0 0 1-32 32m168-96a64 64 0 1 0 64 64 64.07 64.07 0 0 0-64-64m0 96a32 32 0 1 1 32-32 32.036 32.036 0 0 1-32 32m168-96a64 64 0 1 0 64 64 64.07 64.07 0 0 0-64-64m0 96a32 32 0 1 1 32-32 32.036 32.036 0 0 1-32 32m0 64a64 64 0 1 0 64 64 64.07 64.07 0 0 0-64-64m0 96a32 32 0 1 1 32-32 32.036 32.036 0 0 1-32 32M56 408h32v32H56zm96 0h32v32h-32zm96 0h32v32h-32z" class="ci-primary"/>
</svg>
