<svg
  xmlns="http://www.w3.org/2000/svg"
  width="24"
  height="24"
  viewBox="0 0 24 24"
  fill="none"
  stroke="currentColor"
  stroke-width="2"
  stroke-linecap="round"
  stroke-linejoin="round"
  class="icon icon-tabler icons-tabler-outline icon-tabler-air-conditioning-disabled"
 color="#2563eb" role="img" aria-labelledby="tabler-air-conditioning-disabled-title tabler-air-conditioning-disabled-desc">
  <title id="tabler-air-conditioning-disabled-title">air conditioning disabled</title>
  <desc id="tabler-air-conditioning-disabled-desc">气象环境 - Tabler Icons - air-conditioning-disabled - MIT</desc>
  <path stroke="none" d="M0 0h24v24H0z" fill="none" />
  <path fill="currentColor" d="M3 10a2 2 0 0 1 2 -2h14a2 2 0 0 1 2 2v4a2 2 0 0 1 -2 2h-14a2 2 0 0 1 -2 -2l0 -4" />
  <path fill="currentColor" d="M7 16v-3a1 1 0 0 1 1 -1h8a1 1 0 0 1 1 1v3" />
</svg>