<svg xmlns="http://www.w3.org/2000/svg" viewBox="0 0 32 32" color="#2563eb" role="img" aria-labelledby="carbon-box-extra-large-title carbon-box-extra-large-desc">
  <title id="carbon-box-extra-large-title">box extra large</title>
  <desc id="carbon-box-extra-large-desc">配电环节 - Carbon Icons - box-extra-large - Apache-2.0</desc><path fill="currentColor" d="M26,28H6a2.0021,2.0021,0,0,1-2-2V9H6V26H26V9h2V26A2.0021,2.0021,0,0,1,26,28Z"/><path fill="currentColor" d="M19 21 19 9 17 9 17 23 24 23 24 21 19 21z"/><path fill="currentColor" d="M16 9 14 9 12 15 10 9 8 9 10.752 16 8 23 10 23 12 17 14 23 16 23 13.245 16 16 9z"/><path fill="currentColor" d="M4 4H28V6H4z"/></svg>