<svg xmlns="http://www.w3.org/2000/svg" viewBox="0 0 32 32" color="#2563eb" role="img" aria-labelledby="carbon-building-title carbon-building-desc">
  <title id="carbon-building-title">building</title>
  <desc id="carbon-building-desc">配电环节 - Carbon Icons - building - Apache-2.0</desc><path fill="currentColor" d="M28,2H16a2.002,2.002,0,0,0-2,2V14H4a2.002,2.002,0,0,0-2,2V30H30V4A2.0023,2.0023,0,0,0,28,2ZM9,28V21h4v7Zm19,0H15V20a1,1,0,0,0-1-1H8a1,1,0,0,0-1,1v8H4V16H16V4H28Z"/><path fill="currentColor" d="M18 8H20V10H18z"/><path fill="currentColor" d="M24 8H26V10H24z"/><path fill="currentColor" d="M18 14H20V16H18z"/><path fill="currentColor" d="M24 14H26V16H24z"/><path fill="currentColor" d="M18 20H20V22H18z"/><path fill="currentColor" d="M24 20H26V22H24z"/></svg>