<svg width="24" height="24" fill="none" viewBox="0 0 24 24" stroke-width="1.5" stroke="currentColor" stroke-linecap="round" stroke-linejoin="round" xmlns="http://www.w3.org/2000/svg" color="#2563eb" role="img" aria-labelledby="mynaui-servers-title mynaui-servers-desc">
  <title id="mynaui-servers-title">servers</title>
  <desc id="mynaui-servers-desc">云与基础设施 - Mynaui Icons - servers - MIT</desc><path fill="currentColor" d="M3 5.7c0-.663.448-1.2 1-1.2h16c.552 0 1 .537 1 1.2v3.6c0 .663-.448 1.2-1 1.2H4c-.552 0-1-.537-1-1.2zm3 1.8h2m-2 9h2m-5-1.8c0-.663.448-1.2 1-1.2h16c.552 0 1 .537 1 1.2v3.6c0 .663-.448 1.2-1 1.2H4c-.552 0-1-.537-1-1.2z"/></svg>