<svg xmlns="http://www.w3.org/2000/svg" width="24" height="24" fill="none" viewBox="0 0 24 24" color="#2563eb" role="img" aria-labelledby="flowbite-archive-arrow-down-title flowbite-archive-arrow-down-desc">
  <title id="flowbite-archive-arrow-down-title">archive arrow down</title>
  <desc id="flowbite-archive-arrow-down-desc">文件文档 - Flowbite Icons - archive-arrow-down - MIT</desc>
  <path stroke="currentColor" stroke-linecap="round" stroke-linejoin="round" stroke-width="2" d="M12 11v5m0 0 2-2m-2 2-2-2M3 6v1a1 1 0 0 0 1 1h16a1 1 0 0 0 1-1V6a1 1 0 0 0-1-1H4a1 1 0 0 0-1 1Zm2 2v10a1 1 0 0 0 1 1h12a1 1 0 0 0 1-1V8H5Z"/>
</svg>
