<!-- @license lucide-static v1.21.0 - ISC -->
<svg
  class="lucide lucide-wallet"
  xmlns="http://www.w3.org/2000/svg"
  width="24"
  height="24"
  viewBox="0 0 24 24"
  fill="none"
  stroke="currentColor"
  stroke-width="2"
  stroke-linecap="round"
  stroke-linejoin="round"
 color="#2563eb" role="img" aria-labelledby="lucide-wallet-title lucide-wallet-desc">
  <title id="lucide-wallet-title">wallet</title>
  <desc id="lucide-wallet-desc">业务金融 - Lucide - wallet - ISC</desc>
  <path fill="currentColor" d="M19 7V4a1 1 0 0 0-1-1H5a2 2 0 0 0 0 4h15a1 1 0 0 1 1 1v4h-3a2 2 0 0 0 0 4h3a1 1 0 0 0 1-1v-2a1 1 0 0 0-1-1" />
  <path fill="currentColor" d="M3 5v14a2 2 0 0 0 2 2h15a1 1 0 0 0 1-1v-4" />
</svg>
