<svg xmlns="http://www.w3.org/2000/svg" viewBox="0 0 32 32" color="#2563eb" role="img" aria-labelledby="carbon-insert-page-title carbon-insert-page-desc">
  <title id="carbon-insert-page-title">insert page</title>
  <desc id="carbon-insert-page-desc">文件文档 - Carbon Icons - insert-page - Apache-2.0</desc><path fill="currentColor" d="M26,30H24V20H12V30H10V20a2.0021,2.0021,0,0,1,2-2H24a2.0021,2.0021,0,0,1,2,2Z"/><path fill="currentColor" d="M5.17 16 2 19.17 3.411 20.589 8 16 3.42 11.42 2 12.83 5.17 16z"/><path fill="currentColor" d="M24,14H12a2.0021,2.0021,0,0,1-2-2V2h2V12H24V2h2V12A2.0021,2.0021,0,0,1,24,14Z"/></svg>