<svg xmlns="http://www.w3.org/2000/svg" viewBox="0 0 32 32" color="#2563eb" role="img" aria-labelledby="carbon-doc-title carbon-doc-desc">
  <title id="carbon-doc-title">DOC</title>
  <desc id="carbon-doc-desc">文件文档 - Carbon Icons - DOC - Apache-2.0</desc><path fill="currentColor" d="M30,23H24a2.0023,2.0023,0,0,1-2-2V11a2.002,2.002,0,0,1,2-2h6v2H24V21h6Z"/><path fill="currentColor" d="M18,23H14a2.0023,2.0023,0,0,1-2-2V11a2.002,2.002,0,0,1,2-2h4a2.002,2.002,0,0,1,2,2V21A2.0023,2.0023,0,0,1,18,23ZM14,11V21h4V11Z"/><path fill="currentColor" d="M6,23H2V9H6a4.0045,4.0045,0,0,1,4,4v6A4.0045,4.0045,0,0,1,6,23ZM4,21H6a2.002,2.002,0,0,0,2-2V13a2.002,2.002,0,0,0-2-2H4Z"/></svg>