<svg xmlns="http://www.w3.org/2000/svg" viewBox="0 0 32 32" color="#2563eb" role="img" aria-labelledby="carbon-pdf-title carbon-pdf-desc">
  <title id="carbon-pdf-title">PDF</title>
  <desc id="carbon-pdf-desc">文件文档 - Carbon Icons - PDF - Apache-2.0</desc><path fill="currentColor" d="M30 11 30 9 22 9 22 23 24 23 24 17 29 17 29 15 24 15 24 11 30 11z"/><path fill="currentColor" d="M8,9H2V23H4V18H8a2,2,0,0,0,2-2V11A2,2,0,0,0,8,9Zm0,7H4V11H8Z"/><path fill="currentColor" d="M16,23H12V9h4a4,4,0,0,1,4,4v6A4,4,0,0,1,16,23Zm-2-2h2a2,2,0,0,0,2-2V13a2,2,0,0,0-2-2H14Z"/></svg>