<svg xmlns="http://www.w3.org/2000/svg" viewBox="0 0 32 32" color="#2563eb" role="img" aria-labelledby="carbon-notebook-reference-title carbon-notebook-reference-desc">
  <title id="carbon-notebook-reference-title">notebook reference</title>
  <desc id="carbon-notebook-reference-desc">文件文档 - Carbon Icons - notebook-reference - Apache-2.0</desc><path fill="currentColor" d="M4 20 4 22 7.586 22 2 27.586 3.414 29 9 23.414 9 27 11 27 11 20 4 20z"/><path fill="currentColor" d="M19 10H26V12H19z"/><path fill="currentColor" d="M19 15H26V17H19z"/><path fill="currentColor" d="M19 20H26V22H19z"/><path fill="currentColor" d="M28,5H4A2.002,2.002,0,0,0,2,7V17H4V7H15V27H28a2.002,2.002,0,0,0,2-2V7A2.002,2.002,0,0,0,28,5ZM17,25V7H28l.0015,18Z"/></svg>