<svg xmlns="http://www.w3.org/2000/svg" viewBox="0 0 32 32" color="#2563eb" role="img" aria-labelledby="carbon-presentation-file-title carbon-presentation-file-desc">
  <title id="carbon-presentation-file-title">presentation file</title>
  <desc id="carbon-presentation-file-desc">文件文档 - Carbon Icons - presentation-file - Apache-2.0</desc><path fill="currentColor" d="M15 10H17V18H15z"/><path fill="currentColor" d="M20 14H22V18H20z"/><path fill="currentColor" d="M10 12H12V18H10z"/><path fill="currentColor" d="M25,4H17V2H15V4H7A2,2,0,0,0,5,6V20a2,2,0,0,0,2,2h8v6H11v2H21V28H17V22h8a2,2,0,0,0,2-2V6A2,2,0,0,0,25,4Zm0,16H7V6H25Z"/></svg>