<svg xmlns="http://www.w3.org/2000/svg" viewBox="0 0 32 32" color="#2563eb" role="img" aria-labelledby="carbon-folder-tree-title carbon-folder-tree-desc">
  <title id="carbon-folder-tree-title">folder tree</title>
  <desc id="carbon-folder-tree-desc">文件文档 - Carbon Icons - folder-tree - Apache-2.0</desc><path fill="currentColor" d="M16,15h11c.5523,0,1-.4478,1-1v-7c0-.5523-.4477-1-1-1h-5l-.72-1.45c-.1711-.3395-.5199-.5527-.9-.55h-4.38c-.5523,0-1,.4477-1,1v4H6V2h-2v22c0,1.1025.897,2,2,2h9v3c0,.5522.4477,1,1,1h11c.5523,0,1-.4478,1-1v-7c0-.5523-.4477-1-1-1h-5l-.72-1.45c-.1711-.3395-.5199-.5527-.9-.55h-4.38c-.5523,0-1,.4477-1,1v4H6v-13h9v3c0,.5522.4477,1,1,1ZM17,6h2.76l.45.89.55,1.11h5.24v5h-9v-7ZM17,21h2.76l.45.89.55,1.11h5.24v5h-9v-7Z"/></svg>