<svg width="24" height="24" viewBox="0 0 20 20" xmlns="http://www.w3.org/2000/svg" color="#2563eb" role="img" aria-labelledby="sync-off-title sync-off-desc">
  <title id="sync-off-title">Sync Off</title>
  <desc id="sync-off-desc">常用命令 - sync_off, 20px regular</desc><path fill="currentColor" d="M2 10a8 8 0 1 1 16 0 8 8 0 0 1-16 0Zm8-7a7 7 0 0 0-6.93 6h5.2l.75-2.64a.5.5 0 1 1 .96.28l-2 7a.5.5 0 1 1-.96-.28L7.98 10H3a7 7 0 1 0 14 0h-4.98l-1.04 3.64a.5.5 0 1 1-.96-.28l2-7a.5.5 0 1 1 .96.28L12.31 9h4.62A7 7 0 0 0 10 3Z"/></svg>