<svg xmlns="http://www.w3.org/2000/svg" viewBox="0 0 512 512" color="#2563eb" role="img" aria-labelledby="coreui-library-add-title coreui-library-add-desc">
  <title id="coreui-library-add-title">library add</title>
  <desc id="coreui-library-add-desc">通用命令 - CoreUI Icons - library-add - MIT</desc>
  <path fill="var(--ci-primary-color, currentColor)" d="M48 464V144H16v328a24.027 24.027 0 0 0 24 24h328v-32z" class="ci-primary"/>
  <path fill="var(--ci-primary-color, currentColor)" d="M144 400h-32V80H80v328a24.027 24.027 0 0 0 24 24h328v-32z" class="ci-primary"/>
  <path fill="var(--ci-primary-color, currentColor)" d="M472 16H168a24.027 24.027 0 0 0-24 24v304a24.027 24.027 0 0 0 24 24h304a24.027 24.027 0 0 0 24-24V40a24.027 24.027 0 0 0-24-24m-8 320H176V48h288Z" class="ci-primary"/>
  <path fill="var(--ci-primary-color, currentColor)" d="M304 288h32v-84h84v-32h-84V88h-32v84h-84v32h84z" class="ci-primary"/>
</svg>
