<!-- @license lucide-static v1.21.0 - ISC -->
<svg
  class="lucide lucide-camera"
  xmlns="http://www.w3.org/2000/svg"
  width="24"
  height="24"
  viewBox="0 0 24 24"
  fill="none"
  stroke="currentColor"
  stroke-width="2"
  stroke-linecap="round"
  stroke-linejoin="round"
 color="#2563eb" role="img" aria-labelledby="lucide-camera-title lucide-camera-desc">
  <title id="lucide-camera-title">camera</title>
  <desc id="lucide-camera-desc">媒体素材 - Lucide - camera - ISC</desc>
  <path fill="currentColor" d="M13.997 4a2 2 0 0 1 1.76 1.05l.486.9A2 2 0 0 0 18.003 7H20a2 2 0 0 1 2 2v9a2 2 0 0 1-2 2H4a2 2 0 0 1-2-2V9a2 2 0 0 1 2-2h1.997a2 2 0 0 0 1.759-1.048l.489-.904A2 2 0 0 1 10.004 4z" />
  <circle fill="currentColor" cx="12" cy="13" r="3" />
</svg>
