<svg xmlns="http://www.w3.org/2000/svg" viewBox="0 0 32 32" color="#2563eb" role="img" aria-labelledby="carbon-heat-map-stocks-title carbon-heat-map-stocks-desc">
  <title id="carbon-heat-map-stocks-title">heat map stocks</title>
  <desc id="carbon-heat-map-stocks-desc">地图地点 - Carbon Icons - heat-map-stocks - Apache-2.0</desc><path fill="currentColor" d="M27,3H5A2,2,0,0,0,3,5V27a2,2,0,0,0,2,2H27a2,2,0,0,0,2-2V5A2,2,0,0,0,27,3ZM9,21H5V17H9Zm2,2h4v4H11Zm6,0h4v4H17Zm0-8V11h4v4Zm4-6H17V5h4Zm2,2h4v4H23ZM15,5V15H5V5Zm8,22V17h4V27Z"/></svg>