<svg xmlns="http://www.w3.org/2000/svg" viewBox="0 0 32 32" color="#2563eb" role="img" aria-labelledby="carbon-airport-01-title carbon-airport-01-desc">
  <title id="carbon-airport-01-title">airport 01</title>
  <desc id="carbon-airport-01-desc">地图地点 - Carbon Icons - airport-01 - Apache-2.0</desc><path fill="currentColor" fill-rule="evenodd" d="M17,14.5,23,17V15l-6-3V9a1,1,0,0,0-2,0v3L9,15v2l6-2.5V20l-3,2v1l4-1,4,1V22l-3-2Z"/><path fill="currentColor" d="M16,30A14,14,0,1,1,30,16,14.0158,14.0158,0,0,1,16,30ZM16,4A12,12,0,1,0,28,16,12.0137,12.0137,0,0,0,16,4Z"/></svg>