<svg xmlns="http://www.w3.org/2000/svg" viewBox="0 0 32 32" color="#2563eb" role="img" aria-labelledby="carbon-map-boundary-title carbon-map-boundary-desc">
  <title id="carbon-map-boundary-title">map boundary</title>
  <desc id="carbon-map-boundary-desc">地图地点 - Carbon Icons - map-boundary - Apache-2.0</desc><path fill="currentColor" d="M12 10H14V14H12z"/><path fill="currentColor" d="M18 18H22V20H18z"/><path fill="currentColor" d="M14 18 14 16 12 16 12 20 16 20 16 18 14 18z"/><path fill="currentColor" d="M16 4H28V16H16z"/><path fill="currentColor" d="M17.885 29.997 11.819 26.142 4 27.989 4 4 14 4 14 8 12 8 12 6 6 6 6 25.461 12.181 24.001 18.115 27.773 22.818 26 26 26 26 20 24 20 24 18 28 18 28 28 23.182 28 17.885 29.997z"/></svg>