<svg width="24" height="24" viewBox="0 0 20 20" xmlns="http://www.w3.org/2000/svg" color="#2563eb" role="img" aria-labelledby="branch-request-closed-title branch-request-closed-desc">
  <title id="branch-request-closed-title">Branch Request Closed</title>
  <desc id="branch-request-closed-desc">开发集成 - branch_request_closed, 20px regular</desc><path fill="currentColor" d="M3 5a2 2 0 1 1 4 0 2 2 0 0 1-4 0Zm2.5 2.96a3 3 0 1 0-1 0v4.08a3 3 0 1 0 1 0V7.96ZM5 13a2 2 0 1 1 0 4 2 2 0 0 1 0-4Zm10 0a2 2 0 1 0 0 4 2 2 0 0 0 0-4Zm-3 2a3 3 0 0 1 2.5-2.96V8.5a.5.5 0 0 1 1 0v3.54A3 3 0 1 1 12 15Zm1.35-12.35a.5.5 0 0 0-.7.7L14.29 5l-1.64 1.65a.5.5 0 0 0 .7.7L15 5.71l1.65 1.64a.5.5 0 0 0 .7-.7L15.71 5l1.64-1.65a.5.5 0 0 0-.7-.7L15 4.29l-1.65-1.64Z"/></svg>