<svg xmlns="http://www.w3.org/2000/svg" id="mdi-signal-2g" viewBox="0 0 24 24" color="#2563eb" role="img" aria-labelledby="material-design-icons-signal-2g-title material-design-icons-signal-2g-desc">
  <title id="material-design-icons-signal-2g-title">signal 2g</title>
  <desc id="material-design-icons-signal-2g-desc">通信与控制 - Material Design Icons - signal-2g - Apache-2.0</desc><path fill="currentColor" d="M11,19.5H2V13.5A3,3 0 0,1 5,10.5H8V7.5H2V4.5H8A3,3 0 0,1 11,7.5V10.5A3,3 0 0,1 8,13.5H5V16.5H11M22,10.5H17.5V13.5H19V16.5H16V7.5H22V4.5H16A3,3 0 0,0 13,7.5V16.5A3,3 0 0,0 16,19.5H19A3,3 0 0,0 22,16.5" /></svg>