<svg xmlns="http://www.w3.org/2000/svg" id="mdi-radio" viewBox="0 0 24 24" color="#2563eb" role="img" aria-labelledby="material-design-icons-radio-title material-design-icons-radio-desc">
  <title id="material-design-icons-radio-title">radio</title>
  <desc id="material-design-icons-radio-desc">通信与控制 - Material Design Icons - radio - Apache-2.0</desc><path fill="currentColor" d="M20,6A2,2 0 0,1 22,8V20A2,2 0 0,1 20,22H4A2,2 0 0,1 2,20V8C2,7.15 2.53,6.42 3.28,6.13L15.71,1L16.47,2.83L8.83,6H20M20,8H4V12H16V10H18V12H20V8M7,14A3,3 0 0,0 4,17A3,3 0 0,0 7,20A3,3 0 0,0 10,17A3,3 0 0,0 7,14Z" /></svg>