<svg xmlns="http://www.w3.org/2000/svg" id="mdi-satellite" viewBox="0 0 24 24" color="#2563eb" role="img" aria-labelledby="material-design-icons-satellite-title material-design-icons-satellite-desc">
  <title id="material-design-icons-satellite-title">satellite</title>
  <desc id="material-design-icons-satellite-desc">通信与控制 - Material Design Icons - satellite - Apache-2.0</desc><path fill="currentColor" d="M5,18L8.5,13.5L11,16.5L14.5,12L19,18M5,12V10A5,5 0 0,0 10,5H12A7,7 0 0,1 5,12M5,5H8A3,3 0 0,1 5,8M19,3H5A2,2 0 0,0 3,5V19A2,2 0 0,0 5,21H19A2,2 0 0,0 21,19V5C21,3.89 20.1,3 19,3Z" /></svg>