<svg xmlns="http://www.w3.org/2000/svg" width="48" height="48" viewBox="0 -960 960 960" color="#2563eb" role="img" aria-labelledby="material-symbols-text-ad-title material-symbols-text-ad-desc">
  <title id="material-symbols-text-ad-title">text ad</title>
  <desc id="material-symbols-text-ad-desc">文件文档 - Material Symbols - text_ad - Apache-2.0</desc><path fill="currentColor" d="M210-290h540v-60H210v60Zm0-160h540v-60H210v60Zm0-160h378v-60H210v60Zm-70 450q-24 0-42-18t-18-42v-520q0-24 18-42t42-18h680q24 0 42 18t18 42v520q0 24-18 42t-42 18H140Zm0-60h680v-520H140v520Zm0 0v-520 520Z"/></svg>