<svg width="24" height="24" viewBox="0 0 24 24" xmlns="http://www.w3.org/2000/svg" color="#2563eb" role="img" aria-labelledby="text-list-roman-numeral-lowercase-title text-list-roman-numeral-lowercase-desc">
  <title id="text-list-roman-numeral-lowercase-title">Text List Roman Numeral Lowercase</title>
  <desc id="text-list-roman-numeral-lowercase-desc">表单表格 - text_list_roman_numeral_lowercase, 24px regular</desc><path fill="currentColor" d="M5.25 3.5a.75.75 0 1 0 0-1.5.75.75 0 0 0 0 1.5ZM6 4.75a.75.75 0 0 0-1.5 0v2.5a.75.75 0 0 0 1.5 0v-2.5ZM5.25 11c.41 0 .75.34.75.75v2.5a.75.75 0 0 1-1.5 0v-2.5c0-.41.34-.75.75-.75Zm0 7c.41 0 .75.34.75.75v2.5a.75.75 0 0 1-1.5 0v-2.5c0-.41.34-.75.75-.75ZM9 5.75c0-.41.34-.75.75-.75h9.5a.75.75 0 0 1 0 1.5h-9.5A.75.75 0 0 1 9 5.75Zm0 6.5c0-.41.34-.75.75-.75h9.5a.75.75 0 0 1 0 1.5h-9.5a.75.75 0 0 1-.75-.75Zm0 6.5c0-.41.34-.75.75-.75h9.5a.75.75 0 0 1 0 1.5h-9.5a.75.75 0 0 1-.75-.75ZM5.25 17.5a.75.75 0 1 0 0-1.5.75.75 0 0 0 0 1.5ZM6 9.75a.75.75 0 1 1-1.5 0 .75.75 0 0 1 1.5 0Z"/></svg>