<svg xmlns="http://www.w3.org/2000/svg" viewBox="0 0 256 256" fill="currentColor" color="#2563eb" role="img" aria-labelledby="phosphor-code-simple-title phosphor-code-simple-desc">
  <title id="phosphor-code-simple-title">code simple</title>
  <desc id="phosphor-code-simple-desc">开发工具 - Phosphor Icons - code-simple - MIT</desc><path fill="currentColor" d="M93.31,70,28,128l65.27,58a8,8,0,1,1-10.62,12l-72-64a8,8,0,0,1,0-12l72-64A8,8,0,1,1,93.31,70Zm152,52-72-64a8,8,0,0,0-10.62,12L228,128l-65.27,58a8,8,0,1,0,10.62,12l72-64a8,8,0,0,0,0-12Z"/></svg>