<svg xmlns="http://www.w3.org/2000/svg" width="16" height="16" fill="currentColor" class="bi bi-card-image" viewBox="0 0 16 16" color="#2563eb" role="img" aria-labelledby="bootstrap-card-image-title bootstrap-card-image-desc">
  <title id="bootstrap-card-image-title">card image</title>
  <desc id="bootstrap-card-image-desc">媒体素材 - Bootstrap Icons - card-image - MIT</desc>
  <path fill="currentColor" d="M6.002 5.5a1.5 1.5 0 1 1-3 0 1.5 1.5 0 0 1 3 0"/>
  <path fill="currentColor" d="M1.5 2A1.5 1.5 0 0 0 0 3.5v9A1.5 1.5 0 0 0 1.5 14h13a1.5 1.5 0 0 0 1.5-1.5v-9A1.5 1.5 0 0 0 14.5 2zm13 1a.5.5 0 0 1 .5.5v6l-3.775-1.947a.5.5 0 0 0-.577.093l-3.71 3.71-2.66-1.772a.5.5 0 0 0-.63.062L1.002 12v.54L1 12.5v-9a.5.5 0 0 1 .5-.5z"/>
</svg>