<?xml version="1.0" encoding="UTF-8"?>
<svg xmlns="http://www.w3.org/2000/svg" viewBox="0 0 64 64" width="64" height="64" color="#16a34a" role="img" aria-labelledby="state-of-charge-title state-of-charge-desc">
  <title id="state-of-charge-title">SOC状态</title>
  <desc id="state-of-charge-desc">储能场景 - 复用 开发集成 / battery_charge</desc>
  <g transform="translate(8 8) scale(2)">
<path fill="currentColor" d="M7.64 7.12c-.06.12-.1.25-.12.38H5c-.78 0-1.42.6-1.5 1.36V15c0 .78.6 1.42 1.36 1.5H17c.78 0 1.42-.6 1.5-1.36V9c0-.78-.6-1.42-1.36-1.5h-2.09l.3-.61c.16-.3.18-.6.11-.89H17a3 3 0 0 1 3 3v1h1a1 1 0 0 1 1 1v2a1 1 0 0 1-1 1h-1v1a3 3 0 0 1-3 3H5a3 3 0 0 1-3-3V9a3 3 0 0 1 3-3h3.2l-.56 1.12Zm3.6-4.9c.2-.37.76-.24.76.18V6h2.2a.3.3 0 0 1 .27.44l-2.71 5.34c-.2.38-.76.24-.76-.18V8H8.8a.3.3 0 0 1-.27-.43l2.71-5.35Z"/>
  </g>
  <g>
<path d="M46 46h14v14H46z" fill="none" stroke="currentColor" stroke-width="2.6" stroke-linecap="round" stroke-linejoin="round"/><circle cx="52" cy="42" r="0.65" fill="none" stroke="currentColor" stroke-width="2.6" stroke-linecap="round" stroke-linejoin="round"/><path d="M52 42L48 47" fill="none" stroke="currentColor" stroke-width="2.6" stroke-linecap="round" stroke-linejoin="round"/><circle cx="48" cy="44" r="1.1" fill="none" stroke="currentColor" stroke-width="2.6" stroke-linecap="round" stroke-linejoin="round"/>
  </g>
</svg>
