<?xml version="1.0" encoding="UTF-8"?>
<svg xmlns="http://www.w3.org/2000/svg" viewBox="0 0 64 64" width="64" height="64" color="#16a34a" role="img" aria-labelledby="storage-thermal-management-title storage-thermal-management-desc">
  <title id="storage-thermal-management-title">储能热管理</title>
  <desc id="storage-thermal-management-desc">储能场景 - 复用 能源通用 / temperature-water</desc>
  <g transform="translate(8 8) scale(1.5)">
<path fill="currentColor" d="M14,9a4.9316,4.9316,0,0,0,4-1.9873,5.0192,5.0192,0,0,0,8,0A4.9316,4.9316,0,0,0,30,9V7a3.4376,3.4376,0,0,1-3.0513-2.3164A1.007,1.007,0,0,0,26,4a.9894.9894,0,0,0-.9468.6787A3.44,3.44,0,0,1,22,7a3.4376,3.4376,0,0,1-3.0513-2.3164A1.007,1.007,0,0,0,18,4a.971.971,0,0,0-.9468.6787A3.44,3.44,0,0,1,14,7H13V6A4,4,0,0,0,5,6V17.2617A7.0126,7.0126,0,1,0,13.8735,18H14a4.9316,4.9316,0,0,0,4-1.9873,5.0192,5.0192,0,0,0,8,0A4.9316,4.9316,0,0,0,30,18V16a3.4376,3.4376,0,0,1-3.0513-2.3164A1.007,1.007,0,0,0,26,13a.9894.9894,0,0,0-.9468.6787A3.44,3.44,0,0,1,22,16a3.4376,3.4376,0,0,1-3.0513-2.3164A1.007,1.007,0,0,0,18,13a.971.971,0,0,0-.9468.6787A3.44,3.44,0,0,1,14,16H13V9ZM7,6a2,2,0,0,1,4,0v6H7ZM9,28a4.9965,4.9965,0,0,1-2.499-9.3252L7,18.3857V14h4v4.3857l.499.2891A4.9965,4.9965,0,0,1,9,28Z"/>
  </g>
  <g>
<path d="M46 46h14v14H46z" fill="none" stroke="currentColor" stroke-width="2.6" stroke-linecap="round" stroke-linejoin="round"/><circle cx="49" cy="40" r="0.65" fill="none" stroke="currentColor" stroke-width="2.6" stroke-linecap="round" stroke-linejoin="round"/><path d="M49 40L45 46" fill="none" stroke="currentColor" stroke-width="2.6" stroke-linecap="round" stroke-linejoin="round"/><circle cx="45" cy="44" r="1.1" fill="none" stroke="currentColor" stroke-width="2.6" stroke-linecap="round" stroke-linejoin="round"/>
  </g>
</svg>
