<svg xmlns="http://www.w3.org/2000/svg" viewBox="0 0 24 24" color="#2563eb" role="img" aria-labelledby="eva-icons-credit-card-title eva-icons-credit-card-desc">
  <title id="eva-icons-credit-card-title">credit card</title>
  <desc id="eva-icons-credit-card-desc">业务金融 - Eva Icons - credit-card - MIT</desc><g data-name="Layer 2"><g data-name="credit-card"><rect fill="currentColor" width="24" height="24" opacity="0"/><path fill="currentColor" d="M19 5H5a3 3 0 0 0-3 3v8a3 3 0 0 0 3 3h14a3 3 0 0 0 3-3V8a3 3 0 0 0-3-3zM4 8a1 1 0 0 1 1-1h14a1 1 0 0 1 1 1v1H4zm16 8a1 1 0 0 1-1 1H5a1 1 0 0 1-1-1v-5h16z"/><path fill="currentColor" d="M7 15h4a1 1 0 0 0 0-2H7a1 1 0 0 0 0 2z"/><path fill="currentColor" d="M15 15h2a1 1 0 0 0 0-2h-2a1 1 0 0 0 0 2z"/></g></g></svg>