<?xml version="1.0" encoding="UTF-8"?>
<svg xmlns="http://www.w3.org/2000/svg" viewBox="0 0 64 64" width="64" height="64" color="#f59e0b" role="img" aria-labelledby="bifacial-pv-module-title bifacial-pv-module-desc">
  <title id="bifacial-pv-module-title">双面光伏组件</title>
  <desc id="bifacial-pv-module-desc">光伏细分设备 - 复用 风光水发电 / solar-panel-large</desc>
  <g transform="translate(8 8) scale(2)">
<path fill="currentColor" d="M3,6H6V3H3V6M8,3V6H11V3H8M13,3V6H16V3H13M18,3V6H21V3H18M21,8H18V11H21V8M21,13H18V16H21V13M16,16V13H13V16H16M11,16V13H8V16H11M6,16V13H3V16H6M3,11H6V8H3V11M13,8V11H16V8H13M8,8V11H11V8H8M3,1H21A2,2 0 0,1 23,3V16A2,2 0 0,1 21,18H15V21H18V23H13V18H11V23H6V21H9V18H3A2,2 0 0,1 1,16V3A2,2 0 0,1 3,1Z" />
  </g>
  <g>
<path d="M46 46h14v14H46z" fill="none" stroke="currentColor" stroke-width="2.6" stroke-linecap="round" stroke-linejoin="round"/><circle cx="53" cy="51" r="1" fill="none" stroke="currentColor" stroke-width="2.6" stroke-linecap="round" stroke-linejoin="round"/><path d="M53 51L51 54" fill="none" stroke="currentColor" stroke-width="2.6" stroke-linecap="round" stroke-linejoin="round"/><circle cx="53" cy="49" r="1.1" fill="none" stroke="currentColor" stroke-width="2.6" stroke-linecap="round" stroke-linejoin="round"/>
  </g>
</svg>
