<svg xmlns="http://www.w3.org/2000/svg" width="48" height="48" viewBox="0 -960 960 960" color="#2563eb" role="img" aria-labelledby="material-symbols-missed-video-call-title material-symbols-missed-video-call-desc">
  <title id="material-symbols-missed-video-call-title">missed video call</title>
  <desc id="material-symbols-missed-video-call-desc">协作通信 - Material Symbols - missed_video_call - Apache-2.0</desc><path fill="currentColor" d="m429-331 175-175-43-43-132 132-123-123h90v-60H200v190h60v-90l169 169ZM140-160q-24 0-42-18t-18-42v-520q0-24 18-42t42-18h520q24 0 42 18t18 42v215l160-160v410L720-435v215q0 24-18 42t-42 18H140Zm0-60h520v-520H140v520Zm0 0v-520 520Z"/></svg>