<svg width="24" height="24" viewBox="0 0 20 20" xmlns="http://www.w3.org/2000/svg" color="#2563eb" role="img" aria-labelledby="align-start-horizontal-title align-start-horizontal-desc">
  <title id="align-start-horizontal-title">Align Start Horizontal</title>
  <desc id="align-start-horizontal-desc">文字排版 - align_start_horizontal, 20px regular</desc><path fill="currentColor" d="M3.5 18a.5.5 0 0 1-.5-.5v-15a.5.5 0 0 1 1 0v15a.5.5 0 0 1-.5.5Z"/><path fill="currentColor" d="M8 4a2 2 0 0 0-2 2v8c0 1.1.9 2 2 2h2a2 2 0 0 0 2-2V6a2 2 0 0 0-2-2H8ZM7 6a1 1 0 0 1 1-1h2a1 1 0 0 1 1 1v8a1 1 0 0 1-1 1H8a1 1 0 0 1-1-1V6Z"/></svg>