<svg width="24" height="24" viewBox="0 0 20 20" xmlns="http://www.w3.org/2000/svg" color="#2563eb" role="img" aria-labelledby="line-horizontal-4-title line-horizontal-4-desc">
  <title id="line-horizontal-4-title">Line Horizontal 4</title>
  <desc id="line-horizontal-4-desc">文字排版 - line_horizontal_4, 20px regular</desc><path fill="currentColor" d="M2.5 3a.5.5 0 0 0 0 1h15a.5.5 0 0 0 0-1h-15Zm0 4h15a.5.5 0 0 1 0 1h-15a.5.5 0 0 1 0-1ZM2 11.5c0-.28.22-.5.5-.5h15a.5.5 0 0 1 0 1h-15a.5.5 0 0 1-.5-.5Zm.5 3.5a.5.5 0 0 0 0 1h15a.5.5 0 0 0 0-1h-15Z"/></svg>