<svg width="24" height="24" viewBox="0 0 24 24" xmlns="http://www.w3.org/2000/svg" color="#2563eb" role="img" aria-labelledby="text-bullet-list-rtl-title text-bullet-list-rtl-desc">
  <title id="text-bullet-list-rtl-title">Text Bullet List Rtl</title>
  <desc id="text-bullet-list-rtl-desc">文字排版 - text_bullet_list_rtl, 24px regular</desc><path fill="currentColor" d="M20.75 17.5a1.25 1.25 0 1 0 0 2.5 1.25 1.25 0 0 0 0-2.5Zm-3.5.5H2.75a.75.75 0 0 0-.1 1.5h14.6a.75.75 0 0 0 .1-1.5h-.1Zm3.5-7a1.25 1.25 0 1 0 0 2.5 1.25 1.25 0 0 0 0-2.5Zm-3.5.5H2.75a.75.75 0 0 0-.1 1.5h14.6a.75.75 0 0 0 .1-1.5h-.1Zm3.5-7a1.25 1.25 0 1 0 0 2.5 1.25 1.25 0 0 0 0-2.5Zm-3.5.5H2.75a.75.75 0 0 0-.1 1.5h14.6a.75.75 0 0 0 .1-1.5h-.1Z"/></svg>