<svg width="24" height="24" viewBox="0 0 24 24" xmlns="http://www.w3.org/2000/svg" color="#2563eb" role="img" aria-labelledby="text-indent-decrease-rtl-rotate-270-title text-indent-decrease-rtl-rotate-270-desc">
  <title id="text-indent-decrease-rtl-rotate-270-title">Text Indent Decrease Rtl Rotate 270</title>
  <desc id="text-indent-decrease-rtl-rotate-270-desc">文字排版 - text_indent_decrease_rtl_rotate_270, 24px regular</desc><path fill="currentColor" d="M16.75 18.5a.75.75 0 0 1-.75-.75v-9a.75.75 0 0 1 1.5 0v9c0 .41-.34.75-.75.75Zm-5 3a.75.75 0 0 1-.75-.75v-12a.75.75 0 0 1 1.5 0v12c0 .41-.34.75-.75.75Zm-5-3a.75.75 0 0 1-.75-.75v-9a.75.75 0 0 1 1.5 0v9c0 .41-.34.75-.75.75Zm2.4-13.7a.75.75 0 0 0 1.13.98l1.47-1.47 1.47 1.47.08.07a.75.75 0 0 0 .98-1.13l-2-2-.08-.07a.75.75 0 0 0-.98.07l-2 2-.07.08Z"/></svg>