<svg width="24" height="24" viewBox="0 0 24 24" xmlns="http://www.w3.org/2000/svg" color="#2563eb" role="img" aria-labelledby="text-column-two-title text-column-two-desc">
  <title id="text-column-two-title">Text Column Two</title>
  <desc id="text-column-two-desc">文字排版 - text_column_two, 24px regular</desc><path fill="currentColor" d="M3 5.75c0-.41.34-.75.75-.75h6.5a.75.75 0 0 1 0 1.5h-6.5A.75.75 0 0 1 3 5.75Zm0 4c0-.41.34-.75.75-.75h6.5a.75.75 0 0 1 0 1.5h-6.5A.75.75 0 0 1 3 9.75Zm0 4c0-.41.34-.75.75-.75h6.5a.75.75 0 0 1 0 1.5h-6.5a.75.75 0 0 1-.75-.75Zm0 4c0-.41.34-.75.75-.75h6.5a.75.75 0 0 1 0 1.5h-6.5a.75.75 0 0 1-.75-.75Zm10-12c0-.41.34-.75.75-.75h6.5a.75.75 0 0 1 0 1.5h-6.5a.75.75 0 0 1-.75-.75Zm0 4c0-.41.34-.75.75-.75h6.5a.75.75 0 0 1 0 1.5h-6.5a.75.75 0 0 1-.75-.75Zm0 4c0-.41.34-.75.75-.75h6.5a.75.75 0 0 1 0 1.5h-6.5a.75.75 0 0 1-.75-.75Zm0 4c0-.41.34-.75.75-.75h6.5a.75.75 0 0 1 0 1.5h-6.5a.75.75 0 0 1-.75-.75Z"/></svg>