<svg width="24" height="24" viewBox="0 0 20 20" xmlns="http://www.w3.org/2000/svg" color="#2563eb" role="img" aria-labelledby="text-bullet-list-checkmark-title text-bullet-list-checkmark-desc">
  <title id="text-bullet-list-checkmark-title">Text Bullet List Checkmark</title>
  <desc id="text-bullet-list-checkmark-desc">文字排版 - text_bullet_list_checkmark, 20px regular</desc><path fill="currentColor" d="M3 5.5a1 1 0 1 0 0-2 1 1 0 0 0 0 2Zm3-1c0-.28.22-.5.5-.5h11a.5.5 0 0 1 0 1h-11a.5.5 0 0 1-.5-.5Zm0 5c0-.28.22-.5.5-.5h11a.5.5 0 0 1 0 1h-11a.5.5 0 0 1-.5-.5Zm4.02 5.5c.03-.34.1-.68.19-1H6.5a.5.5 0 0 0 0 1h3.52ZM4 14.5a1 1 0 1 1-2 0 1 1 0 0 1 2 0Zm-1-4a1 1 0 1 0 0-2 1 1 0 0 0 0 2Zm17 5a4.5 4.5 0 1 1-9 0 4.5 4.5 0 0 1 9 0Zm-5.5.8-.65-.65a.5.5 0 0 0-.7.7l1 1c.2.2.5.2.7 0l3-3a.5.5 0 0 0-.7-.7l-2.65 2.64Z"/></svg>