<svg width="24" height="24" viewBox="0 0 24 24" xmlns="http://www.w3.org/2000/svg" color="#2563eb" role="img" aria-labelledby="text-header-1-title text-header-1-desc">
  <title id="text-header-1-title">Text Header 1</title>
  <desc id="text-header-1-desc">文字排版 - text_header_1, 24px regular</desc><path fill="currentColor" d="M19.59 5.08a.75.75 0 0 0-.8.08c-.13.1-.21.23-.26.37a7.63 7.63 0 0 1-3.17 4.08.75.75 0 0 0 .78 1.28 8.66 8.66 0 0 0 2.36-2.14v9.5a.75.75 0 0 0 1.5 0V5.77a.75.75 0 0 0-.41-.69ZM3.5 5.75a.75.75 0 0 0-1.5 0v12.5a.75.75 0 0 0 1.5 0V12.5H10v5.75a.75.75 0 0 0 1.5 0V5.75a.75.75 0 0 0-1.5 0V11H3.5V5.75Z"/></svg>