<svg width="24" height="24" viewBox="0 0 24 24" xmlns="http://www.w3.org/2000/svg" color="#2563eb" role="img" aria-labelledby="text-indent-decrease-rotate-270-title text-indent-decrease-rotate-270-desc">
  <title id="text-indent-decrease-rotate-270-title">Text Indent Decrease Rotate 270</title>
  <desc id="text-indent-decrease-rotate-270-desc">文字排版 - text_indent_decrease_rotate_270, 24px regular</desc><path fill="currentColor" d="M16 6.25a.75.75 0 0 1 1.5 0v9a.75.75 0 0 1-1.5 0v-9Zm-4.78 15.03-2-2a.75.75 0 0 1 .98-1.13l.08.07 1.47 1.47 1.47-1.47a.75.75 0 0 1 1.13.98l-.07.08-2 2a.75.75 0 0 1-.98.07l-.08-.07ZM11 3.25a.75.75 0 0 1 1.5 0v12a.75.75 0 0 1-1.5 0v-12Zm-5 3a.75.75 0 0 1 1.5 0v9a.75.75 0 0 1-1.5 0v-9Z"/></svg>