<svg width="24" height="24" viewBox="0 0 24 24" xmlns="http://www.w3.org/2000/svg" color="#2563eb" role="img" aria-labelledby="text-align-justify-low-title text-align-justify-low-desc">
  <title id="text-align-justify-low-title">Text Align Justify Low</title>
  <desc id="text-align-justify-low-desc">文字排版 - text_align_justify_low, 24px regular</desc><path fill="currentColor" d="M13 5.75c0-.41.34-.75.75-.75h7.5a.75.75 0 0 1 0 1.5h-7.5a.75.75 0 0 1-.75-.75Zm-11 13c0-.41.34-.75.75-.75h18.5a.75.75 0 0 1 0 1.5H2.75a.75.75 0 0 1-.75-.75Zm11.75-7.25a.75.75 0 0 0 0 1.5h7.5a.75.75 0 0 0 0-1.5h-7.5Z"/></svg>