<svg width="24" height="24" viewBox="0 0 24 24" xmlns="http://www.w3.org/2000/svg" color="#2563eb" role="img" aria-labelledby="text-bullet-list-ltr-90-title text-bullet-list-ltr-90-desc">
  <title id="text-bullet-list-ltr-90-title">Text Bullet List Ltr 90</title>
  <desc id="text-bullet-list-ltr-90-desc">文字排版 - text_bullet_list_ltr_90, 24px regular</desc><path fill="currentColor" d="M6.5 3.25a1.25 1.25 0 1 1-2.5 0 1.25 1.25 0 0 1 2.5 0ZM6 6.75v14.5a.75.75 0 0 1-1.5.1V6.75a.75.75 0 0 1 1.5-.1v.1Zm7-3.5a1.25 1.25 0 1 1-2.5 0 1.25 1.25 0 0 1 2.5 0Zm-.5 3.5v14.5a.75.75 0 0 1-1.5.1V6.75a.75.75 0 0 1 1.5-.1v.1Zm7-3.5a1.25 1.25 0 1 1-2.5 0 1.25 1.25 0 0 1 2.5 0Zm-.5 3.5v14.5a.75.75 0 0 1-1.5.1V6.75a.75.75 0 0 1 1.5-.1v.1Z"/></svg>