<svg width="24" height="24" viewBox="0 0 24 24" xmlns="http://www.w3.org/2000/svg" color="#2563eb" role="img" aria-labelledby="text-align-justify-low-rotate-90-title text-align-justify-low-rotate-90-desc">
  <title id="text-align-justify-low-rotate-90-title">Text Align Justify Low Rotate 90</title>
  <desc id="text-align-justify-low-rotate-90-desc">文字排版 - text_align_justify_low_rotate_90, 24px regular</desc><path fill="currentColor" d="M18.25 13c.41 0 .75.34.75.75v7.5a.75.75 0 0 1-1.5 0v-7.5c0-.41.34-.75.75-.75Zm-13-11c.41 0 .75.34.75.75v18.5a.75.75 0 0 1-1.5 0V2.75c0-.41.34-.75.75-.75Zm7.25 11.75a.75.75 0 0 0-1.5 0v7.5a.75.75 0 0 0 1.5 0v-7.5Z"/></svg>