<svg width="24" height="24" viewBox="0 0 24 24" xmlns="http://www.w3.org/2000/svg" color="#2563eb" role="img" aria-labelledby="text-indent-increase-rtl-90-title text-indent-increase-rtl-90-desc">
  <title id="text-indent-increase-rtl-90-title">Text Indent Increase Rtl 90</title>
  <desc id="text-indent-increase-rtl-90-desc">文字排版 - text_indent_increase_rtl_90, 24px regular</desc><path fill="currentColor" d="M8 6.25a.75.75 0 0 0-1.5 0v9a.75.75 0 0 0 1.5 0v-9Zm6.78 15.03a.75.75 0 0 0 .07-.98l-.07-.08-2-2a.75.75 0 0 0-.98-.07l-.08.07-2 2a.75.75 0 0 0 .98 1.13l.08-.07 1.47-1.47 1.47 1.47c.3.3.77.3 1.06 0ZM13 3.25a.75.75 0 0 0-1.5 0v12a.75.75 0 0 0 1.5 0v-12Zm5 3a.75.75 0 0 0-1.5 0v9a.75.75 0 0 0 1.5 0v-9Z"/></svg>