<svg width="24" height="24" viewBox="0 0 20 20" xmlns="http://www.w3.org/2000/svg" color="#2563eb" role="img" aria-labelledby="line-horizontal-1-dot-title line-horizontal-1-dot-desc">
  <title id="line-horizontal-1-dot-title">Line Horizontal 1 Dot</title>
  <desc id="line-horizontal-1-dot-desc">输电环节 - line_horizontal_1_dot, 20px regular</desc><path fill="currentColor" d="M3.25 10.75a1.25 1.25 0 1 0 0-2.5 1.25 1.25 0 0 0 0 2.5Zm4.5 0a1.25 1.25 0 1 0 0-2.5 1.25 1.25 0 0 0 0 2.5Zm4.5 0a1.25 1.25 0 1 0 0-2.5 1.25 1.25 0 0 0 0 2.5ZM18 9.5a1.25 1.25 0 1 1-2.5 0 1.25 1.25 0 0 1 2.5 0Z"/></svg>