<svg width="24" height="24" viewBox="0 0 24 24" xmlns="http://www.w3.org/2000/svg" color="#2563eb" role="img" aria-labelledby="line-horizontal-2-dashes-solid-title line-horizontal-2-dashes-solid-desc">
  <title id="line-horizontal-2-dashes-solid-title">Line Horizontal 2 Dashes Solid</title>
  <desc id="line-horizontal-2-dashes-solid-desc">输电环节 - line_horizontal_2_dashes_solid, 24px regular</desc><path fill="currentColor" d="M2.75 7a.75.75 0 0 0 0 1.5h3.5a.75.75 0 0 0 0-1.5h-3.5Zm7.5 0a.75.75 0 0 0 0 1.5h3.5a.75.75 0 0 0 0-1.5h-3.5Zm7.5 0a.75.75 0 0 0 0 1.5h3.5a.75.75 0 0 0 0-1.5h-3.5Zm-15 8a.75.75 0 0 0 0 1.5h18.5a.75.75 0 0 0 0-1.5H2.75Z"/></svg>