<svg width="24" height="24" viewBox="0 0 20 20" xmlns="http://www.w3.org/2000/svg" color="#2563eb" role="img" aria-labelledby="line-horizontal-1-dash-dot-dash-title line-horizontal-1-dash-dot-dash-desc">
  <title id="line-horizontal-1-dash-dot-dash-title">Line Horizontal 1 Dash Dot Dash</title>
  <desc id="line-horizontal-1-dash-dot-dash-desc">输电环节 - line_horizontal_1_dash_dot_dash, 20px regular</desc><path fill="currentColor" d="M10 10.75a1.25 1.25 0 1 0 0-2.5 1.25 1.25 0 0 0 0 2.5ZM2 9.5c0-.28.22-.5.5-.5h4a.5.5 0 0 1 0 1h-4a.5.5 0 0 1-.5-.5Zm11 0c0-.28.22-.5.5-.5h4a.5.5 0 0 1 0 1h-4a.5.5 0 0 1-.5-.5Z"/></svg>