<!-- @license lucide-static v1.21.0 - ISC -->
<svg
  class="lucide lucide-folder-archive"
  xmlns="http://www.w3.org/2000/svg"
  width="24"
  height="24"
  viewBox="0 0 24 24"
  fill="none"
  stroke="currentColor"
  stroke-width="2"
  stroke-linecap="round"
  stroke-linejoin="round"
 color="#2563eb" role="img" aria-labelledby="lucide-folder-archive-title lucide-folder-archive-desc">
  <title id="lucide-folder-archive-title">folder archive</title>
  <desc id="lucide-folder-archive-desc">文件文档 - Lucide - folder-archive - ISC</desc>
  <circle fill="currentColor" cx="15" cy="19" r="2" />
  <path fill="currentColor" d="M20.9 19.8A2 2 0 0 0 22 18V8a2 2 0 0 0-2-2h-7.9a2 2 0 0 1-1.69-.9L9.6 3.9A2 2 0 0 0 7.93 3H4a2 2 0 0 0-2 2v13a2 2 0 0 0 2 2h5.1" />
  <path fill="currentColor" d="M15 11v-1" />
  <path fill="currentColor" d="M15 17v-2" />
</svg>
