<svg xmlns="http://www.w3.org/2000/svg" id="mdi-solar-panel" viewBox="0 0 24 24" color="#2563eb" role="img" aria-labelledby="material-design-icons-solar-panel-title material-design-icons-solar-panel-desc">
  <title id="material-design-icons-solar-panel-title">solar panel</title>
  <desc id="material-design-icons-solar-panel-desc">风光水发电 - Material Design Icons - solar-panel - Apache-2.0</desc><path fill="currentColor" d="M4,2H20A2,2 0 0,1 22,4V14A2,2 0 0,1 20,16H15V20H18V22H13V16H11V22H6V20H9V16H4A2,2 0 0,1 2,14V4A2,2 0 0,1 4,2M4,4V8H11V4H4M4,14H11V10H4V14M20,14V10H13V14H20M20,4H13V8H20V4Z" /></svg>