<svg width="24" height="24" viewBox="0 0 24 24" xmlns="http://www.w3.org/2000/svg" color="#2563eb" role="img" aria-labelledby="device-meeting-room-all-in-one-title device-meeting-room-all-in-one-desc">
  <title id="device-meeting-room-all-in-one-title">Device Meeting Room All In One</title>
  <desc id="device-meeting-room-all-in-one-desc">设备硬件 - device_meeting_room_all_in_one, 24px regular</desc><path fill="currentColor" d="M12 6.75a1.25 1.25 0 1 1 0 2.5 1.25 1.25 0 0 1 0-2.5ZM17.75 3C19.55 3 21 4.46 21 6.25v11.5c0 1.8-1.46 3.25-3.25 3.25H6.25A3.25 3.25 0 0 1 3 17.75V6.25C3 4.45 4.46 3 6.25 3h11.5ZM4.5 17.75c0 .97.78 1.75 1.75 1.75h11.5c.97 0 1.75-.78 1.75-1.75V16h-15v1.75ZM6.25 4.5c-.97 0-1.75.78-1.75 1.75v8.25h15V6.25c0-.97-.78-1.75-1.75-1.75H6.25Z"/></svg>