<svg xmlns="http://www.w3.org/2000/svg" width="48" height="48" viewBox="0 -960 960 960" color="#2563eb" role="img" aria-labelledby="material-symbols-grid-on-title material-symbols-grid-on-desc">
  <title id="material-symbols-grid-on-title">grid on</title>
  <desc id="material-symbols-grid-on-desc">画布工具 - Material Symbols - grid_on - Apache-2.0</desc><path fill="currentColor" d="M180-120q-24 0-42-18t-18-42v-600q0-24 18-42t42-18h600q24 0 42 18t18 42v600q0 24-18 42t-42 18H180Zm0-60h160v-160H180v160Zm220 0h160v-160H400v160Zm220 0h160v-160H620v160ZM180-400h160v-160H180v160Zm220 0h160v-160H400v160Zm220 0h160v-160H620v160ZM180-620h160v-160H180v160Zm220 0h160v-160H400v160Zm220 0h160v-160H620v160Z"/></svg>