<svg width="24" height="24" viewBox="0 0 20 20" xmlns="http://www.w3.org/2000/svg" color="#2563eb" role="img" aria-labelledby="align-space-between-horizontal-title align-space-between-horizontal-desc">
  <title id="align-space-between-horizontal-title">Align Space Between Horizontal</title>
  <desc id="align-space-between-horizontal-desc">画布建模 - align_space_between_horizontal, 20px regular</desc><path fill="currentColor" d="M6 1a2 2 0 0 0-2 2v1c0 1.1.9 2 2 2h8a2 2 0 0 0 2-2V3a2 2 0 0 0-2-2H6ZM5 3a1 1 0 0 1 1-1h8a1 1 0 0 1 1 1v1a1 1 0 0 1-1 1H6a1 1 0 0 1-1-1V3Zm1 11a2 2 0 0 0-2 2v1c0 1.1.9 2 2 2h8a2 2 0 0 0 2-2v-1a2 2 0 0 0-2-2H6Zm-1 2a1 1 0 0 1 1-1h8a1 1 0 0 1 1 1v1a1 1 0 0 1-1 1H6a1 1 0 0 1-1-1v-1Z"/></svg>