<svg width="24" height="24" viewBox="0 0 20 20" xmlns="http://www.w3.org/2000/svg" color="#2563eb" role="img" aria-labelledby="align-start-vertical-title align-start-vertical-desc">
  <title id="align-start-vertical-title">Align Start Vertical</title>
  <desc id="align-start-vertical-desc">画布建模 - align_start_vertical, 20px regular</desc><path fill="currentColor" d="M2 3.5c0-.28.22-.5.5-.5h15a.5.5 0 0 1 0 1h-15a.5.5 0 0 1-.5-.5Z"/><path fill="currentColor" d="M6 6a2 2 0 0 0-2 2v2c0 1.1.9 2 2 2h8a2 2 0 0 0 2-2V8a2 2 0 0 0-2-2H6ZM5 8a1 1 0 0 1 1-1h8a1 1 0 0 1 1 1v2a1 1 0 0 1-1 1H6a1 1 0 0 1-1-1V8Z"/></svg>