<svg width="24" height="24" viewBox="0 0 20 20" xmlns="http://www.w3.org/2000/svg" color="#2563eb" role="img" aria-labelledby="align-space-between-vertical-title align-space-between-vertical-desc">
  <title id="align-space-between-vertical-title">Align Space Between Vertical</title>
  <desc id="align-space-between-vertical-desc">画布建模 - align_space_between_vertical, 20px regular</desc><path fill="currentColor" d="M3 4a2 2 0 0 0-2 2v8c0 1.1.9 2 2 2h1a2 2 0 0 0 2-2V6a2 2 0 0 0-2-2H3ZM2 6a1 1 0 0 1 1-1h1a1 1 0 0 1 1 1v8a1 1 0 0 1-1 1H3a1 1 0 0 1-1-1V6Z"/><path fill="currentColor" d="M16 4a2 2 0 0 0-2 2v8c0 1.1.9 2 2 2h1a2 2 0 0 0 2-2V6a2 2 0 0 0-2-2h-1Zm-1 2a1 1 0 0 1 1-1h1a1 1 0 0 1 1 1v8a1 1 0 0 1-1 1h-1a1 1 0 0 1-1-1V6Z"/></svg>