<svg xmlns="http://www.w3.org/2000/svg" width="8" height="8" viewBox="0 0 8 8" color="#2563eb" role="img" aria-labelledby="open-iconic-power-standby-title open-iconic-power-standby-desc">
  <title id="open-iconic-power-standby-title">power standby</title>
  <desc id="open-iconic-power-standby-desc">能源通用 - Open Iconic - power-standby - MIT</desc>
  <path fill="currentColor" d="M3 0v4h1v-4h-1zm-1.28 1.44l-.38.31c-.81.64-1.34 1.64-1.34 2.75 0 1.93 1.57 3.5 3.5 3.5s3.5-1.57 3.5-3.5c0-1.11-.53-2.11-1.34-2.75l-.38-.31-.63.78.38.31c.58.46.97 1.17.97 1.97 0 1.39-1.11 2.5-2.5 2.5s-2.5-1.11-2.5-2.5c0-.8.36-1.51.94-1.97l.41-.31-.63-.78z"
  />
</svg>