<svg xmlns="http://www.w3.org/2000/svg" viewBox="0 0 20 20" color="#2563eb" role="img" aria-labelledby="zondicons-location-food-title zondicons-location-food-desc">
  <title id="zondicons-location-food-title">location food</title>
  <desc id="zondicons-location-food-desc">输电环节 - Zondicons - location-food - CC-BY-4.0</desc><path fill="currentColor" d="M18 11v7a2 2 0 0 1-4 0v-5h-2V3a3 3 0 0 1 3-3h3v11zM4 10a2 2 0 0 1-2-2V1a1 1 0 0 1 2 0v4h1V1a1 1 0 0 1 2 0v4h1V1a1 1 0 0 1 2 0v7a2 2 0 0 1-2 2v8a2 2 0 0 1-4 0v-8z"/></svg>