<svg viewBox="0 0 24 24" fill="currentColor" xmlns="http://www.w3.org/2000/svg" color="#2563eb" role="img" aria-labelledby="remixicon-drag-drop-title remixicon-drag-drop-desc">
  <title id="remixicon-drag-drop-title">drag drop</title>
  <desc id="remixicon-drag-drop-desc">画布工具 - Remix Icon - drag-drop - Apache-2.0</desc><path fill="currentColor" d="M16 13L22.9641 17.0622L19.9913 17.9129L22.116 21.5933L20.384 22.5933L18.2592 18.9129L16.0359 21.0622L16 13ZM14 6H16V8H21C21.5523 8 22 8.44772 22 9V13H20V10H10V20H14V22H9C8.44772 22 8 21.5523 8 21V16H6V14H8V9C8 8.44772 8.44772 8 9 8H14V6ZM4 14V16H2V14H4ZM4 10V12H2V10H4ZM4 6V8H2V6H4ZM4 2V4H2V2H4ZM8 2V4H6V2H8ZM12 2V4H10V2H12ZM16 2V4H14V2H16Z"/></svg>