<svg xmlns="http://www.w3.org/2000/svg" width="24" height="24" fill="none" viewBox="0 0 24 24" color="#2563eb" role="img" aria-labelledby="sargam-drag-indicator-title sargam-drag-indicator-desc">
  <title id="sargam-drag-indicator-title">drag indicator</title>
  <desc id="sargam-drag-indicator-desc">画布工具 - Sargam Icons - drag-indicator - MIT</desc><path stroke="#000" stroke-linejoin="round" stroke-miterlimit="10" stroke-width="1.5" d="M15 13a1 1 0 1 0 0-2 1 1 0 0 0 0 2ZM15 19a1 1 0 1 0 0-2 1 1 0 0 0 0 2ZM15 7a1 1 0 1 0 0-2 1 1 0 0 0 0 2ZM9 13a1 1 0 1 0 0-2 1 1 0 0 0 0 2ZM9 19a1 1 0 1 0 0-2 1 1 0 0 0 0 2ZM9 7a1 1 0 1 0 0-2 1 1 0 0 0 0 2Z"/></svg>