<svg xmlns="http://www.w3.org/2000/svg" width="8" height="8" viewBox="0 0 8 8" color="#2563eb" role="img" aria-labelledby="open-iconic-info-title open-iconic-info-desc">
  <title id="open-iconic-info-title">info</title>
  <desc id="open-iconic-info-desc">状态告警 - Open Iconic - info - MIT</desc>
  <path fill="currentColor" d="M3 0c-.55 0-1 .45-1 1s.45 1 1 1 1-.45 1-1-.45-1-1-1zm-1.5 2.5c-.83 0-1.5.67-1.5 1.5h1c0-.28.22-.5.5-.5s.5.22.5.5-1 1.64-1 2.5c0 .86.67 1.5 1.5 1.5s1.5-.67 1.5-1.5h-1c0 .28-.22.5-.5.5s-.5-.22-.5-.5c0-.36 1-1.84 1-2.5 0-.81-.67-1.5-1.5-1.5z" transform="translate(2)"
  />
</svg>