<?xml version="1.0" encoding="UTF-8"?>
<svg xmlns="http://www.w3.org/2000/svg" viewBox="0 0 64 64" width="64" height="64" color="#f59e0b" role="img" aria-labelledby="gas-pipeline-title gas-pipeline-desc">
  <title id="gas-pipeline-title">天然气管线</title>
  <desc id="gas-pipeline-desc">油气化工 - gas, pipeline</desc>
  <g>
<path d="M8 32L56 32" fill="none" stroke="currentColor" stroke-width="2.6" stroke-linecap="round" stroke-linejoin="round"/><path d="M20 24L20 40" fill="none" stroke="currentColor" stroke-width="2.6" stroke-linecap="round" stroke-linejoin="round"/><path d="M44 24L44 40" fill="none" stroke="currentColor" stroke-width="2.6" stroke-linecap="round" stroke-linejoin="round"/><path d="M28 24c-3 5 4 7 1 12M36 24c-3 5 4 7 1 12" fill="none" stroke="currentColor" stroke-width="2.6" stroke-linecap="round" stroke-linejoin="round"/><path d="M46 46h14v14H46z" fill="none" stroke="currentColor" stroke-width="2.6" stroke-linecap="round" stroke-linejoin="round"/><circle cx="51" cy="51" r="1.35" fill="none" stroke="currentColor" stroke-width="2.6" stroke-linecap="round" stroke-linejoin="round"/><path d="M51 51L55 48" fill="none" stroke="currentColor" stroke-width="2.6" stroke-linecap="round" stroke-linejoin="round"/><circle cx="51" cy="53" r="1.1" fill="none" stroke="currentColor" stroke-width="2.6" stroke-linecap="round" stroke-linejoin="round"/><path d="M46 46h14v14H46z" fill="none" stroke="currentColor" stroke-width="2.6" stroke-linecap="round" stroke-linejoin="round"/><circle cx="50" cy="49" r="1" fill="none" stroke="currentColor" stroke-width="2.6" stroke-linecap="round" stroke-linejoin="round"/><path d="M50 49L55 53" fill="none" stroke="currentColor" stroke-width="2.6" stroke-linecap="round" stroke-linejoin="round"/><circle cx="54" cy="51" r="1.1" fill="none" stroke="currentColor" stroke-width="2.6" stroke-linecap="round" stroke-linejoin="round"/>
  </g>
</svg>
