<svg xmlns="http://www.w3.org/2000/svg" viewBox="0 0 32 32" color="#2563eb" role="img" aria-labelledby="carbon-cics-region-alt-title carbon-cics-region-alt-desc">
  <title id="carbon-cics-region-alt-title">cics region alt</title>
  <desc id="carbon-cics-region-alt-desc">国家地区旗帜 - Carbon Icons - cics-region-alt - Apache-2.0</desc><path fill="currentColor" d="M31,13v-2h-4c-1.1028,0-2,.8975-2,2v2c0,1.1025,.8972,2,2,2h2v2h-4v2h4c1.1028,0,2-.8975,2-2v-2c0-1.1025-.8972-2-2-2h-2v-2h4Z"/><path fill="currentColor" d="M17,13v6c0,1.1025,.8972,2,2,2h4v-2h-4v-6h4v-2h-4c-1.1028,0-2,.8975-2,2Z"/><path fill="currentColor" d="M9 13 11 13 11 19 9 19 9 21 15 21 15 19 13 19 13 13 15 13 15 11 9 11 9 13z"/><path fill="currentColor" d="M1,13v6c0,1.1025,.8972,2,2,2H7v-2H3v-6H7v-2H3c-1.1028,0-2,.8975-2,2Z"/></svg>