<svg
  xmlns="http://www.w3.org/2000/svg"
  width="24"
  height="24"
  viewBox="0 0 24 24"
  fill="none"
  stroke="currentColor"
  stroke-width="2"
  stroke-linecap="round"
  stroke-linejoin="round"
  class="icon icon-tabler icons-tabler-outline icon-tabler-jacket"
 color="#2563eb" role="img" aria-labelledby="tabler-jacket-title tabler-jacket-desc">
  <title id="tabler-jacket-title">jacket</title>
  <desc id="tabler-jacket-desc">电力电子 - Tabler Icons - jacket - MIT</desc>
  <path stroke="none" d="M0 0h24v24H0z" fill="none" />
  <path fill="currentColor" d="M16 3l-4 5l-4 -5" />
  <path fill="currentColor" d="M12 19a2 2 0 0 1 -2 2h-4a2 2 0 0 1 -2 -2v-8.172a2 2 0 0 1 .586 -1.414l.828 -.828a2 2 0 0 0 .586 -1.414v-2.172a2 2 0 0 1 2 -2h8a2 2 0 0 1 2 2v2.172a2 2 0 0 0 .586 1.414l.828 .828a2 2 0 0 1 .586 1.414v8.172a2 2 0 0 1 -2 2h-4a2 2 0 0 1 -2 -2" />
  <path fill="currentColor" d="M20 13h-3a1 1 0 0 0 -1 1v2a1 1 0 0 0 1 1h3" />
  <path fill="currentColor" d="M4 17h3a1 1 0 0 0 1 -1v-2a1 1 0 0 0 -1 -1h-3" />
  <path fill="currentColor" d="M12 19v-11" />
</svg>