<svg
  xmlns="http://www.w3.org/2000/svg"
  width="24"
  height="24"
  viewBox="0 0 24 24"
  fill="none"
  stroke="currentColor"
  stroke-width="2"
  stroke-linecap="round"
  stroke-linejoin="round"
  class="icon icon-tabler icons-tabler-outline icon-tabler-acorn"
 color="#2563eb" role="img" aria-labelledby="tabler-acorn-title tabler-acorn-desc">
  <title id="tabler-acorn-title">acorn</title>
  <desc id="tabler-acorn-desc">电力电子 - Tabler Icons - acorn - MIT</desc>
  <path stroke="none" d="M0 0h24v24H0z" fill="none" />
  <path fill="currentColor" d="M18 10l-.45 4.1a8.36 8.36 0 0 1 -5.18 6.83a1 1 0 0 1 -.74 0a8.36 8.36 0 0 1 -5.18 -6.83l-.45 -4.1" />
  <path fill="currentColor" d="M13 3a4.9 4.9 0 0 0 -1 3" />
  <path fill="currentColor" d="M8 6h8a3 3 0 0 1 3 3a1 1 0 0 1 -1 1h-12a1 1 0 0 1 -1 -1a3 3 0 0 1 3 -3" />
</svg>