<svg
  xmlns="http://www.w3.org/2000/svg"
  width="24"
  height="24"
  viewBox="0 0 24 24"
  fill="none"
  stroke="currentColor"
  stroke-width="2"
  stroke-linecap="round"
  stroke-linejoin="round"
  class="icon icon-tabler icons-tabler-outline icon-tabler-macro"
 color="#2563eb" role="img" aria-labelledby="tabler-macro-title tabler-macro-desc">
  <title id="tabler-macro-title">macro</title>
  <desc id="tabler-macro-desc">电力电子 - Tabler Icons - macro - MIT</desc>
  <path stroke="none" d="M0 0h24v24H0z" fill="none" />
  <path fill="currentColor" d="M6 15a6 6 0 1 0 12 0" />
  <path fill="currentColor" d="M18 15a6 6 0 0 0 -6 6" />
  <path fill="currentColor" d="M12 21a6 6 0 0 0 -6 -6" />
  <path fill="currentColor" d="M12 21v-10" />
  <path fill="currentColor" d="M12 11a5 5 0 0 1 -5 -5v-3l3 2l2 -2l2 2l3 -2v3a5 5 0 0 1 -5 5" />
</svg>