<svg xmlns="http://www.w3.org/2000/svg" viewBox="0 0 256 256" fill="currentColor" color="#2563eb" role="img" aria-labelledby="phosphor-thermometer-simple-title phosphor-thermometer-simple-desc">
  <title id="phosphor-thermometer-simple-title">thermometer simple</title>
  <desc id="phosphor-thermometer-simple-desc">能源通用 - Phosphor Icons - thermometer-simple - MIT</desc><path fill="currentColor" d="M136,153V88a8,8,0,0,0-16,0v65a32,32,0,1,0,16,0Zm-8,47a16,16,0,1,1,16-16A16,16,0,0,1,128,200Zm40-66V48a40,40,0,0,0-80,0v86a64,64,0,1,0,80,0Zm-40,98a48,48,0,0,1-27.42-87.4A8,8,0,0,0,104,138V48a24,24,0,0,1,48,0v90a8,8,0,0,0,3.42,6.56A48,48,0,0,1,128,232Z"/></svg>