<svg width="24" height="24" viewBox="0 0 20 20" xmlns="http://www.w3.org/2000/svg" color="#2563eb" role="img" aria-labelledby="branch-request-draft-title branch-request-draft-desc">
  <title id="branch-request-draft-title">Branch Request Draft</title>
  <desc id="branch-request-draft-desc">开发集成 - branch_request_draft, 20px regular</desc><path fill="currentColor" d="M3 5a2 2 0 1 1 4 0 2 2 0 0 1-4 0Zm2.5 2.96a3 3 0 1 0-1 0v4.08a3 3 0 1 0 1 0V7.96ZM5 13a2 2 0 1 1 0 4 2 2 0 0 1 0-4Zm10 0a2 2 0 1 0 0 4 2 2 0 0 0 0-4Zm-3 2a3 3 0 1 1 6 0 3 3 0 0 1-6 0Zm4.25-6.5a1.25 1.25 0 1 1-2.5 0 1.25 1.25 0 0 1 2.5 0ZM15 5.25a1.25 1.25 0 1 0 0-2.5 1.25 1.25 0 0 0 0 2.5Z"/></svg>