<svg xmlns="http://www.w3.org/2000/svg" width="16" height="16" fill="none" viewBox="0 0 16 16" color="#2563eb" role="img" aria-labelledby="gravity-ui-chevrons-up-title gravity-ui-chevrons-up-desc">
  <title id="gravity-ui-chevrons-up-title">chevrons up</title>
  <desc id="gravity-ui-chevrons-up-desc">用电环节 - Gravity UI Icons - chevrons-up - MIT</desc><path fill="currentColor" fill-rule="evenodd" d="M10.97 12.53a.75.75 0 1 0 1.06-1.06l-3.5-3.5a.75.75 0 0 0-1.06 0l-3.5 3.5a.75.75 0 1 0 1.06 1.06L8 9.56zm0-5a.75.75 0 1 0 1.06-1.06l-3.5-3.5a.75.75 0 0 0-1.06 0l-3.5 3.5a.75.75 0 0 0 1.06 1.06L8 4.56z" clip-rule="evenodd"/></svg>