<svg xmlns="http://www.w3.org/2000/svg" width="16" height="16" fill="none" viewBox="0 0 16 16" color="#2563eb" role="img" aria-labelledby="gravity-ui-arrow-chevron-down-title gravity-ui-arrow-chevron-down-desc">
  <title id="gravity-ui-arrow-chevron-down-title">arrow chevron down</title>
  <desc id="gravity-ui-arrow-chevron-down-desc">用电环节 - Gravity UI Icons - arrow-chevron-down - MIT</desc><path fill="currentColor" fill-rule="evenodd" d="M8.75 2a.75.75 0 0 0-1.5 0v5.69L4.53 4.97a.75.75 0 0 0-1.06 1.06l4 4a.75.75 0 0 0 1.06 0l4-4a.75.75 0 0 0-1.06-1.06L8.75 7.69zM4.53 9.47a.75.75 0 0 0-1.06 1.06l4 4a.75.75 0 0 0 1.06 0l4-4a.75.75 0 1 0-1.06-1.06L8 12.94z" clip-rule="evenodd"/></svg>