<svg xmlns="http://www.w3.org/2000/svg" width="16" height="16" fill="none" viewBox="0 0 16 16" color="#2563eb" role="img" aria-labelledby="gravity-ui-chevrons-down-title gravity-ui-chevrons-down-desc">
  <title id="gravity-ui-chevrons-down-title">chevrons down</title>
  <desc id="gravity-ui-chevrons-down-desc">用电环节 - Gravity UI Icons - chevrons-down - MIT</desc><path fill="currentColor" fill-rule="evenodd" d="M5.03 3.47a.75.75 0 0 0-1.06 1.06l3.5 3.5a.75.75 0 0 0 1.06 0l3.5-3.5a.75.75 0 0 0-1.06-1.06L8 6.44zm0 5a.75.75 0 0 0-1.06 1.06l3.5 3.5a.75.75 0 0 0 1.06 0l3.5-3.5a.75.75 0 0 0-1.06-1.06L8 11.44z" clip-rule="evenodd"/></svg>