<svg xmlns="http://www.w3.org/2000/svg" width="48" height="48" viewBox="0 -960 960 960" color="#2563eb" role="img" aria-labelledby="material-symbols-flag-check-title material-symbols-flag-check-desc">
  <title id="material-symbols-flag-check-title">flag check</title>
  <desc id="material-symbols-flag-check-desc">状态告警 - Material Symbols - flag_check - Apache-2.0</desc><path fill="currentColor" d="M500-572ZM200-120v-680h284q-5 14-7.5 29.5T472-740H260v251h316l19 85h145v-63q15-1 30.5-3.5T800-478v134H544l-19-85H260v309h-60Zm498-516 141-142-28-28-113 114-59-60-28 29 87 87Zm164.5-222.5Q919-802 919-721t-56.5 137.5Q806-527 725-527t-137.5-56.5Q531-640 531-721t56.5-137.5Q644-915 725-915t137.5 56.5Z"/></svg>