<svg xmlns="http://www.w3.org/2000/svg" viewBox="0 0 576 512" color="#2563eb" role="img" aria-labelledby="fontawesome-solid-ruler-horizontal-title fontawesome-solid-ruler-horizontal-desc">
  <title id="fontawesome-solid-ruler-horizontal-title">ruler horizontal</title>
  <desc id="fontawesome-solid-ruler-horizontal-desc">画布工具 - Font Awesome Free Solid - ruler-horizontal - (CC-BY-4.0 AND OFL-1.1 AND MIT)</desc><!--! Font Awesome Free 7.2.0 by @fontawesome - https://fontawesome.com License - https://fontawesome.com/license/free (Icons: CC BY 4.0, Fonts: SIL OFL 1.1, Code: MIT License) Copyright 2026 Fonticons, Inc. --><path fill="currentColor" d="M48 384c-26.5 0-48-21.5-48-48L0 176c0-26.5 21.5-48 48-48l24 0 0 104c0 13.3 10.7 24 24 24s24-10.7 24-24l0-104 48 0 0 72c0 13.3 10.7 24 24 24s24-10.7 24-24l0-72 48 0 0 104c0 13.3 10.7 24 24 24s24-10.7 24-24l0-104 48 0 0 72c0 13.3 10.7 24 24 24s24-10.7 24-24l0-72 48 0 0 104c0 13.3 10.7 24 24 24s24-10.7 24-24l0-104 24 0c26.5 0 48 21.5 48 48l0 160c0 26.5-21.5 48-48 48L48 384z"/></svg>