<?xml version="1.0" encoding="UTF-8"?>
<svg xmlns="http://www.w3.org/2000/svg" viewBox="0 0 64 64" width="64" height="64" color="#2563eb" role="img" aria-labelledby="ev-charger-title ev-charger-desc">
  <title id="ev-charger-title">充电桩</title>
  <desc id="ev-charger-desc">储能 - 复用 用电环节 / ev-charger</desc>
  <g transform="translate(8 8) scale(2)">
<path fill="currentColor" d="M14 13h2a2 2 0 0 1 2 2v2a2 2 0 0 0 4 0v-6.998a2 2 0 0 0-.59-1.42L18 5" />
  <path fill="currentColor" d="M14 21V5a2 2 0 0 0-2-2H5a2 2 0 0 0-2 2v16" />
  <path fill="currentColor" d="M2 21h13" />
  <path fill="currentColor" d="M3 7h11" />
  <path fill="currentColor" d="m9 11-2 3h3l-2 3" />
  </g>
  <g>
<path d="M46 46h14v14H46z" fill="none" stroke="currentColor" stroke-width="2.6" stroke-linecap="round" stroke-linejoin="round"/><circle cx="50" cy="46" r="0.65" fill="none" stroke="currentColor" stroke-width="2.6" stroke-linecap="round" stroke-linejoin="round"/><path d="M50 46L44 44" fill="none" stroke="currentColor" stroke-width="2.6" stroke-linecap="round" stroke-linejoin="round"/><circle cx="46" cy="45" r="1.1" fill="none" stroke="currentColor" stroke-width="2.6" stroke-linecap="round" stroke-linejoin="round"/>
  </g>
</svg>
