<?xml version="1.0" encoding="UTF-8"?>
<svg xmlns="http://www.w3.org/2000/svg" viewBox="0 0 64 64" width="64" height="64" color="#f59e0b" role="img" aria-labelledby="alarm-title alarm-desc">
  <title id="alarm-title">告警</title>
  <desc id="alarm-desc">测控保护 - 复用 状态告警 / alarm-warning</desc>
  <g transform="translate(8 8) scale(2)">
<path fill="currentColor" d="M4.00001 20V14C4.00001 9.58172 7.58173 6 12 6C16.4183 6 20 9.58172 20 14V20H21V22H3.00001V20H4.00001ZM6.00001 20H18V14C18 10.6863 15.3137 8 12 8C8.6863 8 6.00001 10.6863 6.00001 14V20ZM11 2H13V5H11V2ZM19.7782 4.80761L21.1924 6.22183L19.0711 8.34315L17.6569 6.92893L19.7782 4.80761ZM2.80762 6.22183L4.22183 4.80761L6.34315 6.92893L4.92894 8.34315L2.80762 6.22183ZM7.00001 14C7.00001 11.2386 9.23858 9 12 9V11C10.3432 11 9.00001 12.3431 9.00001 14H7.00001Z"/>
  </g>
  <g>
<path d="M46 46h14v14H46z" fill="none" stroke="currentColor" stroke-width="2.6" stroke-linecap="round" stroke-linejoin="round"/><circle cx="53" cy="54" r="1" fill="none" stroke="currentColor" stroke-width="2.6" stroke-linecap="round" stroke-linejoin="round"/><path d="M53 54L54 55" fill="none" stroke="currentColor" stroke-width="2.6" stroke-linecap="round" stroke-linejoin="round"/><circle cx="54" cy="49" r="1.1" fill="none" stroke="currentColor" stroke-width="2.6" stroke-linecap="round" stroke-linejoin="round"/>
  </g>
</svg>
