<svg xmlns="http://www.w3.org/2000/svg" width="16" height="16" fill="currentColor" class="bi bi-align-end" viewBox="0 0 16 16" color="#2563eb" role="img" aria-labelledby="bootstrap-align-end-title bootstrap-align-end-desc">
  <title id="bootstrap-align-end-title">align end</title>
  <desc id="bootstrap-align-end-desc">画布工具 - Bootstrap Icons - align-end - MIT</desc>
  <path fill="currentColor" fill-rule="evenodd" d="M14.5 1a.5.5 0 0 0-.5.5v13a.5.5 0 0 0 1 0v-13a.5.5 0 0 0-.5-.5"/>
  <path fill="currentColor" d="M13 7a1 1 0 0 0-1-1H2a1 1 0 0 0-1 1v2a1 1 0 0 0 1 1h10a1 1 0 0 0 1-1z"/>
</svg>