<svg xmlns="http://www.w3.org/2000/svg" width="16" height="16" fill="currentColor" class="bi bi-crop" viewBox="0 0 16 16" color="#2563eb" role="img" aria-labelledby="bootstrap-crop-title bootstrap-crop-desc">
  <title id="bootstrap-crop-title">crop</title>
  <desc id="bootstrap-crop-desc">画布工具 - Bootstrap Icons - crop - MIT</desc>
  <path fill="currentColor" d="M3.5.5A.5.5 0 0 1 4 1v13h13a.5.5 0 0 1 0 1h-2v2a.5.5 0 0 1-1 0v-2H3.5a.5.5 0 0 1-.5-.5V4H1a.5.5 0 0 1 0-1h2V1a.5.5 0 0 1 .5-.5m2.5 3a.5.5 0 0 1 .5-.5h8a.5.5 0 0 1 .5.5v8a.5.5 0 0 1-1 0V4H6.5a.5.5 0 0 1-.5-.5"/>
</svg>