<svg xmlns="http://www.w3.org/2000/svg" viewBox="0 0 24 24" color="#2563eb" role="img" aria-labelledby="eva-icons-bar-chart-title eva-icons-bar-chart-desc">
  <title id="eva-icons-bar-chart-title">bar chart</title>
  <desc id="eva-icons-bar-chart-desc">数据图表 - Eva Icons - bar-chart - MIT</desc><g data-name="Layer 2"><g data-name="bar-chart"><rect fill="currentColor" width="24" height="24" transform="rotate(90 12 12)" opacity="0"/><path fill="currentColor" d="M12 4a1 1 0 0 0-1 1v15a1 1 0 0 0 2 0V5a1 1 0 0 0-1-1z"/><path fill="currentColor" d="M19 12a1 1 0 0 0-1 1v7a1 1 0 0 0 2 0v-7a1 1 0 0 0-1-1z"/><path fill="currentColor" d="M5 8a1 1 0 0 0-1 1v11a1 1 0 0 0 2 0V9a1 1 0 0 0-1-1z"/></g></g></svg>