<svg xmlns="http://www.w3.org/2000/svg" viewBox="0 0 32 32" color="#2563eb" role="img" aria-labelledby="carbon-data-table-reference-title carbon-data-table-reference-desc">
  <title id="carbon-data-table-reference-title">data table reference</title>
  <desc id="carbon-data-table-reference-desc">数据图表 - Carbon Icons - data-table-reference - Apache-2.0</desc><path fill="currentColor" d="M4 20 4 22 8.586 22 2 28.586 3.414 30 10 23.414 10 28 12 28 12 20 4 20z"/><path fill="currentColor" d="M20 22H24V24H20z"/><path fill="currentColor" d="M16 18H20V20H16z"/><path fill="currentColor" d="M20 14H24V16H20z"/><path fill="currentColor" d="M8 14H12V16H8z"/><path fill="currentColor" d="M27,3H5A2.0027,2.0027,0,0,0,3,5V16H5V11H27V27H16v2H27a2.0027,2.0027,0,0,0,2-2V5A2.0027,2.0027,0,0,0,27,3Zm0,6H5V5H27Z"/></svg>