<svg xmlns="http://www.w3.org/2000/svg" viewBox="0 0 32 32" color="#2563eb" role="img" aria-labelledby="carbon-bar-title carbon-bar-desc">
  <title id="carbon-bar-title">bar</title>
  <desc id="carbon-bar-desc">数据图表 - Carbon Icons - bar - Apache-2.0</desc><path fill="currentColor" d="M25,11H15a1,1,0,0,0-1,1v4a6.0046,6.0046,0,0,0,5,5.91V28H16v2h8V28H21V21.91A6.0046,6.0046,0,0,0,26,16V12A1,1,0,0,0,25,11Zm-1,5a4,4,0,0,1-8,0V13h8Z"/><path fill="currentColor" d="M15,1H10A1,1,0,0,0,9,2V9.3706A6.09,6.09,0,0,0,6,15V29a1,1,0,0,0,1,1h5V28H8V15c0-3.1875,2.231-4.02,2.3164-4.0513L11,10.7207V3h3V8h2V2A1,1,0,0,0,15,1Z"/></svg>