<svg
  xmlns="http://www.w3.org/2000/svg"
  width="24"
  height="24"
  viewBox="0 0 24 24"
  fill="none"
  stroke="currentColor"
  stroke-width="2"
  stroke-linecap="round"
  stroke-linejoin="round"
  class="icon icon-tabler icons-tabler-outline icon-tabler-device-heart-monitor"
 color="#2563eb" role="img" aria-labelledby="tabler-device-heart-monitor-title tabler-device-heart-monitor-desc">
  <title id="tabler-device-heart-monitor-title">device heart monitor</title>
  <desc id="tabler-device-heart-monitor-desc">用电环节 - Tabler Icons - device-heart-monitor - MIT</desc>
  <path stroke="none" d="M0 0h24v24H0z" fill="none" />
  <path fill="currentColor" d="M4 6a2 2 0 0 1 2 -2h12a2 2 0 0 1 2 2v12a2 2 0 0 1 -2 2h-12a2 2 0 0 1 -2 -2l0 -12" />
  <path fill="currentColor" d="M4 9h6l1 -2l2 4l1 -2h6" />
  <path fill="currentColor" d="M4 14h16" />
  <path fill="currentColor" d="M14 17v.01" />
  <path fill="currentColor" d="M17 17v.01" />
</svg>