<svg
  xmlns="http://www.w3.org/2000/svg"
  width="24"
  height="24"
  viewBox="0 0 24 24"
  fill="none"
  stroke="currentColor"
  stroke-width="2"
  stroke-linecap="round"
  stroke-linejoin="round"
  class="icon icon-tabler icons-tabler-outline icon-tabler-recharging"
 color="#2563eb" role="img" aria-labelledby="tabler-recharging-title tabler-recharging-desc">
  <title id="tabler-recharging-title">recharging</title>
  <desc id="tabler-recharging-desc">用电环节 - Tabler Icons - recharging - MIT</desc>
  <path stroke="none" d="M0 0h24v24H0z" fill="none" />
  <path fill="currentColor" d="M7.038 4.5a9 9 0 0 0 -2.495 2.47" />
  <path fill="currentColor" d="M3.186 10.209a9 9 0 0 0 0 3.508" />
  <path fill="currentColor" d="M4.5 16.962a9 9 0 0 0 2.47 2.495" />
  <path fill="currentColor" d="M10.209 20.814a9 9 0 0 0 3.5 0" />
  <path fill="currentColor" d="M16.962 19.5a9 9 0 0 0 2.495 -2.47" />
  <path fill="currentColor" d="M20.814 13.791a9 9 0 0 0 0 -3.508" />
  <path fill="currentColor" d="M19.5 7.038a9 9 0 0 0 -2.47 -2.495" />
  <path fill="currentColor" d="M13.791 3.186a9 9 0 0 0 -3.508 -.02" />
  <path fill="currentColor" d="M12 8l-2 4h4l-2 4" />
  <path fill="currentColor" d="M12 21a9 9 0 0 0 0 -18" />
</svg>