<svg
  xmlns="http://www.w3.org/2000/svg"
  width="24"
  height="24"
  viewBox="0 0 24 24"
  fill="none"
  stroke="currentColor"
  stroke-width="2"
  stroke-linecap="round"
  stroke-linejoin="round"
  class="icon icon-tabler icons-tabler-outline icon-tabler-devices"
 color="#2563eb" role="img" aria-labelledby="tabler-devices-title tabler-devices-desc">
  <title id="tabler-devices-title">devices</title>
  <desc id="tabler-devices-desc">用电环节 - Tabler Icons - devices - MIT</desc>
  <path stroke="none" d="M0 0h24v24H0z" fill="none" />
  <path fill="currentColor" d="M13 9a1 1 0 0 1 1 -1h6a1 1 0 0 1 1 1v10a1 1 0 0 1 -1 1h-6a1 1 0 0 1 -1 -1v-10" />
  <path fill="currentColor" d="M18 8v-3a1 1 0 0 0 -1 -1h-13a1 1 0 0 0 -1 1v12a1 1 0 0 0 1 1h9" />
  <path fill="currentColor" d="M16 9h2" />
</svg>