<svg
  xmlns="http://www.w3.org/2000/svg"
  width="24"
  height="24"
  viewBox="0 0 24 24"
  fill="none"
  stroke="currentColor"
  stroke-width="2"
  stroke-linecap="round"
  stroke-linejoin="round"
  class="icon icon-tabler icons-tabler-outline icon-tabler-traffic-lights-off"
 color="#2563eb" role="img" aria-labelledby="tabler-traffic-lights-off-title tabler-traffic-lights-off-desc">
  <title id="tabler-traffic-lights-off-title">traffic lights off</title>
  <desc id="tabler-traffic-lights-off-desc">用电环节 - Tabler Icons - traffic-lights-off - MIT</desc>
  <path stroke="none" d="M0 0h24v24H0z" fill="none" />
  <path fill="currentColor" d="M8 4c.912 -1.219 2.36 -2 4 -2a5 5 0 0 1 5 5v6m0 4a5 5 0 0 1 -10 0v-10" />
  <path fill="currentColor" d="M12 8a1 1 0 1 0 -1 -1" />
  <path fill="currentColor" d="M11.291 11.295a1 1 0 0 0 1.418 1.41" />
  <path fill="currentColor" d="M11 17a1 1 0 1 0 2 0a1 1 0 1 0 -2 0" />
  <path fill="currentColor" d="M3 3l18 18" />
</svg>