<?xml version="1.0" encoding="UTF-8"?>
<svg xmlns="http://www.w3.org/2000/svg" viewBox="0 0 64 64" width="64" height="64" color="#0284c7" role="img" aria-labelledby="nacelle-control-cabinet-title nacelle-control-cabinet-desc">
  <title id="nacelle-control-cabinet-title">机舱控制柜</title>
  <desc id="nacelle-control-cabinet-desc">风电细分设备 - 复用 变电环节 / cabinet</desc>
  <g transform="translate(8 8) scale(2)">
<path fill="currentColor" d="M21 4c0-1.103-.897-2-2-2H5c-1.103 0-2 .897-2 2v16c0 1.103.897 2 2 2h14c1.103 0 2-.897 2-2V4zM5 4h14v7H5V4zm0 16v-7h14.001v7H5z"/><path fill="currentColor" d="M14 7h-4V6H8v3h8V6h-2zm0 8v1h-4v-1H8v3h8v-3z"/>
  </g>
  <g>
<path d="M46 46h14v14H46z" fill="none" stroke="currentColor" stroke-width="2.6" stroke-linecap="round" stroke-linejoin="round"/><circle cx="53" cy="51" r="1" fill="none" stroke="currentColor" stroke-width="2.6" stroke-linecap="round" stroke-linejoin="round"/><path d="M53 51L55 52" fill="none" stroke="currentColor" stroke-width="2.6" stroke-linecap="round" stroke-linejoin="round"/><circle cx="54" cy="52" r="1.1" fill="none" stroke="currentColor" stroke-width="2.6" stroke-linecap="round" stroke-linejoin="round"/>
  </g>
</svg>
