<svg xmlns="http://www.w3.org/2000/svg" width="24" height="24" fill="none" viewBox="0 0 24 24" color="#2563eb" role="img" aria-labelledby="flowbite-folder-duplicate-title flowbite-folder-duplicate-desc">
  <title id="flowbite-folder-duplicate-title">folder duplicate</title>
  <desc id="flowbite-folder-duplicate-desc">文件文档 - Flowbite Icons - folder-duplicate - MIT</desc>
  <path stroke="currentColor" stroke-linecap="round" stroke-linejoin="round" stroke-width="2" d="M12 11H4m15.5 5a.5.5 0 0 0 .5-.5V8a1 1 0 0 0-1-1h-3.75a1 1 0 0 1-.829-.44l-1.436-2.12a1 1 0 0 0-.828-.44H8a1 1 0 0 0-1 1M4 9v10a1 1 0 0 0 1 1h11a1 1 0 0 0 1-1v-7a1 1 0 0 0-1-1h-3.75a1 1 0 0 1-.829-.44L9.985 8.44A1 1 0 0 0 9.157 8H5a1 1 0 0 0-1 1Z"/>
</svg>
