<svg xmlns="http://www.w3.org/2000/svg" width="24" height="24" viewBox="0 0 24 24" color="#2563eb" role="img" aria-labelledby="primer-octicons-issue-tracks-title primer-octicons-issue-tracks-desc">
  <title id="primer-octicons-issue-tracks-title">issue tracks</title>
  <desc id="primer-octicons-issue-tracks-desc">电力电子 - Primer Octicons - issue-tracks - MIT</desc><path fill="currentColor" d="M2.5 12a9.5 9.5 0 1 1 19 0 .75.75 0 0 0 1.5 0c0-6.075-4.925-11-11-11S1 5.925 1 12s4.925 11 11 11a.75.75 0 0 0 0-1.5A9.5 9.5 0 0 1 2.5 12Z"/><path fill="currentColor" d="M12 14a2 2 0 1 0 0-4 2 2 0 0 0 0 4Zm2.5 2.75a.75.75 0 0 1 .75-.75h7a.75.75 0 0 1 0 1.5h-7a.75.75 0 0 1-.75-.75Zm3.75 2.75a.75.75 0 0 0 0 1.5h4a.75.75 0 0 0 0-1.5h-4Z"/></svg>