<svg xmlns="http://www.w3.org/2000/svg" width="24" height="24" viewBox="0 0 24 24" color="#2563eb" role="img" aria-labelledby="primer-octicons-accessibility-title primer-octicons-accessibility-desc">
  <title id="primer-octicons-accessibility-title">accessibility</title>
  <desc id="primer-octicons-accessibility-desc">电力电子 - Primer Octicons - accessibility - MIT</desc><path fill="currentColor" d="M13.974 8.114a3.573 3.573 0 1 0-3.947 0c-.302.21-.57.467-.79.762H3.708a.75.75 0 1 0 0 1.5h4.885a2.93 2.93 0 0 0-.026.188l-.814 7.267-.499 4.142a.75.75 0 1 0 1.49.18l.42-3.486h5.67l.42 3.485a.75.75 0 0 0 1.49-.18l-.5-4.142-.813-7.266a3.502 3.502 0 0 0-.026-.188h4.885a.75.75 0 1 0 0-1.5h-5.527a3.466 3.466 0 0 0-.79-.762Zm.099-2.979a2.073 2.073 0 1 1-4.146 0 2.073 2.073 0 0 1 4.146 0Zm-.131 5.596.72 6.436H9.338l.72-6.436a1.954 1.954 0 0 1 3.884 0Z"/></svg>