<svg xmlns="http://www.w3.org/2000/svg" width="24" height="24" viewBox="0 0 24 24" color="#2563eb" role="img" aria-labelledby="primer-octicons-filter-title primer-octicons-filter-desc">
  <title id="primer-octicons-filter-title">filter</title>
  <desc id="primer-octicons-filter-desc">电力电子 - Primer Octicons - filter - MIT</desc><path fill="currentColor" d="M2.75 6a.75.75 0 0 0 0 1.5h18.5a.75.75 0 0 0 0-1.5H2.75ZM6 11.75a.75.75 0 0 1 .75-.75h10.5a.75.75 0 0 1 0 1.5H6.75a.75.75 0 0 1-.75-.75Zm4 4.938a.75.75 0 0 1 .75-.75h2.5a.75.75 0 0 1 0 1.5h-2.5a.75.75 0 0 1-.75-.75Z"/></svg>