<svg xmlns="http://www.w3.org/2000/svg" width="24" height="24" viewBox="0 0 24 24" color="#2563eb" role="img" aria-labelledby="primer-octicons-accessibility-inset-title primer-octicons-accessibility-inset-desc">
  <title id="primer-octicons-accessibility-inset-title">accessibility inset</title>
  <desc id="primer-octicons-accessibility-inset-desc">电力电子 - Primer Octicons - accessibility-inset - MIT</desc><path fill="currentColor" d="M12 0C5.373 0 0 5.373 0 12s5.373 12 12 12 12-5.373 12-12S18.627 0 12 0Zm2.5 6.5a2.5 2.5 0 1 1-5 0 2.5 2.5 0 0 1 5 0ZM12 9h6.375a.75.75 0 0 1 0 1.5h-4.028l.542 4.42.482 4.5a.75.75 0 1 1-1.492.16l-.41-3.83H10.53l-.41 3.83a.75.75 0 1 1-1.492-.16l.484-4.511.54-4.409H5.625a.75.75 0 0 1 0-1.5H12Z"/></svg>