<svg width="24" height="24" fill="none" viewBox="0 0 24 24" stroke-width="1.5" stroke="currentColor" stroke-linecap="round" stroke-linejoin="round" xmlns="http://www.w3.org/2000/svg" color="#2563eb" role="img" aria-labelledby="mynaui-credit-card-check-title mynaui-credit-card-check-desc">
  <title id="mynaui-credit-card-check-title">credit card check</title>
  <desc id="mynaui-credit-card-check-desc">业务金融 - Mynaui Icons - credit-card-check - MIT</desc><path fill="currentColor" d="M3 9v-.8c0-1.12 0-1.68.218-2.108.192-.377.497-.682.874-.874C4.52 5 5.08 5 6.2 5h6.3M3 9h9.5M3 9v6.8c0 1.12 0 1.68.218 2.108a2 2 0 0 0 .874.874c.427.218.987.218 2.105.218h11.606c1.118 0 1.677 0 2.104-.218.377-.192.683-.498.875-.874.218-.428.218-.986.218-2.104V11m-5-3.678 1.484 1.576a.337.337 0 0 0 .502-.022L21 5M6 15h4"/></svg>