<svg width="24" height="24" viewBox="0 0 24 24" xmlns="http://www.w3.org/2000/svg" color="#2563eb" role="img" aria-labelledby="arrow-export-up-title arrow-export-up-desc">
  <title id="arrow-export-up-title">Arrow Export Up</title>
  <desc id="arrow-export-up-desc">导航视图 - arrow_export_up, 24px regular</desc><path fill="currentColor" d="M12.28 2.22a.75.75 0 0 0-1.06 0l-5 5a.75.75 0 0 0 1.06 1.06L11 4.56v13.69a.75.75 0 0 0 1.5 0V4.56l3.72 3.72a.75.75 0 1 0 1.06-1.06l-5-5ZM5.25 20.5a.75.75 0 0 0 0 1.5h13a.75.75 0 0 0 0-1.5h-13Z"/></svg>