<svg width="24" height="24" viewBox="0 0 20 20" xmlns="http://www.w3.org/2000/svg" color="#2563eb" role="img" aria-labelledby="arrow-wrap-off-title arrow-wrap-off-desc">
  <title id="arrow-wrap-off-title">Arrow Wrap Off</title>
  <desc id="arrow-wrap-off-desc">导航视图 - arrow_wrap_off, 20px regular</desc><path fill="currentColor" d="M2.85 2.15a.5.5 0 1 0-.7.7l1.17 1.18A.5.5 0 0 0 3.5 5h.8l4 4H6a3 3 0 1 0 0 6h8.3l1.35 1.35 1.5 1.5a.5.5 0 0 0 .7-.7l-15-15ZM13.3 14H6a2 2 0 1 1 0-4h3.3l4 4Z"/><path fill="currentColor" d="M14 9h-2.88l1 1H14a3 3 0 1 0 0-6H6.12l1 1H14a2 2 0 1 1 0 4Z"/><path fill="currentColor" d="M17.41 15.3 16.12 14h.17l-.64-.65a.5.5 0 0 1 .7-.7l1.5 1.5c.2.2.2.5 0 .7l-.44.44Z"/></svg>