<svg width="24" height="24" viewBox="0 0 20 20" xmlns="http://www.w3.org/2000/svg" color="#2563eb" role="img" aria-labelledby="arrow-sprint-title arrow-sprint-desc">
  <title id="arrow-sprint-title">Arrow Sprint</title>
  <desc id="arrow-sprint-desc">导航视图 - arrow_sprint, 20px regular</desc><path fill="currentColor" d="M10 6a3.5 3.5 0 1 0 0 7h7.3l-1.15-1.15a.5.5 0 0 1 .7-.7l2 2c.2.2.2.5 0 .7l-2 2a.5.5 0 0 1-.7-.7L17.29 14H10a4.5 4.5 0 1 1 3.74-2h-1.29A3.49 3.49 0 0 0 10 6Zm-7.5 7h3.26c.31.38.67.72 1.08 1H2.5a.5.5 0 0 1 0-1Z"/></svg>