<svg width="24" height="24" viewBox="0 0 24 24" xmlns="http://www.w3.org/2000/svg" color="#2563eb" role="img" aria-labelledby="navigation-title navigation-desc">
  <title id="navigation-title">Navigation</title>
  <desc id="navigation-desc">导航视图 - navigation, 24px regular</desc><path fill="currentColor" d="M2.75 18h18.5a.75.75 0 0 1 .1 1.5H2.75a.75.75 0 0 1-.1-1.5h18.6-18.5Zm0-6.5h18.5a.75.75 0 0 1 .1 1.5H2.75a.75.75 0 0 1-.1-1.5h18.6-18.5Zm0-6.5h18.5a.75.75 0 0 1 .1 1.5H2.75a.75.75 0 0 1-.1-1.49h18.6-18.5Z"/></svg>