<svg width="24" height="24" viewBox="0 0 24 24" xmlns="http://www.w3.org/2000/svg" color="#2563eb" role="img" aria-labelledby="navigation-briefcase-title navigation-briefcase-desc">
  <title id="navigation-briefcase-title">Navigation Briefcase</title>
  <desc id="navigation-briefcase-desc">导航视图 - navigation_briefcase, 24px regular</desc><path fill="currentColor" d="M2.75 18H12v1.5H2.75a.75.75 0 0 1-.1-1.5h.1Zm0-5H14.1c.18-.61.56-1.14 1.06-1.5H2.65a.75.75 0 0 0 .1 1.5Zm0-8h18.5a.75.75 0 0 1 .1 1.5H2.75a.75.75 0 0 1-.1-1.49h.1ZM15 15v-1.25c0-.97.78-1.75 1.75-1.75h3.5c.97 0 1.75.78 1.75 1.75V15h.5c.83 0 1.5.67 1.5 1.5v5c0 .83-.67 1.5-1.5 1.5h-8a1.5 1.5 0 0 1-1.5-1.5v-5c0-.83.67-1.5 1.5-1.5h.5Zm1.5-1.25V15h4v-1.25a.25.25 0 0 0-.25-.25h-3.5a.25.25 0 0 0-.25.25Z"/></svg>