<!-- Generated by IcoMoon.io -->
<!DOCTYPE svg PUBLIC "-//W3C//DTD SVG 1.1//EN" "http://www.w3.org/Graphics/SVG/1.1/DTD/svg11.dtd">
<svg version="1.1" xmlns="http://www.w3.org/2000/svg" xmlns:xlink="http://www.w3.org/1999/xlink" width="16" height="16" viewBox="0 0 16 16" color="#2563eb" role="img" aria-labelledby="vaadin-time-forward-title vaadin-time-forward-desc">
  <title id="vaadin-time-forward-title">time forward</title>
  <desc id="vaadin-time-forward-desc">办公效率 - Vaadin Icons - time-forward - Apache-2.0</desc>
<path fill="#444" d="M8 4h-1v5h4v-1h-3z"></path>
<path fill="#444" d="M16 7v-4l-1.1 1.1c-1.3-2.5-3.9-4.1-6.9-4.1-4.4 0-8 3.6-8 8s3.6 8 8 8c2.4 0 4.6-1.1 6-2.8l-1.5-1.3c-1.1 1.3-2.7 2.1-4.5 2.1-3.3 0-6-2.7-6-6s2.7-6 6-6c2.4 0 4.5 1.5 5.5 3.5l-1.5 1.5h4z"></path>
</svg>
