<svg
  xmlns="http://www.w3.org/2000/svg"
  width="24"
  height="24"
  viewBox="0 0 24 24"
  fill="none"
  stroke="currentColor"
  stroke-width="2"
  stroke-linecap="round"
  stroke-linejoin="round"
  class="icon icon-tabler icons-tabler-outline icon-tabler-face-mask"
 color="#2563eb" role="img" aria-labelledby="tabler-face-mask-title tabler-face-mask-desc">
  <title id="tabler-face-mask-title">face mask</title>
  <desc id="tabler-face-mask-desc">医疗安全 - Tabler Icons - face-mask - MIT</desc>
  <path stroke="none" d="M0 0h24v24H0z" fill="none" />
  <path fill="currentColor" d="M5 14.5h-.222c-1.535 0 -2.778 -1.12 -2.778 -2.5s1.243 -2.5 2.778 -2.5h.222" />
  <path fill="currentColor" d="M19 14.5h.222c1.534 0 2.778 -1.12 2.778 -2.5s-1.244 -2.5 -2.778 -2.5h-.222" />
  <path fill="currentColor" d="M9 10h6" />
  <path fill="currentColor" d="M9 14h6" />
  <path fill="currentColor" d="M12.55 18.843l5 -1.429a2 2 0 0 0 1.45 -1.923v-6.981a2 2 0 0 0 -1.45 -1.923l-5 -1.429a2 2 0 0 0 -1.1 0l-5 1.429a2 2 0 0 0 -1.45 1.922v6.982a2 2 0 0 0 1.45 1.923l5 1.429a2 2 0 0 0 1.1 0" />
</svg>