<svg
  xmlns="http://www.w3.org/2000/svg"
  width="24"
  height="24"
  viewBox="0 0 24 24"
  fill="none"
  stroke="currentColor"
  stroke-width="2"
  stroke-linecap="round"
  stroke-linejoin="round"
  class="icon icon-tabler icons-tabler-outline icon-tabler-first-aid-kit-off"
 color="#2563eb" role="img" aria-labelledby="tabler-first-aid-kit-off-title tabler-first-aid-kit-off-desc">
  <title id="tabler-first-aid-kit-off-title">first aid kit off</title>
  <desc id="tabler-first-aid-kit-off-desc">医疗安全 - Tabler Icons - first-aid-kit-off - MIT</desc>
  <path stroke="none" d="M0 0h24v24H0z" fill="none" />
  <path fill="currentColor" d="M8.595 4.577a2 2 0 0 1 1.405 -.577h4a2 2 0 0 1 2 2v2" />
  <path fill="currentColor" d="M12 8h6a2 2 0 0 1 2 2v6m-.576 3.405a2 2 0 0 1 -1.424 .595h-12a2 2 0 0 1 -2 -2v-8a2 2 0 0 1 2 -2h2" />
  <path fill="currentColor" d="M10 14h4" />
  <path fill="currentColor" d="M12 12v4" />
  <path fill="currentColor" d="M3 3l18 18" />
</svg>