<svg
  xmlns="http://www.w3.org/2000/svg"
  width="24"
  height="24"
  viewBox="0 0 24 24"
  fill="none"
  stroke="currentColor"
  stroke-width="2"
  stroke-linecap="round"
  stroke-linejoin="round"
  class="icon icon-tabler icons-tabler-outline icon-tabler-mask-off"
 color="#2563eb" role="img" aria-labelledby="tabler-mask-off-title tabler-mask-off-desc">
  <title id="tabler-mask-off-title">mask off</title>
  <desc id="tabler-mask-off-desc">医疗安全 - Tabler Icons - mask-off - MIT</desc>
  <path stroke="none" d="M0 0h24v24H0z" fill="none" />
  <path fill="currentColor" d="M19.42 19.41a2 2 0 0 1 -1.42 .59h-12a2 2 0 0 1 -2 -2v-12c0 -.554 .225 -1.055 .588 -1.417m3.412 -.583h10a2 2 0 0 1 2 2v10" />
  <path fill="currentColor" d="M9.885 9.872a3 3 0 1 0 4.245 4.24m.582 -3.396a3.012 3.012 0 0 0 -1.438 -1.433" />
  <path fill="currentColor" d="M3 3l18 18" />
</svg>