<svg
  xmlns="http://www.w3.org/2000/svg"
  width="24"
  height="24"
  viewBox="0 0 24 24"
  fill="none"
  stroke="currentColor"
  stroke-width="2"
  stroke-linecap="round"
  stroke-linejoin="round"
  class="icon icon-tabler icons-tabler-outline icon-tabler-virus"
 color="#2563eb" role="img" aria-labelledby="tabler-virus-title tabler-virus-desc">
  <title id="tabler-virus-title">virus</title>
  <desc id="tabler-virus-desc">医疗安全 - Tabler Icons - virus - MIT</desc>
  <path stroke="none" d="M0 0h24v24H0z" fill="none" />
  <path fill="currentColor" d="M7 12a5 5 0 1 0 10 0a5 5 0 1 0 -10 0" />
  <path fill="currentColor" d="M12 7v-4" />
  <path fill="currentColor" d="M11 3h2" />
  <path fill="currentColor" d="M15.536 8.464l2.828 -2.828" />
  <path fill="currentColor" d="M17.657 4.929l1.414 1.414" />
  <path fill="currentColor" d="M17 12h4" />
  <path fill="currentColor" d="M21 11v2" />
  <path fill="currentColor" d="M15.535 15.536l2.829 2.828" />
  <path fill="currentColor" d="M19.071 17.657l-1.414 1.414" />
  <path fill="currentColor" d="M12 17v4" />
  <path fill="currentColor" d="M13 21h-2" />
  <path fill="currentColor" d="M8.465 15.536l-2.829 2.828" />
  <path fill="currentColor" d="M6.343 19.071l-1.413 -1.414" />
  <path fill="currentColor" d="M7 12h-4" />
  <path fill="currentColor" d="M3 13v-2" />
  <path fill="currentColor" d="M8.464 8.464l-2.828 -2.828" />
  <path fill="currentColor" d="M4.929 6.343l1.414 -1.413" />
</svg>