<svg xmlns="http://www.w3.org/2000/svg" viewBox="0 0 32 32" color="#2563eb" role="img" aria-labelledby="carbon-coupling-facility-encryption-title carbon-coupling-facility-encryption-desc">
  <title id="carbon-coupling-facility-encryption-title">coupling facility encryption</title>
  <desc id="carbon-coupling-facility-encryption-desc">工业设施 - Carbon Icons - coupling-facility-encryption - Apache-2.0</desc><path fill="currentColor" d="M29,21.3v-1.3c0-2.2-1.8-4-4-4s-4,1.8-4,4v1.3c-.6.3-1,1-1,1.7v5c0,1.1.9,2,2,2h6c1.1,0,2-.9,2-2v-5c0-.7-.4-1.4-1-1.7ZM25,18c1.1,0,2,.9,2,2v1h-4v-1c0-1.1.9-2,2-2ZM28,28h-6v-5h6v5ZM18,30H3c-.3,0-.7-.2-.9-.5s-.2-.7,0-1L15.1,2.6c.3-.7,1.4-.7,1.8,0l5.5,11-1.8.9-4.6-9.3L4.6,28h13.4v2Z"/></svg>