<svg xmlns="http://www.w3.org/2000/svg" width="16" height="16" focusable="false" viewBox="0 0 16 16" color="#2563eb" role="img" aria-labelledby="zendesk-garden-home-title zendesk-garden-home-desc">
  <title id="zendesk-garden-home-title">home</title>
  <desc id="zendesk-garden-home-desc">配电环节 - Zendesk Garden Icons - home - Apache-2.0</desc>
  <path fill="none" stroke="currentColor" d="M3 15.5h3a.5.5 0 00.5-.5v-4a.5.5 0 01.5-.5h2a.5.5 0 01.5.5v4a.5.5 0 00.5.5h3a.5.5 0 00.5-.5V8.5h1.453a.497.497 0 00.404-.836L8.354.654a.5.5 0 00-.708 0L.643 7.664a.497.497 0 00.404.836H2.5V15a.5.5 0 00.5.5z"/>
</svg>
