<svg xmlns="http://www.w3.org/2000/svg" width="16" height="16" focusable="false" viewBox="0 0 16 16" color="#2563eb" role="img" aria-labelledby="zendesk-garden-building-title zendesk-garden-building-desc">
  <title id="zendesk-garden-building-title">building</title>
  <desc id="zendesk-garden-building-desc">配电环节 - Zendesk Garden Icons - building - Apache-2.0</desc>
  <path fill="none" stroke="currentColor" d="M13 .5H3c-.3 0-.5.2-.5.5v14c0 .3.2.5.5.5h3c.3 0 .5-.2.5-.5v-3c0-.3.2-.5.5-.5h2c.3 0 .5.2.5.5v3c0 .3.2.5.5.5h3c.3 0 .5-.2.5-.5V1c0-.3-.2-.5-.5-.5z"/>
  <path fill="currentColor" d="M5 7h2v2H5zm4 0h2v2H9zM5 3h2v2H5zm4 0h2v2H9z"/>
</svg>
