<svg
  xmlns="http://www.w3.org/2000/svg"
  width="24"
  height="24"
  viewBox="0 0 24 24"
  fill="none"
  stroke="currentColor"
  stroke-width="2"
  stroke-linecap="round"
  stroke-linejoin="round"
  class="icon icon-tabler icons-tabler-outline icon-tabler-basket-x"
 color="#2563eb" role="img" aria-labelledby="tabler-basket-x-title tabler-basket-x-desc">
  <title id="tabler-basket-x-title">basket x</title>
  <desc id="tabler-basket-x-desc">业务金融 - Tabler Icons - basket-x - MIT</desc>
  <path stroke="none" d="M0 0h24v24H0z" fill="none" />
  <path fill="currentColor" d="M17 10l-2 -6" />
  <path fill="currentColor" d="M7 10l2 -6" />
  <path fill="currentColor" d="M13.5 20h-6.256a3 3 0 0 1 -2.965 -2.544l-1.255 -7.152a2 2 0 0 1 1.977 -2.304h13.999a2 2 0 0 1 1.977 2.304l-.532 3.03" />
  <path fill="currentColor" d="M10 14a2 2 0 1 0 4 0a2 2 0 0 0 -4 0" />
  <path fill="currentColor" d="M22 22l-5 -5" />
  <path fill="currentColor" d="M17 22l5 -5" />
</svg>