<svg
  xmlns="http://www.w3.org/2000/svg"
  width="24"
  height="24"
  viewBox="0 0 24 24"
  fill="none"
  stroke="currentColor"
  stroke-width="2"
  stroke-linecap="round"
  stroke-linejoin="round"
  class="icon icon-tabler icons-tabler-outline icon-tabler-cash"
 color="#2563eb" role="img" aria-labelledby="tabler-cash-title tabler-cash-desc">
  <title id="tabler-cash-title">cash</title>
  <desc id="tabler-cash-desc">业务金融 - Tabler Icons - cash - MIT</desc>
  <path stroke="none" d="M0 0h24v24H0z" fill="none" />
  <path fill="currentColor" d="M7 15h-3a1 1 0 0 1 -1 -1v-8a1 1 0 0 1 1 -1h12a1 1 0 0 1 1 1v3" />
  <path fill="currentColor" d="M7 10a1 1 0 0 1 1 -1h12a1 1 0 0 1 1 1v8a1 1 0 0 1 -1 1h-12a1 1 0 0 1 -1 -1l0 -8" />
  <path fill="currentColor" d="M12 14a2 2 0 1 0 4 0a2 2 0 0 0 -4 0" />
</svg>