<svg xmlns="http://www.w3.org/2000/svg" width="16" height="16" fill="currentColor" class="bi bi-building-up" viewBox="0 0 16 16" color="#2563eb" role="img" aria-labelledby="bootstrap-building-up-title bootstrap-building-up-desc">
  <title id="bootstrap-building-up-title">building up</title>
  <desc id="bootstrap-building-up-desc">地图地点 - Bootstrap Icons - building-up - MIT</desc>
  <path fill="currentColor" d="M12.5 16a3.5 3.5 0 1 0 0-7 3.5 3.5 0 0 0 0 7m.354-5.854 1.5 1.5a.5.5 0 0 1-.708.708L13 11.707V14.5a.5.5 0 0 1-1 0v-2.793l-.646.647a.5.5 0 0 1-.708-.708l1.5-1.5a.5.5 0 0 1 .708 0"/>
  <path fill="currentColor" d="M2 1a1 1 0 0 1 1-1h10a1 1 0 0 1 1 1v6.5a.5.5 0 0 1-1 0V1H3v14h3v-2.5a.5.5 0 0 1 .5-.5H8v4H3a1 1 0 0 1-1-1z"/>
  <path fill="currentColor" d="M4.5 2a.5.5 0 0 0-.5.5v1a.5.5 0 0 0 .5.5h1a.5.5 0 0 0 .5-.5v-1a.5.5 0 0 0-.5-.5zm3 0a.5.5 0 0 0-.5.5v1a.5.5 0 0 0 .5.5h1a.5.5 0 0 0 .5-.5v-1a.5.5 0 0 0-.5-.5zm3 0a.5.5 0 0 0-.5.5v1a.5.5 0 0 0 .5.5h1a.5.5 0 0 0 .5-.5v-1a.5.5 0 0 0-.5-.5zm-6 3a.5.5 0 0 0-.5.5v1a.5.5 0 0 0 .5.5h1a.5.5 0 0 0 .5-.5v-1a.5.5 0 0 0-.5-.5zm3 0a.5.5 0 0 0-.5.5v1a.5.5 0 0 0 .5.5h1a.5.5 0 0 0 .5-.5v-1a.5.5 0 0 0-.5-.5zm3 0a.5.5 0 0 0-.5.5v1a.5.5 0 0 0 .5.5h1a.5.5 0 0 0 .5-.5v-1a.5.5 0 0 0-.5-.5zm-6 3a.5.5 0 0 0-.5.5v1a.5.5 0 0 0 .5.5h1a.5.5 0 0 0 .5-.5v-1a.5.5 0 0 0-.5-.5zm3 0a.5.5 0 0 0-.5.5v1a.5.5 0 0 0 .5.5h1a.5.5 0 0 0 .5-.5v-1a.5.5 0 0 0-.5-.5z"/>
</svg>