<svg xmlns="http://www.w3.org/2000/svg" width="24" height="24" viewBox="0 0 24 24" color="#2563eb" role="img" aria-labelledby="primer-octicons-filter-remove-title primer-octicons-filter-remove-desc">
  <title id="primer-octicons-filter-remove-title">filter remove</title>
  <desc id="primer-octicons-filter-remove-desc">通用命令 - Primer Octicons - filter-remove - MIT</desc><path fill="currentColor" d="M21.587 9.273a.75.75 0 1 0 1.061-1.061l-1.591-1.591 1.591-1.591a.749.749 0 1 0-1.061-1.06l-1.591 1.591-1.591-1.591a.749.749 0 1 0-1.06 1.06l1.591 1.591-1.591 1.591a.75.75 0 0 0 1.06 1.061l1.591-1.591 1.591 1.591ZM1.75 6a.75.75 0 0 0 0 1.5H14.5a.75.75 0 0 0 0-1.5H1.75ZM5 11.75a.75.75 0 0 1 .75-.75h10.5a.75.75 0 0 1 0 1.5H5.75a.75.75 0 0 1-.75-.75Zm4 4.938a.75.75 0 0 1 .75-.75h2.5a.75.75 0 1 1 0 1.5h-2.5a.75.75 0 0 1-.75-.75Z"/></svg>