<svg width="24" height="24" viewBox="0 0 20 20" xmlns="http://www.w3.org/2000/svg" color="#2563eb" role="img" aria-labelledby="line-horizontal-5-title line-horizontal-5-desc">
  <title id="line-horizontal-5-title">Line Horizontal 5</title>
  <desc id="line-horizontal-5-desc">文字排版 - line_horizontal_5, 20px regular</desc><path fill="currentColor" d="M2 3.5c0-.28.22-.5.5-.5h15a.5.5 0 0 1 0 1h-15a.5.5 0 0 1-.5-.5Zm0 6c0-.28.22-.5.5-.5h15a.5.5 0 0 1 0 1h-15a.5.5 0 0 1-.5-.5ZM2.5 6a.5.5 0 0 0 0 1h15a.5.5 0 0 0 0-1h-15ZM2 12.5c0-.28.22-.5.5-.5h15a.5.5 0 0 1 0 1h-15a.5.5 0 0 1-.5-.5Zm.5 2.5a.5.5 0 0 0 0 1h15a.5.5 0 0 0 0-1h-15Z"/></svg>