<svg width="24" height="24" viewBox="0 0 24 24" xmlns="http://www.w3.org/2000/svg" color="#2563eb" role="img" aria-labelledby="text-align-right-title text-align-right-desc">
  <title id="text-align-right-title">右对齐</title>
  <desc id="text-align-right-desc">文字排版 - text_align_right, 24px regular</desc><path fill="currentColor" d="M5 5.75c0-.41.34-.75.75-.75h15.5a.75.75 0 0 1 0 1.5H5.75A.75.75 0 0 1 5 5.75Zm5 13c0-.41.34-.75.75-.75h10.5a.75.75 0 0 1 0 1.5h-10.5a.75.75 0 0 1-.75-.75ZM2.75 11.5a.75.75 0 0 0 0 1.5h18.5a.75.75 0 0 0 0-1.5H2.75Z"/></svg>