<svg width="24" height="24" viewBox="0 0 24 24" xmlns="http://www.w3.org/2000/svg" color="#2563eb" role="img" aria-labelledby="text-align-left-title text-align-left-desc">
  <title id="text-align-left-title">左对齐</title>
  <desc id="text-align-left-desc">文字排版 - text_align_left, 24px regular</desc><path fill="currentColor" d="M2 5.75c0-.41.34-.75.75-.75h15.5a.75.75 0 0 1 0 1.5H2.75A.75.75 0 0 1 2 5.75Zm0 13c0-.41.34-.75.75-.75h10.5a.75.75 0 0 1 0 1.5H2.75a.75.75 0 0 1-.75-.75Zm.75-7.25a.75.75 0 0 0 0 1.5h18.5a.75.75 0 0 0 0-1.5H2.75Z"/></svg>