<svg width="24" height="24" viewBox="0 0 24 24" xmlns="http://www.w3.org/2000/svg" color="#2563eb" role="img" aria-labelledby="text-position-behind-title text-position-behind-desc">
  <title id="text-position-behind-title">Text Position Behind</title>
  <desc id="text-position-behind-desc">文字排版 - text_position_behind, 24px regular</desc><path fill="currentColor" d="M3 4.75c0-.41.34-.75.75-.75h16.5a.75.75 0 0 1 0 1.5H3.75A.75.75 0 0 1 3 4.75ZM9.5 11a2.5 2.5 0 0 1 5 0v4.75a.75.75 0 0 0 1.5 0V11a4 4 0 0 0-8 0v4.75a.75.75 0 0 0 1.5 0V11Zm10.75 1.5H17V11h3.25a.75.75 0 0 1 0 1.5Zm-16.5 0H7V11H3.75a.75.75 0 0 0 0 1.5Zm0 5.5a.75.75 0 0 0 0 1.5h16.5a.75.75 0 0 0 0-1.5H3.75Zm6.75-7h3v1.5h-3V11Z"/></svg>