<svg width="24" height="24" viewBox="0 0 24 24" xmlns="http://www.w3.org/2000/svg" color="#2563eb" role="img" aria-labelledby="text-position-front-title text-position-front-desc">
  <title id="text-position-front-title">Text Position Front</title>
  <desc id="text-position-front-desc">文字排版 - text_position_front, 24px regular</desc><path fill="currentColor" d="M3.75 4a.75.75 0 0 0 0 1.5h16.5a.75.75 0 0 0 0-1.5H3.75ZM12 8.5A2.5 2.5 0 0 0 9.7 10H8.14a4 4 0 0 1 7.74 0H14.3A2.5 2.5 0 0 0 12 8.5Zm-4 5h1.5v2.25a.75.75 0 0 1-1.5 0V13.5Zm8 0h-1.5v2.25a.75.75 0 0 0 1.5 0V13.5Zm4.25-2.5a.75.75 0 0 1 0 1.5H3.75a.75.75 0 0 1 0-1.5h16.5ZM3 18.75c0-.41.34-.75.75-.75h16.5a.75.75 0 0 1 0 1.5H3.75a.75.75 0 0 1-.75-.75Z"/></svg>