<svg width="24" height="24" viewBox="0 0 24 24" xmlns="http://www.w3.org/2000/svg" color="#2563eb" role="img" aria-labelledby="text-align-right-rotate-90-title text-align-right-rotate-90-desc">
  <title id="text-align-right-rotate-90-title">Text Align Right Rotate 90</title>
  <desc id="text-align-right-rotate-90-desc">文字排版 - text_align_right_rotate_90, 24px regular</desc><path fill="currentColor" d="M18.25 5c.41 0 .75.34.75.75v15.5a.75.75 0 0 1-1.5 0V5.75c0-.41.34-.75.75-.75Zm-13 5c.41 0 .75.34.75.75v10.5a.75.75 0 0 1-1.5 0v-10.5c0-.41.34-.75.75-.75Zm7.25-7.25a.75.75 0 0 0-1.5 0v18.5a.75.75 0 0 0 1.5 0V2.75Z"/></svg>