<svg width="24" height="24" viewBox="0 0 24 24" xmlns="http://www.w3.org/2000/svg" color="#2563eb" role="img" aria-labelledby="text-align-justify-low-rotate-270-title text-align-justify-low-rotate-270-desc">
  <title id="text-align-justify-low-rotate-270-title">Text Align Justify Low Rotate 270</title>
  <desc id="text-align-justify-low-rotate-270-desc">文字排版 - text_align_justify_low_rotate_270, 24px regular</desc><path fill="currentColor" d="M5.75 11a.75.75 0 0 1-.75-.75v-7.5a.75.75 0 0 1 1.5 0v7.5c0 .41-.34.75-.75.75Zm13 11a.75.75 0 0 1-.75-.75V2.75a.75.75 0 0 1 1.5 0v18.5c0 .41-.34.75-.75.75ZM11.5 10.25a.75.75 0 0 0 1.5 0v-7.5a.75.75 0 0 0-1.5 0v7.5Z"/></svg>