<svg width="24" height="24" viewBox="0 0 24 24" xmlns="http://www.w3.org/2000/svg" color="#2563eb" role="img" aria-labelledby="text-indent-decrease-rtl-90-title text-indent-decrease-rtl-90-desc">
  <title id="text-indent-decrease-rtl-90-title">Text Indent Decrease Rtl 90</title>
  <desc id="text-indent-decrease-rtl-90-desc">文字排版 - text_indent_decrease_rtl_90, 24px regular</desc><path fill="currentColor" d="M7.25 5.5c.41 0 .75.34.75.75v9a.75.75 0 0 1-1.5 0v-9c0-.41.34-.75.75-.75Zm5-3c.41 0 .75.34.75.75v12a.75.75 0 0 1-1.5 0v-12c0-.41.34-.75.75-.75Zm5 3c.41 0 .75.34.75.75v9a.75.75 0 0 1-1.5 0v-9c0-.41.34-.75.75-.75Zm-2.4 13.7a.75.75 0 0 0-1.13-.98l-1.47 1.47-1.47-1.47-.08-.07a.75.75 0 0 0-.98 1.13l2 2 .08.07c.3.22.71.2.98-.07l2-2 .07-.08Z"/></svg>