<svg width="24" height="24" viewBox="0 0 20 20" xmlns="http://www.w3.org/2000/svg" color="#2563eb" role="img" aria-labelledby="text-bullet-list-square-clock-title text-bullet-list-square-clock-desc">
  <title id="text-bullet-list-square-clock-title">Text Bullet List Square Clock</title>
  <desc id="text-bullet-list-square-clock-desc">文字排版 - text_bullet_list_square_clock, 20px regular</desc><path fill="currentColor" d="M5.75 3h8.5A2.75 2.75 0 0 1 17 5.75V9.6c-.32-.16-.65-.3-1-.4V5.76C16 4.78 15.22 4 14.25 4h-8.5C4.78 4 4 4.78 4 5.75v8.5c0 .97.78 1.75 1.75 1.75h3.46c.1.35.23.68.39 1H5.75A2.75 2.75 0 0 1 3 14.25v-8.5A2.75 2.75 0 0 1 5.75 3Zm3.75 7h1.84c-.4.28-.77.62-1.08 1H9.5a.5.5 0 0 1 0-1ZM6.75 8a.75.75 0 1 0 0-1.5.75.75 0 0 0 0 1.5Zm.75 2.25a.75.75 0 1 1-1.5 0 .75.75 0 0 1 1.5 0Zm0 3a.75.75 0 1 1-1.5 0 .75.75 0 0 1 1.5 0ZM9 7.5c0-.28.22-.5.5-.5h4a.5.5 0 0 1 0 1h-4a.5.5 0 0 1-.5-.5Zm10 7a4.5 4.5 0 1 1-9 0 4.5 4.5 0 0 1 9 0ZM14.5 12a.5.5 0 0 0-.5.5v2c0 .28.22.5.5.5H16a.5.5 0 0 0 0-1h-1v-1.5a.5.5 0 0 0-.5-.5Z"/></svg>