<svg width="24" height="24" viewBox="0 0 24 24" xmlns="http://www.w3.org/2000/svg" color="#2563eb" role="img" aria-labelledby="text-align-center-title text-align-center-desc">
  <title id="text-align-center-title">居中对齐</title>
  <desc id="text-align-center-desc">文字排版 - text_align_center, 24px regular</desc><path fill="currentColor" d="M4 5.75c0-.41.34-.75.75-.75h14.5a.75.75 0 0 1 0 1.5H4.75A.75.75 0 0 1 4 5.75Zm2 13c0-.41.34-.75.75-.75h10.5a.75.75 0 0 1 0 1.5H6.75a.75.75 0 0 1-.75-.75ZM2.75 11.5a.75.75 0 0 0 0 1.5h18.5a.75.75 0 0 0 0-1.5H2.75Z"/></svg>