<svg width="24" height="24" viewBox="0 0 16 16" xmlns="http://www.w3.org/2000/svg" color="#2563eb" role="img" aria-labelledby="text-t-tag-title text-t-tag-desc">
  <title id="text-t-tag-title">Text T Tag</title>
  <desc id="text-t-tag-desc">文字排版 - text_t_tag, 16px regular</desc><path fill="currentColor" d="M4 3.5c0-.28.22-.5.5-.5h7c.28 0 .5.22.5.5v1a.5.5 0 0 1-1 0V4H8.5v8H9a.5.5 0 0 1 0 1H7a.5.5 0 0 1 0-1h.5V4H5v.5a.5.5 0 0 1-1 0v-1Zm.35 3.15c.2.2.2.5 0 .7L2.21 9.5l2.14 2.15a.5.5 0 0 1-.7.7l-2.5-2.5a.5.5 0 0 1 0-.7l2.5-2.5c.2-.2.5-.2.7 0Zm10.5 2.5-2.5-2.5a.5.5 0 0 0-.7.7l2.14 2.15-2.14 2.15a.5.5 0 0 0 .7.7l2.5-2.5a.5.5 0 0 0 0-.7Z"/></svg>