<svg viewBox="0 0 15 15" fill="none" xmlns="http://www.w3.org/2000/svg" color="#2563eb" role="img" aria-labelledby="teenyicons-code-title teenyicons-code-desc">
  <title id="teenyicons-code-title">code</title>
  <desc id="teenyicons-code-desc">开发工具 - Teenyicons - code - MIT</desc>
  <path d="M10.146 10.146l-.353.354.707.707.354-.353-.708-.708zM13.5 7.5l.354.354.353-.354-.353-.354-.354.354zm-2.646-3.354l-.354-.353-.707.707.353.354.708-.708zm-6.708 6.708l.354.353.707-.707-.353-.354-.708.708zM1.5 7.5l-.354-.354-.353.354.353.354L1.5 7.5zm3.354-2.646l.353-.354-.707-.707-.354.353.708.708zm6 6l3-3-.708-.708-3 3 .708.708zm3-3.708l-3-3-.708.708 3 3 .708-.708zm-9 3l-3-3-.708.708 3 3 .708-.708zm-3-2.292l3-3-.708-.708-3 3 .708.708zm6.153-6.436l-2 12 .986.164 2-12-.986-.164z" fill="currentColor"/>
</svg>
