<svg viewBox="0 0 15 15" fill="none" xmlns="http://www.w3.org/2000/svg" color="#2563eb" role="img" aria-labelledby="teenyicons-qr-code-title teenyicons-qr-code-desc">
  <title id="teenyicons-qr-code-title">qr code</title>
  <desc id="teenyicons-qr-code-desc">开发工具 - Teenyicons - qr-code - MIT</desc>
  <path d="M12 8.5H8.5V12M14 8.5h1m-3 6H8m3-3h3.5V15M3 3.5h1m7 0h1m-9 8h1M1.5.5h4a1 1 0 011 1v4a1 1 0 01-1 1h-4a1 1 0 01-1-1v-4a1 1 0 011-1zm8 0h4a1 1 0 011 1v4a1 1 0 01-1 1h-4a1 1 0 01-1-1v-4a1 1 0 011-1zm-8 8h4a1 1 0 011 1v4a1 1 0 01-1 1h-4a1 1 0 01-1-1v-4a1 1 0 011-1z" stroke="currentColor"/>
</svg>
