<svg xmlns="http://www.w3.org/2000/svg" viewBox="0 0 32 32" color="#2563eb" role="img" aria-labelledby="carbon-circuit-composer-title carbon-circuit-composer-desc">
  <title id="carbon-circuit-composer-title">circuit composer</title>
  <desc id="carbon-circuit-composer-desc">电力电网 - Carbon Icons - circuit-composer - Apache-2.0</desc><path fill="currentColor" d="M18 9 18 15 14 15 14 9 12 9 12 23 14 23 14 17 18 17 18 23 20 23 20 9 18 9z"/><path fill="currentColor" d="M30,15H26V6a2,2,0,0,0-2-2H8A2,2,0,0,0,6,6v9H2v2H6v9a2,2,0,0,0,2,2H24a2,2,0,0,0,2-2V17h4ZM8,26V6H24V26Z"/></svg>