<svg xmlns="http://www.w3.org/2000/svg" viewBox="0 0 256 256" fill="currentColor" color="#2563eb" role="img" aria-labelledby="phosphor-device-mobile-title phosphor-device-mobile-desc">
  <title id="phosphor-device-mobile-title">device mobile</title>
  <desc id="phosphor-device-mobile-desc">用电环节 - Phosphor Icons - device-mobile - MIT</desc><path fill="currentColor" d="M176,16H80A24,24,0,0,0,56,40V216a24,24,0,0,0,24,24h96a24,24,0,0,0,24-24V40A24,24,0,0,0,176,16ZM72,64H184V192H72Zm8-32h96a8,8,0,0,1,8,8v8H72V40A8,8,0,0,1,80,32Zm96,192H80a8,8,0,0,1-8-8v-8H184v8A8,8,0,0,1,176,224Z"/></svg>