<svg xmlns="http://www.w3.org/2000/svg" width="48" height="48" viewBox="0 -960 960 960" color="#2563eb" role="img" aria-labelledby="material-symbols-hotel-class-title material-symbols-hotel-class-desc">
  <title id="material-symbols-hotel-class-title">hotel class</title>
  <desc id="material-symbols-hotel-class-desc">地图地点 - Material Symbols - hotel_class - Apache-2.0</desc><path fill="currentColor" d="m668-380 172-148 85 7-189 162 57 246-74-45-51-222Zm-93-289-57-134 32-77 92 217-67-6ZM263-245l157-94 157 95-42-178 138-120-182-16-71-168-71 167-182 16 138 120-42 178Zm-90 125 65-281L20-590l288-25 112-265 112 265 288 25-218 189 65 281-247-149-247 149Zm247-345Z"/></svg>