<svg xmlns="http://www.w3.org/2000/svg" width="48" height="48" viewBox="0 -960 960 960" color="#2563eb" role="img" aria-labelledby="material-symbols-post-add-title material-symbols-post-add-desc">
  <title id="material-symbols-post-add-title">post add</title>
  <desc id="material-symbols-post-add-desc">通用命令 - Material Symbols - post_add - Apache-2.0</desc><path fill="currentColor" d="M180-120q-24 0-42-18t-18-42v-600q0-24 18-42t42-18h394v60H180v600h600v-394h60v394q0 24-18 42t-42 18H180Zm141-157v-60h319v60H321Zm0-127v-60h319v60H321Zm0-127v-60h319v60H321Zm371-73v-88h-88v-60h88v-88h60v88h88v60h-88v88h-60Z"/></svg>