<svg xmlns="http://www.w3.org/2000/svg" width="48" height="48" viewBox="0 -960 960 960" color="#2563eb" role="img" aria-labelledby="material-symbols-edit-title material-symbols-edit-desc">
  <title id="material-symbols-edit-title">edit</title>
  <desc id="material-symbols-edit-desc">通用命令 - Material Symbols - edit - Apache-2.0</desc><path fill="currentColor" d="M180-180h44l472-471-44-44-472 471v44Zm-60 60v-128l575-574q8-8 19-12.5t23-4.5q11 0 22 4.5t20 12.5l44 44q9 9 13 20t4 22q0 11-4.5 22.5T823-694L248-120H120Zm659-617-41-41 41 41Zm-105 64-22-22 44 44-22-22Z"/></svg>