<svg width="24" height="24" fill="none" viewBox="0 0 24 24" stroke-width="1.5" stroke="currentColor" stroke-linecap="round" stroke-linejoin="round" xmlns="http://www.w3.org/2000/svg" color="#2563eb" role="img" aria-labelledby="mynaui-support-title mynaui-support-desc">
  <title id="mynaui-support-title">support</title>
  <desc id="mynaui-support-desc">地图地点 - Mynaui Icons - support - MIT</desc><path fill="currentColor" d="M21 12a9 9 0 1 1-18 0 9 9 0 0 1 18 0"/><path fill="currentColor" d="m18 6-3.525 3.525M6 18l3.525-3.525M6 6l3.525 3.525M18 18l-3.525-3.525m-4.95 0c-1.348-1.348-1.348-3.601 0-4.95m0 4.95c1.348 1.348 3.601 1.348 4.95 0m0 0c1.348-1.348 1.348-3.601 0-4.95m0 0c-1.348-1.348-3.601-1.348-4.95 0"/></svg>