<!-- @license lucide-static v1.21.0 - ISC -->
<svg
  class="lucide lucide-scan-face"
  xmlns="http://www.w3.org/2000/svg"
  width="24"
  height="24"
  viewBox="0 0 24 24"
  fill="none"
  stroke="currentColor"
  stroke-width="2"
  stroke-linecap="round"
  stroke-linejoin="round"
 color="#2563eb" role="img" aria-labelledby="lucide-scan-face-title lucide-scan-face-desc">
  <title id="lucide-scan-face-title">scan face</title>
  <desc id="lucide-scan-face-desc">电力电子 - Lucide - scan-face - ISC</desc>
  <path fill="currentColor" d="M3 7V5a2 2 0 0 1 2-2h2" />
  <path fill="currentColor" d="M17 3h2a2 2 0 0 1 2 2v2" />
  <path fill="currentColor" d="M21 17v2a2 2 0 0 1-2 2h-2" />
  <path fill="currentColor" d="M7 21H5a2 2 0 0 1-2-2v-2" />
  <path fill="currentColor" d="M8 14s1.5 2 4 2 4-2 4-2" />
  <path fill="currentColor" d="M9 9h.01" />
  <path fill="currentColor" d="M15 9h.01" />
</svg>
