<?xml version="1.0" encoding="UTF-8"?>
<svg xmlns="http://www.w3.org/2000/svg" viewBox="0 0 64 64" width="64" height="64" color="#2563eb" role="img" aria-labelledby="shield-person-title shield-person-desc">
  <title id="shield-person-title">人员防护</title>
  <desc id="shield-person-desc">安全消防 - 复用 协作通信 / person_shield</desc>
  <g transform="translate(8 8) scale(2)">
<path fill="currentColor" d="M17.01 12.2a.71.71 0 0 1 .98 0c.65.65 1.9 1.68 3.45 1.9.3.04.56.28.56.58v2.84c0 3.82-3.58 5.2-4.35 5.46-.1.03-.2.03-.3 0-.77-.26-4.35-1.64-4.35-5.46v-2.84c0-.3.25-.54.56-.59a6.44 6.44 0 0 0 3.45-1.9ZM12.16 14c-.1.2-.16.43-.16.69v.81H4.25a.75.75 0 0 0-.75.75v.58c0 .53.2 1.05.54 1.46C5.3 19.75 7.26 20.5 10 20.5c.96 0 1.82-.1 2.6-.28.22.47.5.92.85 1.33-1.03.3-2.18.45-3.45.45-3.15 0-5.53-.9-7.1-2.74a3.75 3.75 0 0 1-.9-2.43v-.58C2 15 3.01 14 4.25 14h7.91ZM10 2a5 5 0 1 1 0 10 5 5 0 0 1 0-10Zm0 1.5a3.5 3.5 0 1 0 0 7 3.5 3.5 0 0 0 0-7Z"/>
  </g>
  <g>
<path d="M46 46h14v14H46z" fill="none" stroke="currentColor" stroke-width="2.6" stroke-linecap="round" stroke-linejoin="round"/><circle cx="48" cy="53" r="1" fill="none" stroke="currentColor" stroke-width="2.6" stroke-linecap="round" stroke-linejoin="round"/><path d="M48 53L55 50" fill="none" stroke="currentColor" stroke-width="2.6" stroke-linecap="round" stroke-linejoin="round"/><circle cx="51" cy="55" r="1.1" fill="none" stroke="currentColor" stroke-width="2.6" stroke-linecap="round" stroke-linejoin="round"/>
  </g>
</svg>
