<svg xmlns="http://www.w3.org/2000/svg" width="16" height="16" fill="currentColor" class="bi bi-bag-plus" viewBox="0 0 16 16" color="#2563eb" role="img" aria-labelledby="bootstrap-bag-plus-title bootstrap-bag-plus-desc">
  <title id="bootstrap-bag-plus-title">bag plus</title>
  <desc id="bootstrap-bag-plus-desc">通用命令 - Bootstrap Icons - bag-plus - MIT</desc>
  <path fill="currentColor" fill-rule="evenodd" d="M8 7.5a.5.5 0 0 1 .5.5v1.5H10a.5.5 0 0 1 0 1H8.5V12a.5.5 0 0 1-1 0v-1.5H6a.5.5 0 0 1 0-1h1.5V8a.5.5 0 0 1 .5-.5"/>
  <path fill="currentColor" d="M8 1a2.5 2.5 0 0 1 2.5 2.5V4h-5v-.5A2.5 2.5 0 0 1 8 1m3.5 3v-.5a3.5 3.5 0 1 0-7 0V4H1v10a2 2 0 0 0 2 2h10a2 2 0 0 0 2-2V4zM2 5h12v9a1 1 0 0 1-1 1H3a1 1 0 0 1-1-1z"/>
</svg>