<svg width="24" height="24" viewBox="0 0 24 24" xmlns="http://www.w3.org/2000/svg" color="#2563eb" role="img" aria-labelledby="book-exclamation-mark-title book-exclamation-mark-desc">
  <title id="book-exclamation-mark-title">Book Exclamation Mark</title>
  <desc id="book-exclamation-mark-desc">教育科研 - book_exclamation_mark, 24px regular</desc><path fill="currentColor" d="M13.25 14.5a1 1 0 1 1-2 0 1 1 0 0 1 2 0ZM11.5 6.75v5a.75.75 0 0 0 1.5 0v-5a.75.75 0 0 0-1.5 0ZM4 4.5A2.5 2.5 0 0 1 6.5 2H18a2.5 2.5 0 0 1 2.5 2.5v14.25c0 .41-.34.75-.75.75H5.5a1 1 0 0 0 1 1h13.25a.75.75 0 0 1 0 1.5H6.5A2.5 2.5 0 0 1 4 19.5v-15ZM19 18V4.5a1 1 0 0 0-1-1H6.5a1 1 0 0 0-1 1V18H19Z"/></svg>