<svg xmlns="http://www.w3.org/2000/svg" viewBox="0 0 24 24" color="#2563eb" role="img" aria-labelledby="eva-icons-flash-title eva-icons-flash-desc">
  <title id="eva-icons-flash-title">flash</title>
  <desc id="eva-icons-flash-desc">能源通用 - Eva Icons - flash - MIT</desc><g data-name="Layer 2"><g data-name="flash"><rect fill="currentColor" width="24" height="24" opacity="0"/><path fill="currentColor" d="M11.11 23a1 1 0 0 1-.34-.06 1 1 0 0 1-.65-1.05l.77-7.09H5a1 1 0 0 1-.83-1.56l7.89-11.8a1 1 0 0 1 1.17-.38 1 1 0 0 1 .65 1l-.77 7.14H19a1 1 0 0 1 .83 1.56l-7.89 11.8a1 1 0 0 1-.83.44zM6.87 12.8H12a1 1 0 0 1 .74.33 1 1 0 0 1 .25.78l-.45 4.15 4.59-6.86H12a1 1 0 0 1-1-1.11l.45-4.15z"/></g></g></svg>