<svg xmlns="http://www.w3.org/2000/svg" viewBox="0 0 24 24" color="#2563eb" role="img" aria-labelledby="eva-icons-recording-title eva-icons-recording-desc">
  <title id="eva-icons-recording-title">recording</title>
  <desc id="eva-icons-recording-desc">能源通用 - Eva Icons - recording - MIT</desc><g data-name="Layer 2"><g data-name="recording"><rect fill="currentColor" width="24" height="24" opacity="0"/><path fill="currentColor" d="M18 8a4 4 0 0 0-4 4 3.91 3.91 0 0 0 .56 2H9.44a3.91 3.91 0 0 0 .56-2 4 4 0 1 0-4 4h12a4 4 0 0 0 0-8zM4 12a2 2 0 1 1 2 2 2 2 0 0 1-2-2zm14 2a2 2 0 1 1 2-2 2 2 0 0 1-2 2z"/></g></g></svg>