<!-- @license lucide-static v1.21.0 - ISC -->
<svg
  class="lucide lucide-map-pin-house"
  xmlns="http://www.w3.org/2000/svg"
  width="24"
  height="24"
  viewBox="0 0 24 24"
  fill="none"
  stroke="currentColor"
  stroke-width="2"
  stroke-linecap="round"
  stroke-linejoin="round"
 color="#2563eb" role="img" aria-labelledby="lucide-map-pin-house-title lucide-map-pin-house-desc">
  <title id="lucide-map-pin-house-title">map pin house</title>
  <desc id="lucide-map-pin-house-desc">地图地点 - Lucide - map-pin-house - ISC</desc>
  <path fill="currentColor" d="M15 22a1 1 0 0 1-1-1v-4a1 1 0 0 1 .445-.832l3-2a1 1 0 0 1 1.11 0l3 2A1 1 0 0 1 22 17v4a1 1 0 0 1-1 1z" />
  <path fill="currentColor" d="M18 10a8 8 0 0 0-16 0c0 4.993 5.539 10.193 7.399 11.799a1 1 0 0 0 .601.2" />
  <path fill="currentColor" d="M18 22v-3" />
  <circle fill="currentColor" cx="10" cy="10" r="3" />
</svg>
