<!-- @license lucide-static v1.21.0 - ISC -->
<svg
  class="lucide lucide-warehouse"
  xmlns="http://www.w3.org/2000/svg"
  width="24"
  height="24"
  viewBox="0 0 24 24"
  fill="none"
  stroke="currentColor"
  stroke-width="2"
  stroke-linecap="round"
  stroke-linejoin="round"
 color="#2563eb" role="img" aria-labelledby="lucide-warehouse-title lucide-warehouse-desc">
  <title id="lucide-warehouse-title">warehouse</title>
  <desc id="lucide-warehouse-desc">地图地点 - Lucide - warehouse - ISC</desc>
  <path fill="currentColor" d="M18 21V10a1 1 0 0 0-1-1H7a1 1 0 0 0-1 1v11" />
  <path fill="currentColor" d="M22 19a2 2 0 0 1-2 2H4a2 2 0 0 1-2-2V8a2 2 0 0 1 1.132-1.803l7.95-3.974a2 2 0 0 1 1.837 0l7.948 3.974A2 2 0 0 1 22 8z" />
  <path fill="currentColor" d="M6 13h12" />
  <path fill="currentColor" d="M6 17h12" />
</svg>
