<svg xmlns="http://www.w3.org/2000/svg" viewBox="0 0 32 32" color="#2563eb" role="img" aria-labelledby="carbon-chat-title carbon-chat-desc">
  <title id="carbon-chat-title">chat</title>
  <desc id="carbon-chat-desc">协作通信 - Carbon Icons - chat - Apache-2.0</desc><path fill="currentColor" d="M17.74,30,16,29l4-7h6a2,2,0,0,0,2-2V8a2,2,0,0,0-2-2H6A2,2,0,0,0,4,8V20a2,2,0,0,0,2,2h9v2H6a4,4,0,0,1-4-4V8A4,4,0,0,1,6,4H26a4,4,0,0,1,4,4V20a4,4,0,0,1-4,4H21.16Z"/><path fill="currentColor" d="M8 10H24V12H8z"/><path fill="currentColor" d="M8 16H18V18H8z"/></svg>