<svg xmlns="http://www.w3.org/2000/svg" viewBox="0 0 32 32" color="#2563eb" role="img" aria-labelledby="carbon-video-title carbon-video-desc">
  <title id="carbon-video-title">video</title>
  <desc id="carbon-video-desc">协作通信 - Carbon Icons - video - Apache-2.0</desc><path fill="currentColor" d="M21,26H4a2,2,0,0,1-2-2V8A2,2,0,0,1,4,6H21a2,2,0,0,1,2,2v4.06l5.42-3.87A1,1,0,0,1,30,9V23a1,1,0,0,1-1.58.81L23,19.94V24A2,2,0,0,1,21,26ZM4,8V24H21V18a1,1,0,0,1,1.58-.81L28,21.06V10.94l-5.42,3.87A1,1,0,0,1,21,14V8Z"/></svg>