<svg xmlns="http://www.w3.org/2000/svg" viewBox="0 0 32 32" color="#2563eb" role="img" aria-labelledby="carbon-video-chat-title carbon-video-chat-desc">
  <title id="carbon-video-chat-title">video chat</title>
  <desc id="carbon-video-chat-desc">协作通信 - Carbon Icons - video-chat - Apache-2.0</desc><path fill="currentColor" d="M8 12H17V14H8z"/><path fill="currentColor" d="M8 17H13V19H8z"/><path fill="currentColor" d="M21,26H4a2.0023,2.0023,0,0,1-2-2V8A2.0023,2.0023,0,0,1,4,6H21a2.0023,2.0023,0,0,1,2,2v4.0566l5.4189-3.87A.9995.9995,0,0,1,30,9V23a.9995.9995,0,0,1-1.5811.8135L23,19.9434V24A2.0023,2.0023,0,0,1,21,26ZM4,8V24.001L21,24V18a.9995.9995,0,0,1,1.5811-.8135L28,21.0566V10.9434l-5.4189,3.87A.9995.9995,0,0,1,21,14V8Z"/></svg>