<svg xmlns="http://www.w3.org/2000/svg" viewBox="0 0 32 32" color="#2563eb" role="img" aria-labelledby="carbon-user-data-title carbon-user-data-desc">
  <title id="carbon-user-data-title">user data</title>
  <desc id="carbon-user-data-desc">协作通信 - Carbon Icons - user-data - Apache-2.0</desc><path fill="currentColor" d="M28 8H30V16H28z"/><path fill="currentColor" d="M23 5H25V16H23z"/><path fill="currentColor" d="M18 10H20V16H18z"/><path fill="currentColor" d="M16,30H14V24a3.0033,3.0033,0,0,0-3-3H7a3.0033,3.0033,0,0,0-3,3v6H2V24a5.0059,5.0059,0,0,1,5-5h4a5.0059,5.0059,0,0,1,5,5Z"/><path fill="currentColor" d="M9,9a3,3,0,1,1-3,3A3,3,0,0,1,9,9M9,7a5,5,0,1,0,5,5A5,5,0,0,0,9,7Z"/></svg>