<svg xmlns="http://www.w3.org/2000/svg" viewBox="0 0 32 32" color="#2563eb" role="img" aria-labelledby="carbon-user-role-title carbon-user-role-desc">
  <title id="carbon-user-role-title">user role</title>
  <desc id="carbon-user-role-desc">协作通信 - Carbon Icons - user-role - Apache-2.0</desc><path fill="currentColor" d="M28.07 21 22 15 28.07 9 29.5 10.41 24.86 15 29.5 19.59 28.07 21z"/><path fill="currentColor" d="M22,30H20V25a5,5,0,0,0-5-5H9a5,5,0,0,0-5,5v5H2V25a7,7,0,0,1,7-7h6a7,7,0,0,1,7,7Z"/><path fill="currentColor" d="M12,4A5,5,0,1,1,7,9a5,5,0,0,1,5-5m0-2a7,7,0,1,0,7,7A7,7,0,0,0,12,2Z"/></svg>