<svg xmlns="http://www.w3.org/2000/svg" viewBox="0 0 32 32" color="#2563eb" role="img" aria-labelledby="carbon-cloud-app-title carbon-cloud-app-desc">
  <title id="carbon-cloud-app-title">cloud app</title>
  <desc id="carbon-cloud-app-desc">协作通信 - Carbon Icons - cloud-app - Apache-2.0</desc><path fill="currentColor" d="M25.8289,13.1155A10.02,10.02,0,0,0,16,5.0005V7a8.0233,8.0233,0,0,1,7.8649,6.4934l.2591,1.346,1.3488.2441A5.5019,5.5019,0,0,1,24.5076,26H16v2h8.5076a7.5019,7.5019,0,0,0,1.3213-14.8845Z"/><path fill="currentColor" d="M8 24H14V26H8z"/><path fill="currentColor" d="M4 24H6V26H4z"/><path fill="currentColor" d="M6 20H14V22H6z"/><path fill="currentColor" d="M2 20H4V22H2z"/><path fill="currentColor" d="M8 16H14V18H8z"/><path fill="currentColor" d="M4 16H6V18H4z"/><path fill="currentColor" d="M10 12H14V14H10z"/><path fill="currentColor" d="M6 12H8V14H6z"/><path fill="currentColor" d="M12 8H14V10H12z"/></svg>