<svg
  xmlns="http://www.w3.org/2000/svg"
  width="24"
  height="24"
  viewBox="0 0 24 24"
  fill="none"
  stroke="currentColor"
  stroke-width="2"
  stroke-linecap="round"
  stroke-linejoin="round"
  class="icon icon-tabler icons-tabler-outline icon-tabler-tools-off"
 color="#2563eb" role="img" aria-labelledby="tabler-tools-off-title tabler-tools-off-desc">
  <title id="tabler-tools-off-title">tools off</title>
  <desc id="tabler-tools-off-desc">配电环节 - Tabler Icons - tools-off - MIT</desc>
  <path stroke="none" d="M0 0h24v24H0z" fill="none" />
  <path fill="currentColor" d="M16 12l4 -4a2.828 2.828 0 1 0 -4 -4l-4 4m-2 2l-7 7v4h4l7 -7" />
  <path fill="currentColor" d="M14.5 5.5l4 4" />
  <path fill="currentColor" d="M12 8l-5 -5m-2 2l-2 2l5 5" />
  <path fill="currentColor" d="M7 8l-1.5 1.5" />
  <path fill="currentColor" d="M16 12l5 5m-2 2l-2 2l-5 -5" />
  <path fill="currentColor" d="M16 17l-1.5 1.5" />
  <path fill="currentColor" d="M3 3l18 18" />
</svg>