<svg xmlns="http://www.w3.org/2000/svg" viewBox="0 0 20 20" color="#2563eb" role="img" aria-labelledby="zondicons-calculator-title zondicons-calculator-desc">
  <title id="zondicons-calculator-title">calculator</title>
  <desc id="zondicons-calculator-desc">数据图表 - Zondicons - calculator - CC-BY-4.0</desc><path fill="currentColor" d="M2 2c0-1.1.9-2 2-2h12a2 2 0 0 1 2 2v16a2 2 0 0 1-2 2H4a2 2 0 0 1-2-2V2zm3 1v2h10V3H5zm0 4v2h2V7H5zm4 0v2h2V7H9zm4 0v2h2V7h-2zm-8 4v2h2v-2H5zm4 0v2h2v-2H9zm4 0v6h2v-6h-2zm-8 4v2h2v-2H5zm4 0v2h2v-2H9z"/></svg>