<svg xmlns="http://www.w3.org/2000/svg" viewBox="0 0 32 32" color="#2563eb" role="img" aria-labelledby="carbon-panel-expansion-title carbon-panel-expansion-desc">
  <title id="carbon-panel-expansion-title">panel expansion</title>
  <desc id="carbon-panel-expansion-desc">变电环节 - Carbon Icons - panel-expansion - Apache-2.0</desc><path fill="currentColor" d="M12,6H6A2,2,0,0,0,4,8v6a2,2,0,0,0,2,2h6a2,2,0,0,0,2-2V8A2,2,0,0,0,12,6ZM6,14V8h6v6Z"/><path fill="currentColor" d="M26,6H20a2,2,0,0,0-2,2V24a2,2,0,0,0,2,2h6a2,2,0,0,0,2-2V8A2,2,0,0,0,26,6ZM20,24V8h6V24Z"/></svg>