<svg xmlns="http://www.w3.org/2000/svg" viewBox="0 0 512 512" color="#2563eb" role="img" aria-labelledby="coreui-battery-alert-title coreui-battery-alert-desc">
  <title id="coreui-battery-alert-title">battery alert</title>
  <desc id="coreui-battery-alert-desc">状态告警 - CoreUI Icons - battery-alert - MIT</desc>
  <path fill="var(--ci-primary-color, currentColor)" d="M432 176v-56.41A23.825 23.825 0 0 0 408 96H240v32h160v80h64v104h-64v80H47.986V128H112V96H39.986a23.825 23.825 0 0 0-24 23.59v280.82a23.825 23.825 0 0 0 24 23.59H408a23.825 23.825 0 0 0 24-23.59V344h64V176Z" class="ci-primary"/>
  <path fill="var(--ci-primary-color, currentColor)" d="M192 64v-8h-32v200h32zm0 240v-16h-32v32h32z" class="ci-primary"/>
</svg>
