<svg xmlns="http://www.w3.org/2000/svg" viewBox="0 0 512 512" color="#2563eb" role="img" aria-labelledby="coreui-trash-title coreui-trash-desc">
  <title id="coreui-trash-title">trash</title>
  <desc id="coreui-trash-desc">通用命令 - CoreUI Icons - trash - MIT</desc>
  <path fill="var(--ci-primary-color, currentColor)" d="M96 472a23.82 23.82 0 0 0 23.579 24h272.842A23.82 23.82 0 0 0 416 472V152H96Zm32-288h256v280H128Z" class="ci-primary"/>
  <path fill="var(--ci-primary-color, currentColor)" d="M168 216h32v200h-32zm72 0h32v200h-32zm72 0h32v200h-32zm16-128V40c0-13.458-9.488-24-21.6-24H205.6C193.488 16 184 26.542 184 40v48H64v32h384V88ZM216 48h80v40h-80Z" class="ci-primary"/>
</svg>
