<svg xmlns="http://www.w3.org/2000/svg" viewBox="0 0 512 512" color="#2563eb" role="img" aria-labelledby="coreui-clipboard-title coreui-clipboard-desc">
  <title id="coreui-clipboard-title">clipboard</title>
  <desc id="coreui-clipboard-desc">通用命令 - CoreUI Icons - clipboard - MIT</desc>
  <path fill="var(--ci-primary-color, currentColor)" d="M432 56h-56v32h48v376H88V88h48V56H80a24.03 24.03 0 0 0-24 24v392a24.03 24.03 0 0 0 24 24h352a24.03 24.03 0 0 0 24-24V80a24.03 24.03 0 0 0-24-24" class="ci-primary"/>
  <path fill="var(--ci-primary-color, currentColor)" d="M192 140h128a24.03 24.03 0 0 0 24-24V16H168v100a24.03 24.03 0 0 0 24 24m8-92h112v60H200Z" class="ci-primary"/>
</svg>
