<svg xmlns="http://www.w3.org/2000/svg" viewBox="0 0 256 256" fill="currentColor" color="#2563eb" role="img" aria-labelledby="phosphor-crane-tower-title phosphor-crane-tower-desc">
  <title id="phosphor-crane-tower-title">crane tower</title>
  <desc id="phosphor-crane-tower-desc">工业设施 - Phosphor Icons - crane-tower - MIT</desc><path fill="currentColor" d="M240,80H108.94L87.16,36.42A8,8,0,0,0,80,32H48a8,8,0,0,0-8,8V80H24a8,8,0,0,0,0,16H40V208H24a8,8,0,0,0,0,16H128a8,8,0,0,0,0-16H112V96h96v88H192v-8a8,8,0,0,0-16,0v8a16,16,0,0,0,16,16h16a16,16,0,0,0,16-16V96h16a8,8,0,0,0,0-16ZM56,48H75.06l16,32H56Zm0,160V160H96v48Zm40-64H56V96H96Z"/></svg>