<!-- @license lucide-static v1.21.0 - ISC -->
<svg
  class="lucide lucide-sailboat"
  xmlns="http://www.w3.org/2000/svg"
  width="24"
  height="24"
  viewBox="0 0 24 24"
  fill="none"
  stroke="currentColor"
  stroke-width="2"
  stroke-linecap="round"
  stroke-linejoin="round"
 color="#2563eb" role="img" aria-labelledby="lucide-sailboat-title lucide-sailboat-desc">
  <title id="lucide-sailboat-title">sailboat</title>
  <desc id="lucide-sailboat-desc">云与基础设施 - Lucide - sailboat - ISC</desc>
  <path fill="currentColor" d="M10 2v15" />
  <path fill="currentColor" d="M7 22a4 4 0 0 1-4-4 1 1 0 0 1 1-1h16a1 1 0 0 1 1 1 4 4 0 0 1-4 4z" />
  <path fill="currentColor" d="M9.159 2.46a1 1 0 0 1 1.521-.193l9.977 8.98A1 1 0 0 1 20 13H4a1 1 0 0 1-.824-1.567z" />
</svg>
