<svg
  xmlns="http://www.w3.org/2000/svg"
  width="24"
  height="24"
  viewBox="0 0 24 24"
  fill="none"
  stroke="currentColor"
  stroke-width="2"
  stroke-linecap="round"
  stroke-linejoin="round"
  class="icon icon-tabler icons-tabler-outline icon-tabler-gas-station"
 color="#2563eb" role="img" aria-labelledby="tabler-gas-station-title tabler-gas-station-desc">
  <title id="tabler-gas-station-title">gas station</title>
  <desc id="tabler-gas-station-desc">交通设施 - Tabler Icons - gas-station - MIT</desc>
  <path stroke="none" d="M0 0h24v24H0z" fill="none" />
  <path fill="currentColor" d="M14 11h1a2 2 0 0 1 2 2v3a1.5 1.5 0 0 0 3 0v-7l-3 -3" />
  <path fill="currentColor" d="M4 20v-14a2 2 0 0 1 2 -2h6a2 2 0 0 1 2 2v14" />
  <path fill="currentColor" d="M3 20l12 0" />
  <path fill="currentColor" d="M18 7v1a1 1 0 0 0 1 1h1" />
  <path fill="currentColor" d="M4 11l10 0" />
</svg>