<svg xmlns="http://www.w3.org/2000/svg" viewBox="0 0 32 32" color="#2563eb" role="img" aria-labelledby="carbon-airline-passenger-care-title carbon-airline-passenger-care-desc">
  <title id="carbon-airline-passenger-care-title">airline passenger care</title>
  <desc id="carbon-airline-passenger-care-desc">医疗安全 - Carbon Icons - airline-passenger-care - Apache-2.0</desc><path fill="currentColor" d="M18,23H16V21a3.0033,3.0033,0,0,0-3-3H9a3.0033,3.0033,0,0,0-3,3v2H4V21a5.0059,5.0059,0,0,1,5-5h4a5.0059,5.0059,0,0,1,5,5Z"/><path fill="currentColor" d="M11,6A3,3,0,1,1,8,9a3,3,0,0,1,3-3m0-2a5,5,0,1,0,5,5A5,5,0,0,0,11,4Z"/><path fill="currentColor" d="M2 26H30V28H2z"/><path fill="currentColor" d="M27.303,8a2.6616,2.6616,0,0,0-1.9079.8058L25,9.2112l-.3951-.4054a2.6615,2.6615,0,0,0-3.8157,0,2.7992,2.7992,0,0,0,0,3.8964L25,17l4.2108-4.2978a2.7992,2.7992,0,0,0,0-3.8964A2.6616,2.6616,0,0,0,27.303,8Z"/></svg>