<svg xmlns="http://www.w3.org/2000/svg" width="24" height="24" viewBox="0 0 24 24" color="#2563eb" role="img" aria-labelledby="primer-octicons-graph-bar-vertical-title primer-octicons-graph-bar-vertical-desc">
  <title id="primer-octicons-graph-bar-vertical-title">graph bar vertical</title>
  <desc id="primer-octicons-graph-bar-vertical-desc">数据图表 - Primer Octicons - graph-bar-vertical - MIT</desc><path fill="currentColor" d="M1.875 22.875V1.125q0-.311.22-.53.219-.22.53-.22.311 0 .53.22.22.219.22.53v21.75q0 .311-.22.53-.219.22-.53.22-.311 0-.53-.22-.22-.219-.22-.53Z"/><path fill="currentColor" d="M13.5 4.75v4a.25.25 0 0 1-.25.25h-10A.25.25 0 0 1 3 8.75v-4a.25.25 0 0 1 .25-.25h10a.25.25 0 0 1 .25.25Zm6 6v4a.25.25 0 0 1-.25.25h-16a.25.25 0 0 1-.25-.25v-4a.25.25 0 0 1 .25-.25h16a.25.25 0 0 1 .25.25Zm-9 6v4a.25.25 0 0 1-.25.25h-7a.25.25 0 0 1-.25-.25v-4a.25.25 0 0 1 .25-.25h7a.25.25 0 0 1 .25.25Z"/></svg>