<svg xmlns="http://www.w3.org/2000/svg" viewBox="0 0 24 24" fill="none" color="#2563eb" role="img" aria-labelledby="majesticons-microphone-title majesticons-microphone-desc">
  <title id="majesticons-microphone-title">microphone</title>
  <desc id="majesticons-microphone-desc">媒体素材 - Majesticons - microphone - MIT</desc><path stroke="currentColor" stroke-linecap="round" stroke-linejoin="round" stroke-width="2" d="M9 6a3 3 0 0 1 3-3v0a3 3 0 0 1 3 3v5a3 3 0 0 1-3 3v0a3 3 0 0 1-3-3V6zm3 12v0a7 7 0 0 1-7-7v0-1m7 8v0a7 7 0 0 0 7-7v0-1m-7 8v3"/></svg>