<svg xmlns="http://www.w3.org/2000/svg" width="48" height="48" viewBox="0 -960 960 960" color="#2563eb" role="img" aria-labelledby="material-symbols-cell-merge-title material-symbols-cell-merge-desc">
  <title id="material-symbols-cell-merge-title">cell merge</title>
  <desc id="material-symbols-cell-merge-desc">开发工具 - Material Symbols - cell_merge - Apache-2.0</desc><path fill="currentColor" d="M130-130v-220h60v160h160v60H130Zm480 0v-60h160v-160h60v220H610ZM287-341l-43-42 67-67H90v-60h221l-67-67 43-42 139 139-139 139Zm386 0L534-480l139-139 43 42-67 67h221v60H649l67 67-43 42ZM130-610v-220h220v60H190v160h-60Zm640 0v-160H610v-60h220v220h-60Z"/></svg>