<svg viewBox="0 0 24 24" fill="currentColor" xmlns="http://www.w3.org/2000/svg" color="#2563eb" role="img" aria-labelledby="remixicon-file-zip-title remixicon-file-zip-desc">
  <title id="remixicon-file-zip-title">file zip</title>
  <desc id="remixicon-file-zip-desc">文件文档 - Remix Icon - file-zip - Apache-2.0</desc><path fill="currentColor" d="M20 22H4C3.44772 22 3 21.5523 3 21V3C3 2.44772 3.44772 2 4 2H20C20.5523 2 21 2.44772 21 3V21C21 21.5523 20.5523 22 20 22ZM19 20V4H5V20H19ZM14 12V17H10V14H12V12H14ZM12 4H14V6H12V4ZM10 6H12V8H10V6ZM12 8H14V10H12V8ZM10 10H12V12H10V10Z"/></svg>