<svg xmlns="http://www.w3.org/2000/svg" viewBox="0 0 32 32" color="#2563eb" role="img" aria-labelledby="carbon-storage-request-title carbon-storage-request-desc">
  <title id="carbon-storage-request-title">storage request</title>
  <desc id="carbon-storage-request-desc">燃气能源 - Carbon Icons - storage-request - Apache-2.0</desc><path fill="currentColor" d="M4,21H2v3a2.0059,2.0059,0,0,0,2,2H7V24H4Z"/><path fill="currentColor" d="M4,8H7V6H4A2.0059,2.0059,0,0,0,2,8v3H4Z"/><path fill="currentColor" d="M17 6H23V8H17z"/><path fill="currentColor" d="M9 6H15V8H9z"/><path fill="currentColor" d="M17 24H23V26H17z"/><path fill="currentColor" d="M28 15 4 15 4 13 2 13 2 19 4 19 4 17 28 17 28 19 30 19 30 13 28 13 28 15z"/><path fill="currentColor" d="M28,24H25v2h3a2.0059,2.0059,0,0,0,2-2V21H28Z"/><path fill="currentColor" d="M28,6H25V8h3v3h2V8A2.0059,2.0059,0,0,0,28,6Z"/><path fill="currentColor" d="M9 24H15V26H9z"/><circle fill="currentColor" cx="7" cy="12" r="1"/><circle fill="currentColor" cx="7" cy="20" r="1"/></svg>