<svg xmlns="http://www.w3.org/2000/svg" viewBox="0 0 32 32" color="#2563eb" role="img" aria-labelledby="carbon-object-storage-title carbon-object-storage-desc">
  <title id="carbon-object-storage-title">object storage</title>
  <desc id="carbon-object-storage-desc">燃气能源 - Carbon Icons - object-storage - Apache-2.0</desc><path fill="currentColor" d="M28,20H26v2h2v6H4V22H14V20H4a2.0023,2.0023,0,0,0-2,2v6a2.0023,2.0023,0,0,0,2,2H28a2.0023,2.0023,0,0,0,2-2V22A2.0023,2.0023,0,0,0,28,20Z"/><circle fill="currentColor" cx="7" cy="25" r="1"/><path fill="currentColor" d="M30,8H22v6H16v8h8V16h6ZM22,20H18V16h4Zm6-6H24V10h4Z"/><path fill="currentColor" d="M18,10H10V2h8ZM12,8h4V4H12Z"/></svg>