<svg xmlns="http://www.w3.org/2000/svg" viewBox="0 0 32 32" color="#2563eb" role="img" aria-labelledby="carbon-block-storage-title carbon-block-storage-desc">
  <title id="carbon-block-storage-title">block storage</title>
  <desc id="carbon-block-storage-desc">燃气能源 - Carbon Icons - block-storage - Apache-2.0</desc><path fill="currentColor" d="M9,12V10H4a2,2,0,0,0-2,2V28a2,2,0,0,0,2,2H20a2,2,0,0,0,2-2V19H20v9H4V12"/><path fill="currentColor" d="M22,12H14V4h8ZM12,4v8a2,2,0,0,0,2,2h8a2,2,0,0,0,2-2V4a2,2,0,0,0-2-2H14A2,2,0,0,0,12,4Z"/><path fill="currentColor" d="M14,18v4H10V18h4M8,18v4a2,2,0,0,0,2,2h4a2,2,0,0,0,2-2V18a2,2,0,0,0-2-2H10A2,2,0,0,0,8,18Z"/><path fill="currentColor" d="M28,17v2H26V17h2m-4-1v4a1,1,0,0,0,1,1h4a1,1,0,0,0,1-1V16a1,1,0,0,0-1-1H25A1,1,0,0,0,24,16Z"/></svg>