<svg xmlns="http://www.w3.org/2000/svg" width="24" height="24" fill="none" viewBox="0 0 24 24" color="#2563eb" role="img" aria-labelledby="sargam-bar-chart-title sargam-bar-chart-desc">
  <title id="sargam-bar-chart-title">bar chart</title>
  <desc id="sargam-bar-chart-desc">数据图表 - Sargam Icons - bar-chart - MIT</desc><path stroke="#000" stroke-linecap="round" stroke-linejoin="round" stroke-miterlimit="10" stroke-width="1.5" d="M2 22h20M9 8.6A1.6 1.6 0 0 0 7.4 7H4.6A1.6 1.6 0 0 0 3 8.6V22m6 0V3.6A1.6 1.6 0 0 1 10.6 2h2.8A1.6 1.6 0 0 1 15 3.6V22m6 0v-8.4a1.6 1.6 0 0 0-1.6-1.6h-2.8a1.6 1.6 0 0 0-1.6 1.6"/></svg>