<svg xmlns="http://www.w3.org/2000/svg" viewBox="0 0 24 24" color="#2563eb" role="img" aria-labelledby="eva-icons-email-title eva-icons-email-desc">
  <title id="eva-icons-email-title">email</title>
  <desc id="eva-icons-email-desc">协作通信 - Eva Icons - email - MIT</desc><g data-name="Layer 2"><g data-name="email"><rect fill="currentColor" width="24" height="24" opacity="0"/><path fill="currentColor" d="M19 4H5a3 3 0 0 0-3 3v10a3 3 0 0 0 3 3h14a3 3 0 0 0 3-3V7a3 3 0 0 0-3-3zm-.67 2L12 10.75 5.67 6zM19 18H5a1 1 0 0 1-1-1V7.25l7.4 5.55a1 1 0 0 0 .6.2 1 1 0 0 0 .6-.2L20 7.25V17a1 1 0 0 1-1 1z"/></g></g></svg>