<svg xmlns="http://www.w3.org/2000/svg" viewBox="0 0 24 24" color="#2563eb" role="img" aria-labelledby="eva-icons-external-link-title eva-icons-external-link-desc">
  <title id="eva-icons-external-link-title">external link</title>
  <desc id="eva-icons-external-link-desc">协作通信 - Eva Icons - external-link - MIT</desc><g data-name="Layer 2"><g data-name="external-link"><rect fill="currentColor" width="24" height="24" opacity="0"/><path fill="currentColor" d="M20 11a1 1 0 0 0-1 1v6a1 1 0 0 1-1 1H6a1 1 0 0 1-1-1V6a1 1 0 0 1 1-1h6a1 1 0 0 0 0-2H6a3 3 0 0 0-3 3v12a3 3 0 0 0 3 3h12a3 3 0 0 0 3-3v-6a1 1 0 0 0-1-1z"/><path fill="currentColor" d="M16 5h1.58l-6.29 6.28a1 1 0 0 0 0 1.42 1 1 0 0 0 1.42 0L19 6.42V8a1 1 0 0 0 1 1 1 1 0 0 0 1-1V4a1 1 0 0 0-1-1h-4a1 1 0 0 0 0 2z"/></g></g></svg>