<svg xmlns="http://www.w3.org/2000/svg" viewBox="0 0 24 24" color="#2563eb" role="img" aria-labelledby="eva-icons-person-done-title eva-icons-person-done-desc">
  <title id="eva-icons-person-done-title">person done</title>
  <desc id="eva-icons-person-done-desc">协作通信 - Eva Icons - person-done - MIT</desc><g data-name="Layer 2"><g data-name="person-done"><rect fill="currentColor" width="24" height="24" opacity="0"/><path fill="currentColor" d="M21.66 4.25a1 1 0 0 0-1.41.09l-1.87 2.15-.63-.71a1 1 0 0 0-1.5 1.33l1.39 1.56a1 1 0 0 0 .75.33 1 1 0 0 0 .74-.34l2.61-3a1 1 0 0 0-.08-1.41z"/><path fill="currentColor" d="M10 11a4 4 0 1 0-4-4 4 4 0 0 0 4 4zm0-6a2 2 0 1 1-2 2 2 2 0 0 1 2-2z"/><path fill="currentColor" d="M10 13a7 7 0 0 0-7 7 1 1 0 0 0 2 0 5 5 0 0 1 10 0 1 1 0 0 0 2 0 7 7 0 0 0-7-7z"/></g></g></svg>