<svg xmlns="http://www.w3.org/2000/svg" width="24" height="24" viewBox="0 0 24 24" color="#2563eb" role="img" aria-labelledby="boxicons-camera-home-title boxicons-camera-home-desc">
  <title id="boxicons-camera-home-title">camera home</title>
  <desc id="boxicons-camera-home-desc">媒体素材 - Boxicons - camera-home - (CC-BY-4.0 OR OFL-1.1 OR MIT)</desc><path fill="currentColor" d="M18.125 2H5.875A1.877 1.877 0 0 0 4 3.875v12.25C4 17.159 4.841 18 5.875 18H11v2H7v2h10v-2h-4v-2h5.125A1.877 1.877 0 0 0 20 16.125V3.875A1.877 1.877 0 0 0 18.125 2zM18 16H6V4h12v12z"/><path fill="currentColor" d="M12 14c2.206 0 4-1.794 4-4s-1.794-4-4-4-4 1.794-4 4 1.794 4 4 4zm0-6c1.103 0 2 .897 2 2s-.897 2-2 2-2-.897-2-2 .897-2 2-2z"/></svg>