<svg xmlns="http://www.w3.org/2000/svg" viewBox="0 0 512 512" class="ionicon" color="#2563eb" role="img" aria-labelledby="ionicons-volume-low-title ionicons-volume-low-desc">
  <title id="ionicons-volume-low-title">volume low</title>
  <desc id="ionicons-volume-low-desc">媒体素材 - Ionicons - volume-low - MIT</desc><path fill="currentColor" d="M189.65 192H120a8 8 0 0 0-8 8v112a8 8 0 0 0 8 8h69.65a16 16 0 0 1 10.14 3.63l91.47 75a8 8 0 0 0 12.74-6.46V119.83a8 8 0 0 0-12.74-6.44l-91.47 75a16 16 0 0 1-10.14 3.61M384 320c9.74-19.41 16-40.81 16-64 0-23.51-6-44.4-16-64" stroke-linecap="round" stroke-linejoin="round" class="ionicon-fill-none ionicon-stroke-width"/></svg>