<svg xmlns="http://www.w3.org/2000/svg" viewBox="0 0 512 512" class="ionicon" color="#2563eb" role="img" aria-labelledby="ionicons-film-title ionicons-film-desc">
  <title id="ionicons-film-title">film</title>
  <desc id="ionicons-film-desc">媒体素材 - Ionicons - film - MIT</desc><rect fill="currentColor" width="416" height="320" x="48" y="96" rx="28" ry="28" stroke-linejoin="round" class="ionicon-fill-none ionicon-stroke-width"/><rect fill="currentColor" width="80" height="80" x="384" y="336" rx="28" ry="28" stroke-linejoin="round" class="ionicon-fill-none ionicon-stroke-width"/><rect fill="currentColor" width="80" height="80" x="384" y="256" rx="28" ry="28" stroke-linejoin="round" class="ionicon-fill-none ionicon-stroke-width"/><rect fill="currentColor" width="80" height="80" x="384" y="176" rx="28" ry="28" stroke-linejoin="round" class="ionicon-fill-none ionicon-stroke-width"/><rect fill="currentColor" width="80" height="80" x="384" y="96" rx="28" ry="28" stroke-linejoin="round" class="ionicon-fill-none ionicon-stroke-width"/><rect fill="currentColor" width="80" height="80" x="48" y="336" rx="28" ry="28" stroke-linejoin="round" class="ionicon-fill-none ionicon-stroke-width"/><rect fill="currentColor" width="80" height="80" x="48" y="256" rx="28" ry="28" stroke-linejoin="round" class="ionicon-fill-none ionicon-stroke-width"/><rect fill="currentColor" width="80" height="80" x="48" y="176" rx="28" ry="28" stroke-linejoin="round" class="ionicon-fill-none ionicon-stroke-width"/><rect fill="currentColor" width="80" height="80" x="48" y="96" rx="28" ry="28" stroke-linejoin="round" class="ionicon-fill-none ionicon-stroke-width"/><rect fill="currentColor" width="256" height="160" x="128" y="96" rx="28" ry="28" stroke-linejoin="round" class="ionicon-fill-none ionicon-stroke-width"/><rect fill="currentColor" width="256" height="160" x="128" y="256" rx="28" ry="28" stroke-linejoin="round" class="ionicon-fill-none ionicon-stroke-width"/></svg>