<svg xmlns="http://www.w3.org/2000/svg" viewBox="0 0 512 512" class="ionicon" color="#2563eb" role="img" aria-labelledby="ionicons-camera-title ionicons-camera-desc">
  <title id="ionicons-camera-title">camera</title>
  <desc id="ionicons-camera-desc">媒体素材 - Ionicons - camera - MIT</desc><path fill="currentColor" d="m350.54 148.68-26.62-42.06C318.31 100.08 310.62 96 302 96h-92c-8.62 0-16.31 4.08-21.92 10.62l-26.62 42.06C155.85 155.23 148.62 160 140 160H80a32 32 0 0 0-32 32v192a32 32 0 0 0 32 32h352a32 32 0 0 0 32-32V192a32 32 0 0 0-32-32h-59c-8.65 0-16.85-4.77-22.46-11.32" stroke-linecap="round" stroke-linejoin="round" class="ionicon-fill-none ionicon-stroke-width"/><circle fill="currentColor" cx="256" cy="272" r="80" stroke-miterlimit="10" class="ionicon-fill-none ionicon-stroke-width"/><path fill="currentColor" d="M124 158v-22h-24v22" stroke-linecap="round" stroke-linejoin="round" class="ionicon-fill-none ionicon-stroke-width"/></svg>