<svg
  xmlns="http://www.w3.org/2000/svg"
  width="24"
  height="24"
  viewBox="0 0 24 24"
  fill="none"
  stroke="currentColor"
  stroke-width="2"
  stroke-linecap="round"
  stroke-linejoin="round"
  class="icon icon-tabler icons-tabler-outline icon-tabler-users-group"
 color="#2563eb" role="img" aria-labelledby="tabler-users-group-title tabler-users-group-desc">
  <title id="tabler-users-group-title">users group</title>
  <desc id="tabler-users-group-desc">协作通信 - Tabler Icons - users-group - MIT</desc>
  <path stroke="none" d="M0 0h24v24H0z" fill="none" />
  <path fill="currentColor" d="M10 13a2 2 0 1 0 4 0a2 2 0 0 0 -4 0" />
  <path fill="currentColor" d="M8 21v-1a2 2 0 0 1 2 -2h4a2 2 0 0 1 2 2v1" />
  <path fill="currentColor" d="M15 5a2 2 0 1 0 4 0a2 2 0 0 0 -4 0" />
  <path fill="currentColor" d="M17 10h2a2 2 0 0 1 2 2v1" />
  <path fill="currentColor" d="M5 5a2 2 0 1 0 4 0a2 2 0 0 0 -4 0" />
  <path fill="currentColor" d="M3 13v-1a2 2 0 0 1 2 -2h2" />
</svg>