<svg
  xmlns="http://www.w3.org/2000/svg"
  width="24"
  height="24"
  viewBox="0 0 24 24"
  fill="none"
  stroke="currentColor"
  stroke-width="2"
  stroke-linecap="round"
  stroke-linejoin="round"
  class="icon icon-tabler icons-tabler-outline icon-tabler-password-user"
 color="#2563eb" role="img" aria-labelledby="tabler-password-user-title tabler-password-user-desc">
  <title id="tabler-password-user-title">password user</title>
  <desc id="tabler-password-user-desc">协作通信 - Tabler Icons - password-user - MIT</desc>
  <path stroke="none" d="M0 0h24v24H0z" fill="none" />
  <path fill="currentColor" d="M12 17v4" />
  <path fill="currentColor" d="M10 20l4 -2" />
  <path fill="currentColor" d="M10 18l4 2" />
  <path fill="currentColor" d="M5 17v4" />
  <path fill="currentColor" d="M3 20l4 -2" />
  <path fill="currentColor" d="M3 18l4 2" />
  <path fill="currentColor" d="M19 17v4" />
  <path fill="currentColor" d="M17 20l4 -2" />
  <path fill="currentColor" d="M17 18l4 2" />
  <path fill="currentColor" d="M9 6a3 3 0 1 0 6 0a3 3 0 0 0 -6 0" />
  <path fill="currentColor" d="M7 14a2 2 0 0 1 2 -2h6a2 2 0 0 1 2 2" />
</svg>