<svg xmlns="http://www.w3.org/2000/svg" viewBox="0 0 24 24" fill="none" color="#2563eb" role="img" aria-labelledby="majesticons-hand-pointer-title majesticons-hand-pointer-desc">
  <title id="majesticons-hand-pointer-title">hand pointer</title>
  <desc id="majesticons-hand-pointer-desc">画布工具 - Majesticons - hand-pointer - MIT</desc><path stroke="currentColor" stroke-linecap="round" stroke-linejoin="round" stroke-width="2" d="M20 20v-3a4 4 0 0 0-4-4h-1a1 1 0 0 1-1-1V6a2 2 0 0 0-2-2v0a2 2 0 0 0-2 2v10l-2.4-3.2A2 2 0 0 0 6 12h-.382C4.724 12 4 12.724 4 13.618v0c0 .251.058.499.17.724L7 20"/></svg>