<svg width="24" height="24" viewBox="0 0 24 24" xmlns="http://www.w3.org/2000/svg" color="#2563eb" role="img" aria-labelledby="pause-circle-title pause-circle-desc">
  <title id="pause-circle-title">Pause Circle</title>
  <desc id="pause-circle-desc">媒体素材 - pause_circle, 24px regular</desc><path fill="currentColor" d="M10.5 8.25a.75.75 0 0 0-1.5 0v7.5a.75.75 0 0 0 1.5 0v-7.5Zm4.5 0a.75.75 0 0 0-1.5 0v7.5a.75.75 0 0 0 1.5 0v-7.5ZM12 2a10 10 0 1 0 0 20 10 10 0 0 0 0-20ZM3.5 12a8.5 8.5 0 1 1 17 0 8.5 8.5 0 0 1-17 0Z"/></svg>