<svg xmlns="http://www.w3.org/2000/svg" viewBox="0 0 20 20" color="#2563eb" role="img" aria-labelledby="zondicons-color-palette-title zondicons-color-palette-desc">
  <title id="zondicons-color-palette-title">color palette</title>
  <desc id="zondicons-color-palette-desc">媒体素材 - Zondicons - color-palette - CC-BY-4.0</desc><path fill="currentColor" d="M9 20v-1.7l.01-.24L15.07 12h2.94c1.1 0 1.99.89 1.99 2v4a2 2 0 0 1-2 2H9zm0-3.34V5.34l2.08-2.07a1.99 1.99 0 0 1 2.82 0l2.83 2.83a2 2 0 0 1 0 2.82L9 16.66zM0 1.99C0 .9.89 0 2 0h4a2 2 0 0 1 2 2v16a2 2 0 0 1-2 2H2a2 2 0 0 1-2-2V2zM4 17a1 1 0 1 0 0-2 1 1 0 0 0 0 2z"/></svg>