<!-- @license lucide-static v1.21.0 - ISC -->
<svg
  class="lucide lucide-piggy-bank"
  xmlns="http://www.w3.org/2000/svg"
  width="24"
  height="24"
  viewBox="0 0 24 24"
  fill="none"
  stroke="currentColor"
  stroke-width="2"
  stroke-linecap="round"
  stroke-linejoin="round"
 color="#2563eb" role="img" aria-labelledby="lucide-piggy-bank-title lucide-piggy-bank-desc">
  <title id="lucide-piggy-bank-title">piggy bank</title>
  <desc id="lucide-piggy-bank-desc">业务金融 - Lucide - piggy-bank - ISC</desc>
  <path fill="currentColor" d="M11 17h3v2a1 1 0 0 0 1 1h2a1 1 0 0 0 1-1v-3a3.16 3.16 0 0 0 2-2h1a1 1 0 0 0 1-1v-2a1 1 0 0 0-1-1h-1a5 5 0 0 0-2-4V3a4 4 0 0 0-3.2 1.6l-.3.4H11a6 6 0 0 0-6 6v1a5 5 0 0 0 2 4v3a1 1 0 0 0 1 1h2a1 1 0 0 0 1-1z" />
  <path fill="currentColor" d="M16 10h.01" />
  <path fill="currentColor" d="M2 8v1a2 2 0 0 0 2 2h1" />
</svg>
