<svg xmlns="http://www.w3.org/2000/svg" viewBox="0 0 20 20" color="#2563eb" role="img" aria-labelledby="zondicons-location-park-title zondicons-location-park-desc">
  <title id="zondicons-location-park-title">location park</title>
  <desc id="zondicons-location-park-desc">地图地点 - Zondicons - location-park - CC-BY-4.0</desc><path fill="currentColor" d="M5.33 12.77A4 4 0 1 1 3 5.13V5a4 4 0 0 1 5.71-3.62 3.5 3.5 0 0 1 6.26 1.66 2.5 2.5 0 0 1 2 2.08 4 4 0 1 1-2.7 7.49A5.02 5.02 0 0 1 12 14.58V18l2 1v1H6v-1l2-1v-3l-2.67-2.23zM5 10l3 3v-3H5z"/></svg>