<svg xmlns="http://www.w3.org/2000/svg" width="48" height="48" viewBox="0 -960 960 960" color="#2563eb" role="img" aria-labelledby="material-symbols-top-panel-open-title material-symbols-top-panel-open-desc">
  <title id="material-symbols-top-panel-open-title">top panel open</title>
  <desc id="material-symbols-top-panel-open-desc">变电环节 - Material Symbols - top_panel_open - Apache-2.0</desc><path fill="currentColor" d="m480-297 136-136H344l136 136ZM180-120q-24.75 0-42.37-17.63Q120-155.25 120-180v-600q0-24.75 17.63-42.38Q155.25-840 180-840h600q24.75 0 42.38 17.62Q840-804.75 840-780v600q0 24.75-17.62 42.37Q804.75-120 780-120H180Zm600-513v-147H180v147h600Zm-600 60v393h600v-393H180Zm0-60v-147 147Z"/></svg>