<svg xmlns="http://www.w3.org/2000/svg" viewBox="0 0 24 24" color="#2563eb" role="img" aria-labelledby="eos-icons-local-taxi-title eos-icons-local-taxi-desc">
  <title id="eos-icons-local-taxi-title">local taxi</title>
  <desc id="eos-icons-local-taxi-desc">交通设施 - EOS Icons - local-taxi - MIT</desc><path fill="currentColor" d="M18.92 6.01C18.72 5.42 18.16 5 17.5 5H15V3H9v2H6.5c-.66 0-1.21.42-1.42 1.01L3 12v8c0 .55.45 1 1 1h1c.55 0 1-.45 1-1v-1h12v1c0 .55.45 1 1 1h1c.55 0 1-.45 1-1v-8l-2.08-5.99zM6.85 7h10.29l1.04 3H5.81l1.04-3zM19 17H5v-4.66l.12-.34h13.77l.11.34V17z"/><circle fill="currentColor" cx="7.5" cy="14.5" r="1.5"/><circle fill="currentColor" cx="16.5" cy="14.5" r="1.5"/></svg>