<svg xmlns="http://www.w3.org/2000/svg" width="16" height="16" fill="none" viewBox="0 0 16 16" color="#2563eb" role="img" aria-labelledby="gravity-ui-square-brackets-title gravity-ui-square-brackets-desc">
  <title id="gravity-ui-square-brackets-title">square brackets</title>
  <desc id="gravity-ui-square-brackets-desc">开发工具 - Gravity UI Icons - square-brackets - MIT</desc><path fill="currentColor" fill-rule="evenodd" d="M3.75 1A2.25 2.25 0 0 0 1.5 3.25v9.5A2.25 2.25 0 0 0 3.75 15h.5a.75.75 0 0 0 0-1.5h-.5a.75.75 0 0 1-.75-.75v-9.5a.75.75 0 0 1 .75-.75h.5a.75.75 0 0 0 0-1.5zm8.5 14a2.25 2.25 0 0 0 2.25-2.25v-9.5A2.25 2.25 0 0 0 12.25 1h-.5a.75.75 0 0 0 0 1.5h.5a.75.75 0 0 1 .75.75v9.5a.75.75 0 0 1-.75.75h-.5a.75.75 0 0 0 0 1.5z" clip-rule="evenodd"/></svg>