<svg xmlns="http://www.w3.org/2000/svg" width="24" height="24" viewBox="0 0 24 24" color="#2563eb" role="img" aria-labelledby="boxicons-train-title boxicons-train-desc">
  <title id="boxicons-train-title">train</title>
  <desc id="boxicons-train-desc">交通设施 - Boxicons - train - (CC-BY-4.0 OR OFL-1.1 OR MIT)</desc><circle fill="currentColor" cx="8.5" cy="14.5" r="1.5"/><circle fill="currentColor" cx="15.5" cy="14.5" r="1.5"/><path fill="currentColor" d="M18.87 3.34A3.55 3.55 0 0 0 16.38 2H7.62a3.47 3.47 0 0 0-2.5 1.35A4.32 4.32 0 0 0 4 6v12a1 1 0 0 0 1 1h2l-2 3h2.32L8 21h8l.68 1H19l-2-3h2a1 1 0 0 0 1-1V6a4.15 4.15 0 0 0-1.13-2.66zM7.62 4h8.72a1.77 1.77 0 0 1 1 .66 3.25 3.25 0 0 1 .25.34H6.39a2.3 2.3 0 0 1 .25-.35A1.65 1.65 0 0 1 7.62 4zM6 8V7h12v3H6zm12 9H6v-5h12z"/></svg>