<svg xmlns="http://www.w3.org/2000/svg" width="24" height="24" viewBox="0 0 24 24" color="#2563eb" role="img" aria-labelledby="boxicons-paper-plane-title boxicons-paper-plane-desc">
  <title id="boxicons-paper-plane-title">paper plane</title>
  <desc id="boxicons-paper-plane-desc">交通设施 - Boxicons - paper-plane - (CC-BY-4.0 OR OFL-1.1 OR MIT)</desc>
  <path fill="currentColor" d="M20.56,3.34a1,1,0,0,0-1-.08l-17,8a1,1,0,0,0-.57.92,1,1,0,0,0,.6.9L8,15.45v6.72L13.84,18l4.76,2.08a.93.93,0,0,0,.4.09,1,1,0,0,0,.52-.15,1,1,0,0,0,.48-.79l1-15A1,1,0,0,0,20.56,3.34ZM18.1,17.68l-5.27-2.31L16,9.17,8.35,13.42,5.42,12.13,18.89,5.79Z"/>
</svg>
