<?xml version="1.0" encoding="UTF-8"?>
<svg xmlns="http://www.w3.org/2000/svg" viewBox="0 0 64 64" width="64" height="64" color="#f59e0b" role="img" aria-labelledby="pv-weather-station-title pv-weather-station-desc">
  <title id="pv-weather-station-title">光伏气象站</title>
  <desc id="pv-weather-station-desc">光伏细分设备 - 复用 能源通用 / solar_power</desc>
  <g transform="translate(8 56) scale(0.05)">
<path fill="currentColor" d="m80-80 80-400h640l80 400H80Zm40-740v-60h120v60H120Zm34 680h296v-110H176l-22 110Zm80-460-43-42 85-85 43 42-85 85Zm-46 290h262v-110H210l-22 110Zm167-442.5Q304-805 300-880h60q3 50 37 85t83 35q49 0 83-35t37-85h60q-4 75-55 127.5T480-700q-74 0-125-52.5ZM480-880Zm-30 360v-120h60v120h-60Zm60 380h296l-22-110H510v110Zm0-170h262l-22-110H510v110Zm216-291-85-85 42-42 86 84-43 43Zm-6-219v-60h120v60H720Z"/>
  </g>
  <g>
<path d="M46 46h14v14H46z" fill="none" stroke="currentColor" stroke-width="2.6" stroke-linecap="round" stroke-linejoin="round"/><circle cx="50" cy="48" r="1.35" fill="none" stroke="currentColor" stroke-width="2.6" stroke-linecap="round" stroke-linejoin="round"/><path d="M50 48L54 48" fill="none" stroke="currentColor" stroke-width="2.6" stroke-linecap="round" stroke-linejoin="round"/><circle cx="53" cy="54" r="1.1" fill="none" stroke="currentColor" stroke-width="2.6" stroke-linecap="round" stroke-linejoin="round"/>
  </g>
</svg>
