<svg width="24" height="24" viewBox="0 0 20 20" xmlns="http://www.w3.org/2000/svg" color="#2563eb" role="img" aria-labelledby="align-space-around-vertical-title align-space-around-vertical-desc">
  <title id="align-space-around-vertical-title">Align Space Around Vertical</title>
  <desc id="align-space-around-vertical-desc">画布建模 - align_space_around_vertical, 20px regular</desc><path fill="currentColor" d="M6 4h1a2 2 0 0 1 2 2v8a2 2 0 0 1-2 2H6a2 2 0 0 1-2-2V6c0-1.1.9-2 2-2ZM5 6v8a1 1 0 0 0 1 1h1a1 1 0 0 0 1-1V6a1 1 0 0 0-1-1H6a1 1 0 0 0-1 1Zm8-2a2 2 0 0 0-2 2v8c0 1.1.9 2 2 2h1a2 2 0 0 0 2-2V6a2 2 0 0 0-2-2h-1Zm-1 2a1 1 0 0 1 1-1h1a1 1 0 0 1 1 1v8a1 1 0 0 1-1 1h-1a1 1 0 0 1-1-1V6Z"/></svg>