<!-- @license lucide-static v1.21.0 - ISC -->
<svg
  class="lucide lucide-map"
  xmlns="http://www.w3.org/2000/svg"
  width="24"
  height="24"
  viewBox="0 0 24 24"
  fill="none"
  stroke="currentColor"
  stroke-width="2"
  stroke-linecap="round"
  stroke-linejoin="round"
 color="#2563eb" role="img" aria-labelledby="lucide-map-title lucide-map-desc">
  <title id="lucide-map-title">map</title>
  <desc id="lucide-map-desc">输电环节 - Lucide - map - ISC</desc>
  <path fill="currentColor" d="M14.106 5.553a2 2 0 0 0 1.788 0l3.659-1.83A1 1 0 0 1 21 4.619v12.764a1 1 0 0 1-.553.894l-4.553 2.277a2 2 0 0 1-1.788 0l-4.212-2.106a2 2 0 0 0-1.788 0l-3.659 1.83A1 1 0 0 1 3 19.381V6.618a1 1 0 0 1 .553-.894l4.553-2.277a2 2 0 0 1 1.788 0z" />
  <path fill="currentColor" d="M15 5.764v15" />
  <path fill="currentColor" d="M9 3.236v15" />
</svg>
