<?xml version="1.0" encoding="UTF-8"?>
<svg xmlns="http://www.w3.org/2000/svg" viewBox="0 0 64 64" width="64" height="64" color="#16a34a" role="img" aria-labelledby="eco-leaf-title eco-leaf-desc">
  <title id="eco-leaf-title">绿色环保</title>
  <desc id="eco-leaf-desc">气象与环境 - 复用 能源通用 / nest_eco_leaf</desc>
  <g transform="translate(8 56) scale(0.05)">
<path fill="currentColor" d="M480-164q-58.53 0-110.26-19.5Q318-203 276-238l-62 61q-9 9-20.5 9t-20.5-9q-9-9-9-20.5t9-20.5l61-62q-35.34-42.16-54.67-93.58T160-484q0-134 93-227t227-93h320v320q0 134-93 227t-227 93Zm0-60q108.33 0 184.17-75.83Q740-375.67 740-484v-260H480q-108.33 0-184.17 75.83Q220-592.33 220-484q0 45.74 15 87.37T276-322l217-216q9-9 20.5-9t20.5 9q9 8.8 9 20.9 0 12.1-9 21.1L318-280q33 26 74.63 41 41.63 15 87.37 15Zm0-260Z"/>
  </g>
  <g>
<path d="M46 46h14v14H46z" fill="none" stroke="currentColor" stroke-width="2.6" stroke-linecap="round" stroke-linejoin="round"/><circle cx="50" cy="47" r="1" fill="none" stroke="currentColor" stroke-width="2.6" stroke-linecap="round" stroke-linejoin="round"/><path d="M50 47L49 49" fill="none" stroke="currentColor" stroke-width="2.6" stroke-linecap="round" stroke-linejoin="round"/><circle cx="50" cy="50" r="1.1" fill="none" stroke="currentColor" stroke-width="2.6" stroke-linecap="round" stroke-linejoin="round"/>
  </g>
</svg>
