<svg xmlns="http://www.w3.org/2000/svg" viewBox="0 0 32 32" color="#2563eb" role="img" aria-labelledby="carbon-repo-source-code-title carbon-repo-source-code-desc">
  <title id="carbon-repo-source-code-title">repo source code</title>
  <desc id="carbon-repo-source-code-desc">开发工具 - Carbon Icons - repo-source-code - Apache-2.0</desc><path fill="currentColor" d="M23.6 21.4 27.2 25 27.2 25 23.6 28.6 25 30 30 25 25 20z"/><path fill="currentColor" d="M20.4 21.4 16.8 25 16.8 25 20.4 28.6 19 30 14 25 19 20z"/><path fill="currentColor" d="M28,8H16l-3.4-3.4C12.2,4.2,11.7,4,11.2,4H4C2.9,4,2,4.9,2,6v20c0,1.1,0.9,2,2,2h7v-2H4V6h7.2l3.4,3.4l0.6,0.6H28v8h2v-8	C30,8.9,29.1,8,28,8z"/></svg>