<svg xmlns="http://www.w3.org/2000/svg" viewBox="0 0 32 32" color="#2563eb" role="img" aria-labelledby="carbon-terminal-title carbon-terminal-desc">
  <title id="carbon-terminal-title">terminal</title>
  <desc id="carbon-terminal-desc">开发工具 - Carbon Icons - terminal - Apache-2.0</desc><path fill="currentColor" d="M26,4H6A2,2,0,0,0,4,6V26a2,2,0,0,0,2,2H26a2,2,0,0,0,2-2V6A2,2,0,0,0,26,4Zm0,2v4H6V6ZM6,26V12H26V26Z" transform="translate(0 .01)"/><path fill="currentColor" d="M10.76 16.18 13.58 19.01 10.76 21.84 12.17 23.25 16.41 19.01 12.17 14.77 10.76 16.18z"/></svg>