<svg xmlns="http://www.w3.org/2000/svg" viewBox="0 0 32 32" color="#2563eb" role="img" aria-labelledby="carbon-qr-code-title carbon-qr-code-desc">
  <title id="carbon-qr-code-title">qr code</title>
  <desc id="carbon-qr-code-desc">开发工具 - Carbon Icons - qr-code - Apache-2.0</desc><path fill="currentColor" d="M24 26H26V28H24z" transform="rotate(-90 25 27)"/><path fill="currentColor" d="M18 22H20V24H18z" transform="rotate(-90 19 23)"/><path fill="currentColor" d="M18 30 22 30 22 28 20 28 20 26 18 26 18 30z"/><path fill="currentColor" d="M25 23H29V25H25z" transform="rotate(-90 27 24)"/><path fill="currentColor" d="M28 26 30 26 30 30 26 30 26 28 28 28 28 26z"/><path fill="currentColor" d="M26 20 26 18 30 18 30 22 28 22 28 20 26 20z"/><path fill="currentColor" d="M24 20 22 20 22 24 20 24 20 26 24 26 24 20z"/><path fill="currentColor" d="M19 17H21V21H19z" transform="rotate(-90 20 19)"/><path fill="currentColor" d="M6 22H10V26H6z"/><path fill="currentColor" d="M14,30H2V18H14ZM4,28h8V20H4Z"/><path fill="currentColor" d="M22 6H26V10H22z"/><path fill="currentColor" d="M30,14H18V2H30ZM20,12h8V4H20Z"/><path fill="currentColor" d="M6 6H10V10H6z"/><path fill="currentColor" d="M14,14H2V2H14ZM4,12h8V4H4Z"/></svg>