<svg xmlns="http://www.w3.org/2000/svg" viewBox="0 0 32 32" color="#2563eb" role="img" aria-labelledby="carbon-api-1-title carbon-api-1-desc">
  <title id="carbon-api-1-title">API 1</title>
  <desc id="carbon-api-1-desc">开发工具 - Carbon Icons - API-1 - Apache-2.0</desc><path fill="currentColor" d="M8,9H4a2,2,0,0,0-2,2V23H4V18H8v5h2V11A2,2,0,0,0,8,9ZM4,16V11H8v5Z"/><path fill="currentColor" d="M22 11 25 11 25 21 22 21 22 23 30 23 30 21 27 21 27 11 30 11 30 9 22 9 22 11z"/><path fill="currentColor" d="M14,23H12V9h6a2,2,0,0,1,2,2v5a2,2,0,0,1-2,2H14Zm0-7h4V11H14Z"/></svg>