<svg
  xmlns="http://www.w3.org/2000/svg"
  width="24"
  height="24"
  viewBox="0 0 24 24"
  fill="none"
  stroke="currentColor"
  stroke-width="2"
  stroke-linecap="round"
  stroke-linejoin="round"
  class="icon icon-tabler icons-tabler-outline icon-tabler-message-user"
 color="#2563eb" role="img" aria-labelledby="tabler-message-user-title tabler-message-user-desc">
  <title id="tabler-message-user-title">message user</title>
  <desc id="tabler-message-user-desc">协作通信 - Tabler Icons - message-user - MIT</desc>
  <path stroke="none" d="M0 0h24v24H0z" fill="none" />
  <path fill="currentColor" d="M13 18l-5 3v-3h-2a3 3 0 0 1 -3 -3v-8a3 3 0 0 1 3 -3h12a3 3 0 0 1 3 3v4.5" />
  <path fill="currentColor" d="M17 17a2 2 0 1 0 4 0a2 2 0 1 0 -4 0" />
  <path fill="currentColor" d="M22 22a2 2 0 0 0 -2 -2h-2a2 2 0 0 0 -2 2" />
</svg>