<svg
  xmlns="http://www.w3.org/2000/svg"
  width="24"
  height="24"
  viewBox="0 0 24 24"
  fill="none"
  stroke="currentColor"
  stroke-width="2"
  stroke-linecap="round"
  stroke-linejoin="round"
  class="icon icon-tabler icons-tabler-outline icon-tabler-users"
 color="#2563eb" role="img" aria-labelledby="tabler-users-title tabler-users-desc">
  <title id="tabler-users-title">users</title>
  <desc id="tabler-users-desc">协作通信 - Tabler Icons - users - MIT</desc>
  <path stroke="none" d="M0 0h24v24H0z" fill="none" />
  <path fill="currentColor" d="M5 7a4 4 0 1 0 8 0a4 4 0 1 0 -8 0" />
  <path fill="currentColor" d="M3 21v-2a4 4 0 0 1 4 -4h4a4 4 0 0 1 4 4v2" />
  <path fill="currentColor" d="M16 3.13a4 4 0 0 1 0 7.75" />
  <path fill="currentColor" d="M21 21v-2a4 4 0 0 0 -3 -3.85" />
</svg>