<svg
  xmlns="http://www.w3.org/2000/svg"
  width="24"
  height="24"
  viewBox="0 0 24 24"
  fill="none"
  stroke="currentColor"
  stroke-width="2"
  stroke-linecap="round"
  stroke-linejoin="round"
  class="icon icon-tabler icons-tabler-outline icon-tabler-calendar-user"
 color="#2563eb" role="img" aria-labelledby="tabler-calendar-user-title tabler-calendar-user-desc">
  <title id="tabler-calendar-user-title">calendar user</title>
  <desc id="tabler-calendar-user-desc">协作通信 - Tabler Icons - calendar-user - MIT</desc>
  <path stroke="none" d="M0 0h24v24H0z" fill="none" />
  <path fill="currentColor" d="M12 21h-6a2 2 0 0 1 -2 -2v-12a2 2 0 0 1 2 -2h12a2 2 0 0 1 2 2v4.5" />
  <path fill="currentColor" d="M16 3v4" />
  <path fill="currentColor" d="M8 3v4" />
  <path fill="currentColor" d="M4 11h16" />
  <path fill="currentColor" d="M17 17a2 2 0 1 0 4 0a2 2 0 1 0 -4 0" />
  <path fill="currentColor" d="M22 22a2 2 0 0 0 -2 -2h-2a2 2 0 0 0 -2 2" />
</svg>