<svg
  xmlns="http://www.w3.org/2000/svg"
  width="24"
  height="24"
  viewBox="0 0 24 24"
  fill="none"
  stroke="currentColor"
  stroke-width="2"
  stroke-linecap="round"
  stroke-linejoin="round"
  class="icon icon-tabler icons-tabler-outline icon-tabler-network"
 color="#2563eb" role="img" aria-labelledby="tabler-network-title tabler-network-desc">
  <title id="tabler-network-title">network</title>
  <desc id="tabler-network-desc">协作通信 - Tabler Icons - network - MIT</desc>
  <path stroke="none" d="M0 0h24v24H0z" fill="none" />
  <path fill="currentColor" d="M6 9a6 6 0 1 0 12 0a6 6 0 0 0 -12 0" />
  <path fill="currentColor" d="M12 3c1.333 .333 2 2.333 2 6s-.667 5.667 -2 6" />
  <path fill="currentColor" d="M12 3c-1.333 .333 -2 2.333 -2 6s.667 5.667 2 6" />
  <path fill="currentColor" d="M6 9h12" />
  <path fill="currentColor" d="M3 20h7" />
  <path fill="currentColor" d="M14 20h7" />
  <path fill="currentColor" d="M10 20a2 2 0 1 0 4 0a2 2 0 0 0 -4 0" />
  <path fill="currentColor" d="M12 15v3" />
</svg>