<svg
  xmlns="http://www.w3.org/2000/svg"
  width="24"
  height="24"
  viewBox="0 0 24 24"
  fill="none"
  stroke="currentColor"
  stroke-width="2"
  stroke-linecap="round"
  stroke-linejoin="round"
  class="icon icon-tabler icons-tabler-outline icon-tabler-phone-call"
 color="#2563eb" role="img" aria-labelledby="tabler-phone-call-title tabler-phone-call-desc">
  <title id="tabler-phone-call-title">phone call</title>
  <desc id="tabler-phone-call-desc">协作通信 - Tabler Icons - phone-call - MIT</desc>
  <path stroke="none" d="M0 0h24v24H0z" fill="none" />
  <path fill="currentColor" d="M5 4h4l2 5l-2.5 1.5a11 11 0 0 0 5 5l1.5 -2.5l5 2v4a2 2 0 0 1 -2 2a16 16 0 0 1 -15 -15a2 2 0 0 1 2 -2" />
  <path fill="currentColor" d="M15 7a2 2 0 0 1 2 2" />
  <path fill="currentColor" d="M15 3a6 6 0 0 1 6 6" />
</svg>