<?xml version="1.0" encoding="UTF-8"?>
<svg xmlns="http://www.w3.org/2000/svg" viewBox="0 0 64 64" width="64" height="64" color="#0891b2" role="img" aria-labelledby="hydrogen-refueling-station-title hydrogen-refueling-station-desc">
  <title id="hydrogen-refueling-station-title">加氢站</title>
  <desc id="hydrogen-refueling-station-desc">氢能工艺设备 - 复用 氢能储能 / hydrogen-station</desc>
  <g transform="translate(8 8) scale(2)">
<path fill="currentColor" d="M6 3C4.89 3 4 3.9 4 5V21H14V13.5H15.5V18.5C15.5 19.88 16.62 21 18 21S20.5 19.88 20.5 18.5V9C20.5 8.31 20.22 7.68 19.77 7.23L19.78 7.22L16.06 3.5L15 4.56L17.11 6.67C16.17 7.03 15.5 7.93 15.5 9C15.5 10.38 16.62 11.5 18 11.5C18.36 11.5 18.69 11.42 19 11.29V18.5C19 19.05 18.55 19.5 18 19.5S17 19.05 17 18.5V14C17 12.9 16.11 12 15 12H14V5C14 3.9 13.11 3 12 3H6M6 7H8V11H10V7H12V17H10V13H8V17H6V7M18 8C18.55 8 19 8.45 19 9S18.55 10 18 10 17 9.55 17 9 17.45 8 18 8Z" />
  </g>
  <g>
<path d="M46 46h14v14H46z" fill="none" stroke="currentColor" stroke-width="2.6" stroke-linecap="round" stroke-linejoin="round"/><circle cx="54" cy="54" r="1" fill="none" stroke="currentColor" stroke-width="2.6" stroke-linecap="round" stroke-linejoin="round"/><path d="M54 54L51 55" fill="none" stroke="currentColor" stroke-width="2.6" stroke-linecap="round" stroke-linejoin="round"/><circle cx="54" cy="49" r="1.1" fill="none" stroke="currentColor" stroke-width="2.6" stroke-linecap="round" stroke-linejoin="round"/>
  </g>
</svg>
