<?xml version="1.0" encoding="UTF-8"?>
<svg xmlns="http://www.w3.org/2000/svg" viewBox="0 0 64 64" width="64" height="64" color="#0891b2" role="img" aria-labelledby="hydrogen-pressure-regulator-title hydrogen-pressure-regulator-desc">
  <title id="hydrogen-pressure-regulator-title">氢气调压</title>
  <desc id="hydrogen-pressure-regulator-desc">氢能工艺设备 - 复用 燃气能源 / pressure</desc>
  <g transform="translate(8 8) scale(1.5)">
<path fill="currentColor" d="M17.5053,16l8.1591-7.2529A1,1,0,0,0,25,7H22V2H20V9h2.37L16,14.6621,9.63,9H12V2H10V7H7a1,1,0,0,0-.6646,1.7471L14.4945,16,6.3353,23.2529A1,1,0,0,0,7,25h3v5h2V23H9.63L16,17.3379,22.37,23H20v7h2V25h3a1,1,0,0,0,.6645-1.7471Z"/>
  </g>
  <g>
<path d="M46 46h14v14H46z" fill="none" stroke="currentColor" stroke-width="2.6" stroke-linecap="round" stroke-linejoin="round"/><circle cx="54" cy="40" r="0.65" fill="none" stroke="currentColor" stroke-width="2.6" stroke-linecap="round" stroke-linejoin="round"/><path d="M54 40L49 44" fill="none" stroke="currentColor" stroke-width="2.6" stroke-linecap="round" stroke-linejoin="round"/><circle cx="45" cy="47" r="1.1" fill="none" stroke="currentColor" stroke-width="2.6" stroke-linecap="round" stroke-linejoin="round"/>
  </g>
</svg>
