<svg xmlns="http://www.w3.org/2000/svg" viewBox="0 0 256 256" fill="currentColor" color="#2563eb" role="img" aria-labelledby="phosphor-battery-empty-title phosphor-battery-empty-desc">
  <title id="phosphor-battery-empty-title">battery empty</title>
  <desc id="phosphor-battery-empty-desc">能源通用 - Phosphor Icons - battery-empty - MIT</desc><path fill="currentColor" d="M200,56H32A24,24,0,0,0,8,80v96a24,24,0,0,0,24,24H200a24,24,0,0,0,24-24V80A24,24,0,0,0,200,56Zm8,120a8,8,0,0,1-8,8H32a8,8,0,0,1-8-8V80a8,8,0,0,1,8-8H200a8,8,0,0,1,8,8Zm48-80v64a8,8,0,0,1-16,0V96a8,8,0,0,1,16,0Z"/></svg>