<svg xmlns="http://www.w3.org/2000/svg" width="16" height="16" fill="currentColor" class="bi bi-chevron-bar-down" viewBox="0 0 16 16" color="#2563eb" role="img" aria-labelledby="bootstrap-chevron-bar-down-title bootstrap-chevron-bar-down-desc">
  <title id="bootstrap-chevron-bar-down-title">chevron bar down</title>
  <desc id="bootstrap-chevron-bar-down-desc">数据图表 - Bootstrap Icons - chevron-bar-down - MIT</desc>
  <path fill="currentColor" fill-rule="evenodd" d="M3.646 4.146a.5.5 0 0 1 .708 0L8 7.793l3.646-3.647a.5.5 0 0 1 .708.708l-4 4a.5.5 0 0 1-.708 0l-4-4a.5.5 0 0 1 0-.708M1 11.5a.5.5 0 0 1 .5-.5h13a.5.5 0 0 1 0 1h-13a.5.5 0 0 1-.5-.5"/>
</svg>