<svg xmlns="http://www.w3.org/2000/svg" width="16" height="16" fill="currentColor" class="bi bi-bar-chart-line" viewBox="0 0 16 16" color="#2563eb" role="img" aria-labelledby="bootstrap-bar-chart-line-title bootstrap-bar-chart-line-desc">
  <title id="bootstrap-bar-chart-line-title">bar chart line</title>
  <desc id="bootstrap-bar-chart-line-desc">数据图表 - Bootstrap Icons - bar-chart-line - MIT</desc>
  <path fill="currentColor" d="M11 2a1 1 0 0 1 1-1h2a1 1 0 0 1 1 1v12h.5a.5.5 0 0 1 0 1H.5a.5.5 0 0 1 0-1H1v-3a1 1 0 0 1 1-1h2a1 1 0 0 1 1 1v3h1V7a1 1 0 0 1 1-1h2a1 1 0 0 1 1 1v7h1zm1 12h2V2h-2zm-3 0V7H7v7zm-5 0v-3H2v3z"/>
</svg>