<svg xmlns="http://www.w3.org/2000/svg" width="16" height="16" fill="currentColor" class="bi bi-arrow-bar-up" viewBox="0 0 16 16" color="#2563eb" role="img" aria-labelledby="bootstrap-arrow-bar-up-title bootstrap-arrow-bar-up-desc">
  <title id="bootstrap-arrow-bar-up-title">arrow bar up</title>
  <desc id="bootstrap-arrow-bar-up-desc">数据图表 - Bootstrap Icons - arrow-bar-up - MIT</desc>
  <path fill="currentColor" fill-rule="evenodd" d="M8 10a.5.5 0 0 0 .5-.5V3.707l2.146 2.147a.5.5 0 0 0 .708-.708l-3-3a.5.5 0 0 0-.708 0l-3 3a.5.5 0 1 0 .708.708L7.5 3.707V9.5a.5.5 0 0 0 .5.5m-7 2.5a.5.5 0 0 1 .5-.5h13a.5.5 0 0 1 0 1h-13a.5.5 0 0 1-.5-.5"/>
</svg>