<svg xmlns="http://www.w3.org/2000/svg" width="16" height="16" fill="currentColor" class="bi bi-arrow-bar-down" viewBox="0 0 16 16" color="#2563eb" role="img" aria-labelledby="bootstrap-arrow-bar-down-title bootstrap-arrow-bar-down-desc">
  <title id="bootstrap-arrow-bar-down-title">arrow bar down</title>
  <desc id="bootstrap-arrow-bar-down-desc">数据图表 - Bootstrap Icons - arrow-bar-down - MIT</desc>
  <path fill="currentColor" fill-rule="evenodd" d="M1 3.5a.5.5 0 0 1 .5-.5h13a.5.5 0 0 1 0 1h-13a.5.5 0 0 1-.5-.5M8 6a.5.5 0 0 1 .5.5v5.793l2.146-2.147a.5.5 0 0 1 .708.708l-3 3a.5.5 0 0 1-.708 0l-3-3a.5.5 0 0 1 .708-.708L7.5 12.293V6.5A.5.5 0 0 1 8 6"/>
</svg>