<svg width="24" height="24" viewBox="0 0 24 24" fill="none" xmlns="http://www.w3.org/2000/svg" color="#2563eb" role="img" aria-labelledby="mono-icons-clipboard-title mono-icons-clipboard-desc">
  <title id="mono-icons-clipboard-title">clipboard</title>
  <desc id="mono-icons-clipboard-desc">通用命令 - Mono Icons - clipboard - MIT</desc><path d="M8 3a1 1 0 0 1 1-1h6a1 1 0 0 1 1 1h2a2 2 0 0 1 2 2v15a2 2 0 0 1-2 2H6a2 2 0 0 1-2-2V5a2 2 0 0 1 2-2h2zm0 2H6v15h12V5h-2v1a1 1 0 0 1-1 1H9a1 1 0 0 1-1-1V5zm6-1h-4v1h4V4z" fill="#0D0D0D"/></svg>