<svg width="24" height="24" viewBox="0 0 24 24" xmlns="http://www.w3.org/2000/svg" color="#2563eb" role="img" aria-labelledby="textbox-align-middle-left-title textbox-align-middle-left-desc">
  <title id="textbox-align-middle-left-title">Textbox Align Middle Left</title>
  <desc id="textbox-align-middle-left-desc">画布建模 - textbox_align_middle_left, 24px regular</desc><path fill="currentColor" d="M5.75 3A2.75 2.75 0 0 0 3 5.75v12.5A2.75 2.75 0 0 0 5.75 21h12.5A2.75 2.75 0 0 0 21 18.25V5.75A2.75 2.75 0 0 0 18.25 3H5.75ZM4.5 5.75c0-.69.56-1.25 1.25-1.25h12.5c.69 0 1.25.56 1.25 1.25v12.5c0 .69-.56 1.25-1.25 1.25H5.75c-.69 0-1.25-.56-1.25-1.25V5.75ZM7.25 9a.75.75 0 0 0 0 1.5h9.5a.75.75 0 0 0 0-1.5h-9.5Zm0 4a.75.75 0 0 0 0 1.5h6.5a.75.75 0 0 0 0-1.5h-6.5Z"/></svg>