<svg width="24" height="24" viewBox="0 0 24 24" xmlns="http://www.w3.org/2000/svg" color="#2563eb" role="img" aria-labelledby="presence-away-title presence-away-desc">
  <title id="presence-away-title">Presence Away</title>
  <desc id="presence-away-desc">协作通信 - presence_away, 24px regular</desc><path fill="currentColor" d="M13 11.31V6.5a1.5 1.5 0 0 0-3 0V12c0 .44.2.85.52 1.14l3.5 3a1.5 1.5 0 0 0 1.96-2.28L13 11.31ZM0 12a12 12 0 1 1 24 0 12 12 0 0 1-24 0Zm12-9a9 9 0 1 0 0 18 9 9 0 0 0 0-18Z"/></svg>