<!-- @license lucide-static v1.21.0 - ISC -->
<svg
  class="lucide lucide-helicopter"
  xmlns="http://www.w3.org/2000/svg"
  width="24"
  height="24"
  viewBox="0 0 24 24"
  fill="none"
  stroke="currentColor"
  stroke-width="2"
  stroke-linecap="round"
  stroke-linejoin="round"
 color="#2563eb" role="img" aria-labelledby="lucide-helicopter-title lucide-helicopter-desc">
  <title id="lucide-helicopter-title">helicopter</title>
  <desc id="lucide-helicopter-desc">交通设施 - Lucide - helicopter - ISC</desc>
  <path fill="currentColor" d="M11 17v4" />
  <path fill="currentColor" d="M14 3v8a2 2 0 0 0 2 2h5.865" />
  <path fill="currentColor" d="M17 17v4" />
  <path fill="currentColor" d="M18 17a4 4 0 0 0 4-4 8 6 0 0 0-8-6 6 5 0 0 0-6 5v3a2 2 0 0 0 2 2z" />
  <path fill="currentColor" d="M2 10v5" />
  <path fill="currentColor" d="M6 3h16" />
  <path fill="currentColor" d="M7 21h14" />
  <path fill="currentColor" d="M8 13H2" />
</svg>
