<!-- @license lucide-static v1.21.0 - ISC -->
<svg
  class="lucide lucide-pin"
  xmlns="http://www.w3.org/2000/svg"
  width="24"
  height="24"
  viewBox="0 0 24 24"
  fill="none"
  stroke="currentColor"
  stroke-width="2"
  stroke-linecap="round"
  stroke-linejoin="round"
 color="#2563eb" role="img" aria-labelledby="lucide-pin-title lucide-pin-desc">
  <title id="lucide-pin-title">pin</title>
  <desc id="lucide-pin-desc">办公效率 - Lucide - pin - ISC</desc>
  <path fill="currentColor" d="M12 17v5" />
  <path fill="currentColor" d="M9 10.76a2 2 0 0 1-1.11 1.79l-1.78.9A2 2 0 0 0 5 15.24V16a1 1 0 0 0 1 1h12a1 1 0 0 0 1-1v-.76a2 2 0 0 0-1.11-1.79l-1.78-.9A2 2 0 0 1 15 10.76V7a1 1 0 0 1 1-1 2 2 0 0 0 0-4H8a2 2 0 0 0 0 4 1 1 0 0 1 1 1z" />
</svg>
