<svg xmlns="http://www.w3.org/2000/svg" viewBox="0 0 24 24" fill="none" color="#2563eb" role="img" aria-labelledby="majesticons-tooltip-text-title majesticons-tooltip-text-desc">
  <title id="majesticons-tooltip-text-title">tooltip text</title>
  <desc id="majesticons-tooltip-text-desc">文件文档 - Majesticons - tooltip-text - MIT</desc><path stroke="currentColor" stroke-linecap="round" stroke-linejoin="round" stroke-width="2" d="M7 8h10M7 11h10M7 14h4m1.707 6.293 1.707-1.707A2 2 0 0 1 15.828 18H19a2 2 0 0 0 2-2V6a2 2 0 0 0-2-2H5a2 2 0 0 0-2 2v10a2 2 0 0 0 2 2h3.172a2 2 0 0 1 1.414.586l1.707 1.707a1 1 0 0 0 1.414 0z"/></svg>