<svg xmlns="http://www.w3.org/2000/svg" viewBox="0 0 24 24" fill="none" color="#2563eb" role="img" aria-labelledby="majesticons-note-text-title majesticons-note-text-desc">
  <title id="majesticons-note-text-title">note text</title>
  <desc id="majesticons-note-text-desc">文件文档 - Majesticons - note-text - MIT</desc><path stroke="currentColor" stroke-linecap="round" stroke-linejoin="round" stroke-width="2" d="M21 15V5a2 2 0 0 0-2-2H5a2 2 0 0 0-2 2v14a2 2 0 0 0 2 2h10m6-6v.172a2 2 0 0 1-.586 1.414l-3.828 3.828a2 2 0 0 1-1.414.586H15m6-6h-4a2 2 0 0 0-2 2v4M7 7h10M7 11h10M7 15h4"/></svg>