<svg xmlns="http://www.w3.org/2000/svg" viewBox="0 0 24 24" color="#2563eb" role="img" aria-labelledby="eos-icons-drive-file-move-title eos-icons-drive-file-move-desc">
  <title id="eos-icons-drive-file-move-title">drive file move</title>
  <desc id="eos-icons-drive-file-move-desc">画布工具 - EOS Icons - drive-file-move - MIT</desc><path fill="currentColor" d="M20,6h-8l-2-2H4C2.9,4,2,4.9,2,6v12c0,1.1,0.9,2,2,2h16c1.1,0,2-0.9,2-2V8C22,6.9,21.1,6,20,6z M20,18H4V6h5.17l1.41,1.41 L11.17,8H20V18z M12.16,12H8v2h4.16l-1.59,1.59L11.99,17L16,13.01L11.99,9l-1.41,1.41L12.16,12z"/></svg>