<svg xmlns="http://www.w3.org/2000/svg" width="48" height="48" viewBox="0 -960 960 960" color="#2563eb" role="img" aria-labelledby="material-symbols-domain-title material-symbols-domain-desc">
  <title id="material-symbols-domain-title">domain</title>
  <desc id="material-symbols-domain-desc">云与基础设施 - Material Symbols - domain - Apache-2.0</desc><path fill="currentColor" d="M80-120v-720h390v165h410v555H80Zm60-60h105v-105H140v105Zm0-165h105v-105H140v105Zm0-165h105v-105H140v105Zm0-165h105v-105H140v105Zm165 495h105v-105H305v105Zm0-165h105v-105H305v105Zm0-165h105v-105H305v105Zm0-165h105v-105H305v105Zm165 495h350v-435H470v105h80v60h-80v105h80v60h-80v105Zm185-270v-60h60v60h-60Zm0 165v-60h60v60h-60Z"/></svg>