<svg xmlns="http://www.w3.org/2000/svg" id="mdi-cash" viewBox="0 0 24 24" color="#2563eb" role="img" aria-labelledby="material-design-icons-cash-title material-design-icons-cash-desc">
  <title id="material-design-icons-cash-title">cash</title>
  <desc id="material-design-icons-cash-desc">业务金融 - Material Design Icons - cash - Apache-2.0</desc><path fill="currentColor" d="M3,6H21V18H3V6M12,9A3,3 0 0,1 15,12A3,3 0 0,1 12,15A3,3 0 0,1 9,12A3,3 0 0,1 12,9M7,8A2,2 0 0,1 5,10V14A2,2 0 0,1 7,16H17A2,2 0 0,1 19,14V10A2,2 0 0,1 17,8H7Z" /></svg>