<svg xmlns="http://www.w3.org/2000/svg" viewBox="0 0 32 32" color="#2563eb" role="img" aria-labelledby="carbon-report-data-title carbon-report-data-desc">
  <title id="carbon-report-data-title">report data</title>
  <desc id="carbon-report-data-desc">数据图表 - Carbon Icons - report-data - Apache-2.0</desc><path fill="currentColor" d="M15 20H17V24H15z"/><path fill="currentColor" d="M20 18H22V24H20z"/><path fill="currentColor" d="M10 14H12V24H10z"/><path fill="currentColor" d="M25,5H22V4a2,2,0,0,0-2-2H12a2,2,0,0,0-2,2V5H7A2,2,0,0,0,5,7V28a2,2,0,0,0,2,2H25a2,2,0,0,0,2-2V7A2,2,0,0,0,25,5ZM12,4h8V8H12ZM25,28H7V7h3v3H22V7h3Z"/></svg>