<svg xmlns="http://www.w3.org/2000/svg" width="48" height="48" viewBox="0 -960 960 960" color="#2563eb" role="img" aria-labelledby="material-symbols-music-video-title material-symbols-music-video-desc">
  <title id="material-symbols-music-video-title">music video</title>
  <desc id="material-symbols-music-video-desc">媒体素材 - Material Symbols - music_video - Apache-2.0</desc><path fill="currentColor" d="M494-316.5q26-26.5 26-63.5v-218h108v-72H484v216q-10-7-25.5-11.5T430-470q-37.8 0-63.9 26.5T340-380q0 37 26.14 63.5t64 26.5Q468-290 494-316.5ZM140-160q-24 0-42-18t-18-42v-520q0-24 18-42t42-18h680q24 0 42 18t18 42v520q0 24-18 42t-42 18H140Zm0-60h680v-520H140v520Zm0 0v-520 520Z"/></svg>