<svg
  xmlns="http://www.w3.org/2000/svg"
  width="24"
  height="24"
  viewBox="0 0 24 24"
  fill="none"
  stroke="currentColor"
  stroke-width="2"
  stroke-linecap="round"
  stroke-linejoin="round"
  class="icon icon-tabler icons-tabler-outline icon-tabler-drone"
 color="#2563eb" role="img" aria-labelledby="tabler-drone-title tabler-drone-desc">
  <title id="tabler-drone-title">drone</title>
  <desc id="tabler-drone-desc">输电环节 - Tabler Icons - drone - MIT</desc>
  <path stroke="none" d="M0 0h24v24H0z" fill="none" />
  <path fill="currentColor" d="M10 10h4v4h-4l0 -4" />
  <path fill="currentColor" d="M10 10l-3.5 -3.5" />
  <path fill="currentColor" d="M9.96 6a3.5 3.5 0 1 0 -3.96 3.96" />
  <path fill="currentColor" d="M14 10l3.5 -3.5" />
  <path fill="currentColor" d="M18 9.96a3.5 3.5 0 1 0 -3.96 -3.96" />
  <path fill="currentColor" d="M14 14l3.5 3.5" />
  <path fill="currentColor" d="M14.04 18a3.5 3.5 0 1 0 3.96 -3.96" />
  <path fill="currentColor" d="M10 14l-3.5 3.5" />
  <path fill="currentColor" d="M6 14.04a3.5 3.5 0 1 0 3.96 3.96" />
</svg>