<svg
  xmlns="http://www.w3.org/2000/svg"
  width="24"
  height="24"
  viewBox="0 0 24 24"
  fill="none"
  stroke="currentColor"
  stroke-width="2"
  stroke-linecap="round"
  stroke-linejoin="round"
  class="icon icon-tabler icons-tabler-outline icon-tabler-world-map"
 color="#2563eb" role="img" aria-labelledby="tabler-world-map-title tabler-world-map-desc">
  <title id="tabler-world-map-title">world map</title>
  <desc id="tabler-world-map-desc">输电环节 - Tabler Icons - world-map - MIT</desc>
  <path stroke="none" d="M0 0h24v24H0z" fill="none" />
  <path fill="currentColor" d="M20 8h-2a2 2 0 0 0 -2 2a2 2 0 1 1 -4 0v-1a2 2 0 0 0 -2 -2h-1a2 2 0 0 1 -2 -2v-.5" />
  <path fill="currentColor" d="M3 12h3a2 2 0 0 1 2 2v.5a1.5 1.5 0 0 0 1.5 1.5a1.5 1.5 0 0 1 1.5 1.5v3.25" />
  <path fill="currentColor" d="M15 20.5v-3.5a2 2 0 0 1 2 -2h3.5" />
  <path fill="currentColor" d="M3 12a9 9 0 1 0 18 0a9 9 0 1 0 -18 0" />
</svg>