<svg
  xmlns="http://www.w3.org/2000/svg"
  width="24"
  height="24"
  viewBox="0 0 24 24"
  fill="none"
  stroke="currentColor"
  stroke-width="2"
  stroke-linecap="round"
  stroke-linejoin="round"
  class="icon icon-tabler icons-tabler-outline icon-tabler-sitemap"
 color="#2563eb" role="img" aria-labelledby="tabler-sitemap-title tabler-sitemap-desc">
  <title id="tabler-sitemap-title">sitemap</title>
  <desc id="tabler-sitemap-desc">输电环节 - Tabler Icons - sitemap - MIT</desc>
  <path stroke="none" d="M0 0h24v24H0z" fill="none" />
  <path fill="currentColor" d="M3 17a2 2 0 0 1 2 -2h2a2 2 0 0 1 2 2v2a2 2 0 0 1 -2 2h-2a2 2 0 0 1 -2 -2l0 -2" />
  <path fill="currentColor" d="M15 17a2 2 0 0 1 2 -2h2a2 2 0 0 1 2 2v2a2 2 0 0 1 -2 2h-2a2 2 0 0 1 -2 -2l0 -2" />
  <path fill="currentColor" d="M9 5a2 2 0 0 1 2 -2h2a2 2 0 0 1 2 2v2a2 2 0 0 1 -2 2h-2a2 2 0 0 1 -2 -2l0 -2" />
  <path fill="currentColor" d="M6 15v-1a2 2 0 0 1 2 -2h8a2 2 0 0 1 2 2v1" />
  <path fill="currentColor" d="M12 9l0 3" />
</svg>