<svg xmlns="http://www.w3.org/2000/svg" width="24" height="24" fill="currentColor" viewBox="0 0 24 24" color="#2563eb" role="img" aria-labelledby="pixelarticons-chevrons-vertical-title pixelarticons-chevrons-vertical-desc">
  <title id="pixelarticons-chevrons-vertical-title">chevrons vertical</title>
  <desc id="pixelarticons-chevrons-vertical-desc">用电环节 - Pixelarticons - chevrons-vertical - MIT</desc>
  <path fill="currentColor" d="M13 20h-2v-2h2v2Zm-2-2H9v-2h2v2Zm4 0h-2v-2h2v2Zm-6-2H7v-2h2v2Zm8-2v2h-2v-2h2Zm-8-4H7V8h2v2Zm8 0h-2V8h2v2Zm-6-2H9V6h2v2Zm4 0h-2V6h2v2Zm-2-2h-2V4h2v2Z"/>
</svg>
