<svg xmlns="http://www.w3.org/2000/svg" width="24" height="24" fill="currentColor" viewBox="0 0 24 24" color="#2563eb" role="img" aria-labelledby="pixelarticons-lightbulb-title pixelarticons-lightbulb-desc">
  <title id="pixelarticons-lightbulb-title">lightbulb</title>
  <desc id="pixelarticons-lightbulb-desc">用电环节 - Pixelarticons - lightbulb - MIT</desc>
  <path fill="currentColor" d="M9 4h6v2H9zM7 6h2v2H7zm8 0h2v2h-2zm4-2h2v2h-2zm2-2h2v2h-2zM0 10h3v2H0zm21 0h3v2h-3zM3 4h2v2H3zM1 2h2v2H1zm6 12h2v2H7zm8 0h2v2h-2zM5 8h2v6H5zm12 0h2v6h-2zm-8 8h6v2H9zm0 4h6v2H9zm0-2h2v2H9zm4 0h2v2h-2zM11 0h2v3h-2z"/>
</svg>
