<svg width="24" height="24" viewBox="0 0 24 24" xmlns="http://www.w3.org/2000/svg" color="#2563eb" role="img" aria-labelledby="music-note-2-title music-note-2-desc">
  <title id="music-note-2-title">音乐</title>
  <desc id="music-note-2-desc">媒体素材 - music_note_2, 24px regular</desc><path fill="currentColor" d="M19.7 2.15c.19.14.3.36.3.6V16.5a3.5 3.5 0 1 1-1.5-2.87V7.76L10 10.3v8.19a3.5 3.5 0 1 1-1.5-2.87V5.75c0-.33.22-.62.53-.72l10-3a.75.75 0 0 1 .67.12ZM10 8.75l8.5-2.56V3.76L10 6.3v2.43ZM6.5 16.5a2 2 0 1 0 0 4 2 2 0 0 0 0-4Zm8 0a2 2 0 1 0 4 0 2 2 0 0 0-4 0Z"/></svg>