<svg width="24" height="24" viewBox="0 0 20 20" xmlns="http://www.w3.org/2000/svg" color="#2563eb" role="img" aria-labelledby="pipeline-play-title pipeline-play-desc">
  <title id="pipeline-play-title">Pipeline Play</title>
  <desc id="pipeline-play-desc">媒体素材 - pipeline_play, 20px regular</desc><path fill="currentColor" d="M2 5.5a1.5 1.5 0 1 1 3 0V6h10v-.5a1.5 1.5 0 0 1 3 0v4.76a5.5 5.5 0 0 0-1-.66V5.5a.5.5 0 0 0-1 0v3.7c-.32-.08-.66-.15-1-.18V7H5v6h4.2c-.08.32-.15.66-.18 1H5v.5a1.5 1.5 0 0 1-3 0v-9Zm2 0a.5.5 0 0 0-1 0v9a.5.5 0 0 0 1 0v-9Zm15 9a4.5 4.5 0 1 1-9 0 4.5 4.5 0 0 1 9 0Zm-2.29-.44-2.97-1.65a.5.5 0 0 0-.74.44v3.3c0 .38.41.62.74.44l2.97-1.65a.5.5 0 0 0 0-.88Z"/></svg>