<svg
  xmlns="http://www.w3.org/2000/svg"
  width="24"
  height="24"
  viewBox="0 0 24 24"
  fill="none"
  stroke="currentColor"
  stroke-width="2"
  stroke-linecap="round"
  stroke-linejoin="round"
  class="icon icon-tabler icons-tabler-outline icon-tabler-car-crane"
 color="#2563eb" role="img" aria-labelledby="tabler-car-crane-title tabler-car-crane-desc">
  <title id="tabler-car-crane-title">car crane</title>
  <desc id="tabler-car-crane-desc">工业设施 - Tabler Icons - car-crane - MIT</desc>
  <path stroke="none" d="M0 0h24v24H0z" fill="none" />
  <path fill="currentColor" d="M3 17a2 2 0 1 0 4 0a2 2 0 1 0 -4 0" />
  <path fill="currentColor" d="M15 17a2 2 0 1 0 4 0a2 2 0 1 0 -4 0" />
  <path fill="currentColor" d="M7 18h8m4 0h2v-6a5 5 0 0 0 -5 -5h-1l1.5 5h4.5" />
  <path fill="currentColor" d="M12 18v-11h3" />
  <path fill="currentColor" d="M3 17v-5h9" />
  <path fill="currentColor" d="M4 12v-6l18 -3v2" />
  <path fill="currentColor" d="M8 12v-4l-4 -2" />
</svg>