<svg xmlns="http://www.w3.org/2000/svg" viewBox="0 0 512 512" color="#2563eb" role="img" aria-labelledby="fontawesome-solid-hospital-symbol-title fontawesome-solid-hospital-symbol-desc">
  <title id="fontawesome-solid-hospital-symbol-title">hospital symbol</title>
  <desc id="fontawesome-solid-hospital-symbol-desc">医疗安全 - Font Awesome Free Solid - hospital-symbol - (CC-BY-4.0 AND OFL-1.1 AND MIT)</desc><!--! Font Awesome Free 7.2.0 by @fontawesome - https://fontawesome.com License - https://fontawesome.com/license/free (Icons: CC BY 4.0, Fonts: SIL OFL 1.1, Code: MIT License) Copyright 2026 Fonticons, Inc. --><path fill="currentColor" d="M256 512a256 256 0 1 0 0-512 256 256 0 1 0 0 512zm96-344l0 176c0 13.3-10.7 24-24 24s-24-10.7-24-24l0-64-96 0 0 64c0 13.3-10.7 24-24 24s-24-10.7-24-24l0-176c0-13.3 10.7-24 24-24s24 10.7 24 24l0 64 96 0 0-64c0-13.3 10.7-24 24-24s24 10.7 24 24z"/></svg>