<svg xmlns="http://www.w3.org/2000/svg" viewBox="0 0 32 32" color="#2563eb" role="img" aria-labelledby="carbon-accumulation-ice-title carbon-accumulation-ice-desc">
  <title id="carbon-accumulation-ice-title">accumulation ice</title>
  <desc id="carbon-accumulation-ice-desc">冷热能源 - Carbon Icons - accumulation-ice - Apache-2.0</desc><path fill="currentColor" d="M22 8 22 16 23 18 24 16 24 8 22 8z"/><path fill="currentColor" d="M18 8 18 18 19 20 20 18 20 8 18 8z"/><path fill="currentColor" d="M28,4a2.0023,2.0023,0,0,0-2,2V26H6V22h4V20H6V16h4V14H6V10h8v4l1,2,1-2V8H6V6A2.0023,2.0023,0,0,0,4,4H2V6H4V26a2.0023,2.0023,0,0,0,2,2H26a2.0023,2.0023,0,0,0,2-2V6h2V4Z"/></svg>