<svg xmlns="http://www.w3.org/2000/svg" viewBox="0 0 32 32" color="#2563eb" role="img" aria-labelledby="carbon-ice-accretion-title carbon-ice-accretion-desc">
  <title id="carbon-ice-accretion-title">ice accretion</title>
  <desc id="carbon-ice-accretion-desc">冷热能源 - Carbon Icons - ice-accretion - Apache-2.0</desc><path fill="currentColor" d="M4,2A2,2,0,0,0,2,4V20l1,2,1-2V4H8V14l1,2,1-2V2Z"/><path fill="currentColor" d="M28,2H14v8l1,2,1-2V4h2V17l1,2,1-2V4h4V14l1,2,1-2V4h2V24l1,2,1-2V4A2,2,0,0,0,28,2Z"/><path fill="currentColor" d="M14 28 13 30 12 28 12 16 14 16 14 28z"/><path fill="currentColor" d="M24 26 23 28 22 26 22 20 24 20 24 26z"/><path fill="currentColor" d="M8 24 7 26 6 24 6 18 8 18 8 24z"/></svg>