<svg
  xmlns="http://www.w3.org/2000/svg"
  width="24"
  height="24"
  viewBox="0 0 24 24"
  fill="none"
  stroke="currentColor"
  stroke-width="2"
  stroke-linecap="round"
  stroke-linejoin="round"
  class="icon icon-tabler icons-tabler-outline icon-tabler-chart-bar-off"
 color="#2563eb" role="img" aria-labelledby="tabler-chart-bar-off-title tabler-chart-bar-off-desc">
  <title id="tabler-chart-bar-off-title">chart bar off</title>
  <desc id="tabler-chart-bar-off-desc">数据图表 - Tabler Icons - chart-bar-off - MIT</desc>
  <path stroke="none" d="M0 0h24v24H0z" fill="none" />
  <path fill="currentColor" d="M3 13a1 1 0 0 1 1 -1h4a1 1 0 0 1 1 1v6a1 1 0 0 1 -1 1h-4a1 1 0 0 1 -1 -1l0 -6" />
  <path fill="currentColor" d="M12 8h2a1 1 0 0 1 1 1v2m0 4v4a1 1 0 0 1 -1 1h-4a1 1 0 0 1 -1 -1v-10" />
  <path fill="currentColor" d="M15 11v-6a1 1 0 0 1 1 -1h4a1 1 0 0 1 1 1v12m-1 3h-4a1 1 0 0 1 -1 -1v-4" />
  <path fill="currentColor" d="M4 20h14" />
  <path fill="currentColor" d="M3 3l18 18" />
</svg>