<svg
  xmlns="http://www.w3.org/2000/svg"
  width="24"
  height="24"
  viewBox="0 0 24 24"
  fill="none"
  stroke="currentColor"
  stroke-width="2"
  stroke-linecap="round"
  stroke-linejoin="round"
  class="icon icon-tabler icons-tabler-outline icon-tabler-database-cog"
 color="#2563eb" role="img" aria-labelledby="tabler-database-cog-title tabler-database-cog-desc">
  <title id="tabler-database-cog-title">database cog</title>
  <desc id="tabler-database-cog-desc">数据图表 - Tabler Icons - database-cog - MIT</desc>
  <path stroke="none" d="M0 0h24v24H0z" fill="none" />
  <path fill="currentColor" d="M4 6c0 1.657 3.582 3 8 3s8 -1.343 8 -3s-3.582 -3 -8 -3s-8 1.343 -8 3" />
  <path fill="currentColor" d="M4 6v6c0 1.657 3.582 3 8 3c.21 0 .42 -.003 .626 -.01" />
  <path fill="currentColor" d="M20 11.5v-5.5" />
  <path fill="currentColor" d="M4 12v6c0 1.657 3.582 3 8 3" />
  <path fill="currentColor" d="M17.001 19a2 2 0 1 0 4 0a2 2 0 1 0 -4 0" />
  <path fill="currentColor" d="M19.001 15.5v1.5" />
  <path fill="currentColor" d="M19.001 21v1.5" />
  <path fill="currentColor" d="M22.032 17.25l-1.299 .75" />
  <path fill="currentColor" d="M17.27 20l-1.3 .75" />
  <path fill="currentColor" d="M15.97 17.25l1.3 .75" />
  <path fill="currentColor" d="M20.733 20l1.3 .75" />
</svg>