<svg
  xmlns="http://www.w3.org/2000/svg"
  width="24"
  height="24"
  viewBox="0 0 24 24"
  fill="none"
  stroke="currentColor"
  stroke-width="2"
  stroke-linecap="round"
  stroke-linejoin="round"
  class="icon icon-tabler icons-tabler-outline icon-tabler-table-row"
 color="#2563eb" role="img" aria-labelledby="tabler-table-row-title tabler-table-row-desc">
  <title id="tabler-table-row-title">table row</title>
  <desc id="tabler-table-row-desc">数据图表 - Tabler Icons - table-row - MIT</desc>
  <path stroke="none" d="M0 0h24v24H0z" fill="none" />
  <path fill="currentColor" d="M3 5a2 2 0 0 1 2 -2h14a2 2 0 0 1 2 2v14a2 2 0 0 1 -2 2h-14a2 2 0 0 1 -2 -2v-14" />
  <path fill="currentColor" d="M9 3l-6 6" />
  <path fill="currentColor" d="M14 3l-7 7" />
  <path fill="currentColor" d="M19 3l-7 7" />
  <path fill="currentColor" d="M21 6l-4 4" />
  <path fill="currentColor" d="M3 10h18" />
  <path fill="currentColor" d="M10 10v11" />
</svg>