<svg
  xmlns="http://www.w3.org/2000/svg"
  width="24"
  height="24"
  viewBox="0 0 24 24"
  fill="none"
  stroke="currentColor"
  stroke-width="2"
  stroke-linecap="round"
  stroke-linejoin="round"
  class="icon icon-tabler icons-tabler-outline icon-tabler-file-zip"
 color="#2563eb" role="img" aria-labelledby="tabler-file-zip-title tabler-file-zip-desc">
  <title id="tabler-file-zip-title">file zip</title>
  <desc id="tabler-file-zip-desc">文件文档 - Tabler Icons - file-zip - MIT</desc>
  <path stroke="none" d="M0 0h24v24H0z" fill="none" />
  <path fill="currentColor" d="M6 20.735a2 2 0 0 1 -1 -1.735v-14a2 2 0 0 1 2 -2h7l5 5v11a2 2 0 0 1 -2 2h-1" />
  <path fill="currentColor" d="M11 17a2 2 0 0 1 2 2v2a1 1 0 0 1 -1 1h-2a1 1 0 0 1 -1 -1v-2a2 2 0 0 1 2 -2" />
  <path fill="currentColor" d="M11 5l-1 0" />
  <path fill="currentColor" d="M13 7l-1 0" />
  <path fill="currentColor" d="M11 9l-1 0" />
  <path fill="currentColor" d="M13 11l-1 0" />
  <path fill="currentColor" d="M11 13l-1 0" />
  <path fill="currentColor" d="M13 15l-1 0" />
</svg>