<svg xmlns="http://www.w3.org/2000/svg" viewBox="0 0 256 256" fill="currentColor" color="#2563eb" role="img" aria-labelledby="phosphor-cloud-fog-title phosphor-cloud-fog-desc">
  <title id="phosphor-cloud-fog-title">cloud fog</title>
  <desc id="phosphor-cloud-fog-desc">气象环境 - Phosphor Icons - cloud-fog - MIT</desc><path fill="currentColor" d="M120,208H72a8,8,0,0,1,0-16h48a8,8,0,0,1,0,16Zm64-16H160a8,8,0,0,0,0,16h24a8,8,0,0,0,0-16Zm-24,32H104a8,8,0,0,0,0,16h56a8,8,0,0,0,0-16Zm72-124a76.08,76.08,0,0,1-76,76H76A52,52,0,0,1,76,72a53.26,53.26,0,0,1,8.92.76A76.08,76.08,0,0,1,232,100Zm-16,0A60.06,60.06,0,0,0,96,96.46a8,8,0,0,1-16-.92q.21-3.66.77-7.23A38.11,38.11,0,0,0,76,88a36,36,0,0,0,0,72h80A60.07,60.07,0,0,0,216,100Z"/></svg>