<svg width="24" height="24" viewBox="0 0 24 24" xmlns="http://www.w3.org/2000/svg" color="#2563eb" role="img" aria-labelledby="fluent-system-square-dovetail-joint-title fluent-system-square-dovetail-joint-desc">
  <title id="fluent-system-square-dovetail-joint-title">square dovetail joint</title>
  <desc id="fluent-system-square-dovetail-joint-desc">云与基础设施 - Fluent UI System Icons - square-dovetail-joint - MIT</desc><path fill="currentColor" d="M17.75 3H6.25A3.25 3.25 0 0 0 3 6.25v11.5C3 19.55 4.46 21 6.25 21h11.5c1.8 0 3.25-1.45 3.25-3.25V6.25C21 4.45 19.55 3 17.75 3ZM4.5 17.75V6.25c0-.97.78-1.75 1.75-1.75H9v5.25a.75.75 0 0 0 .99.71L13.5 9.3v5.42L10 13.54a.75.75 0 0 0-.99.7v5.26H6.25c-.97 0-1.75-.78-1.75-1.75Zm15 0c0 .97-.78 1.75-1.75 1.75H10.5v-4.2l3.51 1.16a.75.75 0 0 0 1-.7v-7.5a.75.75 0 0 0-1-.72L10.5 8.71v-4.2h7.25c.97 0 1.75.78 1.75 1.74v11.5Z"/></svg>