<svg width="24" height="24" viewBox="0 0 24 24" xmlns="http://www.w3.org/2000/svg" color="#2563eb" role="img" aria-labelledby="fluent-system-presence-available-title fluent-system-presence-available-desc">
  <title id="fluent-system-presence-available-title">presence available</title>
  <desc id="fluent-system-presence-available-desc">云与基础设施 - Fluent UI System Icons - presence-available - MIT</desc><path fill="currentColor" d="M12 0a12 12 0 1 0 0 24 12 12 0 0 0 0-24ZM3 12a9 9 0 1 1 18 0 9 9 0 0 1-18 0Zm14.06-3.56a1.5 1.5 0 0 1 0 2.12l-5.5 5.5a1.5 1.5 0 0 1-2.12 0l-2-2a1.5 1.5 0 0 1 2.12-2.12l.94.94 4.44-4.44a1.5 1.5 0 0 1 2.12 0Z"/></svg>