<svg xmlns="http://www.w3.org/2000/svg" width="24" height="24" viewBox="0 0 24 24" color="#2563eb" role="img" aria-labelledby="boxicons-label-title boxicons-label-desc">
  <title id="boxicons-label-title">label</title>
  <desc id="boxicons-label-desc">办公效率 - Boxicons - label - (CC-BY-4.0 OR OFL-1.1 OR MIT)</desc><path fill="currentColor" d="M16.813 4.419A.997.997 0 0 0 16 4H3a1 1 0 0 0-.813 1.581L6.771 12l-4.585 6.419A1 1 0 0 0 3 20h13a.997.997 0 0 0 .813-.419l5-7a.997.997 0 0 0 0-1.162l-5-7zM15.485 18H4.943l3.87-5.419a.997.997 0 0 0 0-1.162L4.943 6h10.542l4.286 6-4.286 6z"/></svg>