<svg
  xmlns="http://www.w3.org/2000/svg"
  width="24"
  height="24"
  viewBox="0 0 24 24"
  fill="none"
  stroke="currentColor"
  stroke-width="2"
  stroke-linecap="round"
  stroke-linejoin="round"
  class="icon icon-tabler icons-tabler-outline icon-tabler-cpu-off"
 color="#2563eb" role="img" aria-labelledby="tabler-cpu-off-title tabler-cpu-off-desc">
  <title id="tabler-cpu-off-title">cpu off</title>
  <desc id="tabler-cpu-off-desc">开发工具 - Tabler Icons - cpu-off - MIT</desc>
  <path stroke="none" d="M0 0h24v24H0z" fill="none" />
  <path fill="currentColor" d="M9 5h9a1 1 0 0 1 1 1v9m-.292 3.706a1 1 0 0 1 -.708 .294h-12a1 1 0 0 1 -1 -1v-12c0 -.272 .108 -.518 .284 -.698" />
  <path fill="currentColor" d="M13 9h2v2m0 4h-6v-6" />
  <path fill="currentColor" d="M3 10h2" />
  <path fill="currentColor" d="M3 14h2" />
  <path fill="currentColor" d="M10 3v2" />
  <path fill="currentColor" d="M14 3v2" />
  <path fill="currentColor" d="M21 10h-2" />
  <path fill="currentColor" d="M21 14h-2" />
  <path fill="currentColor" d="M14 21v-2" />
  <path fill="currentColor" d="M10 21v-2" />
  <path fill="currentColor" d="M3 3l18 18" />
</svg>