<svg
  xmlns="http://www.w3.org/2000/svg"
  width="24"
  height="24"
  viewBox="0 0 24 24"
  fill="none"
  stroke="currentColor"
  stroke-width="2"
  stroke-linecap="round"
  stroke-linejoin="round"
  class="icon icon-tabler icons-tabler-outline icon-tabler-git-merge"
 color="#2563eb" role="img" aria-labelledby="tabler-git-merge-title tabler-git-merge-desc">
  <title id="tabler-git-merge-title">git merge</title>
  <desc id="tabler-git-merge-desc">开发工具 - Tabler Icons - git-merge - MIT</desc>
  <path stroke="none" d="M0 0h24v24H0z" fill="none" />
  <path fill="currentColor" d="M5 18a2 2 0 1 0 4 0a2 2 0 1 0 -4 0" />
  <path fill="currentColor" d="M5 6a2 2 0 1 0 4 0a2 2 0 1 0 -4 0" />
  <path fill="currentColor" d="M15 12a2 2 0 1 0 4 0a2 2 0 1 0 -4 0" />
  <path fill="currentColor" d="M7 8l0 8" />
  <path fill="currentColor" d="M7 8a4 4 0 0 0 4 4h4" />
</svg>