<svg
  xmlns="http://www.w3.org/2000/svg"
  width="24"
  height="24"
  viewBox="0 0 24 24"
  fill="none"
  stroke="currentColor"
  stroke-width="2"
  stroke-linecap="round"
  stroke-linejoin="round"
  class="icon icon-tabler icons-tabler-outline icon-tabler-braces"
 color="#2563eb" role="img" aria-labelledby="tabler-braces-title tabler-braces-desc">
  <title id="tabler-braces-title">braces</title>
  <desc id="tabler-braces-desc">开发工具 - Tabler Icons - braces - MIT</desc>
  <path stroke="none" d="M0 0h24v24H0z" fill="none" />
  <path fill="currentColor" d="M7 4a2 2 0 0 0 -2 2v3a2 3 0 0 1 -2 3a2 3 0 0 1 2 3v3a2 2 0 0 0 2 2" />
  <path fill="currentColor" d="M17 4a2 2 0 0 1 2 2v3a2 3 0 0 0 2 3a2 3 0 0 0 -2 3v3a2 2 0 0 1 -2 2" />
</svg>