<svg
  xmlns="http://www.w3.org/2000/svg"
  width="24"
  height="24"
  viewBox="0 0 24 24"
  fill="none"
  stroke="currentColor"
  stroke-width="2"
  stroke-linecap="round"
  stroke-linejoin="round"
  class="icon icon-tabler icons-tabler-outline icon-tabler-cpu-2"
 color="#2563eb" role="img" aria-labelledby="tabler-cpu-2-title tabler-cpu-2-desc">
  <title id="tabler-cpu-2-title">cpu 2</title>
  <desc id="tabler-cpu-2-desc">开发工具 - Tabler Icons - cpu-2 - MIT</desc>
  <path stroke="none" d="M0 0h24v24H0z" fill="none" />
  <path fill="currentColor" d="M5 6a1 1 0 0 1 1 -1h12a1 1 0 0 1 1 1v12a1 1 0 0 1 -1 1h-12a1 1 0 0 1 -1 -1l0 -12" />
  <path fill="currentColor" d="M8 10v-2h2m6 6v2h-2m-4 0h-2v-2m8 -4v-2h-2" />
  <path fill="currentColor" d="M3 10h2" />
  <path fill="currentColor" d="M3 14h2" />
  <path fill="currentColor" d="M10 3v2" />
  <path fill="currentColor" d="M14 3v2" />
  <path fill="currentColor" d="M21 10h-2" />
  <path fill="currentColor" d="M21 14h-2" />
  <path fill="currentColor" d="M14 21v-2" />
  <path fill="currentColor" d="M10 21v-2" />
</svg>