<svg
  xmlns="http://www.w3.org/2000/svg"
  width="24"
  height="24"
  viewBox="0 0 24 24"
  fill="none"
  stroke="currentColor"
  stroke-width="2"
  stroke-linecap="round"
  stroke-linejoin="round"
  class="icon icon-tabler icons-tabler-outline icon-tabler-poker-chip"
 color="#2563eb" role="img" aria-labelledby="tabler-poker-chip-title tabler-poker-chip-desc">
  <title id="tabler-poker-chip-title">poker chip</title>
  <desc id="tabler-poker-chip-desc">开发工具 - Tabler Icons - poker-chip - MIT</desc>
  <path stroke="none" d="M0 0h24v24H0z" fill="none" />
  <path fill="currentColor" d="M3 12a9 9 0 1 0 18 0a9 9 0 1 0 -18 0" />
  <path fill="currentColor" d="M7 12a5 5 0 1 0 10 0a5 5 0 1 0 -10 0" />
  <path fill="currentColor" d="M12 3v4" />
  <path fill="currentColor" d="M12 17v4" />
  <path fill="currentColor" d="M3 12h4" />
  <path fill="currentColor" d="M17 12h4" />
  <path fill="currentColor" d="M18.364 5.636l-2.828 2.828" />
  <path fill="currentColor" d="M8.464 15.536l-2.828 2.828" />
  <path fill="currentColor" d="M5.636 5.636l2.828 2.828" />
  <path fill="currentColor" d="M15.536 15.536l2.828 2.828" />
</svg>