<svg xmlns="http://www.w3.org/2000/svg" width="8" height="8" viewBox="0 0 8 8" color="#2563eb" role="img" aria-labelledby="open-iconic-heart-title open-iconic-heart-desc">
  <title id="open-iconic-heart-title">heart</title>
  <desc id="open-iconic-heart-desc">医疗安全 - Open Iconic - heart - MIT</desc>
  <path fill="currentColor" d="M2 0c-.55 0-1.04.23-1.41.59-.36.36-.59.85-.59 1.41 0 .55.23 1.04.59 1.41l3.41 3.41 3.41-3.41c.36-.36.59-.85.59-1.41 0-.55-.23-1.04-.59-1.41-.36-.36-.85-.59-1.41-.59-.55 0-1.04.23-1.41.59-.36.36-.59.85-.59 1.41 0-.55-.23-1.04-.59-1.41-.36-.36-.85-.59-1.41-.59z"
  transform="translate(0 1)" />
</svg>