<svg
  xmlns="http://www.w3.org/2000/svg"
  width="24"
  height="24"
  viewBox="0 0 24 24"
  fill="none"
  stroke="currentColor"
  stroke-width="2"
  stroke-linecap="round"
  stroke-linejoin="round"
  class="icon icon-tabler icons-tabler-outline icon-tabler-truck-return"
 color="#2563eb" role="img" aria-labelledby="tabler-truck-return-title tabler-truck-return-desc">
  <title id="tabler-truck-return-title">truck return</title>
  <desc id="tabler-truck-return-desc">交通设施 - Tabler Icons - truck-return - MIT</desc>
  <path stroke="none" d="M0 0h24v24H0z" fill="none" />
  <path fill="currentColor" d="M5 17a2 2 0 1 0 4 0a2 2 0 1 0 -4 0" />
  <path fill="currentColor" d="M15 17a2 2 0 1 0 4 0a2 2 0 1 0 -4 0" />
  <path fill="currentColor" d="M5 17h-2v-11a1 1 0 0 1 1 -1h9v6h-5l2 2m0 -4l-2 2" />
  <path fill="currentColor" d="M9 17l6 0" />
  <path fill="currentColor" d="M13 6h5l3 5v6h-2" />
</svg>