<svg
  xmlns="http://www.w3.org/2000/svg"
  width="24"
  height="24"
  viewBox="0 0 24 24"
  fill="none"
  stroke="currentColor"
  stroke-width="2"
  stroke-linecap="round"
  stroke-linejoin="round"
  class="icon icon-tabler icons-tabler-outline icon-tabler-bus"
 color="#2563eb" role="img" aria-labelledby="tabler-bus-title tabler-bus-desc">
  <title id="tabler-bus-title">bus</title>
  <desc id="tabler-bus-desc">交通设施 - Tabler Icons - bus - MIT</desc>
  <path stroke="none" d="M0 0h24v24H0z" fill="none" />
  <path fill="currentColor" d="M4 17a2 2 0 1 0 4 0a2 2 0 1 0 -4 0" />
  <path fill="currentColor" d="M16 17a2 2 0 1 0 4 0a2 2 0 1 0 -4 0" />
  <path fill="currentColor" d="M4 17h-2v-11a1 1 0 0 1 1 -1h14a5 7 0 0 1 5 7v5h-2m-4 0h-8" />
  <path fill="currentColor" d="M16 5l1.5 7l4.5 0" />
  <path fill="currentColor" d="M2 10l15 0" />
  <path fill="currentColor" d="M7 5l0 5" />
  <path fill="currentColor" d="M12 5l0 5" />
</svg>