<svg
  xmlns="http://www.w3.org/2000/svg"
  width="24"
  height="24"
  viewBox="0 0 24 24"
  fill="none"
  stroke="currentColor"
  stroke-width="2"
  stroke-linecap="round"
  stroke-linejoin="round"
  class="icon icon-tabler icons-tabler-outline icon-tabler-barrier-block"
 color="#2563eb" role="img" aria-labelledby="tabler-barrier-block-title tabler-barrier-block-desc">
  <title id="tabler-barrier-block-title">barrier block</title>
  <desc id="tabler-barrier-block-desc">交通设施 - Tabler Icons - barrier-block - MIT</desc>
  <path stroke="none" d="M0 0h24v24H0z" fill="none" />
  <path fill="currentColor" d="M4 8a1 1 0 0 1 1 -1h14a1 1 0 0 1 1 1v7a1 1 0 0 1 -1 1h-14a1 1 0 0 1 -1 -1l0 -7" />
  <path fill="currentColor" d="M7 16v4" />
  <path fill="currentColor" d="M7.5 16l9 -9" />
  <path fill="currentColor" d="M13.5 16l6.5 -6.5" />
  <path fill="currentColor" d="M4 13.5l6.5 -6.5" />
  <path fill="currentColor" d="M17 16v4" />
  <path fill="currentColor" d="M5 20h4" />
  <path fill="currentColor" d="M15 20h4" />
  <path fill="currentColor" d="M17 7v-2" />
  <path fill="currentColor" d="M7 7v-2" />
</svg>