<svg
  xmlns="http://www.w3.org/2000/svg"
  width="24"
  height="24"
  viewBox="0 0 24 24"
  fill="none"
  stroke="currentColor"
  stroke-width="2"
  stroke-linecap="round"
  stroke-linejoin="round"
  class="icon icon-tabler icons-tabler-outline icon-tabler-car-4wd"
 color="#2563eb" role="img" aria-labelledby="tabler-car-4wd-title tabler-car-4wd-desc">
  <title id="tabler-car-4wd-title">car 4wd</title>
  <desc id="tabler-car-4wd-desc">交通设施 - Tabler Icons - car-4wd - MIT</desc>
  <path stroke="none" d="M0 0h24v24H0z" fill="none" />
  <path fill="currentColor" d="M5 5a2 2 0 0 1 2 -2a2 2 0 0 1 2 2v2a2 2 0 0 1 -2 2a2 2 0 0 1 -2 -2l0 -2" />
  <path fill="currentColor" d="M5 17a2 2 0 0 1 2 -2a2 2 0 0 1 2 2v2a2 2 0 0 1 -2 2a2 2 0 0 1 -2 -2l0 -2" />
  <path fill="currentColor" d="M15 5a2 2 0 0 1 2 -2a2 2 0 0 1 2 2v2a2 2 0 0 1 -2 2a2 2 0 0 1 -2 -2l0 -2" />
  <path fill="currentColor" d="M15 17a2 2 0 0 1 2 -2a2 2 0 0 1 2 2v2a2 2 0 0 1 -2 2a2 2 0 0 1 -2 -2l0 -2" />
  <path fill="currentColor" d="M9 18h6" />
  <path fill="currentColor" d="M9 6h6" />
  <path fill="currentColor" d="M12 6.5v-.5v12" />
</svg>