<svg
  xmlns="http://www.w3.org/2000/svg"
  width="24"
  height="24"
  viewBox="0 0 24 24"
  fill="none"
  stroke="currentColor"
  stroke-width="2"
  stroke-linecap="round"
  stroke-linejoin="round"
  class="icon icon-tabler icons-tabler-outline icon-tabler-bike-off"
 color="#2563eb" role="img" aria-labelledby="tabler-bike-off-title tabler-bike-off-desc">
  <title id="tabler-bike-off-title">bike off</title>
  <desc id="tabler-bike-off-desc">交通设施 - Tabler Icons - bike-off - MIT</desc>
  <path stroke="none" d="M0 0h24v24H0z" fill="none" />
  <path fill="currentColor" d="M2 18a3 3 0 1 0 6 0a3 3 0 1 0 -6 0" />
  <path fill="currentColor" d="M16.437 16.44a3 3 0 0 0 4.123 4.123m1.44 -2.563a3 3 0 0 0 -3 -3" />
  <path fill="currentColor" d="M12 19v-4l-3 -3l1.665 -1.332m2.215 -1.772l1.12 -.896l2 3h3" />
  <path fill="currentColor" d="M16 5a1 1 0 1 0 2 0a1 1 0 1 0 -2 0" />
  <path fill="currentColor" d="M3 3l18 18" />
</svg>