<svg
  xmlns="http://www.w3.org/2000/svg"
  width="24"
  height="24"
  viewBox="0 0 24 24"
  fill="none"
  stroke="currentColor"
  stroke-width="2"
  stroke-linecap="round"
  stroke-linejoin="round"
  class="icon icon-tabler icons-tabler-outline icon-tabler-ship-off"
 color="#2563eb" role="img" aria-labelledby="tabler-ship-off-title tabler-ship-off-desc">
  <title id="tabler-ship-off-title">ship off</title>
  <desc id="tabler-ship-off-desc">交通设施 - Tabler Icons - ship-off - MIT</desc>
  <path stroke="none" d="M0 0h24v24H0z" fill="none" />
  <path fill="currentColor" d="M2 20a2.4 2.4 0 0 0 2 1a2.4 2.4 0 0 0 2 -1a2.4 2.4 0 0 1 2 -1a2.4 2.4 0 0 1 2 1a2.4 2.4 0 0 0 2 1a2.4 2.4 0 0 0 2 -1a2.4 2.4 0 0 1 2 -1a2.4 2.4 0 0 1 2 1a2.4 2.4 0 0 0 2 1a2.4 2.4 0 0 0 2 -1" />
  <path fill="currentColor" d="M4 18l-1 -5h10m4 0h4l-1.334 2.668" />
  <path fill="currentColor" d="M5 13v-6h2m4 0h2l4 6" />
  <path fill="currentColor" d="M3 3l18 18" />
</svg>