<svg xmlns="http://www.w3.org/2000/svg" width="24" height="24" viewBox="0 0 24 24" color="#2563eb" role="img" aria-labelledby="primer-octicons-device-camera-title primer-octicons-device-camera-desc">
  <title id="primer-octicons-device-camera-title">device camera</title>
  <desc id="primer-octicons-device-camera-desc">媒体素材 - Primer Octicons - device-camera - MIT</desc><path fill="currentColor" d="M21.333 5.333c.734 0 1.334.6 1.334 1.334v12c0 .733-.6 1.333-1.334 1.333H2.667c-.734 0-1.334-.6-1.334-1.333v-12c0-.734.6-1.334 1.334-1.334C2.667 4.6 3.267 4 4 4h5.333c.734 0 1.334.6 1.334 1.333h10.666Zm-6 12A4.655 4.655 0 0 0 20 12.667 4.655 4.655 0 0 0 15.333 8a4.655 4.655 0 0 0-4.666 4.667 4.655 4.655 0 0 0 4.666 4.666Zm3.334-4.666A3.343 3.343 0 0 1 15.333 16 3.352 3.352 0 0 1 12 12.667a3.352 3.352 0 0 1 3.333-3.334 3.352 3.352 0 0 1 3.334 3.334ZM9.333 8V6.667H4V8h5.333Z"/></svg>