<svg xmlns="http://www.w3.org/2000/svg" width="16" height="16" fill="none" viewBox="0 0 16 16" color="#2563eb" role="img" aria-labelledby="gravity-ui-dice-2-title gravity-ui-dice-2-desc">
  <title id="gravity-ui-dice-2-title">dice 2</title>
  <desc id="gravity-ui-dice-2-desc">冷热能源 - Gravity UI Icons - dice-2 - MIT</desc><path fill="currentColor" fill-rule="evenodd" d="M11.5 3h-7A1.5 1.5 0 0 0 3 4.5v7A1.5 1.5 0 0 0 4.5 13h7a1.5 1.5 0 0 0 1.5-1.5v-7A1.5 1.5 0 0 0 11.5 3m-7-1.5a3 3 0 0 0-3 3v7a3 3 0 0 0 3 3h7a3 3 0 0 0 3-3v-7a3 3 0 0 0-3-3zM11.15 6a1.15 1.15 0 1 1-2.3 0 1.15 1.15 0 0 1 2.3 0M6 11.15a1.15 1.15 0 1 0 0-2.3 1.15 1.15 0 0 0 0 2.3" clip-rule="evenodd"/></svg>