<svg width="24" height="24" viewBox="0 0 16 16" xmlns="http://www.w3.org/2000/svg" color="#2563eb" role="img" aria-labelledby="person-account-title person-account-desc">
  <title id="person-account-title">Person Account</title>
  <desc id="person-account-desc">协作通信 - person_account, 16px regular</desc><path fill="currentColor" d="M12.5 7c.83 0 1.5.67 1.5 1.5V9h.5c.83 0 1.5.67 1.5 1.5v4c0 .83-.67 1.5-1.5 1.5h-6A1.5 1.5 0 0 1 7 14.5v-4C7 9.67 7.67 9 8.5 9H9v-.5c0-.83.67-1.5 1.5-1.5h2Zm-2 1a.5.5 0 0 0-.5.5V9h3v-.5a.5.5 0 0 0-.5-.5h-2Zm-2.46.04A2.5 2.5 0 0 0 6.5 9h-3a.5.5 0 0 0-.5.5v.5c0 1.24 1.06 2.57 3 2.91v1.02c-2.53-.38-4-2.18-4-3.93v-.5C2 8.67 2.67 8 3.5 8h4.55v.04ZM7 1.5A2.75 2.75 0 1 1 7 7a2.75 2.75 0 0 1 0-5.5Zm0 1A1.75 1.75 0 1 0 7 6a1.75 1.75 0 0 0 0-3.5Z"/></svg>