<svg
  xmlns="http://www.w3.org/2000/svg"
  width="24"
  height="24"
  viewBox="0 0 24 24"
  fill="none"
  stroke="currentColor"
  stroke-width="2"
  stroke-linecap="round"
  stroke-linejoin="round"
  class="icon icon-tabler icons-tabler-outline icon-tabler-photo-video"
 color="#2563eb" role="img" aria-labelledby="tabler-photo-video-title tabler-photo-video-desc">
  <title id="tabler-photo-video-title">photo video</title>
  <desc id="tabler-photo-video-desc">媒体素材 - Tabler Icons - photo-video - MIT</desc>
  <path stroke="none" d="M0 0h24v24H0z" fill="none" />
  <path fill="currentColor" d="M9 15h-3a3 3 0 0 1 -3 -3v-6a3 3 0 0 1 3 -3h6a3 3 0 0 1 3 3v3" />
  <path fill="currentColor" d="M9 12a3 3 0 0 1 3 -3h6a3 3 0 0 1 3 3v6a3 3 0 0 1 -3 3h-6a3 3 0 0 1 -3 -3l0 -6" />
  <path fill="currentColor" d="M3 12l2.296 -2.296a2.41 2.41 0 0 1 3.408 0l.296 .296" />
  <path fill="currentColor" d="M14 13.5v3l2.5 -1.5l-2.5 -1.5" />
  <path fill="currentColor" d="M7 6v.01" />
</svg>