<svg
  xmlns="http://www.w3.org/2000/svg"
  width="24"
  height="24"
  viewBox="0 0 24 24"
  fill="none"
  stroke="currentColor"
  stroke-width="2"
  stroke-linecap="round"
  stroke-linejoin="round"
  class="icon icon-tabler icons-tabler-outline icon-tabler-image-in-picture"
 color="#2563eb" role="img" aria-labelledby="tabler-image-in-picture-title tabler-image-in-picture-desc">
  <title id="tabler-image-in-picture-title">image in picture</title>
  <desc id="tabler-image-in-picture-desc">媒体素材 - Tabler Icons - image-in-picture - MIT</desc>
  <path stroke="none" d="M0 0h24v24H0z" fill="none" />
  <path fill="currentColor" d="M13 15c-2 0 -5 1 -5 5" />
  <path fill="currentColor" d="M4 13a2 2 0 0 1 2 -2h5a2 2 0 0 1 2 2v5a2 2 0 0 1 -2 2h-5a2 2 0 0 1 -2 -2l0 -5" />
  <path fill="currentColor" d="M4 7v-2a1 1 0 0 1 1 -1h2" />
  <path fill="currentColor" d="M11 4h2" />
  <path fill="currentColor" d="M17 4h2a1 1 0 0 1 1 1v2" />
  <path fill="currentColor" d="M20 11v2" />
  <path fill="currentColor" d="M20 17v2a1 1 0 0 1 -1 1h-2" />
</svg>