<svg
  xmlns="http://www.w3.org/2000/svg"
  width="24"
  height="24"
  viewBox="0 0 24 24"
  fill="none"
  stroke="currentColor"
  stroke-width="2"
  stroke-linecap="round"
  stroke-linejoin="round"
  class="icon icon-tabler icons-tabler-outline icon-tabler-camera"
 color="#2563eb" role="img" aria-labelledby="tabler-camera-title tabler-camera-desc">
  <title id="tabler-camera-title">camera</title>
  <desc id="tabler-camera-desc">媒体素材 - Tabler Icons - camera - MIT</desc>
  <path stroke="none" d="M0 0h24v24H0z" fill="none" />
  <path fill="currentColor" d="M5 7h1a2 2 0 0 0 2 -2a1 1 0 0 1 1 -1h6a1 1 0 0 1 1 1a2 2 0 0 0 2 2h1a2 2 0 0 1 2 2v9a2 2 0 0 1 -2 2h-14a2 2 0 0 1 -2 -2v-9a2 2 0 0 1 2 -2" />
  <path fill="currentColor" d="M9 13a3 3 0 1 0 6 0a3 3 0 0 0 -6 0" />
</svg>