<svg
  xmlns="http://www.w3.org/2000/svg"
  width="24"
  height="24"
  viewBox="0 0 24 24"
  fill="none"
  stroke="currentColor"
  stroke-width="2"
  stroke-linecap="round"
  stroke-linejoin="round"
  class="icon icon-tabler icons-tabler-outline icon-tabler-paint-off"
 color="#2563eb" role="img" aria-labelledby="tabler-paint-off-title tabler-paint-off-desc">
  <title id="tabler-paint-off-title">paint off</title>
  <desc id="tabler-paint-off-desc">媒体素材 - Tabler Icons - paint-off - MIT</desc>
  <path stroke="none" d="M0 0h24v24H0z" fill="none" />
  <path fill="currentColor" d="M7 3h10a2 2 0 0 1 2 2v2a2 2 0 0 1 -2 2h-4m-4 0h-2a2 2 0 0 1 -2 -2v-2" />
  <path fill="currentColor" d="M19 6h1a2 2 0 0 1 2 2a5 5 0 0 1 -5 5m-4 0h-1v2" />
  <path fill="currentColor" d="M10 16a1 1 0 0 1 1 -1h2a1 1 0 0 1 1 1v4a1 1 0 0 1 -1 1h-2a1 1 0 0 1 -1 -1l0 -4" />
  <path fill="currentColor" d="M3 3l18 18" />
</svg>