<svg
  xmlns="http://www.w3.org/2000/svg"
  width="24"
  height="24"
  viewBox="0 0 24 24"
  fill="none"
  stroke="currentColor"
  stroke-width="2"
  stroke-linecap="round"
  stroke-linejoin="round"
  class="icon icon-tabler icons-tabler-outline icon-tabler-camera-ai"
 color="#2563eb" role="img" aria-labelledby="tabler-camera-ai-title tabler-camera-ai-desc">
  <title id="tabler-camera-ai-title">camera ai</title>
  <desc id="tabler-camera-ai-desc">媒体素材 - Tabler Icons - camera-ai - MIT</desc>
  <path stroke="none" d="M0 0h24v24H0z" fill="none" />
  <path fill="currentColor" d="M10 20h-5a2 2 0 0 1 -2 -2v-9a2 2 0 0 1 2 -2h1a2 2 0 0 0 2 -2a1 1 0 0 1 1 -1h6a1 1 0 0 1 1 1a2 2 0 0 0 2 2h1a2 2 0 0 1 2 2v2" />
  <path fill="currentColor" d="M14.362 11.15a3 3 0 1 0 -4.144 4.263" />
  <path fill="currentColor" d="M14 21v-4a2 2 0 1 1 4 0v4" />
  <path fill="currentColor" d="M14 19h4" />
  <path fill="currentColor" d="M21 15v6" />
</svg>