<svg
  xmlns="http://www.w3.org/2000/svg"
  width="24"
  height="24"
  viewBox="0 0 24 24"
  fill="none"
  stroke="currentColor"
  stroke-width="2"
  stroke-linecap="round"
  stroke-linejoin="round"
  class="icon icon-tabler icons-tabler-outline icon-tabler-photo"
 color="#2563eb" role="img" aria-labelledby="tabler-photo-title tabler-photo-desc">
  <title id="tabler-photo-title">photo</title>
  <desc id="tabler-photo-desc">媒体素材 - Tabler Icons - photo - MIT</desc>
  <path stroke="none" d="M0 0h24v24H0z" fill="none" />
  <path fill="currentColor" d="M15 8h.01" />
  <path fill="currentColor" d="M3 6a3 3 0 0 1 3 -3h12a3 3 0 0 1 3 3v12a3 3 0 0 1 -3 3h-12a3 3 0 0 1 -3 -3v-12" />
  <path fill="currentColor" d="M3 16l5 -5c.928 -.893 2.072 -.893 3 0l5 5" />
  <path fill="currentColor" d="M14 14l1 -1c.928 -.893 2.072 -.893 3 0l3 3" />
</svg>