<svg xmlns="http://www.w3.org/2000/svg" id="mdi-printer-settings" viewBox="0 0 24 24" color="#2563eb" role="img" aria-labelledby="material-design-icons-printer-settings-title material-design-icons-printer-settings-desc">
  <title id="material-design-icons-printer-settings-title">printer settings</title>
  <desc id="material-design-icons-printer-settings-desc">变电环节 - Material Design Icons - printer-settings - Apache-2.0</desc><path fill="currentColor" d="M18,2V6H6V2H18M19,11A1,1 0 0,0 20,10A1,1 0 0,0 19,9A1,1 0 0,0 18,10A1,1 0 0,0 19,11M16,18V13H8V18H16M19,7A3,3 0 0,1 22,10V16H18V20H6V16H2V10A3,3 0 0,1 5,7H19M15,24V22H17V24H15M11,24V22H13V24H11M7,24V22H9V24H7Z" /></svg>