<svg xmlns="http://www.w3.org/2000/svg" width="24" height="24" viewBox="0 0 24 24" color="#2563eb" role="img" aria-labelledby="boxicons-grid-alt-title boxicons-grid-alt-desc">
  <title id="boxicons-grid-alt-title">grid alt</title>
  <desc id="boxicons-grid-alt-desc">画布工具 - Boxicons - grid-alt - (CC-BY-4.0 OR OFL-1.1 OR MIT)</desc><path fill="currentColor" d="M10 3H4a1 1 0 0 0-1 1v6a1 1 0 0 0 1 1h6a1 1 0 0 0 1-1V4a1 1 0 0 0-1-1zM9 9H5V5h4v4zm5 2h6a1 1 0 0 0 1-1V4a1 1 0 0 0-1-1h-6a1 1 0 0 0-1 1v6a1 1 0 0 0 1 1zm1-6h4v4h-4V5zM3 20a1 1 0 0 0 1 1h6a1 1 0 0 0 1-1v-6a1 1 0 0 0-1-1H4a1 1 0 0 0-1 1v6zm2-5h4v4H5v-4zm8 5a1 1 0 0 0 1 1h6a1 1 0 0 0 1-1v-6a1 1 0 0 0-1-1h-6a1 1 0 0 0-1 1v6zm2-5h4v4h-4v-4z"/></svg>