<svg xmlns="http://www.w3.org/2000/svg" width="24" height="24" viewBox="0 0 24 24" color="#2563eb" role="img" aria-labelledby="boxicons-zoom-out-title boxicons-zoom-out-desc">
  <title id="boxicons-zoom-out-title">zoom out</title>
  <desc id="boxicons-zoom-out-desc">画布工具 - Boxicons - zoom-out - (CC-BY-4.0 OR OFL-1.1 OR MIT)</desc><path fill="currentColor" d="M6 9h8v2H6z"/><path fill="currentColor" d="M10 18a7.952 7.952 0 0 0 4.897-1.688l4.396 4.396 1.414-1.414-4.396-4.396A7.952 7.952 0 0 0 18 10c0-4.411-3.589-8-8-8s-8 3.589-8 8 3.589 8 8 8zm0-14c3.309 0 6 2.691 6 6s-2.691 6-6 6-6-2.691-6-6 2.691-6 6-6z"/></svg>