<svg width="24" height="24" fill="none" viewBox="0 0 24 24" stroke-width="1.5" stroke="currentColor" stroke-linecap="round" stroke-linejoin="round" xmlns="http://www.w3.org/2000/svg" color="#2563eb" role="img" aria-labelledby="mynaui-bookmark-user-title mynaui-bookmark-user-desc">
  <title id="mynaui-bookmark-user-title">bookmark user</title>
  <desc id="mynaui-bookmark-user-desc">协作通信 - Mynaui Icons - bookmark-user - MIT</desc><path fill="currentColor" d="M7.527 20.841C6.861 21.274 6 20.772 6 19.952V3.942c0-.52.336-.942.75-.942h10.5c.414 0 .75.422.75.942v16.01c0 .82-.861 1.322-1.527.89l-3.946-2.562a.96.96 0 0 0-1.054 0z"/><path fill="currentColor" d="M15 14c0-3.861-6-3.861-6 0"/><path fill="currentColor" d="M12 11a2 2 0 1 0 0-4 2 2 0 0 0 0 4"/></svg>