<svg width="24" height="24" fill="none" viewBox="0 0 24 24" stroke-width="1.5" stroke="currentColor" stroke-linecap="round" stroke-linejoin="round" xmlns="http://www.w3.org/2000/svg" color="#2563eb" role="img" aria-labelledby="mynaui-user-diamond-title mynaui-user-diamond-desc">
  <title id="mynaui-user-diamond-title">user diamond</title>
  <desc id="mynaui-user-diamond-desc">协作通信 - Mynaui Icons - user-diamond - MIT</desc><path fill="currentColor" d="M2.707 10.295a2.41 2.41 0 0 0 0 3.41l7.588 7.588a2.41 2.41 0 0 0 3.41 0l7.588-7.588a2.41 2.41 0 0 0 0-3.41l-7.588-7.588a2.41 2.41 0 0 0-3.41 0z"/><path fill="currentColor" d="M14.5 9.25a2.5 2.5 0 1 1-5 0 2.5 2.5 0 0 1 5 0M16.809 18c-1.275-4.565-8.272-4.587-9.6-.063"/></svg>