<svg xmlns="http://www.w3.org/2000/svg" width="16" height="16" fill="currentColor" class="bi bi-clock" viewBox="0 0 16 16" color="#2563eb" role="img" aria-labelledby="bootstrap-clock-title bootstrap-clock-desc">
  <title id="bootstrap-clock-title">clock</title>
  <desc id="bootstrap-clock-desc">办公效率 - Bootstrap Icons - clock - MIT</desc>
  <path fill="currentColor" d="M8 3.5a.5.5 0 0 0-1 0V9a.5.5 0 0 0 .252.434l3.5 2a.5.5 0 0 0 .496-.868L8 8.71z"/>
  <path fill="currentColor" d="M8 16A8 8 0 1 0 8 0a8 8 0 0 0 0 16m7-8A7 7 0 1 1 1 8a7 7 0 0 1 14 0"/>
</svg>