<?xml version="1.0" encoding="UTF-8"?>
<svg xmlns="http://www.w3.org/2000/svg" viewBox="0 0 64 64" width="64" height="64" color="#0284c7" role="img" aria-labelledby="wind-power-forecast-title wind-power-forecast-desc">
  <title id="wind-power-forecast-title">风功率预测</title>
  <desc id="wind-power-forecast-desc">风电细分设备 - 复用 能源通用 / forecast-lightning</desc>
  <g transform="translate(8 8) scale(1.5)">
<path fill="currentColor" d="M15.67 24 13.934 23 16.221 19 12.332 19 16.325 12 18.062 13 15.778 17 19.668 17 15.67 24z"/><path fill="currentColor" d="M26,18A10,10,0,1,1,16,8h4v5l6-6L20,1V6H16A12,12,0,1,0,28,18Z"/>
  </g>
  <g>
<path d="M46 46h14v14H46z" fill="none" stroke="currentColor" stroke-width="2.6" stroke-linecap="round" stroke-linejoin="round"/><circle cx="54" cy="51" r="1" fill="none" stroke="currentColor" stroke-width="2.6" stroke-linecap="round" stroke-linejoin="round"/><path d="M54 51L53 53" fill="none" stroke="currentColor" stroke-width="2.6" stroke-linecap="round" stroke-linejoin="round"/><circle cx="51" cy="51" r="1.1" fill="none" stroke="currentColor" stroke-width="2.6" stroke-linecap="round" stroke-linejoin="round"/>
  </g>
</svg>
