<?xml version="1.0" encoding="UTF-8"?>
<svg xmlns="http://www.w3.org/2000/svg" viewBox="0 0 64 64" width="64" height="64" color="#0284c7" role="img" aria-labelledby="wind-collector-cable-title wind-collector-cable-desc">
  <title id="wind-collector-cable-title">集电电缆</title>
  <desc id="wind-collector-cable-desc">风电细分设备 - 复用 能源通用 / cable</desc>
  <g transform="translate(8 8) scale(2)">
<path fill="currentColor" d="M17 19a1 1 0 0 1-1-1v-2a2 2 0 0 1 2-2h2a2 2 0 0 1 2 2v2a1 1 0 0 1-1 1z" />
  <path fill="currentColor" d="M17 21v-2" />
  <path fill="currentColor" d="M19 14V6.5a1 1 0 0 0-7 0v11a1 1 0 0 1-7 0V10" />
  <path fill="currentColor" d="M21 21v-2" />
  <path fill="currentColor" d="M3 5V3" />
  <path fill="currentColor" d="M4 10a2 2 0 0 1-2-2V6a1 1 0 0 1 1-1h4a1 1 0 0 1 1 1v2a2 2 0 0 1-2 2z" />
  <path fill="currentColor" d="M7 5V3" />
  </g>
  <g>
<path d="M46 46h14v14H46z" fill="none" stroke="currentColor" stroke-width="2.6" stroke-linecap="round" stroke-linejoin="round"/><circle cx="49" cy="54" r="1.35" fill="none" stroke="currentColor" stroke-width="2.6" stroke-linecap="round" stroke-linejoin="round"/><path d="M49 54L49 49" fill="none" stroke="currentColor" stroke-width="2.6" stroke-linecap="round" stroke-linejoin="round"/><circle cx="52" cy="53" r="1.1" fill="none" stroke="currentColor" stroke-width="2.6" stroke-linecap="round" stroke-linejoin="round"/>
  </g>
</svg>
