<svg xmlns="http://www.w3.org/2000/svg" width="48" height="48" viewBox="0 -960 960 960" color="#2563eb" role="img" aria-labelledby="material-symbols-analytics-title material-symbols-analytics-desc">
  <title id="material-symbols-analytics-title">analytics</title>
  <desc id="material-symbols-analytics-desc">数据图表 - Material Symbols - analytics - Apache-2.0</desc><path fill="currentColor" d="M284-277h60v-205h-60v205Zm332 0h60v-420h-60v420Zm-166 0h60v-118h-60v118Zm0-205h60v-60h-60v60ZM180-120q-24 0-42-18t-18-42v-600q0-24 18-42t42-18h600q24 0 42 18t18 42v600q0 24-18 42t-42 18H180Zm0-60h600v-600H180v600Zm0-600v600-600Z"/></svg>