<svg xmlns="http://www.w3.org/2000/svg" width="48" height="48" viewBox="0 -960 960 960" color="#2563eb" role="img" aria-labelledby="material-symbols-multiline-chart-title material-symbols-multiline-chart-desc">
  <title id="material-symbols-multiline-chart-title">multiline chart</title>
  <desc id="material-symbols-multiline-chart-desc">数据图表 - Material Symbols - multiline_chart - Apache-2.0</desc><path fill="currentColor" d="m122-221-42-43 296-296 165 166 139-156q-60-69-135.5-108.5T378-698q-72 0-137.5 26T122-599l-42-43q62-56 137.5-86T378-758q100 0 187.5 43.5T719-594l120-136 41 44-124 141q34 51 55 115.5T842-296h-60q-6-53-23.5-103T713-497L544-307 376-475 122-221Z"/></svg>