<svg xmlns="http://www.w3.org/2000/svg" viewBox="0 0 32 32" color="#2563eb" role="img" aria-labelledby="carbon-key-values-title carbon-key-values-desc">
  <title id="carbon-key-values-title">key values</title>
  <desc id="carbon-key-values-desc">状态告警 - Carbon Icons - key-values - Apache-2.0</desc><path fill="currentColor" d="M8,7h-4v-2h4v2ZM25,5h-15v2h15v-2ZM10,10h-6v2h6v-2ZM24,10h-12v2h12v-2ZM7,15h-3v2h3v-2ZM27,15H9v2h18v-2ZM11,20h-7v2h7v-2ZM25,20h-12v2h12v-2ZM8,25h-4v2h4v-2ZM28,25H10v2h18v-2Z"/></svg>