<svg width="24" height="24" viewBox="0 0 24 24" xmlns="http://www.w3.org/2000/svg" color="#2563eb" role="img" aria-labelledby="fluent-system-info-title fluent-system-info-desc">
  <title id="fluent-system-info-title">info</title>
  <desc id="fluent-system-info-desc">状态告警 - Fluent UI System Icons - info - MIT</desc><path fill="currentColor" d="M12 2a10 10 0 1 1 0 20 10 10 0 0 1 0-20Zm0 1.5a8.5 8.5 0 1 0 0 17 8.5 8.5 0 0 0 0-17Zm0 7c.41 0 .75.34.75.75v5a.75.75 0 0 1-1.5 0v-5c0-.41.34-.75.75-.75ZM12 9a1 1 0 1 0 0-2 1 1 0 0 0 0 2Z"/></svg>