<!-- @license lucide-static v1.21.0 - ISC -->
<svg
  class="lucide lucide-trees"
  xmlns="http://www.w3.org/2000/svg"
  width="24"
  height="24"
  viewBox="0 0 24 24"
  fill="none"
  stroke="currentColor"
  stroke-width="2"
  stroke-linecap="round"
  stroke-linejoin="round"
 color="#2563eb" role="img" aria-labelledby="lucide-trees-title lucide-trees-desc">
  <title id="lucide-trees-title">trees</title>
  <desc id="lucide-trees-desc">能源通用 - Lucide - trees - ISC</desc>
  <path fill="currentColor" d="M10 10v.2A3 3 0 0 1 8.9 16H5a3 3 0 0 1-1-5.8V10a3 3 0 0 1 6 0Z" />
  <path fill="currentColor" d="M7 16v6" />
  <path fill="currentColor" d="M13 19v3" />
  <path fill="currentColor" d="M12 19h8.3a1 1 0 0 0 .7-1.7L18 14h.3a1 1 0 0 0 .7-1.7L16 9h.2a1 1 0 0 0 .8-1.7L13 3l-1.4 1.5" />
</svg>
