<svg width="24" height="24" viewBox="0 0 24 24" xmlns="http://www.w3.org/2000/svg" color="#2563eb" role="img" aria-labelledby="fluent-system-road-title fluent-system-road-desc">
  <title id="fluent-system-road-title">road</title>
  <desc id="fluent-system-road-desc">输电环节 - Fluent UI System Icons - road - MIT</desc><path fill="currentColor" d="M5.5 2.75a.75.75 0 0 0-1.5 0v18.5a.75.75 0 0 0 1.5 0V2.75Zm14.5 0a.75.75 0 0 0-1.5 0v18.5a.75.75 0 0 0 1.5 0V2.75Zm-7.25 0a.75.75 0 0 0-1.5 0v3.5a.75.75 0 0 0 1.5 0v-3.5Zm-1.5 11a.75.75 0 0 0 1.5 0v-3.5a.75.75 0 0 0-1.5 0v3.5Zm0 4a.75.75 0 0 1 1.5 0v3.5a.75.75 0 0 1-1.5 0v-3.5Z"/></svg>