<svg xmlns="http://www.w3.org/2000/svg" width="24" height="24" fill="none" viewBox="0 0 24 24" color="#2563eb" role="img" aria-labelledby="grommet-beacon-title grommet-beacon-desc">
  <title id="grommet-beacon-title">beacon</title>
  <desc id="grommet-beacon-desc">电力电子 - Grommet Icons - beacon - Apache-2.0</desc>
  <path stroke="#000" stroke-width="2" d="M12 12a3 3 0 100-6 3 3 0 000 6zm0 0v11M7.05 4.05A6.978 6.978 0 005 9c0 1.933.784 3.683 2.05 4.95m9.9 0A6.978 6.978 0 0019 9a6.978 6.978 0 00-2.05-4.95M4.222 1.222A10.966 10.966 0 001 9c0 3.037 1.231 5.787 3.222 7.778m15.556 0A10.966 10.966 0 0023 9c0-3.038-1.231-5.788-3.222-7.778"/>
</svg>
