<svg xmlns="http://www.w3.org/2000/svg" width="24" height="24" fill="currentColor" viewBox="0 0 24 24" color="#2563eb" role="img" aria-labelledby="pixelarticons-robot-face-title pixelarticons-robot-face-desc">
  <title id="pixelarticons-robot-face-title">robot face</title>
  <desc id="pixelarticons-robot-face-desc">电力电子 - Pixelarticons - robot-face - MIT</desc>
  <path fill="currentColor" d="M4 6h16v2H4zm0 14h16v2H4zM2 8h2v12H2zm18 0h2v12h-2z"/>
  <path fill="currentColor" d="M11 4h2v4h-2zm-3 6h2v2H8zm6 0h4v2h-4zm-1-8h4v2h-4zM0 12h2v2H0zm22 0h2v2h-2zm-12 4h4v2h-4zm-2-2h2v2H8zm6 0h2v2h-2z"/>
</svg>
