<svg xmlns="http://www.w3.org/2000/svg" width="24" height="24" fill="currentColor" viewBox="0 0 24 24" color="#2563eb" role="img" aria-labelledby="pixelarticons-section-copy-title pixelarticons-section-copy-desc">
  <title id="pixelarticons-section-copy-title">section copy</title>
  <desc id="pixelarticons-section-copy-desc">通用命令 - Pixelarticons - section-copy - MIT</desc>
  <path fill="currentColor" d="M9 21H7v-2h2v2Zm4 0h-2v-2h2v2Zm4 0h-2v-2h2v2Zm4 0h-2v-2h2v2ZM5 17H3v-2h2v2Zm4 0H7v-2h2v2Zm12 0h-2v-2h2v2ZM5 13H3v-2h2v2Zm4 0H7v-2h2v2Zm12 0h-2v-2h2v2ZM5 9H3V7h2v2Zm4 0H7V7h2v2Zm4 0h-2V7h2v2Zm4 0h-2V7h2v2Zm4 0h-2V7h2v2ZM5 5H3V3h2v2Zm4 0H7V3h2v2Zm4 0h-2V3h2v2Zm4 0h-2V3h2v2Z"/>
</svg>
