<svg xmlns="http://www.w3.org/2000/svg" width="24" height="24" fill="none" viewBox="0 0 24 24" color="#2563eb" role="img" aria-labelledby="flowbite-user-circle-title flowbite-user-circle-desc">
  <title id="flowbite-user-circle-title">user circle</title>
  <desc id="flowbite-user-circle-desc">协作通信 - Flowbite Icons - user-circle - MIT</desc>
  <path stroke="currentColor" stroke-linecap="round" stroke-linejoin="round" stroke-width="2" d="M12 21a9 9 0 1 0 0-18 9 9 0 0 0 0 18Zm0 0a8.949 8.949 0 0 0 4.951-1.488A3.987 3.987 0 0 0 13 16h-2a3.987 3.987 0 0 0-3.951 3.512A8.948 8.948 0 0 0 12 21Zm3-11a3 3 0 1 1-6 0 3 3 0 0 1 6 0Z"/>
</svg>
