<svg width="24" height="24" viewBox="0 0 20 20" xmlns="http://www.w3.org/2000/svg" color="#2563eb" role="img" aria-labelledby="rectangle-portrait-location-target-title rectangle-portrait-location-target-desc">
  <title id="rectangle-portrait-location-target-title">Rectangle Portrait Location Target</title>
  <desc id="rectangle-portrait-location-target-desc">地图地点 - rectangle_portrait_location_target, 20px regular</desc><path fill="currentColor" d="M4 4c0-1.1.9-2 2-2h8a2 2 0 0 1 2 2v6.27h-.02A1.5 1.5 0 0 0 15 9.09V4a1 1 0 0 0-1-1H6a1 1 0 0 0-1 1v12a1 1 0 0 0 1 1h4.78a4.5 4.5 0 0 0 .92 1H6a2 2 0 0 1-2-2V4Zm11.06 11.33a1 1 0 1 1-1.12-1.66 1 1 0 0 1 1.12 1.66ZM17.95 14h.55a.5.5 0 0 1 0 1h-.55A3.49 3.49 0 0 1 15 17.95v.55a.5.5 0 0 1-1 0v-.55A3.49 3.49 0 0 1 11.05 15h-.55a.5.5 0 0 1 0-1h.55A3.49 3.49 0 0 1 14 11.05v-.55a.5.5 0 0 1 1 0v.55A3.49 3.49 0 0 1 17.95 14Zm-3.2 2.99a2.5 2.5 0 1 0-.5-4.98 2.5 2.5 0 0 0 .5 4.98Z"/></svg>