<svg xmlns="http://www.w3.org/2000/svg" width="16" height="16" focusable="false" viewBox="0 0 16 16" color="#2563eb" role="img" aria-labelledby="zendesk-garden-clipboard-check-title zendesk-garden-clipboard-check-desc">
  <title id="zendesk-garden-clipboard-check-title">clipboard check</title>
  <desc id="zendesk-garden-clipboard-check-desc">通用命令 - Zendesk Garden Icons - clipboard-check - Apache-2.0</desc>
  <path fill="none" stroke="currentColor" stroke-linecap="round" stroke-linejoin="round" d="M4.5 2.5H2c-.28 0-.5.22-.5.5v12c0 .28.22.5.5.5h12c.28 0 .5-.22.5-.5V3c0-.28-.22-.5-.5-.5h-2.5m-6.5 8l2 2L11.5 8m-.05-3.5c.02-.16.05-.33.05-.5C11.5 2.07 9.93.5 8 .5S4.5 2.07 4.5 4c0 .17.03.34.05.5h6.9z"/>
</svg>
