<?xml version="1.0" encoding="UTF-8"?>
<svg xmlns="http://www.w3.org/2000/svg" viewBox="0 0 64 64" width="64" height="64" color="#0ea5e9" role="img" aria-labelledby="fan-coil-unit-title fan-coil-unit-desc">
  <title id="fan-coil-unit-title">风机盘管FCU</title>
  <desc id="fan-coil-unit-desc">供冷与冷源 - 复用 冷热能源 / fan</desc>
  <g transform="translate(8 8) scale(2)">
<path fill="currentColor" d="M10.827 16.379a6.082 6.082 0 0 1-8.618-7.002l5.412 1.45a6.082 6.082 0 0 1 7.002-8.618l-1.45 5.412a6.082 6.082 0 0 1 8.618 7.002l-5.412-1.45a6.082 6.082 0 0 1-7.002 8.618l1.45-5.412Z" />
  <path fill="currentColor" d="M12 12v.01" />
  </g>
  <g>
<path d="M46 46h14v14H46z" fill="none" stroke="currentColor" stroke-width="2.6" stroke-linecap="round" stroke-linejoin="round"/><circle cx="51" cy="42" r="0.65" fill="none" stroke="currentColor" stroke-width="2.6" stroke-linecap="round" stroke-linejoin="round"/><path d="M51 42L47 45" fill="none" stroke="currentColor" stroke-width="2.6" stroke-linecap="round" stroke-linejoin="round"/><circle cx="46" cy="49" r="1.1" fill="none" stroke="currentColor" stroke-width="2.6" stroke-linecap="round" stroke-linejoin="round"/>
  </g>
</svg>
