<?xml version="1.0" encoding="UTF-8"?>
<svg xmlns="http://www.w3.org/2000/svg" viewBox="0 0 64 64" width="64" height="64" color="#0ea5e9" role="img" aria-labelledby="ice-storage-tank-title ice-storage-tank-desc">
  <title id="ice-storage-tank-title">冰蓄冷罐</title>
  <desc id="ice-storage-tank-desc">供冷与冷源 - 复用 氢能储能 / storage-tank</desc>
  <g transform="translate(8 8) scale(2)">
<path fill="currentColor" d="M17 6H16V5C16 3.9 15.1 3 14 3H10C8.9 3 8 3.9 8 5V6H7C3.69 6 1 8.69 1 12S3.69 18 7 18V21H9V18H15V21H17V18C20.31 18 23 15.31 23 12S20.31 6 17 6M10 5H14V6H10V5Z" />
  </g>
  <g>
<path d="M46 46h14v14H46z" fill="none" stroke="currentColor" stroke-width="2.6" stroke-linecap="round" stroke-linejoin="round"/><circle cx="49" cy="50" r="1.35" fill="none" stroke="currentColor" stroke-width="2.6" stroke-linecap="round" stroke-linejoin="round"/><path d="M49 50L51 55" fill="none" stroke="currentColor" stroke-width="2.6" stroke-linecap="round" stroke-linejoin="round"/><circle cx="50" cy="49" r="1.1" fill="none" stroke="currentColor" stroke-width="2.6" stroke-linecap="round" stroke-linejoin="round"/>
  </g>
</svg>
