<svg xmlns="http://www.w3.org/2000/svg" viewBox="0 0 384 512" color="#2563eb" role="img" aria-labelledby="fontawesome-solid-lock-title fontawesome-solid-lock-desc">
  <title id="fontawesome-solid-lock-title">lock</title>
  <desc id="fontawesome-solid-lock-desc">状态告警 - Font Awesome Free Solid - lock - (CC-BY-4.0 AND OFL-1.1 AND MIT)</desc><!--! Font Awesome Free 7.2.0 by @fontawesome - https://fontawesome.com License - https://fontawesome.com/license/free (Icons: CC BY 4.0, Fonts: SIL OFL 1.1, Code: MIT License) Copyright 2026 Fonticons, Inc. --><path fill="currentColor" d="M128 96l0 64 128 0 0-64c0-35.3-28.7-64-64-64s-64 28.7-64 64zM64 160l0-64C64 25.3 121.3-32 192-32S320 25.3 320 96l0 64c35.3 0 64 28.7 64 64l0 224c0 35.3-28.7 64-64 64L64 512c-35.3 0-64-28.7-64-64L0 224c0-35.3 28.7-64 64-64z"/></svg>