<svg xmlns="http://www.w3.org/2000/svg" viewBox="0 0 512 512" color="#2563eb" role="img" aria-labelledby="fontawesome-solid-ban-title fontawesome-solid-ban-desc">
  <title id="fontawesome-solid-ban-title">ban</title>
  <desc id="fontawesome-solid-ban-desc">状态告警 - Font Awesome Free Solid - ban - (CC-BY-4.0 AND OFL-1.1 AND MIT)</desc><!--! Font Awesome Free 7.2.0 by @fontawesome - https://fontawesome.com License - https://fontawesome.com/license/free (Icons: CC BY 4.0, Fonts: SIL OFL 1.1, Code: MIT License) Copyright 2026 Fonticons, Inc. --><path fill="currentColor" d="M367.2 412.5L99.5 144.8c-22.4 31.4-35.5 69.8-35.5 111.2 0 106 86 192 192 192 41.5 0 79.9-13.1 111.2-35.5zm45.3-45.3c22.4-31.4 35.5-69.8 35.5-111.2 0-106-86-192-192-192-41.5 0-79.9 13.1-111.2 35.5L412.5 367.2zM0 256a256 256 0 1 1 512 0 256 256 0 1 1 -512 0z"/></svg>