<svg xmlns="http://www.w3.org/2000/svg" id="mdi-toggle-switch" viewBox="0 0 24 24" color="#2563eb" role="img" aria-labelledby="material-design-icons-toggle-switch-title material-design-icons-toggle-switch-desc">
  <title id="material-design-icons-toggle-switch-title">toggle switch</title>
  <desc id="material-design-icons-toggle-switch-desc">电力电网 - Material Design Icons - toggle-switch - Apache-2.0</desc><path fill="currentColor" d="M17,7H7A5,5 0 0,0 2,12A5,5 0 0,0 7,17H17A5,5 0 0,0 22,12A5,5 0 0,0 17,7M17,15A3,3 0 0,1 14,12A3,3 0 0,1 17,9A3,3 0 0,1 20,12A3,3 0 0,1 17,15Z" /></svg>