<svg xmlns="http://www.w3.org/2000/svg" id="mdi-electric-switch-closed" viewBox="0 0 24 24" color="#2563eb" role="img" aria-labelledby="material-design-icons-electric-switch-closed-title material-design-icons-electric-switch-closed-desc">
  <title id="material-design-icons-electric-switch-closed-title">electric switch closed</title>
  <desc id="material-design-icons-electric-switch-closed-desc">电力电网 - Material Design Icons - electric-switch-closed - Apache-2.0</desc><path fill="currentColor" d="M20.83 11A3 3 0 0 0 15.18 11H8.82A3 3 0 0 0 3.17 11H1V13H3.17A3 3 0 0 0 8.82 13H15.18A3 3 0 0 0 20.83 13H23V11M6 13A1 1 0 1 1 7 12A1 1 0 0 1 6 13M18 13A1 1 0 1 1 19 12A1 1 0 0 1 18 13Z" /></svg>