<svg
  xmlns="http://www.w3.org/2000/svg"
  width="24"
  height="24"
  viewBox="0 0 24 24"
  fill="none"
  stroke="currentColor"
  stroke-width="2"
  stroke-linecap="round"
  stroke-linejoin="round"
  class="icon icon-tabler icons-tabler-outline icon-tabler-microscope-off"
 color="#2563eb" role="img" aria-labelledby="tabler-microscope-off-title tabler-microscope-off-desc">
  <title id="tabler-microscope-off-title">microscope off</title>
  <desc id="tabler-microscope-off-desc">教育科研 - Tabler Icons - microscope-off - MIT</desc>
  <path stroke="none" d="M0 0h24v24H0z" fill="none" />
  <path fill="currentColor" d="M5 21h14" />
  <path fill="currentColor" d="M6 18h2" />
  <path fill="currentColor" d="M7 18v3" />
  <path fill="currentColor" d="M10 10l-1 1l3 3l1 -1m2 -2l3 -3l-3 -3l-3 3" />
  <path fill="currentColor" d="M10.5 12.5l-1.5 1.5" />
  <path fill="currentColor" d="M17 3l3 3" />
  <path fill="currentColor" d="M12 21a6 6 0 0 0 5.457 -3.505m.441 -3.599a6 6 0 0 0 -2.183 -3.608" />
  <path fill="currentColor" d="M3 3l18 18" />
</svg>