<svg
  xmlns="http://www.w3.org/2000/svg"
  width="24"
  height="24"
  viewBox="0 0 24 24"
  fill="none"
  stroke="currentColor"
  stroke-width="2"
  stroke-linecap="round"
  stroke-linejoin="round"
  class="icon icon-tabler icons-tabler-outline icon-tabler-slideshow"
 color="#2563eb" role="img" aria-labelledby="tabler-slideshow-title tabler-slideshow-desc">
  <title id="tabler-slideshow-title">slideshow</title>
  <desc id="tabler-slideshow-desc">教育科研 - Tabler Icons - slideshow - MIT</desc>
  <path stroke="none" d="M0 0h24v24H0z" fill="none" />
  <path fill="currentColor" d="M15 6l.01 0" />
  <path fill="currentColor" d="M3 6a3 3 0 0 1 3 -3h12a3 3 0 0 1 3 3v8a3 3 0 0 1 -3 3h-12a3 3 0 0 1 -3 -3l0 -8" />
  <path fill="currentColor" d="M3 13l4 -4a3 5 0 0 1 3 0l4 4" />
  <path fill="currentColor" d="M13 12l2 -2a3 5 0 0 1 3 0l3 3" />
  <path fill="currentColor" d="M8 21l.01 0" />
  <path fill="currentColor" d="M12 21l.01 0" />
  <path fill="currentColor" d="M16 21l.01 0" />
</svg>