<svg
  xmlns="http://www.w3.org/2000/svg"
  width="24"
  height="24"
  viewBox="0 0 24 24"
  fill="none"
  stroke="currentColor"
  stroke-width="2"
  stroke-linecap="round"
  stroke-linejoin="round"
  class="icon icon-tabler icons-tabler-outline icon-tabler-chalkboard-teacher"
 color="#2563eb" role="img" aria-labelledby="tabler-chalkboard-teacher-title tabler-chalkboard-teacher-desc">
  <title id="tabler-chalkboard-teacher-title">chalkboard teacher</title>
  <desc id="tabler-chalkboard-teacher-desc">教育科研 - Tabler Icons - chalkboard-teacher - MIT</desc>
  <path stroke="none" d="M0 0h24v24H0z" fill="none" />
  <path fill="currentColor" d="M8 19h-3a2 2 0 0 1 -2 -2v-10a2 2 0 0 1 2 -2h14a2 2 0 0 1 2 2v11a1 1 0 0 1 -1 1" />
  <path fill="currentColor" d="M12 14a2 2 0 1 0 4.001 -.001a2 2 0 0 0 -4.001 .001" />
  <path fill="currentColor" d="M17 19a2 2 0 0 0 -2 -2h-2a2 2 0 0 0 -2 2" />
</svg>