<svg xmlns="http://www.w3.org/2000/svg" width="24" height="24" viewBox="0 0 24 24" color="#2563eb" role="img" aria-labelledby="boxicons-abacus-title boxicons-abacus-desc">
  <title id="boxicons-abacus-title">abacus</title>
  <desc id="boxicons-abacus-desc">电力电子 - Boxicons - abacus - (CC-BY-4.0 OR OFL-1.1 OR MIT)</desc><path fill="currentColor" d="M2 3h2v18H2zm18 0h2v18h-2zM5 13h2v1h2v-1h2v1h2v-1h4v1h2v-4h-2v1h-4v-1h-2v1H9v-1H7v1H5zm0-9v4h2V7h8v1h2V7h2V5h-2V4h-2v1H7V4zm0 13v3h2v-1h2v1h2v-1h8v-2h-8v-1H9v1H7v-1H5z"/></svg>