<svg xmlns="http://www.w3.org/2000/svg" id="mdi-calendar-star-four-points" viewBox="0 0 24 24" color="#2563eb" role="img" aria-labelledby="material-design-icons-calendar-star-four-points-title material-design-icons-calendar-star-four-points-desc">
  <title id="material-design-icons-calendar-star-four-points-title">calendar star four points</title>
  <desc id="material-design-icons-calendar-star-four-points-desc">办公效率 - Material Design Icons - calendar-star-four-points - Apache-2.0</desc><path fill="currentColor" d="M10.74 12.25L12 9.5L13.25 12.25L16 13.5L13.25 14.76L12 17.5L10.74 14.76L8 13.5L10.74 12.25M16 3V1H18V3H19C19.53 3 20.04 3.21 20.41 3.59C20.79 3.96 21 4.47 21 5V19C21 19.53 20.79 20.04 20.41 20.41C20.04 20.79 19.53 21 19 21H5C4.47 21 3.96 20.79 3.59 20.41C3.21 20.04 3 19.53 3 19V5C3 4.47 3.21 3.96 3.59 3.59C3.96 3.21 4.47 3 5 3H6V1H8V3H16M5 8V19H19V8H5Z" /></svg>