<svg xmlns="http://www.w3.org/2000/svg" viewBox="0 0 256 256" fill="currentColor" color="#2563eb" role="img" aria-labelledby="phosphor-archive-title phosphor-archive-desc">
  <title id="phosphor-archive-title">archive</title>
  <desc id="phosphor-archive-desc">文件文档 - Phosphor Icons - archive - MIT</desc><path fill="currentColor" d="M224,48H32A16,16,0,0,0,16,64V88a16,16,0,0,0,16,16v88a16,16,0,0,0,16,16H208a16,16,0,0,0,16-16V104a16,16,0,0,0,16-16V64A16,16,0,0,0,224,48ZM208,192H48V104H208ZM224,88H32V64H224V88ZM96,136a8,8,0,0,1,8-8h48a8,8,0,0,1,0,16H104A8,8,0,0,1,96,136Z"/></svg>