<svg xmlns="http://www.w3.org/2000/svg" viewBox="0 0 256 256" fill="currentColor" color="#2563eb" role="img" aria-labelledby="phosphor-notebook-title phosphor-notebook-desc">
  <title id="phosphor-notebook-title">notebook</title>
  <desc id="phosphor-notebook-desc">文件文档 - Phosphor Icons - notebook - MIT</desc><path fill="currentColor" d="M184,112a8,8,0,0,1-8,8H112a8,8,0,0,1,0-16h64A8,8,0,0,1,184,112Zm-8,24H112a8,8,0,0,0,0,16h64a8,8,0,0,0,0-16Zm48-88V208a16,16,0,0,1-16,16H48a16,16,0,0,1-16-16V48A16,16,0,0,1,48,32H208A16,16,0,0,1,224,48ZM48,208H72V48H48Zm160,0V48H88V208H208Z"/></svg>