<svg xmlns="http://www.w3.org/2000/svg" viewBox="0 0 256 256" fill="currentColor" color="#2563eb" role="img" aria-labelledby="phosphor-chart-bar-title phosphor-chart-bar-desc">
  <title id="phosphor-chart-bar-title">chart bar</title>
  <desc id="phosphor-chart-bar-desc">数据图表 - Phosphor Icons - chart-bar - MIT</desc><path fill="currentColor" d="M224,200h-8V40a8,8,0,0,0-8-8H152a8,8,0,0,0-8,8V80H96a8,8,0,0,0-8,8v40H48a8,8,0,0,0-8,8v64H32a8,8,0,0,0,0,16H224a8,8,0,0,0,0-16ZM160,48h40V200H160ZM104,96h40V200H104ZM56,144H88v56H56Z"/></svg>