<svg xmlns="http://www.w3.org/2000/svg" viewBox="0 0 32 32" color="#2563eb" role="img" aria-labelledby="carbon-traffic-flow-title carbon-traffic-flow-desc">
  <title id="carbon-traffic-flow-title">traffic flow</title>
  <desc id="carbon-traffic-flow-desc">交通设施 - Carbon Icons - traffic-flow - Apache-2.0</desc><path fill="currentColor" d="M26 8 22 4 18 8 19.41 9.42 21 7.83 21 18 23 18 23 7.83 24.58 9.41 26 8z"/><path fill="currentColor" d="M12.59 22.58 11 24.17 11 14 9 14 9 24.17 7.42 22.59 6 24 10 28 14 24 12.59 22.58z"/><path fill="currentColor" d="M2 2H4V30H2z"/><path fill="currentColor" d="M28 2H30V30H28z"/><path fill="currentColor" d="M15 2H17V6H15z"/><path fill="currentColor" d="M15 10H17V14H15z"/><path fill="currentColor" d="M15 18H17V22H15z"/><path fill="currentColor" d="M15 26H17V30H15z"/></svg>