<svg xmlns="http://www.w3.org/2000/svg" viewBox="0 0 32 32" color="#2563eb" role="img" aria-labelledby="carbon-bare-metal-server-title carbon-bare-metal-server-desc">
  <title id="carbon-bare-metal-server-title">bare metal server</title>
  <desc id="carbon-bare-metal-server-desc">云与基础设施 - Carbon Icons - bare-metal-server - Apache-2.0</desc><circle fill="currentColor" cx="9" cy="6" r="1"/><path fill="currentColor" d="M26,10H6A2.0021,2.0021,0,0,1,4,8V4A2.0021,2.0021,0,0,1,6,2H26a2.0021,2.0021,0,0,1,2,2V8A2.0021,2.0021,0,0,1,26,10ZM6,4V8H26V4Z"/><circle fill="currentColor" cx="9" cy="16" r="1"/><path fill="currentColor" d="M26,20H6a2.0021,2.0021,0,0,1-2-2V14a2.0021,2.0021,0,0,1,2-2H26a2.0021,2.0021,0,0,1,2,2v4A2.0021,2.0021,0,0,1,26,20ZM6,14v4H26V14Z"/><circle fill="currentColor" cx="9" cy="26" r="1"/><path fill="currentColor" d="M26,30H6a2.0021,2.0021,0,0,1-2-2V24a2.0021,2.0021,0,0,1,2-2H26a2.0021,2.0021,0,0,1,2,2v4A2.0021,2.0021,0,0,1,26,30ZM6,24v4H26V24Z"/></svg>