<svg xmlns="http://www.w3.org/2000/svg" viewBox="0 0 32 32" color="#2563eb" role="img" aria-labelledby="carbon-ibm-cloud-bare-metal-server-title carbon-ibm-cloud-bare-metal-server-desc">
  <title id="carbon-ibm-cloud-bare-metal-server-title">ibm cloud bare metal server</title>
  <desc id="carbon-ibm-cloud-bare-metal-server-desc">云与基础设施 - Carbon Icons - ibm-cloud-bare-metal-server - Apache-2.0</desc><circle fill="currentColor" cx="9" cy="26" r="1"/><path fill="currentColor" d="m26,30H6c-1.1041-.0012-1.9988-.8959-2-2v-4c.0012-1.1041.8959-1.9988,2-2h20c1.1041.0012,1.9988.8959,2,2v4c-.0012,1.1041-.8959,1.9988-2,2Zm-20-6v4h20v-4H6Z"/><circle fill="currentColor" cx="9" cy="16" r="1"/><path fill="currentColor" d="m26,20H6c-1.1041-.0012-1.9988-.8959-2-2v-4c.0012-1.1041.8959-1.9988,2-2h20c1.1041.0012,1.9988.8959,2,2v4c-.0012,1.1041-.8959,1.9988-2,2ZM6,14v4h20v-4H6Z"/><circle fill="currentColor" cx="9" cy="6" r="1"/><path fill="currentColor" d="m26,10H6c-1.1041-.0012-1.9988-.8959-2-2v-4c.0012-1.1041.8959-1.9988,2-2h20c1.1041.0012,1.9988.8959,2,2v4c-.0012,1.1041-.8959,1.9988-2,2ZM6,4v4h20v-4H6Z"/></svg>