<svg xmlns="http://www.w3.org/2000/svg" viewBox="0 0 32 32" color="#2563eb" role="img" aria-labelledby="carbon-cics-transaction-server-zos-title carbon-cics-transaction-server-zos-desc">
  <title id="carbon-cics-transaction-server-zos-title">cics transaction server zos</title>
  <desc id="carbon-cics-transaction-server-zos-desc">云与基础设施 - Carbon Icons - cics-transaction-server-zos - Apache-2.0</desc><circle fill="currentColor" cx="28" cy="10" r="2"/><path fill="currentColor" d="M18,29h-7v-2h7c4.9626,0,9-4.0374,9-9v-4h2v4c0,6.0654-4.9346,11-11,11Z"/><path fill="currentColor" d="M16,21c-2.7571,0-5-2.2429-5-5s2.2429-5,5-5,5,2.2429,5,5-2.2429,5-5,5Zm0-8c-1.6543,0-3,1.3457-3,3s1.3457,3,3,3,3-1.3457,3-3-1.3457-3-3-3Z"/><circle fill="currentColor" cx="4" cy="22" r="2"/><path fill="currentColor" d="M5,18H3v-4C3,7.9346,7.9346,3,14,3h7v2h-7c-4.9626,0-9,4.0374-9,9v4Z"/></svg>