<svg xmlns="http://www.w3.org/2000/svg" viewBox="0 0 32 32" color="#2563eb" role="img" aria-labelledby="carbon-container-services-title carbon-container-services-desc">
  <title id="carbon-container-services-title">container services</title>
  <desc id="carbon-container-services-desc">云与基础设施 - Carbon Icons - container-services - Apache-2.0</desc><path fill="currentColor" d="M27,22V17a2.0023,2.0023,0,0,0-2-2H17V10h3a2.0023,2.0023,0,0,0,2-2V4a2.0023,2.0023,0,0,0-2-2H12a2.0023,2.0023,0,0,0-2,2V8a2.0023,2.0023,0,0,0,2,2h3v5H7a2.0023,2.0023,0,0,0-2,2v5H2v8h8V22H7V17h8v5H12v8h8V22H17V17h8v5H22v8h8V22ZM12,4h8V8H12ZM8,28H4V24H8Zm10,0H14V24h4Zm10,0H24V24h4Z"/></svg>