<svg xmlns="http://www.w3.org/2000/svg" viewBox="0 0 32 32" color="#2563eb" role="img" aria-labelledby="carbon-add-server-title carbon-add-server-desc">
  <title id="carbon-add-server-title">add server</title>
  <desc id="carbon-add-server-desc">云与基础设施 - Carbon Icons - add-server - Apache-2.0</desc><path fill="currentColor" d="M23,30h-2v-6h-6v-2h6v-6h2v6h6v2h-6v6ZM13,28H5c-1.103,0-2-.8975-2-2V4c0-1.103.897-2,2-2h16c1.1025,0,2,.897,2,2v8H5v6h8v2H5v6h8v2ZM5,10h16v-6H5v6ZM8,6c-.5523,0-1,.4477-1,1s.4477,1,1,1,1-.4477,1-1-.4477-1-1-1ZM8,14c-.5523,0-1,.4477-1,1s.4477,1,1,1,1-.4477,1-1-.4477-1-1-1ZM8,22c-.5523,0-1,.4477-1,1s.4477,1,1,1,1-.4477,1-1-.4477-1-1-1Z"/></svg>