<svg xmlns="http://www.w3.org/2000/svg" width="24" height="24" viewBox="0 0 24 24" color="#2563eb" role="img" aria-labelledby="boxicons-barcode-title boxicons-barcode-desc">
  <title id="boxicons-barcode-title">barcode</title>
  <desc id="boxicons-barcode-desc">数据图表 - Boxicons - barcode - (CC-BY-4.0 OR OFL-1.1 OR MIT)</desc><path fill="currentColor" d="M20 4H4a2 2 0 0 0-2 2v12a2 2 0 0 0 2 2h16a2 2 0 0 0 2-2V6a2 2 0 0 0-2-2zM4 18V6h16v12z"/><path fill="currentColor" d="M6 8h2v8H6zm3 0h1v8H9zm8 0h1v8h-1zm-4 0h3v8h-3zm-2 0h1v8h-1z"/></svg>