<svg xmlns="http://www.w3.org/2000/svg" width="24" height="24" viewBox="0 0 24 24" color="#2563eb" role="img" aria-labelledby="boxicons-outline-title boxicons-outline-desc">
  <title id="boxicons-outline-title">outline</title>
  <desc id="boxicons-outline-desc">数据图表 - Boxicons - outline - (CC-BY-4.0 OR OFL-1.1 OR MIT)</desc><path fill="currentColor" d="M21 19v-9c0-1.103-.897-2-2-2h-3V5c0-1.103-.897-2-2-2H5c-1.103 0-2 .897-2 2v9c0 1.103.897 2 2 2h3v3c0 1.103.897 2 2 2h9c1.103 0 2-.897 2-2zM5 14V5h9v3h-4c-1.103 0-2 .897-2 2v4H5zm9.001 0H10v-4h4.001v4zM10 16h4c1.103 0 2-.897 2-2v-4h3l.001 9H10v-3z"/></svg>