<svg xmlns="http://www.w3.org/2000/svg" width="24" height="24" viewBox="0 0 24 24" color="#2563eb" role="img" aria-labelledby="boxicons-calculator-title boxicons-calculator-desc">
  <title id="boxicons-calculator-title">calculator</title>
  <desc id="boxicons-calculator-desc">数据图表 - Boxicons - calculator - (CC-BY-4.0 OR OFL-1.1 OR MIT)</desc><path fill="currentColor" d="M19 2H5c-1.103 0-2 .897-2 2v16c0 1.103.897 2 2 2h14c1.103 0 2-.897 2-2V4c0-1.103-.897-2-2-2zM5 20V4h14l.001 16H5z"/><path fill="currentColor" d="M7 12h2v2H7zm0 4h2v2H7zm4-4h2v2h-2zM7 6h10v4H7zm4 10h2v2h-2zm4-4h2v6h-2z"/></svg>