<!-- @license lucide-static v1.21.0 - ISC -->
<svg
  class="lucide lucide-dam"
  xmlns="http://www.w3.org/2000/svg"
  width="24"
  height="24"
  viewBox="0 0 24 24"
  fill="none"
  stroke="currentColor"
  stroke-width="2"
  stroke-linecap="round"
  stroke-linejoin="round"
 color="#2563eb" role="img" aria-labelledby="lucide-dam-title lucide-dam-desc">
  <title id="lucide-dam-title">dam</title>
  <desc id="lucide-dam-desc">风光水发电 - Lucide - dam - ISC</desc>
  <path fill="currentColor" d="M11 11.31c1.17.56 1.54 1.69 3.5 1.69 2.5 0 2.5-2 5-2 1.3 0 1.9.5 2.5 1" />
  <path fill="currentColor" d="M11.75 18c.35.5 1.45 1 2.75 1 2.5 0 2.5-2 5-2 1.3 0 1.9.5 2.5 1" />
  <path fill="currentColor" d="M2 10h4" />
  <path fill="currentColor" d="M2 14h4" />
  <path fill="currentColor" d="M2 18h4" />
  <path fill="currentColor" d="M2 6h4" />
  <path fill="currentColor" d="M7 3a1 1 0 0 0-1 1v16a1 1 0 0 0 1 1h4a1 1 0 0 0 1-1L10 4a1 1 0 0 0-1-1z" />
</svg>
