<svg xmlns="http://www.w3.org/2000/svg" viewBox="0 0 512 512" class="ionicon" color="#2563eb" role="img" aria-labelledby="ionicons-reload-circle-title ionicons-reload-circle-desc">
  <title id="ionicons-reload-circle-title">reload circle</title>
  <desc id="ionicons-reload-circle-desc">用电环节 - Ionicons - reload-circle - MIT</desc><path fill="currentColor" d="M448 256c0-106-86-192-192-192S64 150 64 256s86 192 192 192 192-86 192-192Z" stroke-miterlimit="10" class="ionicon-fill-none ionicon-stroke-width"/><path fill="currentColor" d="m341.54 197.85-11.37-13.23a103.37 103.37 0 1 0 22.71 105.84" stroke-linecap="round" stroke-miterlimit="10" class="ionicon-fill-none ionicon-stroke-width"/><path fill="currentColor" d="M367.32 162a8.44 8.44 0 0 0-6 2.54l-59.54 59.54a8.61 8.61 0 0 0 6.09 14.71h59.54a8.62 8.62 0 0 0 8.62-8.62v-59.56a8.61 8.61 0 0 0-8.68-8.63Z"/></svg>