<svg xmlns="http://www.w3.org/2000/svg" fill="none" viewBox="0 0 24 24" stroke-width="1.5" stroke="currentColor" aria-hidden="true" data-slot="icon" color="#2563eb" role="img" aria-labelledby="heroicons-musical-note-title heroicons-musical-note-desc">
  <title id="heroicons-musical-note-title">musical note</title>
  <desc id="heroicons-musical-note-desc">文件文档 - Heroicons - musical-note - MIT</desc>
  <path fill="currentColor" stroke-linecap="round" stroke-linejoin="round" d="m9 9 10.5-3m0 6.553v3.75a2.25 2.25 0 0 1-1.632 2.163l-1.32.377a1.803 1.803 0 1 1-.99-3.467l2.31-.66a2.25 2.25 0 0 0 1.632-2.163Zm0 0V2.25L9 5.25v10.303m0 0v3.75a2.25 2.25 0 0 1-1.632 2.163l-1.32.377a1.803 1.803 0 0 1-.99-3.467l2.31-.66A2.25 2.25 0 0 0 9 15.553Z"/>
</svg>
