<svg xmlns="http://www.w3.org/2000/svg" fill="none" viewBox="0 0 24 24" stroke-width="1.5" stroke="currentColor" aria-hidden="true" data-slot="icon" color="#2563eb" role="img" aria-labelledby="heroicons-archive-box-x-mark-title heroicons-archive-box-x-mark-desc">
  <title id="heroicons-archive-box-x-mark-title">archive box x mark</title>
  <desc id="heroicons-archive-box-x-mark-desc">文件文档 - Heroicons - archive-box-x-mark - MIT</desc>
  <path fill="currentColor" stroke-linecap="round" stroke-linejoin="round" d="m20.25 7.5-.625 10.632a2.25 2.25 0 0 1-2.247 2.118H6.622a2.25 2.25 0 0 1-2.247-2.118L3.75 7.5m6 4.125 2.25 2.25m0 0 2.25 2.25M12 13.875l2.25-2.25M12 13.875l-2.25 2.25M3.375 7.5h17.25c.621 0 1.125-.504 1.125-1.125v-1.5c0-.621-.504-1.125-1.125-1.125H3.375c-.621 0-1.125.504-1.125 1.125v1.5c0 .621.504 1.125 1.125 1.125Z"/>
</svg>
