<svg xmlns="http://www.w3.org/2000/svg" viewBox="0 0 24 24" color="#2563eb" role="img" aria-labelledby="eva-icons-person-delete-title eva-icons-person-delete-desc">
  <title id="eva-icons-person-delete-title">person delete</title>
  <desc id="eva-icons-person-delete-desc">通用命令 - Eva Icons - person-delete - MIT</desc><g data-name="Layer 2"><g data-name="person-delete"><rect fill="currentColor" width="24" height="24" opacity="0"/><path fill="currentColor" d="M20.47 7.5l.73-.73a1 1 0 0 0-1.47-1.47L19 6l-.73-.73a1 1 0 0 0-1.47 1.5l.73.73-.73.73a1 1 0 0 0 1.47 1.47L19 9l.73.73a1 1 0 0 0 1.47-1.5z"/><path fill="currentColor" d="M10 11a4 4 0 1 0-4-4 4 4 0 0 0 4 4zm0-6a2 2 0 1 1-2 2 2 2 0 0 1 2-2z"/><path fill="currentColor" d="M10 13a7 7 0 0 0-7 7 1 1 0 0 0 2 0 5 5 0 0 1 10 0 1 1 0 0 0 2 0 7 7 0 0 0-7-7z"/></g></g></svg>