<svg xmlns="http://www.w3.org/2000/svg" viewBox="0 0 24 24" color="#2563eb" role="img" aria-labelledby="eva-icons-edit-2-title eva-icons-edit-2-desc">
  <title id="eva-icons-edit-2-title">edit 2</title>
  <desc id="eva-icons-edit-2-desc">通用命令 - Eva Icons - edit-2 - MIT</desc><g data-name="Layer 2"><g data-name="edit-2"><rect fill="currentColor" width="24" height="24" opacity="0"/><path fill="currentColor" d="M19 20H5a1 1 0 0 0 0 2h14a1 1 0 0 0 0-2z"/><path fill="currentColor" d="M5 18h.09l4.17-.38a2 2 0 0 0 1.21-.57l9-9a1.92 1.92 0 0 0-.07-2.71L16.66 2.6A2 2 0 0 0 14 2.53l-9 9a2 2 0 0 0-.57 1.21L4 16.91a1 1 0 0 0 .29.8A1 1 0 0 0 5 18zM15.27 4L18 6.73l-2 1.95L13.32 6zm-8.9 8.91L12 7.32l2.7 2.7-5.6 5.6-3 .28z"/></g></g></svg>