<svg xmlns="http://www.w3.org/2000/svg" viewBox="0 0 24 24" color="#2563eb" role="img" aria-labelledby="eva-icons-thermometer-minus-title eva-icons-thermometer-minus-desc">
  <title id="eva-icons-thermometer-minus-title">thermometer minus</title>
  <desc id="eva-icons-thermometer-minus-desc">通用命令 - Eva Icons - thermometer-minus - MIT</desc><g data-name="Layer 2"><g data-name="thermometer-minus"><rect fill="currentColor" width="24" height="24" opacity="0"/><rect fill="currentColor" x="2" y="5" width="6" height="2" rx="1" ry="1"/><path fill="currentColor" d="M14 22a5 5 0 0 1-3-9V5a3 3 0 0 1 3-3 3 3 0 0 1 3 3v8a5 5 0 0 1-3 9zm0-18a1 1 0 0 0-1 1v8.54a1 1 0 0 1-.5.87A3 3 0 0 0 11 17a3 3 0 0 0 6 0 3 3 0 0 0-1.5-2.59 1 1 0 0 1-.5-.87V5a.93.93 0 0 0-.29-.69A1 1 0 0 0 14 4z"/></g></g></svg>