<svg xmlns="http://www.w3.org/2000/svg" viewBox="0 0 24 24" color="#2563eb" role="img" aria-labelledby="eva-icons-trash-2-title eva-icons-trash-2-desc">
  <title id="eva-icons-trash-2-title">trash 2</title>
  <desc id="eva-icons-trash-2-desc">通用命令 - Eva Icons - trash-2 - MIT</desc><g data-name="Layer 2"><g data-name="trash-2"><rect fill="currentColor" width="24" height="24" opacity="0"/><path fill="currentColor" d="M21 6h-5V4.33A2.42 2.42 0 0 0 13.5 2h-3A2.42 2.42 0 0 0 8 4.33V6H3a1 1 0 0 0 0 2h1v11a3 3 0 0 0 3 3h10a3 3 0 0 0 3-3V8h1a1 1 0 0 0 0-2zM10 4.33c0-.16.21-.33.5-.33h3c.29 0 .5.17.5.33V6h-4zM18 19a1 1 0 0 1-1 1H7a1 1 0 0 1-1-1V8h12z"/><path fill="currentColor" d="M9 17a1 1 0 0 0 1-1v-4a1 1 0 0 0-2 0v4a1 1 0 0 0 1 1z"/><path fill="currentColor" d="M15 17a1 1 0 0 0 1-1v-4a1 1 0 0 0-2 0v4a1 1 0 0 0 1 1z"/></g></g></svg>