<!-- @license lucide-static v1.21.0 - ISC -->
<svg
  class="lucide lucide-car"
  xmlns="http://www.w3.org/2000/svg"
  width="24"
  height="24"
  viewBox="0 0 24 24"
  fill="none"
  stroke="currentColor"
  stroke-width="2"
  stroke-linecap="round"
  stroke-linejoin="round"
 color="#2563eb" role="img" aria-labelledby="lucide-car-title lucide-car-desc">
  <title id="lucide-car-title">car</title>
  <desc id="lucide-car-desc">交通设施 - Lucide - car - ISC</desc>
  <path fill="currentColor" d="M19 17h2c.6 0 1-.4 1-1v-3c0-.9-.7-1.7-1.5-1.9C18.7 10.6 16 10 16 10s-1.3-1.4-2.2-2.3c-.5-.4-1.1-.7-1.8-.7H5c-.6 0-1.1.4-1.4.9l-1.4 2.9A3.7 3.7 0 0 0 2 12v4c0 .6.4 1 1 1h2" />
  <circle fill="currentColor" cx="7" cy="17" r="2" />
  <path fill="currentColor" d="M9 17h6" />
  <circle fill="currentColor" cx="17" cy="17" r="2" />
</svg>
