<svg xmlns="http://www.w3.org/2000/svg" width="24" height="24" viewBox="0 0 24 24" color="#2563eb" role="img" aria-labelledby="boxicons-merge-title boxicons-merge-desc">
  <title id="boxicons-merge-title">merge</title>
  <desc id="boxicons-merge-desc">开发工具 - Boxicons - merge - (CC-BY-4.0 OR OFL-1.1 OR MIT)</desc><path fill="currentColor" d="M14 3H5a2 2 0 0 0-2 2v9a2 2 0 0 0 2 2h9a2 2 0 0 0 2-2V5a2 2 0 0 0-2-2z"/><path fill="currentColor" d="M21 19v-9a2 2 0 0 0-2-2h-1v8a2 2 0 0 1-2 2H8v1a2 2 0 0 0 2 2h9a2 2 0 0 0 2-2z"/></svg>