<?xml version="1.0" encoding="UTF-8"?>
<svg xmlns="http://www.w3.org/2000/svg" viewBox="0 0 64 64" width="64" height="64" color="#f59e0b" role="img" aria-labelledby="pv-tracker-title pv-tracker-desc">
  <title id="pv-tracker-title">跟踪支架</title>
  <desc id="pv-tracker-desc">光伏场景 - 复用 能源通用 / solar-power-variant</desc>
  <g transform="translate(8 8) scale(2)">
<path fill="currentColor" d="M3.33 16H11V13H4L3.33 16M13 16H20.67L20 13H13V16M21.11 18H13V22H22L21.11 18M2 22H11V18H2.89L2 22M11 8H13V11H11V8M15.76 7.21L17.18 5.79L19.3 7.91L17.89 9.33L15.76 7.21M4.71 7.91L6.83 5.79L8.24 7.21L6.12 9.33L4.71 7.91M3 2H6V4H3V2M18 2H21V4H18V2M12 7C14.76 7 17 4.76 17 2H7C7 4.76 9.24 7 12 7Z" />
  </g>
  <g>
<path d="M46 46h14v14H46z" fill="none" stroke="currentColor" stroke-width="2.6" stroke-linecap="round" stroke-linejoin="round"/><circle cx="48" cy="46" r="0.65" fill="none" stroke="currentColor" stroke-width="2.6" stroke-linecap="round" stroke-linejoin="round"/><path d="M48 46L46 41" fill="none" stroke="currentColor" stroke-width="2.6" stroke-linecap="round" stroke-linejoin="round"/><circle cx="48" cy="48" r="1.1" fill="none" stroke="currentColor" stroke-width="2.6" stroke-linecap="round" stroke-linejoin="round"/>
  </g>
</svg>
