<svg width="24" height="24" viewBox="0 0 28 28" xmlns="http://www.w3.org/2000/svg" color="#2563eb" role="img" aria-labelledby="panel-left-default-title panel-left-default-desc">
  <title id="panel-left-default-title">Panel Left Default</title>
  <desc id="panel-left-default-desc">变电环节 - panel_left_default, 28px regular</desc><path fill="currentColor" d="M22.25 4A3.75 3.75 0 0 1 26 7.75v12.5A3.75 3.75 0 0 1 22.25 24H5.75A3.75 3.75 0 0 1 2 20.25V7.75A3.75 3.75 0 0 1 5.75 4h16.5ZM5.75 5.5c-1.24 0-2.25 1-2.25 2.25v12.5c0 1.24 1.01 2.25 2.25 2.25H9.5v-17H5.75Zm5.25 0v17h11.25c1.24 0 2.25-1 2.25-2.25V7.75c0-1.24-1-2.25-2.25-2.25H11Z"/></svg>