<svg xmlns="http://www.w3.org/2000/svg" viewBox="0 0 512 512" class="ionicon" color="#2563eb" role="img" aria-labelledby="ionicons-folder-open-title ionicons-folder-open-desc">
  <title id="ionicons-folder-open-title">folder open</title>
  <desc id="ionicons-folder-open-desc">文件文档 - Ionicons - folder-open - MIT</desc><path fill="currentColor" d="M64 192v-72a40 40 0 0 1 40-40h75.89a40 40 0 0 1 22.19 6.72l27.84 18.56a40 40 0 0 0 22.19 6.72H408a40 40 0 0 1 40 40v40" stroke-linecap="round" stroke-linejoin="round" class="ionicon-fill-none ionicon-stroke-width"/><path fill="currentColor" d="M479.9 226.55 463.68 392a40 40 0 0 1-39.93 40H88.25a40 40 0 0 1-39.93-40L32.1 226.55A32 32 0 0 1 64 192h384.1a32 32 0 0 1 31.8 34.55" stroke-linecap="round" stroke-linejoin="round" class="ionicon-fill-none ionicon-stroke-width"/></svg>