<svg xmlns="http://www.w3.org/2000/svg" viewBox="0 0 512 512" class="ionicon" color="#2563eb" role="img" aria-labelledby="ionicons-document-text-title ionicons-document-text-desc">
  <title id="ionicons-document-text-title">document text</title>
  <desc id="ionicons-document-text-desc">文件文档 - Ionicons - document-text - MIT</desc><path fill="currentColor" d="M416 221.25V416a48 48 0 0 1-48 48H144a48 48 0 0 1-48-48V96a48 48 0 0 1 48-48h98.75a32 32 0 0 1 22.62 9.37l141.26 141.26a32 32 0 0 1 9.37 22.62Z" stroke-linejoin="round" class="ionicon-fill-none ionicon-stroke-width"/><path fill="currentColor" d="M256 56v120a32 32 0 0 0 32 32h120M176 288h160M176 368h160" stroke-linecap="round" stroke-linejoin="round" class="ionicon-fill-none ionicon-stroke-width"/></svg>