<!-- @license lucide-static v1.21.0 - ISC -->
<svg
  class="lucide lucide-building-2"
  xmlns="http://www.w3.org/2000/svg"
  width="24"
  height="24"
  viewBox="0 0 24 24"
  fill="none"
  stroke="currentColor"
  stroke-width="2"
  stroke-linecap="round"
  stroke-linejoin="round"
 color="#2563eb" role="img" aria-labelledby="lucide-building-2-title lucide-building-2-desc">
  <title id="lucide-building-2-title">building 2</title>
  <desc id="lucide-building-2-desc">配电环节 - Lucide - building-2 - ISC</desc>
  <path fill="currentColor" d="M10 12h4" />
  <path fill="currentColor" d="M10 8h4" />
  <path fill="currentColor" d="M14 21v-3a2 2 0 0 0-4 0v3" />
  <path fill="currentColor" d="M6 10H4a2 2 0 0 0-2 2v7a2 2 0 0 0 2 2h16a2 2 0 0 0 2-2V9a2 2 0 0 0-2-2h-2" />
  <path fill="currentColor" d="M6 21V5a2 2 0 0 1 2-2h8a2 2 0 0 1 2 2v16" />
</svg>
