<!-- @license lucide-static v1.21.0 - ISC -->
<svg
  class="lucide lucide-toolbox"
  xmlns="http://www.w3.org/2000/svg"
  width="24"
  height="24"
  viewBox="0 0 24 24"
  fill="none"
  stroke="currentColor"
  stroke-width="2"
  stroke-linecap="round"
  stroke-linejoin="round"
 color="#2563eb" role="img" aria-labelledby="lucide-toolbox-title lucide-toolbox-desc">
  <title id="lucide-toolbox-title">toolbox</title>
  <desc id="lucide-toolbox-desc">配电环节 - Lucide - toolbox - ISC</desc>
  <path fill="currentColor" d="M16 12v4" />
  <path fill="currentColor" d="M16 6a2 2 0 0 1 1.414.586l4 4A2 2 0 0 1 22 12v7a2 2 0 0 1-2 2H4a2 2 0 0 1-2-2v-7a2 2 0 0 1 .586-1.414l4-4A2 2 0 0 1 8 6z" />
  <path fill="currentColor" d="M16 6V4a2 2 0 0 0-2-2h-4a2 2 0 0 0-2 2v2" />
  <path fill="currentColor" d="M2 14h20" />
  <path fill="currentColor" d="M8 12v4" />
</svg>
