<!-- @license lucide-static v1.21.0 - ISC -->
<svg
  class="lucide lucide-wrench-off"
  xmlns="http://www.w3.org/2000/svg"
  width="24"
  height="24"
  viewBox="0 0 24 24"
  fill="none"
  stroke="currentColor"
  stroke-width="2"
  stroke-linecap="round"
  stroke-linejoin="round"
 color="#2563eb" role="img" aria-labelledby="lucide-wrench-off-title lucide-wrench-off-desc">
  <title id="lucide-wrench-off-title">wrench off</title>
  <desc id="lucide-wrench-off-desc">配电环节 - Lucide - wrench-off - ISC</desc>
  <path fill="currentColor" d="M10.747 5.093a6 6 0 0 1 6.841-2.882c.438.12.54.662.219.984L14.7 6.3a1 1 0 0 0 0 1.4l1.6 1.6a1 1 0 0 0 1.4 0l3.106-3.105c.32-.322.863-.22.983.218a6 6 0 0 1-2.882 6.842" />
  <path fill="currentColor" d="m13.5 13.5-7.88 7.88a1 1 0 0 1-2.999-3l7.88-7.88" />
  <path fill="currentColor" d="m2 2 20 20" />
</svg>
