<svg xmlns="http://www.w3.org/2000/svg" width="24" height="24" viewBox="0 0 24 24" color="#2563eb" role="img" aria-labelledby="boxicons-band-aid-title boxicons-band-aid-desc">
  <title id="boxicons-band-aid-title">band aid</title>
  <desc id="boxicons-band-aid-desc">医疗安全 - Boxicons - band-aid - (CC-BY-4.0 OR OFL-1.1 OR MIT)</desc><path fill="currentColor" d="M8.111 21.889a5.962 5.962 0 0 0 4.242-1.757l7.778-7.778a6.007 6.007 0 0 0 0-8.485 5.965 5.965 0 0 0-4.243-1.757 5.962 5.962 0 0 0-4.242 1.757l-7.778 7.778a6.007 6.007 0 0 0 0 8.485 5.965 5.965 0 0 0 4.243 1.757zm-2.829-8.828 7.778-7.778a3.976 3.976 0 0 1 2.828-1.171c1.069 0 2.073.416 2.829 1.171a4.006 4.006 0 0 1 0 5.657l-7.778 7.778a3.976 3.976 0 0 1-2.828 1.171 3.977 3.977 0 0 1-2.829-1.171 4.008 4.008 0 0 1 0-5.657z"/><circle fill="currentColor" cx="9" cy="12" r="1"/><circle fill="currentColor" cx="15" cy="12" r="1"/><circle fill="currentColor" cx="12" cy="15" r="1"/><circle fill="currentColor" cx="12" cy="9" r="1"/></svg>