<svg xmlns="http://www.w3.org/2000/svg" width="24" height="24" viewBox="0 0 24 24" color="#2563eb" role="img" aria-labelledby="boxicons-heart-circle-title boxicons-heart-circle-desc">
  <title id="boxicons-heart-circle-title">heart circle</title>
  <desc id="boxicons-heart-circle-desc">医疗安全 - Boxicons - heart-circle - (CC-BY-4.0 OR OFL-1.1 OR MIT)</desc><path fill="currentColor" d="M12.279 8.833 12 9.112l-.279-.279a2.745 2.745 0 0 0-3.906 0 2.745 2.745 0 0 0 0 3.907L12 16.926l4.186-4.186a2.745 2.745 0 0 0 0-3.907 2.746 2.746 0 0 0-3.907 0z"/><path fill="currentColor" d="M12 2C6.486 2 2 6.486 2 12s4.486 10 10 10 10-4.486 10-10S17.514 2 12 2zm0 18c-4.411 0-8-3.589-8-8s3.589-8 8-8 8 3.589 8 8-3.589 8-8 8z"/></svg>