<svg width="24" height="24" viewBox="0 0 24 24" fill="none" xmlns="http://www.w3.org/2000/svg" color="#2563eb" role="img" aria-labelledby="mono-icons-window-title mono-icons-window-desc">
  <title id="mono-icons-window-title">window</title>
  <desc id="mono-icons-window-desc">能源通用 - Mono Icons - window - MIT</desc><path d="M4 3a2 2 0 0 0-2 2v14a2 2 0 0 0 2 2h16a2 2 0 0 0 2-2V5a2 2 0 0 0-2-2H4zm16 2v4H4V5h16zM4 11h16v8H4v-8zm6-4a1 1 0 1 1-2 0 1 1 0 0 1 2 0zM6 8a1 1 0 1 0 0-2 1 1 0 0 0 0 2z" fill="#0D0D0D"/></svg>