<svg xmlns="http://www.w3.org/2000/svg" width="48" height="48" viewBox="0 -960 960 960" color="#2563eb" role="img" aria-labelledby="material-symbols-production-quantity-limits-title material-symbols-production-quantity-limits-desc">
  <title id="material-symbols-production-quantity-limits-title">production quantity limits</title>
  <desc id="material-symbols-production-quantity-limits-desc">工业设施 - Material Symbols - production_quantity_limits - Apache-2.0</desc><path fill="currentColor" d="M456-593.78q-10-9.77-10-24.22t10-24.22q10-9.78 24-9.78t24 9.78q10 9.77 10 24.22t-10 24.22Q494-584 480-584t-24-9.78ZM450-720v-200h60v200h-60ZM239-101.21q-21-21.21-21-51T239.21-203q21.21-21 51-21T341-202.79q21 21.21 21 51T340.79-101q-21.21 21-51 21T239-101.21Zm404 0q-21-21.21-21-51T643.21-203q21.21-21 51-21T745-202.79q21 21.21 21 51T744.79-101q-21.21 21-51 21T643-101.21ZM62-820v-60h116l170 364h287.71L796-796h67L701-493q-11 19-28.56 30.5T634-451H331l-56 104h491v60H284q-37.66 0-57.33-30T224-378l64-118-148-324H62Z"/></svg>