<svg width="24" height="24" fill="none" viewBox="0 0 24 24" stroke-width="1.5" stroke="currentColor" stroke-linecap="round" stroke-linejoin="round" xmlns="http://www.w3.org/2000/svg" color="#2563eb" role="img" aria-labelledby="mynaui-git-diamond-title mynaui-git-diamond-desc">
  <title id="mynaui-git-diamond-title">git diamond</title>
  <desc id="mynaui-git-diamond-desc">开发工具 - Mynaui Icons - git-diamond - MIT</desc><path fill="currentColor" d="M2.707 10.295a2.41 2.41 0 0 0 0 3.41l7.588 7.588a2.41 2.41 0 0 0 3.41 0l7.588-7.588a2.41 2.41 0 0 0 0-3.41l-7.588-7.588a2.41 2.41 0 0 0-3.41 0z"/><path fill="currentColor" d="M14 12a2 2 0 1 1-4 0m4 0a2 2 0 1 0-4 0m4 0h3m-7 0H7"/></svg>