<svg xmlns="http://www.w3.org/2000/svg" id="mdi-camera" viewBox="0 0 24 24" color="#2563eb" role="img" aria-labelledby="material-design-icons-camera-title material-design-icons-camera-desc">
  <title id="material-design-icons-camera-title">camera</title>
  <desc id="material-design-icons-camera-desc">媒体素材 - Material Design Icons - camera - Apache-2.0</desc><path fill="currentColor" d="M4,4H7L9,2H15L17,4H20A2,2 0 0,1 22,6V18A2,2 0 0,1 20,20H4A2,2 0 0,1 2,18V6A2,2 0 0,1 4,4M12,7A5,5 0 0,0 7,12A5,5 0 0,0 12,17A5,5 0 0,0 17,12A5,5 0 0,0 12,7M12,9A3,3 0 0,1 15,12A3,3 0 0,1 12,15A3,3 0 0,1 9,12A3,3 0 0,1 12,9Z" /></svg>