<svg xmlns="http://www.w3.org/2000/svg" viewBox="0 0 256 256" fill="currentColor" color="#2563eb" role="img" aria-labelledby="phosphor-pulse-title phosphor-pulse-desc">
  <title id="phosphor-pulse-title">pulse</title>
  <desc id="phosphor-pulse-desc">电力电子 - Phosphor Icons - pulse - MIT</desc><path fill="currentColor" d="M240,128a8,8,0,0,1-8,8H204.94l-37.78,75.58A8,8,0,0,1,160,216h-.4a8,8,0,0,1-7.08-5.14L95.35,60.76,63.28,131.31A8,8,0,0,1,56,136H24a8,8,0,0,1,0-16H50.85L88.72,36.69a8,8,0,0,1,14.76.46l57.51,151,31.85-63.71A8,8,0,0,1,200,120h32A8,8,0,0,1,240,128Z"/></svg>