<svg xmlns="http://www.w3.org/2000/svg" viewBox="0 0 512 512" color="#2563eb" role="img" aria-labelledby="fontawesome-solid-signal-perfect-title fontawesome-solid-signal-perfect-desc">
  <title id="fontawesome-solid-signal-perfect-title">signal perfect</title>
  <desc id="fontawesome-solid-signal-perfect-desc">通信与控制 - Font Awesome Free Solid - signal-perfect - (CC-BY-4.0 AND OFL-1.1 AND MIT)</desc><!--! Font Awesome Free 7.2.0 by @fontawesome - https://fontawesome.com License - https://fontawesome.com/license/free (Icons: CC BY 4.0, Fonts: SIL OFL 1.1, Code: MIT License) Copyright 2026 Fonticons, Inc. --><path fill="currentColor" d="M488 56c0-13.3-10.7-24-24-24s-24 10.7-24 24l0 400c0 13.3 10.7 24 24 24s24-10.7 24-24l0-400zM360 128c-13.3 0-24 10.7-24 24l0 304c0 13.3 10.7 24 24 24s24-10.7 24-24l0-304c0-13.3-10.7-24-24-24zM280 248c0-13.3-10.7-24-24-24s-24 10.7-24 24l0 208c0 13.3 10.7 24 24 24s24-10.7 24-24l0-208zM152 320c-13.3 0-24 10.7-24 24l0 112c0 13.3 10.7 24 24 24s24-10.7 24-24l0-112c0-13.3-10.7-24-24-24zM48 384c-13.3 0-24 10.7-24 24l0 48c0 13.3 10.7 24 24 24s24-10.7 24-24l0-48c0-13.3-10.7-24-24-24z"/></svg>