<svg xmlns="http://www.w3.org/2000/svg" viewBox="0 0 32 32" color="#2563eb" role="img" aria-labelledby="carbon-development-title carbon-development-desc">
  <title id="carbon-development-title">development</title>
  <desc id="carbon-development-desc">用电环节 - Carbon Icons - development - Apache-2.0</desc><path fill="currentColor" d="M8,4V8H4V4H8M2,2v8h8V2Z"/><path fill="currentColor" d="M18,7v4H14V7h4M12,5v8h8V5Z"/><path fill="currentColor" d="M8,16v4H4V16H8M2,14v8h8V14Z"/><path fill="currentColor" d="M22,10v6H16v6H10v8H30V10Zm-4,8h4v4H18ZM16,28H12V24h4Zm6,0H18V24h4Zm6,0H24V24h4Zm0-6H24V18h4Zm-4-6V12h4v4Z"/></svg>