<svg xmlns="http://www.w3.org/2000/svg" viewBox="0 0 256 256" fill="currentColor" color="#2563eb" role="img" aria-labelledby="phosphor-clock-afternoon-title phosphor-clock-afternoon-desc">
  <title id="phosphor-clock-afternoon-title">clock afternoon</title>
  <desc id="phosphor-clock-afternoon-desc">办公效率 - Phosphor Icons - clock-afternoon - MIT</desc><path fill="currentColor" d="M128,24A104,104,0,1,0,232,128,104.11,104.11,0,0,0,128,24Zm0,192a88,88,0,1,1,88-88A88.1,88.1,0,0,1,128,216Zm64-88a8,8,0,0,1-8,8H147.31l26.35,26.34a8,8,0,0,1-11.32,11.32l-40-40A8,8,0,0,1,128,120h56A8,8,0,0,1,192,128Z"/></svg>