<svg xmlns="http://www.w3.org/2000/svg" viewBox="0 0 256 256" fill="currentColor" color="#2563eb" role="img" aria-labelledby="phosphor-list-dashes-title phosphor-list-dashes-desc">
  <title id="phosphor-list-dashes-title">list dashes</title>
  <desc id="phosphor-list-dashes-desc">办公效率 - Phosphor Icons - list-dashes - MIT</desc><path fill="currentColor" d="M88,64a8,8,0,0,1,8-8H216a8,8,0,0,1,0,16H96A8,8,0,0,1,88,64Zm128,56H96a8,8,0,0,0,0,16H216a8,8,0,0,0,0-16Zm0,64H96a8,8,0,0,0,0,16H216a8,8,0,0,0,0-16ZM56,56H40a8,8,0,0,0,0,16H56a8,8,0,0,0,0-16Zm0,64H40a8,8,0,0,0,0,16H56a8,8,0,0,0,0-16Zm0,64H40a8,8,0,0,0,0,16H56a8,8,0,0,0,0-16Z"/></svg>