<svg width="24" height="24" viewBox="0 0 24 24" xmlns="http://www.w3.org/2000/svg" color="#2563eb" role="img" aria-labelledby="fluent-system-text-align-left-rotate-270-title fluent-system-text-align-left-rotate-270-desc">
  <title id="fluent-system-text-align-left-rotate-270-title">text align left rotate 270</title>
  <desc id="fluent-system-text-align-left-rotate-270-desc">画布工具 - Fluent UI System Icons - text-align-left-rotate-270 - MIT</desc><path fill="currentColor" d="M5.75 22a.75.75 0 0 1-.75-.75V5.75a.75.75 0 0 1 1.5 0v15.5c0 .41-.34.75-.75.75Zm13 0a.75.75 0 0 1-.75-.75v-10.5a.75.75 0 0 1 1.5 0v10.5c0 .41-.34.75-.75.75Zm-7.25-.75a.75.75 0 0 0 1.5 0V2.75a.75.75 0 0 0-1.5 0v18.5Z"/></svg>