<svg width="24" height="24" viewBox="0 0 24 24" xmlns="http://www.w3.org/2000/svg" color="#2563eb" role="img" aria-labelledby="fluent-system-text-align-left-rotate-90-title fluent-system-text-align-left-rotate-90-desc">
  <title id="fluent-system-text-align-left-rotate-90-title">text align left rotate 90</title>
  <desc id="fluent-system-text-align-left-rotate-90-desc">画布工具 - Fluent UI System Icons - text-align-left-rotate-90 - MIT</desc><path fill="currentColor" d="M18.25 2c.41 0 .75.34.75.75v15.5a.75.75 0 0 1-1.5 0V2.75c0-.41.34-.75.75-.75Zm-13 0c.41 0 .75.34.75.75v10.5a.75.75 0 0 1-1.5 0V2.75c0-.41.34-.75.75-.75Zm7.25.75a.75.75 0 0 0-1.5 0v18.5a.75.75 0 0 0 1.5 0V2.75Z"/></svg>