<svg xmlns="http://www.w3.org/2000/svg" width="24" height="24" fill="none" viewBox="0 0 24 24" color="#2563eb" role="img" aria-labelledby="flowbite-ruler-combined-title flowbite-ruler-combined-desc">
  <title id="flowbite-ruler-combined-title">ruler combined</title>
  <desc id="flowbite-ruler-combined-desc">画布工具 - Flowbite Icons - ruler-combined - MIT</desc>
  <path stroke="currentColor" stroke-linecap="round" stroke-linejoin="round" stroke-width="2" d="M9 7H7m2 3H7m2 3H7m4 2v2m3-2v2m3-2v2M4 5v14a1 1 0 0 0 1 1h14a1 1 0 0 0 1-1v-3a1 1 0 0 0-1-1h-9a1 1 0 0 1-1-1V5a1 1 0 0 0-1-1H5a1 1 0 0 0-1 1Z"/>
</svg>
