<svg xmlns="http://www.w3.org/2000/svg" width="24" height="24" fill="none" viewBox="0 0 24 24" color="#2563eb" role="img" aria-labelledby="flowbite-draw-square-title flowbite-draw-square-desc">
  <title id="flowbite-draw-square-title">draw square</title>
  <desc id="flowbite-draw-square-desc">画布工具 - Flowbite Icons - draw-square - MIT</desc>
  <path stroke="currentColor" stroke-linecap="round" stroke-linejoin="round" stroke-width="2" d="M11 6.5h2M11 18h2m-7-5v-2m12 2v-2M5 8h2a1 1 0 0 0 1-1V5a1 1 0 0 0-1-1H5a1 1 0 0 0-1 1v2a1 1 0 0 0 1 1Zm0 12h2a1 1 0 0 0 1-1v-2a1 1 0 0 0-1-1H5a1 1 0 0 0-1 1v2a1 1 0 0 0 1 1Zm12 0h2a1 1 0 0 0 1-1v-2a1 1 0 0 0-1-1h-2a1 1 0 0 0-1 1v2a1 1 0 0 0 1 1Zm0-12h2a1 1 0 0 0 1-1V5a1 1 0 0 0-1-1h-2a1 1 0 0 0-1 1v2a1 1 0 0 0 1 1Z"/>
</svg>
