<svg xmlns="http://www.w3.org/2000/svg" viewBox="0 0 24 24" color="#2563eb" role="img" aria-labelledby="eva-icons-radio-button-on-title eva-icons-radio-button-on-desc">
  <title id="eva-icons-radio-button-on-title">radio button on</title>
  <desc id="eva-icons-radio-button-on-desc">通信与控制 - Eva Icons - radio-button-on - MIT</desc><g data-name="Layer 2"><g data-name="radio-button-on"><rect fill="currentColor" width="24" height="24" opacity="0"/><path fill="currentColor" d="M12 2a10 10 0 1 0 10 10A10 10 0 0 0 12 2zm0 18a8 8 0 1 1 8-8 8 8 0 0 1-8 8z"/><path fill="currentColor" d="M12 7a5 5 0 1 0 5 5 5 5 0 0 0-5-5zm0 8a3 3 0 1 1 3-3 3 3 0 0 1-3 3z"/></g></g></svg>