<svg xmlns="http://www.w3.org/2000/svg" width="16" height="16" fill="currentColor" class="bi bi-thermometer" viewBox="0 0 16 16" color="#2563eb" role="img" aria-labelledby="bootstrap-thermometer-title bootstrap-thermometer-desc">
  <title id="bootstrap-thermometer-title">thermometer</title>
  <desc id="bootstrap-thermometer-desc">冷热能源 - Bootstrap Icons - thermometer - MIT</desc>
  <path fill="currentColor" d="M8 14a1.5 1.5 0 1 0 0-3 1.5 1.5 0 0 0 0 3"/>
  <path fill="currentColor" d="M8 0a2.5 2.5 0 0 0-2.5 2.5v7.55a3.5 3.5 0 1 0 5 0V2.5A2.5 2.5 0 0 0 8 0M6.5 2.5a1.5 1.5 0 1 1 3 0v7.987l.167.15a2.5 2.5 0 1 1-3.333 0l.166-.15z"/>
</svg>