<svg xmlns="http://www.w3.org/2000/svg" width="16" height="16" fill="currentColor" class="bi bi-dice-2" viewBox="0 0 16 16" color="#2563eb" role="img" aria-labelledby="bootstrap-dice-2-title bootstrap-dice-2-desc">
  <title id="bootstrap-dice-2-title">dice 2</title>
  <desc id="bootstrap-dice-2-desc">冷热能源 - Bootstrap Icons - dice-2 - MIT</desc>
  <path fill="currentColor" d="M13 1a2 2 0 0 1 2 2v10a2 2 0 0 1-2 2H3a2 2 0 0 1-2-2V3a2 2 0 0 1 2-2zM3 0a3 3 0 0 0-3 3v10a3 3 0 0 0 3 3h10a3 3 0 0 0 3-3V3a3 3 0 0 0-3-3z"/>
  <path fill="currentColor" d="M5.5 4a1.5 1.5 0 1 1-3 0 1.5 1.5 0 0 1 3 0m8 8a1.5 1.5 0 1 1-3 0 1.5 1.5 0 0 1 3 0"/>
</svg>