<svg xmlns="http://www.w3.org/2000/svg" width="16" height="16" fill="none" viewBox="0 0 16 16" color="#2563eb" role="img" aria-labelledby="gravity-ui-bars-unaligned-title gravity-ui-bars-unaligned-desc">
  <title id="gravity-ui-bars-unaligned-title">bars unaligned</title>
  <desc id="gravity-ui-bars-unaligned-desc">数据图表 - Gravity UI Icons - bars-unaligned - MIT</desc><path fill="currentColor" fill-rule="evenodd" d="M2.75 2.5a.75.75 0 0 0 0 1.5h10.5a.75.75 0 0 0 0-1.5zM4 8a.75.75 0 0 1 .75-.75h10.5a.75.75 0 0 1 0 1.5H4.75A.75.75 0 0 1 4 8m-4 4.75A.75.75 0 0 1 .75 12h10.5a.75.75 0 0 1 0 1.5H.75a.75.75 0 0 1-.75-.75" clip-rule="evenodd"/></svg>