<svg xmlns="http://www.w3.org/2000/svg" width="16" height="16" fill="none" viewBox="0 0 16 16" color="#2563eb" role="img" aria-labelledby="gravity-ui-chevrons-expand-from-line-title gravity-ui-chevrons-expand-from-line-desc">
  <title id="gravity-ui-chevrons-expand-from-line-title">chevrons expand from line</title>
  <desc id="gravity-ui-chevrons-expand-from-line-desc">数据图表 - Gravity UI Icons - chevrons-expand-from-line - MIT</desc><path fill="currentColor" fill-rule="evenodd" d="M8 2a.75.75 0 0 1 .75.75v10.5a.75.75 0 0 1-1.5 0V2.75A.75.75 0 0 1 8 2M4.78 4.97a.75.75 0 0 1 0 1.06L2.81 8l1.97 1.97a.75.75 0 1 1-1.06 1.06l-2.5-2.5a.75.75 0 0 1 0-1.06l2.5-2.5a.75.75 0 0 1 1.06 0m6.44 1.06a.75.75 0 0 1 1.06-1.06l2.5 2.5a.75.75 0 0 1 0 1.06l-2.5 2.5a.75.75 0 1 1-1.06-1.06L13.19 8z" clip-rule="evenodd"/></svg>