<svg width="24" height="24" viewBox="0 0 20 20" xmlns="http://www.w3.org/2000/svg" color="#2563eb" role="img" aria-labelledby="align-end-vertical-title align-end-vertical-desc">
  <title id="align-end-vertical-title">Align End Vertical</title>
  <desc id="align-end-vertical-desc">文字排版 - align_end_vertical, 20px regular</desc><path fill="currentColor" d="M6 8a2 2 0 0 0-2 2v2c0 1.1.9 2 2 2h8a2 2 0 0 0 2-2v-2a2 2 0 0 0-2-2H6Zm-1 2a1 1 0 0 1 1-1h8a1 1 0 0 1 1 1v2a1 1 0 0 1-1 1H6a1 1 0 0 1-1-1v-2Z"/><path fill="currentColor" d="M2 16.5c0-.28.22-.5.5-.5h15a.5.5 0 0 1 0 1h-15a.5.5 0 0 1-.5-.5Z"/></svg>