<svg width="24" height="24" viewBox="0 0 24 24" xmlns="http://www.w3.org/2000/svg" color="#2563eb" role="img" aria-labelledby="border-outside-thick-title border-outside-thick-desc">
  <title id="border-outside-thick-title">Border Outside Thick</title>
  <desc id="border-outside-thick-desc">文字排版 - border_outside_thick, 24px regular</desc><path fill="currentColor" d="M3 6a3 3 0 0 1 3-3h12a3 3 0 0 1 3 3v12a3 3 0 0 1-3 3H6a3 3 0 0 1-3-3V6Zm3-1a1 1 0 0 0-1 1v12a1 1 0 0 0 1 1h12a1 1 0 0 0 1-1V6a1 1 0 0 0-1-1H6Z"/></svg>