<svg width="24" height="24" viewBox="0 0 24 24" xmlns="http://www.w3.org/2000/svg" color="#2563eb" role="img" aria-labelledby="text-column-one-title text-column-one-desc">
  <title id="text-column-one-title">Text Column One</title>
  <desc id="text-column-one-desc">文字排版 - text_column_one, 24px regular</desc><path fill="currentColor" d="M5 5.75c0-.41.34-.75.75-.75h12.5a.75.75 0 0 1 0 1.5H5.75A.75.75 0 0 1 5 5.75Zm0 4c0-.41.34-.75.75-.75h12.5a.75.75 0 0 1 0 1.5H5.75A.75.75 0 0 1 5 9.75Zm0 4c0-.41.34-.75.75-.75h12.5a.75.75 0 0 1 0 1.5H5.75a.75.75 0 0 1-.75-.75Zm0 4c0-.41.34-.75.75-.75h12.5a.75.75 0 0 1 0 1.5H5.75a.75.75 0 0 1-.75-.75Z"/></svg>