<svg width="24" height="24" viewBox="0 0 24 24" xmlns="http://www.w3.org/2000/svg" color="#2563eb" role="img" aria-labelledby="text-add-t-title text-add-t-desc">
  <title id="text-add-t-title">Text Add T</title>
  <desc id="text-add-t-desc">文字排版 - text_add_t, 24px regular</desc><path fill="currentColor" d="M4 4.75c0-.41.34-.75.75-.75h12.5c.41 0 .75.34.75.75v2a.75.75 0 0 1-1.5 0V5.5h-4.75v8.97A6.47 6.47 0 0 0 11.5 20H8.75a.75.75 0 0 1 0-1.5h1.5v-13H5.5v1.25a.75.75 0 0 1-1.5 0v-2ZM23 17.5a5.5 5.5 0 1 0-11 0 5.5 5.5 0 0 0 11 0Zm-5 .5v2.5a.5.5 0 1 1-1 0V18h-2.5a.5.5 0 0 1 0-1H17v-2.5a.5.5 0 1 1 1 0V17h2.5a.5.5 0 0 1 0 1H18Z"/></svg>