<svg width="24" height="24" viewBox="0 0 24 24" xmlns="http://www.w3.org/2000/svg" color="#2563eb" role="img" aria-labelledby="text-align-center-rotate-270-title text-align-center-rotate-270-desc">
  <title id="text-align-center-rotate-270-title">Text Align Center Rotate 270</title>
  <desc id="text-align-center-rotate-270-desc">文字排版 - text_align_center_rotate_270, 24px regular</desc><path fill="currentColor" d="M5.75 20a.75.75 0 0 1-.75-.75V4.75a.75.75 0 0 1 1.5 0v14.5c0 .41-.34.75-.75.75Zm13-2a.75.75 0 0 1-.75-.75V6.75a.75.75 0 0 1 1.5 0v10.5c0 .41-.34.75-.75.75Zm-7.25 3.25a.75.75 0 0 0 1.5 0V2.75a.75.75 0 0 0-1.5 0v18.5Z"/></svg>