<svg width="24" height="24" viewBox="0 0 24 24" xmlns="http://www.w3.org/2000/svg" color="#2563eb" role="img" aria-labelledby="text-bullet-list-ltr-title text-bullet-list-ltr-desc">
  <title id="text-bullet-list-ltr-title">Text Bullet List Ltr</title>
  <desc id="text-bullet-list-ltr-desc">文字排版 - text_bullet_list_ltr, 24px regular</desc><path fill="currentColor" d="M3.25 17.5a1.25 1.25 0 1 1 0 2.5 1.25 1.25 0 0 1 0-2.5Zm3.5.5h14.5a.75.75 0 0 1 .1 1.5H6.75a.75.75 0 0 1-.1-1.5h14.6-14.5Zm-3.5-7a1.25 1.25 0 1 1 0 2.5 1.25 1.25 0 0 1 0-2.5Zm3.5.5h14.5a.75.75 0 0 1 .1 1.5H6.75a.75.75 0 0 1-.1-1.5h14.6-14.5Zm-3.5-7a1.25 1.25 0 1 1 0 2.5 1.25 1.25 0 0 1 0-2.5Zm3.5.5h14.5a.75.75 0 0 1 .1 1.5H6.75a.75.75 0 0 1-.1-1.5h14.6-14.5Z"/></svg>