<svg width="24" height="24" viewBox="0 0 24 24" xmlns="http://www.w3.org/2000/svg" color="#2563eb" role="img" aria-labelledby="text-description-rtl-title text-description-rtl-desc">
  <title id="text-description-rtl-title">Text Description Rtl</title>
  <desc id="text-description-rtl-desc">文字排版 - text_description_rtl, 24px regular</desc><path fill="currentColor" d="M21.25 17H8.75a.75.75 0 0 0-.1 1.5h12.6a.75.75 0 0 0 .1-1.5H8.75h12.5Zm0-4H2.75a.75.75 0 0 0-.1 1.5h18.6a.75.75 0 0 0 .1-1.5H2.75h18.5Zm0-4H2.75a.75.75 0 0 0-.1 1.5h18.6a.75.75 0 0 0 .1-1.5H2.75h18.5Zm0-4H2.75a.75.75 0 0 0-.1 1.5h18.6a.75.75 0 0 0 .1-1.5H2.75h18.5Z"/></svg>