<?xml version="1.0" encoding="UTF-8"?>
<svg xmlns="http://www.w3.org/2000/svg" viewBox="0 0 64 64" width="64" height="64" color="#ea580c" role="img" aria-labelledby="heat-exchanger-chemical-title heat-exchanger-chemical-desc">
  <title id="heat-exchanger-chemical-title">化工换热器</title>
  <desc id="heat-exchanger-chemical-desc">油气化工 - heat-exchanger, chemical</desc>
  <g>
<rect x="14" y="20" width="36" height="24" rx="12" fill="none" stroke="currentColor" stroke-width="2.6" stroke-linecap="round" stroke-linejoin="round"/><path d="M8 32L14 32" fill="none" stroke="currentColor" stroke-width="2.6" stroke-linecap="round" stroke-linejoin="round"/><path d="M50 32L56 32" fill="none" stroke="currentColor" stroke-width="2.6" stroke-linecap="round" stroke-linejoin="round"/><path d="M24 22c-7 8 7 12 0 20M40 22c-7 8 7 12 0 20" fill="none" stroke="currentColor" stroke-width="2.6" stroke-linecap="round" stroke-linejoin="round"/><path d="M46 46h14v14H46z" fill="none" stroke="currentColor" stroke-width="2.6" stroke-linecap="round" stroke-linejoin="round"/><circle cx="48" cy="54" r="1" fill="none" stroke="currentColor" stroke-width="2.6" stroke-linecap="round" stroke-linejoin="round"/><path d="M48 54L52 52" fill="none" stroke="currentColor" stroke-width="2.6" stroke-linecap="round" stroke-linejoin="round"/><circle cx="53" cy="55" r="1.1" fill="none" stroke="currentColor" stroke-width="2.6" stroke-linecap="round" stroke-linejoin="round"/><path d="M46 46h14v14H46z" fill="none" stroke="currentColor" stroke-width="2.6" stroke-linecap="round" stroke-linejoin="round"/><circle cx="53" cy="41" r="1" fill="none" stroke="currentColor" stroke-width="2.6" stroke-linecap="round" stroke-linejoin="round"/><path d="M53 41L49 43" fill="none" stroke="currentColor" stroke-width="2.6" stroke-linecap="round" stroke-linejoin="round"/><circle cx="49" cy="46" r="1.1" fill="none" stroke="currentColor" stroke-width="2.6" stroke-linecap="round" stroke-linejoin="round"/>
  </g>
</svg>
