<svg xmlns="http://www.w3.org/2000/svg" viewBox="0 0 24 24" color="#2563eb" role="img" aria-labelledby="eva-icons-thermometer-title eva-icons-thermometer-desc">
  <title id="eva-icons-thermometer-title">thermometer</title>
  <desc id="eva-icons-thermometer-desc">冷热能源 - Eva Icons - thermometer - MIT</desc><g data-name="Layer 2"><g data-name="thermometer"><rect fill="currentColor" width="24" height="24" opacity="0"/><path fill="currentColor" d="M12 22a5 5 0 0 1-3-9V5a3 3 0 0 1 3-3 3 3 0 0 1 3 3v8a5 5 0 0 1-3 9zm0-18a1 1 0 0 0-1 1v8.54a1 1 0 0 1-.5.87A3 3 0 0 0 9 17a3 3 0 0 0 6 0 3 3 0 0 0-1.5-2.59 1 1 0 0 1-.5-.87V5a.93.93 0 0 0-.29-.69A1 1 0 0 0 12 4z"/></g></g></svg>