<!-- @license lucide-static v1.21.0 - ISC -->
<svg
  class="lucide lucide-qr-code"
  xmlns="http://www.w3.org/2000/svg"
  width="24"
  height="24"
  viewBox="0 0 24 24"
  fill="none"
  stroke="currentColor"
  stroke-width="2"
  stroke-linecap="round"
  stroke-linejoin="round"
 color="#2563eb" role="img" aria-labelledby="lucide-qr-code-title lucide-qr-code-desc">
  <title id="lucide-qr-code-title">qr code</title>
  <desc id="lucide-qr-code-desc">开发工具 - Lucide - qr-code - ISC</desc>
  <rect fill="currentColor" width="5" height="5" x="3" y="3" rx="1" />
  <rect fill="currentColor" width="5" height="5" x="16" y="3" rx="1" />
  <rect fill="currentColor" width="5" height="5" x="3" y="16" rx="1" />
  <path fill="currentColor" d="M21 16h-3a2 2 0 0 0-2 2v3" />
  <path fill="currentColor" d="M21 21v.01" />
  <path fill="currentColor" d="M12 7v3a2 2 0 0 1-2 2H7" />
  <path fill="currentColor" d="M3 12h.01" />
  <path fill="currentColor" d="M12 3h.01" />
  <path fill="currentColor" d="M12 16v.01" />
  <path fill="currentColor" d="M16 12h1" />
  <path fill="currentColor" d="M21 12v.01" />
  <path fill="currentColor" d="M12 21v-1" />
</svg>
