<?xml version="1.0" encoding="UTF-8"?>
<svg xmlns="http://www.w3.org/2000/svg" viewBox="0 0 64 64" width="64" height="64" color="#334155" role="img" aria-labelledby="text-label-title text-label-desc">
  <title id="text-label-title">文本标签</title>
  <desc id="text-label-desc">通用图形 - 复用 文件文档 / text-label</desc>
  <g transform="translate(8 8) scale(3)">
<path fill="currentColor" d="M12.5 4.9c-1.4 0-2.5 0.8-2.6 0.9l1.2 1.6c0 0 0.7-0.5 1.4-0.5 1.4 0 1.5 1.2 1.5 1.6-0.4-0.1-1.1-0.3-2-0.1-1.4 0.3-2.8 2-2.1 3.9 0.7 1.8 3.1 2.1 4.1 0.6v1h2v-5.3c0-2.7-1.9-3.7-3.5-3.7zM11.5 11.4c-0.1-1.9 1.5-1.9 2.5-1.8v1c0 1.2-2.3 2.3-2.5 0.8z"></path>
<path fill="currentColor" d="M6.9 14h2.1l-3.2-12h-2.7l-3.1 12h2.1l1-4h2.7l1.1 4zM3.6 8l0.8-3.2 0.9 3.2h-1.7z"></path>
  </g>
  <g>
<path d="M46 46h14v14H46z" fill="none" stroke="currentColor" stroke-width="2.6" stroke-linecap="round" stroke-linejoin="round"/><circle cx="50" cy="41" r="0.65" fill="none" stroke="currentColor" stroke-width="2.6" stroke-linecap="round" stroke-linejoin="round"/><path d="M50 41L43 44" fill="none" stroke="currentColor" stroke-width="2.6" stroke-linecap="round" stroke-linejoin="round"/><circle cx="50" cy="49" r="1.1" fill="none" stroke="currentColor" stroke-width="2.6" stroke-linecap="round" stroke-linejoin="round"/>
  </g>
</svg>
