<svg xmlns="http://www.w3.org/2000/svg" width="24" height="24" viewBox="0 0 24 24" color="#2563eb" role="img" aria-labelledby="line-md-grid-3-title line-md-grid-3-desc">
  <title id="line-md-grid-3-title">grid 3</title>
  <desc id="line-md-grid-3-desc">画布工具 - Line MD - grid-3 - MIT</desc>
	<g fill="none" stroke="currentColor" stroke-linecap="round" stroke-linejoin="round" stroke-dasharray="12">
		<path fill="currentColor" d="M3.5 5c0 -0.83 0.67 -1.5 1.5 -1.5c0.83 0 1.5 0.67 1.5 1.5c0 0.83 -0.67 1.5 -1.5 1.5c-0.83 0 -1.5 -0.67 -1.5 -1.5ZM10.5 5c0 -0.83 0.67 -1.5 1.5 -1.5c0.83 0 1.5 0.67 1.5 1.5c0 0.83 -0.67 1.5 -1.5 1.5c-0.83 0 -1.5 -0.67 -1.5 -1.5ZM17.5 5c0 -0.83 0.67 -1.5 1.5 -1.5c0.83 0 1.5 0.67 1.5 1.5c0 0.83 -0.67 1.5 -1.5 1.5c-0.83 0 -1.5 -0.67 -1.5 -1.5Z">
			<animate attributeName="stroke-dashoffset" dur="0.2s" fill="freeze" values="12;0" />
		</path>
		<path fill="currentColor" d="M3.5 12c0 -0.83 0.67 -1.5 1.5 -1.5c0.83 0 1.5 0.67 1.5 1.5c0 0.83 -0.67 1.5 -1.5 1.5c-0.83 0 -1.5 -0.67 -1.5 -1.5ZM10.5 12c0 -0.83 0.67 -1.5 1.5 -1.5c0.83 0 1.5 0.67 1.5 1.5c0 0.83 -0.67 1.5 -1.5 1.5c-0.83 0 -1.5 -0.67 -1.5 -1.5ZM17.5 12c0 -0.83 0.67 -1.5 1.5 -1.5c0.83 0 1.5 0.67 1.5 1.5c0 0.83 -0.67 1.5 -1.5 1.5c-0.83 0 -1.5 -0.67 -1.5 -1.5Z" stroke-dashoffset="12">
			<animate attributeName="stroke-dashoffset" begin="0.2s" dur="0.2s" fill="freeze" to="0" />
		</path>
		<path fill="currentColor" d="M3.5 19c0 -0.83 0.67 -1.5 1.5 -1.5c0.83 0 1.5 0.67 1.5 1.5c0 0.83 -0.67 1.5 -1.5 1.5c-0.83 0 -1.5 -0.67 -1.5 -1.5ZM10.5 19c0 -0.83 0.67 -1.5 1.5 -1.5c0.83 0 1.5 0.67 1.5 1.5c0 0.83 -0.67 1.5 -1.5 1.5c-0.83 0 -1.5 -0.67 -1.5 -1.5ZM17.5 19c0 -0.83 0.67 -1.5 1.5 -1.5c0.83 0 1.5 0.67 1.5 1.5c0 0.83 -0.67 1.5 -1.5 1.5c-0.83 0 -1.5 -0.67 -1.5 -1.5Z" stroke-dashoffset="12">
			<animate attributeName="stroke-dashoffset" begin="0.4s" dur="0.2s" fill="freeze" to="0" />
		</path>
	</g>
</svg>
