<svg width="24" height="24" viewBox="0 0 24 24" xmlns="http://www.w3.org/2000/svg" color="#2563eb" role="img" aria-labelledby="more-circle-title more-circle-desc">
  <title id="more-circle-title">More Circle</title>
  <desc id="more-circle-desc">导航视图 - more_circle, 24px regular</desc><path fill="currentColor" d="M20.5 12a8.5 8.5 0 1 0-17 0 8.5 8.5 0 0 0 17 0Zm1.5 0a10 10 0 1 1-20 0 10 10 0 0 1 20 0ZM7 13.25a1.25 1.25 0 1 0 0-2.5 1.25 1.25 0 0 0 0 2.5Zm5 0a1.25 1.25 0 1 0 0-2.5 1.25 1.25 0 0 0 0 2.5Zm5 0a1.25 1.25 0 1 0 0-2.5 1.25 1.25 0 0 0 0 2.5Z"/></svg>