<svg xmlns="http://www.w3.org/2000/svg" width="48" height="48" viewBox="0 -960 960 960" color="#2563eb" role="img" aria-labelledby="material-symbols-folder-zip-title material-symbols-folder-zip-desc">
  <title id="material-symbols-folder-zip-title">folder zip</title>
  <desc id="material-symbols-folder-zip-desc">文件文档 - Material Symbols - folder_zip - Apache-2.0</desc><path fill="currentColor" d="M640-496v-92h92v92h-92Zm0 92h-92v-92h92v92Zm0 92v-92h92v92h-92ZM456-680l-60-60H140v520h408v-92h92v92h180v-460H640v92h-92v-92h-92ZM140-160q-24 0-42-18.5T80-220v-520q0-23 18-41.5t42-18.5h281l60 60h339q23 0 41.5 18.5T880-680v460q0 23-18.5 41.5T820-160H140Zm0-60v-520 520Z"/></svg>