<svg xmlns="http://www.w3.org/2000/svg" width="48" height="48" viewBox="0 -960 960 960" color="#2563eb" role="img" aria-labelledby="material-symbols-file-map-title material-symbols-file-map-desc">
  <title id="material-symbols-file-map-title">file map</title>
  <desc id="material-symbols-file-map-desc">文件文档 - Material Symbols - file_map - Apache-2.0</desc><path fill="currentColor" d="M180-120q-24 0-42-18t-18-42v-600q0-24 18-42t42-18h600q24 0 42 18t18 42v600q0 24-18 42t-42 18H180Zm0-60h600v-600H180v600Zm300-59q98.01-82.58 146.01-153.58Q674-463.58 674-524q0-91-58.6-144-58.61-53-135.4-53t-135.4 53Q286-615 286-524q0 60 48.5 131T480-239Zm-39.5-245.5Q424-501 424-524t16.5-39.5Q457-580 480-580t39.5 16.5Q536-547 536-524t-16.5 39.5Q503-468 480-468t-39.5-16.5ZM180-180v-600 600Z"/></svg>