<?xml version="1.0" encoding="UTF-8"?>
<svg xmlns="http://www.w3.org/2000/svg" viewBox="0 0 64 64" width="64" height="64" color="#16a34a" role="img" aria-labelledby="compressed-air-storage-unit-title compressed-air-storage-unit-desc">
  <title id="compressed-air-storage-unit-title">压缩空气储能</title>
  <desc id="compressed-air-storage-unit-desc">储能场景 - 复用 燃气能源 / pressure</desc>
  <g transform="translate(8 8) scale(1.5)">
<path fill="currentColor" d="M17.5053,16l8.1591-7.2529A1,1,0,0,0,25,7H22V2H20V9h2.37L16,14.6621,9.63,9H12V2H10V7H7a1,1,0,0,0-.6646,1.7471L14.4945,16,6.3353,23.2529A1,1,0,0,0,7,25h3v5h2V23H9.63L16,17.3379,22.37,23H20v7h2V25h3a1,1,0,0,0,.6645-1.7471Z"/>
  </g>
  <g>
<path d="M46 46h14v14H46z" fill="none" stroke="currentColor" stroke-width="2.6" stroke-linecap="round" stroke-linejoin="round"/><circle cx="48" cy="43" r="1" fill="none" stroke="currentColor" stroke-width="2.6" stroke-linecap="round" stroke-linejoin="round"/><path d="M48 43L49 47" fill="none" stroke="currentColor" stroke-width="2.6" stroke-linecap="round" stroke-linejoin="round"/><circle cx="49" cy="48" r="1.1" fill="none" stroke="currentColor" stroke-width="2.6" stroke-linecap="round" stroke-linejoin="round"/>
  </g>
</svg>
