<?xml version="1.0" encoding="UTF-8"?>
<svg xmlns="http://www.w3.org/2000/svg" viewBox="0 0 64 64" width="64" height="64" color="#16a34a" role="img" aria-labelledby="ems-unit-title ems-unit-desc">
  <title id="ems-unit-title">EMS能量管理</title>
  <desc id="ems-unit-desc">储能场景 - 复用 变电环节 / control-panel</desc>
  <g transform="translate(8 8) scale(1.5)">
<path fill="currentColor" d="M30,30.36H2c-0.199,0-0.36-0.161-0.36-0.36V2	c0-0.199,0.161-0.36,0.36-0.36h28c0.199,0,0.36,0.161,0.36,0.36v28C30.36,30.199,30.199,30.36,30,30.36z M2.36,29.64h27.28V2.36	H2.36V29.64z M9,25.36c-0.75,0-1.36-0.61-1.36-1.36c0-0.625,0.424-1.153,1-1.312V7h0.72v15.688c0.576,0.158,1,0.687,1,1.312	C10.36,24.75,9.75,25.36,9,25.36z M9,23.36c-0.353,0-0.64,0.287-0.64,0.64S8.647,24.64,9,24.64S9.64,24.353,9.64,24	S9.353,23.36,9,23.36z M23.36,25h-0.72V9.312c-0.575-0.158-1-0.686-1-1.312c0-0.75,0.61-1.36,1.36-1.36S24.36,7.25,24.36,8	c0,0.625-0.425,1.153-1,1.312V25z M23,7.36c-0.353,0-0.64,0.287-0.64,0.64S22.647,8.64,23,8.64S23.64,8.353,23.64,8	S23.353,7.36,23,7.36z M16.36,25h-0.72v-7.688c-0.576-0.158-1-0.686-1-1.312s0.424-1.153,1-1.312V7h0.72v7.688	c0.576,0.158,1,0.686,1,1.312c0,0.626-0.425,1.153-1,1.312V25z M16,15.36c-0.353,0-0.64,0.287-0.64,0.64s0.287,0.64,0.64,0.64	s0.64-0.287,0.64-0.64S16.353,15.36,16,15.36z"/>
  </g>
  <g>
<path d="M46 46h14v14H46z" fill="none" stroke="currentColor" stroke-width="2.6" stroke-linecap="round" stroke-linejoin="round"/><circle cx="53" cy="44" r="1" fill="none" stroke="currentColor" stroke-width="2.6" stroke-linecap="round" stroke-linejoin="round"/><path d="M53 44L47 42" fill="none" stroke="currentColor" stroke-width="2.6" stroke-linecap="round" stroke-linejoin="round"/><circle cx="46" cy="48" r="1.1" fill="none" stroke="currentColor" stroke-width="2.6" stroke-linecap="round" stroke-linejoin="round"/>
  </g>
</svg>
