<svg xmlns="http://www.w3.org/2000/svg" viewBox="0 0 256 256" fill="currentColor" color="#2563eb" role="img" aria-labelledby="phosphor-device-rotate-title phosphor-device-rotate-desc">
  <title id="phosphor-device-rotate-title">device rotate</title>
  <desc id="phosphor-device-rotate-desc">画布工具 - Phosphor Icons - device-rotate - MIT</desc><path fill="currentColor" d="M205.66,221.66l-24,24a8,8,0,0,1-11.32-11.32L180.69,224H80a24,24,0,0,1-24-24V104a8,8,0,0,1,16,0v96a8,8,0,0,0,8,8H180.69l-10.35-10.34a8,8,0,0,1,11.32-11.32l24,24A8,8,0,0,1,205.66,221.66ZM80,72a8,8,0,0,0,5.66-13.66L75.31,48H176a8,8,0,0,1,8,8v96a8,8,0,0,0,16,0V56a24,24,0,0,0-24-24H75.31L85.66,21.66A8,8,0,1,0,74.34,10.34l-24,24a8,8,0,0,0,0,11.32l24,24A8,8,0,0,0,80,72Z"/></svg>