<svg xmlns="http://www.w3.org/2000/svg" viewBox="0 0 256 256" fill="currentColor" color="#2563eb" role="img" aria-labelledby="phosphor-ruler-title phosphor-ruler-desc">
  <title id="phosphor-ruler-title">ruler</title>
  <desc id="phosphor-ruler-desc">画布工具 - Phosphor Icons - ruler - MIT</desc><path fill="currentColor" d="M235.32,73.37,182.63,20.69a16,16,0,0,0-22.63,0L20.68,160a16,16,0,0,0,0,22.63l52.69,52.68a16,16,0,0,0,22.63,0L235.32,96A16,16,0,0,0,235.32,73.37ZM84.68,224,32,171.31l32-32,26.34,26.35a8,8,0,0,0,11.32-11.32L75.31,128,96,107.31l26.34,26.35a8,8,0,0,0,11.32-11.32L107.31,96,128,75.31l26.34,26.35a8,8,0,0,0,11.32-11.32L139.31,64l32-32L224,84.69Z"/></svg>