<svg xmlns="http://www.w3.org/2000/svg" viewBox="0 0 256 256" fill="currentColor" color="#2563eb" role="img" aria-labelledby="phosphor-align-left-title phosphor-align-left-desc">
  <title id="phosphor-align-left-title">align left</title>
  <desc id="phosphor-align-left-desc">画布工具 - Phosphor Icons - align-left - MIT</desc><path fill="currentColor" d="M48,40V216a8,8,0,0,1-16,0V40a8,8,0,0,1,16,0Zm16,64V64A16,16,0,0,1,80,48h96a16,16,0,0,1,16,16v40a16,16,0,0,1-16,16H80A16,16,0,0,1,64,104Zm16,0h96V64H80Zm152,48v40a16,16,0,0,1-16,16H80a16,16,0,0,1-16-16V152a16,16,0,0,1,16-16H216A16,16,0,0,1,232,152Zm-16,40V152H80v40H216Z"/></svg>