<?xml version="1.0" encoding="UTF-8"?>
<svg xmlns="http://www.w3.org/2000/svg" viewBox="0 0 64 64" width="64" height="64" color="#06b6d4" role="img" aria-labelledby="hydrogen-tank-title hydrogen-tank-desc">
  <title id="hydrogen-tank-title">储氢罐</title>
  <desc id="hydrogen-tank-desc">储能 - 复用 氢能储能 / storage-tank</desc>
  <g transform="translate(8 8) scale(2)">
<path fill="currentColor" d="M17 6H16V5C16 3.9 15.1 3 14 3H10C8.9 3 8 3.9 8 5V6H7C3.69 6 1 8.69 1 12S3.69 18 7 18V21H9V18H15V21H17V18C20.31 18 23 15.31 23 12S20.31 6 17 6M10 5H14V6H10V5Z" />
  </g>
  <g>
<path d="M46 46h14v14H46z" fill="none" stroke="currentColor" stroke-width="2.6" stroke-linecap="round" stroke-linejoin="round"/><circle cx="51" cy="40" r="1" fill="none" stroke="currentColor" stroke-width="2.6" stroke-linecap="round" stroke-linejoin="round"/><path d="M51 40L45 45" fill="none" stroke="currentColor" stroke-width="2.6" stroke-linecap="round" stroke-linejoin="round"/><circle cx="45" cy="48" r="1.1" fill="none" stroke="currentColor" stroke-width="2.6" stroke-linecap="round" stroke-linejoin="round"/>
  </g>
</svg>
