<?xml version="1.0" encoding="UTF-8"?>
<svg xmlns="http://www.w3.org/2000/svg" viewBox="0 0 64 64" width="64" height="64" color="#f59e0b" role="img" aria-labelledby="solar-panel-title solar-panel-desc">
  <title id="solar-panel-title">光伏板</title>
  <desc id="solar-panel-desc">新能源与发电 - 复用 风光水发电 / solar-panel</desc>
  <g transform="translate(8 8) scale(2)">
<path fill="currentColor" d="M11 2h2" />
  <path fill="currentColor" d="m14.28 14-4.56 8" />
  <path fill="currentColor" d="m21 22-1.558-4H4.558" />
  <path fill="currentColor" d="M3 10v2" />
  <path fill="currentColor" d="M6.245 15.04A2 2 0 0 1 8 14h12a1 1 0 0 1 .864 1.505l-3.11 5.457A2 2 0 0 1 16 22H4a1 1 0 0 1-.863-1.506z" />
  <path fill="currentColor" d="M7 2a4 4 0 0 1-4 4" />
  <path fill="currentColor" d="m8.66 7.66 1.41 1.41" />
  </g>
  <g>
<path d="M46 46h14v14H46z" fill="none" stroke="currentColor" stroke-width="2.6" stroke-linecap="round" stroke-linejoin="round"/><circle cx="54" cy="52" r="1.35" fill="none" stroke="currentColor" stroke-width="2.6" stroke-linecap="round" stroke-linejoin="round"/><path d="M54 52L55 53" fill="none" stroke="currentColor" stroke-width="2.6" stroke-linecap="round" stroke-linejoin="round"/><circle cx="52" cy="55" r="1.1" fill="none" stroke="currentColor" stroke-width="2.6" stroke-linecap="round" stroke-linejoin="round"/>
  </g>
</svg>
