<svg xmlns="http://www.w3.org/2000/svg" width="48" height="48" viewBox="0 -960 960 960" color="#2563eb" role="img" aria-labelledby="material-symbols-background-grid-small-title material-symbols-background-grid-small-desc">
  <title id="material-symbols-background-grid-small-title">background grid small</title>
  <desc id="material-symbols-background-grid-small-desc">输电环节 - Material Symbols - background_grid_small - Apache-2.0</desc><path fill="currentColor" d="M180-180h105v-105H180v105Zm165 0h105v-105H345v105Zm165 0h105v-105H510v105Zm165 0h105v-105H675v105ZM180-675h105v-105H180v105Zm0 165h105v-105H180v105Zm0 165h105v-105H180v105Zm165-330h105v-105H345v105Zm0 165h105v-105H345v105Zm0 165h105v-105H345v105Zm165-330h105v-105H510v105Zm0 165h105v-105H510v105Zm0 165h105v-105H510v105Zm165-330h105v-105H675v105Zm0 165h105v-105H675v105Zm0 165h105v-105H675v105ZM180-120q-24 0-42-18t-18-42v-600q0-24 18-42t42-18h600q24 0 42 18t18 42v600q0 24-18 42t-42 18H180Z"/></svg>