<svg width="24" height="24" viewBox="0 0 20 20" xmlns="http://www.w3.org/2000/svg" color="#2563eb" role="img" aria-labelledby="voicemail-arrow-forward-title voicemail-arrow-forward-desc">
  <title id="voicemail-arrow-forward-title">Voicemail Arrow Forward</title>
  <desc id="voicemail-arrow-forward-desc">邮件日程 - voicemail_arrow_forward, 20px regular</desc><path fill="currentColor" d="M8.73 9A2 2 0 1 1 7 8h6a2 2 0 0 1 1.74 1 5.6 5.6 0 0 0-1.3.1 1 1 0 0 0-1.33.45c-.4.19-.76.42-1.1.7A2.02 2.02 0 0 1 11.27 9H8.73ZM6 10a1 1 0 1 0 2 0 1 1 0 0 0-2 0Zm11-4v3.6c.36.18.7.4 1 .66V6a2 2 0 0 0-2-2H4a2 2 0 0 0-2 2v8c0 1.1.9 2 2 2h5.2c-.08-.32-.15-.66-.18-1H4a1 1 0 0 1-1-1V6a1 1 0 0 1 1-1h12a1 1 0 0 1 1 1Zm-7 8.5a4.5 4.5 0 1 0 9 0 4.5 4.5 0 0 0-9 0Zm5.4-2.6c.2-.2.5-.2.7 0l1.75 1.75a.5.5 0 0 1 0 .7L16.1 16.1a.5.5 0 0 1-.7-.7l.9-.9h-1.55c-.97 0-1.75.78-1.75 1.75v.25a.5.5 0 0 1-1 0v-.25a2.75 2.75 0 0 1 2.75-2.75h1.54l-.9-.9a.5.5 0 0 1 0-.7Z"/></svg>