<svg xmlns="http://www.w3.org/2000/svg" viewBox="0 0 640 512" color="#2563eb" role="img" aria-labelledby="fontawesome-solid-battery-title fontawesome-solid-battery-desc">
  <title id="fontawesome-solid-battery-title">battery</title>
  <desc id="fontawesome-solid-battery-desc">能源通用 - Font Awesome Free Solid - battery - (CC-BY-4.0 AND OFL-1.1 AND MIT)</desc><!--! Font Awesome Free 7.2.0 by @fontawesome - https://fontawesome.com License - https://fontawesome.com/license/free (Icons: CC BY 4.0, Fonts: SIL OFL 1.1, Code: MIT License) Copyright 2026 Fonticons, Inc. --><path fill="currentColor" d="M528 128c8.8 0 16 7.2 16 16l0 224c0 8.8-7.2 16-16 16l-416 0c-8.8 0-16-7.2-16-16l0-224c0-8.8 7.2-16 16-16l416 0zM112 64c-44.2 0-80 35.8-80 80l0 224c0 44.2 35.8 80 80 80l416 0c44.2 0 80-35.8 80-80l0-48c17.7 0 32-14.3 32-32l0-64c0-17.7-14.3-32-32-32l0-48c0-44.2-35.8-80-80-80L112 64zm56 112c-13.3 0-24 10.7-24 24l0 112c0 13.3 10.7 24 24 24l304 0c13.3 0 24-10.7 24-24l0-112c0-13.3-10.7-24-24-24l-304 0z"/></svg>