<svg xmlns="http://www.w3.org/2000/svg" width="24" height="24" viewBox="0 0 24 24" color="#2563eb" role="img" aria-labelledby="line-md-cloud-up-title line-md-cloud-up-desc">
  <title id="line-md-cloud-up-title">cloud up</title>
  <desc id="line-md-cloud-up-desc">协作通信 - Line MD - cloud-up - MIT</desc>
	<g fill="none" stroke="currentColor" stroke-linecap="round" stroke-linejoin="round" stroke-width="2">
		<path fill="currentColor" d="M8 19h-1c-2.5 0 -4 -2 -4 -4c0 -2 1.5 -4 4 -4c1 0 1.5 0.5 1.5 0.5M16 19h1c2.5 0 4 -2 4 -4c0 -2 -1.5 -4 -4 -4c-1 0 -1.5 0.5 -1.5 0.5" stroke-dasharray="18">
			<animate attributeName="stroke-dashoffset" dur="0.5s" fill="freeze" values="18;0" />
		</path>
		<path fill="currentColor" d="M7 11v-1c0 -2.5 2 -5 5 -5M17 11v-1c0 -2.5 -2 -5 -5 -5" stroke-dasharray="12" stroke-dashoffset="12">
			<animate attributeName="stroke-dashoffset" begin="0.5s" dur="0.4s" fill="freeze" to="0" />
		</path>
		<path fill="currentColor" d="M12 20v-6" stroke-dasharray="8" stroke-dashoffset="8">
			<animate attributeName="stroke-dashoffset" begin="0.9s" dur="0.2s" fill="freeze" to="0" />
		</path>
		<path fill="currentColor" d="M12 13l2 2M12 13l-2 2" stroke-dasharray="6" stroke-dashoffset="6">
			<animate attributeName="stroke-dashoffset" begin="1.1s" dur="0.2s" fill="freeze" to="0" />
		</path>
	</g>
</svg>
