<svg width="24" height="24" viewBox="0 0 20 20" xmlns="http://www.w3.org/2000/svg" color="#2563eb" role="img" aria-labelledby="music-note-2-play-title music-note-2-play-desc">
  <title id="music-note-2-play-title">Music Note 2 Play</title>
  <desc id="music-note-2-play-desc">媒体素材 - music_note_2_play, 20px regular</desc><path fill="currentColor" d="M14.7 2.23a1 1 0 0 1 1.3.95v6.03c-.32-.1-.66-.16-1-.19V6.18L8 8.37v7.13a2.5 2.5 0 1 1-1-2V5.37a1 1 0 0 1 .7-.96l7-2.18ZM8 7.32l7-2.19V3.18L8 5.37v1.95ZM5.5 14a1.5 1.5 0 1 0 0 3 1.5 1.5 0 0 0 0-3Zm13.5.5a4.5 4.5 0 1 1-9 0 4.5 4.5 0 0 1 9 0Zm-2.26-.44-3-1.65a.5.5 0 0 0-.74.44v3.3c0 .38.4.62.74.44l3-1.65a.5.5 0 0 0 0-.88Z"/></svg>