<svg xmlns="http://www.w3.org/2000/svg" id="mdi-beaker-outline" viewBox="0 0 24 24" color="#2563eb" role="img" aria-labelledby="material-design-icons-beaker-outline-title material-design-icons-beaker-outline-desc">
  <title id="material-design-icons-beaker-outline-title">beaker outline</title>
  <desc id="material-design-icons-beaker-outline-desc">教育科研 - Material Design Icons - beaker-outline - Apache-2.0</desc><path fill="currentColor" d="M3,3H21V5A2,2 0 0,0 19,7V19A2,2 0 0,1 17,21H7A2,2 0 0,1 5,19V7A2,2 0 0,0 3,5V3M7,5V7H12V8H7V9H10V10H7V11H10V12H7V13H12V14H7V15H10V16H7V19H17V5H7Z" /></svg>