<svg xmlns="http://www.w3.org/2000/svg" id="mdi-flask-empty" viewBox="0 0 24 24" color="#2563eb" role="img" aria-labelledby="material-design-icons-flask-empty-title material-design-icons-flask-empty-desc">
  <title id="material-design-icons-flask-empty-title">flask empty</title>
  <desc id="material-design-icons-flask-empty-desc">教育科研 - Material Design Icons - flask-empty - Apache-2.0</desc><path fill="currentColor" d="M6,22A3,3 0 0,1 3,19C3,18.4 3.18,17.84 3.5,17.37L9,7.81V6A1,1 0 0,1 8,5V4A2,2 0 0,1 10,2H14A2,2 0 0,1 16,4V5A1,1 0 0,1 15,6V7.81L20.5,17.37C20.82,17.84 21,18.4 21,19A3,3 0 0,1 18,22H6Z" /></svg>