<svg xmlns="http://www.w3.org/2000/svg" id="mdi-certificate" viewBox="0 0 24 24" color="#2563eb" role="img" aria-labelledby="material-design-icons-certificate-title material-design-icons-certificate-desc">
  <title id="material-design-icons-certificate-title">certificate</title>
  <desc id="material-design-icons-certificate-desc">教育科研 - Material Design Icons - certificate - Apache-2.0</desc><path fill="currentColor" d="M4,3C2.89,3 2,3.89 2,5V15A2,2 0 0,0 4,17H12V22L15,19L18,22V17H20A2,2 0 0,0 22,15V8L22,6V5A2,2 0 0,0 20,3H16V3H4M12,5L15,7L18,5V8.5L21,10L18,11.5V15L15,13L12,15V11.5L9,10L12,8.5V5M4,5H9V7H4V5M4,9H7V11H4V9M4,13H9V15H4V13Z" /></svg>