<svg width="11" height="11" viewBox="0 0 11 11" xmlns="http://www.w3.org/2000/svg" fill="currentColor" color="#2563eb" role="img" aria-labelledby="vscode-codicons-add-small-title vscode-codicons-add-small-desc">
  <title id="vscode-codicons-add-small-title">add small</title>
  <desc id="vscode-codicons-add-small-desc">通用命令 - VS Code Codicons - add-small - CC-BY-4.0</desc><path fill="currentColor" d="M11 5.5C11 5.776 10.776 6 10.5 6H6V10.5C6 10.776 5.776 11 5.5 11C5.224 11 5 10.776 5 10.5V6H0.5C0.224 6 0 5.776 0 5.5C0 5.224 0.224 5 0.5 5H5V0.5C5 0.224 5.224 0 5.5 0C5.776 0 6 0.224 6 0.5V5H10.5C10.776 5 11 5.224 11 5.5Z"/></svg>