<svg width="16" height="16" viewBox="0 0 16 16" xmlns="http://www.w3.org/2000/svg" fill="currentColor" color="#2563eb" role="img" aria-labelledby="vscode-codicons-add-title vscode-codicons-add-desc">
  <title id="vscode-codicons-add-title">add</title>
  <desc id="vscode-codicons-add-desc">通用命令 - VS Code Codicons - add - CC-BY-4.0</desc><path fill="currentColor" d="M8 1.5C8 1.22386 7.77614 1 7.5 1C7.22386 1 7 1.22386 7 1.5V7H1.5C1.22386 7 1 7.22386 1 7.5C1 7.77614 1.22386 8 1.5 8H7V13.5C7 13.7761 7.22386 14 7.5 14C7.77614 14 8 13.7761 8 13.5V8H13.5C13.7761 8 14 7.77614 14 7.5C14 7.22386 13.7761 7 13.5 7H8V1.5Z"/></svg>