<!-- Generator: Adobe Illustrator 18.1.1, SVG Export Plug-In . SVG Version: 6.00 Build 0)  -->
<!DOCTYPE svg PUBLIC "-//W3C//DTD SVG 1.1//EN" "http://www.w3.org/Graphics/SVG/1.1/DTD/svg11.dtd">
<svg version="1.1" id="Fast_backward" xmlns="http://www.w3.org/2000/svg" xmlns:xlink="http://www.w3.org/1999/xlink" x="0px"
	 y="0px" viewBox="0 0 20 20" enable-background="new 0 0 20 20" xml:space="preserve" color="#2563eb" role="img" aria-labelledby="entypo-controller-fast-backward-title entypo-controller-fast-backward-desc">
  <title id="entypo-controller-fast-backward-title">controller fast backward</title>
  <desc id="entypo-controller-fast-backward-desc">电力电子 - Entypo - controller-fast-backward - ISC</desc>
<path fill="currentColor" d="M17.959,4.571L10.756,9.52c0,0-0.279,0.201-0.279,0.481s0.279,0.479,0.279,0.479l7.203,4.951
	C18.531,15.811,19,15.53,19,14.805V5.196C19,4.469,18.531,4.188,17.959,4.571z M8.883,4.571L1.68,9.52c0,0-0.279,0.201-0.279,0.481
	s0.279,0.479,0.279,0.479l7.203,4.951c0.572,0.381,1.041,0.1,1.041-0.625V5.196C9.924,4.469,9.455,4.188,8.883,4.571z"/>
</svg>
