<svg xmlns="http://www.w3.org/2000/svg" id="mdi-code-braces" viewBox="0 0 24 24" color="#2563eb" role="img" aria-labelledby="material-design-icons-code-braces-title material-design-icons-code-braces-desc">
  <title id="material-design-icons-code-braces-title">code braces</title>
  <desc id="material-design-icons-code-braces-desc">开发工具 - Material Design Icons - code-braces - Apache-2.0</desc><path fill="currentColor" d="M8,3A2,2 0 0,0 6,5V9A2,2 0 0,1 4,11H3V13H4A2,2 0 0,1 6,15V19A2,2 0 0,0 8,21H10V19H8V14A2,2 0 0,0 6,12A2,2 0 0,0 8,10V5H10V3M16,3A2,2 0 0,1 18,5V9A2,2 0 0,0 20,11H21V13H20A2,2 0 0,0 18,15V19A2,2 0 0,1 16,21H14V19H16V14A2,2 0 0,1 18,12A2,2 0 0,1 16,10V5H14V3H16Z" /></svg>