<svg width="24" height="24" fill="none" viewBox="0 0 24 24" stroke-width="1.5" stroke="currentColor" stroke-linecap="round" stroke-linejoin="round" xmlns="http://www.w3.org/2000/svg" color="#2563eb" role="img" aria-labelledby="mynaui-contactless-circle-title mynaui-contactless-circle-desc">
  <title id="mynaui-contactless-circle-title">contactless circle</title>
  <desc id="mynaui-contactless-circle-desc">电力电子 - Mynaui Icons - contactless-circle - MIT</desc><path fill="currentColor" d="M8 9.99c.147.646.225 1.319.225 2.01A9 9 0 0 1 8 14.01m2.975-5.59a13 13 0 0 1 .5 3.58 13 13 0 0 1-.5 3.58m3.25-8.72c.513 1.621.79 3.348.79 5.14s-.277 3.519-.79 5.14"/><path fill="currentColor" d="M21 12a9 9 0 1 1-18 0 9 9 0 0 1 18 0"/></svg>