<?xml version="1.0" encoding="UTF-8"?>
<svg xmlns="http://www.w3.org/2000/svg" viewBox="0 0 64 64" width="64" height="64" color="#0f766e" role="img" aria-labelledby="container-yard-title container-yard-desc">
  <title id="container-yard-title">集装箱堆场</title>
  <desc id="container-yard-desc">港口与物流 - 复用 氢能储能 / shipping-container</desc>
  <g transform="translate(8 8) scale(0.1875)">
<path fill="currentColor" d="M236.4,70.65,130.2,40.31a8,8,0,0,0-3.33-.23L21.74,55.1A16.08,16.08,0,0,0,8,70.94V185.06A16.08,16.08,0,0,0,21.74,200.9l105.13,15A8.47,8.47,0,0,0,128,216a7.85,7.85,0,0,0,2.2-.31l106.2-30.34A16.07,16.07,0,0,0,248,170V86A16.07,16.07,0,0,0,236.4,70.65ZM96,120H80V62.94l40-5.72V198.78l-40-5.72V136H96a8,8,0,0,0,0-16ZM24,70.94l40-5.72V120H48a8,8,0,0,0,0,16H64v54.78l-40-5.72ZM136,197.39V58.61L232,86V170Z"/>
  </g>
  <g>
<path d="M46 46h14v14H46z" fill="none" stroke="currentColor" stroke-width="2.6" stroke-linecap="round" stroke-linejoin="round"/><circle cx="49" cy="54" r="1" fill="none" stroke="currentColor" stroke-width="2.6" stroke-linecap="round" stroke-linejoin="round"/><path d="M49 54L50 53" fill="none" stroke="currentColor" stroke-width="2.6" stroke-linecap="round" stroke-linejoin="round"/><circle cx="54" cy="51" r="1.1" fill="none" stroke="currentColor" stroke-width="2.6" stroke-linecap="round" stroke-linejoin="round"/>
  </g>
</svg>
