<svg xmlns="http://www.w3.org/2000/svg" viewBox="0 0 32 32" color="#2563eb" role="img" aria-labelledby="carbon-pipelines-title carbon-pipelines-desc">
  <title id="carbon-pipelines-title">pipelines</title>
  <desc id="carbon-pipelines-desc">火电供热 - Carbon Icons - pipelines - Apache-2.0</desc><path fill="currentColor" d="M22,12h6c1.1028,0,2-.8975,2-2V4c0-1.1025-.8972-2-2-2h-6c-1.1028,0-2,.8975-2,2v2h-9c-2.7571,0-5,2.2432-5,5h-2c-1.1028,0-2,.8975-2,2v6c0,1.1025.8972,2,2,2h2c0,2.7568,2.2429,5,5,5h9v2c0,1.1025.8972,2,2,2h6c1.1028,0,2-.8975,2-2v-6c0-1.1025-.8972-2-2-2h-6c-1.1028,0-2,.8975-2,2v2h-9c-1.6543,0-3-1.3457-3-3h2c1.1028,0,2-.8975,2-2v-6c0-1.1025-.8972-2-2-2h-2c0-1.6543,1.3457-3,3-3h9v2c0,1.1025.8972,2,2,2ZM22,22h6v6h-6l-.0012-6h.0012ZM10,13v6h-6l-.0012-6h6.0012ZM22,4h6v6h-6l-.0012-6h.0012Z"/></svg>