<svg xmlns="http://www.w3.org/2000/svg" width="16" height="16" focusable="false" viewBox="0 0 16 16" color="#2563eb" role="img" aria-labelledby="zendesk-garden-grid-2x2-title zendesk-garden-grid-2x2-desc">
  <title id="zendesk-garden-grid-2x2-title">grid 2x2</title>
  <desc id="zendesk-garden-grid-2x2-desc">画布工具 - Zendesk Garden Icons - grid-2x2 - Apache-2.0</desc>
  <path fill="currentColor" d="M1 1v5h5V1H1zm5 8a1 1 0 011 1v5a1 1 0 01-1 1H1a1 1 0 01-1-1v-5a1 1 0 011-1h5zm9 0a1 1 0 011 1v5a1 1 0 01-1 1h-5a1 1 0 01-1-1v-5a1 1 0 011-1h5zm-9 1H1v5h5v-5zm9 0h-5v5h5v-5zM6 0a1 1 0 011 1v5a1 1 0 01-1 1H1a1 1 0 01-1-1V1a1 1 0 011-1h5zm9 0a1 1 0 011 1v5a1 1 0 01-1 1h-5a1 1 0 01-1-1V1a1 1 0 011-1h5zm0 1h-5v5h5V1z"/>
</svg>
