<?xml version="1.0" encoding="UTF-8"?>
<svg xmlns="http://www.w3.org/2000/svg" viewBox="0 0 64 64" width="64" height="64" color="#334155" role="img" aria-labelledby="pipe-valve-title pipe-valve-desc">
  <title id="pipe-valve-title">管道阀门</title>
  <desc id="pipe-valve-desc">水务环保 - 复用 火电供热 / pipe-valve</desc>
  <g transform="translate(8 8) scale(2)">
<path fill="currentColor" d="M22 13V21H20V19H16.58C15.81 20.76 14.05 22 12 22S8.19 20.76 7.42 19H4V21H2V13H4V15H7.43C7.93 13.85 8.85 12.93 10 12.42V11H8V9H16V11H14V12.42C15.15 12.93 16.07 13.85 16.57 15H20V13H22M17 2H7C6.45 2 6 2.45 6 3S6.45 4 7 4H10V5H11V8H13V5H14V4H17C17.55 4 18 3.55 18 3S17.55 2 17 2Z" />
  </g>
  <g>
<path d="M46 46h14v14H46z" fill="none" stroke="currentColor" stroke-width="2.6" stroke-linecap="round" stroke-linejoin="round"/><circle cx="52" cy="51" r="1.35" fill="none" stroke="currentColor" stroke-width="2.6" stroke-linecap="round" stroke-linejoin="round"/><path d="M52 51L49 52" fill="none" stroke="currentColor" stroke-width="2.6" stroke-linecap="round" stroke-linejoin="round"/><circle cx="55" cy="52" r="1.1" fill="none" stroke="currentColor" stroke-width="2.6" stroke-linecap="round" stroke-linejoin="round"/>
  </g>
</svg>
