<svg xmlns="http://www.w3.org/2000/svg" viewBox="0 0 32 32" color="#2563eb" role="img" aria-labelledby="carbon-connection-signal-title carbon-connection-signal-desc">
  <title id="carbon-connection-signal-title">connection signal</title>
  <desc id="carbon-connection-signal-desc">通信与控制 - Carbon Icons - connection-signal - Apache-2.0</desc><path fill="currentColor" d="M15 12H17V30H15z"/><path fill="currentColor" d="M11.33,18.22a7,7,0,0,1,0-10.44l1.34,1.49a5,5,0,0,0,0,7.46Z"/><path fill="currentColor" d="M20.67,18.22l-1.34-1.49a5,5,0,0,0,0-7.46l1.34-1.49a7,7,0,0,1,0,10.44Z"/><path fill="currentColor" d="M8.4,21.8a11,11,0,0,1,0-17.6L9.6,5.8a9,9,0,0,0,0,14.4Z"/><path fill="currentColor" d="M23.6,21.8l-1.2-1.6a9,9,0,0,0,0-14.4l1.2-1.6a11,11,0,0,1,0,17.6Z"/></svg>