<svg xmlns="http://www.w3.org/2000/svg" viewBox="0 0 32 32" color="#2563eb" role="img" aria-labelledby="carbon-radio-title carbon-radio-desc">
  <title id="carbon-radio-title">radio</title>
  <desc id="carbon-radio-desc">通信与控制 - Carbon Icons - radio - Apache-2.0</desc><path fill="currentColor" d="M28,10H24V2H22v8H13V8H11v2H8V8H6v2H4a2,2,0,0,0-2,2V28a2,2,0,0,0,2,2H28a2,2,0,0,0,2-2V12A2,2,0,0,0,28,10ZM4,28V12H28V28Z"/><path fill="currentColor" d="M10,26a4,4,0,1,1,4-4A4,4,0,0,1,10,26Zm0-6a2,2,0,1,0,2,2A2,2,0,0,0,10,20Z"/><path fill="currentColor" d="M7 14H13V16H7z"/><path fill="currentColor" d="M17 16H26V18H17z"/><path fill="currentColor" d="M17 20H26V22H17z"/><path fill="currentColor" d="M17 24H26V26H17z"/></svg>