<svg xmlns="http://www.w3.org/2000/svg" viewBox="0 0 32 32" color="#2563eb" role="img" aria-labelledby="carbon-radio-combat-title carbon-radio-combat-desc">
  <title id="carbon-radio-combat-title">radio combat</title>
  <desc id="carbon-radio-combat-desc">通信与控制 - Carbon Icons - radio-combat - Apache-2.0</desc><path fill="currentColor" d="M10,26a4,4,0,1,1,4-4A4.0045,4.0045,0,0,1,10,26Zm0-6a2,2,0,1,0,2,2A2.0021,2.0021,0,0,0,10,20Z"/><path fill="currentColor" d="M17 20H26V22H17z"/><path fill="currentColor" d="M17 24H26V26H17z"/><path fill="currentColor" d="M20,12h8a2.0023,2.0023,0,0,0,2-2V6a2.0023,2.0023,0,0,0-2-2H20a2.0023,2.0023,0,0,0-2,2V7H12a4.0045,4.0045,0,0,0-4,4v3H6V4H4V14a2.0023,2.0023,0,0,0-2,2V28a2.0023,2.0023,0,0,0,2,2H28a2.0023,2.0023,0,0,0,2-2V16a2.0023,2.0023,0,0,0-2-2H10V11a2.0023,2.0023,0,0,1,2-2h6v1A2.0023,2.0023,0,0,0,20,12Zm4-6h4v4H24ZM20,6h2v4H20Zm8,22H4V16H28Z"/></svg>