<svg xmlns="http://www.w3.org/2000/svg" width="8" height="8" viewBox="0 0 8 8" color="#2563eb" role="img" aria-labelledby="open-iconic-target-title open-iconic-target-desc">
  <title id="open-iconic-target-title">target</title>
  <desc id="open-iconic-target-desc">业务金融 - Open Iconic - target - MIT</desc>
  <path fill="currentColor" d="M4 0c-2.2 0-4 1.8-4 4s1.8 4 4 4 4-1.8 4-4-1.8-4-4-4zm0 1c1.66 0 3 1.34 3 3s-1.34 3-3 3-3-1.34-3-3 1.34-3 3-3zm0 1c-1.1 0-2 .9-2 2s.9 2 2 2 2-.9 2-2-.9-2-2-2zm0 1c.56 0 1 .44 1 1s-.44 1-1 1-1-.44-1-1 .44-1 1-1z" />
</svg>