<svg
  xmlns="http://www.w3.org/2000/svg"
  width="24"
  height="24"
  viewBox="0 0 24 24"
  fill="none"
  stroke="currentColor"
  stroke-width="2"
  stroke-linecap="round"
  stroke-linejoin="round"
  class="icon icon-tabler icons-tabler-outline icon-tabler-road-sign"
 color="#2563eb" role="img" aria-labelledby="tabler-road-sign-title tabler-road-sign-desc">
  <title id="tabler-road-sign-title">road sign</title>
  <desc id="tabler-road-sign-desc">地图地点 - Tabler Icons - road-sign - MIT</desc>
  <path stroke="none" d="M0 0h24v24H0z" fill="none" />
  <path fill="currentColor" d="M13.446 2.6l7.955 7.954a2.045 2.045 0 0 1 0 2.892l-7.955 7.955a2.045 2.045 0 0 1 -2.892 0l-7.955 -7.955a2.045 2.045 0 0 1 0 -2.892l7.955 -7.955a2.045 2.045 0 0 1 2.892 0" />
  <path fill="currentColor" d="M9 14v-2c0 -.59 .414 -1 1 -1h5" />
  <path fill="currentColor" d="M13 9l2 2l-2 2" />
</svg>