<svg
  xmlns="http://www.w3.org/2000/svg"
  width="24"
  height="24"
  viewBox="0 0 24 24"
  fill="none"
  stroke="currentColor"
  stroke-width="2"
  stroke-linecap="round"
  stroke-linejoin="round"
  class="icon icon-tabler icons-tabler-outline icon-tabler-building-store"
 color="#2563eb" role="img" aria-labelledby="tabler-building-store-title tabler-building-store-desc">
  <title id="tabler-building-store-title">building store</title>
  <desc id="tabler-building-store-desc">地图地点 - Tabler Icons - building-store - MIT</desc>
  <path stroke="none" d="M0 0h24v24H0z" fill="none" />
  <path fill="currentColor" d="M3 21l18 0" />
  <path fill="currentColor" d="M3 7v1a3 3 0 0 0 6 0v-1m0 1a3 3 0 0 0 6 0v-1m0 1a3 3 0 0 0 6 0v-1h-18l2 -4h14l2 4" />
  <path fill="currentColor" d="M5 21l0 -10.15" />
  <path fill="currentColor" d="M19 21l0 -10.15" />
  <path fill="currentColor" d="M9 21v-4a2 2 0 0 1 2 -2h2a2 2 0 0 1 2 2v4" />
</svg>