<svg
  xmlns="http://www.w3.org/2000/svg"
  width="24"
  height="24"
  viewBox="0 0 24 24"
  fill="none"
  stroke="currentColor"
  stroke-width="2"
  stroke-linecap="round"
  stroke-linejoin="round"
  class="icon icon-tabler icons-tabler-outline icon-tabler-parking-off"
 color="#2563eb" role="img" aria-labelledby="tabler-parking-off-title tabler-parking-off-desc">
  <title id="tabler-parking-off-title">parking off</title>
  <desc id="tabler-parking-off-desc">地图地点 - Tabler Icons - parking-off - MIT</desc>
  <path stroke="none" d="M0 0h24v24H0z" fill="none" />
  <path fill="currentColor" d="M8 4h10a2 2 0 0 1 2 2v10m-.582 3.41c-.362 .365 -.864 .59 -1.418 .59h-12a2 2 0 0 1 -2 -2v-12c0 -.554 .225 -1.056 .59 -1.418" />
  <path fill="currentColor" d="M9 16v-7m3 -1h1a2 2 0 0 1 1.817 2.836m-2.817 1.164h-3" />
  <path fill="currentColor" d="M3 3l18 18" />
</svg>