<svg
  xmlns="http://www.w3.org/2000/svg"
  width="24"
  height="24"
  viewBox="0 0 24 24"
  fill="none"
  stroke="currentColor"
  stroke-width="2"
  stroke-linecap="round"
  stroke-linejoin="round"
  class="icon icon-tabler icons-tabler-outline icon-tabler-home-spark"
 color="#2563eb" role="img" aria-labelledby="tabler-home-spark-title tabler-home-spark-desc">
  <title id="tabler-home-spark-title">home spark</title>
  <desc id="tabler-home-spark-desc">地图地点 - Tabler Icons - home-spark - MIT</desc>
  <path stroke="none" d="M0 0h24v24H0z" fill="none" />
  <path fill="currentColor" d="M5 12h-2l9 -9l9 9h-2" />
  <path fill="currentColor" d="M5 12v7a2 2 0 0 0 2 2h5" />
  <path fill="currentColor" d="M9 21v-6a2 2 0 0 1 2 -2h2a2 2 0 0 1 2 2" />
  <path fill="currentColor" d="M19 22.5a4.75 4.75 0 0 1 3.5 -3.5a4.75 4.75 0 0 1 -3.5 -3.5a4.75 4.75 0 0 1 -3.5 3.5a4.75 4.75 0 0 1 3.5 3.5" />
</svg>