<svg
  xmlns="http://www.w3.org/2000/svg"
  width="24"
  height="24"
  viewBox="0 0 24 24"
  fill="none"
  stroke="currentColor"
  stroke-width="2"
  stroke-linecap="round"
  stroke-linejoin="round"
  class="icon icon-tabler icons-tabler-outline icon-tabler-building-airport"
 color="#2563eb" role="img" aria-labelledby="tabler-building-airport-title tabler-building-airport-desc">
  <title id="tabler-building-airport-title">building airport</title>
  <desc id="tabler-building-airport-desc">地图地点 - Tabler Icons - building-airport - MIT</desc>
  <path stroke="none" d="M0 0h24v24H0z" fill="none" />
  <path fill="currentColor" d="M3.59 7h8.82a1 1 0 0 1 .902 1.433l-1.44 3a1 1 0 0 1 -.901 .567h-5.942a1 1 0 0 1 -.901 -.567l-1.44 -3a1 1 0 0 1 .901 -1.433" />
  <path fill="currentColor" d="M6 7l-.78 -2.342a.5 .5 0 0 1 .473 -.658h4.612a.5 .5 0 0 1 .475 .658l-.78 2.342" />
  <path fill="currentColor" d="M8 2v2" />
  <path fill="currentColor" d="M6 12v9h4v-9" />
  <path fill="currentColor" d="M3 21h18" />
  <path fill="currentColor" d="M22 5h-6l-1 -1" />
  <path fill="currentColor" d="M18 3l2 2l-2 2" />
  <path fill="currentColor" d="M10 17h7a2 2 0 0 1 2 2v2" />
</svg>