<svg
  xmlns="http://www.w3.org/2000/svg"
  width="24"
  height="24"
  viewBox="0 0 24 24"
  fill="none"
  stroke="currentColor"
  stroke-width="2"
  stroke-linecap="round"
  stroke-linejoin="round"
  class="icon icon-tabler icons-tabler-outline icon-tabler-buildings"
 color="#2563eb" role="img" aria-labelledby="tabler-buildings-title tabler-buildings-desc">
  <title id="tabler-buildings-title">buildings</title>
  <desc id="tabler-buildings-desc">地图地点 - Tabler Icons - buildings - MIT</desc>
  <path stroke="none" d="M0 0h24v24H0z" fill="none" />
  <path fill="currentColor" d="M4 21v-15c0 -1 1 -2 2 -2h5c1 0 2 1 2 2v15" />
  <path fill="currentColor" d="M16 8h2c1 0 2 1 2 2v11" />
  <path fill="currentColor" d="M3 21h18" />
  <path fill="currentColor" d="M10 12v.01" />
  <path fill="currentColor" d="M10 16v.01" />
  <path fill="currentColor" d="M10 8v.01" />
  <path fill="currentColor" d="M7 12v.01" />
  <path fill="currentColor" d="M7 16v.01" />
  <path fill="currentColor" d="M7 8v.01" />
  <path fill="currentColor" d="M17 12v.01" />
  <path fill="currentColor" d="M17 16v.01" />
</svg>