<svg width="24" height="24" viewBox="0 0 24 24" xmlns="http://www.w3.org/2000/svg" color="#2563eb" role="img" aria-labelledby="xbox-console-title xbox-console-desc">
  <title id="xbox-console-title">Xbox Console</title>
  <desc id="xbox-console-desc">业务金融 - xbox_console, 24px regular</desc><path fill="currentColor" d="M9.5 5.75a.75.75 0 1 1-1.5 0 .75.75 0 0 1 1.5 0ZM5.75 2a.75.75 0 0 0-.75.75v18.5c0 .41.34.75.75.75h12.5c.41 0 .75-.34.75-.75V2.75a.75.75 0 0 0-.75-.75H5.75ZM9.5 20.5v-8.75a.75.75 0 0 0-1.5 0v8.75H6.5v-17h11v17h-8Z"/></svg>