<svg xmlns="http://www.w3.org/2000/svg" width="24" height="24" viewBox="0 0 24 24" color="#2563eb" role="img" aria-labelledby="primer-octicons-crosshairs-title primer-octicons-crosshairs-desc">
  <title id="primer-octicons-crosshairs-title">crosshairs</title>
  <desc id="primer-octicons-crosshairs-desc">气象环境 - Primer Octicons - crosshairs - MIT</desc><path fill="currentColor" d="M21 12a9 9 0 0 1-9 9 9 9 0 0 1-9-9 9 9 0 0 1 9-9 9 9 0 0 1 9 9Zm-1.5 0a7.5 7.5 0 1 0-15 0 7.5 7.5 0 0 0 15 0Z"/><path fill="currentColor" d="M12 .25a.75.75 0 0 1 .75.75v5a.75.75 0 0 1-1.5 0V1A.75.75 0 0 1 12 .25Zm-6 11a.75.75 0 0 1 0 1.5H1a.75.75 0 0 1 0-1.5Zm17 0a.75.75 0 0 1 0 1.5h-5a.75.75 0 0 1 0-1.5Zm-11 6a.75.75 0 0 1 .75.75v5a.75.75 0 0 1-1.5 0v-5a.75.75 0 0 1 .75-.75Z"/></svg>