<svg xmlns="http://www.w3.org/2000/svg" viewBox="0 0 32 32" color="#2563eb" role="img" aria-labelledby="carbon-windy-snow-title carbon-windy-snow-desc">
  <title id="carbon-windy-snow-title">windy snow</title>
  <desc id="carbon-windy-snow-desc">气象环境 - Carbon Icons - windy-snow - Apache-2.0</desc><path fill="currentColor" d="M25,28a5.0057,5.0057,0,0,1-5-5h2a3,3,0,1,0,3-3H6V18H25a5,5,0,0,1,0,10Z"/><path fill="currentColor" d="M23,15H10V13H23a3,3,0,1,0-3-3H18a5,5,0,1,1,5,5Z"/><path fill="currentColor" d="M11 23H13V25H11z"/><path fill="currentColor" d="M13 25H15V27H13z"/><path fill="currentColor" d="M15 27H17V29H15z"/><path fill="currentColor" d="M15 23H17V25H15z"/><path fill="currentColor" d="M11 27H13V29H11z"/><path fill="currentColor" d="M6 4H8V6H6z"/><path fill="currentColor" d="M8 6H10V8H8z"/><path fill="currentColor" d="M10 8H12V10H10z"/><path fill="currentColor" d="M10 4H12V6H10z"/><path fill="currentColor" d="M6 8H8V10H6z"/><path fill="currentColor" d="M2 26H4V28H2z"/><path fill="currentColor" d="M4 28H6V30H4z"/><path fill="currentColor" d="M6 30H8V32H6z"/><path fill="currentColor" d="M6 26H8V28H6z"/><path fill="currentColor" d="M2 30H4V32H2z"/></svg>