<svg xmlns="http://www.w3.org/2000/svg" viewBox="0 0 32 32" color="#2563eb" role="img" aria-labelledby="carbon-windy-dust-title carbon-windy-dust-desc">
  <title id="carbon-windy-dust-title">windy dust</title>
  <desc id="carbon-windy-dust-desc">气象环境 - Carbon Icons - windy-dust - Apache-2.0</desc><path fill="currentColor" d="M23,28a5.0057,5.0057,0,0,1-5-5h2a3,3,0,1,0,3-3H22V18h1a5,5,0,0,1,0,10Z"/><path fill="currentColor" d="M16 18H20V20H16z"/><path fill="currentColor" d="M10 18H14V20H10z"/><path fill="currentColor" d="M4 18H8V20H4z"/><path fill="currentColor" d="M21,15H20V13h1a3,3,0,1,0-3-3H16a5,5,0,1,1,5,5Z"/><path fill="currentColor" d="M14 13H18V15H14z"/><path fill="currentColor" d="M8 13H12V15H8z"/></svg>