<svg xmlns="http://www.w3.org/2000/svg" width="24" height="24" viewBox="0 0 24 24" color="#2563eb" role="img" aria-labelledby="boxicons-lock-alt-title boxicons-lock-alt-desc">
  <title id="boxicons-lock-alt-title">lock alt</title>
  <desc id="boxicons-lock-alt-desc">状态告警 - Boxicons - lock-alt - (CC-BY-4.0 OR OFL-1.1 OR MIT)</desc><path fill="currentColor" d="M12 2C9.243 2 7 4.243 7 7v3H6c-1.103 0-2 .897-2 2v8c0 1.103.897 2 2 2h12c1.103 0 2-.897 2-2v-8c0-1.103-.897-2-2-2h-1V7c0-2.757-2.243-5-5-5zm6 10 .002 8H6v-8h12zm-9-2V7c0-1.654 1.346-3 3-3s3 1.346 3 3v3H9z"/></svg>