<svg xmlns="http://www.w3.org/2000/svg" width="24" height="24" viewBox="0 0 24 24" color="#2563eb" role="img" aria-labelledby="boxicons-target-lock-title boxicons-target-lock-desc">
  <title id="boxicons-target-lock-title">target lock</title>
  <desc id="boxicons-target-lock-desc">状态告警 - Boxicons - target-lock - (CC-BY-4.0 OR OFL-1.1 OR MIT)</desc><circle fill="currentColor" cx="12" cy="12" r="3"/><path fill="currentColor" d="M13 4.069V2h-2v2.069A8.008 8.008 0 0 0 4.069 11H2v2h2.069A8.007 8.007 0 0 0 11 19.931V22h2v-2.069A8.007 8.007 0 0 0 19.931 13H22v-2h-2.069A8.008 8.008 0 0 0 13 4.069zM12 18c-3.309 0-6-2.691-6-6s2.691-6 6-6 6 2.691 6 6-2.691 6-6 6z"/></svg>