<svg xmlns="http://www.w3.org/2000/svg" viewBox="0 0 512 512" class="ionicon" color="#2563eb" role="img" aria-labelledby="ionicons-qr-code-title ionicons-qr-code-desc">
  <title id="ionicons-qr-code-title">qr code</title>
  <desc id="ionicons-qr-code-desc">开发工具 - Ionicons - qr-code - MIT</desc><rect fill="currentColor" width="80" height="80" x="336" y="336" rx="8" ry="8"/><rect fill="currentColor" width="64" height="64" x="272" y="272" rx="8" ry="8"/><rect fill="currentColor" width="64" height="64" x="416" y="416" rx="8" ry="8"/><rect fill="currentColor" width="48" height="48" x="432" y="272" rx="8" ry="8"/><rect fill="currentColor" width="48" height="48" x="272" y="432" rx="8" ry="8"/><rect fill="currentColor" width="80" height="80" x="336" y="96" rx="8" ry="8"/><rect fill="currentColor" width="176" height="176" x="288" y="48" rx="16" ry="16" stroke-linecap="round" stroke-linejoin="round" class="ionicon-fill-none ionicon-stroke-width"/><rect fill="currentColor" width="80" height="80" x="96" y="96" rx="8" ry="8"/><rect fill="currentColor" width="176" height="176" x="48" y="48" rx="16" ry="16" stroke-linecap="round" stroke-linejoin="round" class="ionicon-fill-none ionicon-stroke-width"/><rect fill="currentColor" width="80" height="80" x="96" y="336" rx="8" ry="8"/><rect fill="currentColor" width="176" height="176" x="48" y="288" rx="16" ry="16" stroke-linecap="round" stroke-linejoin="round" class="ionicon-fill-none ionicon-stroke-width"/></svg>