<svg xmlns="http://www.w3.org/2000/svg" id="mdi-tablet-dashboard" viewBox="0 0 24 24" color="#2563eb" role="img" aria-labelledby="material-design-icons-tablet-dashboard-title material-design-icons-tablet-dashboard-desc">
  <title id="material-design-icons-tablet-dashboard-title">tablet dashboard</title>
  <desc id="material-design-icons-tablet-dashboard-desc">数据图表 - Material Design Icons - tablet-dashboard - Apache-2.0</desc><path fill="currentColor" d="M19,18H5V6H19M21,4H3C1.89,4 1,4.89 1,6V18A2,2 0 0,0 3,20H21A2,2 0 0,0 23,18V6C23,4.89 22.1,4 21,4M7,8H13V13H7V8M14,8H17V10H14V8M17,11V16H14V11H17M7,14H13V16H7V14Z" /></svg>