<!-- @license lucide-static v1.21.0 - ISC -->
<svg
  class="lucide lucide-house-plug"
  xmlns="http://www.w3.org/2000/svg"
  width="24"
  height="24"
  viewBox="0 0 24 24"
  fill="none"
  stroke="currentColor"
  stroke-width="2"
  stroke-linecap="round"
  stroke-linejoin="round"
 color="#2563eb" role="img" aria-labelledby="lucide-house-plug-title lucide-house-plug-desc">
  <title id="lucide-house-plug-title">house plug</title>
  <desc id="lucide-house-plug-desc">用电环节 - Lucide - house-plug - ISC</desc>
  <path fill="currentColor" d="M10 12V8.964" />
  <path fill="currentColor" d="M14 12V8.964" />
  <path fill="currentColor" d="M15 12a1 1 0 0 1 1 1v2a2 2 0 0 1-2 2h-4a2 2 0 0 1-2-2v-2a1 1 0 0 1 1-1z" />
  <path fill="currentColor" d="M8.5 21H5a2 2 0 0 1-2-2v-9a2 2 0 0 1 .709-1.528l7-6a2 2 0 0 1 2.582 0l7 6A2 2 0 0 1 21 10v9a2 2 0 0 1-2 2h-5a2 2 0 0 1-2-2v-2" />
</svg>
