<svg xmlns="http://www.w3.org/2000/svg" width="48" height="48" viewBox="0 -960 960 960" color="#2563eb" role="img" aria-labelledby="material-symbols-ac-unit-title material-symbols-ac-unit-desc">
  <title id="material-symbols-ac-unit-title">ac unit</title>
  <desc id="material-symbols-ac-unit-desc">电力电子 - Material Symbols - ac_unit - Apache-2.0</desc><path fill="currentColor" d="M450-80v-195L301-126l-43-42 192-192v-90h-90L172-262l-44-41 147-147H80v-60h195L125-660l43-43 192 193h90v-91L262-789l42-44 146 147v-194h60v194l150-150 42 43-192 192v91h91l189-189 43 42-147 147h194v60H686l148 149-41 43-192-192h-91v90l192 193-41 43-151-151v195h-60Z"/></svg>