<svg xmlns="http://www.w3.org/2000/svg" width="24" height="24" viewBox="0 0 24 24" color="#2563eb" role="img" aria-labelledby="boxicons-radio-circle-marked-title boxicons-radio-circle-marked-desc">
  <title id="boxicons-radio-circle-marked-title">radio circle marked</title>
  <desc id="boxicons-radio-circle-marked-desc">通信与控制 - Boxicons - radio-circle-marked - (CC-BY-4.0 OR OFL-1.1 OR MIT)</desc><path fill="currentColor" d="M12 5c-3.859 0-7 3.141-7 7s3.141 7 7 7 7-3.141 7-7-3.141-7-7-7zm0 12c-2.757 0-5-2.243-5-5s2.243-5 5-5 5 2.243 5 5-2.243 5-5 5z"/><path fill="currentColor" d="M12 9c-1.627 0-3 1.373-3 3s1.373 3 3 3 3-1.373 3-3-1.373-3-3-3z"/></svg>