<!-- Generated by IcoMoon.io -->
<!DOCTYPE svg PUBLIC "-//W3C//DTD SVG 1.1//EN" "http://www.w3.org/Graphics/SVG/1.1/DTD/svg11.dtd">
<svg version="1.1" xmlns="http://www.w3.org/2000/svg" xmlns:xlink="http://www.w3.org/1999/xlink" width="16" height="16" viewBox="0 0 16 16" color="#2563eb" role="img" aria-labelledby="vaadin-chart-grid-title vaadin-chart-grid-desc">
  <title id="vaadin-chart-grid-title">chart grid</title>
  <desc id="vaadin-chart-grid-desc">画布工具 - Vaadin Icons - chart-grid - Apache-2.0</desc>
<path fill="#444" d="M0 9v7h16v-7h-16zM5 15h-4v-1h4v1zM5 13h-4v-1h4v1zM5 11h-4v-1h4v1zM10 15h-4v-1h4v1zM10 13h-4v-1h4v1zM10 11h-4v-1h4v1zM15 15h-4v-1h4v1zM15 13h-4v-1h4v1zM15 11h-4v-1h4v1z"></path>
<path fill="#444" d="M16 8h-16v-8h1v7h15v1z"></path>
<path fill="#444" d="M15 1.57l-5.020 2.86-3.96-1.98-4.020 1.61v1.080l3.98-1.59 4.040 2.020 4.98-2.85v-1.15z"></path>
</svg>
