<svg width="24" height="24" viewBox="0 0 24 24" xmlns="http://www.w3.org/2000/svg" color="#2563eb" role="img" aria-labelledby="ikonate-switch-off-title ikonate-switch-off-desc">
  <title id="ikonate-switch-off-title">switch off</title>
  <desc id="ikonate-switch-off-desc">电力电网 - Ikonate - switch-off - MIT</desc>
	<path fill="currentColor" fill-rule="evenodd" clip-rule="evenodd" d="M7 14C5.89543 14 5 13.1046 5 12C5 10.8954 5.89543 10 7 10C8.10457 10 9 10.8954 9 12C9 13.1046 8.10457 14 7 14Z"/>
	<path fill="currentColor" d="M7 17C4.23858 17 2 14.7614 2 12V12C2 9.23858 4.23858 7 7 7L16 7C18.7614 7 21 9.23858 21 12V12C21 14.7614 18.7614 17 16 17L7 17Z"/>
</svg>