<svg xmlns="http://www.w3.org/2000/svg" width="24" height="24" fill="none" viewBox="0 0 24 24" color="#2563eb" role="img" aria-labelledby="flowbite-restore-window-title flowbite-restore-window-desc">
  <title id="flowbite-restore-window-title">restore window</title>
  <desc id="flowbite-restore-window-desc">能源通用 - Flowbite Icons - restore-window - MIT</desc>
  <path stroke="currentColor" stroke-linecap="round" stroke-linejoin="round" stroke-width="2" d="M3 11.5h13m-13 0V18a1 1 0 0 0 1 1h11a1 1 0 0 0 1-1v-6.5m-13 0V9a1 1 0 0 1 1-1h11a1 1 0 0 1 1 1v2.5M9 5h11a1 1 0 0 1 1 1v9a1 1 0 0 1-1 1h-1"/>
</svg>
