<svg xmlns="http://www.w3.org/2000/svg" width="24" height="24" fill="none" viewBox="0 0 24 24" color="#2563eb" role="img" aria-labelledby="flowbite-battery-title flowbite-battery-desc">
  <title id="flowbite-battery-title">battery</title>
  <desc id="flowbite-battery-desc">能源通用 - Flowbite Icons - battery - MIT</desc>
  <path stroke="currentColor" stroke-linejoin="round" stroke-width="2" d="M2.98755 7.97095c0-.55229.44771-1 1-1H16.9253c.5523 0 1 .44771 1 1v7.95855c0 .5522-.4477 1-1 1H3.98755c-.55229 0-1-.4478-1-1V7.97095ZM20.9129 12.9419v-1.9834c0-.5523-.4478-1-1-1h-.9876c-.5523 0-1 .4477-1 1v1.9834c0 .5523.4477 1 1 1h.9876c.5522 0 1-.4477 1-1Z"/>
  <path stroke="currentColor" stroke-linejoin="round" stroke-width="2" d="M5.9751 9.9585h8.9627v3.9834H5.9751V9.9585Z"/>
</svg>
