<svg xmlns="http://www.w3.org/2000/svg" width="24" height="24" viewBox="0 0 24 24" color="#2563eb" role="img" aria-labelledby="boxicons-speaker-title boxicons-speaker-desc">
  <title id="boxicons-speaker-title">speaker</title>
  <desc id="boxicons-speaker-desc">媒体素材 - Boxicons - speaker - (CC-BY-4.0 OR OFL-1.1 OR MIT)</desc><path fill="currentColor" d="M18 2H6a2 2 0 0 0-2 2v16a2 2 0 0 0 2 2h12a2 2 0 0 0 2-2V4a2 2 0 0 0-2-2zm0 18H6V4h12z"/><path fill="currentColor" d="M12 19a4 4 0 1 0-4-4 4 4 0 0 0 4 4zm0-6a2 2 0 1 1-2 2 2 2 0 0 1 2-2z"/><circle fill="currentColor" cx="12.01" cy="7" r="2"/></svg>