<svg xmlns="http://www.w3.org/2000/svg" width="24" height="24" viewBox="0 0 24 24" color="#2563eb" role="img" aria-labelledby="boxicons-music-title boxicons-music-desc">
  <title id="boxicons-music-title">music</title>
  <desc id="boxicons-music-desc">媒体素材 - Boxicons - music - (CC-BY-4.0 OR OFL-1.1 OR MIT)</desc><path fill="currentColor" d="m19.684 5.821-9-3.272A1.998 1.998 0 0 0 8 4.428v6.129A3.953 3.953 0 0 0 6 10c-2.206 0-4 1.794-4 4s1.794 4 4 4 4-1.794 4-4V4.428L19 7.7v6.856A3.962 3.962 0 0 0 17 14c-2.206 0-4 1.794-4 4s1.794 4 4 4 4-1.794 4-4V7.7c0-.838-.529-1.594-1.316-1.879zM6 16c-1.103 0-2-.897-2-2s.897-2 2-2 2 .897 2 2-.897 2-2 2zm11 4c-1.103 0-2-.897-2-2s.897-2 2-2 2 .897 2 2-.897 2-2 2z"/></svg>