<!-- @license lucide-static v1.21.0 - ISC -->
<svg
  class="lucide lucide-cable"
  xmlns="http://www.w3.org/2000/svg"
  width="24"
  height="24"
  viewBox="0 0 24 24"
  fill="none"
  stroke="currentColor"
  stroke-width="2"
  stroke-linecap="round"
  stroke-linejoin="round"
 color="#2563eb" role="img" aria-labelledby="lucide-cable-title lucide-cable-desc">
  <title id="lucide-cable-title">cable</title>
  <desc id="lucide-cable-desc">能源通用 - Lucide - cable - ISC</desc>
  <path fill="currentColor" d="M17 19a1 1 0 0 1-1-1v-2a2 2 0 0 1 2-2h2a2 2 0 0 1 2 2v2a1 1 0 0 1-1 1z" />
  <path fill="currentColor" d="M17 21v-2" />
  <path fill="currentColor" d="M19 14V6.5a1 1 0 0 0-7 0v11a1 1 0 0 1-7 0V10" />
  <path fill="currentColor" d="M21 21v-2" />
  <path fill="currentColor" d="M3 5V3" />
  <path fill="currentColor" d="M4 10a2 2 0 0 1-2-2V6a1 1 0 0 1 1-1h4a1 1 0 0 1 1 1v2a2 2 0 0 1-2 2z" />
  <path fill="currentColor" d="M7 5V3" />
</svg>
