<!-- @license lucide-static v1.21.0 - ISC -->
<svg
  class="lucide lucide-recycle"
  xmlns="http://www.w3.org/2000/svg"
  width="24"
  height="24"
  viewBox="0 0 24 24"
  fill="none"
  stroke="currentColor"
  stroke-width="2"
  stroke-linecap="round"
  stroke-linejoin="round"
 color="#2563eb" role="img" aria-labelledby="lucide-recycle-title lucide-recycle-desc">
  <title id="lucide-recycle-title">recycle</title>
  <desc id="lucide-recycle-desc">能源通用 - Lucide - recycle - ISC</desc>
  <path fill="currentColor" d="M7 19H4.815a1.83 1.83 0 0 1-1.57-.881 1.785 1.785 0 0 1-.004-1.784L7.196 9.5" />
  <path fill="currentColor" d="M11 19h8.203a1.83 1.83 0 0 0 1.556-.89 1.784 1.784 0 0 0 0-1.775l-1.226-2.12" />
  <path fill="currentColor" d="m14 16-3 3 3 3" />
  <path fill="currentColor" d="M8.293 13.596 7.196 9.5 3.1 10.598" />
  <path fill="currentColor" d="m9.344 5.811 1.093-1.892A1.83 1.83 0 0 1 11.985 3a1.784 1.784 0 0 1 1.546.888l3.943 6.843" />
  <path fill="currentColor" d="m13.378 9.633 4.096 1.098 1.097-4.096" />
</svg>
