<svg xmlns="http://www.w3.org/2000/svg" viewBox="0 0 24 24" color="#2563eb" role="img" aria-labelledby="eos-icons-local-laundry-service-title eos-icons-local-laundry-service-desc">
  <title id="eos-icons-local-laundry-service-title">local laundry service</title>
  <desc id="eos-icons-local-laundry-service-desc">云与基础设施 - EOS Icons - local-laundry-service - MIT</desc><path fill="currentColor" d="M18 2.01L6 2c-1.11 0-2 .89-2 2v16c0 1.11.89 2 2 2h12c1.11 0 2-.89 2-2V4c0-1.11-.89-1.99-2-1.99zM18 20H6L5.99 4H18v16z"/><circle fill="currentColor" cx="8" cy="6" r="1"/><circle fill="currentColor" cx="11" cy="6" r="1"/><path fill="currentColor" d="M12 19c2.76 0 5-2.24 5-5s-2.24-5-5-5-5 2.24-5 5 2.24 5 5 5zm2.36-7.36c1.3 1.3 1.3 3.42 0 4.72-1.3 1.3-3.42 1.3-4.72 0l4.72-4.72z"/></svg>