<svg width="24" height="24" fill="none" viewBox="0 0 24 24" stroke-width="1.5" stroke="currentColor" stroke-linecap="round" stroke-linejoin="round" xmlns="http://www.w3.org/2000/svg" color="#2563eb" role="img" aria-labelledby="mynaui-heart-home-title mynaui-heart-home-desc">
  <title id="mynaui-heart-home-title">heart home</title>
  <desc id="mynaui-heart-home-desc">配电环节 - Mynaui Icons - heart-home - MIT</desc><path fill="currentColor" d="M7.75 3.5C5.127 3.5 3 5.76 3 8.547 3 14.125 12 20.5 12 20.5s9-6.375 9-11.953C21 5.094 18.873 3.5 16.25 3.5c-1.86 0-3.47 1.136-4.25 2.79-.78-1.654-2.39-2.79-4.25-2.79"/><path fill="currentColor" d="M10.75 14.5a1 1 0 0 1-1-1v-2.36L12 9.5l2.25 1.64v2.36a1 1 0 0 1-1 1z"/></svg>