<svg width="24" height="24" fill="none" viewBox="0 0 24 24" stroke-width="1.5" stroke="currentColor" stroke-linecap="round" stroke-linejoin="round" xmlns="http://www.w3.org/2000/svg" color="#2563eb" role="img" aria-labelledby="mynaui-bounding-box-title mynaui-bounding-box-desc">
  <title id="mynaui-bounding-box-title">bounding box</title>
  <desc id="mynaui-bounding-box-desc">配电环节 - Mynaui Icons - bounding-box - MIT</desc><path fill="currentColor" d="M5 17V7m0 10a2 2 0 1 0 2 2m-2-2a2 2 0 0 1 2 2M5 7a2 2 0 0 0 2-2M5 7a2 2 0 1 1 2-2m0 0h10m0 0a2 2 0 0 0 2 2m-2-2a2 2 0 1 1 2 2m0 0v10m0 0a2 2 0 0 0-2 2m2-2a2 2 0 1 1-2 2M7 19h10"/></svg>