<svg xmlns="http://www.w3.org/2000/svg" width="24" height="24" fill="none" viewBox="0 0 24 24" color="#2563eb" role="img" aria-labelledby="flowbite-code-branch-title flowbite-code-branch-desc">
  <title id="flowbite-code-branch-title">code branch</title>
  <desc id="flowbite-code-branch-desc">开发工具 - Flowbite Icons - code-branch - MIT</desc>
  <path stroke="currentColor" stroke-linecap="round" stroke-linejoin="round" stroke-width="2" d="M8 8v8m0-8a2 2 0 1 0 0-4 2 2 0 0 0 0 4Zm0 8a2 2 0 1 0 0 4 2 2 0 0 0 0-4Zm8-8a2 2 0 1 0 0-4 2 2 0 0 0 0 4Zm0 0a4 4 0 0 1-4 4h-1a3 3 0 0 0-3 3"/>
</svg>
