<svg xmlns="http://www.w3.org/2000/svg" width="24" height="24" fill="none" viewBox="0 0 24 24" color="#2563eb" role="img" aria-labelledby="flowbite-qr-code-title flowbite-qr-code-desc">
  <title id="flowbite-qr-code-title">qr code</title>
  <desc id="flowbite-qr-code-desc">开发工具 - Flowbite Icons - qr-code - MIT</desc>
  <path stroke="currentColor" stroke-linejoin="round" stroke-width="2" d="M4 4h6v6H4V4Zm10 10h6v6h-6v-6Zm0-10h6v6h-6V4Zm-4 10h.01v.01H10V14Zm0 4h.01v.01H10V18Zm-3 2h.01v.01H7V20Zm0-4h.01v.01H7V16Zm-3 2h.01v.01H4V18Zm0-4h.01v.01H4V14Z"/>
  <path stroke="currentColor" stroke-linejoin="round" stroke-width="2" d="M7 7h.01v.01H7V7Zm10 10h.01v.01H17V17Z"/>
</svg>
