<svg xmlns="http://www.w3.org/2000/svg" viewBox="0 0 24 24" fill="none" color="#2563eb" role="img" aria-labelledby="majesticons-clipboard-check-title majesticons-clipboard-check-desc">
  <title id="majesticons-clipboard-check-title">clipboard check</title>
  <desc id="majesticons-clipboard-check-desc">通用命令 - Majesticons - clipboard-check - MIT</desc><path stroke="currentColor" stroke-linecap="round" stroke-linejoin="round" stroke-width="2" d="M8 5H6a2 2 0 0 0-2 2v12a2 2 0 0 0 2 2h12a2 2 0 0 0 2-2V7a2 2 0 0 0-2-2h-2M8 5v0a2 2 0 0 1 2-2h4a2 2 0 0 1 2 2v0M8 5v0a2 2 0 0 0 2 2h4a2 2 0 0 0 2-2v0"/><path stroke="currentColor" stroke-linecap="round" stroke-linejoin="round" stroke-width="2" d="m9 14 2 2 4-5"/></svg>