<svg
  xmlns="http://www.w3.org/2000/svg"
  width="24"
  height="24"
  viewBox="0 0 24 24"
  fill="none"
  stroke="currentColor"
  stroke-width="2"
  stroke-linecap="round"
  stroke-linejoin="round"
  class="icon icon-tabler icons-tabler-outline icon-tabler-braille"
 color="#2563eb" role="img" aria-labelledby="tabler-braille-title tabler-braille-desc">
  <title id="tabler-braille-title">braille</title>
  <desc id="tabler-braille-desc">云与基础设施 - Tabler Icons - braille - MIT</desc>
  <path stroke="none" d="M0 0h24v24H0z" fill="none" />
  <path fill="currentColor" d="M15 5a1 1 0 1 0 2 0a1 1 0 0 0 -2 0" />
  <path fill="currentColor" d="M7 5a1 1 0 1 0 2 0a1 1 0 0 0 -2 0" />
  <path fill="currentColor" d="M7 19a1 1 0 1 0 2 0a1 1 0 0 0 -2 0" />
  <path fill="currentColor" d="M16 12h.01" />
  <path fill="currentColor" d="M8 12h.01" />
  <path fill="currentColor" d="M16 19h.01" />
</svg>