<svg
  xmlns="http://www.w3.org/2000/svg"
  width="24"
  height="24"
  viewBox="0 0 24 24"
  fill="none"
  stroke="currentColor"
  stroke-width="2"
  stroke-linecap="round"
  stroke-linejoin="round"
  class="icon icon-tabler icons-tabler-outline icon-tabler-container"
 color="#2563eb" role="img" aria-labelledby="tabler-container-title tabler-container-desc">
  <title id="tabler-container-title">container</title>
  <desc id="tabler-container-desc">云与基础设施 - Tabler Icons - container - MIT</desc>
  <path stroke="none" d="M0 0h24v24H0z" fill="none" />
  <path fill="currentColor" d="M20 4v.01" />
  <path fill="currentColor" d="M20 20v.01" />
  <path fill="currentColor" d="M20 16v.01" />
  <path fill="currentColor" d="M20 12v.01" />
  <path fill="currentColor" d="M20 8v.01" />
  <path fill="currentColor" d="M8 5a1 1 0 0 1 1 -1h6a1 1 0 0 1 1 1v14a1 1 0 0 1 -1 1h-6a1 1 0 0 1 -1 -1l0 -14" />
  <path fill="currentColor" d="M4 4v.01" />
  <path fill="currentColor" d="M4 20v.01" />
  <path fill="currentColor" d="M4 16v.01" />
  <path fill="currentColor" d="M4 12v.01" />
  <path fill="currentColor" d="M4 8v.01" />
</svg>