<svg
  xmlns="http://www.w3.org/2000/svg"
  width="24"
  height="24"
  viewBox="0 0 24 24"
  fill="none"
  stroke="currentColor"
  stroke-width="2"
  stroke-linecap="round"
  stroke-linejoin="round"
  class="icon icon-tabler icons-tabler-outline icon-tabler-server-off"
 color="#2563eb" role="img" aria-labelledby="tabler-server-off-title tabler-server-off-desc">
  <title id="tabler-server-off-title">server off</title>
  <desc id="tabler-server-off-desc">云与基础设施 - Tabler Icons - server-off - MIT</desc>
  <path stroke="none" d="M0 0h24v24H0z" fill="none" />
  <path fill="currentColor" d="M12 12h-6a3 3 0 0 1 -3 -3v-2c0 -1.083 .574 -2.033 1.435 -2.56m3.565 -.44h10a3 3 0 0 1 3 3v2a3 3 0 0 1 -3 3h-2" />
  <path fill="currentColor" d="M16 12h2a3 3 0 0 1 3 3v2m-1.448 2.568a2.986 2.986 0 0 1 -1.552 .432h-12a3 3 0 0 1 -3 -3v-2a3 3 0 0 1 3 -3h6" />
  <path fill="currentColor" d="M7 8v.01" />
  <path fill="currentColor" d="M7 16v.01" />
  <path fill="currentColor" d="M3 3l18 18" />
</svg>