<svg
  xmlns="http://www.w3.org/2000/svg"
  width="24"
  height="24"
  viewBox="0 0 24 24"
  fill="none"
  stroke="currentColor"
  stroke-width="2"
  stroke-linecap="round"
  stroke-linejoin="round"
  class="icon icon-tabler icons-tabler-outline icon-tabler-sailboat"
 color="#2563eb" role="img" aria-labelledby="tabler-sailboat-title tabler-sailboat-desc">
  <title id="tabler-sailboat-title">sailboat</title>
  <desc id="tabler-sailboat-desc">云与基础设施 - Tabler Icons - sailboat - MIT</desc>
  <path stroke="none" d="M0 0h24v24H0z" fill="none" />
  <path fill="currentColor" d="M2 20a2.4 2.4 0 0 0 2 1a2.4 2.4 0 0 0 2 -1a2.4 2.4 0 0 1 2 -1a2.4 2.4 0 0 1 2 1a2.4 2.4 0 0 0 2 1a2.4 2.4 0 0 0 2 -1a2.4 2.4 0 0 1 2 -1a2.4 2.4 0 0 1 2 1a2.4 2.4 0 0 0 2 1a2.4 2.4 0 0 0 2 -1" />
  <path fill="currentColor" d="M4 18l-1 -3h18l-1 3" />
  <path fill="currentColor" d="M11 12h7l-7 -9v9" />
  <path fill="currentColor" d="M8 7l-2 5" />
</svg>