<!-- @license lucide-static v1.21.0 - ISC -->
<svg
  class="lucide lucide-square-mouse-pointer"
  xmlns="http://www.w3.org/2000/svg"
  width="24"
  height="24"
  viewBox="0 0 24 24"
  fill="none"
  stroke="currentColor"
  stroke-width="2"
  stroke-linecap="round"
  stroke-linejoin="round"
 color="#2563eb" role="img" aria-labelledby="lucide-square-mouse-pointer-title lucide-square-mouse-pointer-desc">
  <title id="lucide-square-mouse-pointer-title">square mouse pointer</title>
  <desc id="lucide-square-mouse-pointer-desc">画布工具 - Lucide - square-mouse-pointer - ISC</desc>
  <path fill="currentColor" d="M12.034 12.681a.498.498 0 0 1 .647-.647l9 3.5a.5.5 0 0 1-.033.943l-3.444 1.068a1 1 0 0 0-.66.66l-1.067 3.443a.5.5 0 0 1-.943.033z" />
  <path fill="currentColor" d="M21 11V5a2 2 0 0 0-2-2H5a2 2 0 0 0-2 2v14a2 2 0 0 0 2 2h6" />
</svg>
