<!-- @license lucide-static v1.21.0 - ISC -->
<svg
  class="lucide lucide-text-selection"
  xmlns="http://www.w3.org/2000/svg"
  width="24"
  height="24"
  viewBox="0 0 24 24"
  fill="none"
  stroke="currentColor"
  stroke-width="2"
  stroke-linecap="round"
  stroke-linejoin="round"
 color="#2563eb" role="img" aria-labelledby="lucide-text-selection-title lucide-text-selection-desc">
  <title id="lucide-text-selection-title">text selection</title>
  <desc id="lucide-text-selection-desc">画布工具 - Lucide - text-selection - ISC</desc>
  <path fill="currentColor" d="M14 21h1" />
  <path fill="currentColor" d="M14 3h1" />
  <path fill="currentColor" d="M19 3a2 2 0 0 1 2 2" />
  <path fill="currentColor" d="M21 14v1" />
  <path fill="currentColor" d="M21 19a2 2 0 0 1-2 2" />
  <path fill="currentColor" d="M21 9v1" />
  <path fill="currentColor" d="M3 14v1" />
  <path fill="currentColor" d="M3 9v1" />
  <path fill="currentColor" d="M5 21a2 2 0 0 1-2-2" />
  <path fill="currentColor" d="M5 3a2 2 0 0 0-2 2" />
  <path fill="currentColor" d="M7 12h10" />
  <path fill="currentColor" d="M7 16h6" />
  <path fill="currentColor" d="M7 8h8" />
  <path fill="currentColor" d="M9 21h1" />
  <path fill="currentColor" d="M9 3h1" />
</svg>
