<svg xmlns="http://www.w3.org/2000/svg" viewBox="0 0 32 32" color="#2563eb" role="img" aria-labelledby="carbon-scooter-front-title carbon-scooter-front-desc">
  <title id="carbon-scooter-front-title">scooter front</title>
  <desc id="carbon-scooter-front-desc">交通设施 - Carbon Icons - scooter-front - Apache-2.0</desc><path fill="currentColor" d="M15 19H17V28H15z"/><path fill="currentColor" d="M23,10V8H20a2.0025,2.0025,0,0,0-2-2H14a2.0025,2.0025,0,0,0-2,2H9v2h3v4.1841A2.9957,2.9957,0,0,0,10,17v7h2V17a1.0008,1.0008,0,0,1,1-1h6a1.0008,1.0008,0,0,1,1,1v7h2V17a2.9957,2.9957,0,0,0-2-2.8159V10ZM18,8v6H14V8Z"/></svg>