<svg xmlns="http://www.w3.org/2000/svg" id="mdi-clipboard-plus" viewBox="0 0 24 24" color="#2563eb" role="img" aria-labelledby="material-design-icons-clipboard-plus-title material-design-icons-clipboard-plus-desc">
  <title id="material-design-icons-clipboard-plus-title">clipboard plus</title>
  <desc id="material-design-icons-clipboard-plus-desc">通用命令 - Material Design Icons - clipboard-plus - Apache-2.0</desc><path fill="currentColor" d="M19,3H14.82C14.4,1.84 13.3,1 12,1C10.7,1 9.6,1.84 9.18,3H5A2,2 0 0,0 3,5V19A2,2 0 0,0 5,21H19A2,2 0 0,0 21,19V5A2,2 0 0,0 19,3M12,3A1,1 0 0,1 13,4A1,1 0 0,1 12,5A1,1 0 0,1 11,4A1,1 0 0,1 12,3M13,12H16V14H13V17H11V14H8V12H11V9H13V12Z" /></svg>