<svg width="24" height="24" viewBox="0 0 24 24" xmlns="http://www.w3.org/2000/svg" color="#2563eb" role="img" aria-labelledby="text-list-roman-numeral-uppercase-title text-list-roman-numeral-uppercase-desc">
  <title id="text-list-roman-numeral-uppercase-title">Text List Roman Numeral Uppercase</title>
  <desc id="text-list-roman-numeral-uppercase-desc">表单表格 - text_list_roman_numeral_uppercase, 24px regular</desc><path fill="currentColor" d="M6 2.75a.75.75 0 0 0-1.5 0v4.5a.75.75 0 0 0 1.5 0v-4.5Zm0 7a.75.75 0 0 0-1.5 0v4.5a.75.75 0 0 0 1.5 0v-4.5ZM5.25 16c.41 0 .75.34.75.75v4.5a.75.75 0 0 1-1.5 0v-4.5c0-.41.34-.75.75-.75Zm4.5-11a.75.75 0 0 0 0 1.5h9.5a.75.75 0 0 0 0-1.5h-9.5Zm0 6.5a.75.75 0 0 0 0 1.5h9.5a.75.75 0 0 0 0-1.5h-9.5Zm0 6.5a.75.75 0 0 0 0 1.5h9.5a.75.75 0 0 0 0-1.5h-9.5Z"/></svg>