<svg xmlns="http://www.w3.org/2000/svg" width="24" height="24" viewBox="0 0 24 24" color="#2563eb" role="img" aria-labelledby="boxicons-user-x-title boxicons-user-x-desc">
  <title id="boxicons-user-x-title">user x</title>
  <desc id="boxicons-user-x-desc">协作通信 - Boxicons - user-x - (CC-BY-4.0 OR OFL-1.1 OR MIT)</desc><path fill="currentColor" d="m15.71 15.71 2.29-2.3 2.29 2.3 1.42-1.42-2.3-2.29 2.3-2.29-1.42-1.42-2.29 2.3-2.29-2.3-1.42 1.42L16.58 12l-2.29 2.29zM12 8a3.91 3.91 0 0 0-4-4 3.91 3.91 0 0 0-4 4 3.91 3.91 0 0 0 4 4 3.91 3.91 0 0 0 4-4zM6 8a1.91 1.91 0 0 1 2-2 1.91 1.91 0 0 1 2 2 1.91 1.91 0 0 1-2 2 1.91 1.91 0 0 1-2-2zM4 18a3 3 0 0 1 3-3h2a3 3 0 0 1 3 3v1h2v-1a5 5 0 0 0-5-5H7a5 5 0 0 0-5 5v1h2z"/></svg>