<svg xmlns="http://www.w3.org/2000/svg" width="24" height="24" viewBox="0 0 24 24" color="#2563eb" role="img" aria-labelledby="boxicons-user-voice-title boxicons-user-voice-desc">
  <title id="boxicons-user-voice-title">user voice</title>
  <desc id="boxicons-user-voice-desc">协作通信 - Boxicons - user-voice - (CC-BY-4.0 OR OFL-1.1 OR MIT)</desc><path fill="currentColor" d="M8 12c2.28 0 4-1.72 4-4s-1.72-4-4-4-4 1.72-4 4 1.72 4 4 4zm0-6c1.178 0 2 .822 2 2s-.822 2-2 2-2-.822-2-2 .822-2 2-2zm1 7H7c-2.757 0-5 2.243-5 5v1h2v-1c0-1.654 1.346-3 3-3h2c1.654 0 3 1.346 3 3v1h2v-1c0-2.757-2.243-5-5-5zm9.364-10.364L16.95 4.05C18.271 5.373 19 7.131 19 9s-.729 3.627-2.05 4.95l1.414 1.414C20.064 13.663 21 11.403 21 9s-.936-4.663-2.636-6.364z"/><path fill="currentColor" d="M15.535 5.464 14.121 6.88C14.688 7.445 15 8.198 15 9s-.312 1.555-.879 2.12l1.414 1.416C16.479 11.592 17 10.337 17 9s-.521-2.592-1.465-3.536z"/></svg>