<svg
  xmlns="http://www.w3.org/2000/svg"
  width="24"
  height="24"
  viewBox="0 0 24 24"
  fill="none"
  stroke="currentColor"
  stroke-width="2"
  stroke-linecap="round"
  stroke-linejoin="round"
  class="icon icon-tabler icons-tabler-outline icon-tabler-ruler"
 color="#2563eb" role="img" aria-labelledby="tabler-ruler-title tabler-ruler-desc">
  <title id="tabler-ruler-title">ruler</title>
  <desc id="tabler-ruler-desc">画布工具 - Tabler Icons - ruler - MIT</desc>
  <path stroke="none" d="M0 0h24v24H0z" fill="none" />
  <path fill="currentColor" d="M5 4h14a1 1 0 0 1 1 1v5a1 1 0 0 1 -1 1h-7a1 1 0 0 0 -1 1v7a1 1 0 0 1 -1 1h-5a1 1 0 0 1 -1 -1v-14a1 1 0 0 1 1 -1" />
  <path fill="currentColor" d="M4 8l2 0" />
  <path fill="currentColor" d="M4 12l3 0" />
  <path fill="currentColor" d="M4 16l2 0" />
  <path fill="currentColor" d="M8 4l0 2" />
  <path fill="currentColor" d="M12 4l0 3" />
  <path fill="currentColor" d="M16 4l0 2" />
</svg>