<svg
  xmlns="http://www.w3.org/2000/svg"
  width="24"
  height="24"
  viewBox="0 0 24 24"
  fill="none"
  stroke="currentColor"
  stroke-width="2"
  stroke-linecap="round"
  stroke-linejoin="round"
  class="icon icon-tabler icons-tabler-outline icon-tabler-layers-selected"
 color="#2563eb" role="img" aria-labelledby="tabler-layers-selected-title tabler-layers-selected-desc">
  <title id="tabler-layers-selected-title">layers selected</title>
  <desc id="tabler-layers-selected-desc">画布工具 - Tabler Icons - layers-selected - MIT</desc>
  <path stroke="none" d="M0 0h24v24H0z" fill="none" />
  <path fill="currentColor" d="M8 10.5l6.492 -6.492" />
  <path fill="currentColor" d="M13.496 16l6.504 -6.504l-6.504 6.504" />
  <path fill="currentColor" d="M8.586 15.414l10.827 -10.827" />
  <path fill="currentColor" d="M8 6a2 2 0 0 1 2 -2h8a2 2 0 0 1 2 2v8a2 2 0 0 1 -2 2h-8a2 2 0 0 1 -2 -2l0 -8" />
  <path fill="currentColor" d="M16 16v2a2 2 0 0 1 -2 2h-8a2 2 0 0 1 -2 -2v-8a2 2 0 0 1 2 -2h2" />
</svg>