<svg
  xmlns="http://www.w3.org/2000/svg"
  width="24"
  height="24"
  viewBox="0 0 24 24"
  fill="none"
  stroke="currentColor"
  stroke-width="2"
  stroke-linecap="round"
  stroke-linejoin="round"
  class="icon icon-tabler icons-tabler-outline icon-tabler-layers-selected-bottom"
 color="#2563eb" role="img" aria-labelledby="tabler-layers-selected-bottom-title tabler-layers-selected-bottom-desc">
  <title id="tabler-layers-selected-bottom-title">layers selected bottom</title>
  <desc id="tabler-layers-selected-bottom-desc">画布工具 - Tabler Icons - layers-selected-bottom - MIT</desc>
  <path stroke="none" d="M0 0h24v24H0z" fill="none" />
  <path fill="currentColor" d="M4 14.5l4 -4" />
  <path fill="currentColor" d="M9.496 20l4.004 -4l-4.004 4" />
  <path fill="currentColor" d="M4.586 19.414l3.914 -3.914" />
  <path fill="currentColor" d="M8 6a2 2 0 0 1 2 -2h8a2 2 0 0 1 2 2v8a2 2 0 0 1 -2 2h-8a2 2 0 0 1 -2 -2l0 -8" />
  <path fill="currentColor" d="M16 16v2a2 2 0 0 1 -2 2h-8a2 2 0 0 1 -2 -2v-8a2 2 0 0 1 2 -2h2" />
</svg>