<svg
  xmlns="http://www.w3.org/2000/svg"
  width="24"
  height="24"
  viewBox="0 0 24 24"
  fill="none"
  stroke="currentColor"
  stroke-width="2"
  stroke-linecap="round"
  stroke-linejoin="round"
  class="icon icon-tabler icons-tabler-outline icon-tabler-transform"
 color="#2563eb" role="img" aria-labelledby="tabler-transform-title tabler-transform-desc">
  <title id="tabler-transform-title">transform</title>
  <desc id="tabler-transform-desc">画布工具 - Tabler Icons - transform - MIT</desc>
  <path stroke="none" d="M0 0h24v24H0z" fill="none" />
  <path fill="currentColor" d="M3 6a3 3 0 1 0 6 0a3 3 0 0 0 -6 0" />
  <path fill="currentColor" d="M21 11v-3a2 2 0 0 0 -2 -2h-6l3 3m0 -6l-3 3" />
  <path fill="currentColor" d="M3 13v3a2 2 0 0 0 2 2h6l-3 -3m0 6l3 -3" />
  <path fill="currentColor" d="M15 18a3 3 0 1 0 6 0a3 3 0 0 0 -6 0" />
</svg>