<svg
  xmlns="http://www.w3.org/2000/svg"
  width="24"
  height="24"
  viewBox="0 0 24 24"
  fill="none"
  stroke="currentColor"
  stroke-width="2"
  stroke-linecap="round"
  stroke-linejoin="round"
  class="icon icon-tabler icons-tabler-outline icon-tabler-shape"
 color="#2563eb" role="img" aria-labelledby="tabler-shape-title tabler-shape-desc">
  <title id="tabler-shape-title">shape</title>
  <desc id="tabler-shape-desc">画布工具 - Tabler Icons - shape - MIT</desc>
  <path stroke="none" d="M0 0h24v24H0z" fill="none" />
  <path fill="currentColor" d="M3 5a2 2 0 1 0 4 0a2 2 0 1 0 -4 0" />
  <path fill="currentColor" d="M17 5a2 2 0 1 0 4 0a2 2 0 1 0 -4 0" />
  <path fill="currentColor" d="M3 19a2 2 0 1 0 4 0a2 2 0 1 0 -4 0" />
  <path fill="currentColor" d="M17 19a2 2 0 1 0 4 0a2 2 0 1 0 -4 0" />
  <path fill="currentColor" d="M5 7l0 10" />
  <path fill="currentColor" d="M7 5l10 0" />
  <path fill="currentColor" d="M7 19l10 0" />
  <path fill="currentColor" d="M19 7l0 10" />
</svg>