<svg
  xmlns="http://www.w3.org/2000/svg"
  width="24"
  height="24"
  viewBox="0 0 24 24"
  fill="none"
  stroke="currentColor"
  stroke-width="2"
  stroke-linecap="round"
  stroke-linejoin="round"
  class="icon icon-tabler icons-tabler-outline icon-tabler-resize"
 color="#2563eb" role="img" aria-labelledby="tabler-resize-title tabler-resize-desc">
  <title id="tabler-resize-title">resize</title>
  <desc id="tabler-resize-desc">画布工具 - Tabler Icons - resize - MIT</desc>
  <path stroke="none" d="M0 0h24v24H0z" fill="none" />
  <path fill="currentColor" d="M4 11v8a1 1 0 0 0 1 1h8m-9 -14v-1a1 1 0 0 1 1 -1h1m5 0h2m5 0h1a1 1 0 0 1 1 1v1m0 5v2m0 5v1a1 1 0 0 1 -1 1h-1" />
  <path fill="currentColor" d="M4 12h7a1 1 0 0 1 1 1v7" />
</svg>