<svg xmlns="http://www.w3.org/2000/svg" viewBox="0 0 24 24" color="#2563eb" role="img" aria-labelledby="eos-icons-flag-circle-title eos-icons-flag-circle-desc">
  <title id="eos-icons-flag-circle-title">flag circle</title>
  <desc id="eos-icons-flag-circle-desc">状态告警 - EOS Icons - flag-circle - MIT</desc><path fill="currentColor" d="M12,2C6.48,2,2,6.48,2,12s4.48,10,10,10s10-4.48,10-10S17.52,2,12,2z M12,20c-4.41,0-8-3.59-8-8s3.59-8,8-8s8,3.59,8,8 S16.41,20,12,20z"/><path fill="currentColor" d="M15,9l-1-2H8v11h1.5v-5H12l1,2h5V9H15z M16.5,13.5h-2.57l-1-2H9.5v-3h3.57l1,2h2.43V13.5z"/></svg>