<?xml version="1.0" encoding="UTF-8"?>
<svg xmlns="http://www.w3.org/2000/svg" viewBox="0 0 64 64" width="64" height="64" color="#dc2626" role="img" aria-labelledby="first-aid-title first-aid-desc">
  <title id="first-aid-title">急救</title>
  <desc id="first-aid-desc">安全消防 - 复用 医疗安全 / first-aid</desc>
  <g transform="translate(8 8) scale(0.1875)">
<path fill="currentColor" d="M216,88H168V40a16,16,0,0,0-16-16H104A16,16,0,0,0,88,40V88H40a16,16,0,0,0-16,16v48a16,16,0,0,0,16,16H88v48a16,16,0,0,0,16,16h48a16,16,0,0,0,16-16V168h48a16,16,0,0,0,16-16V104A16,16,0,0,0,216,88Zm0,64H160a8,8,0,0,0-8,8v56H104V160a8,8,0,0,0-8-8H40V104H96a8,8,0,0,0,8-8V40h48V96a8,8,0,0,0,8,8h56Z"/>
  </g>
  <g>
<path d="M46 46h14v14H46z" fill="none" stroke="currentColor" stroke-width="2.6" stroke-linecap="round" stroke-linejoin="round"/><circle cx="52" cy="40" r="1" fill="none" stroke="currentColor" stroke-width="2.6" stroke-linecap="round" stroke-linejoin="round"/><path d="M52 40L44 48" fill="none" stroke="currentColor" stroke-width="2.6" stroke-linecap="round" stroke-linejoin="round"/><circle cx="45" cy="47" r="1.1" fill="none" stroke="currentColor" stroke-width="2.6" stroke-linecap="round" stroke-linejoin="round"/>
  </g>
</svg>
