<svg xmlns="http://www.w3.org/2000/svg" width="16" height="16" focusable="false" viewBox="0 0 16 16" color="#2563eb" role="img" aria-labelledby="zendesk-garden-phone-call-end-title zendesk-garden-phone-call-end-desc">
  <title id="zendesk-garden-phone-call-end-title">phone call end</title>
  <desc id="zendesk-garden-phone-call-end-desc">协作通信 - Zendesk Garden Icons - phone-call-end - Apache-2.0</desc>
  <path fill="currentColor" d="M6 8v2a1 1 0 01-1 1H1a1 1 0 01-1-1V8a4 4 0 014-4h8a4 4 0 014 4v2a1 1 0 01-1 1h-4a1 1 0 01-1-1V8H6zM4 5a3 3 0 00-3 3v2h4V7h6v3h4V8a3 3 0 00-3-3H4z"/>
</svg>
