<svg xmlns="http://www.w3.org/2000/svg" width="16" height="16" focusable="false" viewBox="0 0 16 16" color="#2563eb" role="img" aria-labelledby="zendesk-garden-video-title zendesk-garden-video-desc">
  <title id="zendesk-garden-video-title">video</title>
  <desc id="zendesk-garden-video-desc">协作通信 - Zendesk Garden Icons - video - Apache-2.0</desc>
  <path fill="currentColor" d="M11 4a1 1 0 0 1 1 1v1.6l3.315-1.326a.5.5 0 0 1 .685.464v4.524l-.004.064a.5.5 0 0 1-.62.42l-.061-.02L12 9.399V11a1 1 0 0 1-.898.995L11 12H1l-.103-.005A1 1 0 0 1 0 11V5a1 1 0 0 1 1-1h10ZM1 11h10V5H1v6Zm11-3.323v.645l3 1.2V6.477l-3 1.2Z"/>
</svg>
