<svg width="24" height="24" viewBox="0 0 24 24" xmlns="http://www.w3.org/2000/svg" color="#2563eb" role="img" aria-labelledby="battery-0-title battery-0-desc">
  <title id="battery-0-title">Battery 0</title>
  <desc id="battery-0-desc">开发集成 - battery_0, 24px regular</desc><path fill="currentColor" d="M17 6a3 3 0 0 1 3 3v1h1a1 1 0 0 1 1 1v2a1 1 0 0 1-1 1h-1v1a3 3 0 0 1-3 3H5a3 3 0 0 1-3-3V9a3 3 0 0 1 3-3h12Zm0 1.5H5c-.78 0-1.42.6-1.5 1.36V15c0 .78.6 1.42 1.36 1.5H17c.78 0 1.42-.6 1.5-1.36V9c0-.78-.6-1.42-1.36-1.5H17Z"/></svg>