<svg width="24" height="24" viewBox="0 0 24 24" xmlns="http://www.w3.org/2000/svg" color="#2563eb" role="img" aria-labelledby="border-top-bottom-thick-title border-top-bottom-thick-desc">
  <title id="border-top-bottom-thick-title">Border Top Bottom Thick</title>
  <desc id="border-top-bottom-thick-desc">开发集成 - border_top_bottom_thick, 24px regular</desc><path fill="currentColor" d="M3 6.25a.75.75 0 0 0 1.5 0v-.5c0-.69.56-1.25 1.25-1.25h12.5c.69 0 1.25.56 1.25 1.25v.5a.75.75 0 0 0 1.5 0v-.5A2.75 2.75 0 0 0 18.25 3H5.75A2.75 2.75 0 0 0 3 5.75v.5Zm1.5 4.5a.75.75 0 0 0-1.5 0v2.5a.75.75 0 0 0 1.5 0v-2.5Zm15 0a.75.75 0 0 1 1.5 0v2.5a.75.75 0 0 1-1.5 0v-2.5ZM4 17a1 1 0 0 0-1 1 3 3 0 0 0 3 3h12a3 3 0 0 0 3-3 1 1 0 1 0-2 0 1 1 0 0 1-1 1H6a1 1 0 0 1-1-1 1 1 0 0 0-1-1Z"/></svg>