<svg width="24" height="24" viewBox="0 0 16 16" xmlns="http://www.w3.org/2000/svg" color="#2563eb" role="img" aria-labelledby="code-cs-title code-cs-desc">
  <title id="code-cs-title">Code Cs</title>
  <desc id="code-cs-desc">开发集成 - code_cs, 16px regular</desc><path fill="currentColor" d="M3.5 5A1.5 1.5 0 0 0 2 6.5v3a1.5 1.5 0 0 0 3 0 .5.5 0 0 1 1 0 2.5 2.5 0 0 1-5 0v-3a2.5 2.5 0 1 1 5 0 .5.5 0 0 1-1 0A1.5 1.5 0 0 0 3.5 5Zm6-.5c.28 0 .5.22.5.5v1h2V5a.5.5 0 0 1 1 0v1h1.25a.5.5 0 0 1 0 1H13v2h1.25a.5.5 0 0 1 0 1H13v1a.5.5 0 0 1-1 0v-1h-2v1a.5.5 0 0 1-1 0v-1H8a.5.5 0 0 1 0-1h1V7H8a.5.5 0 0 1 0-1h1V5c0-.28.22-.5.5-.5ZM10 7v2h2V7h-2Z"/></svg>