<svg width="24" height="24" fill="none" viewBox="0 0 24 24" stroke-width="1.5" stroke="currentColor" stroke-linecap="round" stroke-linejoin="round" xmlns="http://www.w3.org/2000/svg" color="#2563eb" role="img" aria-labelledby="mynaui-folder-x-title mynaui-folder-x-desc">
  <title id="mynaui-folder-x-title">folder x</title>
  <desc id="mynaui-folder-x-desc">文件文档 - Mynaui Icons - folder-x - MIT</desc><path fill="currentColor" d="M3 6a2 2 0 0 1 2-2h1.745a2 2 0 0 1 1.322.5l2.272 2a2 2 0 0 0 1.322.5H19a2 2 0 0 1 2 2v9a2 2 0 0 1-2 2H5a2 2 0 0 1-2-2zm7.5 6 2.828 2.828m0-2.828L10.5 14.828"/></svg>