<svg width="24" height="24" fill="none" viewBox="0 0 24 24" stroke-width="1.5" stroke="currentColor" stroke-linecap="round" stroke-linejoin="round" xmlns="http://www.w3.org/2000/svg" color="#2563eb" role="img" aria-labelledby="mynaui-folder-heart-title mynaui-folder-heart-desc">
  <title id="mynaui-folder-heart-title">folder heart</title>
  <desc id="mynaui-folder-heart-desc">文件文档 - Mynaui Icons - folder-heart - MIT</desc><path fill="currentColor" d="M3 6a2 2 0 0 1 2-2h1.745a2 2 0 0 1 1.322.5l2.272 2a2 2 0 0 0 1.322.5H19a2 2 0 0 1 2 2v9a2 2 0 0 1-2 2H5a2 2 0 0 1-2-2z"/><path fill="currentColor" d="M8.62 12.024c0 1.972 3.38 4.226 3.38 4.226s3.38-2.254 3.38-4.226c0-1.88-2.55-2.454-3.38-.798-.814-1.625-3.38-1.053-3.38.798"/></svg>