<?xml version="1.0" encoding="UTF-8"?>
<svg xmlns="http://www.w3.org/2000/svg" viewBox="0 0 64 64" width="64" height="64" color="#16a34a" role="img" aria-labelledby="circuit-breaker-closed-title circuit-breaker-closed-desc">
  <title id="circuit-breaker-closed-title">断路器闭合</title>
  <desc id="circuit-breaker-closed-desc">电力设备 - 复用 电力电网 / circuit-switch-closed</desc>
  <g transform="translate(8 8) scale(2)">
<path stroke="none" d="M0 0h24v24H0z" fill="none" />
  <path fill="currentColor" d="M2 12h2" />
  <path fill="currentColor" d="M20 12h2" />
  <path fill="currentColor" d="M4 12a2 2 0 1 0 4 0a2 2 0 1 0 -4 0" />
  <path fill="currentColor" d="M16 12a2 2 0 1 0 4 0a2 2 0 1 0 -4 0" />
  <path fill="currentColor" d="M8 12h8" />
  </g>
  <g>
<path d="M46 46h14v14H46z" fill="none" stroke="currentColor" stroke-width="2.6" stroke-linecap="round" stroke-linejoin="round"/><circle cx="50" cy="51" r="1" fill="none" stroke="currentColor" stroke-width="2.6" stroke-linecap="round" stroke-linejoin="round"/><path d="M50 51L52 48" fill="none" stroke="currentColor" stroke-width="2.6" stroke-linecap="round" stroke-linejoin="round"/><circle cx="50" cy="51" r="1.1" fill="none" stroke="currentColor" stroke-width="2.6" stroke-linecap="round" stroke-linejoin="round"/>
  </g>
</svg>
