<svg xmlns="http://www.w3.org/2000/svg" id="mdi-headphones-settings" viewBox="0 0 24 24" color="#2563eb" role="img" aria-labelledby="material-design-icons-headphones-settings-title material-design-icons-headphones-settings-desc">
  <title id="material-design-icons-headphones-settings-title">headphones settings</title>
  <desc id="material-design-icons-headphones-settings-desc">电力电子 - Material Design Icons - headphones-settings - Apache-2.0</desc><path fill="currentColor" d="M12,1A9,9 0 0,1 21,10V17A3,3 0 0,1 18,20H15V12H19V10A7,7 0 0,0 12,3A7,7 0 0,0 5,10V12H9V20H6A3,3 0 0,1 3,17V10A9,9 0 0,1 12,1M15,24V22H17V24H15M11,24V22H13V24H11M7,24V22H9V24H7Z" /></svg>