<svg xmlns="http://www.w3.org/2000/svg" width="24" height="24" fill="none" viewBox="0 0 24 24" color="#2563eb" role="img" aria-labelledby="humbleicons-images-title humbleicons-images-desc">
  <title id="humbleicons-images-title">images</title>
  <desc id="humbleicons-images-desc">媒体素材 - Humbleicons - images - MIT</desc>
  <path stroke="currentColor" stroke-linecap="round" stroke-linejoin="round" stroke-width="2" d="M3 19v-9a1 1 0 011-1h11a1 1 0 011 1v9a1 1 0 01-1 1H4a1 1 0 01-1-1zm0 0l4.293-4.293a1 1 0 011.414 0L14 20M7 6V5a1 1 0 011-1h12a1 1 0 011 1v10a1 1 0 01-1 1h-1m-7-4v.01" />
</svg>