<svg xmlns="http://www.w3.org/2000/svg" width="8" height="8" viewBox="0 0 8 8" color="#2563eb" role="img" aria-labelledby="open-iconic-list-title open-iconic-list-desc">
  <title id="open-iconic-list-title">list</title>
  <desc id="open-iconic-list-desc">办公效率 - Open Iconic - list - MIT</desc>
  <path fill="currentColor" d="M.5 0c-.28 0-.5.22-.5.5s.22.5.5.5.5-.22.5-.5-.22-.5-.5-.5zm1.5 0v1h6v-1h-6zm-1.5 2c-.28 0-.5.22-.5.5s.22.5.5.5.5-.22.5-.5-.22-.5-.5-.5zm1.5 0v1h6v-1h-6zm-1.5 2c-.28 0-.5.22-.5.5s.22.5.5.5.5-.22.5-.5-.22-.5-.5-.5zm1.5 0v1h6v-1h-6zm-1.5 2c-.28 0-.5.22-.5.5s.22.5.5.5.5-.22.5-.5-.22-.5-.5-.5zm1.5 0v1h6v-1h-6z"
  />
</svg>