<svg xmlns="http://www.w3.org/2000/svg" width="8" height="8" viewBox="0 0 8 8" color="#2563eb" role="img" aria-labelledby="open-iconic-vertical-align-bottom-title open-iconic-vertical-align-bottom-desc">
  <title id="open-iconic-vertical-align-bottom-title">vertical align bottom</title>
  <desc id="open-iconic-vertical-align-bottom-desc">画布工具 - Open Iconic - vertical-align-bottom - MIT</desc>
  <path fill="currentColor" d="M.09 0c-.06 0-.09.04-.09.09v4.81c0 .05.04.09.09.09h1.81c.05 0 .09-.04.09-.09v-4.81c0-.06-.04-.09-.09-.09h-1.81zm6 0c-.05 0-.09.04-.09.09v4.81c0 .05.04.09.09.09h1.81c.05 0 .09-.04.09-.09v-4.81c0-.06-.04-.09-.09-.09h-1.81zm-3 2c-.06 0-.09.04-.09.09v2.81c0 .05.04.09.09.09h1.81c.05 0 .09-.04.09-.09v-2.81c0-.06-.04-.09-.09-.09h-1.81zm-3.09 4v1h8v-1h-8z"
  />
</svg>