<svg xmlns="http://www.w3.org/2000/svg" width="8" height="8" viewBox="0 0 8 8" color="#2563eb" role="img" aria-labelledby="open-iconic-vertical-align-top-title open-iconic-vertical-align-top-desc">
  <title id="open-iconic-vertical-align-top-title">vertical align top</title>
  <desc id="open-iconic-vertical-align-top-desc">画布工具 - Open Iconic - vertical-align-top - MIT</desc>
  <path fill="currentColor" d="M0 0v1h8v-1h-8zm.09 2c-.06 0-.09.04-.09.09v4.81c0 .05.04.09.09.09h1.81c.05 0 .09-.04.09-.09v-4.81c0-.06-.04-.09-.09-.09h-1.81zm3 0c-.06 0-.09.04-.09.09v2.81c0 .05.04.09.09.09h1.81c.05 0 .09-.04.09-.09v-2.81c0-.06-.04-.09-.09-.09h-1.81zm3 0c-.05 0-.09.04-.09.09v4.81c0 .05.04.09.09.09h1.81c.05 0 .09-.04.09-.09v-4.81c0-.06-.04-.09-.09-.09h-1.81z"
  />
</svg>