<svg xmlns="http://www.w3.org/2000/svg" width="24" height="24" viewBox="0 0 24 24" color="#2563eb" role="img" aria-labelledby="boxicons-trash-title boxicons-trash-desc">
  <title id="boxicons-trash-title">trash</title>
  <desc id="boxicons-trash-desc">通用命令 - Boxicons - trash - (CC-BY-4.0 OR OFL-1.1 OR MIT)</desc><path fill="currentColor" d="M5 20a2 2 0 0 0 2 2h10a2 2 0 0 0 2-2V8h2V6h-4V4a2 2 0 0 0-2-2H9a2 2 0 0 0-2 2v2H3v2h2zM9 4h6v2H9zM8 8h9v12H7V8z"/><path fill="currentColor" d="M9 10h2v8H9zm4 0h2v8h-2z"/></svg>