<svg width="24" height="24" viewBox="0 0 24 24" fill="none" xmlns="http://www.w3.org/2000/svg" color="#2563eb" role="img" aria-labelledby="mono-icons-percentage-title mono-icons-percentage-desc">
  <title id="mono-icons-percentage-title">percentage</title>
  <desc id="mono-icons-percentage-desc">办公效率 - Mono Icons - percentage - MIT</desc><path d="M18.707 5.293a1 1 0 0 1 0 1.414l-12 12a1 1 0 0 1-1.414-1.414l12-12a1 1 0 0 1 1.414 0zM17 19a2 2 0 1 0 0-4 2 2 0 0 0 0 4zM7 9a2 2 0 1 0 0-4 2 2 0 0 0 0 4z" fill="#0D0D0D"/></svg>