<svg width="24" height="24" viewBox="0 0 24 24" fill="none" xmlns="http://www.w3.org/2000/svg" color="#2563eb" role="img" aria-labelledby="mono-icons-list-title mono-icons-list-desc">
  <title id="mono-icons-list-title">list</title>
  <desc id="mono-icons-list-desc">办公效率 - Mono Icons - list - MIT</desc><path d="M4 7a1 1 0 0 1 1-1h1a1 1 0 0 1 0 2H5a1 1 0 0 1-1-1zm5 0a1 1 0 0 1 1-1h9a1 1 0 1 1 0 2h-9a1 1 0 0 1-1-1zm-5 5a1 1 0 0 1 1-1h1a1 1 0 1 1 0 2H5a1 1 0 0 1-1-1zm5 0a1 1 0 0 1 1-1h9a1 1 0 1 1 0 2h-9a1 1 0 0 1-1-1zm-5 5a1 1 0 0 1 1-1h1a1 1 0 1 1 0 2H5a1 1 0 0 1-1-1zm5 0a1 1 0 0 1 1-1h9a1 1 0 1 1 0 2h-9a1 1 0 0 1-1-1z" fill="#0D0D0D"/></svg>