<svg width="24" height="24" viewBox="0 0 24 24" xmlns="http://www.w3.org/2000/svg" color="#2563eb" role="img" aria-labelledby="arrow-sort-up-title arrow-sort-up-desc">
  <title id="arrow-sort-up-title">Arrow Sort Up</title>
  <desc id="arrow-sort-up-desc">导航视图 - arrow_sort_up, 24px regular</desc><path fill="currentColor" d="m6.72 8.71 4.5-4.49a.75.75 0 0 1 .97-.07l.08.07 4.5 4.5a.75.75 0 0 1-.97 1.13l-.08-.07-3.22-3.22v12.7c0 .37-.28.69-.65.74h-.1a.75.75 0 0 1-.75-.64V6.56L7.78 9.78a.75.75 0 0 1-.98.07l-.08-.07a.75.75 0 0 1-.07-.98l.07-.09 4.5-4.49-4.5 4.5Z"/></svg>