<svg width="24" height="24" viewBox="0 0 24 24" xmlns="http://www.w3.org/2000/svg" color="#2563eb" role="img" aria-labelledby="chevron-up-down-title chevron-up-down-desc">
  <title id="chevron-up-down-title">Chevron Up Down</title>
  <desc id="chevron-up-down-desc">导航视图 - chevron_up_down, 24px regular</desc><path fill="currentColor" d="M12.54 2.23a.75.75 0 0 0-1.08 0L5.2 8.73a.75.75 0 1 0 1.08 1.04L12 3.83l5.7 5.94a.75.75 0 1 0 1.1-1.04l-6.26-6.5Zm0 19.54a.75.75 0 0 1-1.08 0l-6.25-6.5a.75.75 0 1 1 1.08-1.04L12 20.17l5.7-5.94a.75.75 0 1 1 1.1 1.04l-6.26 6.5Z"/></svg>