<svg
  xmlns="http://www.w3.org/2000/svg"
  width="24"
  height="24"
  viewBox="0 0 24 24"
  fill="none"
  stroke="currentColor"
  stroke-width="2"
  stroke-linecap="round"
  stroke-linejoin="round"
  class="icon icon-tabler icons-tabler-outline icon-tabler-container-off"
 color="#2563eb" role="img" aria-labelledby="tabler-container-off-title tabler-container-off-desc">
  <title id="tabler-container-off-title">container off</title>
  <desc id="tabler-container-off-desc">氢能储能 - Tabler Icons - container-off - MIT</desc>
  <path stroke="none" d="M0 0h24v24H0z" fill="none" />
  <path fill="currentColor" d="M20 4v.01" />
  <path fill="currentColor" d="M20 20v.01" />
  <path fill="currentColor" d="M20 16v.01" />
  <path fill="currentColor" d="M20 12v.01" />
  <path fill="currentColor" d="M20 8v.01" />
  <path fill="currentColor" d="M8.297 4.289a1 1 0 0 1 .703 -.289h6a1 1 0 0 1 1 1v7m0 4v3a1 1 0 0 1 -1 1h-6a1 1 0 0 1 -1 -1v-11" />
  <path fill="currentColor" d="M4 4v.01" />
  <path fill="currentColor" d="M4 20v.01" />
  <path fill="currentColor" d="M4 16v.01" />
  <path fill="currentColor" d="M4 12v.01" />
  <path fill="currentColor" d="M4 8v.01" />
  <path fill="currentColor" d="M3 3l18 18" />
</svg>