<svg
  xmlns="http://www.w3.org/2000/svg"
  width="24"
  height="24"
  viewBox="0 0 24 24"
  fill="none"
  stroke="currentColor"
  stroke-width="2"
  stroke-linecap="round"
  stroke-linejoin="round"
  class="icon icon-tabler icons-tabler-outline icon-tabler-battery-vertical-charging"
 color="#2563eb" role="img" aria-labelledby="tabler-battery-vertical-charging-title tabler-battery-vertical-charging-desc">
  <title id="tabler-battery-vertical-charging-title">battery vertical charging</title>
  <desc id="tabler-battery-vertical-charging-desc">氢能储能 - Tabler Icons - battery-vertical-charging - MIT</desc>
  <path stroke="none" d="M0 0h24v24H0z" fill="none" />
  <path fill="currentColor" d="M7 18v-11a2 2 0 0 1 2 -2h.5a.5 .5 0 0 0 .5 -.5a.5 .5 0 0 1 .5 -.5h3a.5 .5 0 0 1 .5 .5a.5 .5 0 0 0 .5 .5h.5a2 2 0 0 1 2 2v11a2 2 0 0 1 -2 2h-6a2 2 0 0 1 -2 -2" />
  <path fill="currentColor" d="M12.667 8l-2.667 4h4l-2.667 4" />
</svg>