<svg
  xmlns="http://www.w3.org/2000/svg"
  width="24"
  height="24"
  viewBox="0 0 24 24"
  fill="none"
  stroke="currentColor"
  stroke-width="2"
  stroke-linecap="round"
  stroke-linejoin="round"
  class="icon icon-tabler icons-tabler-outline icon-tabler-battery-charging-2"
 color="#2563eb" role="img" aria-labelledby="tabler-battery-charging-2-title tabler-battery-charging-2-desc">
  <title id="tabler-battery-charging-2-title">battery charging 2</title>
  <desc id="tabler-battery-charging-2-desc">氢能储能 - Tabler Icons - battery-charging-2 - MIT</desc>
  <path stroke="none" d="M0 0h24v24H0z" fill="none" />
  <path fill="currentColor" d="M4 9a2 2 0 0 1 2 -2h11a2 2 0 0 1 2 2v.5a.5 .5 0 0 0 .5 .5a.5 .5 0 0 1 .5 .5v3a.5 .5 0 0 1 -.5 .5a.5 .5 0 0 0 -.5 .5v.5a2 2 0 0 1 -2 2h-4.5" />
  <path fill="currentColor" d="M3 15h6v2a2 2 0 0 1 -2 2h-2a2 2 0 0 1 -2 -2v-2" />
  <path fill="currentColor" d="M6 22v-3" />
  <path fill="currentColor" d="M4 15v-2.5" />
  <path fill="currentColor" d="M8 15v-2.5" />
</svg>