<svg
  xmlns="http://www.w3.org/2000/svg"
  width="24"
  height="24"
  viewBox="0 0 24 24"
  fill="none"
  stroke="currentColor"
  stroke-width="2"
  stroke-linecap="round"
  stroke-linejoin="round"
  class="icon icon-tabler icons-tabler-outline icon-tabler-battery-charging"
 color="#2563eb" role="img" aria-labelledby="tabler-battery-charging-title tabler-battery-charging-desc">
  <title id="tabler-battery-charging-title">battery charging</title>
  <desc id="tabler-battery-charging-desc">氢能储能 - Tabler Icons - battery-charging - MIT</desc>
  <path stroke="none" d="M0 0h24v24H0z" fill="none" />
  <path fill="currentColor" d="M16 7h1a2 2 0 0 1 2 2v.5a.5 .5 0 0 0 .5 .5a.5 .5 0 0 1 .5 .5v3a.5 .5 0 0 1 -.5 .5a.5 .5 0 0 0 -.5 .5v.5a2 2 0 0 1 -2 2h-2" />
  <path fill="currentColor" d="M8 7h-2a2 2 0 0 0 -2 2v6a2 2 0 0 0 2 2h1" />
  <path fill="currentColor" d="M12 8l-2 4h3l-2 4" />
</svg>