<svg xmlns="http://www.w3.org/2000/svg" id="mdi-room-service-outline" viewBox="0 0 24 24" color="#2563eb" role="img" aria-labelledby="material-design-icons-room-service-outline-title material-design-icons-room-service-outline-desc">
  <title id="material-design-icons-room-service-outline-title">room service outline</title>
  <desc id="material-design-icons-room-service-outline-desc">云与基础设施 - Material Design Icons - room-service-outline - Apache-2.0</desc><path fill="currentColor" d="M12,5A2,2 0 0,1 14,7C14,7.24 13.96,7.47 13.88,7.69C17.95,8.5 21,11.91 21,16H3C3,11.91 6.05,8.5 10.12,7.69C10.04,7.47 10,7.24 10,7A2,2 0 0,1 12,5M22,19H2V17H22V19M12,9.5C8.89,9.5 6.25,11.39 5.34,14H18.66C17.75,11.39 15.11,9.5 12,9.5Z" /></svg>