<svg viewBox="0 0 15 15" fill="none" xmlns="http://www.w3.org/2000/svg" color="#2563eb" role="img" aria-labelledby="teenyicons-area-chart-title teenyicons-area-chart-desc">
  <title id="teenyicons-area-chart-title">area chart</title>
  <desc id="teenyicons-area-chart-desc">数据图表 - Teenyicons - area-chart - MIT</desc>
  <path d="M.5 14.5H0v.5h.5v-.5zm6-9l.4-.3a.5.5 0 00-.816.023L6.5 5.5zm3 4l-.4.3a.5.5 0 00.807-.01L9.5 9.5zM0 0v14.5h1V0H0zm.5 15H15v-1H.5v1zm2.416-3.223l4-6-.832-.554-4 6 .832.554zM6.1 5.8l3 4 .8-.6-3-4-.8.6zm3.807 3.99l5-7-.814-.58-5 7 .814.58z" fill="currentColor"/>
</svg>
