<svg xmlns="http://www.w3.org/2000/svg" viewBox="0 0 448 512" color="#2563eb" role="img" aria-labelledby="fontawesome-solid-calendar-title fontawesome-solid-calendar-desc">
  <title id="fontawesome-solid-calendar-title">calendar</title>
  <desc id="fontawesome-solid-calendar-desc">办公效率 - Font Awesome Free Solid - calendar - (CC-BY-4.0 AND OFL-1.1 AND MIT)</desc><!--! Font Awesome Free 7.2.0 by @fontawesome - https://fontawesome.com License - https://fontawesome.com/license/free (Icons: CC BY 4.0, Fonts: SIL OFL 1.1, Code: MIT License) Copyright 2026 Fonticons, Inc. --><path fill="currentColor" d="M128 0C110.3 0 96 14.3 96 32l0 32-32 0C28.7 64 0 92.7 0 128l0 48 448 0 0-48c0-35.3-28.7-64-64-64l-32 0 0-32c0-17.7-14.3-32-32-32s-32 14.3-32 32l0 32-128 0 0-32c0-17.7-14.3-32-32-32zM0 224L0 416c0 35.3 28.7 64 64 64l320 0c35.3 0 64-28.7 64-64l0-192-448 0z"/></svg>