<svg xmlns="http://www.w3.org/2000/svg" viewBox="0 0 24 24" color="#2563eb" role="img" aria-labelledby="eos-icons-dashboard-customize-title eos-icons-dashboard-customize-desc">
  <title id="eos-icons-dashboard-customize-title">dashboard customize</title>
  <desc id="eos-icons-dashboard-customize-desc">数据图表 - EOS Icons - dashboard-customize - MIT</desc><path fill="currentColor" d="M3,11h8V3H3V11z M5,5h4v4H5V5z"/><path fill="currentColor" d="M13,3v8h8V3H13z M19,9h-4V5h4V9z"/><path fill="currentColor" d="M3,21h8v-8H3V21z M5,15h4v4H5V15z"/><polygon fill="currentColor" points="18,13 16,13 16,16 13,16 13,18 16,18 16,21 18,21 18,18 21,18 21,16 18,16"/></svg>