<svg xmlns="http://www.w3.org/2000/svg" id="mdi-account-settings" viewBox="0 0 24 24" color="#2563eb" role="img" aria-labelledby="material-design-icons-account-settings-title material-design-icons-account-settings-desc">
  <title id="material-design-icons-account-settings-title">account settings</title>
  <desc id="material-design-icons-account-settings-desc">通信与控制 - Material Design Icons - account-settings - Apache-2.0</desc><path fill="currentColor" d="M12,4A4,4 0 0,1 16,8A4,4 0 0,1 12,12A4,4 0 0,1 8,8A4,4 0 0,1 12,4M12,14C16.42,14 20,15.79 20,18V20H4V18C4,15.79 7.58,14 12,14M7,22H9V24H7V22M11,22H13V24H11V22M15,22H17V24H15V22Z" /></svg>