<svg width="24" height="24" fill="none" viewBox="0 0 24 24" stroke-width="1.5" stroke="currentColor" stroke-linecap="round" stroke-linejoin="round" xmlns="http://www.w3.org/2000/svg" color="#2563eb" role="img" aria-labelledby="mynaui-wheelchair-title mynaui-wheelchair-desc">
  <title id="mynaui-wheelchair-title">wheelchair</title>
  <desc id="mynaui-wheelchair-desc">气象环境 - Mynaui Icons - wheelchair - MIT</desc><path fill="currentColor" d="M14.449 16.4A4.802 4.802 0 0 1 5 15.2a4.8 4.8 0 0 1 2.8-4.365"/><path fill="currentColor" d="m9.8 7.2.695 6.258a1 1 0 0 0 1.051.888l5.044-.288a1 1 0 0 1 1.056.953l.11 2.434a1 1 0 0 0 1 .955H19"/><path fill="currentColor" d="M11.2 5.6a1.6 1.6 0 1 1-3.2 0 1.6 1.6 0 0 1 3.2 0m1.55 4.8h3"/></svg>