<svg xmlns="http://www.w3.org/2000/svg" width="24" height="24" viewBox="0 0 24 24" color="#2563eb" role="img" aria-labelledby="primer-octicons-x-circle-title primer-octicons-x-circle-desc">
  <title id="primer-octicons-x-circle-title">x circle</title>
  <desc id="primer-octicons-x-circle-desc">状态告警 - Primer Octicons - x-circle - MIT</desc><path fill="currentColor" d="M9.036 7.976a.75.75 0 0 0-1.06 1.06L10.939 12l-2.963 2.963a.75.75 0 1 0 1.06 1.06L12 13.06l2.963 2.964a.75.75 0 0 0 1.061-1.06L13.061 12l2.963-2.964a.75.75 0 1 0-1.06-1.06L12 10.939 9.036 7.976Z"/><path fill="currentColor" d="M12 1c6.075 0 11 4.925 11 11s-4.925 11-11 11S1 18.075 1 12 5.925 1 12 1ZM2.5 12a9.5 9.5 0 0 0 9.5 9.5 9.5 9.5 0 0 0 9.5-9.5A9.5 9.5 0 0 0 12 2.5 9.5 9.5 0 0 0 2.5 12Z"/></svg>