<svg width="24" height="24" viewBox="0 0 24 24" xmlns="http://www.w3.org/2000/svg" color="#2563eb" role="img" aria-labelledby="compose-title compose-desc">
  <title id="compose-title">Compose</title>
  <desc id="compose-desc">常用命令 - compose, 24px regular</desc><path fill="currentColor" d="M13.25 4a.75.75 0 0 1 0 1.5h-7c-.97 0-1.75.78-1.75 1.75v10.5c0 .97.78 1.75 1.75 1.75h10.5c.97 0 1.75-.78 1.75-1.75v-7a.75.75 0 0 1 1.5 0v7c0 1.8-1.46 3.25-3.25 3.25H6.25A3.25 3.25 0 0 1 3 17.75V7.25C3 5.45 4.46 4 6.25 4h7Zm6.47-.78a.75.75 0 1 1 1.06 1.06L10.59 14.47 9 15l.53-1.6L19.72 3.23Z"/></svg>