<svg width="24" height="24" viewBox="0 0 20 20" xmlns="http://www.w3.org/2000/svg" color="#2563eb" role="img" aria-labelledby="filter-add-title filter-add-desc">
  <title id="filter-add-title">Filter Add</title>
  <desc id="filter-add-desc">常用命令 - filter_add, 20px regular</desc><path fill="currentColor" d="M12.5 15a.5.5 0 0 1 .09 1H7.5a.5.5 0 0 1-.09-1h5.09Zm2-4a.5.5 0 0 1 .09 1H5.5a.5.5 0 0 1-.09-1h9.09Zm0-10a4.5 4.5 0 1 1 0 9 4.5 4.5 0 0 1 0-9ZM9.2 7c.1.35.24.68.4 1H3.5a.5.5 0 0 1-.09-1H9.2Zm5.3-4a.5.5 0 0 0-.5.5V5h-1.5a.5.5 0 0 0 0 1H14v1.5a.5.5 0 0 0 1 0V6h1.5a.5.5 0 0 0 0-1H15V3.5a.5.5 0 0 0-.5-.5Z"/></svg>