<svg viewBox="0 0 15 15" fill="none" xmlns="http://www.w3.org/2000/svg" color="#2563eb" role="img" aria-labelledby="teenyicons-grid-layout-title teenyicons-grid-layout-desc">
  <title id="teenyicons-grid-layout-title">grid layout</title>
  <desc id="teenyicons-grid-layout-desc">画布工具 - Teenyicons - grid-layout - MIT</desc>
  <path d="M5.5.5h-4a1 1 0 00-1 1v4a1 1 0 001 1h4a1 1 0 001-1v-4a1 1 0 00-1-1zm8 0h-4a1 1 0 00-1 1v4a1 1 0 001 1h4a1 1 0 001-1v-4a1 1 0 00-1-1zm0 8h-4a1 1 0 00-1 1v4a1 1 0 001 1h4a1 1 0 001-1v-4a1 1 0 00-1-1zm-8 0h-4a1 1 0 00-1 1v4a1 1 0 001 1h4a1 1 0 001-1v-4a1 1 0 00-1-1z" stroke="currentColor"/>
</svg>
