<svg viewBox="0 0 15 15" fill="none" xmlns="http://www.w3.org/2000/svg" color="#2563eb" role="img" aria-labelledby="teenyicons-drag-horizontal-title teenyicons-drag-horizontal-desc">
  <title id="teenyicons-drag-horizontal-title">drag horizontal</title>
  <desc id="teenyicons-drag-horizontal-desc">画布工具 - Teenyicons - drag-horizontal - MIT</desc>
  <path d="M3 5.5a.5.5 0 11-1 0 .5.5 0 011 0zm5 0a.5.5 0 11-1 0 .5.5 0 011 0zm5 0a.5.5 0 11-1 0 .5.5 0 011 0zm-10 4a.5.5 0 11-1 0 .5.5 0 011 0zm5 0a.5.5 0 11-1 0 .5.5 0 011 0zm5 0a.5.5 0 11-1 0 .5.5 0 011 0z" stroke="currentColor"/>
</svg>
