<svg viewBox="0 0 15 15" fill="none" xmlns="http://www.w3.org/2000/svg" color="#2563eb" role="img" aria-labelledby="teenyicons-drag-vertical-title teenyicons-drag-vertical-desc">
  <title id="teenyicons-drag-vertical-title">drag vertical</title>
  <desc id="teenyicons-drag-vertical-desc">画布工具 - Teenyicons - drag-vertical - MIT</desc>
  <path d="M9.5 3a.5.5 0 110-1 .5.5 0 010 1zm0 5a.5.5 0 110-1 .5.5 0 010 1zm0 5a.5.5 0 110-1 .5.5 0 010 1zm-4-10a.5.5 0 110-1 .5.5 0 010 1zm0 5a.5.5 0 110-1 .5.5 0 010 1zm0 5a.5.5 0 110-1 .5.5 0 010 1z" stroke="currentColor"/>
</svg>
