<!-- @license lucide-static v1.21.0 - ISC -->
<svg
  class="lucide lucide-bug"
  xmlns="http://www.w3.org/2000/svg"
  width="24"
  height="24"
  viewBox="0 0 24 24"
  fill="none"
  stroke="currentColor"
  stroke-width="2"
  stroke-linecap="round"
  stroke-linejoin="round"
 color="#2563eb" role="img" aria-labelledby="lucide-bug-title lucide-bug-desc">
  <title id="lucide-bug-title">bug</title>
  <desc id="lucide-bug-desc">状态告警 - Lucide - bug - ISC</desc>
  <path fill="currentColor" d="M12 20v-9" />
  <path fill="currentColor" d="M14 7a4 4 0 0 1 4 4v3a6 6 0 0 1-12 0v-3a4 4 0 0 1 4-4z" />
  <path fill="currentColor" d="M14.12 3.88 16 2" />
  <path fill="currentColor" d="M21 21a4 4 0 0 0-3.81-4" />
  <path fill="currentColor" d="M21 5a4 4 0 0 1-3.55 3.97" />
  <path fill="currentColor" d="M22 13h-4" />
  <path fill="currentColor" d="M3 21a4 4 0 0 1 3.81-4" />
  <path fill="currentColor" d="M3 5a4 4 0 0 0 3.55 3.97" />
  <path fill="currentColor" d="M6 13H2" />
  <path fill="currentColor" d="m8 2 1.88 1.88" />
  <path fill="currentColor" d="M9 7.13V6a3 3 0 1 1 6 0v1.13" />
</svg>
