<!-- @license lucide-static v1.21.0 - ISC -->
<svg
  class="lucide lucide-earth-lock"
  xmlns="http://www.w3.org/2000/svg"
  width="24"
  height="24"
  viewBox="0 0 24 24"
  fill="none"
  stroke="currentColor"
  stroke-width="2"
  stroke-linecap="round"
  stroke-linejoin="round"
 color="#2563eb" role="img" aria-labelledby="lucide-earth-lock-title lucide-earth-lock-desc">
  <title id="lucide-earth-lock-title">earth lock</title>
  <desc id="lucide-earth-lock-desc">状态告警 - Lucide - earth-lock - ISC</desc>
  <path fill="currentColor" d="M7 3.34V5a3 3 0 0 0 3 3" />
  <path fill="currentColor" d="M11 21.95V18a2 2 0 0 0-2-2 2 2 0 0 1-2-2v-1a2 2 0 0 0-2-2H2.05" />
  <path fill="currentColor" d="M21.54 15H17a2 2 0 0 0-2 2v4.54" />
  <path fill="currentColor" d="M12 2a10 10 0 1 0 9.54 13" />
  <path fill="currentColor" d="M20 6V4a2 2 0 1 0-4 0v2" />
  <rect fill="currentColor" width="8" height="5" x="14" y="6" rx="1" />
</svg>
