<svg viewBox="64 64 896 896" focusable="false" xmlns="http://www.w3.org/2000/svg" color="#2563eb" role="img" aria-labelledby="ant-design-icons-expand-title ant-design-icons-expand-desc">
  <title id="ant-design-icons-expand-title">expand</title>
  <desc id="ant-design-icons-expand-desc">画布工具 - Ant Design Icons - expand - MIT</desc><defs><style /></defs><path fill="currentColor" d="M342 88H120c-17.7 0-32 14.3-32 32v224c0 8.8 7.2 16 16 16h48c8.8 0 16-7.2 16-16V168h174c8.8 0 16-7.2 16-16v-48c0-8.8-7.2-16-16-16zm578 576h-48c-8.8 0-16 7.2-16 16v176H682c-8.8 0-16 7.2-16 16v48c0 8.8 7.2 16 16 16h222c17.7 0 32-14.3 32-32V680c0-8.8-7.2-16-16-16zM342 856H168V680c0-8.8-7.2-16-16-16h-48c-8.8 0-16 7.2-16 16v224c0 17.7 14.3 32 32 32h222c8.8 0 16-7.2 16-16v-48c0-8.8-7.2-16-16-16zM904 88H682c-8.8 0-16 7.2-16 16v48c0 8.8 7.2 16 16 16h174v176c0 8.8 7.2 16 16 16h48c8.8 0 16-7.2 16-16V120c0-17.7-14.3-32-32-32z" /></svg>