<svg viewBox="64 64 896 896" focusable="false" xmlns="http://www.w3.org/2000/svg" color="#2563eb" role="img" aria-labelledby="ant-design-icons-align-right-title ant-design-icons-align-right-desc">
  <title id="ant-design-icons-align-right-title">align right</title>
  <desc id="ant-design-icons-align-right-desc">画布工具 - Ant Design Icons - align-right - MIT</desc><path fill="currentColor" d="M904 158H408c-4.4 0-8 3.6-8 8v56c0 4.4 3.6 8 8 8h496c4.4 0 8-3.6 8-8v-56c0-4.4-3.6-8-8-8zm0 424H408c-4.4 0-8 3.6-8 8v56c0 4.4 3.6 8 8 8h496c4.4 0 8-3.6 8-8v-56c0-4.4-3.6-8-8-8zm0 212H120c-4.4 0-8 3.6-8 8v56c0 4.4 3.6 8 8 8h784c4.4 0 8-3.6 8-8v-56c0-4.4-3.6-8-8-8zm0-424H120c-4.4 0-8 3.6-8 8v56c0 4.4 3.6 8 8 8h784c4.4 0 8-3.6 8-8v-56c0-4.4-3.6-8-8-8z" /></svg>