<svg viewBox="64 64 896 896" focusable="false" xmlns="http://www.w3.org/2000/svg" color="#2563eb" role="img" aria-labelledby="ant-design-icons-align-left-title ant-design-icons-align-left-desc">
  <title id="ant-design-icons-align-left-title">align left</title>
  <desc id="ant-design-icons-align-left-desc">画布工具 - Ant Design Icons - align-left - MIT</desc><path fill="currentColor" d="M120 230h496c4.4 0 8-3.6 8-8v-56c0-4.4-3.6-8-8-8H120c-4.4 0-8 3.6-8 8v56c0 4.4 3.6 8 8 8zm0 424h496c4.4 0 8-3.6 8-8v-56c0-4.4-3.6-8-8-8H120c-4.4 0-8 3.6-8 8v56c0 4.4 3.6 8 8 8zm784 140H120c-4.4 0-8 3.6-8 8v56c0 4.4 3.6 8 8 8h784c4.4 0 8-3.6 8-8v-56c0-4.4-3.6-8-8-8zm0-424H120c-4.4 0-8 3.6-8 8v56c0 4.4 3.6 8 8 8h784c4.4 0 8-3.6 8-8v-56c0-4.4-3.6-8-8-8z" /></svg>