<?xml version="1.0" encoding="UTF-8"?>
<svg xmlns="http://www.w3.org/2000/svg" viewBox="0 0 64 64" width="64" height="64" color="#0891b2" role="img" aria-labelledby="hydrogen-cooling-loop-title hydrogen-cooling-loop-desc">
  <title id="hydrogen-cooling-loop-title">制氢冷却回路</title>
  <desc id="hydrogen-cooling-loop-desc">氢能工艺设备 - 复用 冷热能源 / cooling-square</desc>
  <g transform="translate(8 8) scale(2)">
<path d="M21 3.6V20.4C21 20.7314 20.7314 21 20.4 21H3.6C3.26863 21 3 20.7314 3 20.4V3.6C3 3.26863 3.26863 3 3.6 3H20.4C20.7314 3 21 3.26863 21 3.6Z" stroke="currentColor" stroke-linecap="round" stroke-linejoin="round"/>
<path d="M12 7L12 12M12 17L12 12M12 12L7.5 9.5M12 12L16.5 14.5M12 12L16.5 9.5M12 12L7.5 14.5" stroke="currentColor" stroke-linecap="round" stroke-linejoin="round"/>
  </g>
  <g>
<path d="M46 46h14v14H46z" fill="none" stroke="currentColor" stroke-width="2.6" stroke-linecap="round" stroke-linejoin="round"/><circle cx="51" cy="52" r="1.35" fill="none" stroke="currentColor" stroke-width="2.6" stroke-linecap="round" stroke-linejoin="round"/><path d="M51 52L52 53" fill="none" stroke="currentColor" stroke-width="2.6" stroke-linecap="round" stroke-linejoin="round"/><circle cx="52" cy="53" r="1.1" fill="none" stroke="currentColor" stroke-width="2.6" stroke-linecap="round" stroke-linejoin="round"/>
  </g>
</svg>
