<svg xmlns="http://www.w3.org/2000/svg" viewBox="0 0 256 256" fill="currentColor" color="#2563eb" role="img" aria-labelledby="phosphor-cards-three-title phosphor-cards-three-desc">
  <title id="phosphor-cards-three-title">cards three</title>
  <desc id="phosphor-cards-three-desc">业务金融 - Phosphor Icons - cards-three - MIT</desc><path fill="currentColor" d="M208,88H48a16,16,0,0,0-16,16v96a16,16,0,0,0,16,16H208a16,16,0,0,0,16-16V104A16,16,0,0,0,208,88Zm0,112H48V104H208v96ZM48,64a8,8,0,0,1,8-8H200a8,8,0,0,1,0,16H56A8,8,0,0,1,48,64ZM64,32a8,8,0,0,1,8-8H184a8,8,0,0,1,0,16H72A8,8,0,0,1,64,32Z"/></svg>