<?xml version="1.0" encoding="UTF-8"?>
<svg xmlns="http://www.w3.org/2000/svg" viewBox="0 0 64 64" width="64" height="64" color="#22c55e" role="img" aria-labelledby="battery-cluster-title battery-cluster-desc">
  <title id="battery-cluster-title">电池簇</title>
  <desc id="battery-cluster-desc">储能细分设备 - 复用 开发集成 / battery_charge_10</desc>
  <g transform="translate(8 8) scale(2.4)">
<path fill="currentColor" d="M6.32 6H3a2 2 0 0 0-2 2v4c0 1.1.9 2 2 2h13a2 2 0 0 0 2-2V8a2 2 0 0 0-2-2h-3.33l.1-.18c.13-.27.16-.56.1-.82H16a3 3 0 0 1 3 3 1 1 0 0 1 1 1v2a1 1 0 0 1-1 1 3 3 0 0 1-3 3H3a3 3 0 0 1-3-3V8a3 3 0 0 1 3-3h3.83l-.5 1Zm-.2 1c.12.55.6 1 1.23 1H8v1.67c0 1.4 1.88 1.85 2.52.6L12.17 7H16a1 1 0 0 1 1 1v4a1 1 0 0 1-1 1H3a1 1 0 0 1-1-1V8a1 1 0 0 1 1-1h3.13Zm3.25-4.82c.16-.3.63-.2.63.15V5h1.64c.2 0 .32.2.23.37L9.62 9.82c-.15.3-.62.2-.62-.15V7H7.35a.26.26 0 0 1-.22-.37l2.24-4.45Z"/>
  </g>
  <g>
<path d="M46 46h14v14H46z" fill="none" stroke="currentColor" stroke-width="2.6" stroke-linecap="round" stroke-linejoin="round"/><circle cx="53" cy="49" r="1" fill="none" stroke="currentColor" stroke-width="2.6" stroke-linecap="round" stroke-linejoin="round"/><path d="M53 49L49 48" fill="none" stroke="currentColor" stroke-width="2.6" stroke-linecap="round" stroke-linejoin="round"/><circle cx="53" cy="51" r="1.1" fill="none" stroke="currentColor" stroke-width="2.6" stroke-linecap="round" stroke-linejoin="round"/>
  </g>
</svg>
