<?xml version="1.0" encoding="UTF-8"?>
<svg xmlns="http://www.w3.org/2000/svg" viewBox="0 0 64 64" width="64" height="64" color="#22c55e" role="img" aria-labelledby="black-start-storage-title black-start-storage-desc">
  <title id="black-start-storage-title">黑启动储能</title>
  <desc id="black-start-storage-desc">储能细分设备 - 复用 能源通用 / power-on</desc>
  <g transform="translate(8 8) scale(1.5)">
<path fill="currentColor" d="M16,31.36C7.53,31.36,0.64,24.47,0.64,16	S7.53,0.64,16,0.64S31.36,7.53,31.36,16S24.47,31.36,16,31.36z M16,1.36C7.927,1.36,1.36,7.927,1.36,16	c0,8.072,6.567,14.64,14.64,14.64c8.072,0,14.64-6.567,14.64-14.64S24.072,1.36,16,1.36z M16,24.36c-4.61,0-8.36-3.751-8.36-8.36	c0-3.368,2.004-6.391,5.106-7.703l0.28,0.663C10.192,10.159,8.36,12.922,8.36,16c0,4.213,3.427,7.64,7.64,7.64s7.64-3.427,7.64-7.64	c0-3.078-1.831-5.841-4.666-7.04l0.281-0.663C22.356,9.609,24.36,12.633,24.36,16C24.36,20.609,20.609,24.36,16,24.36z M16.36,16	h-0.72V5h0.72V16z"/>
  </g>
  <g>
<path d="M46 46h14v14H46z" fill="none" stroke="currentColor" stroke-width="2.6" stroke-linecap="round" stroke-linejoin="round"/><circle cx="54" cy="40" r="1" fill="none" stroke="currentColor" stroke-width="2.6" stroke-linecap="round" stroke-linejoin="round"/><path d="M54 40L47 44" fill="none" stroke="currentColor" stroke-width="2.6" stroke-linecap="round" stroke-linejoin="round"/><circle cx="50" cy="45" r="1.1" fill="none" stroke="currentColor" stroke-width="2.6" stroke-linecap="round" stroke-linejoin="round"/>
  </g>
</svg>
