<svg width="24" height="24" viewBox="0 0 24 24" xmlns="http://www.w3.org/2000/svg" color="#2563eb" role="img" aria-labelledby="cellular-data-3-title cellular-data-3-desc">
  <title id="cellular-data-3-title">Cellular Data 3</title>
  <desc id="cellular-data-3-desc">数据图表 - cellular_data_3, 24px regular</desc><path fill="currentColor" d="M3.75 17c.38 0 .7.28.74.65l.01.1v1.5a.75.75 0 0 1-1.5.1v-1.6c0-.41.34-.75.75-.75Zm8-6c.38 0 .7.28.74.65l.01.1v7.5a.75.75 0 0 1-1.5.1v-7.6c0-.41.34-.75.75-.75Zm-4 3c.38 0 .7.28.74.65l.01.1v4.5a.75.75 0 0 1-1.5.1v-4.6c0-.41.34-.75.75-.75Z"/></svg>