<svg xmlns="http://www.w3.org/2000/svg" width="24" height="24" fill="currentColor" viewBox="0 0 24 24" color="#2563eb" role="img" aria-labelledby="pixelarticons-car-title pixelarticons-car-desc">
  <title id="pixelarticons-car-title">car</title>
  <desc id="pixelarticons-car-desc">交通设施 - Pixelarticons - car - MIT</desc>
  <path fill="currentColor" d="M4 13h6v2H4zm10 0h6v2h-6zM4 17h6v2H4zm10 0h6v2h-6zM2 15h4v2H2zm6 0h8v2H8zm10 0h4v2h-4zm4-4h2v4h-2zm-6-4h2v2h-2zM4 5h12v2H4zm-4 6h2v4H0zm12-2h10v2H12zM2 7h2v4H2zm8 0h2v2h-2z"/>
</svg>
