<svg xmlns="http://www.w3.org/2000/svg" viewBox="0 0 32 32" color="#2563eb" role="img" aria-labelledby="carbon-import-export-title carbon-import-export-desc">
  <title id="carbon-import-export-title">import export</title>
  <desc id="carbon-import-export-desc">通用命令 - Carbon Icons - import-export - Apache-2.0</desc><path fill="currentColor" d="M28,24v4H4V24H2v4l.0076-.0049A1.9977,1.9977,0,0,0,4,30H28a2,2,0,0,0,2-2h0V24Z"/><path fill="currentColor" d="M27.6 14.6 24 18.2 24 4 22 4 22 18.2 18.4 14.6 17 16 23 22 29 16 27.6 14.6z"/><path fill="currentColor" d="M9 4 3 10 4.4 11.4 8 7.8 8 22 10 22 10 7.8 13.6 11.4 15 10 9 4z"/></svg>