<svg xmlns="http://www.w3.org/2000/svg" viewBox="0 0 32 32" color="#2563eb" role="img" aria-labelledby="carbon-data-share-title carbon-data-share-desc">
  <title id="carbon-data-share-title">data share</title>
  <desc id="carbon-data-share-desc">通用命令 - Carbon Icons - data-share - Apache-2.0</desc><path fill="currentColor" d="M5,25V15.8281l-3.5859,3.586L0,18l6-6,6,6-1.4141,1.4141L7,15.8281V25H19v2H7A2.0024,2.0024,0,0,1,5,25Z"/><path fill="currentColor" d="M24,22h4a2.002,2.002,0,0,1,2,2v4a2.002,2.002,0,0,1-2,2H24a2.002,2.002,0,0,1-2-2V24A2.002,2.002,0,0,1,24,22Zm4,6V24H23.9985L24,28Z"/><path fill="currentColor" d="M27,6v9.1719l3.5859-3.586L32,13l-6,6-6-6,1.4141-1.4141L25,15.1719V6H13V4H25A2.0024,2.0024,0,0,1,27,6Z"/><path fill="currentColor" d="M2 6H8V8H2z"/><path fill="currentColor" d="M2 2H10V4H2z"/></svg>