<svg xmlns="http://www.w3.org/2000/svg" viewBox="0 0 32 32" color="#2563eb" role="img" aria-labelledby="carbon-paste-title carbon-paste-desc">
  <title id="carbon-paste-title">paste</title>
  <desc id="carbon-paste-desc">通用命令 - Carbon Icons - paste - Apache-2.0</desc><path fill="currentColor" d="M26,20H17.83l2.58-2.59L19,16l-5,5,5,5,1.41-1.41L17.83,22H26v8h2V22A2,2,0,0,0,26,20Z"/><path fill="currentColor" d="M23.71,9.29l-7-7A1,1,0,0,0,16,2H6A2,2,0,0,0,4,4V28a2,2,0,0,0,2,2h8V28H6V4h8v6a2,2,0,0,0,2,2h6v2h2V10A1,1,0,0,0,23.71,9.29ZM16,4.41,21.59,10H16Z"/></svg>