<svg xmlns="http://www.w3.org/2000/svg" viewBox="0 0 32 32" color="#2563eb" role="img" aria-labelledby="carbon-save-title carbon-save-desc">
  <title id="carbon-save-title">save</title>
  <desc id="carbon-save-desc">通用命令 - Carbon Icons - save - Apache-2.0</desc><path fill="currentColor" d="M27.71,9.29l-5-5A1,1,0,0,0,22,4H6A2,2,0,0,0,4,6V26a2,2,0,0,0,2,2H26a2,2,0,0,0,2-2V10A1,1,0,0,0,27.71,9.29ZM12,6h8v4H12Zm8,20H12V18h8Zm2,0V18a2,2,0,0,0-2-2H12a2,2,0,0,0-2,2v8H6V6h4v4a2,2,0,0,0,2,2h8a2,2,0,0,0,2-2V6.41l4,4V26Z"/></svg>