<svg xmlns="http://www.w3.org/2000/svg" viewBox="0 0 32 32" color="#2563eb" role="img" aria-labelledby="carbon-save-image-title carbon-save-image-desc">
  <title id="carbon-save-image-title">save image</title>
  <desc id="carbon-save-image-desc">通用命令 - Carbon Icons - save-image - Apache-2.0</desc><path fill="currentColor" d="M21.56,15.1l-3.48-4.35A2,2,0,0,0,16.52,10H4a2,2,0,0,0-2,2V28a2,2,0,0,0,2,2H20a2,2,0,0,0,2-2V16.35A2,2,0,0,0,21.56,15.1ZM9,12h6v3H9Zm6,16H9V22h6Zm2,0V22a2,2,0,0,0-2-2H9a2,2,0,0,0-2,2v6H4V12H7v3a2,2,0,0,0,2,2h6a2,2,0,0,0,2-2V12.6l3,3.75V28Z"/><path fill="currentColor" d="M28,20H25V18h3V4H14V7H12V4a2,2,0,0,1,2-2H28a2,2,0,0,1,2,2V18A2,2,0,0,1,28,20Z"/></svg>