<svg xmlns="http://www.w3.org/2000/svg" viewBox="0 0 32 32" color="#2563eb" role="img" aria-labelledby="carbon-cut-out-title carbon-cut-out-desc">
  <title id="carbon-cut-out-title">cut out</title>
  <desc id="carbon-cut-out-desc">通用命令 - Carbon Icons - cut-out - Apache-2.0</desc><path fill="currentColor" d="M19.05,13.7326,18.05,12,7.928,17.8457,6.9312,17.27a2.9524,2.9524,0,0,0,.6672-.769A3,3,0,1,0,3.5,17.5986l2.428,1.4019L3.5,20.4023a3.0342,3.0342,0,1,0,3.4407.3223l.987-.5693L14.5914,24l1-1.7294-5.6634-3.27ZM4.0344,15.26a1,1,0,1,1,.4658.6069A.9929.9929,0,0,1,4.0344,15.26ZM4.9988,22a1,1,0,1,1-.8645,1.5A1,1,0,0,1,4.9988,22Z"/><path fill="currentColor" d="M17 26H21V28H17z"/><path fill="currentColor" d="M10 26H14V28H10z"/><path fill="currentColor" d="M28,28H24V26h4V4H7V8H5V4A2.0023,2.0023,0,0,1,7,2H28a2.0023,2.0023,0,0,1,2,2V26A2.0023,2.0023,0,0,1,28,28Z"/></svg>