<svg xmlns="http://www.w3.org/2000/svg" viewBox="0 0 32 32" color="#2563eb" role="img" aria-labelledby="carbon-mobile-add-title carbon-mobile-add-desc">
  <title id="carbon-mobile-add-title">mobile add</title>
  <desc id="carbon-mobile-add-desc">通用命令 - Carbon Icons - mobile-add - Apache-2.0</desc><path fill="currentColor" d="M28 24 24 24 24 20 22 20 22 24 18 24 18 26 22 26 22 30 24 30 24 26 28 26 28 24z"/><path fill="currentColor" d="M10,28V10H22v7h2V6a2.0023,2.0023,0,0,0-2-2H10A2.002,2.002,0,0,0,8,6V28a2.0023,2.0023,0,0,0,2,2h6l0-2ZM10,6H22l0,2H10Z"/></svg>