<svg xmlns="http://www.w3.org/2000/svg" viewBox="0 0 32 32" color="#2563eb" role="img" aria-labelledby="carbon-data-check-title carbon-data-check-desc">
  <title id="carbon-data-check-title">data check</title>
  <desc id="carbon-data-check-desc">通用命令 - Carbon Icons - data-check - Apache-2.0</desc><path fill="currentColor" d="M23 27.18 20.41 24.59 19 26 23 30 30 23 28.59 21.59 23 27.18z"/><circle fill="currentColor" cx="11" cy="8" r="1"/><circle fill="currentColor" cx="11" cy="16" r="1"/><circle fill="currentColor" cx="11" cy="24" r="1"/><path fill="currentColor" d="M24,3H8A2,2,0,0,0,6,5V27a2,2,0,0,0,2,2h8V27H8V21H26V5A2,2,0,0,0,24,3Zm0,16H8V13H24Zm0-8H8V5H24Z"/></svg>