<svg xmlns="http://www.w3.org/2000/svg" viewBox="0 0 24 24" fill="none" color="#2563eb" role="img" aria-labelledby="majesticons-curly-braces-title majesticons-curly-braces-desc">
  <title id="majesticons-curly-braces-title">curly braces</title>
  <desc id="majesticons-curly-braces-desc">开发工具 - Majesticons - curly-braces - MIT</desc><path stroke="currentColor" stroke-linecap="round" stroke-linejoin="round" stroke-width="2" d="M9.5 5H9a2 2 0 0 0-2 2v2c0 1-.6 3-3 3 1 0 3 .6 3 3v2a2 2 0 0 0 2 2h.5m5-14h.5a2 2 0 0 1 2 2v2c0 1 .6 3 3 3-1 0-3 .6-3 3v2a2 2 0 0 1-2 2h-.5"/></svg>