<svg xmlns="http://www.w3.org/2000/svg" width="24" height="24" viewBox="0 0 24 24" color="#2563eb" role="img" aria-labelledby="primer-octicons-move-to-top-title primer-octicons-move-to-top-desc">
  <title id="primer-octicons-move-to-top-title">move to top</title>
  <desc id="primer-octicons-move-to-top-desc">画布工具 - Primer Octicons - move-to-top - MIT</desc><path fill="currentColor" d="M4.75 3.5a.75.75 0 0 1 0-1.5h14.5a.75.75 0 0 1 0 1.5H4.75Zm.47 9.47a.749.749 0 1 0 1.06 1.06l4.97-4.969V21.25a.75.75 0 0 0 1.5 0V9.061l4.97 4.969a.749.749 0 1 0 1.06-1.06l-6.25-6.25a.749.749 0 0 0-1.06 0l-6.25 6.25Z"/></svg>