<svg
  xmlns="http://www.w3.org/2000/svg"
  width="24"
  height="24"
  viewBox="0 0 24 24"
  fill="none"
  stroke="currentColor"
  stroke-width="2"
  stroke-linecap="round"
  stroke-linejoin="round"
  class="icon icon-tabler icons-tabler-outline icon-tabler-clock-star"
 color="#2563eb" role="img" aria-labelledby="tabler-clock-star-title tabler-clock-star-desc">
  <title id="tabler-clock-star-title">clock star</title>
  <desc id="tabler-clock-star-desc">办公效率 - Tabler Icons - clock-star - MIT</desc>
  <path stroke="none" d="M0 0h24v24H0z" fill="none" />
  <path fill="currentColor" d="M20.982 11.436a9 9 0 1 0 -9.966 9.51" />
  <path fill="currentColor" d="M17.8 20.817l-2.172 1.138a.392 .392 0 0 1 -.568 -.41l.415 -2.411l-1.757 -1.707a.389 .389 0 0 1 .217 -.665l2.428 -.352l1.086 -2.193a.392 .392 0 0 1 .702 0l1.086 2.193l2.428 .352a.39 .39 0 0 1 .217 .665l-1.757 1.707l.414 2.41a.39 .39 0 0 1 -.567 .411l-2.172 -1.138" />
  <path fill="currentColor" d="M12 7v5l1 1" />
</svg>