<svg xmlns="http://www.w3.org/2000/svg" viewBox="0 0 32 32" color="#2563eb" role="img" aria-labelledby="carbon-list-boxes-title carbon-list-boxes-desc">
  <title id="carbon-list-boxes-title">list boxes</title>
  <desc id="carbon-list-boxes-desc">办公效率 - Carbon Icons - list-boxes - Apache-2.0</desc><path fill="currentColor" d="M16 8H30V10H16z"/><path fill="currentColor" d="M16 22H30V24H16z"/><path fill="currentColor" d="M10,14H4a2.0023,2.0023,0,0,1-2-2V6A2.0023,2.0023,0,0,1,4,4h6a2.0023,2.0023,0,0,1,2,2v6A2.0023,2.0023,0,0,1,10,14ZM4,6v6h6.0012L10,6Z"/><path fill="currentColor" d="M10,28H4a2.0023,2.0023,0,0,1-2-2V20a2.0023,2.0023,0,0,1,2-2h6a2.0023,2.0023,0,0,1,2,2v6A2.0023,2.0023,0,0,1,10,28ZM4,20v6h6.0012L10,20Z"/></svg>