<svg xmlns="http://www.w3.org/2000/svg" viewBox="0 0 32 32" color="#2563eb" role="img" aria-labelledby="carbon-task-title carbon-task-desc">
  <title id="carbon-task-title">task</title>
  <desc id="carbon-task-desc">办公效率 - Carbon Icons - task - Apache-2.0</desc><path fill="currentColor" d="M14 20.18 10.41 16.59 9 18 14 23 23 14 21.59 12.58 14 20.18z"/><path fill="currentColor" d="M25,5H22V4a2,2,0,0,0-2-2H12a2,2,0,0,0-2,2V5H7A2,2,0,0,0,5,7V28a2,2,0,0,0,2,2H25a2,2,0,0,0,2-2V7A2,2,0,0,0,25,5ZM12,4h8V8H12ZM25,28H7V7h3v3H22V7h3Z"/></svg>