<svg xmlns="http://www.w3.org/2000/svg" viewBox="0 0 32 32" color="#2563eb" role="img" aria-labelledby="carbon-delivery-time-title carbon-delivery-time-desc">
  <title id="carbon-delivery-time-title">delivery time</title>
  <desc id="carbon-delivery-time-desc">办公效率 - Carbon Icons - delivery-time - Apache-2.0</desc><path fill="currentColor" d="M16,30c-7.7197,0-14-6.2803-14-14S8.2803,2,16,2s14,6.2803,14,14-6.2803,14-14,14ZM16,4c-6.6167,0-12,5.3833-12,12s5.3833,12,12,12,12-5.3828,12-12-5.3828-12-12-12ZM20.293,21.707l-5.293-5.293V7h2v8.5859l4.707,4.707-1.4141,1.4141ZM13,17h-2v-2h2v2ZM9,17h-2v-2h2v2Z"/></svg>