<svg xmlns="http://www.w3.org/2000/svg" viewBox="0 0 32 32" color="#2563eb" role="img" aria-labelledby="carbon-time-plot-title carbon-time-plot-desc">
  <title id="carbon-time-plot-title">time plot</title>
  <desc id="carbon-time-plot-desc">办公效率 - Carbon Icons - time-plot - Apache-2.0</desc><path fill="currentColor" d="M23.586 13 21 10.414 21 6 23 6 23 9.586 25 11.586 23.586 13z"/><path fill="currentColor" d="M22,18a8,8,0,1,1,8-8A8.0092,8.0092,0,0,1,22,18ZM22,4a6,6,0,1,0,6,6A6.0066,6.0066,0,0,0,22,4Z"/><path fill="currentColor" d="M8.63,18l7,6H30V22H16.37l-7-6H4V2H2V28a2.0025,2.0025,0,0,0,2,2H30V28H4V18Z"/></svg>