<svg width="24" height="24" viewBox="0 0 24 24" xmlns="http://www.w3.org/2000/svg" color="#2563eb" role="img" aria-labelledby="table-column-top-bottom-title table-column-top-bottom-desc">
  <title id="table-column-top-bottom-title">Table Column Top Bottom</title>
  <desc id="table-column-top-bottom-desc">数据图表 - table_column_top_bottom, 24px regular</desc><path fill="currentColor" d="M3 6.25C3 4.45 4.46 3 6.25 3h11.5C19.55 3 21 4.46 21 6.25v11.5c0 1.8-1.46 3.25-3.25 3.25H6.25A3.25 3.25 0 0 1 3 17.75V6.25ZM6.25 4.5c-.97 0-1.75.78-1.75 1.75V8.5h4v-4H6.25ZM4.5 10v4h4v-4h-4Zm5.5 0v4h4v-4h-4Zm5.5 0v4h4v-4h-4Zm0 9.5h2.25c.97 0 1.75-.78 1.75-1.75V15.5h-4v4Zm0-11h4V6.25c0-.97-.78-1.75-1.75-1.75H15.5v4Zm-11 7v2.25c0 .97.78 1.75 1.75 1.75H8.5v-4h-4Z"/></svg>