<svg width="24" height="24" viewBox="0 0 24 24" fill="none" xmlns="http://www.w3.org/2000/svg" color="#2563eb" role="img" aria-labelledby="mono-icons-drag-title mono-icons-drag-desc">
  <title id="mono-icons-drag-title">drag</title>
  <desc id="mono-icons-drag-desc">画布工具 - Mono Icons - drag - MIT</desc><path d="M4 6a1 1 0 0 1 1-1h14a1 1 0 1 1 0 2H5a1 1 0 0 1-1-1zm0 4a1 1 0 0 1 1-1h14a1 1 0 1 1 0 2H5a1 1 0 0 1-1-1zm0 4a1 1 0 0 1 1-1h14a1 1 0 1 1 0 2H5a1 1 0 0 1-1-1zm0 4a1 1 0 0 1 1-1h14a1 1 0 1 1 0 2H5a1 1 0 0 1-1-1z" fill="#0D0D0D"/></svg>