<svg width="24" height="24" viewBox="0 0 24 24" fill="none" xmlns="http://www.w3.org/2000/svg" color="#2563eb" role="img" aria-labelledby="mono-icons-grid-title mono-icons-grid-desc">
  <title id="mono-icons-grid-title">grid</title>
  <desc id="mono-icons-grid-desc">画布工具 - Mono Icons - grid - MIT</desc><path d="M3 5a2 2 0 0 1 2-2h4a2 2 0 0 1 2 2v4a2 2 0 0 1-2 2H5a2 2 0 0 1-2-2V5zm6 0H5v4h4V5zm4 0a2 2 0 0 1 2-2h4a2 2 0 0 1 2 2v4a2 2 0 0 1-2 2h-4a2 2 0 0 1-2-2V5zm6 0h-4v4h4V5zM3 15a2 2 0 0 1 2-2h4a2 2 0 0 1 2 2v4a2 2 0 0 1-2 2H5a2 2 0 0 1-2-2v-4zm6 0H5v4h4v-4zm4 0a2 2 0 0 1 2-2h4a2 2 0 0 1 2 2v4a2 2 0 0 1-2 2h-4a2 2 0 0 1-2-2v-4zm6 0h-4v4h4v-4z" fill="#0D0D0D"/></svg>