<svg xmlns="http://www.w3.org/2000/svg" id="mdi-backup-restore" viewBox="0 0 24 24" color="#2563eb" role="img" aria-labelledby="material-design-icons-backup-restore-title material-design-icons-backup-restore-desc">
  <title id="material-design-icons-backup-restore-title">backup restore</title>
  <desc id="material-design-icons-backup-restore-desc">氢能储能 - Material Design Icons - backup-restore - Apache-2.0</desc><path fill="currentColor" d="M12,3A9,9 0 0,0 3,12H0L4,16L8,12H5A7,7 0 0,1 12,5A7,7 0 0,1 19,12A7,7 0 0,1 12,19C10.5,19 9.09,18.5 7.94,17.7L6.5,19.14C8.04,20.3 9.94,21 12,21A9,9 0 0,0 21,12A9,9 0 0,0 12,3M14,12A2,2 0 0,0 12,10A2,2 0 0,0 10,12A2,2 0 0,0 12,14A2,2 0 0,0 14,12Z" /></svg>