<svg viewBox="0 0 15 15" fill="none" xmlns="http://www.w3.org/2000/svg" color="#2563eb" role="img" aria-labelledby="teenyicons-ms-excel-title teenyicons-ms-excel-desc">
  <title id="teenyicons-ms-excel-title">ms excel</title>
  <desc id="teenyicons-ms-excel-desc">文件文档 - Teenyicons - ms-excel - MIT</desc>
  <path d="M2.5 3.5v-2a1 1 0 011-1h10a1 1 0 011 1v12a1 1 0 01-1 1h-10a1 1 0 01-1-1v-2m0-6l4 4m-4 0l4-4m-5-2h6a1 1 0 011 1v6a1 1 0 01-1 1h-6a1 1 0 01-1-1v-6a1 1 0 011-1z" stroke="currentColor"/>
</svg>
