<svg xmlns="http://www.w3.org/2000/svg" width="48" height="48" viewBox="0 -960 960 960" color="#2563eb" role="img" aria-labelledby="material-symbols-food-bank-title material-symbols-food-bank-desc">
  <title id="material-symbols-food-bank-title">food bank</title>
  <desc id="material-symbols-food-bank-desc">业务金融 - Material Symbols - food_bank - Apache-2.0</desc><path fill="currentColor" d="M400-240h40v-160q25 0 42.5-17.5T500-460v-120h-40v120h-20v-120h-40v120h-20v-120h-40v120q0 25 17.5 42.5T400-400v160Zm160 0h40v-340q-33 0-56.5 23.5T520-500v120h40v140ZM160-120v-480l320-240 320 240v480H160Zm60-60h520v-394L480-763 220-574v394Zm260-292Z"/></svg>