<svg xmlns="http://www.w3.org/2000/svg" width="48" height="48" viewBox="0 -960 960 960" color="#2563eb" role="img" aria-labelledby="material-symbols-receipt-title material-symbols-receipt-desc">
  <title id="material-symbols-receipt-title">receipt</title>
  <desc id="material-symbols-receipt-desc">业务金融 - Material Symbols - receipt - Apache-2.0</desc><path fill="currentColor" d="M120-81v-798l60 60 60-60 60 60 60-60 60 60 60-60 60 60 60-60 60 60 60-60 60 60 60-60v798l-60-60-60 60-60-60-60 60-60-60-60 60-60-59.85L360-81l-60-59.85L240-81l-60-59.85L120-81Zm117-215h490v-60H237v60Zm0-154h490v-60H237v60Zm0-155h490v-60H237v60Zm-57 423h600v-596H180v596Zm0-596v596-596Z"/></svg>