<?xml version="1.0" encoding="UTF-8"?>
<svg xmlns="http://www.w3.org/2000/svg" viewBox="0 0 64 64" width="64" height="64" color="#f59e0b" role="img" aria-labelledby="protective-helmet-title protective-helmet-desc">
  <title id="protective-helmet-title">安全帽</title>
  <desc id="protective-helmet-desc">安全消防 - 复用 燃气能源 / helmet-safety</desc>
  <g transform="translate(8 10.6667) scale(0.0833)">
<!--! Font Awesome Free 7.2.0 by @fontawesome - https://fontawesome.com License - https://fontawesome.com/license/free (Icons: CC BY 4.0, Fonts: SIL OFL 1.1, Code: MIT License) Copyright 2026 Fonticons, Inc. --><path fill="currentColor" d="M352 264l0-200c0-17.7-14.3-32-32-32l-64 0c-17.7 0-32 14.3-32 32l0 200c0 13.3-10.7 24-24 24s-24-10.7-24-24l0-185.9C90 109.8 32 191.8 32 288l0 64 512 0 0-64c-1-95.2-58.4-177.7-144-209.8L400 264c0 13.3-10.7 24-24 24s-24-10.7-24-24zM40 400c-22.1 0-40 17.9-40 40s17.9 40 40 40l496 0c22.1 0 40-17.9 40-40s-17.9-40-40-40L40 400z"/>
  </g>
  <g>
<path d="M46 46h14v14H46z" fill="none" stroke="currentColor" stroke-width="2.6" stroke-linecap="round" stroke-linejoin="round"/><circle cx="49" cy="42" r="1" fill="none" stroke="currentColor" stroke-width="2.6" stroke-linecap="round" stroke-linejoin="round"/><path d="M49 42L48 43" fill="none" stroke="currentColor" stroke-width="2.6" stroke-linecap="round" stroke-linejoin="round"/><circle cx="45" cy="43" r="1.1" fill="none" stroke="currentColor" stroke-width="2.6" stroke-linecap="round" stroke-linejoin="round"/>
  </g>
</svg>
