<?xml version="1.0" encoding="UTF-8"?>
<svg xmlns="http://www.w3.org/2000/svg" viewBox="0 0 64 64" width="64" height="64" color="#14b8a6" role="img" aria-labelledby="fuel-cell-title fuel-cell-desc">
  <title id="fuel-cell-title">燃料电池</title>
  <desc id="fuel-cell-desc">氢能 - 复用 新能源设备 / fuel-cell</desc>
  <g transform="translate(8 8) scale(2)">
<path fill="currentColor" d="M6 3V5H4C2.9 5 2 5.9 2 7V17C2 18.1 2.9 19 4 19V20C4 21.1 4.9 22 6 22H7C8.1 22 9 21.1 9 20V19H15V20C15 21.1 15.9 22 17 22H18C19.1 22 20 21.1 20 20V19C21.1 19 22 18.1 22 17H11V5H8V3H6M16 3V5H13V7H22C22 5.9 21.1 5 20 5H18V3H16M7 7V11H9L6 17V13H4L7 7M13 9V11H22V9H13M13 13V15H22V13H13Z" />
  </g>
  <g>
<path d="M46 46h14v14H46z" fill="none" stroke="currentColor" stroke-width="2.6" stroke-linecap="round" stroke-linejoin="round"/><circle cx="49" cy="47" r="1" fill="none" stroke="currentColor" stroke-width="2.6" stroke-linecap="round" stroke-linejoin="round"/><path d="M49 47L46 43" fill="none" stroke="currentColor" stroke-width="2.6" stroke-linecap="round" stroke-linejoin="round"/><circle cx="46" cy="47" r="1.1" fill="none" stroke="currentColor" stroke-width="2.6" stroke-linecap="round" stroke-linejoin="round"/>
  </g>
</svg>
