<svg width="24" height="24" viewBox="0 0 20 20" xmlns="http://www.w3.org/2000/svg" color="#2563eb" role="img" aria-labelledby="delete-lines-title delete-lines-desc">
  <title id="delete-lines-title">Delete Lines</title>
  <desc id="delete-lines-desc">常用命令 - delete_lines, 20px regular</desc><path fill="currentColor" d="M11.5 4a1.5 1.5 0 0 0-3 0h3Zm-4 0a2.5 2.5 0 0 1 5 0h5a.5.5 0 0 1 0 1h-1.05l-.81 7h-1l.8-7H4.56l1.18 10.23A2 2 0 0 0 7.73 17h2.36a1.5 1.5 0 0 0 0 1H7.73a3 3 0 0 1-2.98-2.66L3.55 5H2.5a.5.5 0 0 1 0-1h5Zm4 9a.5.5 0 0 0 0 1h6a.5.5 0 0 0 0-1h-6Zm0 2a.5.5 0 0 0 0 1h6a.5.5 0 0 0 0-1h-6Zm0 2a.5.5 0 0 0 0 1h6a.5.5 0 0 0 0-1h-6Z"/></svg>