<svg xmlns="http://www.w3.org/2000/svg" viewBox="0 0 512 512" color="#2563eb" role="img" aria-labelledby="fontawesome-solid-chart-simple-title fontawesome-solid-chart-simple-desc">
  <title id="fontawesome-solid-chart-simple-title">chart simple</title>
  <desc id="fontawesome-solid-chart-simple-desc">数据图表 - Font Awesome Free Solid - chart-simple - (CC-BY-4.0 AND OFL-1.1 AND MIT)</desc><!--! Font Awesome Free 7.2.0 by @fontawesome - https://fontawesome.com License - https://fontawesome.com/license/free (Icons: CC BY 4.0, Fonts: SIL OFL 1.1, Code: MIT License) Copyright 2026 Fonticons, Inc. --><path fill="currentColor" d="M192 80c0-26.5 21.5-48 48-48l32 0c26.5 0 48 21.5 48 48l0 352c0 26.5-21.5 48-48 48l-32 0c-26.5 0-48-21.5-48-48l0-352zM0 272c0-26.5 21.5-48 48-48l32 0c26.5 0 48 21.5 48 48l0 160c0 26.5-21.5 48-48 48l-32 0c-26.5 0-48-21.5-48-48L0 272zM432 96l32 0c26.5 0 48 21.5 48 48l0 288c0 26.5-21.5 48-48 48l-32 0c-26.5 0-48-21.5-48-48l0-288c0-26.5 21.5-48 48-48z"/></svg>