<svg xmlns="http://www.w3.org/2000/svg" width="16" height="16" fill="currentColor" class="bi bi-box2" viewBox="0 0 16 16" color="#2563eb" role="img" aria-labelledby="bootstrap-box2-title bootstrap-box2-desc">
  <title id="bootstrap-box2-title">box2</title>
  <desc id="bootstrap-box2-desc">配电环节 - Bootstrap Icons - box2 - MIT</desc>
  <path fill="currentColor" d="M2.95.4a1 1 0 0 1 .8-.4h8.5a1 1 0 0 1 .8.4l2.85 3.8a.5.5 0 0 1 .1.3V15a1 1 0 0 1-1 1H1a1 1 0 0 1-1-1V4.5a.5.5 0 0 1 .1-.3zM7.5 1H3.75L1.5 4h6zm1 0v3h6l-2.25-3zM15 5H1v10h14z"/>
</svg>