<svg xmlns="http://www.w3.org/2000/svg" viewBox="0 0 256 256" fill="currentColor" color="#2563eb" role="img" aria-labelledby="phosphor-slideshow-title phosphor-slideshow-desc">
  <title id="phosphor-slideshow-title">slideshow</title>
  <desc id="phosphor-slideshow-desc">教育科研 - Phosphor Icons - slideshow - MIT</desc><path fill="currentColor" d="M192,48H64A16,16,0,0,0,48,64V192a16,16,0,0,0,16,16H192a16,16,0,0,0,16-16V64A16,16,0,0,0,192,48Zm0,144H64V64H192V192ZM240,56V200a8,8,0,0,1-16,0V56a8,8,0,0,1,16,0ZM32,56V200a8,8,0,0,1-16,0V56a8,8,0,0,1,16,0Z"/></svg>