<svg xmlns="http://www.w3.org/2000/svg" viewBox="0 0 256 256" fill="currentColor" color="#2563eb" role="img" aria-labelledby="phosphor-sliders-horizontal-title phosphor-sliders-horizontal-desc">
  <title id="phosphor-sliders-horizontal-title">sliders horizontal</title>
  <desc id="phosphor-sliders-horizontal-desc">教育科研 - Phosphor Icons - sliders-horizontal - MIT</desc><path fill="currentColor" d="M40,88H73a32,32,0,0,0,62,0h81a8,8,0,0,0,0-16H135a32,32,0,0,0-62,0H40a8,8,0,0,0,0,16Zm64-24A16,16,0,1,1,88,80,16,16,0,0,1,104,64ZM216,168H199a32,32,0,0,0-62,0H40a8,8,0,0,0,0,16h97a32,32,0,0,0,62,0h17a8,8,0,0,0,0-16Zm-48,24a16,16,0,1,1,16-16A16,16,0,0,1,168,192Z"/></svg>