<svg xmlns="http://www.w3.org/2000/svg" viewBox="0 0 24 24" color="#2563eb" role="img" aria-labelledby="eos-icons-contact-mail-title eos-icons-contact-mail-desc">
  <title id="eos-icons-contact-mail-title">contact mail</title>
  <desc id="eos-icons-contact-mail-desc">协作通信 - EOS Icons - contact-mail - MIT</desc><path fill="currentColor" d="M22 3H2C.9 3 0 3.9 0 5v14c0 1.1.9 2 2 2h20c1.1 0 1.99-.9 1.99-2L24 5c0-1.1-.9-2-2-2zm0 16H2V5h20v14zM21 6h-7v5h7V6zm-1 2l-2.5 1.75L15 8V7l2.5 1.75L20 7v1zM9 12c1.65 0 3-1.35 3-3s-1.35-3-3-3-3 1.35-3 3 1.35 3 3 3zm0-4c.55 0 1 .45 1 1s-.45 1-1 1-1-.45-1-1 .45-1 1-1zm6 8.59c0-2.5-3.97-3.58-6-3.58s-6 1.08-6 3.58V18h12v-1.41zM5.48 16c.74-.5 2.22-1 3.52-1s2.77.49 3.52 1H5.48z"/></svg>