<svg xmlns="http://www.w3.org/2000/svg" width="24" height="24" fill="currentColor" viewBox="0 0 24 24" color="#2563eb" role="img" aria-labelledby="pixelarticons-date-time-title pixelarticons-date-time-desc">
  <title id="pixelarticons-date-time-title">date time</title>
  <desc id="pixelarticons-date-time-desc">办公效率 - Pixelarticons - date-time - MIT</desc>
  <path fill="currentColor" d="M21 23h-8v-2h8v2ZM9 21H3v-2h6v2Zm4 0h-2v-8h2v8Zm10 0h-2v-8h2v8ZM3 7h14V5h2v4H3v10H1V5h2v2Zm15 10h2v2h-2v-1h-2v-4h2v3Zm3-4h-8v-2h8v2ZM7 3h6V1h2v2h2v2H3V3h2V1h2v2Z"/>
</svg>
