<svg xmlns="http://www.w3.org/2000/svg" width="24" height="24" fill="currentColor" viewBox="0 0 24 24" color="#2563eb" role="img" aria-labelledby="pixelarticons-alarm-clock-title pixelarticons-alarm-clock-desc">
  <title id="pixelarticons-alarm-clock-title">alarm clock</title>
  <desc id="pixelarticons-alarm-clock-desc">办公效率 - Pixelarticons - alarm-clock - MIT</desc>
  <path fill="currentColor" d="M8 5h8v2H8zm0 14h8v2H8zM6 7h2v2H6zm0 10h2v2H6zM16 7h2v2h-2zm0 10h2v2h-2zM4 9h2v8H4zm14 0h2v8h-2zM4 2h2v2H4zm0 17h2v2H4zm14 0h2v2h-2zm0-17h2v2h-2zM2 4h2v2H2zm18 0h2v2h-2zm-9 5h2v4h-2zm2 4h2v2h-2z"/>
</svg>
