<svg xmlns="http://www.w3.org/2000/svg" width="24" height="24" fill="currentColor" viewBox="0 0 24 24" color="#2563eb" role="img" aria-labelledby="pixelarticons-waves-title pixelarticons-waves-desc">
  <title id="pixelarticons-waves-title">waves</title>
  <desc id="pixelarticons-waves-desc">风光水发电 - Pixelarticons - waves - MIT</desc>
  <path fill="currentColor" d="M2 18h4v-2H2zm0-6h4v-2H2zm0-6h4V4H2zm4 14h4v-2H6zm0-6h4v-2H6zm0-6h4V6H6zm4 10h4v-2h-4zm0-6h4v-2h-4zm0-6h4V4h-4zm4 14h4v-2h-4zm0-6h4v-2h-4zm0-6h4V6h-4zm4 10h4v-2h-4zm0-6h4v-2h-4zm0-6h4V4h-4z"/>
</svg>
