<svg xmlns="http://www.w3.org/2000/svg" width="24" height="24" fill="currentColor" viewBox="0 0 24 24" color="#2563eb" role="img" aria-labelledby="pixelarticons-waves-arrow-up-title pixelarticons-waves-arrow-up-desc">
  <title id="pixelarticons-waves-arrow-up-title">waves arrow up</title>
  <desc id="pixelarticons-waves-arrow-up-desc">风光水发电 - Pixelarticons - waves-arrow-up - MIT</desc>
  <path fill="currentColor" d="M2 21h4v-2H2zm0-6h4v-2H2zm4 8h4v-2H6zm0-6h4v-2H6zm4 4h4v-2h-4zm4 2h4v-2h-4zm0-6h4v-2h-4zm-4-2h4v-2h-4zm8 6h4v-2h-4zm0-6h4v-2h-4zm-7-4h2V1h-2z"/>
  <path fill="currentColor" d="M9 5h6V3H9zM7 7h10V5H7z"/>
</svg>
