<svg xmlns="http://www.w3.org/2000/svg" width="24" height="24" fill="currentColor" viewBox="0 0 24 24" color="#2563eb" role="img" aria-labelledby="pixelarticons-waves-arrow-down-title pixelarticons-waves-arrow-down-desc">
  <title id="pixelarticons-waves-arrow-down-title">waves arrow down</title>
  <desc id="pixelarticons-waves-arrow-down-desc">风光水发电 - Pixelarticons - waves-arrow-down - MIT</desc>
  <path fill="currentColor" d="M2 21h4v-2H2zm0-6h4v-2H2zm4 8h4v-2H6zm0-6h4v-2H6zm4 4h4v-2h-4zm4 2h4v-2h-4zm0-6h4v-2h-4zm-4-2h4v-2h-4zm8 6h4v-2h-4zm0-6h4v-2h-4zM11 1h2v10h-2z"/>
  <path fill="currentColor" d="M9 7h6v2H9zM7 5h10v2H7z"/>
</svg>
