<svg xmlns="http://www.w3.org/2000/svg" width="24" height="24" fill="currentColor" viewBox="0 0 24 24" color="#2563eb" role="img" aria-labelledby="pixelarticons-spray-wave-title pixelarticons-spray-wave-desc">
  <title id="pixelarticons-spray-wave-title">spray wave</title>
  <desc id="pixelarticons-spray-wave-desc">风光水发电 - Pixelarticons - spray-wave - MIT</desc>
  <path fill="currentColor" d="M4 9h6v2H4zm2-2h2v2H6zm-4 4h2v10H2zm2 8h6v2H4zm6-8h2v10h-2z"/>
  <path fill="currentColor" d="M6 15h6v2H6zm8-11h2v2h-2zm4-2h2v2h-2zm0 10h2v2h-2zm-2-6h2v4h-2zm4-2h2v8h-2zm-6 6h2v2h-2zm-3-3h2v2h-2z"/>
</svg>
