<svg xmlns="http://www.w3.org/2000/svg" width="16" height="16" fill="currentColor" class="bi bi-sliders2-vertical" viewBox="0 0 16 16" color="#2563eb" role="img" aria-labelledby="bootstrap-sliders2-vertical-title bootstrap-sliders2-vertical-desc">
  <title id="bootstrap-sliders2-vertical-title">sliders2 vertical</title>
  <desc id="bootstrap-sliders2-vertical-desc">教育科研 - Bootstrap Icons - sliders2-vertical - MIT</desc>
  <path fill="currentColor" fill-rule="evenodd" d="M0 10.5a.5.5 0 0 0 .5.5h4a.5.5 0 0 0 0-1H3V1.5a.5.5 0 0 0-1 0V10H.5a.5.5 0 0 0-.5.5M2.5 12a.5.5 0 0 0-.5.5v2a.5.5 0 0 0 1 0v-2a.5.5 0 0 0-.5-.5m3-6.5A.5.5 0 0 0 6 6h1.5v8.5a.5.5 0 0 0 1 0V6H10a.5.5 0 0 0 0-1H6a.5.5 0 0 0-.5.5M8 1a.5.5 0 0 0-.5.5v2a.5.5 0 0 0 1 0v-2A.5.5 0 0 0 8 1m3 9.5a.5.5 0 0 0 .5.5h4a.5.5 0 0 0 0-1H14V1.5a.5.5 0 0 0-1 0V10h-1.5a.5.5 0 0 0-.5.5m2.5 1.5a.5.5 0 0 0-.5.5v2a.5.5 0 0 0 1 0v-2a.5.5 0 0 0-.5-.5"/>
</svg>