<svg xmlns="http://www.w3.org/2000/svg" viewBox="0 0 256 256" fill="currentColor" color="#2563eb" role="img" aria-labelledby="phosphor-plus-minus-title phosphor-plus-minus-desc">
  <title id="phosphor-plus-minus-title">plus minus</title>
  <desc id="phosphor-plus-minus-desc">通用命令 - Phosphor Icons - plus-minus - MIT</desc><path fill="currentColor" d="M205.66,61.66l-144,144a8,8,0,0,1-11.32-11.32l144-144a8,8,0,0,1,11.32,11.32ZM64,112a8,8,0,0,0,16,0V80h32a8,8,0,0,0,0-16H80V32a8,8,0,0,0-16,0V64H32a8,8,0,0,0,0,16H64Zm160,64H144a8,8,0,0,0,0,16h80a8,8,0,0,0,0-16Z"/></svg>