<svg xmlns="http://www.w3.org/2000/svg" width="24" height="24" viewBox="0 0 24 24" color="#2563eb" role="img" aria-labelledby="primer-octicons-list-unordered-title primer-octicons-list-unordered-desc">
  <title id="primer-octicons-list-unordered-title">list unordered</title>
  <desc id="primer-octicons-list-unordered-desc">办公效率 - Primer Octicons - list-unordered - MIT</desc><path fill="currentColor" d="M8.75 5.5h11.5a.75.75 0 0 1 0 1.5H8.75a.75.75 0 0 1 0-1.5Zm0 6h11.5a.75.75 0 0 1 0 1.5H8.75a.75.75 0 0 1 0-1.5Zm0 6h11.5a.75.75 0 0 1 0 1.5H8.75a.75.75 0 0 1 0-1.5ZM5 12a1 1 0 1 1-2 0 1 1 0 0 1 2 0ZM4 7a1 1 0 1 1 0-2 1 1 0 0 1 0 2Zm0 12a1 1 0 1 1 0-2 1 1 0 0 1 0 2Z"/></svg>