<svg xmlns="http://www.w3.org/2000/svg" id="mdi-timeline-clock" viewBox="0 0 24 24" color="#2563eb" role="img" aria-labelledby="material-design-icons-timeline-clock-title material-design-icons-timeline-clock-desc">
  <title id="material-design-icons-timeline-clock-title">timeline clock</title>
  <desc id="material-design-icons-timeline-clock-desc">办公效率 - Material Design Icons - timeline-clock - Apache-2.0</desc><path fill="currentColor" d="M4 2V8H2V2H4M2 22V16H4V22H2M5 12C5 13.11 4.11 14 3 14C1.9 14 1 13.11 1 12C1 10.9 1.9 10 3 10C4.11 10 5 10.9 5 12M16 4C20.42 4 24 7.58 24 12C24 16.42 20.42 20 16 20C12.4 20 9.36 17.62 8.35 14.35L6 12L8.35 9.65C9.36 6.38 12.4 4 16 4M15 13L19.53 15.79L20.33 14.5L16.5 12.2V7H15V13Z" /></svg>