<svg xmlns="http://www.w3.org/2000/svg" id="mdi-inbox-full" viewBox="0 0 24 24" color="#2563eb" role="img" aria-labelledby="material-design-icons-inbox-full-title material-design-icons-inbox-full-desc">
  <title id="material-design-icons-inbox-full-title">inbox full</title>
  <desc id="material-design-icons-inbox-full-desc">办公效率 - Material Design Icons - inbox-full - Apache-2.0</desc><path fill="currentColor" d="M19 15V5H5V15H9C9 16.66 10.34 18 12 18C13.66 18 15 16.66 15 15H19M19 3C20.1 3 21 3.9 21 5V19C21 20.1 20.1 21 19 21H5C3.89 21 3 20.1 3 19L3 5C3 3.9 3.89 3 5 3H19M7 13V11H17V13H7M7 9V7H17V9H7Z" /></svg>