<svg xmlns="http://www.w3.org/2000/svg" width="24" height="24" fill="currentColor" viewBox="0 0 24 24" color="#2563eb" role="img" aria-labelledby="pixelarticons-building-title pixelarticons-building-desc">
  <title id="pixelarticons-building-title">building</title>
  <desc id="pixelarticons-building-desc">配电环节 - Pixelarticons - building - MIT</desc>
  <path fill="currentColor" d="M5 2h14v2H5zm0 18h14v2H5zM3 4h2v16H3zm16 0h2v16h-2zM7 6h2v2H7zm4 0h2v2h-2zm4 0h2v2h-2zm-8 4h2v2H7zm4 0h2v2h-2zm4 0h2v2h-2zm-8 4h2v2H7zm4 0h2v2h-2zm-1 4h4v2h-4zm5-4h2v2h-2z"/>
</svg>
