<svg version="1.2" baseProfile="tiny" xmlns="http://www.w3.org/2000/svg" width="50" height="50" viewBox="0 0 50 50" overflow="inherit" color="#2563eb" role="img" aria-labelledby="map-icons-health-title map-icons-health-desc">
  <title id="map-icons-health-title">health</title>
  <desc id="map-icons-health-desc">医疗安全 - Map Icons - health - ISC</desc><path fill="currentColor" d="M49 17c0-.55-.45-1-1-1h-13c-.55 0-1-.45-1-1v-13c0-.55-.45-1-1-1h-16c-.55 0-1 .45-1 1v13c0 .55-.45 1-1 1h-13c-.55 0-1 .45-1 1v16c0 .55.45 1 1 1h13c.55 0 1 .45 1 1v13c0 .55.45 1 1 1h16c.55 0 1-.45 1-1v-13c0-.55.45-1 1-1h13c.55 0 1-.45 1-1v-16z"/></svg>