<svg xmlns="http://www.w3.org/2000/svg" width="24" height="24" fill="none" viewBox="0 0 24 24" color="#2563eb" role="img" aria-labelledby="flowbite-file-chart-bar-title flowbite-file-chart-bar-desc">
  <title id="flowbite-file-chart-bar-title">file chart bar</title>
  <desc id="flowbite-file-chart-bar-desc">数据图表 - Flowbite Icons - file-chart-bar - MIT</desc>
  <path stroke="currentColor" stroke-linecap="round" stroke-linejoin="round" stroke-width="2" d="M10 3v4a1 1 0 0 1-1 1H5m4 10v-2m3 2v-6m3 6v-3m4-11v16a1 1 0 0 1-1 1H6a1 1 0 0 1-1-1V7.914a1 1 0 0 1 .293-.707l3.914-3.914A1 1 0 0 1 9.914 3H18a1 1 0 0 1 1 1Z"/>
</svg>
