<svg xmlns="http://www.w3.org/2000/svg" width="24" height="24" fill="currentColor" viewBox="0 0 24 24" color="#2563eb" role="img" aria-labelledby="pixelarticons-align-vertical-distribute-center-title pixelarticons-align-vertical-distribute-center-desc">
  <title id="pixelarticons-align-vertical-distribute-center-title">align vertical distribute center</title>
  <desc id="pixelarticons-align-vertical-distribute-center-desc">画布工具 - Pixelarticons - align-vertical-distribute-center - MIT</desc>
  <path fill="currentColor" d="M8 19v-4H6v4zm2-10V5H8v4zm6 6v-2H8v2zM14 5V3h-4v2zm4 14v-4h-2v4zM16 9V5h-2v4zm0 12v-2H8v2zm-2-10V9h-4v2zM2 18v-2h4v2zm16 0v-2h4v2zM16 8V6h6v2zM2 8V6h6v2z"/>
</svg>
