<svg xmlns="http://www.w3.org/2000/svg" width="24" height="24" fill="currentColor" viewBox="0 0 24 24" color="#2563eb" role="img" aria-labelledby="pixelarticons-zoom-out-title pixelarticons-zoom-out-desc">
  <title id="pixelarticons-zoom-out-title">zoom out</title>
  <desc id="pixelarticons-zoom-out-desc">画布工具 - Pixelarticons - zoom-out - MIT</desc>
  <path fill="currentColor" d="M22 22h-2v-2h2v2Zm-2-2h-2v-2h2v2Zm-6-2H6v-2h8v2Zm4 0h-2v-2h2v2ZM6 16H4v-2h2v2Zm10 0h-2v-2h2v2ZM4 14H2V6h2v8Zm14 0h-2V6h2v8Zm-4-5v2H6V9h8ZM6 6H4V4h2v2Zm10 0h-2V4h2v2Zm-2-2H6V2h8v2Z"/>
</svg>
