<svg xmlns="http://www.w3.org/2000/svg" width="24" height="24" fill="currentColor" viewBox="0 0 24 24" color="#2563eb" role="img" aria-labelledby="pixelarticons-pen-square-title pixelarticons-pen-square-desc">
  <title id="pixelarticons-pen-square-title">pen square</title>
  <desc id="pixelarticons-pen-square-desc">画布工具 - Pixelarticons - pen-square - MIT</desc>
  <path fill="currentColor" d="M5 3h6v2H5zM3 5h2v14H3zm16 8h2v6h-2zM5 19h14v2H5zm3-9h2v6H8zm2 4h4v2h-4zm0-6h2v2h-2zm2-2h2v2h-2zm2-2h2v2h-2zm2-2h2v2h-2zm2 2h2v2h-2zm2 2h2v2h-2zm-2 2h2v2h-2zm-2 2h2v2h-2zm-2 2h2v2h-2zm-4 0h2v2h-2z"/>
</svg>
