<svg xmlns="http://www.w3.org/2000/svg" viewBox="0 0 512 512" color="#2563eb" role="img" aria-labelledby="coreui-building-title coreui-building-desc">
  <title id="coreui-building-title">building</title>
  <desc id="coreui-building-desc">配电环节 - CoreUI Icons - building - MIT</desc>
  <path fill="var(--ci-primary-color, currentColor)" d="M440 464V16H72v448H16v32h480v-32Zm-32 0H272v-64h-32v64H104V48h304Z" class="ci-primary"/>
  <path fill="var(--ci-primary-color, currentColor)" d="M160 304h32v32h-32zm80 0h32v32h-32zm80 0h32v32h-32zm-160-96h32v32h-32zm80 0h32v32h-32zm80 0h32v32h-32zm-160-96h32v32h-32zm80 0h32v32h-32zm80 0h32v32h-32z" class="ci-primary"/>
</svg>
