<svg width="24" height="24" viewBox="0 0 24 24" xmlns="http://www.w3.org/2000/svg" color="#2563eb" role="img" aria-labelledby="keyboard-tab-title keyboard-tab-desc">
  <title id="keyboard-tab-title">Keyboard Tab</title>
  <desc id="keyboard-tab-desc">状态安全 - keyboard_tab, 24px regular</desc><path fill="currentColor" d="m18.03 11.47-6.5-6.5a.75.75 0 0 0-1.13.98l.07.08 5.22 5.22H3.75c-.38 0-.7.28-.74.65L3 12c0 .38.28.7.65.74l.1.01h11.94l-5.22 5.22a.75.75 0 0 0-.07.98l.07.08c.27.27.68.3.98.07l.08-.07 6.5-6.5a.75.75 0 0 0 .07-.98l-.07-.08-6.5-6.5 6.5 6.5ZM21 18.5v-13a.75.75 0 0 0-1.5 0v13a.75.75 0 0 0 1.5 0Z"/></svg>