<svg width="24" height="24" viewBox="0 0 24 24" xmlns="http://www.w3.org/2000/svg" color="#2563eb" role="img" aria-labelledby="phone-status-bar-title phone-status-bar-desc">
  <title id="phone-status-bar-title">Phone Status Bar</title>
  <desc id="phone-status-bar-desc">状态安全 - phone_status_bar, 24px regular</desc><path fill="currentColor" d="M15.75 2C16.99 2 18 3 18 4.25v15.5c0 1.24-1 2.25-2.25 2.25h-7.5C7.01 22 6 21 6 19.75V4.25C6 3.01 7 2 8.25 2h7.5Zm0 1.5h-7.5a.75.75 0 0 0-.75.75v15.5c0 .41.34.75.75.75h7.5c.41 0 .75-.34.75-.75V4.25a.75.75 0 0 0-.75-.75Zm-1 1a.75.75 0 0 1 0 1.5h-5.5a.75.75 0 0 1 0-1.5h5.5Z"/></svg>