<svg xmlns="http://www.w3.org/2000/svg" id="mdi-video-3d" viewBox="0 0 24 24" color="#2563eb" role="img" aria-labelledby="material-design-icons-video-3d-title material-design-icons-video-3d-desc">
  <title id="material-design-icons-video-3d-title">video 3d</title>
  <desc id="material-design-icons-video-3d-desc">协作通信 - Material Design Icons - video-3d - Apache-2.0</desc><path fill="currentColor" d="M5,7H9A2,2 0 0,1 11,9V15A2,2 0 0,1 9,17H5V15H9V13H6V11H9V9H5V7M13,7H16A3,3 0 0,1 19,10V14A3,3 0 0,1 16,17H13V7M16,15A1,1 0 0,0 17,14V10A1,1 0 0,0 16,9H15V15H16Z" /></svg>