<svg xmlns="http://www.w3.org/2000/svg" viewBox="0 0 256 256" fill="currentColor" color="#2563eb" role="img" aria-labelledby="phosphor-map-pin-title phosphor-map-pin-desc">
  <title id="phosphor-map-pin-title">map pin</title>
  <desc id="phosphor-map-pin-desc">地图地点 - Phosphor Icons - map-pin - MIT</desc><path fill="currentColor" d="M128,64a40,40,0,1,0,40,40A40,40,0,0,0,128,64Zm0,64a24,24,0,1,1,24-24A24,24,0,0,1,128,128Zm0-112a88.1,88.1,0,0,0-88,88c0,31.4,14.51,64.68,42,96.25a254.19,254.19,0,0,0,41.45,38.3,8,8,0,0,0,9.18,0A254.19,254.19,0,0,0,174,200.25c27.45-31.57,42-64.85,42-96.25A88.1,88.1,0,0,0,128,16Zm0,206c-16.53-13-72-60.75-72-118a72,72,0,0,1,144,0C200,161.23,144.53,209,128,222Z"/></svg>