<?xml version="1.0" encoding="UTF-8"?>
<svg xmlns="http://www.w3.org/2000/svg" viewBox="0 0 64 64" width="64" height="64" color="#16a34a" role="img" aria-labelledby="pv-combiner-box-title pv-combiner-box-desc">
  <title id="pv-combiner-box-title">光伏汇流箱</title>
  <desc id="pv-combiner-box-desc">新能源扩展 - pv, combiner, 汇流</desc>
  <g>
<circle cx="22" cy="18" r="7" fill="none" stroke="currentColor" stroke-width="2.6" stroke-linecap="round" stroke-linejoin="round"/><path d="M22 4v6M8 18h6M30 18h6M12 8l4 4M32 8l-4 4" fill="none" stroke="currentColor" stroke-width="2.6" stroke-linecap="round" stroke-linejoin="round"/><path d="M24 32h28l-5 18H18z" fill="none" stroke="currentColor" stroke-width="2.6" stroke-linecap="round" stroke-linejoin="round"/><path d="M26 40h22M34 32l-4 18M43 32l-4 18" fill="none" stroke="currentColor" stroke-width="2.6" stroke-linecap="round" stroke-linejoin="round"/><path d="M46 46h14v14H46z" fill="none" stroke="currentColor" stroke-width="2.6" stroke-linecap="round" stroke-linejoin="round"/><circle cx="54" cy="47" r="0.65" fill="none" stroke="currentColor" stroke-width="2.6" stroke-linecap="round" stroke-linejoin="round"/><path d="M54 47L44 44" fill="none" stroke="currentColor" stroke-width="2.6" stroke-linecap="round" stroke-linejoin="round"/><circle cx="50" cy="44" r="1.1" fill="none" stroke="currentColor" stroke-width="2.6" stroke-linecap="round" stroke-linejoin="round"/><path d="M46 46h14v14H46z" fill="none" stroke="currentColor" stroke-width="2.6" stroke-linecap="round" stroke-linejoin="round"/><circle cx="50" cy="44" r="1" fill="none" stroke="currentColor" stroke-width="2.6" stroke-linecap="round" stroke-linejoin="round"/><path d="M50 44L44 47" fill="none" stroke="currentColor" stroke-width="2.6" stroke-linecap="round" stroke-linejoin="round"/><circle cx="45" cy="43" r="1.1" fill="none" stroke="currentColor" stroke-width="2.6" stroke-linecap="round" stroke-linejoin="round"/>
  </g>
</svg>
