<svg
  xmlns="http://www.w3.org/2000/svg"
  width="24"
  height="24"
  viewBox="0 0 24 24"
  fill="none"
  stroke="currentColor"
  stroke-width="2"
  stroke-linecap="round"
  stroke-linejoin="round"
  class="icon icon-tabler icons-tabler-outline icon-tabler-waves-electricity"
 color="#2563eb" role="img" aria-labelledby="tabler-waves-electricity-title tabler-waves-electricity-desc">
  <title id="tabler-waves-electricity-title">waves electricity</title>
  <desc id="tabler-waves-electricity-desc">电力电网 - Tabler Icons - waves-electricity - MIT</desc>
  <path stroke="none" d="M0 0h24v24H0z" fill="none" />
  <path fill="currentColor" d="M3 12c.576 -.643 1.512 -1.017 2.5 -1c.988 -.017 1.924 .357 2.5 1c.576 .643 1.512 1.017 2.5 1c.988 .017 1.924 -.357 2.5 -1" />
  <path fill="currentColor" d="M3 16c.576 -.643 1.512 -1.017 2.5 -1c.988 -.017 1.924 .357 2.5 1c.576 .643 1.512 1.017 2.5 1c.988 .017 1.924 -.357 2.5 -1" />
  <path fill="currentColor" d="M3 8c.576 -.643 1.512 -1.017 2.5 -1c.988 -.017 1.924 .357 2.5 1c.576 .643 1.512 1.017 2.5 1c.988 .017 1.924 -.357 2.5 -1" />
  <path fill="currentColor" d="M20 7l-3 5h4l-3 5" />
</svg>