<svg
  xmlns="http://www.w3.org/2000/svg"
  width="24"
  height="24"
  viewBox="0 0 24 24"
  fill="none"
  stroke="currentColor"
  stroke-width="2"
  stroke-linecap="round"
  stroke-linejoin="round"
  class="icon icon-tabler icons-tabler-outline icon-tabler-tower-off"
 color="#2563eb" role="img" aria-labelledby="tabler-tower-off-title tabler-tower-off-desc">
  <title id="tabler-tower-off-title">tower off</title>
  <desc id="tabler-tower-off-desc">电力电网 - Tabler Icons - tower-off - MIT</desc>
  <path stroke="none" d="M0 0h24v24H0z" fill="none" />
  <path fill="currentColor" d="M10 6v-2a1 1 0 0 1 1 -1h2a1 1 0 0 1 1 1v2h3v-2a1 1 0 0 1 1 -1h1a1 1 0 0 1 1 1v4.394a2 2 0 0 1 -.336 1.11l-1.328 1.992a2 2 0 0 0 -.336 1.11v1.394m0 4v2a1 1 0 0 1 -1 1h-10a1 1 0 0 1 -1 -1v-7.394a2 2 0 0 0 -.336 -1.11l-1.328 -1.992a2 2 0 0 1 -.336 -1.11v-4.394" />
  <path fill="currentColor" d="M10 21v-5a2 2 0 1 1 4 0v5" />
  <path fill="currentColor" d="M3 3l18 18" />
</svg>