<svg xmlns="http://www.w3.org/2000/svg" viewBox="0 0 256 256" fill="currentColor" color="#2563eb" role="img" aria-labelledby="phosphor-device-tablet-camera-title phosphor-device-tablet-camera-desc">
  <title id="phosphor-device-tablet-camera-title">device tablet camera</title>
  <desc id="phosphor-device-tablet-camera-desc">媒体素材 - Phosphor Icons - device-tablet-camera - MIT</desc><path fill="currentColor" d="M192,24H64A24,24,0,0,0,40,48V208a24,24,0,0,0,24,24H192a24,24,0,0,0,24-24V48A24,24,0,0,0,192,24Zm8,184a8,8,0,0,1-8,8H64a8,8,0,0,1-8-8V48a8,8,0,0,1,8-8H192a8,8,0,0,1,8,8ZM140,68a12,12,0,1,1-12-12A12,12,0,0,1,140,68Z"/></svg>