<svg xmlns="http://www.w3.org/2000/svg" width="24" height="24" viewBox="0 0 24 24" color="#2563eb" role="img" aria-labelledby="boxicons-memory-card-title boxicons-memory-card-desc">
  <title id="boxicons-memory-card-title">memory card</title>
  <desc id="boxicons-memory-card-desc">业务金融 - Boxicons - memory-card - (CC-BY-4.0 OR OFL-1.1 OR MIT)</desc><path fill="currentColor" d="M4 4v16c0 1.103.897 2 2 2h12c1.103 0 2-.897 2-2V8a.997.997 0 0 0-.293-.707l-5-5A.996.996 0 0 0 14 2H6c-1.103 0-2 .897-2 2zm14 4.414L18.001 20H6V4h7.586L18 8.414z"/><path fill="currentColor" d="M8 6h2v4H8zm4 0h2v4h-2z"/></svg>