<svg xmlns="http://www.w3.org/2000/svg" viewBox="0 0 20 20" color="#2563eb" role="img" aria-labelledby="zondicons-inbox-download-title zondicons-inbox-download-desc">
  <title id="zondicons-inbox-download-title">inbox download</title>
  <desc id="zondicons-inbox-download-desc">通用命令 - Zondicons - inbox-download - CC-BY-4.0</desc><path fill="currentColor" d="M0 2C0 .9.9 0 2 0h16a2 2 0 0 1 2 2v16a2 2 0 0 1-2 2H2a2 2 0 0 1-2-2V2zm14 12h4V2H2v12h4c0 1.1.9 2 2 2h4a2 2 0 0 0 2-2zM9 8V5h2v3h3l-4 4-4-4h3z"/></svg>