<svg xmlns="http://www.w3.org/2000/svg" viewBox="0 0 20 20" color="#2563eb" role="img" aria-labelledby="zondicons-clipboard-title zondicons-clipboard-desc">
  <title id="zondicons-clipboard-title">clipboard</title>
  <desc id="zondicons-clipboard-desc">通用命令 - Zondicons - clipboard - CC-BY-4.0</desc><path fill="currentColor" d="M7.03 2.6a3 3 0 0 1 5.94 0L15 3v1h1a2 2 0 0 1 2 2v12a2 2 0 0 1-2 2H4a2 2 0 0 1-2-2V6c0-1.1.9-2 2-2h1V3l2.03-.4zM5 6H4v12h12V6h-1v1H5V6zm5-2a1 1 0 1 0 0-2 1 1 0 0 0 0 2z"/></svg>