<svg xmlns="http://www.w3.org/2000/svg" viewBox="0 0 20 20" color="#2563eb" role="img" aria-labelledby="zondicons-radar-copy-2-title zondicons-radar-copy-2-desc">
  <title id="zondicons-radar-copy-2-title">radar copy 2</title>
  <desc id="zondicons-radar-copy-2-desc">通用命令 - Zondicons - radar copy 2 - CC-BY-4.0</desc><path fill="currentColor" d="M12 10a2 2 0 0 1-3.41 1.41A2 2 0 0 1 10 8V0a9.97 9.97 0 0 1 10 10h-8zm7.9 1.41A10 10 0 1 1 8.59.1v2.03a8 8 0 1 0 9.29 9.29h2.02zm-4.07 0a6 6 0 1 1-7.25-7.25v2.1a3.99 3.99 0 0 0-1.4 6.57 4 4 0 0 0 6.56-1.42h2.1z"/></svg>