<svg xmlns="http://www.w3.org/2000/svg" viewBox="0 0 20 20" color="#2563eb" role="img" aria-labelledby="zondicons-paste-title zondicons-paste-desc">
  <title id="zondicons-paste-title">paste</title>
  <desc id="zondicons-paste-desc">通用命令 - Zondicons - paste - CC-BY-4.0</desc><path fill="currentColor" d="M10.5 20H2a2 2 0 0 1-2-2V6c0-1.1.9-2 2-2h1V3l2.03-.4a3 3 0 0 1 5.94 0L13 3v1h1a2 2 0 0 1 2 2v1h-2V6h-1v1H3V6H2v12h5v2h3.5zM8 4a1 1 0 1 0 0-2 1 1 0 0 0 0 2zm2 4h8a2 2 0 0 1 2 2v8a2 2 0 0 1-2 2h-8a2 2 0 0 1-2-2v-8c0-1.1.9-2 2-2zm0 2v8h8v-8h-8z"/></svg>