<svg xmlns="http://www.w3.org/2000/svg" width="16" height="16" fill="currentColor" class="bi bi-filter" viewBox="0 0 16 16" color="#2563eb" role="img" aria-labelledby="bootstrap-filter-title bootstrap-filter-desc">
  <title id="bootstrap-filter-title">filter</title>
  <desc id="bootstrap-filter-desc">电力电子 - Bootstrap Icons - filter - MIT</desc>
  <path fill="currentColor" d="M6 10.5a.5.5 0 0 1 .5-.5h3a.5.5 0 0 1 0 1h-3a.5.5 0 0 1-.5-.5m-2-3a.5.5 0 0 1 .5-.5h7a.5.5 0 0 1 0 1h-7a.5.5 0 0 1-.5-.5m-2-3a.5.5 0 0 1 .5-.5h11a.5.5 0 0 1 0 1h-11a.5.5 0 0 1-.5-.5"/>
</svg>