<svg
  xmlns="http://www.w3.org/2000/svg"
  width="24"
  height="24"
  viewBox="0 0 24 24"
  fill="none"
  stroke="currentColor"
  stroke-width="2"
  stroke-linecap="round"
  stroke-linejoin="round"
  class="icon icon-tabler icons-tabler-outline icon-tabler-sun-wind"
 color="#2563eb" role="img" aria-labelledby="tabler-sun-wind-title tabler-sun-wind-desc">
  <title id="tabler-sun-wind-title">sun wind</title>
  <desc id="tabler-sun-wind-desc">能源通用 - Tabler Icons - sun-wind - MIT</desc>
  <path stroke="none" d="M0 0h24v24H0z" fill="none" />
  <path fill="currentColor" d="M14.468 10a4 4 0 1 0 -5.466 5.46" />
  <path fill="currentColor" d="M2 12h1" />
  <path fill="currentColor" d="M11 3v1" />
  <path fill="currentColor" d="M11 20v1" />
  <path fill="currentColor" d="M4.6 5.6l.7 .7" />
  <path fill="currentColor" d="M17.4 5.6l-.7 .7" />
  <path fill="currentColor" d="M5.3 17.7l-.7 .7" />
  <path fill="currentColor" d="M15 13h5a2 2 0 1 0 0 -4" />
  <path fill="currentColor" d="M12 16h5.714l.253 0a2 2 0 0 1 2.033 2a2 2 0 0 1 -2 2h-.286" />
</svg>