<svg
  xmlns="http://www.w3.org/2000/svg"
  width="24"
  height="24"
  viewBox="0 0 24 24"
  fill="none"
  stroke="currentColor"
  stroke-width="2"
  stroke-linecap="round"
  stroke-linejoin="round"
  class="icon icon-tabler icons-tabler-outline icon-tabler-tree"
 color="#2563eb" role="img" aria-labelledby="tabler-tree-title tabler-tree-desc">
  <title id="tabler-tree-title">tree</title>
  <desc id="tabler-tree-desc">能源通用 - Tabler Icons - tree - MIT</desc>
  <path stroke="none" d="M0 0h24v24H0z" fill="none" />
  <path fill="currentColor" d="M12 13l-2 -2" />
  <path fill="currentColor" d="M12 12l2 -2" />
  <path fill="currentColor" d="M12 21v-13" />
  <path fill="currentColor" d="M9.824 16a3 3 0 0 1 -2.743 -3.69a3 3 0 0 1 .304 -4.833a3 3 0 0 1 4.615 -3.707a3 3 0 0 1 4.614 3.707a3 3 0 0 1 .305 4.833a3 3 0 0 1 -2.919 3.695h-4l-.176 -.005" />
</svg>