<svg
  xmlns="http://www.w3.org/2000/svg"
  width="24"
  height="24"
  viewBox="0 0 24 24"
  fill="none"
  stroke="currentColor"
  stroke-width="2"
  stroke-linecap="round"
  stroke-linejoin="round"
  class="icon icon-tabler icons-tabler-outline icon-tabler-battery-vertical-eco"
 color="#2563eb" role="img" aria-labelledby="tabler-battery-vertical-eco-title tabler-battery-vertical-eco-desc">
  <title id="tabler-battery-vertical-eco-title">battery vertical eco</title>
  <desc id="tabler-battery-vertical-eco-desc">能源通用 - Tabler Icons - battery-vertical-eco - MIT</desc>
  <path stroke="none" d="M0 0h24v24H0z" fill="none" />
  <path fill="currentColor" d="M7 18v-11c0 -1.105 .895 -2 2 -2h.5c.276 0 .5 -.224 .5 -.5s.224 -.5 .5 -.5h3c.276 0 .5 .224 .5 .5s.224 .5 .5 .5h.5c1.105 0 2 .895 2 2v1m-8 12c-1.105 0 -2 -.895 -2 -2" />
  <path fill="currentColor" d="M13 17.143c0 -2.84 2.09 -5.143 4.667 -5.143h2.333v.857c0 2.84 -2.09 5.143 -4.667 5.143h-2.333l0 -.857" />
  <path fill="currentColor" d="M13 21v-3" />
</svg>