<svg
  xmlns="http://www.w3.org/2000/svg"
  width="24"
  height="24"
  viewBox="0 0 24 24"
  fill="none"
  stroke="currentColor"
  stroke-width="2"
  stroke-linecap="round"
  stroke-linejoin="round"
  class="icon icon-tabler icons-tabler-outline icon-tabler-home-eco"
 color="#2563eb" role="img" aria-labelledby="tabler-home-eco-title tabler-home-eco-desc">
  <title id="tabler-home-eco-title">home eco</title>
  <desc id="tabler-home-eco-desc">能源通用 - Tabler Icons - home-eco - MIT</desc>
  <path stroke="none" d="M0 0h24v24H0z" fill="none" />
  <path fill="currentColor" d="M20 11l-8 -8l-9 9h2v7a2 2 0 0 0 2 2h5" />
  <path fill="currentColor" d="M9 21v-6a2 2 0 0 1 2 -2h2c.325 0 .631 .077 .902 .215" />
  <path fill="currentColor" d="M16 22s0 -2 3 -4" />
  <path fill="currentColor" d="M19 21a3 3 0 0 1 0 -6h3v3a3 3 0 0 1 -3 3" />
</svg>