<svg
  xmlns="http://www.w3.org/2000/svg"
  width="24"
  height="24"
  viewBox="0 0 24 24"
  fill="none"
  stroke="currentColor"
  stroke-width="2"
  stroke-linecap="round"
  stroke-linejoin="round"
  class="icon icon-tabler icons-tabler-outline icon-tabler-recycle"
 color="#2563eb" role="img" aria-labelledby="tabler-recycle-title tabler-recycle-desc">
  <title id="tabler-recycle-title">recycle</title>
  <desc id="tabler-recycle-desc">能源通用 - Tabler Icons - recycle - MIT</desc>
  <path stroke="none" d="M0 0h24v24H0z" fill="none" />
  <path fill="currentColor" d="M12 17l-2 2l2 2" />
  <path fill="currentColor" d="M10 19h9a2 2 0 0 0 1.75 -2.75l-.55 -1" />
  <path fill="currentColor" d="M8.536 11l-.732 -2.732l-2.732 .732" />
  <path fill="currentColor" d="M7.804 8.268l-4.5 7.794a2 2 0 0 0 1.506 2.89l1.141 .024" />
  <path fill="currentColor" d="M15.464 11l2.732 .732l.732 -2.732" />
  <path fill="currentColor" d="M18.196 11.732l-4.5 -7.794a2 2 0 0 0 -3.256 -.14l-.591 .976" />
</svg>