<svg xmlns="http://www.w3.org/2000/svg" viewBox="0 0 24 24" fill="none" color="#2563eb" role="img" aria-labelledby="majesticons-table-title majesticons-table-desc">
  <title id="majesticons-table-title">table</title>
  <desc id="majesticons-table-desc">数据图表 - Majesticons - table - MIT</desc><path stroke="currentColor" stroke-linecap="round" stroke-linejoin="round" stroke-width="2" d="M3 8V6a2 2 0 0 1 2-2h14a2 2 0 0 1 2 2v2M3 8v6m0-6h6m12 0v6m0-6H9m12 6v4a2 2 0 0 1-2 2H9m12-6H9m-6 0v4a2 2 0 0 0 2 2h4m-6-6h6m0-6v6m0 0v6m6-12v12"/></svg>