<?xml version="1.0" encoding="UTF-8"?>
<svg xmlns="http://www.w3.org/2000/svg" viewBox="0 0 64 64" width="64" height="64" color="#16a34a" role="img" aria-labelledby="disconnector-closed-title disconnector-closed-desc">
  <title id="disconnector-closed-title">刀闸闭合</title>
  <desc id="disconnector-closed-desc">电力设备 - 复用 电力电网 / electric-switch-closed</desc>
  <g transform="translate(8 8) scale(2)">
<path fill="currentColor" d="M20.83 11A3 3 0 0 0 15.18 11H8.82A3 3 0 0 0 3.17 11H1V13H3.17A3 3 0 0 0 8.82 13H15.18A3 3 0 0 0 20.83 13H23V11M6 13A1 1 0 1 1 7 12A1 1 0 0 1 6 13M18 13A1 1 0 1 1 19 12A1 1 0 0 1 18 13Z" />
  </g>
  <g>
<path d="M46 46h14v14H46z" fill="none" stroke="currentColor" stroke-width="2.6" stroke-linecap="round" stroke-linejoin="round"/><circle cx="49" cy="45" r="0.65" fill="none" stroke="currentColor" stroke-width="2.6" stroke-linecap="round" stroke-linejoin="round"/><path d="M49 45L46 43" fill="none" stroke="currentColor" stroke-width="2.6" stroke-linecap="round" stroke-linejoin="round"/><circle cx="49" cy="45" r="1.1" fill="none" stroke="currentColor" stroke-width="2.6" stroke-linecap="round" stroke-linejoin="round"/>
  </g>
</svg>
