<svg xmlns="http://www.w3.org/2000/svg" viewBox="0 0 256 256" fill="currentColor" color="#2563eb" role="img" aria-labelledby="phosphor-box-arrow-up-title phosphor-box-arrow-up-desc">
  <title id="phosphor-box-arrow-up-title">box arrow up</title>
  <desc id="phosphor-box-arrow-up-desc">配电环节 - Phosphor Icons - box-arrow-up - MIT</desc><path fill="currentColor" d="M223.16,68.42l-16-32A8,8,0,0,0,200,32H56a8,8,0,0,0-7.16,4.42l-16,32A8.08,8.08,0,0,0,32,72V208a16,16,0,0,0,16,16H208a16,16,0,0,0,16-16V72A8.08,8.08,0,0,0,223.16,68.42ZM60.94,48H195.06l8,16H52.94ZM208,208H48V80H208V208Zm-42.34-77.66a8,8,0,0,1-11.32,11.32L136,123.31V184a8,8,0,0,1-16,0V123.31l-18.34,18.35a8,8,0,0,1-11.32-11.32l32-32a8,8,0,0,1,11.32,0Z"/></svg>