<svg xmlns="http://www.w3.org/2000/svg" viewBox="0 0 32 32" color="#2563eb" role="img" aria-labelledby="carbon-wallet-title carbon-wallet-desc">
  <title id="carbon-wallet-title">wallet</title>
  <desc id="carbon-wallet-desc">业务金融 - Carbon Icons - wallet - Apache-2.0</desc><path fill="currentColor" d="M22 17H24V19H22z"/><path fill="currentColor" d="M28,8H4V5H26V3H4A2,2,0,0,0,2,5V26a2,2,0,0,0,2,2H28a2,2,0,0,0,2-2V10A2,2,0,0,0,28,8ZM4,26V10H28v3H20a2,2,0,0,0-2,2v6a2,2,0,0,0,2,2h8v3ZM28,15v6H20V15Z"/></svg>