<svg xmlns="http://www.w3.org/2000/svg" viewBox="0 0 32 32" color="#2563eb" role="img" aria-labelledby="carbon-cics-region-target-title carbon-cics-region-target-desc">
  <title id="carbon-cics-region-target-title">cics region target</title>
  <desc id="carbon-cics-region-target-desc">业务金融 - Carbon Icons - cics-region-target - Apache-2.0</desc><path fill="currentColor" d="M26 7H28V10H26z"/><path fill="currentColor" d="M29 4H32V6H29z"/><path fill="currentColor" d="M26 0H28V3H26z"/><path fill="currentColor" d="M22 4H25V6H22z"/><path fill="currentColor" d="M19 16 19 18.7 16.5 18 16 19.9 18.4 20.6 17 23 18.7 24 20 21.8 21.3 24 23 23 21.6 20.6 24 19.9 23.5 18 21 18.7 21 16 19 16z"/><path fill="currentColor" d="M13 16 13 13 16 13 16 11 13 11 13 8 11 8 11 11 8 11 8 13 11 13 11 16 13 16z"/><path fill="currentColor" d="M26,26H6V6H19V4H6A2.0059,2.0059,0,0,0,4,6V26a2.0059,2.0059,0,0,0,2,2H26a2.0059,2.0059,0,0,0,2-2V13H26Z"/></svg>