<svg
  xmlns="http://www.w3.org/2000/svg"
  width="24"
  height="24"
  viewBox="0 0 24 24"
  fill="none"
  stroke="currentColor"
  stroke-width="2"
  stroke-linecap="round"
  stroke-linejoin="round"
  class="icon icon-tabler icons-tabler-outline icon-tabler-book-off"
 color="#2563eb" role="img" aria-labelledby="tabler-book-off-title tabler-book-off-desc">
  <title id="tabler-book-off-title">book off</title>
  <desc id="tabler-book-off-desc">文件文档 - Tabler Icons - book-off - MIT</desc>
  <path stroke="none" d="M0 0h24v24H0z" fill="none" />
  <path fill="currentColor" d="M3 19a9 9 0 0 1 9 0a9 9 0 0 1 5.899 -1.096" />
  <path fill="currentColor" d="M3 6a9 9 0 0 1 2.114 -.884m3.8 -.21c1.07 .17 2.116 .534 3.086 1.094a9 9 0 0 1 9 0" />
  <path fill="currentColor" d="M3 6v13" />
  <path fill="currentColor" d="M12 6v2m0 4v7" />
  <path fill="currentColor" d="M21 6v11" />
  <path fill="currentColor" d="M3 3l18 18" />
</svg>