<svg
  xmlns="http://www.w3.org/2000/svg"
  width="24"
  height="24"
  viewBox="0 0 24 24"
  fill="none"
  stroke="currentColor"
  stroke-width="2"
  stroke-linecap="round"
  stroke-linejoin="round"
  class="icon icon-tabler icons-tabler-outline icon-tabler-books"
 color="#2563eb" role="img" aria-labelledby="tabler-books-title tabler-books-desc">
  <title id="tabler-books-title">books</title>
  <desc id="tabler-books-desc">文件文档 - Tabler Icons - books - MIT</desc>
  <path stroke="none" d="M0 0h24v24H0z" fill="none" />
  <path fill="currentColor" d="M5 5a1 1 0 0 1 1 -1h2a1 1 0 0 1 1 1v14a1 1 0 0 1 -1 1h-2a1 1 0 0 1 -1 -1l0 -14" />
  <path fill="currentColor" d="M9 5a1 1 0 0 1 1 -1h2a1 1 0 0 1 1 1v14a1 1 0 0 1 -1 1h-2a1 1 0 0 1 -1 -1l0 -14" />
  <path fill="currentColor" d="M5 8h4" />
  <path fill="currentColor" d="M9 16h4" />
  <path fill="currentColor" d="M13.803 4.56l2.184 -.53c.562 -.135 1.133 .19 1.282 .732l3.695 13.418a1.02 1.02 0 0 1 -.634 1.219l-.133 .041l-2.184 .53c-.562 .135 -1.133 -.19 -1.282 -.732l-3.695 -13.418a1.02 1.02 0 0 1 .634 -1.219l.133 -.041" />
  <path fill="currentColor" d="M14 9l4 -1" />
  <path fill="currentColor" d="M16 16l3.923 -.98" />
</svg>