<svg
  xmlns="http://www.w3.org/2000/svg"
  width="24"
  height="24"
  viewBox="0 0 24 24"
  fill="none"
  stroke="currentColor"
  stroke-width="2"
  stroke-linecap="round"
  stroke-linejoin="round"
  class="icon icon-tabler icons-tabler-outline icon-tabler-api-book"
 color="#2563eb" role="img" aria-labelledby="tabler-api-book-title tabler-api-book-desc">
  <title id="tabler-api-book-title">api book</title>
  <desc id="tabler-api-book-desc">文件文档 - Tabler Icons - api-book - MIT</desc>
  <path stroke="none" d="M0 0h24v24H0z" fill="none" />
  <path fill="currentColor" d="M3 19a9 9 0 0 1 9 0a9 9 0 0 1 1.006 -.5" />
  <path fill="currentColor" d="M3 6a9 9 0 0 1 9 0a9 9 0 0 1 9 0" />
  <path fill="currentColor" d="M3 6v13" />
  <path fill="currentColor" d="M12 6v13" />
  <path fill="currentColor" d="M21 6v6" />
  <path fill="currentColor" d="M17.001 19a2 2 0 1 0 4 0a2 2 0 1 0 -4 0" />
  <path fill="currentColor" d="M19.001 15.5v1.5" />
  <path fill="currentColor" d="M19.001 21v1.5" />
  <path fill="currentColor" d="M22.032 17.25l-1.299 .75" />
  <path fill="currentColor" d="M17.27 20l-1.3 .75" />
  <path fill="currentColor" d="M15.97 17.25l1.3 .75" />
  <path fill="currentColor" d="M20.733 20l1.3 .75" />
</svg>