<svg
  xmlns="http://www.w3.org/2000/svg"
  width="24"
  height="24"
  viewBox="0 0 24 24"
  fill="none"
  stroke="currentColor"
  stroke-width="2"
  stroke-linecap="round"
  stroke-linejoin="round"
  class="icon icon-tabler icons-tabler-outline icon-tabler-invoice"
 color="#2563eb" role="img" aria-labelledby="tabler-invoice-title tabler-invoice-desc">
  <title id="tabler-invoice-title">invoice</title>
  <desc id="tabler-invoice-desc">业务金融 - Tabler Icons - invoice - MIT</desc>
  <path stroke="none" d="M0 0h24v24H0z" fill="none" />
  <path fill="currentColor" d="M14 3v4a1 1 0 0 0 1 1h4" />
  <path fill="currentColor" d="M19 12v7a1.78 1.78 0 0 1 -3.1 1.4a1.65 1.65 0 0 0 -2.6 0a1.65 1.65 0 0 1 -2.6 0a1.65 1.65 0 0 0 -2.6 0a1.78 1.78 0 0 1 -3.1 -1.4v-14a2 2 0 0 1 2 -2h7l5 5v4.25" />
</svg>