<svg
  xmlns="http://www.w3.org/2000/svg"
  width="24"
  height="24"
  viewBox="0 0 24 24"
  fill="none"
  stroke="currentColor"
  stroke-width="2"
  stroke-linecap="round"
  stroke-linejoin="round"
  class="icon icon-tabler icons-tabler-outline icon-tabler-briefcase"
 color="#2563eb" role="img" aria-labelledby="tabler-briefcase-title tabler-briefcase-desc">
  <title id="tabler-briefcase-title">briefcase</title>
  <desc id="tabler-briefcase-desc">业务金融 - Tabler Icons - briefcase - MIT</desc>
  <path stroke="none" d="M0 0h24v24H0z" fill="none" />
  <path fill="currentColor" d="M3 9a2 2 0 0 1 2 -2h14a2 2 0 0 1 2 2v9a2 2 0 0 1 -2 2h-14a2 2 0 0 1 -2 -2l0 -9" />
  <path fill="currentColor" d="M8 7v-2a2 2 0 0 1 2 -2h4a2 2 0 0 1 2 2v2" />
  <path fill="currentColor" d="M12 12l0 .01" />
  <path fill="currentColor" d="M3 13a20 20 0 0 0 18 0" />
</svg>