<svg
  xmlns="http://www.w3.org/2000/svg"
  width="24"
  height="24"
  viewBox="0 0 24 24"
  fill="none"
  stroke="currentColor"
  stroke-width="2"
  stroke-linecap="round"
  stroke-linejoin="round"
  class="icon icon-tabler icons-tabler-outline icon-tabler-credit-card-off"
 color="#2563eb" role="img" aria-labelledby="tabler-credit-card-off-title tabler-credit-card-off-desc">
  <title id="tabler-credit-card-off-title">credit card off</title>
  <desc id="tabler-credit-card-off-desc">业务金融 - Tabler Icons - credit-card-off - MIT</desc>
  <path stroke="none" d="M0 0h24v24H0z" fill="none" />
  <path fill="currentColor" d="M3 3l18 18" />
  <path fill="currentColor" d="M9 5h9a3 3 0 0 1 3 3v8a3 3 0 0 1 -.128 .87" />
  <path fill="currentColor" d="M18.87 18.872a3 3 0 0 1 -.87 .128h-12a3 3 0 0 1 -3 -3v-8c0 -1.352 .894 -2.495 2.124 -2.87" />
  <path fill="currentColor" d="M3 11l8 0" />
  <path fill="currentColor" d="M15 11l6 0" />
  <path fill="currentColor" d="M7 15l.01 0" />
  <path fill="currentColor" d="M11 15l2 0" />
</svg>