<svg
  xmlns="http://www.w3.org/2000/svg"
  width="24"
  height="24"
  viewBox="0 0 24 24"
  fill="none"
  stroke="currentColor"
  stroke-width="2"
  stroke-linecap="round"
  stroke-linejoin="round"
  class="icon icon-tabler icons-tabler-outline icon-tabler-credits"
 color="#2563eb" role="img" aria-labelledby="tabler-credits-title tabler-credits-desc">
  <title id="tabler-credits-title">credits</title>
  <desc id="tabler-credits-desc">业务金融 - Tabler Icons - credits - MIT</desc>
  <path stroke="none" d="M0 0h24v24H0z" fill="none" />
  <path fill="currentColor" d="M3 14a6 2 0 1 0 12 0a6 2 0 1 0 -12 0"  />
  <path fill="currentColor" d="M3 14v5c0 1.105 2.686 2 6 2s6 -.895 6 -2v-5" />
  <path fill="currentColor" d="M9 5a6 2 0 1 0 12 0a6 2 0 1 0 -12 0"  />
  <path fill="currentColor" d="M9 5v3" />
  <path fill="currentColor" d="M18.365 11.656c1.59 -.36 2.635 -.966 2.635 -1.656v-5" />
</svg>