<svg
  xmlns="http://www.w3.org/2000/svg"
  width="24"
  height="24"
  viewBox="0 0 24 24"
  fill="none"
  stroke="currentColor"
  stroke-width="2"
  stroke-linecap="round"
  stroke-linejoin="round"
  class="icon icon-tabler icons-tabler-outline icon-tabler-cash-off"
 color="#2563eb" role="img" aria-labelledby="tabler-cash-off-title tabler-cash-off-desc">
  <title id="tabler-cash-off-title">cash off</title>
  <desc id="tabler-cash-off-desc">业务金融 - Tabler Icons - cash-off - MIT</desc>
  <path stroke="none" d="M0 0h24v24H0z" fill="none" />
  <path fill="currentColor" d="M13 9h6a2 2 0 0 1 2 2v6m-2 2h-10a2 2 0 0 1 -2 -2v-6a2 2 0 0 1 2 -2" />
  <path fill="currentColor" d="M12.582 12.59a2 2 0 0 0 2.83 2.826" />
  <path fill="currentColor" d="M17 9v-2a2 2 0 0 0 -2 -2h-6m-4 0a2 2 0 0 0 -2 2v6a2 2 0 0 0 2 2h2" />
  <path fill="currentColor" d="M3 3l18 18" />
</svg>