<svg width="24" height="24" viewBox="0 0 20 20" xmlns="http://www.w3.org/2000/svg" color="#2563eb" role="img" aria-labelledby="line-horizontal-4-search-title line-horizontal-4-search-desc">
  <title id="line-horizontal-4-search-title">Line Horizontal 4 Search</title>
  <desc id="line-horizontal-4-search-desc">无障碍与包容 - line_horizontal_4_search, 20px regular</desc><path fill="currentColor" d="M12.5 10c1.06 0 2.04-.37 2.8-.98l3.85 3.83a.5.5 0 0 0 .7-.7L16.02 8.3A4.5 4.5 0 1 0 12.5 10Zm0-8a3.5 3.5 0 1 1 0 7 3.5 3.5 0 0 1 0-7Zm.02 9h3.36l1 1H2.5a.5.5 0 0 1 0-1h10.02ZM2.5 3h5.1c-.16.32-.3.65-.4 1H2.5a.5.5 0 0 1 0-1Zm5.1 5c-.16-.32-.3-.65-.4-1H2.5a.5.5 0 0 0 0 1h5.1ZM2 15.5c0-.28.22-.5.5-.5h15a.5.5 0 0 1 0 1h-15a.5.5 0 0 1-.5-.5Z"/></svg>