<svg
  xmlns="http://www.w3.org/2000/svg"
  width="24"
  height="24"
  viewBox="0 0 24 24"
  fill="none"
  stroke="currentColor"
  stroke-width="2"
  stroke-linecap="round"
  stroke-linejoin="round"
  class="icon icon-tabler icons-tabler-outline icon-tabler-sandbox"
 color="#2563eb" role="img" aria-labelledby="tabler-sandbox-title tabler-sandbox-desc">
  <title id="tabler-sandbox-title">sandbox</title>
  <desc id="tabler-sandbox-desc">配电环节 - Tabler Icons - sandbox - MIT</desc>
  <path stroke="none" d="M0 0h24v24H0z" fill="none" />
  <path fill="currentColor" d="M19.953 8.017l1.047 6.983v2a3 3 0 0 1 -3 3h-12a3 3 0 0 1 -3 -3v-2l1.245 -8.297a2 2 0 0 1 1.977 -1.703h3.778" />
  <path fill="currentColor" d="M3 15h18" />
  <path fill="currentColor" d="M13 3l5.5 1.5" />
  <path fill="currentColor" d="M15.75 3.75l-2 7" />
  <path fill="currentColor" d="M7 10.5c1.667 -.667 3.333 -.667 5 0c1.667 .667 3.333 .667 5 0" />
</svg>