<svg
  xmlns="http://www.w3.org/2000/svg"
  width="24"
  height="24"
  viewBox="0 0 24 24"
  fill="none"
  stroke="currentColor"
  stroke-width="2"
  stroke-linecap="round"
  stroke-linejoin="round"
  class="icon icon-tabler icons-tabler-outline icon-tabler-tooltip"
 color="#2563eb" role="img" aria-labelledby="tabler-tooltip-title tabler-tooltip-desc">
  <title id="tabler-tooltip-title">tooltip</title>
  <desc id="tabler-tooltip-desc">配电环节 - Tabler Icons - tooltip - MIT</desc>
  <path stroke="none" d="M0 0h24v24H0z" fill="none" />
  <path fill="currentColor" d="M10 18a2 2 0 1 0 4 0a2 2 0 1 0 -4 0" />
  <path fill="currentColor" d="M12 13l-1.707 -1.707a1 1 0 0 0 -.707 -.293h-2.586a2 2 0 0 1 -2 -2v-3a2 2 0 0 1 2 -2h10a2 2 0 0 1 2 2v3a2 2 0 0 1 -2 2h-2.586a1 1 0 0 0 -.707 .293l-1.707 1.707" />
</svg>