<svg
  xmlns="http://www.w3.org/2000/svg"
  width="24"
  height="24"
  viewBox="0 0 24 24"
  fill="none"
  stroke="currentColor"
  stroke-width="2"
  stroke-linecap="round"
  stroke-linejoin="round"
  class="icon icon-tabler icons-tabler-outline icon-tabler-box-model"
 color="#2563eb" role="img" aria-labelledby="tabler-box-model-title tabler-box-model-desc">
  <title id="tabler-box-model-title">box model</title>
  <desc id="tabler-box-model-desc">配电环节 - Tabler Icons - box-model - MIT</desc>
  <path stroke="none" d="M0 0h24v24H0z" fill="none" />
  <path fill="currentColor" d="M8 8h8v8h-8l0 -8" />
  <path fill="currentColor" d="M4 6a2 2 0 0 1 2 -2h12a2 2 0 0 1 2 2v12a2 2 0 0 1 -2 2h-12a2 2 0 0 1 -2 -2l0 -12" />
  <path fill="currentColor" d="M16 16l3.3 3.3" />
  <path fill="currentColor" d="M16 8l3.3 -3.3" />
  <path fill="currentColor" d="M8 8l-3.3 -3.3" />
  <path fill="currentColor" d="M8 16l-3.3 3.3" />
</svg>