<svg
  xmlns="http://www.w3.org/2000/svg"
  width="24"
  height="24"
  viewBox="0 0 24 24"
  fill="none"
  stroke="currentColor"
  stroke-width="2"
  stroke-linecap="round"
  stroke-linejoin="round"
  class="icon icon-tabler icons-tabler-outline icon-tabler-smart-home-off"
 color="#2563eb" role="img" aria-labelledby="tabler-smart-home-off-title tabler-smart-home-off-desc">
  <title id="tabler-smart-home-off-title">smart home off</title>
  <desc id="tabler-smart-home-off-desc">配电环节 - Tabler Icons - smart-home-off - MIT</desc>
  <path stroke="none" d="M0 0h24v24H0z" fill="none" />
  <path fill="currentColor" d="M7.097 7.125l-2.037 1.585a2.665 2.665 0 0 0 -1.029 2.105v7.2a2 2 0 0 0 2 2h12c.559 0 1.064 -.229 1.427 -.598m.572 -3.417v-5.185c0 -.823 -.38 -1.6 -1.03 -2.105l-5.333 -4.148a2.666 2.666 0 0 0 -3.274 0l-1.029 .8" />
  <path fill="currentColor" d="M15.332 15.345c-2.213 .976 -5.335 .86 -7.332 -.345" />
  <path fill="currentColor" d="M3 3l18 18" />
</svg>