<svg
  xmlns="http://www.w3.org/2000/svg"
  width="24"
  height="24"
  viewBox="0 0 24 24"
  fill="none"
  stroke="currentColor"
  stroke-width="2"
  stroke-linecap="round"
  stroke-linejoin="round"
  class="icon icon-tabler icons-tabler-outline icon-tabler-building-cog"
 color="#2563eb" role="img" aria-labelledby="tabler-building-cog-title tabler-building-cog-desc">
  <title id="tabler-building-cog-title">building cog</title>
  <desc id="tabler-building-cog-desc">配电环节 - Tabler Icons - building-cog - MIT</desc>
  <path stroke="none" d="M0 0h24v24H0z" fill="none" />
  <path fill="currentColor" d="M3 21h9" />
  <path fill="currentColor" d="M9 8h1" />
  <path fill="currentColor" d="M9 12h1" />
  <path fill="currentColor" d="M9 16h1" />
  <path fill="currentColor" d="M14 8h1" />
  <path fill="currentColor" d="M14 12h1" />
  <path fill="currentColor" d="M5 21v-16c0 -.53 .211 -1.039 .586 -1.414c.375 -.375 .884 -.586 1.414 -.586h10c.53 0 1.039 .211 1.414 .586c.375 .375 .586 .884 .586 1.414v7" />
  <path fill="currentColor" d="M16 18c0 .53 .211 1.039 .586 1.414c.375 .375 .884 .586 1.414 .586c.53 0 1.039 -.211 1.414 -.586c.375 -.375 .586 -.884 .586 -1.414c0 -.53 -.211 -1.039 -.586 -1.414c-.375 -.375 -.884 -.586 -1.414 -.586c-.53 0 -1.039 .211 -1.414 .586c-.375 .375 -.586 .884 -.586 1.414" />
  <path fill="currentColor" d="M18 14.5v1.5" />
  <path fill="currentColor" d="M18 20v1.5" />
  <path fill="currentColor" d="M21.032 16.25l-1.299 .75" />
  <path fill="currentColor" d="M16.27 19l-1.3 .75" />
  <path fill="currentColor" d="M14.97 16.25l1.3 .75" />
  <path fill="currentColor" d="M19.733 19l1.3 .75" />
</svg>