<svg
  xmlns="http://www.w3.org/2000/svg"
  width="24"
  height="24"
  viewBox="0 0 24 24"
  fill="none"
  stroke="currentColor"
  stroke-width="2"
  stroke-linecap="round"
  stroke-linejoin="round"
  class="icon icon-tabler icons-tabler-outline icon-tabler-topology-bus"
 color="#2563eb" role="img" aria-labelledby="tabler-topology-bus-title tabler-topology-bus-desc">
  <title id="tabler-topology-bus-title">topology bus</title>
  <desc id="tabler-topology-bus-desc">配电环节 - Tabler Icons - topology-bus - MIT</desc>
  <path stroke="none" d="M0 0h24v24H0z" fill="none" />
  <path fill="currentColor" d="M14 10a2 2 0 1 0 -4 0a2 2 0 0 0 4 0" />
  <path fill="currentColor" d="M6 10a2 2 0 1 0 -4 0a2 2 0 0 0 4 0" />
  <path fill="currentColor" d="M22 10a2 2 0 1 0 -4 0a2 2 0 0 0 4 0" />
  <path fill="currentColor" d="M2 16h20" />
  <path fill="currentColor" d="M4 12v4" />
  <path fill="currentColor" d="M12 12v4" />
  <path fill="currentColor" d="M20 12v4" />
</svg>