<svg
  xmlns="http://www.w3.org/2000/svg"
  width="24"
  height="24"
  viewBox="0 0 24 24"
  fill="none"
  stroke="currentColor"
  stroke-width="2"
  stroke-linecap="round"
  stroke-linejoin="round"
  class="icon icon-tabler icons-tabler-outline icon-tabler-topology-full"
 color="#2563eb" role="img" aria-labelledby="tabler-topology-full-title tabler-topology-full-desc">
  <title id="tabler-topology-full-title">topology full</title>
  <desc id="tabler-topology-full-desc">配电环节 - Tabler Icons - topology-full - MIT</desc>
  <path stroke="none" d="M0 0h24v24H0z" fill="none" />
  <path fill="currentColor" d="M20 18a2 2 0 1 0 -4 0a2 2 0 0 0 4 0" />
  <path fill="currentColor" d="M8 18a2 2 0 1 0 -4 0a2 2 0 0 0 4 0" />
  <path fill="currentColor" d="M8 6a2 2 0 1 0 -4 0a2 2 0 0 0 4 0" />
  <path fill="currentColor" d="M20 6a2 2 0 1 0 -4 0a2 2 0 0 0 4 0" />
  <path fill="currentColor" d="M6 8v8" />
  <path fill="currentColor" d="M18 16v-8" />
  <path fill="currentColor" d="M8 6h8" />
  <path fill="currentColor" d="M16 18h-8" />
  <path fill="currentColor" d="M7.5 7.5l9 9" />
  <path fill="currentColor" d="M7.5 16.5l9 -9" />
</svg>