<svg
  xmlns="http://www.w3.org/2000/svg"
  width="24"
  height="24"
  viewBox="0 0 24 24"
  fill="none"
  stroke="currentColor"
  stroke-width="2"
  stroke-linecap="round"
  stroke-linejoin="round"
  class="icon icon-tabler icons-tabler-outline icon-tabler-solar-panel-2"
 color="#2563eb" role="img" aria-labelledby="tabler-solar-panel-2-title tabler-solar-panel-2-desc">
  <title id="tabler-solar-panel-2-title">solar panel 2</title>
  <desc id="tabler-solar-panel-2-desc">风光水发电 - Tabler Icons - solar-panel-2 - MIT</desc>
  <path stroke="none" d="M0 0h24v24H0z" fill="none" />
  <path fill="currentColor" d="M8 2a4 4 0 1 0 8 0" />
  <path fill="currentColor" d="M4 3h1" />
  <path fill="currentColor" d="M19 3h1" />
  <path fill="currentColor" d="M12 9v1" />
  <path fill="currentColor" d="M17.2 7.2l.707 .707" />
  <path fill="currentColor" d="M6.8 7.2l-.7 .7" />
  <path fill="currentColor" d="M4.28 21h15.44a1 1 0 0 0 .97 -1.243l-1.5 -6a1 1 0 0 0 -.97 -.757h-12.44a1 1 0 0 0 -.97 .757l-1.5 6a1 1 0 0 0 .97 1.243" />
  <path fill="currentColor" d="M4 17h16" />
  <path fill="currentColor" d="M10 13l-1 8" />
  <path fill="currentColor" d="M14 13l1 8" />
</svg>