<svg
  xmlns="http://www.w3.org/2000/svg"
  width="24"
  height="24"
  viewBox="0 0 24 24"
  fill="none"
  stroke="currentColor"
  stroke-width="2"
  stroke-linecap="round"
  stroke-linejoin="round"
  class="icon icon-tabler icons-tabler-outline icon-tabler-blade"
 color="#2563eb" role="img" aria-labelledby="tabler-blade-title tabler-blade-desc">
  <title id="tabler-blade-title">blade</title>
  <desc id="tabler-blade-desc">风光水发电 - Tabler Icons - blade - MIT</desc>
  <path stroke="none" d="M0 0h24v24H0z" fill="none" />
  <path fill="currentColor" d="M17.707 3.707l2.586 2.586a1 1 0 0 1 0 1.414l-.586 .586a1 1 0 0 0 0 1.414l.586 .586a1 1 0 0 1 0 1.414l-8.586 8.586a1 1 0 0 1 -1.414 0l-.586 -.586a1 1 0 0 0 -1.414 0l-.586 .586a1 1 0 0 1 -1.414 0l-2.586 -2.586a1 1 0 0 1 0 -1.414l.586 -.586a1 1 0 0 0 0 -1.414l-.586 -.586a1 1 0 0 1 0 -1.414l8.586 -8.586a1 1 0 0 1 1.414 0l.586 .586a1 1 0 0 0 1.414 0l.586 -.586a1 1 0 0 1 1.414 0" />
  <path fill="currentColor" d="M8 16l3.2 -3.2" />
  <path fill="currentColor" d="M12.8 11.2l3.2 -3.2" />
  <path fill="currentColor" d="M14 8l2 2" />
  <path fill="currentColor" d="M8 14l2 2" />
  <path fill="currentColor" d="M11 12a1 1 0 1 0 2 0a1 1 0 1 0 -2 0" />
</svg>