<svg
  xmlns="http://www.w3.org/2000/svg"
  width="24"
  height="24"
  viewBox="0 0 24 24"
  fill="none"
  stroke="currentColor"
  stroke-width="2"
  stroke-linecap="round"
  stroke-linejoin="round"
  class="icon icon-tabler icons-tabler-outline icon-tabler-solar-panel"
 color="#2563eb" role="img" aria-labelledby="tabler-solar-panel-title tabler-solar-panel-desc">
  <title id="tabler-solar-panel-title">solar panel</title>
  <desc id="tabler-solar-panel-desc">风光水发电 - Tabler Icons - solar-panel - MIT</desc>
  <path stroke="none" d="M0 0h24v24H0z" fill="none" />
  <path fill="currentColor" d="M4.28 14h15.44a1 1 0 0 0 .97 -1.243l-1.5 -6a1 1 0 0 0 -.97 -.757h-12.44a1 1 0 0 0 -.97 .757l-1.5 6a1 1 0 0 0 .97 1.243" />
  <path fill="currentColor" d="M4 10h16" />
  <path fill="currentColor" d="M10 6l-1 8" />
  <path fill="currentColor" d="M14 6l1 8" />
  <path fill="currentColor" d="M12 14v4" />
  <path fill="currentColor" d="M7 18h10" />
</svg>