<svg xmlns="http://www.w3.org/2000/svg" width="16" height="16" fill="currentColor" class="bi bi-thermometer-half" viewBox="0 0 16 16" color="#2563eb" role="img" aria-labelledby="bootstrap-thermometer-half-title bootstrap-thermometer-half-desc">
  <title id="bootstrap-thermometer-half-title">thermometer half</title>
  <desc id="bootstrap-thermometer-half-desc">能源通用 - Bootstrap Icons - thermometer-half - MIT</desc>
  <path fill="currentColor" d="M9.5 12.5a1.5 1.5 0 1 1-2-1.415V6.5a.5.5 0 0 1 1 0v4.585a1.5 1.5 0 0 1 1 1.415"/>
  <path fill="currentColor" d="M5.5 2.5a2.5 2.5 0 0 1 5 0v7.55a3.5 3.5 0 1 1-5 0zM8 1a1.5 1.5 0 0 0-1.5 1.5v7.987l-.167.15a2.5 2.5 0 1 0 3.333 0l-.166-.15V2.5A1.5 1.5 0 0 0 8 1"/>
</svg>