<svg xmlns="http://www.w3.org/2000/svg" viewBox="0 0 512 512" color="#2563eb" role="img" aria-labelledby="coreui-money-title coreui-money-desc">
  <title id="coreui-money-title">money</title>
  <desc id="coreui-money-desc">业务金融 - CoreUI Icons - money - MIT</desc>
  <path fill="var(--ci-primary-color, currentColor)" d="M432 64H16v320h416Zm-32 288H48V96h352Z" class="ci-primary"/>
  <path fill="var(--ci-primary-color, currentColor)" d="M464 144v272H96v32h400V144z" class="ci-primary"/>
  <path fill="var(--ci-primary-color, currentColor)" d="M224 302.46c39.7 0 72-35.137 72-78.326s-32.3-78.326-72-78.326-72 35.136-72 78.326 32.3 78.326 72 78.326m0-124.652c22.056 0 40 20.782 40 46.326s-17.944 46.326-40 46.326-40-20.782-40-46.326 17.944-46.326 40-46.326M80 136h32v176H80zm256 0h32v176h-32z" class="ci-primary"/>
</svg>
