<svg xmlns="http://www.w3.org/2000/svg" width="24" height="24" fill="none" viewBox="0 0 24 24" color="#2563eb" role="img" aria-labelledby="grommet-cpu-title grommet-cpu-desc">
  <title id="grommet-cpu-title">cpu</title>
  <desc id="grommet-cpu-desc">开发工具 - Grommet Icons - cpu - Apache-2.0</desc>
  <path stroke="#000" stroke-width="2" d="M1 18h3m-3-4h3m-3-4h3M1 6h3m16 12h3m-3-4h3m-3-4h3m-3-4h3M6 1v3m4-3v3m4-3v3m4-3v3M6 20v3m4-3v3m4-3v3m4-3v3M5 20h14a1 1 0 001-1V5a1 1 0 00-1-1H5a1 1 0 00-1 1v14a1 1 0 001 1zm8-13h4v4h-4V7z"/>
</svg>
