<svg
  xmlns="http://www.w3.org/2000/svg"
  width="24"
  height="24"
  viewBox="0 0 24 24"
  fill="none"
  stroke="currentColor"
  stroke-width="2"
  stroke-linecap="round"
  stroke-linejoin="round"
  class="icon icon-tabler icons-tabler-outline icon-tabler-server-bolt"
 color="#2563eb" role="img" aria-labelledby="tabler-server-bolt-title tabler-server-bolt-desc">
  <title id="tabler-server-bolt-title">server bolt</title>
  <desc id="tabler-server-bolt-desc">云与基础设施 - Tabler Icons - server-bolt - MIT</desc>
  <path stroke="none" d="M0 0h24v24H0z" fill="none" />
  <path fill="currentColor" d="M3 7a3 3 0 0 1 3 -3h12a3 3 0 0 1 3 3v2a3 3 0 0 1 -3 3h-12a3 3 0 0 1 -3 -3" />
  <path fill="currentColor" d="M15 20h-9a3 3 0 0 1 -3 -3v-2a3 3 0 0 1 3 -3h12" />
  <path fill="currentColor" d="M7 8v.01" />
  <path fill="currentColor" d="M7 16v.01" />
  <path fill="currentColor" d="M20 15l-2 3h3l-2 3" />
</svg>