<svg xmlns="http://www.w3.org/2000/svg" width="24" height="24" fill="none" viewBox="0 0 24 24" color="#2563eb" role="img" aria-labelledby="grommet-blades-vertical-title grommet-blades-vertical-desc">
  <title id="grommet-blades-vertical-title">blades vertical</title>
  <desc id="grommet-blades-vertical-desc">风光水发电 - Grommet Icons - blades-vertical - Apache-2.0</desc>
  <path stroke="#000" stroke-width="2" d="M17 3v4m0 3v4m0 3v4m4-17v2a1 1 0 01-1 1H4a1 1 0 01-1-1V4a1 1 0 011-1h16a1 1 0 011 1zm0 7v2a1 1 0 01-1 1H4a1 1 0 01-1-1v-2a1 1 0 011-1h16a1 1 0 011 1zm0 7v2a1 1 0 01-1 1H4a1 1 0 01-1-1v-2a1 1 0 011-1h16a1 1 0 011 1z"/>
</svg>
