<svg xmlns="http://www.w3.org/2000/svg" width="24" height="24" fill="currentColor" viewBox="0 0 24 24" color="#2563eb" role="img" aria-labelledby="pixelarticons-zap-title pixelarticons-zap-desc">
  <title id="pixelarticons-zap-title">zap</title>
  <desc id="pixelarticons-zap-desc">能源通用 - Pixelarticons - zap - MIT</desc>
  <path fill="currentColor" d="M4 13h8v6h2v2h-2v2h-2v-8H2v-4h2v2Zm12 6h-2v-2h2v2Zm2-2h-2v-2h2v2Zm2-2h-2v-2h2v2Zm-6-6h8v4h-2v-2h-8V5h-2V3h2V1h2v8Zm-8 2H4V9h2v2Zm2-2H6V7h2v2Zm2-2H8V5h2v2Z"/>
</svg>
