<svg xmlns="http://www.w3.org/2000/svg" width="24" height="24" fill="currentColor" viewBox="0 0 24 24" color="#2563eb" role="img" aria-labelledby="pixelarticons-fire-title pixelarticons-fire-desc">
  <title id="pixelarticons-fire-title">fire</title>
  <desc id="pixelarticons-fire-desc">能源通用 - Pixelarticons - fire - MIT</desc>
  <path fill="currentColor" d="M9 2h2v4H9zM7 6h2v2H7zM5 8h2v2H5zm8 2h2v2h-2zm2-2h2v2h-2zm2 2h2v2h-2zm2 2h2v6h-2zM3 10h2v8H3zm8-4h2v4h-2zm6 12h2v2h-2zM7 20h10v2H7zm-2-2h2v2H5zm4-2h6v4H9z"/>
  <path fill="currentColor" d="M11 14h2v3h-2z"/>
</svg>
