<svg xmlns="http://www.w3.org/2000/svg" width="24" height="24" fill="currentColor" viewBox="0 0 24 24" color="#2563eb" role="img" aria-labelledby="pixelarticons-zap-off-title pixelarticons-zap-off-desc">
  <title id="pixelarticons-zap-off-title">zap off</title>
  <desc id="pixelarticons-zap-off-desc">能源通用 - Pixelarticons - zap-off - MIT</desc>
  <path fill="currentColor" d="M10 13h2v10h-2z"/>
  <path fill="currentColor" d="M2 13h10v2H2zM12 1h2v6h-2zm4 8h6v2h-6zm4 2h2v2h-2zm-4 4h2v2h-2zm-2 2h2v2h-2zm-2 2h2v2h-2zM2 11h2v2H2zm2-2h2v2H4zm2-2h2v2H6zm4-4h2v2h-2zM2 1h2v2H2zm2 2h2v2H4zm2 2h2v2H6zm2 2h2v2H8zm2 2h2v2h-2zm2 2h2v2h-2zm2 2h2v2h-2z"/>
  <path fill="currentColor" d="M16 15h2v2h-2zm2 2h2v2h-2zm2 2h2v2h-2z"/>
</svg>
