<svg xmlns="http://www.w3.org/2000/svg" width="24" height="24" fill="currentColor" viewBox="0 0 24 24" color="#2563eb" role="img" aria-labelledby="pixelarticons-tree-pine-title pixelarticons-tree-pine-desc">
  <title id="pixelarticons-tree-pine-title">tree pine</title>
  <desc id="pixelarticons-tree-pine-desc">能源通用 - Pixelarticons - tree-pine - MIT</desc>
  <path fill="currentColor" d="M11 2h2v2h-2zM9 4h2v2H9zm4 0h2v2h-2zm2 2h2v2h-2zM7 6h2v2H7zm0 4h2v2H7zm-2 2h2v2H5zm2 2h2v2H7zm-2 2h2v2H5zm-2 2h18v2H3zM13 8h2v2h-2zm2 2h2v2h-2zM9 8h2v2H9zm8 4h2v2h-2zm-2 2h2v2h-2zm2 2h2v2h-2zm-6 4h2v2h-2z"/>
</svg>
