<svg xmlns="http://www.w3.org/2000/svg" width="24" height="24" fill="currentColor" viewBox="0 0 24 24" color="#2563eb" role="img" aria-labelledby="pixelarticons-circle-power-title pixelarticons-circle-power-desc">
  <title id="pixelarticons-circle-power-title">circle power</title>
  <desc id="pixelarticons-circle-power-desc">能源通用 - Pixelarticons - circle-power - MIT</desc>
  <path fill="currentColor" d="M6 20h12v2H6zM6 2h12v2H6zm12 2h2v2h-2zM4 4h2v2H4zm0 14h2v2H4zm14 0h2v2h-2zM2 6h2v12H2zm18 0h2v12h-2zM9 15h6v2H9zM7 9h2v6H7zm8 0h2v6h-2zm-4-2h2v5h-2z"/>
</svg>
