<svg xmlns="http://www.w3.org/2000/svg" width="48" height="48" viewBox="0 -960 960 960" color="#2563eb" role="img" aria-labelledby="material-symbols-help-clinic-title material-symbols-help-clinic-desc">
  <title id="material-symbols-help-clinic-title">help clinic</title>
  <desc id="material-symbols-help-clinic-desc">医疗安全 - Material Symbols - help_clinic - Apache-2.0</desc><path fill="currentColor" d="M450-280h60v-200h-60v200Zm51.5-298.68q8.5-8.67 8.5-21.5 0-12.82-8.68-21.32-8.67-8.5-21.5-8.5-12.82 0-21.32 8.68-8.5 8.67-8.5 21.5 0 12.82 8.68 21.32 8.67 8.5 21.5 8.5 12.82 0 21.32-8.68ZM160-120v-480l320-240 320 240v480H160Zm60-60h520v-394L480-763 220-574v394Zm260-292Z"/></svg>