<?xml version="1.0" encoding="UTF-8"?>
<svg xmlns="http://www.w3.org/2000/svg" viewBox="0 0 64 64" width="64" height="64" color="#2563eb" role="img" aria-labelledby="distribution-terminal-unit-title distribution-terminal-unit-desc">
  <title id="distribution-terminal-unit-title">配电终端DTU</title>
  <desc id="distribution-terminal-unit-desc">电力与保护控制 - 复用 配电环节 / terminal-box</desc>
  <g transform="translate(8 8) scale(2)">
<path fill="currentColor" d="M3 3H21C21.5523 3 22 3.44772 22 4V20C22 20.5523 21.5523 21 21 21H3C2.44772 21 2 20.5523 2 20V4C2 3.44772 2.44772 3 3 3ZM4 5V19H20V5H4ZM12 15H18V17H12V15ZM8.66685 12L5.83842 9.17157L7.25264 7.75736L11.4953 12L7.25264 16.2426L5.83842 14.8284L8.66685 12Z"/>
  </g>
  <g>
<path d="M46 46h14v14H46z" fill="none" stroke="currentColor" stroke-width="2.6" stroke-linecap="round" stroke-linejoin="round"/><circle cx="52" cy="44" r="0.65" fill="none" stroke="currentColor" stroke-width="2.6" stroke-linecap="round" stroke-linejoin="round"/><path d="M52 44L45 45" fill="none" stroke="currentColor" stroke-width="2.6" stroke-linecap="round" stroke-linejoin="round"/><circle cx="46" cy="45" r="1.1" fill="none" stroke="currentColor" stroke-width="2.6" stroke-linecap="round" stroke-linejoin="round"/>
  </g>
</svg>
