<svg xmlns="http://www.w3.org/2000/svg" viewBox="0 0 32 32" color="#2563eb" role="img" aria-labelledby="carbon-collaborate-title carbon-collaborate-desc">
  <title id="carbon-collaborate-title">collaborate</title>
  <desc id="carbon-collaborate-desc">教育科研 - Carbon Icons - collaborate - Apache-2.0</desc><path fill="currentColor" d="M6,21V20H4v1a7,7,0,0,0,7,7h3V26H11A5,5,0,0,1,6,21Z"/><path fill="currentColor" d="M24,11v1h2V11a7,7,0,0,0-7-7H16V6h3A5,5,0,0,1,24,11Z"/><path fill="currentColor" d="M11,11H5a3,3,0,0,0-3,3v2H4V14a1,1,0,0,1,1-1h6a1,1,0,0,1,1,1v2h2V14A3,3,0,0,0,11,11Z"/><path fill="currentColor" d="M8,10A4,4,0,1,0,4,6,4,4,0,0,0,8,10ZM8,4A2,2,0,1,1,6,6,2,2,0,0,1,8,4Z"/><path fill="currentColor" d="M27,25H21a3,3,0,0,0-3,3v2h2V28a1,1,0,0,1,1-1h6a1,1,0,0,1,1,1v2h2V28A3,3,0,0,0,27,25Z"/><path fill="currentColor" d="M20,20a4,4,0,1,0,4-4A4,4,0,0,0,20,20Zm6,0a2,2,0,1,1-2-2A2,2,0,0,1,26,20Z"/></svg>