<svg xmlns="http://www.w3.org/2000/svg" viewBox="0 0 32 32" color="#2563eb" role="img" aria-labelledby="carbon-certificate-title carbon-certificate-desc">
  <title id="carbon-certificate-title">certificate</title>
  <desc id="carbon-certificate-desc">教育科研 - Carbon Icons - certificate - Apache-2.0</desc><path fill="currentColor" d="M24 17 25.912 20.703 30 21.297 27 24 27.771 28 24 25.75 20.229 28 21 24 18 21.297 22.2 20.703 24 17z"/><path fill="currentColor" d="M6 16H12V18H6z"/><path fill="currentColor" d="M6 12H16V14H6z"/><path fill="currentColor" d="M6 8H16V10H6z"/><path fill="currentColor" d="M16,26H4V6H28V16h2V6a2,2,0,0,0-2-2H4A2,2,0,0,0,2,6V26a2,2,0,0,0,2,2H16Z"/></svg>