<svg xmlns="http://www.w3.org/2000/svg" viewBox="0 0 256 256" fill="currentColor" color="#2563eb" role="img" aria-labelledby="phosphor-hash-straight-title phosphor-hash-straight-desc">
  <title id="phosphor-hash-straight-title">hash straight</title>
  <desc id="phosphor-hash-straight-desc">云与基础设施 - Phosphor Icons - hash-straight - MIT</desc><path fill="currentColor" d="M216,152H168V104h48a8,8,0,0,0,0-16H168V40a8,8,0,0,0-16,0V88H104V40a8,8,0,0,0-16,0V88H40a8,8,0,0,0,0,16H88v48H40a8,8,0,0,0,0,16H88v48a8,8,0,0,0,16,0V168h48v48a8,8,0,0,0,16,0V168h48a8,8,0,0,0,0-16Zm-112,0V104h48v48Z"/></svg>