<svg xmlns="http://www.w3.org/2000/svg" viewBox="0 0 512 512" color="#2563eb" role="img" aria-labelledby="coreui-face-dead-title coreui-face-dead-desc">
  <title id="coreui-face-dead-title">face dead</title>
  <desc id="coreui-face-dead-desc">电力电子 - CoreUI Icons - face-dead - MIT</desc>
  <path fill="var(--ci-primary-color, currentColor)" d="M256 16C123.452 16 16 123.452 16 256s107.452 240 240 240 240-107.452 240-240S388.548 16 256 16m147.078 387.078a207.253 207.253 0 1 1 44.589-66.125 207.3 207.3 0 0 1-44.589 66.125" class="ci-primary"/>
  <path fill="var(--ci-primary-color, currentColor)" d="M168 320h176v32H168zm42.63-91.958-24.042-21.371 21.37-24.041-23.916-21.26-21.371 24.042-24.041-21.37-21.26 23.916 24.042 21.371-21.37 24.041 23.916 21.26 21.371-24.042 24.041 21.37zm173.328-45.412-23.916-21.26-21.371 24.042-24.041-21.37-21.26 23.916 24.042 21.371-21.37 24.041 23.916 21.26 21.371-24.042 24.041 21.37 21.26-23.916-24.042-21.371z" class="ci-primary"/>
</svg>
