<svg xmlns="http://www.w3.org/2000/svg" viewBox="0 0 512 512" color="#2563eb" role="img" aria-labelledby="coreui-bolt-circle-title coreui-bolt-circle-desc">
  <title id="coreui-bolt-circle-title">bolt circle</title>
  <desc id="coreui-bolt-circle-desc">能源通用 - CoreUI Icons - bolt-circle - MIT</desc>
  <path fill="var(--ci-primary-color, currentColor)" d="M425.706 86.294A240 240 0 0 0 86.294 425.706 240 240 0 0 0 425.706 86.294M256 464c-114.691 0-208-93.309-208-208S141.309 48 256 48s208 93.309 208 208-93.309 208-208 208" class="ci-primary"/>
  <path fill="var(--ci-primary-color, currentColor)" d="M372.529 120H180.468L121.8 296h76.047l-36.4 104h77.179L384 254.627V208h-65.249ZM352 240v1.373L225.373 368h-18.821l36.4-104H166.2l37.333-112h111.938l-53.778 88Z" class="ci-primary"/>
</svg>
