<svg xmlns="http://www.w3.org/2000/svg" viewBox="0 0 512 512" color="#2563eb" role="img" aria-labelledby="coreui-battery-3-title coreui-battery-3-desc">
  <title id="coreui-battery-3-title">battery 3</title>
  <desc id="coreui-battery-3-desc">能源通用 - CoreUI Icons - battery-3 - MIT</desc>
  <path fill="var(--ci-primary-color, currentColor)" d="M80 160h32v200H80zm64 0h32v200h-32zm64 0h32v200h-32z" class="ci-primary"/>
  <path fill="var(--ci-primary-color, currentColor)" d="M432 176v-56.41A23.825 23.825 0 0 0 408 96H39.986a23.825 23.825 0 0 0-24 23.59v280.82a23.825 23.825 0 0 0 24 23.59H408a23.825 23.825 0 0 0 24-23.59V344h64V176Zm32 136h-64v80H47.986V128H400v80h64Z" class="ci-primary"/>
</svg>
