<svg xmlns="http://www.w3.org/2000/svg" viewBox="0 0 512 512" color="#2563eb" role="img" aria-labelledby="coreui-window-restore-title coreui-window-restore-desc">
  <title id="coreui-window-restore-title">window restore</title>
  <desc id="coreui-window-restore-desc">能源通用 - CoreUI Icons - window-restore - MIT</desc>
  <path fill="var(--ci-primary-color, currentColor)" d="M352 153H40.247a24.03 24.03 0 0 0-24 24v281a24.03 24.03 0 0 0 24 24H352a24.03 24.03 0 0 0 24-24V177a24.03 24.03 0 0 0-24-24m-8 32v45.22H48.247V185ZM48.247 450V262.22H344V450Z" class="ci-primary"/>
  <path fill="var(--ci-primary-color, currentColor)" d="M472 32H152a24.03 24.03 0 0 0-24 24v65h32V64h304v275.143h-56v32h64a24.03 24.03 0 0 0 24-24V56a24.03 24.03 0 0 0-24-24" class="ci-primary"/>
</svg>
