<svg xmlns="http://www.w3.org/2000/svg" width="16" height="16" focusable="false" viewBox="0 0 16 16" color="#2563eb" role="img" aria-labelledby="zendesk-garden-terminal-cli-title zendesk-garden-terminal-cli-desc">
  <title id="zendesk-garden-terminal-cli-title">terminal cli</title>
  <desc id="zendesk-garden-terminal-cli-desc">开发工具 - Zendesk Garden Icons - terminal-cli - Apache-2.0</desc>
  <path fill="currentColor" d="M1 1h14a1 1 0 011 1v12a1 1 0 01-1 1H1a1 1 0 01-1-1V2a1 1 0 011-1zm6.5 11a.5.5 0 110-1h5a.5.5 0 110 1h-5zM3.146 5.354a.5.5 0 11.708-.708L6.457 7.25a.999.999 0 01.003 1.397l-2.6 2.7a.5.5 0 11-.72-.694L5.743 7.95 3.146 5.354zM1 2v12h14V2H1z"/>
</svg>
