<?xml version="1.0" encoding="UTF-8"?>
<svg xmlns="http://www.w3.org/2000/svg" viewBox="0 0 64 64" width="64" height="64" color="#7c3aed" role="img" aria-labelledby="ev-charging-pile-title ev-charging-pile-desc">
  <title id="ev-charging-pile-title">充电桩</title>
  <desc id="ev-charging-pile-desc">用电环节 - 复用 用电环节 / ev-plug-charging</desc>
  <g transform="translate(8 8) scale(2)">
<path d="M10 13.1538V21" stroke="currentColor" stroke-linecap="round"/>
<path d="M15 8.38452V11.1538C15 12.2583 14.1046 13.1538 13 13.1538H7C5.89543 13.1538 5 12.2583 5 11.1538V8.38452C5 7.27995 5.89543 6.38452 7 6.38452H13C14.1046 6.38452 15 7.27995 15 8.38452Z" stroke="currentColor" stroke-linecap="round"/>
<path d="M13.3334 6.38462V3" stroke="currentColor" stroke-linecap="round"/>
<path d="M6.66663 6.38462V3" stroke="currentColor" stroke-linecap="round"/>
<path d="M16.6667 16L15 19H19L17.3333 22" stroke="currentColor" stroke-linecap="round" stroke-linejoin="round"/>
  </g>
  <g>
<path d="M46 46h14v14H46z" fill="none" stroke="currentColor" stroke-width="2.6" stroke-linecap="round" stroke-linejoin="round"/><circle cx="50" cy="46" r="0.65" fill="none" stroke="currentColor" stroke-width="2.6" stroke-linecap="round" stroke-linejoin="round"/><path d="M50 46L47 45" fill="none" stroke="currentColor" stroke-width="2.6" stroke-linecap="round" stroke-linejoin="round"/><circle cx="45" cy="49" r="1.1" fill="none" stroke="currentColor" stroke-width="2.6" stroke-linecap="round" stroke-linejoin="round"/>
  </g>
</svg>
