<svg xmlns="http://www.w3.org/2000/svg" viewBox="0 0 24 24" color="#2563eb" role="img" aria-labelledby="eva-icons-keypad-title eva-icons-keypad-desc">
  <title id="eva-icons-keypad-title">keypad</title>
  <desc id="eva-icons-keypad-desc">状态告警 - Eva Icons - keypad - MIT</desc><g data-name="Layer 2"><g data-name="keypad"><rect fill="currentColor" width="24" height="24" opacity="0"/><path fill="currentColor" d="M5 2a3 3 0 1 0 3 3 3 3 0 0 0-3-3zm0 4a1 1 0 1 1 1-1 1 1 0 0 1-1 1z"/><path fill="currentColor" d="M12 2a3 3 0 1 0 3 3 3 3 0 0 0-3-3zm0 4a1 1 0 1 1 1-1 1 1 0 0 1-1 1z"/><path fill="currentColor" d="M19 8a3 3 0 1 0-3-3 3 3 0 0 0 3 3zm0-4a1 1 0 1 1-1 1 1 1 0 0 1 1-1z"/><path fill="currentColor" d="M5 9a3 3 0 1 0 3 3 3 3 0 0 0-3-3zm0 4a1 1 0 1 1 1-1 1 1 0 0 1-1 1z"/><path fill="currentColor" d="M12 9a3 3 0 1 0 3 3 3 3 0 0 0-3-3zm0 4a1 1 0 1 1 1-1 1 1 0 0 1-1 1z"/><path fill="currentColor" d="M19 9a3 3 0 1 0 3 3 3 3 0 0 0-3-3zm0 4a1 1 0 1 1 1-1 1 1 0 0 1-1 1z"/><path fill="currentColor" d="M5 16a3 3 0 1 0 3 3 3 3 0 0 0-3-3zm0 4a1 1 0 1 1 1-1 1 1 0 0 1-1 1z"/><path fill="currentColor" d="M12 16a3 3 0 1 0 3 3 3 3 0 0 0-3-3zm0 4a1 1 0 1 1 1-1 1 1 0 0 1-1 1z"/><path fill="currentColor" d="M19 16a3 3 0 1 0 3 3 3 3 0 0 0-3-3zm0 4a1 1 0 1 1 1-1 1 1 0 0 1-1 1z"/></g></g></svg>