<svg xmlns="http://www.w3.org/2000/svg" viewBox="0 0 24 24" color="#2563eb" role="img" aria-labelledby="eva-icons-alert-circle-title eva-icons-alert-circle-desc">
  <title id="eva-icons-alert-circle-title">alert circle</title>
  <desc id="eva-icons-alert-circle-desc">状态告警 - Eva Icons - alert-circle - MIT</desc><g data-name="Layer 2"><g data-name="alert-circle"><rect fill="currentColor" width="24" height="24" opacity="0"/><path fill="currentColor" d="M12 2a10 10 0 1 0 10 10A10 10 0 0 0 12 2zm0 18a8 8 0 1 1 8-8 8 8 0 0 1-8 8z"/><circle fill="currentColor" cx="12" cy="16" r="1"/><path fill="currentColor" d="M12 7a1 1 0 0 0-1 1v5a1 1 0 0 0 2 0V8a1 1 0 0 0-1-1z"/></g></g></svg>