<svg xmlns="http://www.w3.org/2000/svg" viewBox="0 0 24 24" color="#2563eb" role="img" aria-labelledby="eva-icons-question-mark-circle-title eva-icons-question-mark-circle-desc">
  <title id="eva-icons-question-mark-circle-title">question mark circle</title>
  <desc id="eva-icons-question-mark-circle-desc">状态告警 - Eva Icons - question-mark-circle - MIT</desc><g data-name="Layer 2"><g data-name="menu-arrow-circle"><rect fill="currentColor" width="24" height="24" transform="rotate(180 12 12)" opacity="0"/><path fill="currentColor" d="M12 2a10 10 0 1 0 10 10A10 10 0 0 0 12 2zm0 18a8 8 0 1 1 8-8 8 8 0 0 1-8 8z"/><path fill="currentColor" d="M12 6a3.5 3.5 0 0 0-3.5 3.5 1 1 0 0 0 2 0A1.5 1.5 0 1 1 12 11a1 1 0 0 0-1 1v2a1 1 0 0 0 2 0v-1.16A3.49 3.49 0 0 0 12 6z"/><circle fill="currentColor" cx="12" cy="17" r="1"/></g></g></svg>