<svg viewBox="64 64 896 896" focusable="false" xmlns="http://www.w3.org/2000/svg" color="#2563eb" role="img" aria-labelledby="ant-design-icons-switcher-title ant-design-icons-switcher-desc">
  <title id="ant-design-icons-switcher-title">switcher</title>
  <desc id="ant-design-icons-switcher-desc">电力电网 - Ant Design Icons - switcher - MIT</desc><path fill="currentColor" d="M752 240H144c-17.7 0-32 14.3-32 32v608c0 17.7 14.3 32 32 32h608c17.7 0 32-14.3 32-32V272c0-17.7-14.3-32-32-32zm-40 600H184V312h528v528zm168-728H264c-4.4 0-8 3.6-8 8v56c0 4.4 3.6 8 8 8h576v576c0 4.4 3.6 8 8 8h56c4.4 0 8-3.6 8-8V144c0-17.7-14.3-32-32-32zM300 550h296v64H300z" /></svg>