<svg xmlns="http://www.w3.org/2000/svg" width="24" height="24" fill="none" viewBox="0 0 24 24" color="#2563eb" role="img" aria-labelledby="sargam-flow-cascade-title sargam-flow-cascade-desc">
  <title id="sargam-flow-cascade-title">flow cascade</title>
  <desc id="sargam-flow-cascade-desc">综合能源 - Sargam Icons - flow-cascade - MIT</desc><path stroke="#000" stroke-linecap="round" stroke-linejoin="round" stroke-miterlimit="10" stroke-width="1.5" d="M7 6a2 2 0 1 0 0-4 2 2 0 0 0 0 4m0 0v10c0 2.2 1.694 4 3.765 4H15M7 6v3c0 2.2 1.694 4 3.765 4H15m0 7a2 2 0 1 0 4 0 2 2 0 0 0-4 0m0-7a2 2 0 1 0 4 0 2 2 0 0 0-4 0"/></svg>