<svg xmlns="http://www.w3.org/2000/svg" width="16" height="16" fill="currentColor" class="bi bi-calendar4" viewBox="0 0 16 16" color="#2563eb" role="img" aria-labelledby="bootstrap-calendar4-title bootstrap-calendar4-desc">
  <title id="bootstrap-calendar4-title">calendar4</title>
  <desc id="bootstrap-calendar4-desc">办公效率 - Bootstrap Icons - calendar4 - MIT</desc>
  <path fill="currentColor" d="M3.5 0a.5.5 0 0 1 .5.5V1h8V.5a.5.5 0 0 1 1 0V1h1a2 2 0 0 1 2 2v11a2 2 0 0 1-2 2H2a2 2 0 0 1-2-2V3a2 2 0 0 1 2-2h1V.5a.5.5 0 0 1 .5-.5M2 2a1 1 0 0 0-1 1v1h14V3a1 1 0 0 0-1-1zm13 3H1v9a1 1 0 0 0 1 1h12a1 1 0 0 0 1-1z"/>
</svg>